<svg width="238" height="16" viewBox="0 0 238 16" fill="none" xmlns="http://www.w3.org/2000/svg">
<path d="M10.784 3.34389C11.4667 3.34389 12.0693 3.47722 12.592 3.74389C13.1253 4.01055 13.5413 4.42122 13.84 4.97589C14.1387 5.51989 14.288 6.22389 14.288 7.08789V11.9839H12.288V7.34389C12.288 6.58655 12.1227 6.02122 11.792 5.64789C11.4613 5.27455 10.9867 5.08789 10.368 5.08789C9.93067 5.08789 9.54134 5.18389 9.2 5.37589C8.86934 5.56789 8.608 5.85055 8.416 6.22389C8.23467 6.59722 8.144 7.07189 8.144 7.64789V11.9839H6.144V7.34389C6.144 6.58655 5.97867 6.02122 5.648 5.64789C5.31734 5.27455 4.84267 5.08789 4.224 5.08789C3.78667 5.08789 3.39734 5.18389 3.056 5.37589C2.72534 5.56789 2.464 5.85055 2.272 6.22389C2.09067 6.59722 2 7.07189 2 7.64789V11.9839H3.57628e-06V3.43989H1.904V5.71189L1.568 5.03989C1.856 4.48522 2.272 4.06389 2.816 3.77589C3.37067 3.48789 4 3.34389 4.704 3.34389C5.504 3.34389 6.19734 3.54122 6.784 3.93589C7.38134 4.33055 7.776 4.92789 7.968 5.72789L7.184 5.45589C7.46134 4.81589 7.92 4.30389 8.56 3.91989C9.2 3.53589 9.94134 3.34389 10.784 3.34389ZM20.6994 12.0959C19.8247 12.0959 19.046 11.9092 18.3634 11.5359C17.6807 11.1519 17.142 10.6292 16.7474 9.96789C16.3527 9.30655 16.1554 8.55455 16.1554 7.71189C16.1554 6.85855 16.3527 6.10655 16.7474 5.45589C17.142 4.79455 17.6807 4.27722 18.3634 3.90389C19.046 3.53055 19.8247 3.34389 20.6994 3.34389C21.5847 3.34389 22.3687 3.53055 23.0514 3.90389C23.7447 4.27722 24.2834 4.78922 24.6674 5.43989C25.062 6.09055 25.2594 6.84789 25.2594 7.71189C25.2594 8.55455 25.062 9.30655 24.6674 9.96789C24.2834 10.6292 23.7447 11.1519 23.0514 11.5359C22.3687 11.9092 21.5847 12.0959 20.6994 12.0959ZM20.6994 10.3839C21.19 10.3839 21.6274 10.2772 22.0114 10.0639C22.3954 9.85055 22.694 9.54122 22.9074 9.13589C23.1314 8.73055 23.2434 8.25589 23.2434 7.71189C23.2434 7.15722 23.1314 6.68255 22.9074 6.28789C22.694 5.88255 22.3954 5.57322 22.0114 5.35989C21.6274 5.14655 21.1954 5.03989 20.7154 5.03989C20.2247 5.03989 19.7874 5.14655 19.4034 5.35989C19.03 5.57322 18.7314 5.88255 18.5074 6.28789C18.2834 6.68255 18.1714 7.15722 18.1714 7.71189C18.1714 8.25589 18.2834 8.73055 18.5074 9.13589C18.7314 9.54122 19.03 9.85055 19.4034 10.0639C19.7874 10.2772 20.2194 10.3839 20.6994 10.3839ZM32.0199 3.34389C32.7025 3.34389 33.3105 3.47722 33.8439 3.74389C34.3879 4.01055 34.8145 4.42122 35.1239 4.97589C35.4332 5.51989 35.5879 6.22389 35.5879 7.08789V11.9839H33.5879V7.34389C33.5879 6.58655 33.4065 6.02122 33.0439 5.64789C32.6919 5.27455 32.1959 5.08789 31.5559 5.08789C31.0865 5.08789 30.6705 5.18389 30.3079 5.37589C29.9452 5.56789 29.6625 5.85589 29.4599 6.23989C29.2679 6.61322 29.1719 7.08789 29.1719 7.66389V11.9839H27.1719V0.111886H29.1719V5.74389L28.7399 5.03989C29.0385 4.49589 29.4705 4.07989 30.0359 3.79189C30.6119 3.49322 31.2732 3.34389 32.0199 3.34389ZM43.389 11.9839V10.2559L43.277 9.88789V6.86389C43.277 6.27722 43.101 5.82389 42.749 5.50389C42.397 5.17322 41.8637 5.00789 41.149 5.00789C40.669 5.00789 40.1943 5.08255 39.725 5.23189C39.2663 5.38122 38.877 5.58922 38.557 5.85589L37.773 4.39989C38.2317 4.04789 38.7757 3.78655 39.405 3.61589C40.045 3.43455 40.7063 3.34389 41.389 3.34389C42.6263 3.34389 43.581 3.64255 44.253 4.23989C44.9357 4.82655 45.277 5.73855 45.277 6.97589V11.9839H43.389ZM40.701 12.0959C40.061 12.0959 39.501 11.9892 39.021 11.7759C38.541 11.5519 38.1677 11.2479 37.901 10.8639C37.645 10.4692 37.517 10.0266 37.517 9.53589C37.517 9.05589 37.629 8.62389 37.853 8.23989C38.0877 7.85589 38.4663 7.55189 38.989 7.32789C39.5117 7.10389 40.205 6.99189 41.069 6.99189H43.549V8.31989H41.213C40.5303 8.31989 40.0717 8.43189 39.837 8.65589C39.6023 8.86922 39.485 9.13589 39.485 9.45589C39.485 9.81855 39.629 10.1066 39.917 10.3199C40.205 10.5332 40.605 10.6399 41.117 10.6399C41.6077 10.6399 42.045 10.5279 42.429 10.3039C42.8237 10.0799 43.1063 9.74922 43.277 9.31189L43.613 10.5119C43.421 11.0132 43.0743 11.4026 42.573 11.6799C42.0823 11.9572 41.4583 12.0959 40.701 12.0959ZM58.6278 3.34389C59.3104 3.34389 59.9131 3.47722 60.4358 3.74389C60.9691 4.01055 61.3851 4.42122 61.6838 4.97589C61.9824 5.51989 62.1318 6.22389 62.1318 7.08789V11.9839H60.1318V7.34389C60.1318 6.58655 59.9664 6.02122 59.6358 5.64789C59.3051 5.27455 58.8304 5.08789 58.2118 5.08789C57.7744 5.08789 57.3851 5.18389 57.0438 5.37589C56.7131 5.56789 56.4518 5.85055 56.2598 6.22389C56.0784 6.59722 55.9878 7.07189 55.9878 7.64789V11.9839H53.9878V7.34389C53.9878 6.58655 53.8224 6.02122 53.4918 5.64789C53.1611 5.27455 52.6864 5.08789 52.0678 5.08789C51.6304 5.08789 51.2411 5.18389 50.8998 5.37589C50.5691 5.56789 50.3078 5.85055 50.1158 6.22389C49.9344 6.59722 49.8438 7.07189 49.8438 7.64789V11.9839H47.8438V3.43989H49.7478V5.71189L49.4118 5.03989C49.6998 4.48522 50.1158 4.06389 50.6598 3.77589C51.2144 3.48789 51.8438 3.34389 52.5478 3.34389C53.3478 3.34389 54.0411 3.54122 54.6278 3.93589C55.2251 4.33055 55.6198 4.92789 55.8118 5.72789L55.0278 5.45589C55.3051 4.81589 55.7638 4.30389 56.4038 3.91989C57.0438 3.53589 57.7851 3.34389 58.6278 3.34389ZM68.7191 12.0959C67.7698 12.0959 66.9378 11.9092 66.2231 11.5359C65.5191 11.1519 64.9698 10.6292 64.5751 9.96789C64.1911 9.30655 63.9991 8.55455 63.9991 7.71189C63.9991 6.85855 64.1858 6.10655 64.5591 5.45589C64.9431 4.79455 65.4658 4.27722 66.1271 3.90389C66.7991 3.53055 67.5618 3.34389 68.4151 3.34389C69.2471 3.34389 69.9885 3.52522 70.6391 3.88789C71.2898 4.25055 71.8018 4.76255 72.1751 5.42389C72.5485 6.08522 72.7351 6.86389 72.7351 7.75989C72.7351 7.84522 72.7298 7.94122 72.7191 8.04789C72.7191 8.15455 72.7138 8.25589 72.7031 8.35189H65.5831V7.02389H71.6471L70.8631 7.43989C70.8738 6.94922 70.7725 6.51722 70.5591 6.14389C70.3458 5.77055 70.0525 5.47722 69.6791 5.26389C69.3165 5.05055 68.8951 4.94389 68.4151 4.94389C67.9245 4.94389 67.4925 5.05055 67.1191 5.26389C66.7565 5.47722 66.4685 5.77589 66.2551 6.15989C66.0525 6.53322 65.9511 6.97589 65.9511 7.48789V7.80789C65.9511 8.31989 66.0685 8.77322 66.3031 9.16789C66.5378 9.56255 66.8685 9.86655 67.2951 10.0799C67.7218 10.2932 68.2125 10.3999 68.7671 10.3999C69.2471 10.3999 69.6791 10.3252 70.0631 10.1759C70.4471 10.0266 70.7885 9.79189 71.0871 9.47189L72.1591 10.7039C71.7751 11.1519 71.2898 11.4986 70.7031 11.7439C70.1271 11.9786 69.4658 12.0959 68.7191 12.0959ZM78.2723 12.0959C77.4509 12.0959 76.7096 11.9146 76.0483 11.5519C75.3976 11.1786 74.8856 10.6666 74.5123 10.0159C74.1389 9.36522 73.9523 8.59722 73.9523 7.71189C73.9523 6.82655 74.1389 6.05855 74.5123 5.40789C74.8856 4.75722 75.3976 4.25055 76.0483 3.88789C76.7096 3.52522 77.4509 3.34389 78.2723 3.34389C78.9869 3.34389 79.6269 3.50389 80.1923 3.82389C80.7576 4.13322 81.2056 4.60789 81.5363 5.24789C81.8669 5.88789 82.0323 6.70922 82.0323 7.71189C82.0323 8.70389 81.8723 9.52522 81.5523 10.1759C81.2323 10.8159 80.7896 11.2959 80.2243 11.6159C79.6589 11.9359 79.0083 12.0959 78.2723 12.0959ZM78.5123 10.3839C78.9923 10.3839 79.4189 10.2772 79.7923 10.0639C80.1763 9.85055 80.4803 9.54122 80.7043 9.13589C80.9389 8.73055 81.0563 8.25589 81.0563 7.71189C81.0563 7.15722 80.9389 6.68255 80.7043 6.28789C80.4803 5.88255 80.1763 5.57322 79.7923 5.35989C79.4189 5.14655 78.9923 5.03989 78.5123 5.03989C78.0323 5.03989 77.6003 5.14655 77.2163 5.35989C76.8429 5.57322 76.5389 5.88255 76.3043 6.28789C76.0803 6.68255 75.9683 7.15722 75.9683 7.71189C75.9683 8.25589 76.0803 8.73055 76.3043 9.13589C76.5389 9.54122 76.8429 9.85055 77.2163 10.0639C77.6003 10.2772 78.0323 10.3839 78.5123 10.3839ZM81.1043 11.9839V9.96789L81.1843 7.69589L81.0243 5.42389V0.111886H83.0083V11.9839H81.1043ZM85.9126 11.9839V2.95989C85.9126 2.06389 86.174 1.34922 86.6966 0.815886C87.23 0.271887 87.9873 -0.000113487 88.9686 -0.000113487C89.3206 -0.000113487 89.6513 0.0372197 89.9606 0.111886C90.2806 0.186553 90.5473 0.303886 90.7606 0.463886L90.2166 1.96789C90.0673 1.85055 89.8966 1.76522 89.7046 1.71189C89.5126 1.64789 89.3153 1.61589 89.1126 1.61589C88.6966 1.61589 88.382 1.73322 88.1686 1.96789C87.9553 2.19189 87.8486 2.53322 87.8486 2.99189V3.95189L87.9126 4.84789V11.9839H85.9126ZM84.5046 5.10389V3.50389H90.2006V5.10389H84.5046ZM96.6546 11.9839V10.2559L96.5426 9.88789V6.86389C96.5426 6.27722 96.3666 5.82389 96.0146 5.50389C95.6626 5.17322 95.1293 5.00789 94.4146 5.00789C93.9346 5.00789 93.46 5.08255 92.9906 5.23189C92.532 5.38122 92.1426 5.58922 91.8226 5.85589L91.0386 4.39989C91.4973 4.04789 92.0413 3.78655 92.6706 3.61589C93.3106 3.43455 93.972 3.34389 94.6546 3.34389C95.892 3.34389 96.8466 3.64255 97.5186 4.23989C98.2013 4.82655 98.5426 5.73855 98.5426 6.97589V11.9839H96.6546ZM93.9666 12.0959C93.3266 12.0959 92.7666 11.9892 92.2866 11.7759C91.8066 11.5519 91.4333 11.2479 91.1666 10.8639C90.9106 10.4692 90.7826 10.0266 90.7826 9.53589C90.7826 9.05589 90.8946 8.62389 91.1186 8.23989C91.3533 7.85589 91.732 7.55189 92.2546 7.32789C92.7773 7.10389 93.4706 6.99189 94.3346 6.99189H96.8146V8.31989H94.4786C93.796 8.31989 93.3373 8.43189 93.1026 8.65589C92.868 8.86922 92.7506 9.13589 92.7506 9.45589C92.7506 9.81855 92.8946 10.1066 93.1826 10.3199C93.4706 10.5332 93.8706 10.6399 94.3826 10.6399C94.8733 10.6399 95.3106 10.5279 95.6946 10.3039C96.0893 10.0799 96.372 9.74922 96.5426 9.31189L96.8786 10.5119C96.6866 11.0132 96.34 11.4026 95.8386 11.6799C95.348 11.9572 94.724 12.0959 93.9666 12.0959ZM101.109 11.9839V3.43989H103.013V5.79189L102.789 5.10389C103.045 4.52789 103.445 4.09055 103.989 3.79189C104.544 3.49322 105.232 3.34389 106.053 3.34389V5.24789C105.968 5.22655 105.888 5.21589 105.813 5.21589C105.739 5.20522 105.664 5.19989 105.589 5.19989C104.832 5.19989 104.229 5.42389 103.781 5.87189C103.333 6.30922 103.109 6.96522 103.109 7.83989V11.9839H101.109ZM111.688 12.0959C110.739 12.0959 109.907 11.9092 109.192 11.5359C108.488 11.1519 107.939 10.6292 107.544 9.96789C107.16 9.30655 106.968 8.55455 106.968 7.71189C106.968 6.85855 107.155 6.10655 107.528 5.45589C107.912 4.79455 108.435 4.27722 109.096 3.90389C109.768 3.53055 110.531 3.34389 111.384 3.34389C112.216 3.34389 112.957 3.52522 113.608 3.88789C114.259 4.25055 114.771 4.76255 115.144 5.42389C115.517 6.08522 115.704 6.86389 115.704 7.75989C115.704 7.84522 115.699 7.94122 115.688 8.04789C115.688 8.15455 115.683 8.25589 115.672 8.35189H108.552V7.02389H114.616L113.832 7.43989C113.843 6.94922 113.741 6.51722 113.528 6.14389C113.315 5.77055 113.021 5.47722 112.648 5.26389C112.285 5.05055 111.864 4.94389 111.384 4.94389C110.893 4.94389 110.461 5.05055 110.088 5.26389C109.725 5.47722 109.437 5.77589 109.224 6.15989C109.021 6.53322 108.92 6.97589 108.92 7.48789V7.80789C108.92 8.31989 109.037 8.77322 109.272 9.16789C109.507 9.56255 109.837 9.86655 110.264 10.0799C110.691 10.2932 111.181 10.3999 111.736 10.3999C112.216 10.3999 112.648 10.3252 113.032 10.1759C113.416 10.0266 113.757 9.79189 114.056 9.47189L115.128 10.7039C114.744 11.1519 114.259 11.4986 113.672 11.7439C113.096 11.9786 112.435 12.0959 111.688 12.0959ZM120.265 12.0959C119.55 12.0959 118.862 12.0052 118.201 11.8239C117.55 11.6319 117.033 11.4026 116.649 11.1359L117.417 9.61589C117.801 9.86122 118.26 10.0639 118.793 10.2239C119.326 10.3839 119.86 10.4639 120.393 10.4639C121.022 10.4639 121.476 10.3786 121.753 10.2079C122.041 10.0372 122.185 9.80789 122.185 9.51989C122.185 9.28522 122.089 9.10922 121.897 8.99189C121.705 8.86389 121.454 8.76789 121.145 8.70389C120.836 8.63989 120.489 8.58122 120.105 8.52789C119.732 8.47455 119.353 8.40522 118.969 8.31989C118.596 8.22389 118.254 8.09055 117.945 7.91989C117.636 7.73855 117.385 7.49855 117.193 7.19989C117.001 6.90122 116.905 6.50655 116.905 6.01589C116.905 5.47189 117.06 5.00255 117.369 4.60789C117.678 4.20255 118.11 3.89322 118.665 3.67989C119.23 3.45589 119.897 3.34389 120.665 3.34389C121.241 3.34389 121.822 3.40789 122.409 3.53589C122.996 3.66389 123.481 3.84522 123.865 4.07989L123.097 5.59989C122.692 5.35455 122.281 5.18922 121.865 5.10389C121.46 5.00789 121.054 4.95989 120.649 4.95989C120.041 4.95989 119.588 5.05055 119.289 5.23189C119.001 5.41322 118.857 5.64255 118.857 5.91989C118.857 6.17589 118.953 6.36789 119.145 6.49589C119.337 6.62389 119.588 6.72522 119.897 6.79989C120.206 6.87455 120.548 6.93855 120.921 6.99189C121.305 7.03455 121.684 7.10389 122.057 7.19989C122.43 7.29589 122.772 7.42922 123.081 7.59989C123.401 7.75989 123.657 7.98922 123.849 8.28789C124.041 8.58655 124.137 8.97589 124.137 9.45589C124.137 9.98922 123.977 10.4532 123.657 10.8479C123.348 11.2426 122.905 11.5519 122.329 11.7759C121.753 11.9892 121.065 12.0959 120.265 12.0959ZM132.835 15.2479C131.705 15.2479 130.675 15.0666 129.747 14.7039C128.819 14.3412 128.019 13.8292 127.347 13.1679C126.675 12.5066 126.158 11.7332 125.795 10.8479C125.433 9.95189 125.251 8.97589 125.251 7.91989C125.251 6.86389 125.433 5.89322 125.795 5.00789C126.158 4.12255 126.675 3.35455 127.347 2.70389C128.03 2.05322 128.841 1.54655 129.779 1.18389C130.718 0.821219 131.758 0.639886 132.899 0.639886C133.998 0.639886 135.006 0.815886 135.923 1.16789C136.841 1.50922 137.63 1.99455 138.291 2.62389C138.963 3.24255 139.481 3.97855 139.843 4.83189C140.217 5.68522 140.403 6.62389 140.403 7.64789C140.403 8.56522 140.281 9.35989 140.035 10.0319C139.79 10.6932 139.438 11.1999 138.979 11.5519C138.531 11.9039 137.982 12.0799 137.331 12.0799C136.67 12.0799 136.142 11.8826 135.747 11.4879C135.363 11.0932 135.171 10.5226 135.171 9.77589V8.86389L135.235 7.95189L135.091 5.87189V4.04789H136.867V9.48789C136.867 9.89322 136.947 10.1812 137.107 10.3519C137.278 10.5119 137.475 10.5919 137.699 10.5919C137.987 10.5919 138.233 10.4799 138.435 10.2559C138.638 10.0319 138.787 9.70122 138.883 9.26389C138.99 8.82655 139.043 8.29855 139.043 7.67989C139.043 6.82655 138.894 6.04789 138.595 5.34389C138.307 4.63989 137.886 4.03722 137.331 3.53589C136.787 3.02389 136.137 2.63455 135.379 2.36789C134.633 2.09055 133.806 1.95189 132.899 1.95189C131.971 1.95189 131.129 2.10122 130.371 2.39989C129.614 2.68789 128.963 3.09855 128.419 3.63189C127.875 4.16522 127.454 4.79989 127.155 5.53589C126.867 6.26122 126.723 7.05589 126.723 7.91989C126.723 8.80522 126.867 9.61589 127.155 10.3519C127.443 11.0879 127.854 11.7172 128.387 12.2399C128.931 12.7732 129.577 13.1839 130.323 13.4719C131.07 13.7706 131.907 13.9199 132.835 13.9199C133.326 13.9199 133.843 13.8612 134.387 13.7439C134.931 13.6372 135.449 13.4612 135.939 13.2159L136.371 14.4959C135.881 14.7412 135.315 14.9279 134.675 15.0559C134.035 15.1839 133.422 15.2479 132.835 15.2479ZM132.419 12.0799C131.683 12.0799 131.027 11.9092 130.451 11.5679C129.875 11.2159 129.417 10.7359 129.075 10.1279C128.745 9.50922 128.579 8.79989 128.579 7.99989C128.579 7.21055 128.745 6.51189 129.075 5.90389C129.406 5.28522 129.859 4.80522 130.435 4.46389C131.022 4.12255 131.683 3.95189 132.419 3.95189C133.134 3.95189 133.758 4.11189 134.291 4.43189C134.825 4.74122 135.241 5.19455 135.539 5.79189C135.838 6.38922 135.987 7.12522 135.987 7.99989C135.987 8.87455 135.843 9.61589 135.555 10.2239C135.267 10.8319 134.857 11.2959 134.323 11.6159C133.79 11.9252 133.155 12.0799 132.419 12.0799ZM132.755 10.5279C133.214 10.5279 133.619 10.4319 133.971 10.2399C134.323 10.0372 134.601 9.74389 134.803 9.35989C135.017 8.97589 135.123 8.52255 135.123 7.99989C135.123 7.46655 135.017 7.01855 134.803 6.65589C134.601 6.28255 134.323 5.99989 133.971 5.80789C133.619 5.60522 133.214 5.50389 132.755 5.50389C132.286 5.50389 131.87 5.60522 131.507 5.80789C131.155 6.01055 130.878 6.29855 130.675 6.67189C130.483 7.04522 130.387 7.48789 130.387 7.99989C130.387 8.52255 130.483 8.97055 130.675 9.34389C130.878 9.71722 131.155 10.0106 131.507 10.2239C131.87 10.4266 132.286 10.5279 132.755 10.5279ZM145.046 12.0959C144.332 12.0959 143.644 12.0052 142.982 11.8239C142.332 11.6319 141.814 11.4026 141.43 11.1359L142.198 9.61589C142.582 9.86122 143.041 10.0639 143.574 10.2239C144.108 10.3839 144.641 10.4639 145.174 10.4639C145.804 10.4639 146.257 10.3786 146.534 10.2079C146.822 10.0372 146.966 9.80789 146.966 9.51989C146.966 9.28522 146.87 9.10922 146.678 8.99189C146.486 8.86389 146.236 8.76789 145.926 8.70389C145.617 8.63989 145.27 8.58122 144.886 8.52789C144.513 8.47455 144.134 8.40522 143.75 8.31989C143.377 8.22389 143.036 8.09055 142.726 7.91989C142.417 7.73855 142.166 7.49855 141.974 7.19989C141.782 6.90122 141.686 6.50655 141.686 6.01589C141.686 5.47189 141.841 5.00255 142.15 4.60789C142.46 4.20255 142.892 3.89322 143.446 3.67989C144.012 3.45589 144.678 3.34389 145.446 3.34389C146.022 3.34389 146.604 3.40789 147.19 3.53589C147.777 3.66389 148.262 3.84522 148.646 4.07989L147.878 5.59989C147.473 5.35455 147.062 5.18922 146.646 5.10389C146.241 5.00789 145.836 4.95989 145.43 4.95989C144.822 4.95989 144.369 5.05055 144.07 5.23189C143.782 5.41322 143.638 5.64255 143.638 5.91989C143.638 6.17589 143.734 6.36789 143.926 6.49589C144.118 6.62389 144.369 6.72522 144.678 6.79989C144.988 6.87455 145.329 6.93855 145.702 6.99189C146.086 7.03455 146.465 7.10389 146.838 7.19989C147.212 7.29589 147.553 7.42922 147.862 7.59989C148.182 7.75989 148.438 7.98922 148.63 8.28789C148.822 8.58655 148.918 8.97589 148.918 9.45589C148.918 9.98922 148.758 10.4532 148.438 10.8479C148.129 11.2426 147.686 11.5519 147.11 11.7759C146.534 11.9892 145.846 12.0959 145.046 12.0959ZM153.857 12.0959C152.918 12.0959 152.193 11.8559 151.681 11.3759C151.169 10.8852 150.913 10.1652 150.913 9.21589V1.55189H152.913V9.16789C152.913 9.57322 153.014 9.88789 153.217 10.1119C153.43 10.3359 153.723 10.4479 154.097 10.4479C154.545 10.4479 154.918 10.3306 155.217 10.0959L155.777 11.5199C155.542 11.7119 155.254 11.8559 154.913 11.9519C154.571 12.0479 154.219 12.0959 153.857 12.0959ZM149.505 5.10389V3.50389H155.201V5.10389H149.505ZM160.981 12.0959C160.106 12.0959 159.327 11.9092 158.645 11.5359C157.962 11.1519 157.423 10.6292 157.029 9.96789C156.634 9.30655 156.437 8.55455 156.437 7.71189C156.437 6.85855 156.634 6.10655 157.029 5.45589C157.423 4.79455 157.962 4.27722 158.645 3.90389C159.327 3.53055 160.106 3.34389 160.981 3.34389C161.866 3.34389 162.65 3.53055 163.333 3.90389C164.026 4.27722 164.565 4.78922 164.949 5.43989C165.343 6.09055 165.541 6.84789 165.541 7.71189C165.541 8.55455 165.343 9.30655 164.949 9.96789C164.565 10.6292 164.026 11.1519 163.333 11.5359C162.65 11.9092 161.866 12.0959 160.981 12.0959ZM160.981 10.3839C161.471 10.3839 161.909 10.2772 162.293 10.0639C162.677 9.85055 162.975 9.54122 163.189 9.13589C163.413 8.73055 163.525 8.25589 163.525 7.71189C163.525 7.15722 163.413 6.68255 163.189 6.28789C162.975 5.88255 162.677 5.57322 162.293 5.35989C161.909 5.14655 161.477 5.03989 160.997 5.03989C160.506 5.03989 160.069 5.14655 159.685 5.35989C159.311 5.57322 159.013 5.88255 158.789 6.28789C158.565 6.68255 158.453 7.15722 158.453 7.71189C158.453 8.25589 158.565 8.73055 158.789 9.13589C159.013 9.54122 159.311 9.85055 159.685 10.0639C160.069 10.2772 160.501 10.3839 160.981 10.3839ZM171.373 12.0959C170.477 12.0959 169.677 11.9092 168.973 11.5359C168.28 11.1519 167.736 10.6292 167.341 9.96789C166.946 9.30655 166.749 8.55455 166.749 7.71189C166.749 6.85855 166.946 6.10655 167.341 5.45589C167.736 4.79455 168.28 4.27722 168.973 3.90389C169.677 3.53055 170.477 3.34389 171.373 3.34389C172.205 3.34389 172.936 3.51455 173.565 3.85589C174.205 4.18655 174.69 4.67722 175.021 5.32789L173.485 6.22389C173.229 5.81855 172.914 5.51989 172.541 5.32789C172.178 5.13589 171.784 5.03989 171.357 5.03989C170.866 5.03989 170.424 5.14655 170.029 5.35989C169.634 5.57322 169.325 5.88255 169.101 6.28789C168.877 6.68255 168.765 7.15722 168.765 7.71189C168.765 8.26655 168.877 8.74655 169.101 9.15189C169.325 9.54655 169.634 9.85055 170.029 10.0639C170.424 10.2772 170.866 10.3839 171.357 10.3839C171.784 10.3839 172.178 10.2879 172.541 10.0959C172.914 9.90389 173.229 9.60522 173.485 9.19989L175.021 10.0959C174.69 10.7359 174.205 11.2319 173.565 11.5839C172.936 11.9252 172.205 12.0959 171.373 12.0959ZM178.304 10.0799L178.352 7.56789L182.816 3.43989H185.216L181.424 7.24789L180.368 8.12789L178.304 10.0799ZM176.672 11.9839V0.111886H178.672V11.9839H176.672ZM183.12 11.9839L180 8.12789L181.264 6.52789L185.552 11.9839H183.12ZM186.844 11.9839V0.111886H188.844V11.9839H186.844ZM192.173 15.1999C191.757 15.1999 191.341 15.1306 190.925 14.9919C190.509 14.8532 190.162 14.6612 189.885 14.4159L190.685 12.9439C190.887 13.1252 191.117 13.2692 191.373 13.3759C191.629 13.4826 191.89 13.5359 192.157 13.5359C192.519 13.5359 192.813 13.4452 193.037 13.2639C193.261 13.0826 193.469 12.7786 193.661 12.3519L194.157 11.2319L194.317 10.9919L197.549 3.43989H199.469L195.469 12.6719C195.202 13.3119 194.903 13.8186 194.573 14.1919C194.253 14.5652 193.89 14.8266 193.485 14.9759C193.09 15.1252 192.653 15.1999 192.173 15.1999ZM193.933 12.2879L190.077 3.43989H192.157L195.293 10.8159L193.933 12.2879ZM200.828 12.0959C200.465 12.0959 200.156 11.9732 199.9 11.7279C199.644 11.4719 199.516 11.1519 199.516 10.7679C199.516 10.3626 199.644 10.0426 199.9 9.80789C200.156 9.56255 200.465 9.43989 200.828 9.43989C201.19 9.43989 201.5 9.56255 201.756 9.80789C202.012 10.0426 202.14 10.3626 202.14 10.7679C202.14 11.1519 202.012 11.4719 201.756 11.7279C201.5 11.9732 201.19 12.0959 200.828 12.0959ZM207.873 12.0959C206.977 12.0959 206.177 11.9092 205.473 11.5359C204.78 11.1519 204.236 10.6292 203.841 9.96789C203.446 9.30655 203.249 8.55455 203.249 7.71189C203.249 6.85855 203.446 6.10655 203.841 5.45589C204.236 4.79455 204.78 4.27722 205.473 3.90389C206.177 3.53055 206.977 3.34389 207.873 3.34389C208.705 3.34389 209.436 3.51455 210.065 3.85589C210.705 4.18655 211.19 4.67722 211.521 5.32789L209.985 6.22389C209.729 5.81855 209.414 5.51989 209.041 5.32789C208.678 5.13589 208.284 5.03989 207.857 5.03989C207.366 5.03989 206.924 5.14655 206.529 5.35989C206.134 5.57322 205.825 5.88255 205.601 6.28789C205.377 6.68255 205.265 7.15722 205.265 7.71189C205.265 8.26655 205.377 8.74655 205.601 9.15189C205.825 9.54655 206.134 9.85055 206.529 10.0639C206.924 10.2772 207.366 10.3839 207.857 10.3839C208.284 10.3839 208.678 10.2879 209.041 10.0959C209.414 9.90389 209.729 9.60522 209.985 9.19989L211.521 10.0959C211.19 10.7359 210.705 11.2319 210.065 11.5839C209.436 11.9252 208.705 12.0959 207.873 12.0959ZM216.965 12.0959C216.09 12.0959 215.312 11.9092 214.629 11.5359C213.946 11.1519 213.408 10.6292 213.013 9.96789C212.618 9.30655 212.421 8.55455 212.421 7.71189C212.421 6.85855 212.618 6.10655 213.013 5.45589C213.408 4.79455 213.946 4.27722 214.629 3.90389C215.312 3.53055 216.09 3.34389 216.965 3.34389C217.85 3.34389 218.634 3.53055 219.317 3.90389C220.01 4.27722 220.549 4.78922 220.933 5.43989C221.328 6.09055 221.525 6.84789 221.525 7.71189C221.525 8.55455 221.328 9.30655 220.933 9.96789C220.549 10.6292 220.01 11.1519 219.317 11.5359C218.634 11.9092 217.85 12.0959 216.965 12.0959ZM216.965 10.3839C217.456 10.3839 217.893 10.2772 218.277 10.0639C218.661 9.85055 218.96 9.54122 219.173 9.13589C219.397 8.73055 219.509 8.25589 219.509 7.71189C219.509 7.15722 219.397 6.68255 219.173 6.28789C218.96 5.88255 218.661 5.57322 218.277 5.35989C217.893 5.14655 217.461 5.03989 216.981 5.03989C216.49 5.03989 216.053 5.14655 215.669 5.35989C215.296 5.57322 214.997 5.88255 214.773 6.28789C214.549 6.68255 214.437 7.15722 214.437 7.71189C214.437 8.25589 214.549 8.73055 214.773 9.13589C214.997 9.54122 215.296 9.85055 215.669 10.0639C216.053 10.2772 216.485 10.3839 216.965 10.3839ZM234.222 3.34389C234.904 3.34389 235.507 3.47722 236.03 3.74389C236.563 4.01055 236.979 4.42122 237.278 4.97589C237.576 5.51989 237.726 6.22389 237.726 7.08789V11.9839H235.726V7.34389C235.726 6.58655 235.56 6.02122 235.23 5.64789C234.899 5.27455 234.424 5.08789 233.806 5.08789C233.368 5.08789 232.979 5.18389 232.638 5.37589C232.307 5.56789 232.046 5.85055 231.854 6.22389C231.672 6.59722 231.582 7.07189 231.582 7.64789V11.9839H229.582V7.34389C229.582 6.58655 229.416 6.02122 229.086 5.64789C228.755 5.27455 228.28 5.08789 227.662 5.08789C227.224 5.08789 226.835 5.18389 226.494 5.37589C226.163 5.56789 225.902 5.85055 225.71 6.22389C225.528 6.59722 225.438 7.07189 225.438 7.64789V11.9839H223.438V3.43989H225.342V5.71189L225.006 5.03989C225.294 4.48522 225.71 4.06389 226.254 3.77589C226.808 3.48789 227.438 3.34389 228.142 3.34389C228.942 3.34389 229.635 3.54122 230.222 3.93589C230.819 4.33055 231.214 4.92789 231.406 5.72789L230.622 5.45589C230.899 4.81589 231.358 4.30389 231.998 3.91989C232.638 3.53589 233.379 3.34389 234.222 3.34389Z" fill="#333333"/>
</svg>
