<svg width="683" height="48" viewBox="0 0 683 48" fill="none" xmlns="http://www.w3.org/2000/svg">
<rect width="683" height="48" rx="4" fill="#001EF4"/>
<path d="M269.976 30.16C269.101 30.16 268.264 30.0373 267.464 29.792C266.664 29.536 266.029 29.2107 265.56 28.816L266.28 27.2C266.728 27.552 267.283 27.8453 267.944 28.08C268.605 28.3147 269.283 28.432 269.976 28.432C270.563 28.432 271.037 28.368 271.4 28.24C271.763 28.112 272.029 27.9413 272.2 27.728C272.371 27.504 272.456 27.2533 272.456 26.976C272.456 26.6347 272.333 26.3627 272.088 26.16C271.843 25.9467 271.523 25.7813 271.128 25.664C270.744 25.536 270.312 25.4187 269.832 25.312C269.363 25.2053 268.888 25.0827 268.408 24.944C267.939 24.7947 267.507 24.608 267.112 24.384C266.728 24.1493 266.413 23.84 266.168 23.456C265.923 23.072 265.8 22.5813 265.8 21.984C265.8 21.376 265.96 20.8213 266.28 20.32C266.611 19.808 267.107 19.4027 267.768 19.104C268.44 18.7947 269.288 18.64 270.312 18.64C270.984 18.64 271.651 18.7253 272.312 18.896C272.973 19.0667 273.549 19.312 274.04 19.632L273.384 21.248C272.883 20.9493 272.365 20.7307 271.832 20.592C271.299 20.4427 270.787 20.368 270.296 20.368C269.72 20.368 269.251 20.4373 268.888 20.576C268.536 20.7147 268.275 20.896 268.104 21.12C267.944 21.344 267.864 21.6 267.864 21.888C267.864 22.2293 267.981 22.5067 268.216 22.72C268.461 22.9227 268.776 23.0827 269.16 23.2C269.555 23.3173 269.992 23.4347 270.472 23.552C270.952 23.6587 271.427 23.7813 271.896 23.92C272.376 24.0587 272.808 24.24 273.192 24.464C273.587 24.688 273.901 24.992 274.136 25.376C274.381 25.76 274.504 26.2453 274.504 26.832C274.504 27.4293 274.339 27.984 274.008 28.496C273.688 28.9973 273.192 29.4027 272.52 29.712C271.848 30.0107 271 30.16 269.976 30.16ZM280.391 30.112C279.441 30.112 278.609 29.9253 277.895 29.552C277.191 29.168 276.641 28.6453 276.247 27.984C275.863 27.3227 275.671 26.5707 275.671 25.728C275.671 24.8747 275.857 24.1227 276.231 23.472C276.615 22.8107 277.137 22.2933 277.799 21.92C278.471 21.5467 279.233 21.36 280.087 21.36C280.919 21.36 281.66 21.5413 282.311 21.904C282.961 22.2667 283.473 22.7787 283.847 23.44C284.22 24.1013 284.407 24.88 284.407 25.776C284.407 25.8613 284.401 25.9573 284.391 26.064C284.391 26.1707 284.385 26.272 284.375 26.368H277.255V25.04H283.319L282.535 25.456C282.545 24.9653 282.444 24.5333 282.231 24.16C282.017 23.7867 281.724 23.4933 281.351 23.28C280.988 23.0667 280.567 22.96 280.087 22.96C279.596 22.96 279.164 23.0667 278.791 23.28C278.428 23.4933 278.14 23.792 277.927 24.176C277.724 24.5493 277.623 24.992 277.623 25.504V25.824C277.623 26.336 277.74 26.7893 277.975 27.184C278.209 27.5787 278.54 27.8827 278.967 28.096C279.393 28.3093 279.884 28.416 280.439 28.416C280.919 28.416 281.351 28.3413 281.735 28.192C282.119 28.0427 282.46 27.808 282.759 27.488L283.831 28.72C283.447 29.168 282.961 29.5147 282.375 29.76C281.799 29.9947 281.137 30.112 280.391 30.112ZM291.176 21.36C291.858 21.36 292.466 21.4933 293 21.76C293.544 22.0267 293.97 22.4373 294.28 22.992C294.589 23.536 294.744 24.24 294.744 25.104V30H292.744V25.36C292.744 24.6027 292.562 24.0373 292.2 23.664C291.848 23.2907 291.352 23.104 290.712 23.104C290.242 23.104 289.826 23.2 289.464 23.392C289.101 23.584 288.818 23.872 288.616 24.256C288.424 24.6293 288.328 25.104 288.328 25.68V30H286.328V21.456H288.232V23.76L287.896 23.056C288.194 22.512 288.626 22.096 289.192 21.808C289.768 21.5093 290.429 21.36 291.176 21.36ZM300.912 30.112C300.091 30.112 299.35 29.9307 298.688 29.568C298.038 29.1947 297.526 28.6827 297.152 28.032C296.779 27.3813 296.592 26.6133 296.592 25.728C296.592 24.8427 296.779 24.0747 297.152 23.424C297.526 22.7733 298.038 22.2667 298.688 21.904C299.35 21.5413 300.091 21.36 300.912 21.36C301.627 21.36 302.267 21.52 302.832 21.84C303.398 22.1493 303.846 22.624 304.176 23.264C304.507 23.904 304.672 24.7253 304.672 25.728C304.672 26.72 304.512 27.5413 304.192 28.192C303.872 28.832 303.43 29.312 302.864 29.632C302.299 29.952 301.648 30.112 300.912 30.112ZM301.152 28.4C301.632 28.4 302.059 28.2933 302.432 28.08C302.816 27.8667 303.12 27.5573 303.344 27.152C303.579 26.7467 303.696 26.272 303.696 25.728C303.696 25.1733 303.579 24.6987 303.344 24.304C303.12 23.8987 302.816 23.5893 302.432 23.376C302.059 23.1627 301.632 23.056 301.152 23.056C300.672 23.056 300.24 23.1627 299.856 23.376C299.483 23.5893 299.179 23.8987 298.944 24.304C298.72 24.6987 298.608 25.1733 298.608 25.728C298.608 26.272 298.72 26.7467 298.944 27.152C299.179 27.5573 299.483 27.8667 299.856 28.08C300.24 28.2933 300.672 28.4 301.152 28.4ZM303.744 30V27.984L303.824 25.712L303.664 23.44V18.128H305.648V30H303.744ZM315.919 30.112C314.98 30.112 314.255 29.872 313.743 29.392C313.231 28.9013 312.975 28.1813 312.975 27.232V19.568H314.975V27.184C314.975 27.5893 315.076 27.904 315.279 28.128C315.492 28.352 315.785 28.464 316.159 28.464C316.607 28.464 316.98 28.3467 317.279 28.112L317.839 29.536C317.604 29.728 317.316 29.872 316.975 29.968C316.633 30.064 316.281 30.112 315.919 30.112ZM311.567 23.12V21.52H317.263V23.12H311.567ZM324.332 21.36C325.015 21.36 325.623 21.4933 326.156 21.76C326.7 22.0267 327.127 22.4373 327.436 22.992C327.745 23.536 327.9 24.24 327.9 25.104V30H325.9V25.36C325.9 24.6027 325.719 24.0373 325.356 23.664C325.004 23.2907 324.508 23.104 323.868 23.104C323.399 23.104 322.983 23.2 322.62 23.392C322.257 23.584 321.975 23.872 321.772 24.256C321.58 24.6293 321.484 25.104 321.484 25.68V30H319.484V18.128H321.484V23.76L321.052 23.056C321.351 22.512 321.783 22.096 322.348 21.808C322.924 21.5093 323.585 21.36 324.332 21.36ZM334.469 30.112C333.519 30.112 332.687 29.9253 331.973 29.552C331.269 29.168 330.719 28.6453 330.325 27.984C329.941 27.3227 329.749 26.5707 329.749 25.728C329.749 24.8747 329.935 24.1227 330.309 23.472C330.693 22.8107 331.215 22.2933 331.877 21.92C332.549 21.5467 333.311 21.36 334.165 21.36C334.997 21.36 335.738 21.5413 336.389 21.904C337.039 22.2667 337.551 22.7787 337.925 23.44C338.298 24.1013 338.485 24.88 338.485 25.776C338.485 25.8613 338.479 25.9573 338.469 26.064C338.469 26.1707 338.463 26.272 338.453 26.368H331.333V25.04H337.397L336.613 25.456C336.623 24.9653 336.522 24.5333 336.309 24.16C336.095 23.7867 335.802 23.4933 335.429 23.28C335.066 23.0667 334.645 22.96 334.165 22.96C333.674 22.96 333.242 23.0667 332.869 23.28C332.506 23.4933 332.218 23.792 332.005 24.176C331.802 24.5493 331.701 24.992 331.701 25.504V25.824C331.701 26.336 331.818 26.7893 332.053 27.184C332.287 27.5787 332.618 27.8827 333.045 28.096C333.471 28.3093 333.962 28.416 334.517 28.416C334.997 28.416 335.429 28.3413 335.813 28.192C336.197 28.0427 336.538 27.808 336.837 27.488L337.909 28.72C337.525 29.168 337.039 29.5147 336.453 29.76C335.877 29.9947 335.215 30.112 334.469 30.112ZM355.612 21.36C356.294 21.36 356.897 21.4933 357.42 21.76C357.953 22.0267 358.369 22.4373 358.668 22.992C358.966 23.536 359.116 24.24 359.116 25.104V30H357.116V25.36C357.116 24.6027 356.95 24.0373 356.62 23.664C356.289 23.2907 355.814 23.104 355.196 23.104C354.758 23.104 354.369 23.2 354.028 23.392C353.697 23.584 353.436 23.8667 353.244 24.24C353.062 24.6133 352.972 25.088 352.972 25.664V30H350.972V25.36C350.972 24.6027 350.806 24.0373 350.476 23.664C350.145 23.2907 349.67 23.104 349.052 23.104C348.614 23.104 348.225 23.2 347.884 23.392C347.553 23.584 347.292 23.8667 347.1 24.24C346.918 24.6133 346.828 25.088 346.828 25.664V30H344.828V21.456H346.732V23.728L346.396 23.056C346.684 22.5013 347.1 22.08 347.644 21.792C348.198 21.504 348.828 21.36 349.532 21.36C350.332 21.36 351.025 21.5573 351.612 21.952C352.209 22.3467 352.604 22.944 352.796 23.744L352.012 23.472C352.289 22.832 352.748 22.32 353.388 21.936C354.028 21.552 354.769 21.36 355.612 21.36ZM365.703 30.112C364.754 30.112 363.922 29.9253 363.207 29.552C362.503 29.168 361.954 28.6453 361.559 27.984C361.175 27.3227 360.983 26.5707 360.983 25.728C360.983 24.8747 361.17 24.1227 361.543 23.472C361.927 22.8107 362.45 22.2933 363.111 21.92C363.783 21.5467 364.546 21.36 365.399 21.36C366.231 21.36 366.972 21.5413 367.623 21.904C368.274 22.2667 368.786 22.7787 369.159 23.44C369.532 24.1013 369.719 24.88 369.719 25.776C369.719 25.8613 369.714 25.9573 369.703 26.064C369.703 26.1707 369.698 26.272 369.687 26.368H362.567V25.04H368.631L367.847 25.456C367.858 24.9653 367.756 24.5333 367.543 24.16C367.33 23.7867 367.036 23.4933 366.663 23.28C366.3 23.0667 365.879 22.96 365.399 22.96C364.908 22.96 364.476 23.0667 364.103 23.28C363.74 23.4933 363.452 23.792 363.239 24.176C363.036 24.5493 362.935 24.992 362.935 25.504V25.824C362.935 26.336 363.052 26.7893 363.287 27.184C363.522 27.5787 363.852 27.8827 364.279 28.096C364.706 28.3093 365.196 28.416 365.751 28.416C366.231 28.416 366.663 28.3413 367.047 28.192C367.431 28.0427 367.772 27.808 368.071 27.488L369.143 28.72C368.759 29.168 368.274 29.5147 367.687 29.76C367.111 29.9947 366.45 30.112 365.703 30.112ZM374.28 30.112C373.565 30.112 372.877 30.0213 372.216 29.84C371.565 29.648 371.048 29.4187 370.664 29.152L371.432 27.632C371.816 27.8773 372.275 28.08 372.808 28.24C373.341 28.4 373.875 28.48 374.408 28.48C375.037 28.48 375.491 28.3947 375.768 28.224C376.056 28.0533 376.2 27.824 376.2 27.536C376.2 27.3013 376.104 27.1253 375.912 27.008C375.72 26.88 375.469 26.784 375.16 26.72C374.851 26.656 374.504 26.5973 374.12 26.544C373.747 26.4907 373.368 26.4213 372.984 26.336C372.611 26.24 372.269 26.1067 371.96 25.936C371.651 25.7547 371.4 25.5147 371.208 25.216C371.016 24.9173 370.92 24.5227 370.92 24.032C370.92 23.488 371.075 23.0187 371.384 22.624C371.693 22.2187 372.125 21.9093 372.68 21.696C373.245 21.472 373.912 21.36 374.68 21.36C375.256 21.36 375.837 21.424 376.424 21.552C377.011 21.68 377.496 21.8613 377.88 22.096L377.112 23.616C376.707 23.3707 376.296 23.2053 375.88 23.12C375.475 23.024 375.069 22.976 374.664 22.976C374.056 22.976 373.603 23.0667 373.304 23.248C373.016 23.4293 372.872 23.6587 372.872 23.936C372.872 24.192 372.968 24.384 373.16 24.512C373.352 24.64 373.603 24.7413 373.912 24.816C374.221 24.8907 374.563 24.9547 374.936 25.008C375.32 25.0507 375.699 25.12 376.072 25.216C376.445 25.312 376.787 25.4453 377.096 25.616C377.416 25.776 377.672 26.0053 377.864 26.304C378.056 26.6027 378.152 26.992 378.152 27.472C378.152 28.0053 377.992 28.4693 377.672 28.864C377.363 29.2587 376.92 29.568 376.344 29.792C375.768 30.0053 375.08 30.112 374.28 30.112ZM382.515 30.112C381.8 30.112 381.112 30.0213 380.451 29.84C379.8 29.648 379.283 29.4187 378.899 29.152L379.667 27.632C380.051 27.8773 380.509 28.08 381.043 28.24C381.576 28.4 382.109 28.48 382.643 28.48C383.272 28.48 383.725 28.3947 384.003 28.224C384.291 28.0533 384.435 27.824 384.435 27.536C384.435 27.3013 384.339 27.1253 384.147 27.008C383.955 26.88 383.704 26.784 383.395 26.72C383.085 26.656 382.739 26.5973 382.355 26.544C381.981 26.4907 381.603 26.4213 381.219 26.336C380.845 26.24 380.504 26.1067 380.195 25.936C379.885 25.7547 379.635 25.5147 379.443 25.216C379.251 24.9173 379.155 24.5227 379.155 24.032C379.155 23.488 379.309 23.0187 379.618 22.624C379.928 22.2187 380.36 21.9093 380.914 21.696C381.48 21.472 382.147 21.36 382.915 21.36C383.491 21.36 384.072 21.424 384.659 21.552C385.245 21.68 385.731 21.8613 386.115 22.096L385.347 23.616C384.941 23.3707 384.531 23.2053 384.115 23.12C383.709 23.024 383.304 22.976 382.899 22.976C382.291 22.976 381.837 23.0667 381.539 23.248C381.251 23.4293 381.107 23.6587 381.107 23.936C381.107 24.192 381.203 24.384 381.395 24.512C381.587 24.64 381.837 24.7413 382.147 24.816C382.456 24.8907 382.797 24.9547 383.171 25.008C383.555 25.0507 383.933 25.12 384.307 25.216C384.68 25.312 385.021 25.4453 385.331 25.616C385.651 25.776 385.907 26.0053 386.099 26.304C386.291 26.6027 386.387 26.992 386.387 27.472C386.387 28.0053 386.227 28.4693 385.907 28.864C385.597 29.2587 385.155 29.568 384.579 29.792C384.003 30.0053 383.315 30.112 382.515 30.112ZM393.373 30V28.272L393.261 27.904V24.88C393.261 24.2933 393.085 23.84 392.733 23.52C392.381 23.1893 391.848 23.024 391.133 23.024C390.653 23.024 390.178 23.0987 389.709 23.248C389.25 23.3973 388.861 23.6053 388.541 23.872L387.757 22.416C388.216 22.064 388.76 21.8027 389.389 21.632C390.029 21.4507 390.69 21.36 391.373 21.36C392.61 21.36 393.565 21.6587 394.237 22.256C394.92 22.8427 395.261 23.7547 395.261 24.992V30H393.373ZM390.685 30.112C390.045 30.112 389.485 30.0053 389.005 29.792C388.525 29.568 388.152 29.264 387.885 28.88C387.629 28.4853 387.501 28.0427 387.501 27.552C387.501 27.072 387.613 26.64 387.837 26.256C388.072 25.872 388.45 25.568 388.973 25.344C389.496 25.12 390.189 25.008 391.053 25.008H393.533V26.336H391.197C390.514 26.336 390.056 26.448 389.821 26.672C389.586 26.8853 389.469 27.152 389.469 27.472C389.469 27.8347 389.613 28.1227 389.901 28.336C390.189 28.5493 390.589 28.656 391.101 28.656C391.592 28.656 392.029 28.544 392.413 28.32C392.808 28.096 393.09 27.7653 393.261 27.328L393.597 28.528C393.405 29.0293 393.058 29.4187 392.557 29.696C392.066 29.9733 391.442 30.112 390.685 30.112ZM401.715 33.216C400.926 33.216 400.153 33.1093 399.395 32.896C398.649 32.6933 398.035 32.3947 397.555 32L398.451 30.496C398.825 30.8053 399.294 31.0507 399.859 31.232C400.435 31.424 401.017 31.52 401.603 31.52C402.542 31.52 403.23 31.3013 403.667 30.864C404.105 30.4373 404.323 29.792 404.323 28.928V27.408L404.483 25.472L404.419 23.536V21.456H406.323V28.704C406.323 30.2507 405.929 31.3867 405.139 32.112C404.35 32.848 403.209 33.216 401.715 33.216ZM401.459 29.616C400.649 29.616 399.913 29.4453 399.251 29.104C398.601 28.752 398.083 28.2667 397.699 27.648C397.326 27.0293 397.139 26.304 397.139 25.472C397.139 24.6507 397.326 23.9307 397.699 23.312C398.083 22.6933 398.601 22.2133 399.251 21.872C399.913 21.5307 400.649 21.36 401.459 21.36C402.185 21.36 402.835 21.504 403.411 21.792C403.987 22.08 404.446 22.528 404.787 23.136C405.139 23.744 405.315 24.5227 405.315 25.472C405.315 26.4213 405.139 27.2053 404.787 27.824C404.446 28.432 403.987 28.8853 403.411 29.184C402.835 29.472 402.185 29.616 401.459 29.616ZM401.763 27.92C402.265 27.92 402.713 27.8187 403.107 27.616C403.502 27.4027 403.806 27.1147 404.019 26.752C404.243 26.3787 404.355 25.952 404.355 25.472C404.355 24.992 404.243 24.5707 404.019 24.208C403.806 23.8347 403.502 23.552 403.107 23.36C402.713 23.1573 402.265 23.056 401.763 23.056C401.262 23.056 400.809 23.1573 400.403 23.36C400.009 23.552 399.699 23.8347 399.475 24.208C399.262 24.5707 399.155 24.992 399.155 25.472C399.155 25.952 399.262 26.3787 399.475 26.752C399.699 27.1147 400.009 27.4027 400.403 27.616C400.809 27.8187 401.262 27.92 401.763 27.92ZM412.969 30.112C412.019 30.112 411.187 29.9253 410.473 29.552C409.769 29.168 409.219 28.6453 408.825 27.984C408.441 27.3227 408.249 26.5707 408.249 25.728C408.249 24.8747 408.435 24.1227 408.809 23.472C409.193 22.8107 409.715 22.2933 410.377 21.92C411.049 21.5467 411.811 21.36 412.665 21.36C413.497 21.36 414.238 21.5413 414.889 21.904C415.539 22.2667 416.051 22.7787 416.425 23.44C416.798 24.1013 416.985 24.88 416.985 25.776C416.985 25.8613 416.979 25.9573 416.969 26.064C416.969 26.1707 416.963 26.272 416.953 26.368H409.833V25.04H415.897L415.113 25.456C415.123 24.9653 415.022 24.5333 414.809 24.16C414.595 23.7867 414.302 23.4933 413.929 23.28C413.566 23.0667 413.145 22.96 412.665 22.96C412.174 22.96 411.742 23.0667 411.369 23.28C411.006 23.4933 410.718 23.792 410.505 24.176C410.302 24.5493 410.201 24.992 410.201 25.504V25.824C410.201 26.336 410.318 26.7893 410.553 27.184C410.787 27.5787 411.118 27.8827 411.545 28.096C411.971 28.3093 412.462 28.416 413.017 28.416C413.497 28.416 413.929 28.3413 414.313 28.192C414.697 28.0427 415.038 27.808 415.337 27.488L416.409 28.72C416.025 29.168 415.539 29.5147 414.953 29.76C414.377 29.9947 413.715 30.112 412.969 30.112Z" fill="#FCFCFC"/>
</svg>
