<svg width="51" height="12" viewBox="0 0 51 12" fill="none" xmlns="http://www.w3.org/2000/svg">
<path d="M-5.00679e-06 11.8721V0.67207H4.192C5.14133 0.67207 5.95733 0.826736 6.64 1.13607C7.32266 1.43474 7.84533 1.87207 8.208 2.44807C8.58133 3.0134 8.768 3.7014 8.768 4.51207C8.768 5.3014 8.58133 5.98407 8.208 6.56007C7.84533 7.1254 7.32266 7.56274 6.64 7.87207C5.95733 8.1814 5.14133 8.33607 4.192 8.33607H0.655995L1.184 7.77607V11.8721H-5.00679e-06ZM1.184 7.87207L0.655995 7.29607H4.16C5.28 7.29607 6.128 7.05607 6.704 6.57607C7.29066 6.0854 7.58399 5.3974 7.58399 4.51207C7.58399 3.61607 7.29066 2.92274 6.704 2.43207C6.128 1.9414 5.28 1.69607 4.16 1.69607H0.655995L1.184 1.13607V7.87207ZM15.5324 3.39207C16.215 3.39207 16.8124 3.5254 17.3244 3.79207C17.847 4.04807 18.2524 4.44274 18.5404 4.97607C18.839 5.5094 18.9884 6.1814 18.9884 6.99207V11.8721H17.8524V7.10407C17.8524 6.21874 17.6284 5.55207 17.1804 5.10407C16.743 4.6454 16.1244 4.41607 15.3244 4.41607C14.727 4.41607 14.2044 4.53874 13.7564 4.78407C13.319 5.01874 12.9777 5.3654 12.7324 5.82407C12.4977 6.27207 12.3804 6.81607 12.3804 7.45607V11.8721H11.2444V6.96182e-05H12.3804V5.77607L12.1564 5.34407C12.423 4.73607 12.8497 4.2614 13.4364 3.92007C14.023 3.56807 14.7217 3.39207 15.5324 3.39207ZM25.4809 11.9521C24.6702 11.9521 23.9395 11.7707 23.2889 11.4081C22.6489 11.0347 22.1422 10.5281 21.7689 9.88807C21.3955 9.2374 21.2089 8.49607 21.2089 7.66407C21.2089 6.8214 21.3955 6.08007 21.7689 5.44007C22.1422 4.80007 22.6489 4.29874 23.2889 3.93607C23.9289 3.5734 24.6595 3.39207 25.4809 3.39207C26.3129 3.39207 27.0489 3.5734 27.6889 3.93607C28.3395 4.29874 28.8462 4.80007 29.2089 5.44007C29.5822 6.08007 29.7689 6.8214 29.7689 7.66407C29.7689 8.49607 29.5822 9.2374 29.2089 9.88807C28.8462 10.5281 28.3395 11.0347 27.6889 11.4081C27.0382 11.7707 26.3022 11.9521 25.4809 11.9521ZM25.4809 10.9441C26.0889 10.9441 26.6275 10.8107 27.0969 10.5441C27.5662 10.2667 27.9342 9.88274 28.2009 9.39207C28.4782 8.89074 28.6169 8.31474 28.6169 7.66407C28.6169 7.00274 28.4782 6.42674 28.2009 5.93607C27.9342 5.4454 27.5662 5.06674 27.0969 4.80007C26.6275 4.52274 26.0942 4.38407 25.4969 4.38407C24.8995 4.38407 24.3662 4.52274 23.8969 4.80007C23.4275 5.06674 23.0542 5.4454 22.7769 5.93607C22.4995 6.42674 22.3609 7.00274 22.3609 7.66407C22.3609 8.31474 22.4995 8.89074 22.7769 9.39207C23.0542 9.88274 23.4275 10.2667 23.8969 10.5441C24.3662 10.8107 24.8942 10.9441 25.4809 10.9441ZM36.3761 3.39207C37.0588 3.39207 37.6561 3.5254 38.1681 3.79207C38.6908 4.04807 39.0961 4.44274 39.3841 4.97607C39.6828 5.5094 39.8321 6.1814 39.8321 6.99207V11.8721H38.6961V7.10407C38.6961 6.21874 38.4721 5.55207 38.0241 5.10407C37.5868 4.6454 36.9681 4.41607 36.1681 4.41607C35.5708 4.41607 35.0481 4.53874 34.6001 4.78407C34.1628 5.01874 33.8215 5.3654 33.5761 5.82407C33.3415 6.27207 33.2241 6.81607 33.2241 7.45607V11.8721H32.0881V3.47207H33.1761V5.77607L33.0001 5.34407C33.2668 4.73607 33.6935 4.2614 34.2801 3.92007C34.8668 3.56807 35.5655 3.39207 36.3761 3.39207ZM46.4686 11.9521C45.594 11.9521 44.826 11.7707 44.1646 11.4081C43.5033 11.0347 42.986 10.5281 42.6126 9.88807C42.2393 9.2374 42.0526 8.49607 42.0526 7.66407C42.0526 6.83207 42.2286 6.09607 42.5806 5.45607C42.9433 4.81607 43.434 4.31474 44.0526 3.95207C44.682 3.57874 45.386 3.39207 46.1646 3.39207C46.954 3.39207 47.6526 3.5734 48.2606 3.93607C48.8793 4.28807 49.3646 4.7894 49.7166 5.44007C50.0686 6.08007 50.2446 6.8214 50.2446 7.66407C50.2446 7.7174 50.2393 7.77607 50.2286 7.84007C50.2286 7.8934 50.2286 7.95207 50.2286 8.01607H42.9166V7.16807H49.6206L49.1726 7.50407C49.1726 6.89607 49.0393 6.3574 48.7726 5.88807C48.5166 5.40807 48.1646 5.03474 47.7166 4.76807C47.2686 4.5014 46.7513 4.36807 46.1646 4.36807C45.5886 4.36807 45.0713 4.5014 44.6126 4.76807C44.154 5.03474 43.7966 5.40807 43.5406 5.88807C43.2846 6.36807 43.1566 6.9174 43.1566 7.53607V7.71207C43.1566 8.35207 43.2953 8.9174 43.5726 9.40807C43.8606 9.88807 44.2553 10.2667 44.7566 10.5441C45.2686 10.8107 45.85 10.9441 46.5006 10.9441C47.0126 10.9441 47.4873 10.8534 47.9246 10.6721C48.3726 10.4907 48.7566 10.2134 49.0766 9.84007L49.7166 10.5761C49.3433 11.0241 48.874 11.3654 48.3086 11.6001C47.754 11.8347 47.1406 11.9521 46.4686 11.9521Z" fill="#333333"/>
</svg>
