<svg width="80" height="12" viewBox="0 0 80 12" fill="none" xmlns="http://www.w3.org/2000/svg">
<path d="M1.05603 6.09607H6.97603V7.12007H1.05603V6.09607ZM1.18403 11.8721H2.55108e-05V0.67207H7.68003V1.69607H1.18403V11.8721ZM13.0758 11.9521C12.3611 11.9521 11.7371 11.8187 11.2038 11.5521C10.6704 11.2854 10.2544 10.8854 9.95578 10.3521C9.66778 9.81874 9.52378 9.15207 9.52378 8.35207V3.47207H10.6598V8.22407C10.6598 9.12007 10.8784 9.7974 11.3158 10.2561C11.7638 10.7041 12.3878 10.9281 13.1878 10.9281C13.7744 10.9281 14.2811 10.8107 14.7078 10.5761C15.1451 10.3307 15.4758 9.97874 15.6998 9.52007C15.9344 9.0614 16.0518 8.51207 16.0518 7.87207V3.47207H17.1878V11.8721H16.0998V9.56807L16.2758 9.98407C16.0091 10.6027 15.5931 11.0881 15.0278 11.4401C14.4731 11.7814 13.8224 11.9521 13.0758 11.9521ZM20.3538 11.8721V6.96182e-05H21.4898V11.8721H20.3538ZM24.6507 11.8721V6.96182e-05H25.7867V11.8721H24.6507ZM33.375 11.8721V0.67207H34.351L42.079 10.4001H41.567V0.67207H42.735V11.8721H41.759L34.047 2.14407H34.559V11.8721H33.375ZM51.4147 11.8721V10.0161L51.3667 9.71207V6.60807C51.3667 5.8934 51.164 5.34407 50.7587 4.96007C50.364 4.57607 49.772 4.38407 48.9827 4.38407C48.4387 4.38407 47.9213 4.47474 47.4307 4.65607C46.94 4.8374 46.524 5.0774 46.1827 5.37607L45.6707 4.52807C46.0973 4.1654 46.6093 3.88807 47.2067 3.69607C47.804 3.4934 48.4333 3.39207 49.0947 3.39207C50.1827 3.39207 51.02 3.66407 51.6067 4.20807C52.204 4.7414 52.5027 5.5574 52.5027 6.65607V11.8721H51.4147ZM48.5187 11.9521C47.8893 11.9521 47.34 11.8507 46.8707 11.6481C46.412 11.4347 46.06 11.1467 45.8147 10.7841C45.5693 10.4107 45.4467 9.98407 45.4467 9.50407C45.4467 9.06674 45.548 8.67207 45.7507 8.32007C45.964 7.9574 46.3053 7.6694 46.7747 7.45607C47.2547 7.23207 47.8947 7.12007 48.6947 7.12007H51.5907V7.96807H48.7267C47.916 7.96807 47.3507 8.11207 47.0307 8.40007C46.7213 8.68807 46.5667 9.0454 46.5667 9.47207C46.5667 9.95207 46.7533 10.3361 47.1267 10.6241C47.5 10.9121 48.0227 11.0561 48.6947 11.0561C49.3347 11.0561 49.884 10.9121 50.3427 10.6241C50.812 10.3254 51.1533 9.89874 51.3667 9.34407L51.6227 10.1281C51.4093 10.6827 51.036 11.1254 50.5027 11.4561C49.98 11.7867 49.3187 11.9521 48.5187 11.9521ZM66.0842 3.39207C66.7668 3.39207 67.3588 3.5254 67.8602 3.79207C68.3722 4.04807 68.7668 4.44274 69.0442 4.97607C69.3322 5.5094 69.4762 6.1814 69.4762 6.99207V11.8721H68.3402V7.10407C68.3402 6.21874 68.1268 5.55207 67.7002 5.10407C67.2842 4.6454 66.6922 4.41607 65.9242 4.41607C65.3482 4.41607 64.8468 4.53874 64.4202 4.78407C64.0042 5.01874 63.6788 5.3654 63.4442 5.82407C63.2202 6.27207 63.1082 6.81607 63.1082 7.45607V11.8721H61.9722V7.10407C61.9722 6.21874 61.7588 5.55207 61.3322 5.10407C60.9055 4.6454 60.3082 4.41607 59.5402 4.41607C58.9748 4.41607 58.4788 4.53874 58.0522 4.78407C57.6255 5.01874 57.2948 5.3654 57.0602 5.82407C56.8362 6.27207 56.7242 6.81607 56.7242 7.45607V11.8721H55.5882V3.47207H56.6762V5.74407L56.5002 5.34407C56.7562 4.73607 57.1668 4.2614 57.7322 3.92007C58.3082 3.56807 58.9855 3.39207 59.7642 3.39207C60.5855 3.39207 61.2842 3.60007 61.8602 4.01607C62.4362 4.4214 62.8095 5.03474 62.9802 5.85607L62.5322 5.68007C62.7775 4.9974 63.2095 4.44807 63.8282 4.03207C64.4575 3.6054 65.2095 3.39207 66.0842 3.39207ZM76.1249 11.9521C75.2502 11.9521 74.4822 11.7707 73.8209 11.4081C73.1596 11.0347 72.6422 10.5281 72.2689 9.88807C71.8956 9.2374 71.7089 8.49607 71.7089 7.66407C71.7089 6.83207 71.8849 6.09607 72.2369 5.45607C72.5996 4.81607 73.0902 4.31474 73.7089 3.95207C74.3382 3.57874 75.0422 3.39207 75.8209 3.39207C76.6102 3.39207 77.3089 3.5734 77.9169 3.93607C78.5356 4.28807 79.0209 4.7894 79.3729 5.44007C79.7249 6.08007 79.9009 6.8214 79.9009 7.66407C79.9009 7.7174 79.8956 7.77607 79.8849 7.84007C79.8849 7.8934 79.8849 7.95207 79.8849 8.01607H72.5729V7.16807H79.2769L78.8289 7.50407C78.8289 6.89607 78.6956 6.3574 78.4289 5.88807C78.1729 5.40807 77.8209 5.03474 77.3729 4.76807C76.9249 4.5014 76.4076 4.36807 75.8209 4.36807C75.2449 4.36807 74.7276 4.5014 74.2689 4.76807C73.8102 5.03474 73.4529 5.40807 73.1969 5.88807C72.9409 6.36807 72.8129 6.9174 72.8129 7.53607V7.71207C72.8129 8.35207 72.9516 8.9174 73.2289 9.40807C73.5169 9.88807 73.9116 10.2667 74.4129 10.5441C74.9249 10.8107 75.5062 10.9441 76.1569 10.9441C76.6689 10.9441 77.1436 10.8534 77.5809 10.6721C78.0289 10.4907 78.4129 10.2134 78.7329 9.84007L79.3729 10.5761C78.9996 11.0241 78.5302 11.3654 77.9649 11.6001C77.4102 11.8347 76.7969 11.9521 76.1249 11.9521Z" fill="#333333"/>
</svg>
