<svg width="329" height="16" viewBox="0 0 329 16" fill="none" xmlns="http://www.w3.org/2000/svg">
<path d="M3.77602 11.8721L2.00272e-05 0.67207H1.21602L4.75202 11.2161H4.14402L7.79202 0.67207H8.88002L12.48 11.2161H11.904L15.472 0.67207H16.608L12.832 11.8721H11.584L8.14402 1.87207H8.46402L5.00802 11.8721H3.77602ZM21.4663 11.9521C20.5916 11.9521 19.8236 11.7707 19.1623 11.4081C18.5009 11.0347 17.9836 10.5281 17.6103 9.88807C17.2369 9.2374 17.0503 8.49607 17.0503 7.66407C17.0503 6.83207 17.2263 6.09607 17.5783 5.45607C17.9409 4.81607 18.4316 4.31474 19.0503 3.95207C19.6796 3.57874 20.3836 3.39207 21.1623 3.39207C21.9516 3.39207 22.6503 3.5734 23.2583 3.93607C23.8769 4.28807 24.3623 4.7894 24.7143 5.44007C25.0663 6.08007 25.2423 6.8214 25.2423 7.66407C25.2423 7.7174 25.2369 7.77607 25.2263 7.84007C25.2263 7.8934 25.2263 7.95207 25.2263 8.01607H17.9143V7.16807H24.6183L24.1703 7.50407C24.1703 6.89607 24.0369 6.3574 23.7703 5.88807C23.5143 5.40807 23.1623 5.03474 22.7143 4.76807C22.2663 4.5014 21.7489 4.36807 21.1623 4.36807C20.5863 4.36807 20.0689 4.5014 19.6103 4.76807C19.1516 5.03474 18.7943 5.40807 18.5383 5.88807C18.2823 6.36807 18.1543 6.9174 18.1543 7.53607V7.71207C18.1543 8.35207 18.2929 8.9174 18.5703 9.40807C18.8583 9.88807 19.2529 10.2667 19.7543 10.5441C20.2663 10.8107 20.8476 10.9441 21.4983 10.9441C22.0103 10.9441 22.4849 10.8534 22.9223 10.6721C23.3703 10.4907 23.7543 10.2134 24.0743 9.84007L24.7143 10.5761C24.3409 11.0241 23.8716 11.3654 23.3063 11.6001C22.7516 11.8347 22.1383 11.9521 21.4663 11.9521ZM35.214 11.9521C34.4994 11.9521 33.8754 11.8187 33.342 11.5521C32.8087 11.2854 32.3927 10.8854 32.094 10.3521C31.806 9.81874 31.662 9.15207 31.662 8.35207V3.47207H32.798V8.22407C32.798 9.12007 33.0167 9.7974 33.454 10.2561C33.902 10.7041 34.526 10.9281 35.326 10.9281C35.9127 10.9281 36.4194 10.8107 36.846 10.5761C37.2834 10.3307 37.614 9.97874 37.838 9.52007C38.0727 9.0614 38.19 8.51207 38.19 7.87207V3.47207H39.326V11.8721H38.238V9.56807L38.414 9.98407C38.1474 10.6027 37.7314 11.0881 37.166 11.4401C36.6114 11.7814 35.9607 11.9521 35.214 11.9521ZM44.748 11.9521C44.0547 11.9521 43.3987 11.8561 42.78 11.6641C42.1614 11.4614 41.676 11.2107 41.324 10.9121L41.836 10.0161C42.1774 10.2721 42.6147 10.4961 43.148 10.6881C43.6814 10.8694 44.2414 10.9601 44.828 10.9601C45.628 10.9601 46.204 10.8374 46.556 10.5921C46.908 10.3361 47.084 10.0001 47.084 9.58407C47.084 9.27474 46.9827 9.03474 46.78 8.86407C46.588 8.68274 46.332 8.5494 46.012 8.46407C45.692 8.36807 45.3347 8.28807 44.94 8.22407C44.5454 8.16007 44.1507 8.0854 43.756 8.00007C43.372 7.91474 43.02 7.79207 42.7 7.63207C42.38 7.4614 42.1187 7.23207 41.916 6.94407C41.724 6.65607 41.628 6.27207 41.628 5.79207C41.628 5.3334 41.756 4.92274 42.012 4.56007C42.268 4.1974 42.6414 3.91474 43.132 3.71207C43.6334 3.49874 44.2414 3.39207 44.956 3.39207C45.5 3.39207 46.044 3.46674 46.588 3.61607C47.132 3.75474 47.58 3.9414 47.932 4.17607L47.436 5.08807C47.0627 4.83207 46.6627 4.65074 46.236 4.54407C45.8094 4.42674 45.3827 4.36807 44.956 4.36807C44.1987 4.36807 43.6387 4.5014 43.276 4.76807C42.924 5.02407 42.748 5.35474 42.748 5.76007C42.748 6.08007 42.844 6.33074 43.036 6.51207C43.2387 6.6934 43.5 6.8374 43.82 6.94407C44.1507 7.04007 44.508 7.12007 44.892 7.18407C45.2867 7.24807 45.676 7.32807 46.06 7.42407C46.4547 7.5094 46.812 7.63207 47.132 7.79207C47.4627 7.9414 47.724 8.16007 47.916 8.44807C48.1187 8.7254 48.22 9.0934 48.22 9.55207C48.22 10.0427 48.0814 10.4694 47.804 10.8321C47.5374 11.1841 47.1427 11.4614 46.62 11.6641C46.108 11.8561 45.484 11.9521 44.748 11.9521ZM53.7765 11.9521C53.0619 11.9521 52.4379 11.8187 51.9045 11.5521C51.3712 11.2854 50.9552 10.8854 50.6565 10.3521C50.3685 9.81874 50.2245 9.15207 50.2245 8.35207V3.47207H51.3605V8.22407C51.3605 9.12007 51.5792 9.7974 52.0165 10.2561C52.4645 10.7041 53.0885 10.9281 53.8885 10.9281C54.4752 10.9281 54.9819 10.8107 55.4085 10.5761C55.8459 10.3307 56.1765 9.97874 56.4005 9.52007C56.6352 9.0614 56.7525 8.51207 56.7525 7.87207V3.47207H57.8885V11.8721H56.8005V9.56807L56.9765 9.98407C56.7099 10.6027 56.2939 11.0881 55.7285 11.4401C55.1739 11.7814 54.5232 11.9521 53.7765 11.9521ZM66.3185 11.8721V10.0161L66.2705 9.71207V6.60807C66.2705 5.8934 66.0679 5.34407 65.6625 4.96007C65.2679 4.57607 64.6759 4.38407 63.8865 4.38407C63.3425 4.38407 62.8252 4.47474 62.3345 4.65607C61.8439 4.8374 61.4279 5.0774 61.0865 5.37607L60.5745 4.52807C61.0012 4.1654 61.5132 3.88807 62.1105 3.69607C62.7079 3.4934 63.3372 3.39207 63.9985 3.39207C65.0865 3.39207 65.9239 3.66407 66.5105 4.20807C67.1079 4.7414 67.4065 5.5574 67.4065 6.65607V11.8721H66.3185ZM63.4225 11.9521C62.7932 11.9521 62.2439 11.8507 61.7745 11.6481C61.3159 11.4347 60.9639 11.1467 60.7185 10.7841C60.4732 10.4107 60.3505 9.98407 60.3505 9.50407C60.3505 9.06674 60.4519 8.67207 60.6545 8.32007C60.8679 7.9574 61.2092 7.6694 61.6785 7.45607C62.1585 7.23207 62.7985 7.12007 63.5985 7.12007H66.4945V7.96807H63.6305C62.8199 7.96807 62.2545 8.11207 61.9345 8.40007C61.6252 8.68807 61.4705 9.0454 61.4705 9.47207C61.4705 9.95207 61.6572 10.3361 62.0305 10.6241C62.4039 10.9121 62.9265 11.0561 63.5985 11.0561C64.2385 11.0561 64.7879 10.9121 65.2465 10.6241C65.7159 10.3254 66.0572 9.89874 66.2705 9.34407L66.5265 10.1281C66.3132 10.6827 65.9399 11.1254 65.4065 11.4561C64.8839 11.7867 64.2225 11.9521 63.4225 11.9521ZM70.492 11.8721V6.96182e-05H71.628V11.8721H70.492ZM74.7889 11.8721V6.96182e-05H75.9249V11.8721H74.7889ZM79.1498 15.0561C78.7551 15.0561 78.3764 14.9921 78.0138 14.8641C77.6618 14.7361 77.3578 14.5441 77.1018 14.2881L77.6298 13.4401C77.8431 13.6427 78.0724 13.7974 78.3178 13.9041C78.5738 14.0214 78.8564 14.0801 79.1658 14.0801C79.5391 14.0801 79.8591 13.9734 80.1258 13.7601C80.4031 13.5574 80.6644 13.1947 80.9098 12.6721L81.4538 11.4401L81.5818 11.2641L85.0378 3.47207H86.1578L81.9498 12.8801C81.7151 13.4241 81.4538 13.8561 81.1658 14.1761C80.8884 14.4961 80.5844 14.7201 80.2538 14.8481C79.9231 14.9867 79.5551 15.0561 79.1498 15.0561ZM81.3898 12.1121L77.5178 3.47207H78.7018L82.1258 11.1841L81.3898 12.1121ZM91.9451 11.8721V3.47207H93.0331V5.76007L92.9211 5.36007C93.1558 4.72007 93.5505 4.23474 94.1051 3.90407C94.6598 3.56274 95.3478 3.39207 96.1691 3.39207V4.49607C96.1265 4.49607 96.0838 4.49607 96.0411 4.49607C95.9985 4.4854 95.9558 4.48007 95.9131 4.48007C95.0278 4.48007 94.3345 4.75207 93.8331 5.29607C93.3318 5.8294 93.0811 6.59207 93.0811 7.58407V11.8721H91.9451ZM101.732 11.9521C100.857 11.9521 100.089 11.7707 99.4279 11.4081C98.7666 11.0347 98.2492 10.5281 97.8759 9.88807C97.5026 9.2374 97.3159 8.49607 97.3159 7.66407C97.3159 6.83207 97.4919 6.09607 97.8439 5.45607C98.2066 4.81607 98.6972 4.31474 99.3159 3.95207C99.9452 3.57874 100.649 3.39207 101.428 3.39207C102.217 3.39207 102.916 3.5734 103.524 3.93607C104.143 4.28807 104.628 4.7894 104.98 5.44007C105.332 6.08007 105.508 6.8214 105.508 7.66407C105.508 7.7174 105.503 7.77607 105.492 7.84007C105.492 7.8934 105.492 7.95207 105.492 8.01607H98.1799V7.16807H104.884L104.436 7.50407C104.436 6.89607 104.303 6.3574 104.036 5.88807C103.78 5.40807 103.428 5.03474 102.98 4.76807C102.532 4.5014 102.015 4.36807 101.428 4.36807C100.852 4.36807 100.335 4.5014 99.8759 4.76807C99.4172 5.03474 99.0599 5.40807 98.8039 5.88807C98.5479 6.36807 98.4199 6.9174 98.4199 7.53607V7.71207C98.4199 8.35207 98.5586 8.9174 98.8359 9.40807C99.1239 9.88807 99.5186 10.2667 100.02 10.5441C100.532 10.8107 101.113 10.9441 101.764 10.9441C102.276 10.9441 102.751 10.8534 103.188 10.6721C103.636 10.4907 104.02 10.2134 104.34 9.84007L104.98 10.5761C104.607 11.0241 104.137 11.3654 103.572 11.6001C103.017 11.8347 102.404 11.9521 101.732 11.9521ZM112.156 11.9521C111.431 11.9521 110.775 11.7867 110.188 11.4561C109.601 11.1147 109.132 10.6294 108.78 10.0001C108.439 9.36007 108.268 8.5814 108.268 7.66407C108.268 6.74674 108.439 5.9734 108.78 5.34407C109.121 4.70407 109.585 4.21874 110.172 3.88807C110.759 3.5574 111.42 3.39207 112.156 3.39207C112.956 3.39207 113.671 3.5734 114.3 3.93607C114.94 4.28807 115.441 4.7894 115.804 5.44007C116.167 6.08007 116.348 6.8214 116.348 7.66407C116.348 8.5174 116.167 9.26407 115.804 9.90407C115.441 10.5441 114.94 11.0454 114.3 11.4081C113.671 11.7707 112.956 11.9521 112.156 11.9521ZM107.82 14.9761V3.47207H108.908V6.00007L108.796 7.68007L108.956 9.37607V14.9761H107.82ZM112.076 10.9441C112.673 10.9441 113.207 10.8107 113.676 10.5441C114.145 10.2667 114.519 9.88274 114.796 9.39207C115.073 8.89074 115.212 8.31474 115.212 7.66407C115.212 7.0134 115.073 6.44274 114.796 5.95207C114.519 5.4614 114.145 5.0774 113.676 4.80007C113.207 4.52274 112.673 4.38407 112.076 4.38407C111.479 4.38407 110.94 4.52274 110.46 4.80007C109.991 5.0774 109.617 5.4614 109.34 5.95207C109.073 6.44274 108.94 7.0134 108.94 7.66407C108.94 8.31474 109.073 8.89074 109.34 9.39207C109.617 9.88274 109.991 10.2667 110.46 10.5441C110.94 10.8107 111.479 10.9441 112.076 10.9441ZM118.664 11.8721V6.96182e-05H119.8V11.8721H118.664ZM123.025 15.0561C122.63 15.0561 122.251 14.9921 121.889 14.8641C121.537 14.7361 121.233 14.5441 120.977 14.2881L121.505 13.4401C121.718 13.6427 121.947 13.7974 122.193 13.9041C122.449 14.0214 122.731 14.0801 123.041 14.0801C123.414 14.0801 123.734 13.9734 124.001 13.7601C124.278 13.5574 124.539 13.1947 124.785 12.6721L125.329 11.4401L125.457 11.2641L128.913 3.47207H130.033L125.825 12.8801C125.59 13.4241 125.329 13.8561 125.041 14.1761C124.763 14.4961 124.459 14.7201 124.129 14.8481C123.798 14.9867 123.43 15.0561 123.025 15.0561ZM125.265 12.1121L121.393 3.47207H122.577L126.001 11.1841L125.265 12.1121ZM137.532 11.8721L134.364 3.47207H135.452L138.332 11.2641H137.836L140.796 3.47207H141.772L144.7 11.2641H144.204L147.132 3.47207H148.172L144.988 11.8721H143.916L141.1 4.54407H141.436L138.604 11.8721H137.532ZM149.883 11.8721V3.47207H151.019V11.8721H149.883ZM150.459 1.61607C150.224 1.61607 150.027 1.53607 149.867 1.37607C149.707 1.21607 149.627 1.02407 149.627 0.80007C149.627 0.57607 149.707 0.389403 149.867 0.240069C150.027 0.0800695 150.224 6.96182e-05 150.459 6.96182e-05C150.693 6.96182e-05 150.891 0.0747363 151.051 0.22407C151.211 0.373403 151.291 0.56007 151.291 0.78407C151.291 1.01874 151.211 1.21607 151.051 1.37607C150.901 1.53607 150.704 1.61607 150.459 1.61607ZM156.836 11.9521C156.046 11.9521 155.438 11.7387 155.012 11.3121C154.585 10.8854 154.372 10.2827 154.372 9.50407V1.61607H155.508V9.44007C155.508 9.93074 155.63 10.3094 155.876 10.5761C156.132 10.8427 156.494 10.9761 156.964 10.9761C157.465 10.9761 157.881 10.8321 158.212 10.5441L158.612 11.3601C158.388 11.5627 158.116 11.7121 157.796 11.8081C157.486 11.9041 157.166 11.9521 156.836 11.9521ZM152.868 4.41607V3.47207H158.068V4.41607H152.868ZM164.968 3.39207C165.65 3.39207 166.248 3.5254 166.76 3.79207C167.282 4.04807 167.688 4.44274 167.976 4.97607C168.274 5.5094 168.424 6.1814 168.424 6.99207V11.8721H167.288V7.10407C167.288 6.21874 167.064 5.55207 166.616 5.10407C166.178 4.6454 165.56 4.41607 164.76 4.41607C164.162 4.41607 163.64 4.53874 163.192 4.78407C162.754 5.01874 162.413 5.3654 162.168 5.82407C161.933 6.27207 161.816 6.81607 161.816 7.45607V11.8721H160.68V6.96182e-05H161.816V5.77607L161.592 5.34407C161.858 4.73607 162.285 4.2614 162.872 3.92007C163.458 3.56807 164.157 3.39207 164.968 3.39207ZM171.492 11.8721V3.47207H172.628V11.8721H171.492ZM172.068 1.61607C171.833 1.61607 171.636 1.53607 171.476 1.37607C171.316 1.21607 171.236 1.02407 171.236 0.80007C171.236 0.57607 171.316 0.389403 171.476 0.240069C171.636 0.0800695 171.833 6.96182e-05 172.068 6.96182e-05C172.303 6.96182e-05 172.5 0.0747363 172.66 0.22407C172.82 0.373403 172.9 0.56007 172.9 0.78407C172.9 1.01874 172.82 1.21607 172.66 1.37607C172.511 1.53607 172.313 1.61607 172.068 1.61607ZM180.077 3.39207C180.76 3.39207 181.357 3.5254 181.869 3.79207C182.392 4.04807 182.797 4.44274 183.085 4.97607C183.384 5.5094 183.533 6.1814 183.533 6.99207V11.8721H182.397V7.10407C182.397 6.21874 182.173 5.55207 181.725 5.10407C181.288 4.6454 180.669 4.41607 179.869 4.41607C179.272 4.41607 178.749 4.53874 178.301 4.78407C177.864 5.01874 177.522 5.3654 177.277 5.82407C177.042 6.27207 176.925 6.81607 176.925 7.45607V11.8721H175.789V3.47207H176.877V5.77607L176.701 5.34407C176.968 4.73607 177.394 4.2614 177.981 3.92007C178.568 3.56807 179.266 3.39207 180.077 3.39207ZM194.213 11.9521C193.402 11.9521 192.672 11.7707 192.021 11.4081C191.381 11.0347 190.874 10.5281 190.501 9.88807C190.128 9.2374 189.941 8.49607 189.941 7.66407C189.941 6.8214 190.128 6.08007 190.501 5.44007C190.874 4.80007 191.381 4.29874 192.021 3.93607C192.661 3.5734 193.392 3.39207 194.213 3.39207C195.045 3.39207 195.781 3.5734 196.421 3.93607C197.072 4.29874 197.578 4.80007 197.941 5.44007C198.314 6.08007 198.501 6.8214 198.501 7.66407C198.501 8.49607 198.314 9.2374 197.941 9.88807C197.578 10.5281 197.072 11.0347 196.421 11.4081C195.77 11.7707 195.034 11.9521 194.213 11.9521ZM194.213 10.9441C194.821 10.9441 195.36 10.8107 195.829 10.5441C196.298 10.2667 196.666 9.88274 196.933 9.39207C197.21 8.89074 197.349 8.31474 197.349 7.66407C197.349 7.00274 197.21 6.42674 196.933 5.93607C196.666 5.4454 196.298 5.06674 195.829 4.80007C195.36 4.52274 194.826 4.38407 194.229 4.38407C193.632 4.38407 193.098 4.52274 192.629 4.80007C192.16 5.06674 191.786 5.4454 191.509 5.93607C191.232 6.42674 191.093 7.00274 191.093 7.66407C191.093 8.31474 191.232 8.89074 191.509 9.39207C191.786 9.88274 192.16 10.2667 192.629 10.5441C193.098 10.8107 193.626 10.9441 194.213 10.9441ZM205.108 3.39207C205.791 3.39207 206.388 3.5254 206.9 3.79207C207.423 4.04807 207.828 4.44274 208.116 4.97607C208.415 5.5094 208.564 6.1814 208.564 6.99207V11.8721H207.428V7.10407C207.428 6.21874 207.204 5.55207 206.756 5.10407C206.319 4.6454 205.7 4.41607 204.9 4.41607C204.303 4.41607 203.78 4.53874 203.332 4.78407C202.895 5.01874 202.553 5.3654 202.308 5.82407C202.073 6.27207 201.956 6.81607 201.956 7.45607V11.8721H200.82V3.47207H201.908V5.77607L201.732 5.34407C201.999 4.73607 202.425 4.2614 203.012 3.92007C203.599 3.56807 204.297 3.39207 205.108 3.39207ZM215.201 11.9521C214.326 11.9521 213.558 11.7707 212.897 11.4081C212.235 11.0347 211.718 10.5281 211.345 9.88807C210.971 9.2374 210.785 8.49607 210.785 7.66407C210.785 6.83207 210.961 6.09607 211.313 5.45607C211.675 4.81607 212.166 4.31474 212.785 3.95207C213.414 3.57874 214.118 3.39207 214.897 3.39207C215.686 3.39207 216.385 3.5734 216.993 3.93607C217.611 4.28807 218.097 4.7894 218.449 5.44007C218.801 6.08007 218.977 6.8214 218.977 7.66407C218.977 7.7174 218.971 7.77607 218.961 7.84007C218.961 7.8934 218.961 7.95207 218.961 8.01607H211.649V7.16807H218.353L217.905 7.50407C217.905 6.89607 217.771 6.3574 217.505 5.88807C217.249 5.40807 216.897 5.03474 216.449 4.76807C216.001 4.5014 215.483 4.36807 214.897 4.36807C214.321 4.36807 213.803 4.5014 213.345 4.76807C212.886 5.03474 212.529 5.40807 212.273 5.88807C212.017 6.36807 211.889 6.9174 211.889 7.53607V7.71207C211.889 8.35207 212.027 8.9174 212.305 9.40807C212.593 9.88807 212.987 10.2667 213.489 10.5441C214.001 10.8107 214.582 10.9441 215.233 10.9441C215.745 10.9441 216.219 10.8534 216.657 10.6721C217.105 10.4907 217.489 10.2134 217.809 9.84007L218.449 10.5761C218.075 11.0241 217.606 11.3654 217.041 11.6001C216.486 11.8347 215.873 11.9521 215.201 11.9521ZM229.812 11.9521C229.076 11.9521 228.415 11.7867 227.828 11.4561C227.242 11.1147 226.778 10.6241 226.436 9.98407C226.095 9.34407 225.924 8.57074 225.924 7.66407C225.924 6.74674 226.095 5.9734 226.436 5.34407C226.788 4.70407 227.258 4.21874 227.844 3.88807C228.431 3.5574 229.087 3.39207 229.812 3.39207C230.612 3.39207 231.327 3.5734 231.956 3.93607C232.596 4.28807 233.098 4.78407 233.46 5.42407C233.823 6.06407 234.004 6.81074 234.004 7.66407C234.004 8.50674 233.823 9.2534 233.46 9.90407C233.098 10.5441 232.596 11.0454 231.956 11.4081C231.327 11.7707 230.612 11.9521 229.812 11.9521ZM225.476 11.8721V6.96182e-05H226.612V5.95207L226.452 7.64807L226.564 9.34407V11.8721H225.476ZM229.732 10.9441C230.33 10.9441 230.863 10.8107 231.332 10.5441C231.802 10.2667 232.175 9.88274 232.452 9.39207C232.73 8.89074 232.868 8.31474 232.868 7.66407C232.868 7.00274 232.73 6.42674 232.452 5.93607C232.175 5.4454 231.802 5.06674 231.332 4.80007C230.863 4.52274 230.33 4.38407 229.732 4.38407C229.135 4.38407 228.596 4.52274 228.116 4.80007C227.647 5.06674 227.274 5.4454 226.996 5.93607C226.73 6.42674 226.596 7.00274 226.596 7.66407C226.596 8.31474 226.73 8.89074 226.996 9.39207C227.274 9.88274 227.647 10.2667 228.116 10.5441C228.596 10.8107 229.135 10.9441 229.732 10.9441ZM239.792 11.9521C239.077 11.9521 238.453 11.8187 237.92 11.5521C237.387 11.2854 236.971 10.8854 236.672 10.3521C236.384 9.81874 236.24 9.15207 236.24 8.35207V3.47207H237.376V8.22407C237.376 9.12007 237.595 9.7974 238.032 10.2561C238.48 10.7041 239.104 10.9281 239.904 10.9281C240.491 10.9281 240.997 10.8107 241.424 10.5761C241.861 10.3307 242.192 9.97874 242.416 9.52007C242.651 9.0614 242.768 8.51207 242.768 7.87207V3.47207H243.904V11.8721H242.816V9.56807L242.992 9.98407C242.725 10.6027 242.309 11.0881 241.744 11.4401C241.189 11.7814 240.539 11.9521 239.792 11.9521ZM249.326 11.9521C248.633 11.9521 247.977 11.8561 247.358 11.6641C246.739 11.4614 246.254 11.2107 245.902 10.9121L246.414 10.0161C246.755 10.2721 247.193 10.4961 247.726 10.6881C248.259 10.8694 248.819 10.9601 249.406 10.9601C250.206 10.9601 250.782 10.8374 251.134 10.5921C251.486 10.3361 251.662 10.0001 251.662 9.58407C251.662 9.27474 251.561 9.03474 251.358 8.86407C251.166 8.68274 250.91 8.5494 250.59 8.46407C250.27 8.36807 249.913 8.28807 249.518 8.22407C249.123 8.16007 248.729 8.0854 248.334 8.00007C247.95 7.91474 247.598 7.79207 247.278 7.63207C246.958 7.4614 246.697 7.23207 246.494 6.94407C246.302 6.65607 246.206 6.27207 246.206 5.79207C246.206 5.3334 246.334 4.92274 246.59 4.56007C246.846 4.1974 247.219 3.91474 247.71 3.71207C248.211 3.49874 248.819 3.39207 249.534 3.39207C250.078 3.39207 250.622 3.46674 251.166 3.61607C251.71 3.75474 252.158 3.9414 252.51 4.17607L252.014 5.08807C251.641 4.83207 251.241 4.65074 250.814 4.54407C250.387 4.42674 249.961 4.36807 249.534 4.36807C248.777 4.36807 248.217 4.5014 247.854 4.76807C247.502 5.02407 247.326 5.35474 247.326 5.76007C247.326 6.08007 247.422 6.33074 247.614 6.51207C247.817 6.6934 248.078 6.8374 248.398 6.94407C248.729 7.04007 249.086 7.12007 249.47 7.18407C249.865 7.24807 250.254 7.32807 250.638 7.42407C251.033 7.5094 251.39 7.63207 251.71 7.79207C252.041 7.9414 252.302 8.16007 252.494 8.44807C252.697 8.7254 252.798 9.0934 252.798 9.55207C252.798 10.0427 252.659 10.4694 252.382 10.8321C252.115 11.1841 251.721 11.4614 251.198 11.6641C250.686 11.8561 250.062 11.9521 249.326 11.9521ZM254.883 11.8721V3.47207H256.019V11.8721H254.883ZM255.459 1.61607C255.224 1.61607 255.027 1.53607 254.867 1.37607C254.707 1.21607 254.627 1.02407 254.627 0.80007C254.627 0.57607 254.707 0.389403 254.867 0.240069C255.027 0.0800695 255.224 6.96182e-05 255.459 6.96182e-05C255.693 6.96182e-05 255.891 0.0747363 256.051 0.22407C256.211 0.373403 256.291 0.56007 256.291 0.78407C256.291 1.01874 256.211 1.21607 256.051 1.37607C255.901 1.53607 255.704 1.61607 255.459 1.61607ZM263.468 3.39207C264.15 3.39207 264.748 3.5254 265.26 3.79207C265.782 4.04807 266.188 4.44274 266.476 4.97607C266.774 5.5094 266.924 6.1814 266.924 6.99207V11.8721H265.788V7.10407C265.788 6.21874 265.564 5.55207 265.116 5.10407C264.678 4.6454 264.06 4.41607 263.26 4.41607C262.662 4.41607 262.14 4.53874 261.692 4.78407C261.254 5.01874 260.913 5.3654 260.668 5.82407C260.433 6.27207 260.316 6.81607 260.316 7.45607V11.8721H259.18V3.47207H260.268V5.77607L260.092 5.34407C260.358 4.73607 260.785 4.2614 261.372 3.92007C261.958 3.56807 262.657 3.39207 263.468 3.39207ZM273.56 11.9521C272.685 11.9521 271.917 11.7707 271.256 11.4081C270.595 11.0347 270.077 10.5281 269.704 9.88807C269.331 9.2374 269.144 8.49607 269.144 7.66407C269.144 6.83207 269.32 6.09607 269.672 5.45607C270.035 4.81607 270.525 4.31474 271.144 3.95207C271.773 3.57874 272.477 3.39207 273.256 3.39207C274.045 3.39207 274.744 3.5734 275.352 3.93607C275.971 4.28807 276.456 4.7894 276.808 5.44007C277.16 6.08007 277.336 6.8214 277.336 7.66407C277.336 7.7174 277.331 7.77607 277.32 7.84007C277.32 7.8934 277.32 7.95207 277.32 8.01607H270.008V7.16807H276.712L276.264 7.50407C276.264 6.89607 276.131 6.3574 275.864 5.88807C275.608 5.40807 275.256 5.03474 274.808 4.76807C274.36 4.5014 273.843 4.36807 273.256 4.36807C272.68 4.36807 272.163 4.5014 271.704 4.76807C271.245 5.03474 270.888 5.40807 270.632 5.88807C270.376 6.36807 270.248 6.9174 270.248 7.53607V7.71207C270.248 8.35207 270.387 8.9174 270.664 9.40807C270.952 9.88807 271.347 10.2667 271.848 10.5441C272.36 10.8107 272.941 10.9441 273.592 10.9441C274.104 10.9441 274.579 10.8534 275.016 10.6721C275.464 10.4907 275.848 10.2134 276.168 9.84007L276.808 10.5761C276.435 11.0241 275.965 11.3654 275.4 11.6001C274.845 11.8347 274.232 11.9521 273.56 11.9521ZM281.904 11.9521C281.211 11.9521 280.555 11.8561 279.936 11.6641C279.318 11.4614 278.832 11.2107 278.48 10.9121L278.992 10.0161C279.334 10.2721 279.771 10.4961 280.304 10.6881C280.838 10.8694 281.398 10.9601 281.984 10.9601C282.784 10.9601 283.36 10.8374 283.712 10.5921C284.064 10.3361 284.24 10.0001 284.24 9.58407C284.24 9.27474 284.139 9.03474 283.936 8.86407C283.744 8.68274 283.488 8.5494 283.168 8.46407C282.848 8.36807 282.491 8.28807 282.096 8.22407C281.702 8.16007 281.307 8.0854 280.912 8.00007C280.528 7.91474 280.176 7.79207 279.856 7.63207C279.536 7.4614 279.275 7.23207 279.072 6.94407C278.88 6.65607 278.784 6.27207 278.784 5.79207C278.784 5.3334 278.912 4.92274 279.168 4.56007C279.424 4.1974 279.798 3.91474 280.288 3.71207C280.79 3.49874 281.398 3.39207 282.112 3.39207C282.656 3.39207 283.2 3.46674 283.744 3.61607C284.288 3.75474 284.736 3.9414 285.088 4.17607L284.592 5.08807C284.219 4.83207 283.819 4.65074 283.392 4.54407C282.966 4.42674 282.539 4.36807 282.112 4.36807C281.355 4.36807 280.795 4.5014 280.432 4.76807C280.08 5.02407 279.904 5.35474 279.904 5.76007C279.904 6.08007 280 6.33074 280.192 6.51207C280.395 6.6934 280.656 6.8374 280.976 6.94407C281.307 7.04007 281.664 7.12007 282.048 7.18407C282.443 7.24807 282.832 7.32807 283.216 7.42407C283.611 7.5094 283.968 7.63207 284.288 7.79207C284.619 7.9414 284.88 8.16007 285.072 8.44807C285.275 8.7254 285.376 9.0934 285.376 9.55207C285.376 10.0427 285.238 10.4694 284.96 10.8321C284.694 11.1841 284.299 11.4614 283.776 11.6641C283.264 11.8561 282.64 11.9521 281.904 11.9521ZM289.717 11.9521C289.023 11.9521 288.367 11.8561 287.749 11.6641C287.13 11.4614 286.645 11.2107 286.293 10.9121L286.805 10.0161C287.146 10.2721 287.583 10.4961 288.117 10.6881C288.65 10.8694 289.21 10.9601 289.797 10.9601C290.597 10.9601 291.173 10.8374 291.525 10.5921C291.877 10.3361 292.053 10.0001 292.053 9.58407C292.053 9.27474 291.951 9.03474 291.749 8.86407C291.557 8.68274 291.301 8.5494 290.981 8.46407C290.661 8.36807 290.303 8.28807 289.909 8.22407C289.514 8.16007 289.119 8.0854 288.725 8.00007C288.341 7.91474 287.989 7.79207 287.669 7.63207C287.349 7.4614 287.087 7.23207 286.885 6.94407C286.693 6.65607 286.597 6.27207 286.597 5.79207C286.597 5.3334 286.725 4.92274 286.981 4.56007C287.237 4.1974 287.61 3.91474 288.101 3.71207C288.602 3.49874 289.21 3.39207 289.925 3.39207C290.469 3.39207 291.013 3.46674 291.557 3.61607C292.101 3.75474 292.549 3.9414 292.901 4.17607L292.405 5.08807C292.031 4.83207 291.631 4.65074 291.205 4.54407C290.778 4.42674 290.351 4.36807 289.925 4.36807C289.167 4.36807 288.607 4.5014 288.245 4.76807C287.893 5.02407 287.717 5.35474 287.717 5.76007C287.717 6.08007 287.813 6.33074 288.005 6.51207C288.207 6.6934 288.469 6.8374 288.789 6.94407C289.119 7.04007 289.477 7.12007 289.861 7.18407C290.255 7.24807 290.645 7.32807 291.029 7.42407C291.423 7.5094 291.781 7.63207 292.101 7.79207C292.431 7.9414 292.693 8.16007 292.885 8.44807C293.087 8.7254 293.189 9.0934 293.189 9.55207C293.189 10.0427 293.05 10.4694 292.773 10.8321C292.506 11.1841 292.111 11.4614 291.589 11.6641C291.077 11.8561 290.453 11.9521 289.717 11.9521ZM302.805 11.9521C302.005 11.9521 301.285 11.7707 300.645 11.4081C300.015 11.0454 299.519 10.5441 299.157 9.90407C298.794 9.2534 298.613 8.50674 298.613 7.66407C298.613 6.81074 298.794 6.06407 299.157 5.42407C299.519 4.78407 300.015 4.28807 300.645 3.93607C301.285 3.5734 302.005 3.39207 302.805 3.39207C303.541 3.39207 304.197 3.5574 304.773 3.88807C305.359 4.21874 305.823 4.70407 306.165 5.34407C306.517 5.9734 306.693 6.74674 306.693 7.66407C306.693 8.57074 306.522 9.34407 306.181 9.98407C305.839 10.6241 305.375 11.1147 304.789 11.4561C304.213 11.7867 303.551 11.9521 302.805 11.9521ZM302.885 10.9441C303.482 10.9441 304.015 10.8107 304.485 10.5441C304.965 10.2667 305.338 9.88274 305.605 9.39207C305.882 8.89074 306.021 8.31474 306.021 7.66407C306.021 7.00274 305.882 6.42674 305.605 5.93607C305.338 5.4454 304.965 5.06674 304.485 4.80007C304.015 4.52274 303.482 4.38407 302.885 4.38407C302.298 4.38407 301.77 4.52274 301.301 4.80007C300.831 5.06674 300.458 5.4454 300.181 5.93607C299.903 6.42674 299.765 7.00274 299.765 7.66407C299.765 8.31474 299.903 8.89074 300.181 9.39207C300.458 9.88274 300.831 10.2667 301.301 10.5441C301.77 10.8107 302.298 10.9441 302.885 10.9441ZM306.053 11.8721V9.34407L306.165 7.64807L306.005 5.95207V6.96182e-05H307.141V11.8721H306.053ZM315.569 11.8721V10.0161L315.521 9.71207V6.60807C315.521 5.8934 315.318 5.34407 314.913 4.96007C314.518 4.57607 313.926 4.38407 313.137 4.38407C312.593 4.38407 312.075 4.47474 311.585 4.65607C311.094 4.8374 310.678 5.0774 310.337 5.37607L309.825 4.52807C310.251 4.1654 310.763 3.88807 311.361 3.69607C311.958 3.4934 312.587 3.39207 313.249 3.39207C314.337 3.39207 315.174 3.66407 315.761 4.20807C316.358 4.7414 316.657 5.5574 316.657 6.65607V11.8721H315.569ZM312.673 11.9521C312.043 11.9521 311.494 11.8507 311.025 11.6481C310.566 11.4347 310.214 11.1467 309.969 10.7841C309.723 10.4107 309.601 9.98407 309.601 9.50407C309.601 9.06674 309.702 8.67207 309.905 8.32007C310.118 7.9574 310.459 7.6694 310.929 7.45607C311.409 7.23207 312.049 7.12007 312.849 7.12007H315.745V7.96807H312.881C312.07 7.96807 311.505 8.11207 311.185 8.40007C310.875 8.68807 310.721 9.0454 310.721 9.47207C310.721 9.95207 310.907 10.3361 311.281 10.6241C311.654 10.9121 312.177 11.0561 312.849 11.0561C313.489 11.0561 314.038 10.9121 314.497 10.6241C314.966 10.3254 315.307 9.89874 315.521 9.34407L315.777 10.1281C315.563 10.6827 315.19 11.1254 314.657 11.4561C314.134 11.7867 313.473 11.9521 312.673 11.9521ZM319.65 15.0561C319.255 15.0561 318.876 14.9921 318.514 14.8641C318.162 14.7361 317.858 14.5441 317.602 14.2881L318.13 13.4401C318.343 13.6427 318.572 13.7974 318.818 13.9041C319.074 14.0214 319.356 14.0801 319.666 14.0801C320.039 14.0801 320.359 13.9734 320.626 13.7601C320.903 13.5574 321.164 13.1947 321.41 12.6721L321.954 11.4401L322.082 11.2641L325.538 3.47207H326.658L322.45 12.8801C322.215 13.4241 321.954 13.8561 321.666 14.1761C321.388 14.4961 321.084 14.7201 320.754 14.8481C320.423 14.9867 320.055 15.0561 319.65 15.0561ZM321.89 12.1121L318.018 3.47207H319.202L322.626 11.1841L321.89 12.1121ZM327.823 11.9521C327.588 11.9521 327.385 11.8667 327.215 11.6961C327.055 11.5254 326.975 11.3174 326.975 11.0721C326.975 10.8161 327.055 10.6081 327.215 10.4481C327.385 10.2881 327.588 10.2081 327.823 10.2081C328.057 10.2081 328.255 10.2881 328.415 10.4481C328.585 10.6081 328.671 10.8161 328.671 11.0721C328.671 11.3174 328.585 11.5254 328.415 11.6961C328.255 11.8667 328.057 11.9521 327.823 11.9521Z" fill="#333333"/>
</svg>
