<svg width="43" height="12" viewBox="0 0 43 12" fill="none" xmlns="http://www.w3.org/2000/svg">
<path d="M1.05603 5.68007H6.97603V6.68807H1.05603V5.68007ZM1.18403 10.8481H7.92003V11.8721H2.55108e-05V0.67207H7.68003V1.69607H1.18403V10.8481ZM20.9592 3.39207C21.6418 3.39207 22.2338 3.5254 22.7352 3.79207C23.2472 4.04807 23.6418 4.44274 23.9192 4.97607C24.2072 5.5094 24.3512 6.1814 24.3512 6.99207V11.8721H23.2152V7.10407C23.2152 6.21874 23.0018 5.55207 22.5752 5.10407C22.1592 4.6454 21.5672 4.41607 20.7992 4.41607C20.2232 4.41607 19.7218 4.53874 19.2952 4.78407C18.8792 5.01874 18.5538 5.3654 18.3192 5.82407C18.0952 6.27207 17.9832 6.81607 17.9832 7.45607V11.8721H16.8472V7.10407C16.8472 6.21874 16.6338 5.55207 16.2072 5.10407C15.7805 4.6454 15.1832 4.41607 14.4152 4.41607C13.8498 4.41607 13.3538 4.53874 12.9272 4.78407C12.5005 5.01874 12.1698 5.3654 11.9352 5.82407C11.7112 6.27207 11.5992 6.81607 11.5992 7.45607V11.8721H10.4632V3.47207H11.5512V5.74407L11.3752 5.34407C11.6312 4.73607 12.0418 4.2614 12.6072 3.92007C13.1832 3.56807 13.8605 3.39207 14.6392 3.39207C15.4605 3.39207 16.1592 3.60007 16.7352 4.01607C17.3112 4.4214 17.6845 5.03474 17.8552 5.85607L17.4072 5.68007C17.6525 4.9974 18.0845 4.44807 18.7032 4.03207C19.3325 3.6054 20.0845 3.39207 20.9592 3.39207ZM32.6959 11.8721V10.0161L32.6479 9.71207V6.60807C32.6479 5.8934 32.4452 5.34407 32.0399 4.96007C31.6452 4.57607 31.0532 4.38407 30.2639 4.38407C29.7199 4.38407 29.2026 4.47474 28.7119 4.65607C28.2212 4.8374 27.8052 5.0774 27.4639 5.37607L26.9519 4.52807C27.3786 4.1654 27.8906 3.88807 28.4879 3.69607C29.0852 3.4934 29.7146 3.39207 30.3759 3.39207C31.4639 3.39207 32.3012 3.66407 32.8879 4.20807C33.4852 4.7414 33.7839 5.5574 33.7839 6.65607V11.8721H32.6959ZM29.7999 11.9521C29.1706 11.9521 28.6212 11.8507 28.1519 11.6481C27.6932 11.4347 27.3412 11.1467 27.0959 10.7841C26.8506 10.4107 26.7279 9.98407 26.7279 9.50407C26.7279 9.06674 26.8292 8.67207 27.0319 8.32007C27.2452 7.9574 27.5866 7.6694 28.0559 7.45607C28.5359 7.23207 29.1759 7.12007 29.9759 7.12007H32.8719V7.96807H30.0079C29.1972 7.96807 28.6319 8.11207 28.3119 8.40007C28.0026 8.68807 27.8479 9.0454 27.8479 9.47207C27.8479 9.95207 28.0346 10.3361 28.4079 10.6241C28.7812 10.9121 29.3039 11.0561 29.9759 11.0561C30.6159 11.0561 31.1652 10.9121 31.6239 10.6241C32.0932 10.3254 32.4346 9.89874 32.6479 9.34407L32.9039 10.1281C32.6906 10.6827 32.3172 11.1254 31.7839 11.4561C31.2612 11.7867 30.5999 11.9521 29.7999 11.9521ZM36.8694 11.8721V3.47207H38.0054V11.8721H36.8694ZM37.4454 1.61607C37.2107 1.61607 37.0134 1.53607 36.8534 1.37607C36.6934 1.21607 36.6134 1.02407 36.6134 0.80007C36.6134 0.57607 36.6934 0.389403 36.8534 0.240069C37.0134 0.0800695 37.2107 6.96182e-05 37.4454 6.96182e-05C37.6801 6.96182e-05 37.8774 0.0747363 38.0374 0.22407C38.1974 0.373403 38.2774 0.56007 38.2774 0.78407C38.2774 1.01874 38.1974 1.21607 38.0374 1.37607C37.8881 1.53607 37.6907 1.61607 37.4454 1.61607ZM41.1663 11.8721V6.96182e-05H42.3023V11.8721H41.1663Z" fill="#333333"/>
</svg>
