<svg width="100" height="100" viewBox="0 0 100 100" fill="none" xmlns="http://www.w3.org/2000/svg">
<path d="M36.6667 63.3333H42V44.6667H36.6667V63.3333ZM47.3333 63.3333H52.6667V36.6667H47.3333V63.3333ZM58 63.3333H63.3333V52.6667H58V63.3333ZM31.3333 74C29.8667 74 28.6111 73.4778 27.5667 72.4333C26.5222 71.3889 26 70.1333 26 68.6667V31.3333C26 29.8667 26.5222 28.6111 27.5667 27.5667C28.6111 26.5222 29.8667 26 31.3333 26H68.6667C70.1333 26 71.3889 26.5222 72.4333 27.5667C73.4778 28.6111 74 29.8667 74 31.3333V68.6667C74 70.1333 73.4778 71.3889 72.4333 72.4333C71.3889 73.4778 70.1333 74 68.6667 74H31.3333ZM31.3333 68.6667H68.6667V31.3333H31.3333V68.6667Z" fill="#001EF4"/>
</svg>
