<svg width="411" height="31" viewBox="0 0 411 31" fill="none" xmlns="http://www.w3.org/2000/svg">
<path d="M-2.68668e-05 23.968L10.08 1.56802H14.176L24.288 23.968H19.936L11.264 3.77602H12.928L4.28797 23.968H-2.68668e-05ZM4.63997 18.784L5.75997 15.52H17.856L18.976 18.784H4.63997ZM26.7527 23.968V0.224016H30.7527V23.968H26.7527ZM36.0027 23.968V0.224016H40.0027V23.968H36.0027ZM60.5285 24.192C58.6511 24.192 57.2005 23.712 56.1765 22.752C55.1525 21.7707 54.6405 20.3307 54.6405 18.432V3.10402H58.6405V18.336C58.6405 19.1467 58.8431 19.776 59.2485 20.224C59.6751 20.672 60.2618 20.896 61.0085 20.896C61.9045 20.896 62.6511 20.6614 63.2485 20.192L64.3685 23.04C63.8991 23.424 63.3231 23.712 62.6405 23.904C61.9578 24.096 61.2538 24.192 60.5285 24.192ZM51.8245 10.208V7.00802H63.2165V10.208H51.8245ZM77.355 6.68802C78.7203 6.68802 79.9363 6.95468 81.003 7.48802C82.091 8.02135 82.9443 8.84268 83.563 9.95202C84.1816 11.04 84.491 12.448 84.491 14.176V23.968H80.491V14.688C80.491 13.1734 80.1283 12.0427 79.403 11.296C78.699 10.5494 77.707 10.176 76.427 10.176C75.4883 10.176 74.6563 10.368 73.931 10.752C73.2056 11.136 72.6403 11.712 72.235 12.48C71.851 13.2267 71.659 14.176 71.659 15.328V23.968H67.659V0.224016H71.659V11.488L70.795 10.08C71.3923 8.99202 72.2563 8.16002 73.387 7.58402C74.539 6.98668 75.8616 6.68802 77.355 6.68802ZM97.6285 24.192C95.7298 24.192 94.0658 23.8187 92.6365 23.072C91.2285 22.304 90.1298 21.2587 89.3405 19.936C88.5725 18.6134 88.1885 17.1094 88.1885 15.424C88.1885 13.7174 88.5618 12.2134 89.3085 10.912C90.0765 9.58935 91.1218 8.55468 92.4445 7.80802C93.7885 7.06135 95.3138 6.68802 97.0205 6.68802C98.6845 6.68802 100.167 7.05068 101.468 7.77602C102.77 8.50135 103.794 9.52535 104.54 10.848C105.287 12.1707 105.66 13.728 105.66 15.52C105.66 15.6907 105.65 15.8827 105.628 16.096C105.628 16.3094 105.618 16.512 105.596 16.704H91.3565V14.048H103.484L101.916 14.88C101.938 13.8987 101.735 13.0347 101.308 12.288C100.882 11.5414 100.295 10.9547 99.5485 10.528C98.8231 10.1014 97.9805 9.88802 97.0205 9.88802C96.0391 9.88802 95.1751 10.1014 94.4285 10.528C93.7031 10.9547 93.1271 11.552 92.7005 12.32C92.2951 13.0667 92.0925 13.952 92.0925 14.976V15.616C92.0925 16.64 92.3271 17.5467 92.7965 18.336C93.2658 19.1254 93.9271 19.7334 94.7805 20.16C95.6338 20.5867 96.6151 20.8 97.7245 20.8C98.6845 20.8 99.5485 20.6507 100.316 20.352C101.084 20.0534 101.767 19.584 102.364 18.944L104.508 21.408C103.74 22.304 102.77 22.9974 101.596 23.488C100.444 23.9574 99.1218 24.192 97.6285 24.192ZM118.89 23.968V5.92002C118.89 4.12802 119.413 2.69868 120.458 1.63202C121.525 0.544017 123.04 1.71661e-05 125.002 1.71661e-05C125.706 1.71661e-05 126.368 0.0746835 126.986 0.224016C127.626 0.37335 128.16 0.608017 128.586 0.928017L127.498 3.93602C127.2 3.70135 126.858 3.53068 126.474 3.42402C126.09 3.29602 125.696 3.23202 125.29 3.23202C124.458 3.23202 123.829 3.46668 123.402 3.93602C122.976 4.38402 122.762 5.06668 122.762 5.98402V7.90402L122.89 9.69602V23.968H118.89ZM116.074 10.208V7.00802H127.466V10.208H116.074ZM137.941 24.192C136.042 24.192 134.378 23.8187 132.949 23.072C131.541 22.304 130.442 21.2587 129.653 19.936C128.885 18.6134 128.501 17.1094 128.501 15.424C128.501 13.7174 128.874 12.2134 129.621 10.912C130.389 9.58935 131.434 8.55468 132.757 7.80802C134.101 7.06135 135.626 6.68802 137.333 6.68802C138.997 6.68802 140.48 7.05068 141.781 7.77602C143.082 8.50135 144.106 9.52535 144.853 10.848C145.6 12.1707 145.973 13.728 145.973 15.52C145.973 15.6907 145.962 15.8827 145.941 16.096C145.941 16.3094 145.93 16.512 145.909 16.704H131.669V14.048H143.797L142.229 14.88C142.25 13.8987 142.048 13.0347 141.621 12.288C141.194 11.5414 140.608 10.9547 139.861 10.528C139.136 10.1014 138.293 9.88802 137.333 9.88802C136.352 9.88802 135.488 10.1014 134.741 10.528C134.016 10.9547 133.44 11.552 133.013 12.32C132.608 13.0667 132.405 13.952 132.405 14.976V15.616C132.405 16.64 132.64 17.5467 133.109 18.336C133.578 19.1254 134.24 19.7334 135.093 20.16C135.946 20.5867 136.928 20.8 138.037 20.8C138.997 20.8 139.861 20.6507 140.629 20.352C141.397 20.0534 142.08 19.584 142.677 18.944L144.821 21.408C144.053 22.304 143.082 22.9974 141.909 23.488C140.757 23.9574 139.434 24.192 137.941 24.192ZM159.874 23.968V20.512L159.65 19.776V13.728C159.65 12.5547 159.298 11.648 158.594 11.008C157.89 10.3467 156.824 10.016 155.394 10.016C154.434 10.016 153.485 10.1654 152.546 10.464C151.629 10.7627 150.85 11.1787 150.21 11.712L148.642 8.80002C149.56 8.09602 150.648 7.57335 151.906 7.23202C153.186 6.86935 154.509 6.68802 155.874 6.68802C158.349 6.68802 160.258 7.28535 161.602 8.48002C162.968 9.65335 163.65 11.4774 163.65 13.952V23.968H159.874ZM154.498 24.192C153.218 24.192 152.098 23.9787 151.138 23.552C150.178 23.104 149.432 22.496 148.898 21.728C148.386 20.9387 148.13 20.0534 148.13 19.072C148.13 18.112 148.354 17.248 148.802 16.48C149.272 15.712 150.029 15.104 151.074 14.656C152.12 14.208 153.506 13.984 155.234 13.984H160.194V16.64H155.522C154.157 16.64 153.24 16.864 152.77 17.312C152.301 17.7387 152.066 18.272 152.066 18.912C152.066 19.6374 152.354 20.2134 152.93 20.64C153.506 21.0667 154.306 21.28 155.33 21.28C156.312 21.28 157.186 21.056 157.954 20.608C158.744 20.16 159.309 19.4987 159.65 18.624L160.322 21.024C159.938 22.0267 159.245 22.8054 158.242 23.36C157.261 23.9147 156.013 24.192 154.498 24.192ZM175.216 24.192C173.339 24.192 171.888 23.712 170.864 22.752C169.84 21.7707 169.328 20.3307 169.328 18.432V3.10402H173.328V18.336C173.328 19.1467 173.531 19.776 173.936 20.224C174.363 20.672 174.949 20.896 175.696 20.896C176.592 20.896 177.339 20.6614 177.936 20.192L179.056 23.04C178.587 23.424 178.011 23.712 177.328 23.904C176.645 24.096 175.941 24.192 175.216 24.192ZM166.512 10.208V7.00802H177.904V10.208H166.512ZM189.578 24.192C188.128 24.192 186.848 23.9254 185.738 23.392C184.629 22.8374 183.765 22.0054 183.146 20.896C182.528 19.7654 182.218 18.3467 182.218 16.64V6.88002H186.218V16.096C186.218 17.632 186.56 18.784 187.242 19.552C187.946 20.2987 188.938 20.672 190.218 20.672C191.157 20.672 191.968 20.48 192.65 20.096C193.354 19.712 193.898 19.136 194.282 18.368C194.688 17.6 194.89 16.6507 194.89 15.52V6.88002H198.89V23.968H195.082V19.36L195.754 20.768C195.178 21.8774 194.336 22.7307 193.226 23.328C192.117 23.904 190.901 24.192 189.578 24.192ZM204.128 23.968V6.88002H207.936V11.584L207.488 10.208C208 9.05602 208.8 8.18135 209.888 7.58402C210.997 6.98668 212.373 6.68802 214.016 6.68802V10.496C213.845 10.4534 213.685 10.432 213.536 10.432C213.386 10.4107 213.237 10.4 213.088 10.4C211.573 10.4 210.368 10.848 209.472 11.744C208.576 12.6187 208.128 13.9307 208.128 15.68V23.968H204.128ZM225.285 24.192C223.386 24.192 221.722 23.8187 220.293 23.072C218.885 22.304 217.786 21.2587 216.997 19.936C216.229 18.6134 215.845 17.1094 215.845 15.424C215.845 13.7174 216.218 12.2134 216.965 10.912C217.733 9.58935 218.778 8.55468 220.101 7.80802C221.445 7.06135 222.97 6.68802 224.677 6.68802C226.341 6.68802 227.823 7.05068 229.125 7.77602C230.426 8.50135 231.45 9.52535 232.197 10.848C232.943 12.1707 233.317 13.728 233.317 15.52C233.317 15.6907 233.306 15.8827 233.285 16.096C233.285 16.3094 233.274 16.512 233.253 16.704H219.013V14.048H231.141L229.573 14.88C229.594 13.8987 229.391 13.0347 228.965 12.288C228.538 11.5414 227.951 10.9547 227.205 10.528C226.479 10.1014 225.637 9.88802 224.677 9.88802C223.695 9.88802 222.831 10.1014 222.085 10.528C221.359 10.9547 220.783 11.552 220.357 12.32C219.951 13.0667 219.749 13.952 219.749 14.976V15.616C219.749 16.64 219.983 17.5467 220.453 18.336C220.922 19.1254 221.583 19.7334 222.437 20.16C223.29 20.5867 224.271 20.8 225.381 20.8C226.341 20.8 227.205 20.6507 227.973 20.352C228.741 20.0534 229.423 19.584 230.021 18.944L232.165 21.408C231.397 22.304 230.426 22.9974 229.253 23.488C228.101 23.9574 226.778 24.192 225.285 24.192ZM242.439 24.192C241.01 24.192 239.634 24.0107 238.311 23.648C237.01 23.264 235.975 22.8054 235.207 22.272L236.743 19.232C237.511 19.7227 238.428 20.128 239.495 20.448C240.562 20.768 241.628 20.928 242.695 20.928C243.954 20.928 244.86 20.7574 245.415 20.416C245.991 20.0747 246.279 19.616 246.279 19.04C246.279 18.5707 246.087 18.2187 245.703 17.984C245.319 17.728 244.818 17.536 244.199 17.408C243.58 17.28 242.887 17.1627 242.119 17.056C241.372 16.9494 240.615 16.8107 239.847 16.64C239.1 16.448 238.418 16.1814 237.799 15.84C237.18 15.4774 236.679 14.9974 236.295 14.4C235.911 13.8027 235.719 13.0134 235.719 12.032C235.719 10.944 236.028 10.0054 236.647 9.21602C237.266 8.40535 238.13 7.78668 239.239 7.36002C240.37 6.91202 241.703 6.68802 243.239 6.68802C244.391 6.68802 245.554 6.81602 246.727 7.07202C247.9 7.32802 248.871 7.69068 249.639 8.16002L248.103 11.2C247.292 10.7094 246.471 10.3787 245.639 10.208C244.828 10.016 244.018 9.92002 243.207 9.92002C241.991 9.92002 241.084 10.1014 240.487 10.464C239.911 10.8267 239.623 11.2854 239.623 11.84C239.623 12.352 239.815 12.736 240.199 12.992C240.583 13.248 241.084 13.4507 241.703 13.6C242.322 13.7494 243.004 13.8774 243.751 13.984C244.519 14.0694 245.276 14.208 246.023 14.4C246.77 14.592 247.452 14.8587 248.071 15.2C248.711 15.52 249.223 15.9787 249.607 16.576C249.991 17.1734 250.183 17.952 250.183 18.912C250.183 19.9787 249.863 20.9067 249.223 21.696C248.604 22.4854 247.719 23.104 246.567 23.552C245.415 23.9787 244.039 24.192 242.439 24.192ZM263.879 30.4C263.047 30.4 262.215 30.2614 261.383 29.984C260.551 29.7067 259.858 29.3227 259.303 28.832L260.903 25.888C261.309 26.2507 261.767 26.5387 262.279 26.752C262.791 26.9654 263.314 27.072 263.847 27.072C264.573 27.072 265.159 26.8907 265.607 26.528C266.055 26.1654 266.471 25.5574 266.855 24.704L267.847 22.464L268.167 21.984L274.631 6.88002H278.471L270.471 25.344C269.938 26.624 269.341 27.6374 268.679 28.384C268.039 29.1307 267.314 29.6534 266.503 29.952C265.714 30.2507 264.839 30.4 263.879 30.4ZM267.399 24.576L259.687 6.88002H263.847L270.119 21.632L267.399 24.576ZM288.183 24.192C286.433 24.192 284.876 23.8187 283.511 23.072C282.145 22.304 281.068 21.2587 280.279 19.936C279.489 18.6134 279.095 17.1094 279.095 15.424C279.095 13.7174 279.489 12.2134 280.279 10.912C281.068 9.58935 282.145 8.55468 283.511 7.80802C284.876 7.06135 286.433 6.68802 288.183 6.68802C289.953 6.68802 291.521 7.06135 292.887 7.80802C294.273 8.55468 295.351 9.57868 296.119 10.88C296.908 12.1814 297.303 13.696 297.303 15.424C297.303 17.1094 296.908 18.6134 296.119 19.936C295.351 21.2587 294.273 22.304 292.887 23.072C291.521 23.8187 289.953 24.192 288.183 24.192ZM288.183 20.768C289.164 20.768 290.039 20.5547 290.807 20.128C291.575 19.7014 292.172 19.0827 292.599 18.272C293.047 17.4614 293.271 16.512 293.271 15.424C293.271 14.3147 293.047 13.3654 292.599 12.576C292.172 11.7654 291.575 11.1467 290.807 10.72C290.039 10.2934 289.175 10.08 288.215 10.08C287.233 10.08 286.359 10.2934 285.591 10.72C284.844 11.1467 284.247 11.7654 283.799 12.576C283.351 13.3654 283.127 14.3147 283.127 15.424C283.127 16.512 283.351 17.4614 283.799 18.272C284.247 19.0827 284.844 19.7014 285.591 20.128C286.359 20.5547 287.223 20.768 288.183 20.768ZM308.36 24.192C306.909 24.192 305.629 23.9254 304.52 23.392C303.41 22.8374 302.546 22.0054 301.928 20.896C301.309 19.7654 301 18.3467 301 16.64V6.88002H305V16.096C305 17.632 305.341 18.784 306.024 19.552C306.728 20.2987 307.72 20.672 309 20.672C309.938 20.672 310.749 20.48 311.432 20.096C312.136 19.712 312.68 19.136 313.064 18.368C313.469 17.6 313.672 16.6507 313.672 15.52V6.88002H317.672V23.968H313.864V19.36L314.536 20.768C313.96 21.8774 313.117 22.7307 312.008 23.328C310.898 23.904 309.682 24.192 308.36 24.192ZM341.449 6.68802C342.814 6.68802 344.03 6.95468 345.097 7.48802C346.185 8.02135 347.038 8.84268 347.657 9.95202C348.275 11.04 348.585 12.448 348.585 14.176V23.968H344.585V14.688C344.585 13.1734 344.222 12.0427 343.497 11.296C342.793 10.5494 341.801 10.176 340.521 10.176C339.582 10.176 338.75 10.368 338.025 10.752C337.299 11.136 336.734 11.712 336.329 12.48C335.945 13.2267 335.753 14.176 335.753 15.328V23.968H331.753V6.88002H335.561V11.488L334.889 10.08C335.486 8.99202 336.35 8.16002 337.481 7.58402C338.633 6.98668 339.955 6.68802 341.449 6.68802ZM361.722 24.192C359.824 24.192 358.16 23.8187 356.73 23.072C355.322 22.304 354.224 21.2587 353.434 19.936C352.666 18.6134 352.282 17.1094 352.282 15.424C352.282 13.7174 352.656 12.2134 353.402 10.912C354.17 9.58935 355.216 8.55468 356.538 7.80802C357.882 7.06135 359.408 6.68802 361.114 6.68802C362.778 6.68802 364.261 7.05068 365.562 7.77602C366.864 8.50135 367.888 9.52535 368.634 10.848C369.381 12.1707 369.754 13.728 369.754 15.52C369.754 15.6907 369.744 15.8827 369.722 16.096C369.722 16.3094 369.712 16.512 369.69 16.704H355.45V14.048H367.578L366.01 14.88C366.032 13.8987 365.829 13.0347 365.402 12.288C364.976 11.5414 364.389 10.9547 363.642 10.528C362.917 10.1014 362.074 9.88802 361.114 9.88802C360.133 9.88802 359.269 10.1014 358.522 10.528C357.797 10.9547 357.221 11.552 356.794 12.32C356.389 13.0667 356.186 13.952 356.186 14.976V15.616C356.186 16.64 356.421 17.5467 356.89 18.336C357.36 19.1254 358.021 19.7334 358.874 20.16C359.728 20.5867 360.709 20.8 361.818 20.8C362.778 20.8 363.642 20.6507 364.41 20.352C365.178 20.0534 365.861 19.584 366.458 18.944L368.602 21.408C367.834 22.304 366.864 22.9974 365.69 23.488C364.538 23.9574 363.216 24.192 361.722 24.192ZM381.628 24.192C379.73 24.192 378.066 23.8187 376.636 23.072C375.228 22.304 374.13 21.2587 373.34 19.936C372.572 18.6134 372.188 17.1094 372.188 15.424C372.188 13.7174 372.562 12.2134 373.308 10.912C374.076 9.58935 375.122 8.55468 376.444 7.80802C377.788 7.06135 379.314 6.68802 381.02 6.68802C382.684 6.68802 384.167 7.05068 385.468 7.77602C386.77 8.50135 387.794 9.52535 388.54 10.848C389.287 12.1707 389.66 13.728 389.66 15.52C389.66 15.6907 389.65 15.8827 389.628 16.096C389.628 16.3094 389.618 16.512 389.596 16.704H375.356V14.048H387.484L385.916 14.88C385.938 13.8987 385.735 13.0347 385.308 12.288C384.882 11.5414 384.295 10.9547 383.548 10.528C382.823 10.1014 381.98 9.88802 381.02 9.88802C380.039 9.88802 379.175 10.1014 378.428 10.528C377.703 10.9547 377.127 11.552 376.7 12.32C376.295 13.0667 376.092 13.952 376.092 14.976V15.616C376.092 16.64 376.327 17.5467 376.796 18.336C377.266 19.1254 377.927 19.7334 378.78 20.16C379.634 20.5867 380.615 20.8 381.724 20.8C382.684 20.8 383.548 20.6507 384.316 20.352C385.084 20.0534 385.767 19.584 386.364 18.944L388.508 21.408C387.74 22.304 386.77 22.9974 385.596 23.488C384.444 23.9574 383.122 24.192 381.628 24.192ZM400.735 24.192C399.092 24.192 397.609 23.8294 396.287 23.104C394.985 22.3574 393.961 21.3334 393.215 20.032C392.468 18.7307 392.095 17.1947 392.095 15.424C392.095 13.6534 392.468 12.1174 393.215 10.816C393.961 9.51468 394.985 8.50135 396.287 7.77602C397.609 7.05068 399.092 6.68802 400.735 6.68802C402.164 6.68802 403.444 7.00802 404.575 7.64802C405.705 8.26668 406.601 9.21602 407.263 10.496C407.924 11.776 408.255 13.4187 408.255 15.424C408.255 17.408 407.935 19.0507 407.295 20.352C406.655 21.632 405.769 22.592 404.639 23.232C403.508 23.872 402.207 24.192 400.735 24.192ZM401.215 20.768C402.175 20.768 403.028 20.5547 403.775 20.128C404.543 19.7014 405.151 19.0827 405.599 18.272C406.068 17.4614 406.303 16.512 406.303 15.424C406.303 14.3147 406.068 13.3654 405.599 12.576C405.151 11.7654 404.543 11.1467 403.775 10.72C403.028 10.2934 402.175 10.08 401.215 10.08C400.255 10.08 399.391 10.2934 398.623 10.72C397.876 11.1467 397.268 11.7654 396.799 12.576C396.351 13.3654 396.127 14.3147 396.127 15.424C396.127 16.512 396.351 17.4614 396.799 18.272C397.268 19.0827 397.876 19.7014 398.623 20.128C399.391 20.5547 400.255 20.768 401.215 20.768ZM406.399 23.968V19.936L406.559 15.392L406.239 10.848V0.224016H410.207V23.968H406.399Z" fill="#333333"/>
</svg>
