<svg width="444" height="140" viewBox="0 0 444 140" fill="none" xmlns="http://www.w3.org/2000/svg">
<path d="M131.552 31V12.12H124.128V8.6H143.136V12.12H135.712V31H131.552ZM152.156 31.224C150.257 31.224 148.593 30.8507 147.164 30.104C145.756 29.336 144.657 28.2907 143.868 26.968C143.1 25.6453 142.716 24.1413 142.716 22.456C142.716 20.7493 143.089 19.2453 143.836 17.944C144.604 16.6213 145.649 15.5867 146.972 14.84C148.316 14.0933 149.841 13.72 151.548 13.72C153.212 13.72 154.695 14.0827 155.996 14.808C157.297 15.5333 158.321 16.5573 159.068 17.88C159.815 19.2027 160.188 20.76 160.188 22.552C160.188 22.7227 160.177 22.9147 160.156 23.128C160.156 23.3413 160.145 23.544 160.124 23.736H145.884V21.08H158.012L156.444 21.912C156.465 20.9307 156.263 20.0667 155.836 19.32C155.409 18.5733 154.823 17.9867 154.076 17.56C153.351 17.1333 152.508 16.92 151.548 16.92C150.567 16.92 149.703 17.1333 148.956 17.56C148.231 17.9867 147.655 18.584 147.228 19.352C146.823 20.0987 146.62 20.984 146.62 22.008V22.648C146.62 23.672 146.855 24.5787 147.324 25.368C147.793 26.1573 148.455 26.7653 149.308 27.192C150.161 27.6187 151.143 27.832 152.252 27.832C153.212 27.832 154.076 27.6827 154.844 27.384C155.612 27.0853 156.295 26.616 156.892 25.976L159.036 28.44C158.268 29.336 157.297 30.0293 156.124 30.52C154.972 30.9893 153.649 31.224 152.156 31.224ZM174.09 31V27.544L173.866 26.808V20.76C173.866 19.5867 173.514 18.68 172.81 18.04C172.106 17.3787 171.039 17.048 169.61 17.048C168.65 17.048 167.7 17.1973 166.762 17.496C165.844 17.7947 165.066 18.2107 164.426 18.744L162.858 15.832C163.775 15.128 164.863 14.6053 166.122 14.264C167.402 13.9013 168.724 13.72 170.09 13.72C172.564 13.72 174.474 14.3173 175.818 15.512C177.183 16.6853 177.866 18.5093 177.866 20.984V31H174.09ZM168.714 31.224C167.434 31.224 166.314 31.0107 165.354 30.584C164.394 30.136 163.647 29.528 163.114 28.76C162.602 27.9707 162.346 27.0853 162.346 26.104C162.346 25.144 162.57 24.28 163.018 23.512C163.487 22.744 164.244 22.136 165.29 21.688C166.335 21.24 167.722 21.016 169.45 21.016H174.41V23.672H169.738C168.372 23.672 167.455 23.896 166.986 24.344C166.516 24.7707 166.282 25.304 166.282 25.944C166.282 26.6693 166.57 27.2453 167.146 27.672C167.722 28.0987 168.522 28.312 169.546 28.312C170.527 28.312 171.402 28.088 172.17 27.64C172.959 27.192 173.524 26.5307 173.866 25.656L174.538 28.056C174.154 29.0587 173.46 29.8373 172.458 30.392C171.476 30.9467 170.228 31.224 168.714 31.224ZM204.567 13.72C205.932 13.72 207.138 13.9867 208.183 14.52C209.25 15.0533 210.082 15.8747 210.679 16.984C211.276 18.072 211.575 19.48 211.575 21.208V31H207.575V21.72C207.575 20.2053 207.244 19.0747 206.583 18.328C205.922 17.5813 204.972 17.208 203.735 17.208C202.86 17.208 202.082 17.4 201.399 17.784C200.738 18.168 200.215 18.7333 199.831 19.48C199.468 20.2267 199.287 21.176 199.287 22.328V31H195.287V21.72C195.287 20.2053 194.956 19.0747 194.295 18.328C193.634 17.5813 192.684 17.208 191.447 17.208C190.572 17.208 189.794 17.4 189.111 17.784C188.45 18.168 187.927 18.7333 187.543 19.48C187.18 20.2267 186.999 21.176 186.999 22.328V31H182.999V13.912H186.807V18.456L186.135 17.112C186.711 16.0027 187.543 15.16 188.631 14.584C189.74 14.008 190.999 13.72 192.407 13.72C194.007 13.72 195.394 14.1147 196.567 14.904C197.762 15.6933 198.551 16.888 198.935 18.488L197.367 17.944C197.922 16.664 198.839 15.64 200.119 14.872C201.399 14.104 202.882 13.72 204.567 13.72ZM236.282 31.32C234.576 31.32 232.986 31.0427 231.514 30.488C230.064 29.912 228.794 29.112 227.706 28.088C226.64 27.0427 225.808 25.816 225.21 24.408C224.613 23 224.314 21.464 224.314 19.8C224.314 18.136 224.613 16.6 225.21 15.192C225.808 13.784 226.65 12.568 227.738 11.544C228.826 10.4987 230.096 9.69867 231.546 9.144C232.997 8.568 234.586 8.28 236.314 8.28C238.149 8.28 239.824 8.6 241.338 9.24C242.853 9.85867 244.133 10.7867 245.178 12.024L242.49 14.552C241.68 13.6773 240.773 13.0267 239.77 12.6C238.768 12.152 237.68 11.928 236.506 11.928C235.333 11.928 234.256 12.12 233.274 12.504C232.314 12.888 231.472 13.432 230.746 14.136C230.042 14.84 229.488 15.672 229.082 16.632C228.698 17.592 228.506 18.648 228.506 19.8C228.506 20.952 228.698 22.008 229.082 22.968C229.488 23.928 230.042 24.76 230.746 25.464C231.472 26.168 232.314 26.712 233.274 27.096C234.256 27.48 235.333 27.672 236.506 27.672C237.68 27.672 238.768 27.4587 239.77 27.032C240.773 26.584 241.68 25.912 242.49 25.016L245.178 27.576C244.133 28.792 242.853 29.72 241.338 30.36C239.824 31 238.138 31.32 236.282 31.32ZM255.804 31.224C254.055 31.224 252.497 30.8507 251.132 30.104C249.767 29.336 248.689 28.2907 247.9 26.968C247.111 25.6453 246.716 24.1413 246.716 22.456C246.716 20.7493 247.111 19.2453 247.9 17.944C248.689 16.6213 249.767 15.5867 251.132 14.84C252.497 14.0933 254.055 13.72 255.804 13.72C257.575 13.72 259.143 14.0933 260.508 14.84C261.895 15.5867 262.972 16.6107 263.74 17.912C264.529 19.2133 264.924 20.728 264.924 22.456C264.924 24.1413 264.529 25.6453 263.74 26.968C262.972 28.2907 261.895 29.336 260.508 30.104C259.143 30.8507 257.575 31.224 255.804 31.224ZM255.804 27.8C256.785 27.8 257.66 27.5867 258.428 27.16C259.196 26.7333 259.793 26.1147 260.22 25.304C260.668 24.4933 260.892 23.544 260.892 22.456C260.892 21.3467 260.668 20.3973 260.22 19.608C259.793 18.7973 259.196 18.1787 258.428 17.752C257.66 17.3253 256.796 17.112 255.836 17.112C254.855 17.112 253.98 17.3253 253.212 17.752C252.465 18.1787 251.868 18.7973 251.42 19.608C250.972 20.3973 250.748 21.3467 250.748 22.456C250.748 23.544 250.972 24.4933 251.42 25.304C251.868 26.1147 252.465 26.7333 253.212 27.16C253.98 27.5867 254.844 27.8 255.804 27.8ZM268.749 31V7.256H272.749V31H268.749ZM277.999 31V7.256H281.999V31H277.999ZM297.777 31V27.544L297.553 26.808V20.76C297.553 19.5867 297.201 18.68 296.497 18.04C295.793 17.3787 294.726 17.048 293.297 17.048C292.337 17.048 291.388 17.1973 290.449 17.496C289.532 17.7947 288.753 18.2107 288.113 18.744L286.545 15.832C287.462 15.128 288.55 14.6053 289.809 14.264C291.089 13.9013 292.412 13.72 293.777 13.72C296.252 13.72 298.161 14.3173 299.505 15.512C300.87 16.6853 301.553 18.5093 301.553 20.984V31H297.777ZM292.401 31.224C291.121 31.224 290.001 31.0107 289.041 30.584C288.081 30.136 287.334 29.528 286.801 28.76C286.289 27.9707 286.033 27.0853 286.033 26.104C286.033 25.144 286.257 24.28 286.705 23.512C287.174 22.744 287.932 22.136 288.977 21.688C290.022 21.24 291.409 21.016 293.137 21.016H298.097V23.672H293.425C292.06 23.672 291.142 23.896 290.673 24.344C290.204 24.7707 289.969 25.304 289.969 25.944C289.969 26.6693 290.257 27.2453 290.833 27.672C291.409 28.0987 292.209 28.312 293.233 28.312C294.214 28.312 295.089 28.088 295.857 27.64C296.646 27.192 297.212 26.5307 297.553 25.656L298.225 28.056C297.841 29.0587 297.148 29.8373 296.145 30.392C295.164 30.9467 293.916 31.224 292.401 31.224ZM316.159 31.224C314.708 31.224 313.417 30.904 312.286 30.264C311.156 29.624 310.26 28.664 309.599 27.384C308.959 26.0827 308.639 24.44 308.639 22.456C308.639 20.4507 308.969 18.808 309.631 17.528C310.313 16.248 311.22 15.2987 312.351 14.68C313.503 14.04 314.772 13.72 316.159 13.72C317.844 13.72 319.327 14.0827 320.607 14.808C321.908 15.5333 322.932 16.5467 323.679 17.848C324.447 19.1493 324.831 20.6853 324.831 22.456C324.831 24.2267 324.447 25.7627 323.679 27.064C322.932 28.3653 321.908 29.3893 320.607 30.136C319.327 30.8613 317.844 31.224 316.159 31.224ZM306.687 31V7.256H310.687V17.88L310.367 22.424L310.495 26.968V31H306.687ZM315.711 27.8C316.671 27.8 317.524 27.5867 318.271 27.16C319.039 26.7333 319.647 26.1147 320.095 25.304C320.543 24.4933 320.767 23.544 320.767 22.456C320.767 21.3467 320.543 20.3973 320.095 19.608C319.647 18.7973 319.039 18.1787 318.271 17.752C317.524 17.3253 316.671 17.112 315.711 17.112C314.751 17.112 313.887 17.3253 313.119 17.752C312.351 18.1787 311.743 18.7973 311.295 19.608C310.847 20.3973 310.623 21.3467 310.623 22.456C310.623 23.544 310.847 24.4933 311.295 25.304C311.743 26.1147 312.351 26.7333 313.119 27.16C313.887 27.5867 314.751 27.8 315.711 27.8ZM336.304 31.224C334.555 31.224 332.997 30.8507 331.632 30.104C330.267 29.336 329.189 28.2907 328.4 26.968C327.611 25.6453 327.216 24.1413 327.216 22.456C327.216 20.7493 327.611 19.2453 328.4 17.944C329.189 16.6213 330.267 15.5867 331.632 14.84C332.997 14.0933 334.555 13.72 336.304 13.72C338.075 13.72 339.643 14.0933 341.008 14.84C342.395 15.5867 343.472 16.6107 344.24 17.912C345.029 19.2133 345.424 20.728 345.424 22.456C345.424 24.1413 345.029 25.6453 344.24 26.968C343.472 28.2907 342.395 29.336 341.008 30.104C339.643 30.8507 338.075 31.224 336.304 31.224ZM336.304 27.8C337.285 27.8 338.16 27.5867 338.928 27.16C339.696 26.7333 340.293 26.1147 340.72 25.304C341.168 24.4933 341.392 23.544 341.392 22.456C341.392 21.3467 341.168 20.3973 340.72 19.608C340.293 18.7973 339.696 18.1787 338.928 17.752C338.16 17.3253 337.296 17.112 336.336 17.112C335.355 17.112 334.48 17.3253 333.712 17.752C332.965 18.1787 332.368 18.7973 331.92 19.608C331.472 20.3973 331.248 21.3467 331.248 22.456C331.248 23.544 331.472 24.4933 331.92 25.304C332.368 26.1147 332.965 26.7333 333.712 27.16C334.48 27.5867 335.344 27.8 336.304 27.8ZM349.249 31V13.912H353.057V18.616L352.609 17.24C353.121 16.088 353.921 15.2133 355.009 14.616C356.118 14.0187 357.494 13.72 359.137 13.72V17.528C358.966 17.4853 358.806 17.464 358.657 17.464C358.508 17.4427 358.358 17.432 358.209 17.432C356.694 17.432 355.489 17.88 354.593 18.776C353.697 19.6507 353.249 20.9627 353.249 22.712V31H349.249ZM371.84 31V27.544L371.616 26.808V20.76C371.616 19.5867 371.264 18.68 370.56 18.04C369.856 17.3787 368.789 17.048 367.36 17.048C366.4 17.048 365.45 17.1973 364.512 17.496C363.594 17.7947 362.816 18.2107 362.176 18.744L360.608 15.832C361.525 15.128 362.613 14.6053 363.872 14.264C365.152 13.9013 366.474 13.72 367.84 13.72C370.314 13.72 372.224 14.3173 373.568 15.512C374.933 16.6853 375.616 18.5093 375.616 20.984V31H371.84ZM366.464 31.224C365.184 31.224 364.064 31.0107 363.104 30.584C362.144 30.136 361.397 29.528 360.864 28.76C360.352 27.9707 360.096 27.0853 360.096 26.104C360.096 25.144 360.32 24.28 360.768 23.512C361.237 22.744 361.994 22.136 363.04 21.688C364.085 21.24 365.472 21.016 367.2 21.016H372.16V23.672H367.488C366.122 23.672 365.205 23.896 364.736 24.344C364.266 24.7707 364.032 25.304 364.032 25.944C364.032 26.6693 364.32 27.2453 364.896 27.672C365.472 28.0987 366.272 28.312 367.296 28.312C368.277 28.312 369.152 28.088 369.92 27.64C370.709 27.192 371.274 26.5307 371.616 25.656L372.288 28.056C371.904 29.0587 371.21 29.8373 370.208 30.392C369.226 30.9467 367.978 31.224 366.464 31.224ZM387.181 31.224C385.304 31.224 383.853 30.744 382.829 29.784C381.805 28.8027 381.293 27.3627 381.293 25.464V10.136H385.293V25.368C385.293 26.1787 385.496 26.808 385.901 27.256C386.328 27.704 386.914 27.928 387.661 27.928C388.557 27.928 389.304 27.6933 389.901 27.224L391.021 30.072C390.552 30.456 389.976 30.744 389.293 30.936C388.61 31.128 387.906 31.224 387.181 31.224ZM378.477 17.24V14.04H389.869V17.24H378.477ZM394.312 31V13.912H398.312V31H394.312ZM396.328 11.096C395.581 11.096 394.962 10.8613 394.472 10.392C394.002 9.92267 393.768 9.35733 393.768 8.696C393.768 8.01333 394.002 7.448 394.472 7C394.962 6.53067 395.581 6.296 396.328 6.296C397.074 6.296 397.682 6.52 398.152 6.968C398.642 7.39467 398.888 7.93867 398.888 8.6C398.888 9.304 398.653 9.90133 398.184 10.392C397.714 10.8613 397.096 11.096 396.328 11.096ZM411.242 31.224C409.492 31.224 407.935 30.8507 406.57 30.104C405.204 29.336 404.127 28.2907 403.338 26.968C402.548 25.6453 402.154 24.1413 402.154 22.456C402.154 20.7493 402.548 19.2453 403.338 17.944C404.127 16.6213 405.204 15.5867 406.57 14.84C407.935 14.0933 409.492 13.72 411.242 13.72C413.012 13.72 414.58 14.0933 415.946 14.84C417.332 15.5867 418.41 16.6107 419.178 17.912C419.967 19.2133 420.362 20.728 420.362 22.456C420.362 24.1413 419.967 25.6453 419.178 26.968C418.41 28.2907 417.332 29.336 415.946 30.104C414.58 30.8507 413.012 31.224 411.242 31.224ZM411.242 27.8C412.223 27.8 413.098 27.5867 413.866 27.16C414.634 26.7333 415.231 26.1147 415.658 25.304C416.106 24.4933 416.33 23.544 416.33 22.456C416.33 21.3467 416.106 20.3973 415.658 19.608C415.231 18.7973 414.634 18.1787 413.866 17.752C413.098 17.3253 412.234 17.112 411.274 17.112C410.292 17.112 409.418 17.3253 408.65 17.752C407.903 18.1787 407.306 18.7973 406.858 19.608C406.41 20.3973 406.186 21.3467 406.186 22.456C406.186 23.544 406.41 24.4933 406.858 25.304C407.306 26.1147 407.903 26.7333 408.65 27.16C409.418 27.5867 410.282 27.8 411.242 27.8ZM433.883 13.72C435.248 13.72 436.464 13.9867 437.531 14.52C438.619 15.0533 439.472 15.8747 440.091 16.984C440.709 18.072 441.019 19.48 441.019 21.208V31H437.019V21.72C437.019 20.2053 436.656 19.0747 435.931 18.328C435.227 17.5813 434.235 17.208 432.955 17.208C432.016 17.208 431.184 17.4 430.459 17.784C429.733 18.168 429.168 18.744 428.763 19.512C428.379 20.2587 428.187 21.208 428.187 22.36V31H424.187V13.912H427.995V18.52L427.323 17.112C427.92 16.024 428.784 15.192 429.915 14.616C431.067 14.0187 432.389 13.72 433.883 13.72Z" fill="#333333"/>
<path d="M126.28 67V53H127.76V67H126.28ZM137.375 56.4C138.228 56.4 138.975 56.5667 139.615 56.9C140.268 57.22 140.775 57.7133 141.135 58.38C141.508 59.0467 141.695 59.8867 141.695 60.9V67H140.275V61.04C140.275 59.9333 139.995 59.1 139.435 58.54C138.888 57.9667 138.115 57.68 137.115 57.68C136.368 57.68 135.715 57.8333 135.155 58.14C134.608 58.4333 134.182 58.8667 133.875 59.44C133.582 60 133.435 60.68 133.435 61.48V67H132.015V56.5H133.375V59.38L133.155 58.84C133.488 58.08 134.022 57.4867 134.755 57.06C135.488 56.62 136.362 56.4 137.375 56.4ZM148.035 67L143.375 56.5H144.855L149.135 66.24H148.435L152.775 56.5H154.175L149.495 67H148.035ZM156.175 67V56.5H157.595V67H156.175ZM156.895 54.18C156.602 54.18 156.355 54.08 156.155 53.88C155.955 53.68 155.855 53.44 155.855 53.16C155.855 52.88 155.955 52.6467 156.155 52.46C156.355 52.26 156.602 52.16 156.895 52.16C157.189 52.16 157.435 52.2533 157.635 52.44C157.835 52.6267 157.935 52.86 157.935 53.14C157.935 53.4333 157.835 53.68 157.635 53.88C157.449 54.08 157.202 54.18 156.895 54.18ZM164.866 67.1C163.88 67.1 163.12 66.8333 162.586 66.3C162.053 65.7667 161.786 65.0133 161.786 64.04V54.18H163.206V63.96C163.206 64.5733 163.36 65.0467 163.666 65.38C163.986 65.7133 164.44 65.88 165.026 65.88C165.653 65.88 166.173 65.7 166.586 65.34L167.086 66.36C166.806 66.6133 166.466 66.8 166.066 66.92C165.68 67.04 165.28 67.1 164.866 67.1ZM159.906 57.68V56.5H166.406V57.68H159.906ZM173.76 67.1C172.667 67.1 171.707 66.8733 170.88 66.42C170.054 65.9533 169.407 65.32 168.94 64.52C168.474 63.7067 168.24 62.78 168.24 61.74C168.24 60.7 168.46 59.78 168.9 58.98C169.354 58.18 169.967 57.5533 170.74 57.1C171.527 56.6333 172.407 56.4 173.38 56.4C174.367 56.4 175.24 56.6267 176 57.08C176.774 57.52 177.38 58.1467 177.82 58.96C178.26 59.76 178.48 60.6867 178.48 61.74C178.48 61.8067 178.474 61.88 178.46 61.96C178.46 62.0267 178.46 62.1 178.46 62.18H169.32V61.12H177.7L177.14 61.54C177.14 60.78 176.974 60.1067 176.64 59.52C176.32 58.92 175.88 58.4533 175.32 58.12C174.76 57.7867 174.114 57.62 173.38 57.62C172.66 57.62 172.014 57.7867 171.44 58.12C170.867 58.4533 170.42 58.92 170.1 59.52C169.78 60.12 169.62 60.8067 169.62 61.58V61.8C169.62 62.6 169.794 63.3067 170.14 63.92C170.5 64.52 170.994 64.9933 171.62 65.34C172.26 65.6733 172.987 65.84 173.8 65.84C174.44 65.84 175.034 65.7267 175.58 65.5C176.14 65.2733 176.62 64.9267 177.02 64.46L177.82 65.38C177.354 65.94 176.767 66.3667 176.06 66.66C175.367 66.9533 174.6 67.1 173.76 67.1ZM189.925 67.1C188.938 67.1 188.178 66.8333 187.645 66.3C187.112 65.7667 186.845 65.0133 186.845 64.04V54.18H188.265V63.96C188.265 64.5733 188.418 65.0467 188.725 65.38C189.045 65.7133 189.498 65.88 190.085 65.88C190.712 65.88 191.232 65.7 191.645 65.34L192.145 66.36C191.865 66.6133 191.525 66.8 191.125 66.92C190.738 67.04 190.338 67.1 189.925 67.1ZM184.965 57.68V56.5H191.465V57.68H184.965ZM198.819 67.1C197.726 67.1 196.766 66.8733 195.939 66.42C195.112 65.9533 194.466 65.32 193.999 64.52C193.532 63.7067 193.299 62.78 193.299 61.74C193.299 60.7 193.519 59.78 193.959 58.98C194.412 58.18 195.026 57.5533 195.799 57.1C196.586 56.6333 197.466 56.4 198.439 56.4C199.426 56.4 200.299 56.6267 201.059 57.08C201.832 57.52 202.439 58.1467 202.879 58.96C203.319 59.76 203.539 60.6867 203.539 61.74C203.539 61.8067 203.532 61.88 203.519 61.96C203.519 62.0267 203.519 62.1 203.519 62.18H194.379V61.12H202.759L202.199 61.54C202.199 60.78 202.032 60.1067 201.699 59.52C201.379 58.92 200.939 58.4533 200.379 58.12C199.819 57.7867 199.172 57.62 198.439 57.62C197.719 57.62 197.072 57.7867 196.499 58.12C195.926 58.4533 195.479 58.92 195.159 59.52C194.839 60.12 194.679 60.8067 194.679 61.58V61.8C194.679 62.6 194.852 63.3067 195.199 63.92C195.559 64.52 196.052 64.9933 196.679 65.34C197.319 65.6733 198.046 65.84 198.859 65.84C199.499 65.84 200.092 65.7267 200.639 65.5C201.199 65.2733 201.679 64.9267 202.079 64.46L202.879 65.38C202.412 65.94 201.826 66.3667 201.119 66.66C200.426 66.9533 199.659 67.1 198.819 67.1ZM212.716 67V64.68L212.656 64.3V60.42C212.656 59.5267 212.403 58.84 211.896 58.36C211.403 57.88 210.663 57.64 209.676 57.64C208.996 57.64 208.35 57.7533 207.736 57.98C207.123 58.2067 206.603 58.5067 206.176 58.88L205.536 57.82C206.07 57.3667 206.71 57.02 207.456 56.78C208.203 56.5267 208.99 56.4 209.816 56.4C211.176 56.4 212.223 56.74 212.956 57.42C213.703 58.0867 214.076 59.1067 214.076 60.48V67H212.716ZM209.096 67.1C208.31 67.1 207.623 66.9733 207.036 66.72C206.463 66.4533 206.023 66.0933 205.716 65.64C205.41 65.1733 205.256 64.64 205.256 64.04C205.256 63.4933 205.383 63 205.636 62.56C205.903 62.1067 206.33 61.7467 206.916 61.48C207.516 61.2 208.316 61.06 209.316 61.06H212.936V62.12H209.356C208.343 62.12 207.636 62.3 207.236 62.66C206.85 63.02 206.656 63.4667 206.656 64C206.656 64.6 206.89 65.08 207.356 65.44C207.823 65.8 208.476 65.98 209.316 65.98C210.116 65.98 210.803 65.8 211.376 65.44C211.963 65.0667 212.39 64.5333 212.656 63.84L212.976 64.82C212.71 65.5133 212.243 66.0667 211.576 66.48C210.923 66.8933 210.096 67.1 209.096 67.1ZM231.053 56.4C231.906 56.4 232.646 56.5667 233.273 56.9C233.913 57.22 234.406 57.7133 234.753 58.38C235.113 59.0467 235.293 59.8867 235.293 60.9V67H233.873V61.04C233.873 59.9333 233.606 59.1 233.073 58.54C232.553 57.9667 231.813 57.68 230.853 57.68C230.133 57.68 229.506 57.8333 228.973 58.14C228.453 58.4333 228.046 58.8667 227.753 59.44C227.473 60 227.333 60.68 227.333 61.48V67H225.913V61.04C225.913 59.9333 225.646 59.1 225.113 58.54C224.58 57.9667 223.833 57.68 222.873 57.68C222.166 57.68 221.546 57.8333 221.013 58.14C220.48 58.4333 220.066 58.8667 219.773 59.44C219.493 60 219.353 60.68 219.353 61.48V67H217.933V56.5H219.293V59.34L219.073 58.84C219.393 58.08 219.906 57.4867 220.613 57.06C221.333 56.62 222.18 56.4 223.153 56.4C224.18 56.4 225.053 56.66 225.773 57.18C226.493 57.6867 226.96 58.4533 227.173 59.48L226.613 59.26C226.92 58.4067 227.46 57.72 228.233 57.2C229.02 56.6667 229.96 56.4 231.053 56.4ZM257.498 56.4C258.352 56.4 259.092 56.5667 259.718 56.9C260.358 57.22 260.852 57.7133 261.198 58.38C261.558 59.0467 261.738 59.8867 261.738 60.9V67H260.318V61.04C260.318 59.9333 260.052 59.1 259.518 58.54C258.998 57.9667 258.258 57.68 257.298 57.68C256.578 57.68 255.952 57.8333 255.418 58.14C254.898 58.4333 254.492 58.8667 254.198 59.44C253.918 60 253.778 60.68 253.778 61.48V67H252.358V61.04C252.358 59.9333 252.092 59.1 251.558 58.54C251.025 57.9667 250.278 57.68 249.318 57.68C248.612 57.68 247.992 57.8333 247.458 58.14C246.925 58.4333 246.512 58.8667 246.218 59.44C245.938 60 245.798 60.68 245.798 61.48V67H244.378V56.5H245.738V59.34L245.518 58.84C245.838 58.08 246.352 57.4867 247.058 57.06C247.778 56.62 248.625 56.4 249.598 56.4C250.625 56.4 251.498 56.66 252.218 57.18C252.938 57.6867 253.405 58.4533 253.618 59.48L253.058 59.26C253.365 58.4067 253.905 57.72 254.678 57.2C255.465 56.6667 256.405 56.4 257.498 56.4ZM270.049 67.1C268.956 67.1 267.996 66.8733 267.169 66.42C266.343 65.9533 265.696 65.32 265.229 64.52C264.763 63.7067 264.529 62.78 264.529 61.74C264.529 60.7 264.749 59.78 265.189 58.98C265.643 58.18 266.256 57.5533 267.029 57.1C267.816 56.6333 268.696 56.4 269.669 56.4C270.656 56.4 271.529 56.6267 272.289 57.08C273.063 57.52 273.669 58.1467 274.109 58.96C274.549 59.76 274.769 60.6867 274.769 61.74C274.769 61.8067 274.763 61.88 274.749 61.96C274.749 62.0267 274.749 62.1 274.749 62.18H265.609V61.12H273.989L273.429 61.54C273.429 60.78 273.263 60.1067 272.929 59.52C272.609 58.92 272.169 58.4533 271.609 58.12C271.049 57.7867 270.403 57.62 269.669 57.62C268.949 57.62 268.303 57.7867 267.729 58.12C267.156 58.4533 266.709 58.92 266.389 59.52C266.069 60.12 265.909 60.8067 265.909 61.58V61.8C265.909 62.6 266.083 63.3067 266.429 63.92C266.789 64.52 267.283 64.9933 267.909 65.34C268.549 65.6733 269.276 65.84 270.089 65.84C270.729 65.84 271.323 65.7267 271.869 65.5C272.429 65.2733 272.909 64.9267 273.309 64.46L274.109 65.38C273.643 65.94 273.056 66.3667 272.349 66.66C271.656 66.9533 270.889 67.1 270.049 67.1ZM290.78 56.4C291.633 56.4 292.373 56.5667 293 56.9C293.64 57.22 294.133 57.7133 294.48 58.38C294.84 59.0467 295.02 59.8867 295.02 60.9V67H293.6V61.04C293.6 59.9333 293.333 59.1 292.8 58.54C292.28 57.9667 291.54 57.68 290.58 57.68C289.86 57.68 289.233 57.8333 288.7 58.14C288.18 58.4333 287.773 58.8667 287.48 59.44C287.2 60 287.06 60.68 287.06 61.48V67H285.64V61.04C285.64 59.9333 285.373 59.1 284.84 58.54C284.306 57.9667 283.56 57.68 282.6 57.68C281.893 57.68 281.273 57.8333 280.74 58.14C280.206 58.4333 279.793 58.8667 279.5 59.44C279.22 60 279.08 60.68 279.08 61.48V67H277.66V56.5H279.02V59.34L278.8 58.84C279.12 58.08 279.633 57.4867 280.34 57.06C281.06 56.62 281.906 56.4 282.88 56.4C283.906 56.4 284.78 56.66 285.5 57.18C286.22 57.6867 286.686 58.4533 286.9 59.48L286.34 59.26C286.646 58.4067 287.186 57.72 287.96 57.2C288.746 56.6667 289.686 56.4 290.78 56.4ZM304.291 67.1C303.371 67.1 302.544 66.8933 301.811 66.48C301.077 66.0533 300.497 65.44 300.071 64.64C299.644 63.84 299.431 62.8733 299.431 61.74C299.431 60.5933 299.644 59.6267 300.071 58.84C300.511 58.04 301.097 57.4333 301.831 57.02C302.564 56.6067 303.384 56.4 304.291 56.4C305.291 56.4 306.184 56.6267 306.971 57.08C307.771 57.52 308.397 58.14 308.851 58.94C309.304 59.74 309.531 60.6733 309.531 61.74C309.531 62.7933 309.304 63.7267 308.851 64.54C308.397 65.34 307.771 65.9667 306.971 66.42C306.184 66.8733 305.291 67.1 304.291 67.1ZM298.871 67V52.16H300.291V59.6L300.091 61.72L300.231 63.84V67H298.871ZM304.191 65.84C304.937 65.84 305.604 65.6733 306.191 65.34C306.777 64.9933 307.244 64.5133 307.591 63.9C307.937 63.2733 308.111 62.5533 308.111 61.74C308.111 60.9133 307.937 60.1933 307.591 59.58C307.244 58.9667 306.777 58.4933 306.191 58.16C305.604 57.8133 304.937 57.64 304.191 57.64C303.444 57.64 302.771 57.8133 302.171 58.16C301.584 58.4933 301.117 58.9667 300.771 59.58C300.437 60.1933 300.271 60.9133 300.271 61.74C300.271 62.5533 300.437 63.2733 300.771 63.9C301.117 64.5133 301.584 64.9933 302.171 65.34C302.771 65.6733 303.444 65.84 304.191 65.84ZM316.885 67.1C315.792 67.1 314.832 66.8733 314.005 66.42C313.179 65.9533 312.532 65.32 312.065 64.52C311.599 63.7067 311.365 62.78 311.365 61.74C311.365 60.7 311.585 59.78 312.025 58.98C312.479 58.18 313.092 57.5533 313.865 57.1C314.652 56.6333 315.532 56.4 316.505 56.4C317.492 56.4 318.365 56.6267 319.125 57.08C319.899 57.52 320.505 58.1467 320.945 58.96C321.385 59.76 321.605 60.6867 321.605 61.74C321.605 61.8067 321.599 61.88 321.585 61.96C321.585 62.0267 321.585 62.1 321.585 62.18H312.445V61.12H320.825L320.265 61.54C320.265 60.78 320.099 60.1067 319.765 59.52C319.445 58.92 319.005 58.4533 318.445 58.12C317.885 57.7867 317.239 57.62 316.505 57.62C315.785 57.62 315.139 57.7867 314.565 58.12C313.992 58.4533 313.545 58.92 313.225 59.52C312.905 60.12 312.745 60.8067 312.745 61.58V61.8C312.745 62.6 312.919 63.3067 313.265 63.92C313.625 64.52 314.119 64.9933 314.745 65.34C315.385 65.6733 316.112 65.84 316.925 65.84C317.565 65.84 318.159 65.7267 318.705 65.5C319.265 65.2733 319.745 64.9267 320.145 64.46L320.945 65.38C320.479 65.94 319.892 66.3667 319.185 66.66C318.492 66.9533 317.725 67.1 316.885 67.1ZM324.496 67V56.5H325.856V59.36L325.716 58.86C326.009 58.06 326.502 57.4533 327.196 57.04C327.889 56.6133 328.749 56.4 329.776 56.4V57.78C329.722 57.78 329.669 57.78 329.616 57.78C329.562 57.7667 329.509 57.76 329.456 57.76C328.349 57.76 327.482 58.1 326.856 58.78C326.229 59.4467 325.916 60.4 325.916 61.64V67H324.496ZM335.304 67.1C334.437 67.1 333.617 66.98 332.844 66.74C332.071 66.4867 331.464 66.1733 331.024 65.8L331.664 64.68C332.091 65 332.637 65.28 333.304 65.52C333.971 65.7467 334.671 65.86 335.404 65.86C336.404 65.86 337.124 65.7067 337.564 65.4C338.004 65.08 338.224 64.66 338.224 64.14C338.224 63.7533 338.097 63.4533 337.844 63.24C337.604 63.0133 337.284 62.8467 336.884 62.74C336.484 62.62 336.037 62.52 335.544 62.44C335.051 62.36 334.557 62.2667 334.064 62.16C333.584 62.0533 333.144 61.9 332.744 61.7C332.344 61.4867 332.017 61.2 331.764 60.84C331.524 60.48 331.404 60 331.404 59.4C331.404 58.8267 331.564 58.3133 331.884 57.86C332.204 57.4067 332.671 57.0533 333.284 56.8C333.911 56.5333 334.671 56.4 335.564 56.4C336.244 56.4 336.924 56.4933 337.604 56.68C338.284 56.8533 338.844 57.0867 339.284 57.38L338.664 58.52C338.197 58.2 337.697 57.9733 337.164 57.84C336.631 57.6933 336.097 57.62 335.564 57.62C334.617 57.62 333.917 57.7867 333.464 58.12C333.024 58.44 332.804 58.8533 332.804 59.36C332.804 59.76 332.924 60.0733 333.164 60.3C333.417 60.5267 333.744 60.7067 334.144 60.84C334.557 60.96 335.004 61.06 335.484 61.14C335.977 61.22 336.464 61.32 336.944 61.44C337.437 61.5467 337.884 61.7 338.284 61.9C338.697 62.0867 339.024 62.36 339.264 62.72C339.517 63.0667 339.644 63.5267 339.644 64.1C339.644 64.7133 339.471 65.2467 339.124 65.7C338.791 66.14 338.297 66.4867 337.644 66.74C337.004 66.98 336.224 67.1 335.304 67.1ZM349.624 67L345.664 56.5H347.024L350.624 66.24H350.004L353.704 56.5H354.924L358.584 66.24H357.964L361.624 56.5H362.924L358.944 67H357.604L354.084 57.84H354.504L350.964 67H349.624ZM365.062 67V56.5H366.482V67H365.062ZM365.782 54.18C365.489 54.18 365.242 54.08 365.042 53.88C364.842 53.68 364.742 53.44 364.742 53.16C364.742 52.88 364.842 52.6467 365.042 52.46C365.242 52.26 365.489 52.16 365.782 52.16C366.075 52.16 366.322 52.2533 366.522 52.44C366.722 52.6267 366.822 52.86 366.822 53.14C366.822 53.4333 366.722 53.68 366.522 53.88C366.335 54.08 366.089 54.18 365.782 54.18ZM373.753 67.1C372.766 67.1 372.006 66.8333 371.473 66.3C370.94 65.7667 370.673 65.0133 370.673 64.04V54.18H372.093V63.96C372.093 64.5733 372.246 65.0467 372.553 65.38C372.873 65.7133 373.326 65.88 373.913 65.88C374.54 65.88 375.06 65.7 375.473 65.34L375.973 66.36C375.693 66.6133 375.353 66.8 374.953 66.92C374.566 67.04 374.166 67.1 373.753 67.1ZM368.793 57.68V56.5H375.293V57.68H368.793ZM383.918 56.4C384.771 56.4 385.518 56.5667 386.158 56.9C386.811 57.22 387.318 57.7133 387.678 58.38C388.051 59.0467 388.238 59.8867 388.238 60.9V67H386.818V61.04C386.818 59.9333 386.538 59.1 385.978 58.54C385.431 57.9667 384.658 57.68 383.658 57.68C382.911 57.68 382.258 57.8333 381.698 58.14C381.151 58.4333 380.725 58.8667 380.418 59.44C380.125 60 379.978 60.68 379.978 61.48V67H378.558V52.16H379.978V59.38L379.698 58.84C380.031 58.08 380.565 57.4867 381.298 57.06C382.031 56.62 382.905 56.4 383.918 56.4ZM130.34 99.1C129.3 99.1 128.367 98.8733 127.54 98.42C126.727 97.9533 126.087 97.32 125.62 96.52C125.153 95.7067 124.92 94.78 124.92 93.74C124.92 92.6867 125.153 91.76 125.62 90.96C126.087 90.16 126.727 89.5333 127.54 89.08C128.367 88.6267 129.3 88.4 130.34 88.4C131.233 88.4 132.04 88.5733 132.76 88.92C133.48 89.2667 134.047 89.7867 134.46 90.48L133.4 91.2C133.04 90.6667 132.593 90.2733 132.06 90.02C131.527 89.7667 130.947 89.64 130.32 89.64C129.573 89.64 128.9 89.8133 128.3 90.16C127.7 90.4933 127.227 90.9667 126.88 91.58C126.533 92.1933 126.36 92.9133 126.36 93.74C126.36 94.5667 126.533 95.2867 126.88 95.9C127.227 96.5133 127.7 96.9933 128.3 97.34C128.9 97.6733 129.573 97.84 130.32 97.84C130.947 97.84 131.527 97.7133 132.06 97.46C132.593 97.2067 133.04 96.82 133.4 96.3L134.46 97.02C134.047 97.7 133.48 98.22 132.76 98.58C132.04 98.9267 131.233 99.1 130.34 99.1ZM141.59 99.1C140.696 99.1 139.916 98.9333 139.25 98.6C138.583 98.2667 138.063 97.7667 137.69 97.1C137.33 96.4333 137.15 95.6 137.15 94.6V88.5H138.57V94.44C138.57 95.56 138.843 96.4067 139.39 96.98C139.95 97.54 140.73 97.82 141.73 97.82C142.463 97.82 143.096 97.6733 143.63 97.38C144.176 97.0733 144.59 96.6333 144.87 96.06C145.163 95.4867 145.31 94.8 145.31 94V88.5H146.73V99H145.37V96.12L145.59 96.64C145.256 97.4133 144.736 98.02 144.03 98.46C143.336 98.8867 142.523 99.1 141.59 99.1ZM153.507 99.1C152.64 99.1 151.82 98.98 151.047 98.74C150.274 98.4867 149.667 98.1733 149.227 97.8L149.867 96.68C150.294 97 150.84 97.28 151.507 97.52C152.174 97.7467 152.874 97.86 153.607 97.86C154.607 97.86 155.327 97.7067 155.767 97.4C156.207 97.08 156.427 96.66 156.427 96.14C156.427 95.7533 156.3 95.4533 156.047 95.24C155.807 95.0133 155.487 94.8467 155.087 94.74C154.687 94.62 154.24 94.52 153.747 94.44C153.254 94.36 152.76 94.2667 152.267 94.16C151.787 94.0533 151.347 93.9 150.947 93.7C150.547 93.4867 150.22 93.2 149.967 92.84C149.727 92.48 149.607 92 149.607 91.4C149.607 90.8267 149.767 90.3133 150.087 89.86C150.407 89.4067 150.874 89.0533 151.487 88.8C152.114 88.5333 152.874 88.4 153.767 88.4C154.447 88.4 155.127 88.4933 155.807 88.68C156.487 88.8533 157.047 89.0867 157.487 89.38L156.867 90.52C156.4 90.2 155.9 89.9733 155.367 89.84C154.834 89.6933 154.3 89.62 153.767 89.62C152.82 89.62 152.12 89.7867 151.667 90.12C151.227 90.44 151.007 90.8533 151.007 91.36C151.007 91.76 151.127 92.0733 151.367 92.3C151.62 92.5267 151.947 92.7067 152.347 92.84C152.76 92.96 153.207 93.06 153.687 93.14C154.18 93.22 154.667 93.32 155.147 93.44C155.64 93.5467 156.087 93.7 156.487 93.9C156.9 94.0867 157.227 94.36 157.467 94.72C157.72 95.0667 157.847 95.5267 157.847 96.1C157.847 96.7133 157.674 97.2467 157.327 97.7C156.994 98.14 156.5 98.4867 155.847 98.74C155.207 98.98 154.427 99.1 153.507 99.1ZM163.773 99.1C162.786 99.1 162.026 98.8333 161.493 98.3C160.959 97.7667 160.693 97.0133 160.693 96.04V86.18H162.113V95.96C162.113 96.5733 162.266 97.0467 162.573 97.38C162.893 97.7133 163.346 97.88 163.933 97.88C164.559 97.88 165.079 97.7 165.493 97.34L165.993 98.36C165.713 98.6133 165.373 98.8 164.973 98.92C164.586 99.04 164.186 99.1 163.773 99.1ZM158.813 89.68V88.5H165.313V89.68H158.813ZM172.487 99.1C171.473 99.1 170.56 98.8733 169.747 98.42C168.947 97.9533 168.313 97.32 167.847 96.52C167.38 95.7067 167.147 94.78 167.147 93.74C167.147 92.6867 167.38 91.76 167.847 90.96C168.313 90.16 168.947 89.5333 169.747 89.08C170.547 88.6267 171.46 88.4 172.487 88.4C173.527 88.4 174.447 88.6267 175.247 89.08C176.06 89.5333 176.693 90.16 177.147 90.96C177.613 91.76 177.847 92.6867 177.847 93.74C177.847 94.78 177.613 95.7067 177.147 96.52C176.693 97.32 176.06 97.9533 175.247 98.42C174.433 98.8733 173.513 99.1 172.487 99.1ZM172.487 97.84C173.247 97.84 173.92 97.6733 174.507 97.34C175.093 96.9933 175.553 96.5133 175.887 95.9C176.233 95.2733 176.407 94.5533 176.407 93.74C176.407 92.9133 176.233 92.1933 175.887 91.58C175.553 90.9667 175.093 90.4933 174.507 90.16C173.92 89.8133 173.253 89.64 172.507 89.64C171.76 89.64 171.093 89.8133 170.507 90.16C169.92 90.4933 169.453 90.9667 169.107 91.58C168.76 92.1933 168.587 92.9133 168.587 93.74C168.587 94.5533 168.76 95.2733 169.107 95.9C169.453 96.5133 169.92 96.9933 170.507 97.34C171.093 97.6733 171.753 97.84 172.487 97.84ZM193.866 88.4C194.719 88.4 195.459 88.5667 196.086 88.9C196.726 89.22 197.219 89.7133 197.566 90.38C197.926 91.0467 198.106 91.8867 198.106 92.9V99H196.686V93.04C196.686 91.9333 196.419 91.1 195.886 90.54C195.366 89.9667 194.626 89.68 193.666 89.68C192.946 89.68 192.319 89.8333 191.786 90.14C191.266 90.4333 190.859 90.8667 190.566 91.44C190.286 92 190.146 92.68 190.146 93.48V99H188.726V93.04C188.726 91.9333 188.459 91.1 187.926 90.54C187.392 89.9667 186.646 89.68 185.686 89.68C184.979 89.68 184.359 89.8333 183.826 90.14C183.292 90.4333 182.879 90.8667 182.586 91.44C182.306 92 182.166 92.68 182.166 93.48V99H180.746V88.5H182.106V91.34L181.886 90.84C182.206 90.08 182.719 89.4867 183.426 89.06C184.146 88.62 184.992 88.4 185.966 88.4C186.992 88.4 187.866 88.66 188.586 89.18C189.306 89.6867 189.772 90.4533 189.986 91.48L189.426 91.26C189.732 90.4067 190.272 89.72 191.046 89.2C191.832 88.6667 192.772 88.4 193.866 88.4ZM201.957 99V88.5H203.377V99H201.957ZM202.677 86.18C202.383 86.18 202.137 86.08 201.937 85.88C201.737 85.68 201.637 85.44 201.637 85.16C201.637 84.88 201.737 84.6467 201.937 84.46C202.137 84.26 202.383 84.16 202.677 84.16C202.97 84.16 203.217 84.2533 203.417 84.44C203.617 84.6267 203.717 84.86 203.717 85.14C203.717 85.4333 203.617 85.68 203.417 85.88C203.23 86.08 202.983 86.18 202.677 86.18ZM206.188 99V98.06L213.188 89.2L213.488 89.68H206.308V88.5H214.608V89.42L207.628 98.3L207.268 97.82H214.748V99H206.188ZM224.123 99V96.68L224.063 96.3V92.42C224.063 91.5267 223.809 90.84 223.303 90.36C222.809 89.88 222.069 89.64 221.083 89.64C220.403 89.64 219.756 89.7533 219.143 89.98C218.529 90.2067 218.009 90.5067 217.583 90.88L216.943 89.82C217.476 89.3667 218.116 89.02 218.863 88.78C219.609 88.5267 220.396 88.4 221.223 88.4C222.583 88.4 223.629 88.74 224.363 89.42C225.109 90.0867 225.483 91.1067 225.483 92.48V99H224.123ZM220.503 99.1C219.716 99.1 219.029 98.9733 218.443 98.72C217.869 98.4533 217.429 98.0933 217.123 97.64C216.816 97.1733 216.663 96.64 216.663 96.04C216.663 95.4933 216.789 95 217.043 94.56C217.309 94.1067 217.736 93.7467 218.323 93.48C218.923 93.2 219.723 93.06 220.723 93.06H224.343V94.12H220.763C219.749 94.12 219.043 94.3 218.643 94.66C218.256 95.02 218.062 95.4667 218.062 96C218.062 96.6 218.296 97.08 218.763 97.44C219.229 97.8 219.883 97.98 220.723 97.98C221.523 97.98 222.209 97.8 222.783 97.44C223.369 97.0667 223.796 96.5333 224.063 95.84L224.383 96.82C224.116 97.5133 223.649 98.0667 222.983 98.48C222.329 98.8933 221.503 99.1 220.503 99.1ZM234.759 99.1C233.839 99.1 233.013 98.8933 232.279 98.48C231.546 98.0533 230.966 97.44 230.539 96.64C230.113 95.84 229.899 94.8733 229.899 93.74C229.899 92.5933 230.113 91.6267 230.539 90.84C230.979 90.04 231.566 89.4333 232.299 89.02C233.033 88.6067 233.853 88.4 234.759 88.4C235.759 88.4 236.653 88.6267 237.439 89.08C238.239 89.52 238.866 90.14 239.319 90.94C239.773 91.74 239.999 92.6733 239.999 93.74C239.999 94.7933 239.773 95.7267 239.319 96.54C238.866 97.34 238.239 97.9667 237.439 98.42C236.653 98.8733 235.759 99.1 234.759 99.1ZM229.339 99V84.16H230.759V91.6L230.559 93.72L230.699 95.84V99H229.339ZM234.659 97.84C235.406 97.84 236.073 97.6733 236.659 97.34C237.246 96.9933 237.713 96.5133 238.059 95.9C238.406 95.2733 238.579 94.5533 238.579 93.74C238.579 92.9133 238.406 92.1933 238.059 91.58C237.713 90.9667 237.246 90.4933 236.659 90.16C236.073 89.8133 235.406 89.64 234.659 89.64C233.913 89.64 233.239 89.8133 232.639 90.16C232.053 90.4933 231.586 90.9667 231.239 91.58C230.906 92.1933 230.739 92.9133 230.739 93.74C230.739 94.5533 230.906 95.2733 231.239 95.9C231.586 96.5133 232.053 96.9933 232.639 97.34C233.239 97.6733 233.913 97.84 234.659 97.84ZM242.894 99V84.16H244.314V99H242.894ZM252.725 99.1C251.632 99.1 250.672 98.8733 249.845 98.42C249.018 97.9533 248.372 97.32 247.905 96.52C247.438 95.7067 247.205 94.78 247.205 93.74C247.205 92.7 247.425 91.78 247.865 90.98C248.318 90.18 248.932 89.5533 249.705 89.1C250.492 88.6333 251.372 88.4 252.345 88.4C253.332 88.4 254.205 88.6267 254.965 89.08C255.738 89.52 256.345 90.1467 256.785 90.96C257.225 91.76 257.445 92.6867 257.445 93.74C257.445 93.8067 257.438 93.88 257.425 93.96C257.425 94.0267 257.425 94.1 257.425 94.18H248.285V93.12H256.665L256.105 93.54C256.105 92.78 255.938 92.1067 255.605 91.52C255.285 90.92 254.845 90.4533 254.285 90.12C253.725 89.7867 253.078 89.62 252.345 89.62C251.625 89.62 250.978 89.7867 250.405 90.12C249.832 90.4533 249.385 90.92 249.065 91.52C248.745 92.12 248.585 92.8067 248.585 93.58V93.8C248.585 94.6 248.758 95.3067 249.105 95.92C249.465 96.52 249.958 96.9933 250.585 97.34C251.225 97.6733 251.952 97.84 252.765 97.84C253.405 97.84 253.998 97.7267 254.545 97.5C255.105 97.2733 255.585 96.9267 255.985 96.46L256.785 97.38C256.318 97.94 255.732 98.3667 255.025 98.66C254.332 98.9533 253.565 99.1 252.725 99.1ZM270.99 99.1C270.083 99.1 269.263 98.8933 268.53 98.48C267.797 98.0533 267.21 97.4467 266.77 96.66C266.343 95.86 266.13 94.8867 266.13 93.74C266.13 92.5933 266.343 91.6267 266.77 90.84C267.197 90.04 267.777 89.4333 268.51 89.02C269.243 88.6067 270.07 88.4 270.99 88.4C271.99 88.4 272.883 88.6267 273.67 89.08C274.47 89.52 275.097 90.1467 275.55 90.96C276.003 91.76 276.23 92.6867 276.23 93.74C276.23 94.8067 276.003 95.74 275.55 96.54C275.097 97.34 274.47 97.9667 273.67 98.42C272.883 98.8733 271.99 99.1 270.99 99.1ZM265.57 102.88V88.5H266.93V91.66L266.79 93.76L266.99 95.88V102.88H265.57ZM270.89 97.84C271.637 97.84 272.303 97.6733 272.89 97.34C273.477 96.9933 273.943 96.5133 274.29 95.9C274.637 95.2733 274.81 94.5533 274.81 93.74C274.81 92.9267 274.637 92.2133 274.29 91.6C273.943 90.9867 273.477 90.5067 272.89 90.16C272.303 89.8133 271.637 89.64 270.89 89.64C270.143 89.64 269.47 89.8133 268.87 90.16C268.283 90.5067 267.817 90.9867 267.47 91.6C267.137 92.2133 266.97 92.9267 266.97 93.74C266.97 94.5533 267.137 95.2733 267.47 95.9C267.817 96.5133 268.283 96.9933 268.87 97.34C269.47 97.6733 270.143 97.84 270.89 97.84ZM283.585 99.1C282.491 99.1 281.531 98.8733 280.705 98.42C279.878 97.9533 279.231 97.32 278.765 96.52C278.298 95.7067 278.065 94.78 278.065 93.74C278.065 92.7 278.285 91.78 278.725 90.98C279.178 90.18 279.791 89.5533 280.565 89.1C281.351 88.6333 282.231 88.4 283.205 88.4C284.191 88.4 285.065 88.6267 285.825 89.08C286.598 89.52 287.205 90.1467 287.645 90.96C288.085 91.76 288.305 92.6867 288.305 93.74C288.305 93.8067 288.298 93.88 288.285 93.96C288.285 94.0267 288.285 94.1 288.285 94.18H279.145V93.12H287.525L286.965 93.54C286.965 92.78 286.798 92.1067 286.465 91.52C286.145 90.92 285.705 90.4533 285.145 90.12C284.585 89.7867 283.938 89.62 283.205 89.62C282.485 89.62 281.838 89.7867 281.265 90.12C280.691 90.4533 280.245 90.92 279.925 91.52C279.605 92.12 279.445 92.8067 279.445 93.58V93.8C279.445 94.6 279.618 95.3067 279.965 95.92C280.325 96.52 280.818 96.9933 281.445 97.34C282.085 97.6733 282.811 97.84 283.625 97.84C284.265 97.84 284.858 97.7267 285.405 97.5C285.965 97.2733 286.445 96.9267 286.845 96.46L287.645 97.38C287.178 97.94 286.591 98.3667 285.885 98.66C285.191 98.9533 284.425 99.1 283.585 99.1ZM291.195 99V88.5H292.555V91.36L292.415 90.86C292.708 90.06 293.202 89.4533 293.895 89.04C294.588 88.6133 295.448 88.4 296.475 88.4V89.78C296.422 89.78 296.368 89.78 296.315 89.78C296.262 89.7667 296.208 89.76 296.155 89.76C295.048 89.76 294.182 90.1 293.555 90.78C292.928 91.4467 292.615 92.4 292.615 93.64V99H291.195ZM312.186 88.4C313.039 88.4 313.779 88.5667 314.406 88.9C315.046 89.22 315.539 89.7133 315.886 90.38C316.246 91.0467 316.426 91.8867 316.426 92.9V99H315.006V93.04C315.006 91.9333 314.739 91.1 314.206 90.54C313.686 89.9667 312.946 89.68 311.986 89.68C311.266 89.68 310.639 89.8333 310.106 90.14C309.586 90.4333 309.179 90.8667 308.886 91.44C308.606 92 308.466 92.68 308.466 93.48V99H307.046V93.04C307.046 91.9333 306.779 91.1 306.246 90.54C305.713 89.9667 304.966 89.68 304.006 89.68C303.299 89.68 302.679 89.8333 302.146 90.14C301.613 90.4333 301.199 90.8667 300.906 91.44C300.626 92 300.486 92.68 300.486 93.48V99H299.066V88.5H300.426V91.34L300.206 90.84C300.526 90.08 301.039 89.4867 301.746 89.06C302.466 88.62 303.313 88.4 304.286 88.4C305.313 88.4 306.186 88.66 306.906 89.18C307.626 89.6867 308.093 90.4533 308.306 91.48L307.746 91.26C308.053 90.4067 308.593 89.72 309.366 89.2C310.153 88.6667 311.093 88.4 312.186 88.4ZM320.277 99V88.5H321.697V99H320.277ZM320.997 86.18C320.704 86.18 320.457 86.08 320.257 85.88C320.057 85.68 319.957 85.44 319.957 85.16C319.957 84.88 320.057 84.6467 320.257 84.46C320.457 84.26 320.704 84.16 320.997 84.16C321.29 84.16 321.537 84.2533 321.737 84.44C321.937 84.6267 322.037 84.86 322.037 85.14C322.037 85.4333 321.937 85.68 321.737 85.88C321.55 86.08 321.304 86.18 320.997 86.18ZM328.468 99.1C327.601 99.1 326.781 98.98 326.008 98.74C325.235 98.4867 324.628 98.1733 324.188 97.8L324.828 96.68C325.255 97 325.801 97.28 326.468 97.52C327.135 97.7467 327.835 97.86 328.568 97.86C329.568 97.86 330.288 97.7067 330.728 97.4C331.168 97.08 331.388 96.66 331.388 96.14C331.388 95.7533 331.261 95.4533 331.008 95.24C330.768 95.0133 330.448 94.8467 330.048 94.74C329.648 94.62 329.201 94.52 328.708 94.44C328.215 94.36 327.721 94.2667 327.228 94.16C326.748 94.0533 326.308 93.9 325.908 93.7C325.508 93.4867 325.181 93.2 324.928 92.84C324.688 92.48 324.568 92 324.568 91.4C324.568 90.8267 324.728 90.3133 325.048 89.86C325.368 89.4067 325.835 89.0533 326.448 88.8C327.075 88.5333 327.835 88.4 328.728 88.4C329.408 88.4 330.088 88.4933 330.768 88.68C331.448 88.8533 332.008 89.0867 332.448 89.38L331.828 90.52C331.361 90.2 330.861 89.9733 330.328 89.84C329.795 89.6933 329.261 89.62 328.728 89.62C327.781 89.62 327.081 89.7867 326.628 90.12C326.188 90.44 325.968 90.8533 325.968 91.36C325.968 91.76 326.088 92.0733 326.328 92.3C326.581 92.5267 326.908 92.7067 327.308 92.84C327.721 92.96 328.168 93.06 328.648 93.14C329.141 93.22 329.628 93.32 330.108 93.44C330.601 93.5467 331.048 93.7 331.448 93.9C331.861 94.0867 332.188 94.36 332.428 94.72C332.681 95.0667 332.808 95.5267 332.808 96.1C332.808 96.7133 332.635 97.2467 332.288 97.7C331.955 98.14 331.461 98.4867 330.808 98.74C330.168 98.98 329.388 99.1 328.468 99.1ZM338.234 99.1C337.367 99.1 336.547 98.98 335.774 98.74C335 98.4867 334.394 98.1733 333.954 97.8L334.594 96.68C335.02 97 335.567 97.28 336.234 97.52C336.9 97.7467 337.6 97.86 338.334 97.86C339.334 97.86 340.054 97.7067 340.494 97.4C340.934 97.08 341.154 96.66 341.154 96.14C341.154 95.7533 341.027 95.4533 340.774 95.24C340.534 95.0133 340.214 94.8467 339.814 94.74C339.414 94.62 338.967 94.52 338.474 94.44C337.98 94.36 337.487 94.2667 336.994 94.16C336.514 94.0533 336.074 93.9 335.674 93.7C335.274 93.4867 334.947 93.2 334.694 92.84C334.454 92.48 334.334 92 334.334 91.4C334.334 90.8267 334.494 90.3133 334.814 89.86C335.134 89.4067 335.6 89.0533 336.214 88.8C336.84 88.5333 337.6 88.4 338.494 88.4C339.174 88.4 339.854 88.4933 340.534 88.68C341.214 88.8533 341.774 89.0867 342.214 89.38L341.594 90.52C341.127 90.2 340.627 89.9733 340.094 89.84C339.56 89.6933 339.027 89.62 338.494 89.62C337.547 89.62 336.847 89.7867 336.394 90.12C335.954 90.44 335.734 90.8533 335.734 91.36C335.734 91.76 335.854 92.0733 336.094 92.3C336.347 92.5267 336.674 92.7067 337.074 92.84C337.487 92.96 337.934 93.06 338.414 93.14C338.907 93.22 339.394 93.32 339.874 93.44C340.367 93.5467 340.814 93.7 341.214 93.9C341.627 94.0867 341.954 94.36 342.194 94.72C342.447 95.0667 342.574 95.5267 342.574 96.1C342.574 96.7133 342.4 97.2467 342.054 97.7C341.72 98.14 341.227 98.4867 340.574 98.74C339.934 98.98 339.154 99.1 338.234 99.1ZM345.179 99V88.5H346.599V99H345.179ZM345.899 86.18C345.606 86.18 345.359 86.08 345.159 85.88C344.959 85.68 344.859 85.44 344.859 85.16C344.859 84.88 344.959 84.6467 345.159 84.46C345.359 84.26 345.606 84.16 345.899 84.16C346.193 84.16 346.439 84.2533 346.639 84.44C346.839 84.6267 346.939 84.86 346.939 85.14C346.939 85.4333 346.839 85.68 346.639 85.88C346.453 86.08 346.206 86.18 345.899 86.18ZM354.83 99.1C353.817 99.1 352.904 98.8733 352.09 98.42C351.29 97.9533 350.657 97.32 350.19 96.52C349.724 95.7067 349.49 94.78 349.49 93.74C349.49 92.6867 349.724 91.76 350.19 90.96C350.657 90.16 351.29 89.5333 352.09 89.08C352.89 88.6267 353.804 88.4 354.83 88.4C355.87 88.4 356.79 88.6267 357.59 89.08C358.404 89.5333 359.037 90.16 359.49 90.96C359.957 91.76 360.19 92.6867 360.19 93.74C360.19 94.78 359.957 95.7067 359.49 96.52C359.037 97.32 358.404 97.9533 357.59 98.42C356.777 98.8733 355.857 99.1 354.83 99.1ZM354.83 97.84C355.59 97.84 356.264 97.6733 356.85 97.34C357.437 96.9933 357.897 96.5133 358.23 95.9C358.577 95.2733 358.75 94.5533 358.75 93.74C358.75 92.9133 358.577 92.1933 358.23 91.58C357.897 90.9667 357.437 90.4933 356.85 90.16C356.264 89.8133 355.597 89.64 354.85 89.64C354.104 89.64 353.437 89.8133 352.85 90.16C352.264 90.4933 351.797 90.9667 351.45 91.58C351.104 92.1933 350.93 92.9133 350.93 93.74C350.93 94.5533 351.104 95.2733 351.45 95.9C351.797 96.5133 352.264 96.9933 352.85 97.34C353.437 97.6733 354.097 97.84 354.83 97.84ZM368.449 88.4C369.303 88.4 370.049 88.5667 370.689 88.9C371.343 89.22 371.849 89.7133 372.209 90.38C372.583 91.0467 372.769 91.8867 372.769 92.9V99H371.349V93.04C371.349 91.9333 371.069 91.1 370.509 90.54C369.963 89.9667 369.189 89.68 368.189 89.68C367.443 89.68 366.789 89.8333 366.229 90.14C365.683 90.4333 365.256 90.8667 364.949 91.44C364.656 92 364.509 92.68 364.509 93.48V99H363.089V88.5H364.449V91.38L364.229 90.84C364.563 90.08 365.096 89.4867 365.829 89.06C366.563 88.62 367.436 88.4 368.449 88.4ZM379.425 99.1C378.558 99.1 377.738 98.98 376.965 98.74C376.192 98.4867 375.585 98.1733 375.145 97.8L375.785 96.68C376.212 97 376.758 97.28 377.425 97.52C378.092 97.7467 378.792 97.86 379.525 97.86C380.525 97.86 381.245 97.7067 381.685 97.4C382.125 97.08 382.345 96.66 382.345 96.14C382.345 95.7533 382.218 95.4533 381.965 95.24C381.725 95.0133 381.405 94.8467 381.005 94.74C380.605 94.62 380.158 94.52 379.665 94.44C379.172 94.36 378.678 94.2667 378.185 94.16C377.705 94.0533 377.265 93.9 376.865 93.7C376.465 93.4867 376.138 93.2 375.885 92.84C375.645 92.48 375.525 92 375.525 91.4C375.525 90.8267 375.685 90.3133 376.005 89.86C376.325 89.4067 376.792 89.0533 377.405 88.8C378.032 88.5333 378.792 88.4 379.685 88.4C380.365 88.4 381.045 88.4933 381.725 88.68C382.405 88.8533 382.965 89.0867 383.405 89.38L382.785 90.52C382.318 90.2 381.818 89.9733 381.285 89.84C380.752 89.6933 380.218 89.62 379.685 89.62C378.738 89.62 378.038 89.7867 377.585 90.12C377.145 90.44 376.925 90.8533 376.925 91.36C376.925 91.76 377.045 92.0733 377.285 92.3C377.538 92.5267 377.865 92.7067 378.265 92.84C378.678 92.96 379.125 93.06 379.605 93.14C380.098 93.22 380.585 93.32 381.065 93.44C381.558 93.5467 382.005 93.7 382.405 93.9C382.818 94.0867 383.145 94.36 383.385 94.72C383.638 95.0667 383.765 95.5267 383.765 96.1C383.765 96.7133 383.592 97.2467 383.245 97.7C382.912 98.14 382.418 98.4867 381.765 98.74C381.125 98.98 380.345 99.1 379.425 99.1ZM398.185 99V96.68L398.125 96.3V92.42C398.125 91.5267 397.872 90.84 397.365 90.36C396.872 89.88 396.132 89.64 395.145 89.64C394.465 89.64 393.818 89.7533 393.205 89.98C392.592 90.2067 392.072 90.5067 391.645 90.88L391.005 89.82C391.538 89.3667 392.178 89.02 392.925 88.78C393.672 88.5267 394.458 88.4 395.285 88.4C396.645 88.4 397.692 88.74 398.425 89.42C399.172 90.0867 399.545 91.1067 399.545 92.48V99H398.185ZM394.565 99.1C393.778 99.1 393.092 98.9733 392.505 98.72C391.932 98.4533 391.492 98.0933 391.185 97.64C390.878 97.1733 390.725 96.64 390.725 96.04C390.725 95.4933 390.852 95 391.105 94.56C391.372 94.1067 391.798 93.7467 392.385 93.48C392.985 93.2 393.785 93.06 394.785 93.06H398.405V94.12H394.825C393.812 94.12 393.105 94.3 392.705 94.66C392.318 95.02 392.125 95.4667 392.125 96C392.125 96.6 392.358 97.08 392.825 97.44C393.292 97.8 393.945 97.98 394.785 97.98C395.585 97.98 396.272 97.8 396.845 97.44C397.432 97.0667 397.858 96.5333 398.125 95.84L398.445 96.82C398.178 97.5133 397.712 98.0667 397.045 98.48C396.392 98.8933 395.565 99.1 394.565 99.1ZM408.762 88.4C409.615 88.4 410.362 88.5667 411.002 88.9C411.655 89.22 412.162 89.7133 412.522 90.38C412.895 91.0467 413.082 91.8867 413.082 92.9V99H411.662V93.04C411.662 91.9333 411.382 91.1 410.822 90.54C410.275 89.9667 409.502 89.68 408.502 89.68C407.755 89.68 407.102 89.8333 406.542 90.14C405.995 90.4333 405.569 90.8667 405.262 91.44C404.969 92 404.822 92.68 404.822 93.48V99H403.402V88.5H404.762V91.38L404.542 90.84C404.875 90.08 405.409 89.4867 406.142 89.06C406.875 88.62 407.749 88.4 408.762 88.4ZM421.098 99.1C420.098 99.1 419.198 98.8733 418.398 98.42C417.611 97.9667 416.991 97.34 416.538 96.54C416.084 95.7267 415.858 94.7933 415.858 93.74C415.858 92.6733 416.084 91.74 416.538 90.94C416.991 90.14 417.611 89.52 418.398 89.08C419.198 88.6267 420.098 88.4 421.098 88.4C422.018 88.4 422.838 88.6067 423.558 89.02C424.291 89.4333 424.871 90.04 425.298 90.84C425.738 91.6267 425.957 92.5933 425.957 93.74C425.957 94.8733 425.744 95.84 425.318 96.64C424.891 97.44 424.311 98.0533 423.578 98.48C422.858 98.8933 422.031 99.1 421.098 99.1ZM421.198 97.84C421.944 97.84 422.611 97.6733 423.198 97.34C423.798 96.9933 424.264 96.5133 424.598 95.9C424.944 95.2733 425.118 94.5533 425.118 93.74C425.118 92.9133 424.944 92.1933 424.598 91.58C424.264 90.9667 423.798 90.4933 423.198 90.16C422.611 89.8133 421.944 89.64 421.198 89.64C420.464 89.64 419.804 89.8133 419.218 90.16C418.631 90.4933 418.164 90.9667 417.818 91.58C417.471 92.1933 417.298 92.9133 417.298 93.74C417.298 94.5533 417.471 95.2733 417.818 95.9C418.164 96.5133 418.631 96.9933 419.218 97.34C419.804 97.6733 420.464 97.84 421.198 97.84ZM425.158 99V95.84L425.298 93.72L425.098 91.6V84.16H426.518V99H425.158ZM125.98 131V120.5H127.34V123.36L127.2 122.86C127.493 122.06 127.987 121.453 128.68 121.04C129.373 120.613 130.233 120.4 131.26 120.4V121.78C131.207 121.78 131.153 121.78 131.1 121.78C131.047 121.767 130.993 121.76 130.94 121.76C129.833 121.76 128.967 122.1 128.34 122.78C127.713 123.447 127.4 124.4 127.4 125.64V131H125.98ZM138.033 131.1C137.02 131.1 136.107 130.873 135.293 130.42C134.493 129.953 133.86 129.32 133.393 128.52C132.927 127.707 132.693 126.78 132.693 125.74C132.693 124.687 132.927 123.76 133.393 122.96C133.86 122.16 134.493 121.533 135.293 121.08C136.093 120.627 137.007 120.4 138.033 120.4C139.073 120.4 139.993 120.627 140.793 121.08C141.607 121.533 142.24 122.16 142.693 122.96C143.16 123.76 143.393 124.687 143.393 125.74C143.393 126.78 143.16 127.707 142.693 128.52C142.24 129.32 141.607 129.953 140.793 130.42C139.98 130.873 139.06 131.1 138.033 131.1ZM138.033 129.84C138.793 129.84 139.467 129.673 140.053 129.34C140.64 128.993 141.1 128.513 141.433 127.9C141.78 127.273 141.953 126.553 141.953 125.74C141.953 124.913 141.78 124.193 141.433 123.58C141.1 122.967 140.64 122.493 140.053 122.16C139.467 121.813 138.8 121.64 138.053 121.64C137.307 121.64 136.64 121.813 136.053 122.16C135.467 122.493 135 122.967 134.653 123.58C134.307 124.193 134.133 124.913 134.133 125.74C134.133 126.553 134.307 127.273 134.653 127.9C135 128.513 135.467 128.993 136.053 129.34C136.64 129.673 137.3 129.84 138.033 129.84ZM146.293 131V116.16H147.713V131H146.293ZM156.124 131.1C155.03 131.1 154.07 130.873 153.244 130.42C152.417 129.953 151.77 129.32 151.304 128.52C150.837 127.707 150.604 126.78 150.604 125.74C150.604 124.7 150.824 123.78 151.264 122.98C151.717 122.18 152.33 121.553 153.104 121.1C153.89 120.633 154.77 120.4 155.744 120.4C156.73 120.4 157.604 120.627 158.364 121.08C159.137 121.52 159.744 122.147 160.184 122.96C160.624 123.76 160.844 124.687 160.844 125.74C160.844 125.807 160.837 125.88 160.824 125.96C160.824 126.027 160.824 126.1 160.824 126.18H151.684V125.12H160.064L159.504 125.54C159.504 124.78 159.337 124.107 159.004 123.52C158.684 122.92 158.244 122.453 157.684 122.12C157.124 121.787 156.477 121.62 155.744 121.62C155.024 121.62 154.377 121.787 153.804 122.12C153.23 122.453 152.784 122.92 152.464 123.52C152.144 124.12 151.984 124.807 151.984 125.58V125.8C151.984 126.6 152.157 127.307 152.504 127.92C152.864 128.52 153.357 128.993 153.984 129.34C154.624 129.673 155.35 129.84 156.164 129.84C156.804 129.84 157.397 129.727 157.944 129.5C158.504 129.273 158.984 128.927 159.384 128.46L160.184 129.38C159.717 129.94 159.13 130.367 158.424 130.66C157.73 130.953 156.964 131.1 156.124 131.1ZM163.149 126.2V124.96H168.389V126.2H163.149ZM176.986 131.1C176.066 131.1 175.239 130.893 174.506 130.48C173.773 130.053 173.193 129.44 172.766 128.64C172.339 127.84 172.126 126.873 172.126 125.74C172.126 124.593 172.339 123.627 172.766 122.84C173.206 122.04 173.793 121.433 174.526 121.02C175.259 120.607 176.079 120.4 176.986 120.4C177.986 120.4 178.879 120.627 179.666 121.08C180.466 121.52 181.093 122.14 181.546 122.94C181.999 123.74 182.226 124.673 182.226 125.74C182.226 126.793 181.999 127.727 181.546 128.54C181.093 129.34 180.466 129.967 179.666 130.42C178.879 130.873 177.986 131.1 176.986 131.1ZM171.566 131V116.16H172.986V123.6L172.786 125.72L172.926 127.84V131H171.566ZM176.886 129.84C177.633 129.84 178.299 129.673 178.886 129.34C179.473 128.993 179.939 128.513 180.286 127.9C180.633 127.273 180.806 126.553 180.806 125.74C180.806 124.913 180.633 124.193 180.286 123.58C179.939 122.967 179.473 122.493 178.886 122.16C178.299 121.813 177.633 121.64 176.886 121.64C176.139 121.64 175.466 121.813 174.866 122.16C174.279 122.493 173.813 122.967 173.466 123.58C173.133 124.193 172.966 124.913 172.966 125.74C172.966 126.553 173.133 127.273 173.466 127.9C173.813 128.513 174.279 128.993 174.866 129.34C175.466 129.673 176.139 129.84 176.886 129.84ZM191.642 131V128.68L191.582 128.3V124.42C191.582 123.527 191.329 122.84 190.822 122.36C190.329 121.88 189.589 121.64 188.602 121.64C187.922 121.64 187.275 121.753 186.662 121.98C186.049 122.207 185.529 122.507 185.102 122.88L184.462 121.82C184.995 121.367 185.635 121.02 186.382 120.78C187.129 120.527 187.915 120.4 188.742 120.4C190.102 120.4 191.149 120.74 191.882 121.42C192.629 122.087 193.002 123.107 193.002 124.48V131H191.642ZM188.022 131.1C187.235 131.1 186.549 130.973 185.962 130.72C185.389 130.453 184.949 130.093 184.642 129.64C184.335 129.173 184.182 128.64 184.182 128.04C184.182 127.493 184.309 127 184.562 126.56C184.829 126.107 185.255 125.747 185.842 125.48C186.442 125.2 187.242 125.06 188.242 125.06H191.862V126.12H188.282C187.269 126.12 186.562 126.3 186.162 126.66C185.775 127.02 185.582 127.467 185.582 128C185.582 128.6 185.815 129.08 186.282 129.44C186.749 129.8 187.402 129.98 188.242 129.98C189.042 129.98 189.729 129.8 190.302 129.44C190.889 129.067 191.315 128.533 191.582 127.84L191.902 128.82C191.635 129.513 191.169 130.067 190.502 130.48C189.849 130.893 189.022 131.1 188.022 131.1ZM199.679 131.1C198.812 131.1 197.992 130.98 197.219 130.74C196.446 130.487 195.839 130.173 195.399 129.8L196.039 128.68C196.466 129 197.012 129.28 197.679 129.52C198.346 129.747 199.046 129.86 199.779 129.86C200.779 129.86 201.499 129.707 201.939 129.4C202.379 129.08 202.599 128.66 202.599 128.14C202.599 127.753 202.472 127.453 202.219 127.24C201.979 127.013 201.659 126.847 201.259 126.74C200.859 126.62 200.412 126.52 199.919 126.44C199.426 126.36 198.932 126.267 198.439 126.16C197.959 126.053 197.519 125.9 197.119 125.7C196.719 125.487 196.392 125.2 196.139 124.84C195.899 124.48 195.779 124 195.779 123.4C195.779 122.827 195.939 122.313 196.259 121.86C196.579 121.407 197.046 121.053 197.659 120.8C198.286 120.533 199.046 120.4 199.939 120.4C200.619 120.4 201.299 120.493 201.979 120.68C202.659 120.853 203.219 121.087 203.659 121.38L203.039 122.52C202.572 122.2 202.072 121.973 201.539 121.84C201.006 121.693 200.472 121.62 199.939 121.62C198.992 121.62 198.292 121.787 197.839 122.12C197.399 122.44 197.179 122.853 197.179 123.36C197.179 123.76 197.299 124.073 197.539 124.3C197.792 124.527 198.119 124.707 198.519 124.84C198.932 124.96 199.379 125.06 199.859 125.14C200.352 125.22 200.839 125.32 201.319 125.44C201.812 125.547 202.259 125.7 202.659 125.9C203.072 126.087 203.399 126.36 203.639 126.72C203.892 127.067 204.019 127.527 204.019 128.1C204.019 128.713 203.846 129.247 203.499 129.7C203.166 130.14 202.672 130.487 202.019 130.74C201.379 130.98 200.599 131.1 199.679 131.1ZM211.085 131.1C209.991 131.1 209.031 130.873 208.205 130.42C207.378 129.953 206.731 129.32 206.265 128.52C205.798 127.707 205.565 126.78 205.565 125.74C205.565 124.7 205.785 123.78 206.225 122.98C206.678 122.18 207.291 121.553 208.065 121.1C208.851 120.633 209.731 120.4 210.705 120.4C211.691 120.4 212.565 120.627 213.325 121.08C214.098 121.52 214.705 122.147 215.145 122.96C215.585 123.76 215.805 124.687 215.805 125.74C215.805 125.807 215.798 125.88 215.785 125.96C215.785 126.027 215.785 126.1 215.785 126.18H206.645V125.12H215.025L214.465 125.54C214.465 124.78 214.298 124.107 213.965 123.52C213.645 122.92 213.205 122.453 212.645 122.12C212.085 121.787 211.438 121.62 210.705 121.62C209.985 121.62 209.338 121.787 208.765 122.12C208.191 122.453 207.745 122.92 207.425 123.52C207.105 124.12 206.945 124.807 206.945 125.58V125.8C206.945 126.6 207.118 127.307 207.465 127.92C207.825 128.52 208.318 128.993 208.945 129.34C209.585 129.673 210.311 129.84 211.125 129.84C211.765 129.84 212.358 129.727 212.905 129.5C213.465 129.273 213.945 128.927 214.345 128.46L215.145 129.38C214.678 129.94 214.091 130.367 213.385 130.66C212.691 130.953 211.925 131.1 211.085 131.1ZM222.875 131.1C221.875 131.1 220.975 130.873 220.175 130.42C219.388 129.967 218.768 129.34 218.315 128.54C217.862 127.727 217.635 126.793 217.635 125.74C217.635 124.673 217.862 123.74 218.315 122.94C218.768 122.14 219.388 121.52 220.175 121.08C220.975 120.627 221.875 120.4 222.875 120.4C223.795 120.4 224.615 120.607 225.335 121.02C226.068 121.433 226.648 122.04 227.075 122.84C227.515 123.627 227.735 124.593 227.735 125.74C227.735 126.873 227.522 127.84 227.095 128.64C226.668 129.44 226.088 130.053 225.355 130.48C224.635 130.893 223.808 131.1 222.875 131.1ZM222.975 129.84C223.722 129.84 224.388 129.673 224.975 129.34C225.575 128.993 226.042 128.513 226.375 127.9C226.722 127.273 226.895 126.553 226.895 125.74C226.895 124.913 226.722 124.193 226.375 123.58C226.042 122.967 225.575 122.493 224.975 122.16C224.388 121.813 223.722 121.64 222.975 121.64C222.242 121.64 221.582 121.813 220.995 122.16C220.408 122.493 219.942 122.967 219.595 123.58C219.248 124.193 219.075 124.913 219.075 125.74C219.075 126.553 219.248 127.273 219.595 127.9C219.942 128.513 220.408 128.993 220.995 129.34C221.582 129.673 222.242 129.84 222.975 129.84ZM226.935 131V127.84L227.075 125.72L226.875 123.6V116.16H228.295V131H226.935ZM244.064 131V128.68L244.004 128.3V124.42C244.004 123.527 243.751 122.84 243.244 122.36C242.751 121.88 242.011 121.64 241.024 121.64C240.344 121.64 239.697 121.753 239.084 121.98C238.471 122.207 237.951 122.507 237.524 122.88L236.884 121.82C237.417 121.367 238.057 121.02 238.804 120.78C239.551 120.527 240.337 120.4 241.164 120.4C242.524 120.4 243.571 120.74 244.304 121.42C245.051 122.087 245.424 123.107 245.424 124.48V131H244.064ZM240.444 131.1C239.657 131.1 238.971 130.973 238.384 130.72C237.811 130.453 237.371 130.093 237.064 129.64C236.757 129.173 236.604 128.64 236.604 128.04C236.604 127.493 236.731 127 236.984 126.56C237.251 126.107 237.677 125.747 238.264 125.48C238.864 125.2 239.664 125.06 240.664 125.06H244.284V126.12H240.704C239.691 126.12 238.984 126.3 238.584 126.66C238.197 127.02 238.004 127.467 238.004 128C238.004 128.6 238.237 129.08 238.704 129.44C239.171 129.8 239.824 129.98 240.664 129.98C241.464 129.98 242.151 129.8 242.724 129.44C243.311 129.067 243.737 128.533 244.004 127.84L244.324 128.82C244.057 129.513 243.591 130.067 242.924 130.48C242.271 130.893 241.444 131.1 240.444 131.1ZM253.641 131.1C252.601 131.1 251.667 130.873 250.841 130.42C250.027 129.953 249.387 129.32 248.921 128.52C248.454 127.707 248.221 126.78 248.221 125.74C248.221 124.687 248.454 123.76 248.921 122.96C249.387 122.16 250.027 121.533 250.841 121.08C251.667 120.627 252.601 120.4 253.641 120.4C254.534 120.4 255.341 120.573 256.061 120.92C256.781 121.267 257.347 121.787 257.761 122.48L256.701 123.2C256.341 122.667 255.894 122.273 255.361 122.02C254.827 121.767 254.247 121.64 253.621 121.64C252.874 121.64 252.201 121.813 251.601 122.16C251.001 122.493 250.527 122.967 250.181 123.58C249.834 124.193 249.661 124.913 249.661 125.74C249.661 126.567 249.834 127.287 250.181 127.9C250.527 128.513 251.001 128.993 251.601 129.34C252.201 129.673 252.874 129.84 253.621 129.84C254.247 129.84 254.827 129.713 255.361 129.46C255.894 129.207 256.341 128.82 256.701 128.3L257.761 129.02C257.347 129.7 256.781 130.22 256.061 130.58C255.341 130.927 254.534 131.1 253.641 131.1ZM264.735 131.1C263.695 131.1 262.761 130.873 261.935 130.42C261.121 129.953 260.481 129.32 260.015 128.52C259.548 127.707 259.315 126.78 259.315 125.74C259.315 124.687 259.548 123.76 260.015 122.96C260.481 122.16 261.121 121.533 261.935 121.08C262.761 120.627 263.695 120.4 264.735 120.4C265.628 120.4 266.435 120.573 267.155 120.92C267.875 121.267 268.441 121.787 268.855 122.48L267.795 123.2C267.435 122.667 266.988 122.273 266.455 122.02C265.921 121.767 265.341 121.64 264.715 121.64C263.968 121.64 263.295 121.813 262.695 122.16C262.095 122.493 261.621 122.967 261.275 123.58C260.928 124.193 260.755 124.913 260.755 125.74C260.755 126.567 260.928 127.287 261.275 127.9C261.621 128.513 262.095 128.993 262.695 129.34C263.295 129.673 263.968 129.84 264.715 129.84C265.341 129.84 265.921 129.713 266.455 129.46C266.988 129.207 267.435 128.82 267.795 128.3L268.855 129.02C268.441 129.7 267.875 130.22 267.155 130.58C266.435 130.927 265.628 131.1 264.735 131.1ZM275.928 131.1C274.835 131.1 273.875 130.873 273.048 130.42C272.222 129.953 271.575 129.32 271.108 128.52C270.642 127.707 270.408 126.78 270.408 125.74C270.408 124.7 270.628 123.78 271.068 122.98C271.522 122.18 272.135 121.553 272.908 121.1C273.695 120.633 274.575 120.4 275.548 120.4C276.535 120.4 277.408 120.627 278.168 121.08C278.942 121.52 279.548 122.147 279.988 122.96C280.428 123.76 280.648 124.687 280.648 125.74C280.648 125.807 280.642 125.88 280.628 125.96C280.628 126.027 280.628 126.1 280.628 126.18H271.488V125.12H279.868L279.308 125.54C279.308 124.78 279.142 124.107 278.808 123.52C278.488 122.92 278.048 122.453 277.488 122.12C276.928 121.787 276.282 121.62 275.548 121.62C274.828 121.62 274.182 121.787 273.608 122.12C273.035 122.453 272.588 122.92 272.268 123.52C271.948 124.12 271.788 124.807 271.788 125.58V125.8C271.788 126.6 271.962 127.307 272.308 127.92C272.668 128.52 273.162 128.993 273.788 129.34C274.428 129.673 275.155 129.84 275.968 129.84C276.608 129.84 277.202 129.727 277.748 129.5C278.308 129.273 278.788 128.927 279.188 128.46L279.988 129.38C279.522 129.94 278.935 130.367 278.228 130.66C277.535 130.953 276.768 131.1 275.928 131.1ZM286.359 131.1C285.492 131.1 284.672 130.98 283.899 130.74C283.125 130.487 282.519 130.173 282.079 129.8L282.719 128.68C283.145 129 283.692 129.28 284.359 129.52C285.025 129.747 285.725 129.86 286.459 129.86C287.459 129.86 288.179 129.707 288.619 129.4C289.059 129.08 289.279 128.66 289.279 128.14C289.279 127.753 289.152 127.453 288.899 127.24C288.659 127.013 288.339 126.847 287.939 126.74C287.539 126.62 287.092 126.52 286.599 126.44C286.105 126.36 285.612 126.267 285.119 126.16C284.639 126.053 284.199 125.9 283.799 125.7C283.399 125.487 283.072 125.2 282.819 124.84C282.579 124.48 282.459 124 282.459 123.4C282.459 122.827 282.619 122.313 282.939 121.86C283.259 121.407 283.725 121.053 284.339 120.8C284.965 120.533 285.725 120.4 286.619 120.4C287.299 120.4 287.979 120.493 288.659 120.68C289.339 120.853 289.899 121.087 290.339 121.38L289.719 122.52C289.252 122.2 288.752 121.973 288.219 121.84C287.685 121.693 287.152 121.62 286.619 121.62C285.672 121.62 284.972 121.787 284.519 122.12C284.079 122.44 283.859 122.853 283.859 123.36C283.859 123.76 283.979 124.073 284.219 124.3C284.472 124.527 284.799 124.707 285.199 124.84C285.612 124.96 286.059 125.06 286.539 125.14C287.032 125.22 287.519 125.32 287.999 125.44C288.492 125.547 288.939 125.7 289.339 125.9C289.752 126.087 290.079 126.36 290.319 126.72C290.572 127.067 290.699 127.527 290.699 128.1C290.699 128.713 290.525 129.247 290.179 129.7C289.845 130.14 289.352 130.487 288.699 130.74C288.059 130.98 287.279 131.1 286.359 131.1ZM296.124 131.1C295.258 131.1 294.438 130.98 293.664 130.74C292.891 130.487 292.284 130.173 291.844 129.8L292.484 128.68C292.911 129 293.458 129.28 294.124 129.52C294.791 129.747 295.491 129.86 296.224 129.86C297.224 129.86 297.944 129.707 298.384 129.4C298.824 129.08 299.044 128.66 299.044 128.14C299.044 127.753 298.918 127.453 298.664 127.24C298.424 127.013 298.104 126.847 297.704 126.74C297.304 126.62 296.858 126.52 296.364 126.44C295.871 126.36 295.378 126.267 294.884 126.16C294.404 126.053 293.964 125.9 293.564 125.7C293.164 125.487 292.838 125.2 292.584 124.84C292.344 124.48 292.224 124 292.224 123.4C292.224 122.827 292.384 122.313 292.704 121.86C293.024 121.407 293.491 121.053 294.104 120.8C294.731 120.533 295.491 120.4 296.384 120.4C297.064 120.4 297.744 120.493 298.424 120.68C299.104 120.853 299.664 121.087 300.104 121.38L299.484 122.52C299.018 122.2 298.518 121.973 297.984 121.84C297.451 121.693 296.918 121.62 296.384 121.62C295.438 121.62 294.738 121.787 294.284 122.12C293.844 122.44 293.624 122.853 293.624 123.36C293.624 123.76 293.744 124.073 293.984 124.3C294.238 124.527 294.564 124.707 294.964 124.84C295.378 124.96 295.824 125.06 296.304 125.14C296.798 125.22 297.284 125.32 297.764 125.44C298.258 125.547 298.704 125.7 299.104 125.9C299.518 126.087 299.844 126.36 300.084 126.72C300.338 127.067 300.464 127.527 300.464 128.1C300.464 128.713 300.291 129.247 299.944 129.7C299.611 130.14 299.118 130.487 298.464 130.74C297.824 130.98 297.044 131.1 296.124 131.1ZM303.21 131.1C302.917 131.1 302.663 130.993 302.45 130.78C302.25 130.567 302.15 130.307 302.15 130C302.15 129.68 302.25 129.42 302.45 129.22C302.663 129.02 302.917 128.92 303.21 128.92C303.503 128.92 303.75 129.02 303.95 129.22C304.163 129.42 304.27 129.68 304.27 130C304.27 130.307 304.163 130.567 303.95 130.78C303.75 130.993 303.503 131.1 303.21 131.1Z" fill="#333333"/>
<rect width="100" height="100" rx="6" fill="#F0F0F0"/>
<path d="M18 66V61.8C18 59.8889 18.9778 58.3333 20.9333 57.1333C22.8889 55.9333 25.4667 55.3333 28.6667 55.3333C29.2444 55.3333 29.8 55.3444 30.3333 55.3667C30.8667 55.3889 31.3778 55.4444 31.8667 55.5333C31.2444 56.4667 30.7778 57.4444 30.4667 58.4667C30.1556 59.4889 30 60.5556 30 61.6667V66H18ZM34 66V61.6667C34 60.2444 34.3889 58.9444 35.1667 57.7667C35.9444 56.5889 37.0444 55.5556 38.4667 54.6667C39.8889 53.7778 41.5889 53.1111 43.5667 52.6667C45.5444 52.2222 47.6889 52 50 52C52.3556 52 54.5222 52.2222 56.5 52.6667C58.4778 53.1111 60.1778 53.7778 61.6 54.6667C63.0222 55.5556 64.1111 56.5889 64.8667 57.7667C65.6222 58.9444 66 60.2444 66 61.6667V66H34ZM70 66V61.6667C70 60.5111 69.8556 59.4222 69.5667 58.4C69.2778 57.3778 68.8444 56.4222 68.2667 55.5333C68.7556 55.4444 69.2556 55.3889 69.7667 55.3667C70.2778 55.3444 70.8 55.3333 71.3333 55.3333C74.5333 55.3333 77.1111 55.9222 79.0667 57.1C81.0222 58.2778 82 59.8444 82 61.8V66H70ZM39.6667 60.6667H60.4C59.9556 59.7778 58.7222 59 56.7 58.3333C54.6778 57.6667 52.4444 57.3333 50 57.3333C47.5556 57.3333 45.3222 57.6667 43.3 58.3333C41.2778 59 40.0667 59.7778 39.6667 60.6667ZM28.6667 52.6667C27.2 52.6667 25.9444 52.1444 24.9 51.1C23.8556 50.0556 23.3333 48.8 23.3333 47.3333C23.3333 45.8222 23.8556 44.5556 24.9 43.5333C25.9444 42.5111 27.2 42 28.6667 42C30.1778 42 31.4444 42.5111 32.4667 43.5333C33.4889 44.5556 34 45.8222 34 47.3333C34 48.8 33.4889 50.0556 32.4667 51.1C31.4444 52.1444 30.1778 52.6667 28.6667 52.6667ZM71.3333 52.6667C69.8667 52.6667 68.6111 52.1444 67.5667 51.1C66.5222 50.0556 66 48.8 66 47.3333C66 45.8222 66.5222 44.5556 67.5667 43.5333C68.6111 42.5111 69.8667 42 71.3333 42C72.8444 42 74.1111 42.5111 75.1333 43.5333C76.1556 44.5556 76.6667 45.8222 76.6667 47.3333C76.6667 48.8 76.1556 50.0556 75.1333 51.1C74.1111 52.1444 72.8444 52.6667 71.3333 52.6667ZM50 50C47.7778 50 45.8889 49.2222 44.3333 47.6667C42.7778 46.1111 42 44.2222 42 42C42 39.7333 42.7778 37.8333 44.3333 36.3C45.8889 34.7667 47.7778 34 50 34C52.2667 34 54.1667 34.7667 55.7 36.3C57.2333 37.8333 58 39.7333 58 42C58 44.2222 57.2333 46.1111 55.7 47.6667C54.1667 49.2222 52.2667 50 50 50ZM50 44.6667C50.7556 44.6667 51.3889 44.4111 51.9 43.9C52.4111 43.3889 52.6667 42.7556 52.6667 42C52.6667 41.2444 52.4111 40.6111 51.9 40.1C51.3889 39.5889 50.7556 39.3333 50 39.3333C49.2444 39.3333 48.6111 39.5889 48.1 40.1C47.5889 40.6111 47.3333 41.2444 47.3333 42C47.3333 42.7556 47.5889 43.3889 48.1 43.9C48.6111 44.4111 49.2444 44.6667 50 44.6667Z" fill="#001EF4"/>
</svg>
