<svg width="100" height="100" viewBox="0 0 100 100" fill="none" xmlns="http://www.w3.org/2000/svg">
<path d="M20.6667 74V60.6667H26V68.6667H34V74H20.6667ZM66 74V68.6667H74V60.6667H79.3334V74H66ZM28.6667 66V34H34V66H28.6667ZM36.6667 66V34H39.3334V66H36.6667ZM44.6667 66V34H50V66H44.6667ZM52.6667 66V34H60.6667V66H52.6667ZM63.3334 66V34H66V66H63.3334ZM68.6667 66V34H71.3334V66H68.6667ZM20.6667 39.3333V26H34V31.3333H26V39.3333H20.6667ZM74 39.3333V31.3333H66V26H79.3334V39.3333H74Z" fill="#001EF4"/>
</svg>
