<svg width="100" height="100" viewBox="0 0 100 100" fill="none" xmlns="http://www.w3.org/2000/svg">
<path d="M18 66V61.8C18 59.8889 18.9778 58.3333 20.9333 57.1333C22.8889 55.9333 25.4667 55.3333 28.6667 55.3333C29.2444 55.3333 29.8 55.3444 30.3333 55.3667C30.8667 55.3889 31.3778 55.4444 31.8667 55.5333C31.2444 56.4667 30.7778 57.4444 30.4667 58.4667C30.1556 59.4889 30 60.5556 30 61.6667V66H18ZM34 66V61.6667C34 60.2444 34.3889 58.9444 35.1667 57.7667C35.9444 56.5889 37.0444 55.5556 38.4667 54.6667C39.8889 53.7778 41.5889 53.1111 43.5667 52.6667C45.5444 52.2222 47.6889 52 50 52C52.3556 52 54.5222 52.2222 56.5 52.6667C58.4778 53.1111 60.1778 53.7778 61.6 54.6667C63.0222 55.5556 64.1111 56.5889 64.8667 57.7667C65.6222 58.9444 66 60.2444 66 61.6667V66H34ZM70 66V61.6667C70 60.5111 69.8556 59.4222 69.5667 58.4C69.2778 57.3778 68.8444 56.4222 68.2667 55.5333C68.7556 55.4444 69.2556 55.3889 69.7667 55.3667C70.2778 55.3444 70.8 55.3333 71.3333 55.3333C74.5333 55.3333 77.1111 55.9222 79.0667 57.1C81.0222 58.2778 82 59.8444 82 61.8V66H70ZM39.6667 60.6667H60.4C59.9556 59.7778 58.7222 59 56.7 58.3333C54.6778 57.6667 52.4444 57.3333 50 57.3333C47.5556 57.3333 45.3222 57.6667 43.3 58.3333C41.2778 59 40.0667 59.7778 39.6667 60.6667ZM28.6667 52.6667C27.2 52.6667 25.9444 52.1444 24.9 51.1C23.8556 50.0556 23.3333 48.8 23.3333 47.3333C23.3333 45.8222 23.8556 44.5556 24.9 43.5333C25.9444 42.5111 27.2 42 28.6667 42C30.1778 42 31.4444 42.5111 32.4667 43.5333C33.4889 44.5556 34 45.8222 34 47.3333C34 48.8 33.4889 50.0556 32.4667 51.1C31.4444 52.1444 30.1778 52.6667 28.6667 52.6667ZM71.3333 52.6667C69.8667 52.6667 68.6111 52.1444 67.5667 51.1C66.5222 50.0556 66 48.8 66 47.3333C66 45.8222 66.5222 44.5556 67.5667 43.5333C68.6111 42.5111 69.8667 42 71.3333 42C72.8444 42 74.1111 42.5111 75.1333 43.5333C76.1556 44.5556 76.6667 45.8222 76.6667 47.3333C76.6667 48.8 76.1556 50.0556 75.1333 51.1C74.1111 52.1444 72.8444 52.6667 71.3333 52.6667ZM50 50C47.7778 50 45.8889 49.2222 44.3333 47.6667C42.7778 46.1111 42 44.2222 42 42C42 39.7333 42.7778 37.8333 44.3333 36.3C45.8889 34.7667 47.7778 34 50 34C52.2667 34 54.1667 34.7667 55.7 36.3C57.2333 37.8333 58 39.7333 58 42C58 44.2222 57.2333 46.1111 55.7 47.6667C54.1667 49.2222 52.2667 50 50 50ZM50 44.6667C50.7556 44.6667 51.3889 44.4111 51.9 43.9C52.4111 43.3889 52.6667 42.7556 52.6667 42C52.6667 41.2444 52.4111 40.6111 51.9 40.1C51.3889 39.5889 50.7556 39.3333 50 39.3333C49.2444 39.3333 48.6111 39.5889 48.1 40.1C47.5889 40.6111 47.3333 41.2444 47.3333 42C47.3333 42.7556 47.5889 43.3889 48.1 43.9C48.6111 44.4111 49.2444 44.6667 50 44.6667Z" fill="#001EF4"/>
</svg>
