<svg width="450" height="140" viewBox="0 0 450 140" fill="none" xmlns="http://www.w3.org/2000/svg">
<path d="M123.84 31L133.92 8.6H138.016L148.128 31H143.776L135.104 10.808H136.768L128.128 31H123.84ZM128.48 25.816L129.6 22.552H141.696L142.816 25.816H128.48ZM157.669 31.224C156.026 31.224 154.543 30.8613 153.221 30.136C151.919 29.3893 150.895 28.3653 150.149 27.064C149.402 25.7627 149.029 24.2267 149.029 22.456C149.029 20.6853 149.402 19.1493 150.149 17.848C150.895 16.5467 151.919 15.5333 153.221 14.808C154.543 14.0827 156.026 13.72 157.669 13.72C159.098 13.72 160.378 14.04 161.509 14.68C162.639 15.2987 163.535 16.248 164.197 17.528C164.858 18.808 165.189 20.4507 165.189 22.456C165.189 24.44 164.869 26.0827 164.229 27.384C163.589 28.664 162.703 29.624 161.573 30.264C160.442 30.904 159.141 31.224 157.669 31.224ZM158.149 27.8C159.109 27.8 159.962 27.5867 160.709 27.16C161.477 26.7333 162.085 26.1147 162.533 25.304C163.002 24.4933 163.237 23.544 163.237 22.456C163.237 21.3467 163.002 20.3973 162.533 19.608C162.085 18.7973 161.477 18.1787 160.709 17.752C159.962 17.3253 159.109 17.112 158.149 17.112C157.189 17.112 156.325 17.3253 155.557 17.752C154.81 18.1787 154.202 18.7973 153.733 19.608C153.285 20.3973 153.061 21.3467 153.061 22.456C153.061 23.544 153.285 24.4933 153.733 25.304C154.202 26.1147 154.81 26.7333 155.557 27.16C156.325 27.5867 157.189 27.8 158.149 27.8ZM163.333 31V26.968L163.493 22.424L163.173 17.88V7.256H167.141V31H163.333ZM176.949 31L169.621 13.912H173.781L180.085 28.984H178.037L184.565 13.912H188.405L181.077 31H176.949ZM200.902 31V27.544L200.678 26.808V20.76C200.678 19.5867 200.326 18.68 199.622 18.04C198.918 17.3787 197.851 17.048 196.422 17.048C195.462 17.048 194.513 17.1973 193.574 17.496C192.657 17.7947 191.878 18.2107 191.238 18.744L189.67 15.832C190.587 15.128 191.675 14.6053 192.934 14.264C194.214 13.9013 195.537 13.72 196.902 13.72C199.377 13.72 201.286 14.3173 202.63 15.512C203.995 16.6853 204.678 18.5093 204.678 20.984V31H200.902ZM195.526 31.224C194.246 31.224 193.126 31.0107 192.166 30.584C191.206 30.136 190.459 29.528 189.926 28.76C189.414 27.9707 189.158 27.0853 189.158 26.104C189.158 25.144 189.382 24.28 189.83 23.512C190.299 22.744 191.057 22.136 192.102 21.688C193.147 21.24 194.534 21.016 196.262 21.016H201.222V23.672H196.55C195.185 23.672 194.267 23.896 193.798 24.344C193.329 24.7707 193.094 25.304 193.094 25.944C193.094 26.6693 193.382 27.2453 193.958 27.672C194.534 28.0987 195.334 28.312 196.358 28.312C197.339 28.312 198.214 28.088 198.982 27.64C199.771 27.192 200.337 26.5307 200.678 25.656L201.35 28.056C200.966 29.0587 200.273 29.8373 199.27 30.392C198.289 30.9467 197.041 31.224 195.526 31.224ZM219.508 13.72C220.873 13.72 222.089 13.9867 223.156 14.52C224.244 15.0533 225.097 15.8747 225.716 16.984C226.334 18.072 226.644 19.48 226.644 21.208V31H222.644V21.72C222.644 20.2053 222.281 19.0747 221.556 18.328C220.852 17.5813 219.86 17.208 218.58 17.208C217.641 17.208 216.809 17.4 216.084 17.784C215.358 18.168 214.793 18.744 214.388 19.512C214.004 20.2587 213.812 21.208 213.812 22.36V31H209.812V13.912H213.62V18.52L212.948 17.112C213.545 16.024 214.409 15.192 215.54 14.616C216.692 14.0187 218.014 13.72 219.508 13.72ZM239.589 31.224C237.797 31.224 236.197 30.8507 234.789 30.104C233.402 29.336 232.314 28.2907 231.525 26.968C230.736 25.6453 230.341 24.1413 230.341 22.456C230.341 20.7493 230.736 19.2453 231.525 17.944C232.314 16.6213 233.402 15.5867 234.789 14.84C236.197 14.0933 237.797 13.72 239.589 13.72C241.253 13.72 242.714 14.0613 243.973 14.744C245.253 15.4053 246.224 16.3867 246.885 17.688L243.813 19.48C243.301 18.6693 242.672 18.072 241.925 17.688C241.2 17.304 240.41 17.112 239.557 17.112C238.576 17.112 237.69 17.3253 236.901 17.752C236.112 18.1787 235.493 18.7973 235.045 19.608C234.597 20.3973 234.373 21.3467 234.373 22.456C234.373 23.5653 234.597 24.5253 235.045 25.336C235.493 26.1253 236.112 26.7333 236.901 27.16C237.69 27.5867 238.576 27.8 239.557 27.8C240.41 27.8 241.2 27.608 241.925 27.224C242.672 26.84 243.301 26.2427 243.813 25.432L246.885 27.224C246.224 28.504 245.253 29.496 243.973 30.2C242.714 30.8827 241.253 31.224 239.589 31.224ZM258.125 31.224C256.226 31.224 254.562 30.8507 253.133 30.104C251.725 29.336 250.626 28.2907 249.837 26.968C249.069 25.6453 248.685 24.1413 248.685 22.456C248.685 20.7493 249.058 19.2453 249.805 17.944C250.573 16.6213 251.618 15.5867 252.941 14.84C254.285 14.0933 255.81 13.72 257.517 13.72C259.181 13.72 260.663 14.0827 261.965 14.808C263.266 15.5333 264.29 16.5573 265.037 17.88C265.783 19.2027 266.157 20.76 266.157 22.552C266.157 22.7227 266.146 22.9147 266.125 23.128C266.125 23.3413 266.114 23.544 266.093 23.736H251.853V21.08H263.981L262.413 21.912C262.434 20.9307 262.231 20.0667 261.805 19.32C261.378 18.5733 260.791 17.9867 260.045 17.56C259.319 17.1333 258.477 16.92 257.517 16.92C256.535 16.92 255.671 17.1333 254.925 17.56C254.199 17.9867 253.623 18.584 253.197 19.352C252.791 20.0987 252.589 20.984 252.589 22.008V22.648C252.589 23.672 252.823 24.5787 253.293 25.368C253.762 26.1573 254.423 26.7653 255.277 27.192C256.13 27.6187 257.111 27.832 258.221 27.832C259.181 27.832 260.045 27.6827 260.813 27.384C261.581 27.0853 262.263 26.616 262.861 25.976L265.005 28.44C264.237 29.336 263.266 30.0293 262.093 30.52C260.941 30.9893 259.618 31.224 258.125 31.224ZM277.231 31.224C275.588 31.224 274.106 30.8613 272.783 30.136C271.482 29.3893 270.458 28.3653 269.711 27.064C268.964 25.7627 268.591 24.2267 268.591 22.456C268.591 20.6853 268.964 19.1493 269.711 17.848C270.458 16.5467 271.482 15.5333 272.783 14.808C274.106 14.0827 275.588 13.72 277.231 13.72C278.66 13.72 279.94 14.04 281.071 14.68C282.202 15.2987 283.098 16.248 283.759 17.528C284.42 18.808 284.751 20.4507 284.751 22.456C284.751 24.44 284.431 26.0827 283.791 27.384C283.151 28.664 282.266 29.624 281.135 30.264C280.004 30.904 278.703 31.224 277.231 31.224ZM277.711 27.8C278.671 27.8 279.524 27.5867 280.271 27.16C281.039 26.7333 281.647 26.1147 282.095 25.304C282.564 24.4933 282.799 23.544 282.799 22.456C282.799 21.3467 282.564 20.3973 282.095 19.608C281.647 18.7973 281.039 18.1787 280.271 17.752C279.524 17.3253 278.671 17.112 277.711 17.112C276.751 17.112 275.887 17.3253 275.119 17.752C274.372 18.1787 273.764 18.7973 273.295 19.608C272.847 20.3973 272.623 21.3467 272.623 22.456C272.623 23.544 272.847 24.4933 273.295 25.304C273.764 26.1147 274.372 26.7333 275.119 27.16C275.887 27.5867 276.751 27.8 277.711 27.8ZM282.895 31V26.968L283.055 22.424L282.735 17.88V7.256H286.703V31H282.895ZM298.027 31L308.108 8.6H312.204L322.316 31H317.964L309.292 10.808H310.956L302.316 31H298.027ZM302.668 25.816L303.788 22.552H315.884L317.003 25.816H302.668ZM334.476 13.72C335.842 13.72 337.058 13.9867 338.124 14.52C339.212 15.0533 340.066 15.8747 340.684 16.984C341.303 18.072 341.612 19.48 341.612 21.208V31H337.612V21.72C337.612 20.2053 337.25 19.0747 336.524 18.328C335.82 17.5813 334.828 17.208 333.548 17.208C332.61 17.208 331.778 17.4 331.052 17.784C330.327 18.168 329.762 18.744 329.356 19.512C328.972 20.2587 328.78 21.208 328.78 22.36V31H324.78V13.912H328.588V18.52L327.916 17.112C328.514 16.024 329.378 15.192 330.508 14.616C331.66 14.0187 332.983 13.72 334.476 13.72ZM357.215 31V27.544L356.991 26.808V20.76C356.991 19.5867 356.639 18.68 355.935 18.04C355.231 17.3787 354.164 17.048 352.735 17.048C351.775 17.048 350.825 17.1973 349.887 17.496C348.969 17.7947 348.191 18.2107 347.551 18.744L345.983 15.832C346.9 15.128 347.988 14.6053 349.247 14.264C350.527 13.9013 351.849 13.72 353.215 13.72C355.689 13.72 357.599 14.3173 358.943 15.512C360.308 16.6853 360.991 18.5093 360.991 20.984V31H357.215ZM351.839 31.224C350.559 31.224 349.439 31.0107 348.479 30.584C347.519 30.136 346.772 29.528 346.239 28.76C345.727 27.9707 345.471 27.0853 345.471 26.104C345.471 25.144 345.695 24.28 346.143 23.512C346.612 22.744 347.369 22.136 348.415 21.688C349.46 21.24 350.847 21.016 352.575 21.016H357.535V23.672H352.863C351.497 23.672 350.58 23.896 350.111 24.344C349.641 24.7707 349.407 25.304 349.407 25.944C349.407 26.6693 349.695 27.2453 350.271 27.672C350.847 28.0987 351.647 28.312 352.671 28.312C353.652 28.312 354.527 28.088 355.295 27.64C356.084 27.192 356.649 26.5307 356.991 25.656L357.663 28.056C357.279 29.0587 356.585 29.8373 355.583 30.392C354.601 30.9467 353.353 31.224 351.839 31.224ZM366.124 31V7.256H370.124V31H366.124ZM376.782 37.432C375.95 37.432 375.118 37.2933 374.286 37.016C373.454 36.7387 372.761 36.3547 372.206 35.864L373.806 32.92C374.211 33.2827 374.67 33.5707 375.182 33.784C375.694 33.9973 376.217 34.104 376.75 34.104C377.475 34.104 378.062 33.9227 378.51 33.56C378.958 33.1973 379.374 32.5893 379.758 31.736L380.75 29.496L381.07 29.016L387.534 13.912H391.374L383.374 32.376C382.841 33.656 382.243 34.6693 381.582 35.416C380.942 36.1627 380.217 36.6853 379.406 36.984C378.617 37.2827 377.742 37.432 376.782 37.432ZM380.302 31.608L372.59 13.912H376.75L383.022 28.664L380.302 31.608ZM400.775 31.224C398.897 31.224 397.447 30.744 396.423 29.784C395.399 28.8027 394.887 27.3627 394.887 25.464V10.136H398.887V25.368C398.887 26.1787 399.089 26.808 399.495 27.256C399.921 27.704 400.508 27.928 401.255 27.928C402.151 27.928 402.897 27.6933 403.495 27.224L404.615 30.072C404.145 30.456 403.569 30.744 402.887 30.936C402.204 31.128 401.5 31.224 400.775 31.224ZM392.071 17.24V14.04H403.463V17.24H392.071ZM407.905 31V13.912H411.905V31H407.905ZM409.921 11.096C409.175 11.096 408.556 10.8613 408.065 10.392C407.596 9.92267 407.361 9.35733 407.361 8.696C407.361 8.01333 407.596 7.448 408.065 7C408.556 6.53067 409.175 6.296 409.921 6.296C410.668 6.296 411.276 6.52 411.745 6.968C412.236 7.39467 412.481 7.93867 412.481 8.6C412.481 9.304 412.247 9.90133 411.777 10.392C411.308 10.8613 410.689 11.096 409.921 11.096ZM424.995 31.224C423.203 31.224 421.603 30.8507 420.195 30.104C418.809 29.336 417.721 28.2907 416.931 26.968C416.142 25.6453 415.747 24.1413 415.747 22.456C415.747 20.7493 416.142 19.2453 416.931 17.944C417.721 16.6213 418.809 15.5867 420.195 14.84C421.603 14.0933 423.203 13.72 424.995 13.72C426.659 13.72 428.121 14.0613 429.379 14.744C430.659 15.4053 431.63 16.3867 432.291 17.688L429.219 19.48C428.707 18.6693 428.078 18.072 427.331 17.688C426.606 17.304 425.817 17.112 424.963 17.112C423.982 17.112 423.097 17.3253 422.307 17.752C421.518 18.1787 420.899 18.7973 420.451 19.608C420.003 20.3973 419.779 21.3467 419.779 22.456C419.779 23.5653 420.003 24.5253 420.451 25.336C420.899 26.1253 421.518 26.7333 422.307 27.16C423.097 27.5867 423.982 27.8 424.963 27.8C425.817 27.8 426.606 27.608 427.331 27.224C428.078 26.84 428.707 26.2427 429.219 25.432L432.291 27.224C431.63 28.504 430.659 29.496 429.379 30.2C428.121 30.8827 426.659 31.224 424.995 31.224ZM441.029 31.224C439.6 31.224 438.224 31.0427 436.901 30.68C435.6 30.296 434.565 29.8373 433.797 29.304L435.333 26.264C436.101 26.7547 437.018 27.16 438.085 27.48C439.152 27.8 440.218 27.96 441.285 27.96C442.544 27.96 443.45 27.7893 444.005 27.448C444.581 27.1067 444.869 26.648 444.869 26.072C444.869 25.6027 444.677 25.2507 444.293 25.016C443.909 24.76 443.408 24.568 442.789 24.44C442.17 24.312 441.477 24.1947 440.709 24.088C439.962 23.9813 439.205 23.8427 438.437 23.672C437.69 23.48 437.008 23.2133 436.389 22.872C435.77 22.5093 435.269 22.0293 434.885 21.432C434.501 20.8347 434.309 20.0453 434.309 19.064C434.309 17.976 434.618 17.0373 435.237 16.248C435.856 15.4373 436.72 14.8187 437.829 14.392C438.96 13.944 440.293 13.72 441.829 13.72C442.981 13.72 444.144 13.848 445.317 14.104C446.49 14.36 447.461 14.7227 448.229 15.192L446.693 18.232C445.882 17.7413 445.061 17.4107 444.229 17.24C443.418 17.048 442.608 16.952 441.797 16.952C440.581 16.952 439.674 17.1333 439.077 17.496C438.501 17.8587 438.213 18.3173 438.213 18.872C438.213 19.384 438.405 19.768 438.789 20.024C439.173 20.28 439.674 20.4827 440.293 20.632C440.912 20.7813 441.594 20.9093 442.341 21.016C443.109 21.1013 443.866 21.24 444.613 21.432C445.36 21.624 446.042 21.8907 446.661 22.232C447.301 22.552 447.813 23.0107 448.197 23.608C448.581 24.2053 448.773 24.984 448.773 25.944C448.773 27.0107 448.453 27.9387 447.813 28.728C447.194 29.5173 446.309 30.136 445.157 30.584C444.005 31.0107 442.629 31.224 441.029 31.224Z" fill="#333333"/>
<path d="M132.42 67.12C131.353 67.12 130.367 66.9467 129.46 66.6C128.567 66.24 127.787 65.74 127.12 65.1C126.467 64.46 125.953 63.7067 125.58 62.84C125.22 61.9733 125.04 61.0267 125.04 60C125.04 58.9733 125.22 58.0267 125.58 57.16C125.953 56.2933 126.473 55.54 127.14 54.9C127.807 54.26 128.587 53.7667 129.48 53.42C130.387 53.06 131.373 52.88 132.44 52.88C133.507 52.88 134.48 53.0467 135.36 53.38C136.253 53.7133 137.013 54.22 137.64 54.9L136.72 55.84C136.133 55.2533 135.487 54.8333 134.78 54.58C134.073 54.3267 133.313 54.2 132.5 54.2C131.633 54.2 130.833 54.3467 130.1 54.64C129.38 54.92 128.747 55.3267 128.2 55.86C127.667 56.38 127.247 56.9933 126.94 57.7C126.647 58.3933 126.5 59.16 126.5 60C126.5 60.8267 126.647 61.5933 126.94 62.3C127.247 63.0067 127.667 63.6267 128.2 64.16C128.747 64.68 129.38 65.0867 130.1 65.38C130.833 65.66 131.627 65.8 132.48 65.8C133.28 65.8 134.033 65.68 134.74 65.44C135.46 65.2 136.12 64.7933 136.72 64.22L137.56 65.34C136.893 65.9267 136.113 66.3733 135.22 66.68C134.327 66.9733 133.393 67.12 132.42 67.12ZM136.14 65.16V60H137.56V65.34L136.14 65.16ZM145.909 67.1C144.815 67.1 143.855 66.8733 143.029 66.42C142.202 65.9533 141.555 65.32 141.089 64.52C140.622 63.7067 140.389 62.78 140.389 61.74C140.389 60.7 140.609 59.78 141.049 58.98C141.502 58.18 142.115 57.5533 142.889 57.1C143.675 56.6333 144.555 56.4 145.529 56.4C146.515 56.4 147.389 56.6267 148.149 57.08C148.922 57.52 149.529 58.1467 149.969 58.96C150.409 59.76 150.629 60.6867 150.629 61.74C150.629 61.8067 150.622 61.88 150.609 61.96C150.609 62.0267 150.609 62.1 150.609 62.18H141.469V61.12H149.849L149.289 61.54C149.289 60.78 149.122 60.1067 148.789 59.52C148.469 58.92 148.029 58.4533 147.469 58.12C146.909 57.7867 146.262 57.62 145.529 57.62C144.809 57.62 144.162 57.7867 143.589 58.12C143.015 58.4533 142.569 58.92 142.249 59.52C141.929 60.12 141.769 60.8067 141.769 61.58V61.8C141.769 62.6 141.942 63.3067 142.289 63.92C142.649 64.52 143.142 64.9933 143.769 65.34C144.409 65.6733 145.135 65.84 145.949 65.84C146.589 65.84 147.182 65.7267 147.729 65.5C148.289 65.2733 148.769 64.9267 149.169 64.46L149.969 65.38C149.502 65.94 148.915 66.3667 148.209 66.66C147.515 66.9533 146.749 67.1 145.909 67.1ZM156.839 67.1C155.852 67.1 155.092 66.8333 154.559 66.3C154.026 65.7667 153.759 65.0133 153.759 64.04V54.18H155.179V63.96C155.179 64.5733 155.332 65.0467 155.639 65.38C155.959 65.7133 156.412 65.88 156.999 65.88C157.626 65.88 158.146 65.7 158.559 65.34L159.059 66.36C158.779 66.6133 158.439 66.8 158.039 66.92C157.652 67.04 157.252 67.1 156.839 67.1ZM151.879 57.68V56.5H158.379V57.68H151.879ZM166.878 67V56.5H168.298V67H166.878ZM167.598 54.18C167.305 54.18 167.058 54.08 166.858 53.88C166.658 53.68 166.558 53.44 166.558 53.16C166.558 52.88 166.658 52.6467 166.858 52.46C167.058 52.26 167.305 52.16 167.598 52.16C167.892 52.16 168.138 52.2533 168.338 52.44C168.538 52.6267 168.638 52.86 168.638 53.14C168.638 53.4333 168.538 53.68 168.338 53.88C168.152 54.08 167.905 54.18 167.598 54.18ZM177.61 56.4C178.463 56.4 179.21 56.5667 179.85 56.9C180.503 57.22 181.01 57.7133 181.37 58.38C181.743 59.0467 181.93 59.8867 181.93 60.9V67H180.51V61.04C180.51 59.9333 180.23 59.1 179.67 58.54C179.123 57.9667 178.35 57.68 177.35 57.68C176.603 57.68 175.95 57.8333 175.39 58.14C174.843 58.4333 174.416 58.8667 174.11 59.44C173.816 60 173.67 60.68 173.67 61.48V67H172.25V56.5H173.61V59.38L173.39 58.84C173.723 58.08 174.256 57.4867 174.99 57.06C175.723 56.62 176.596 56.4 177.61 56.4ZM188.585 67.1C187.718 67.1 186.898 66.98 186.125 66.74C185.352 66.4867 184.745 66.1733 184.305 65.8L184.945 64.68C185.372 65 185.918 65.28 186.585 65.52C187.252 65.7467 187.952 65.86 188.685 65.86C189.685 65.86 190.405 65.7067 190.845 65.4C191.285 65.08 191.505 64.66 191.505 64.14C191.505 63.7533 191.378 63.4533 191.125 63.24C190.885 63.0133 190.565 62.8467 190.165 62.74C189.765 62.62 189.318 62.52 188.825 62.44C188.332 62.36 187.838 62.2667 187.345 62.16C186.865 62.0533 186.425 61.9 186.025 61.7C185.625 61.4867 185.298 61.2 185.045 60.84C184.805 60.48 184.685 60 184.685 59.4C184.685 58.8267 184.845 58.3133 185.165 57.86C185.485 57.4067 185.952 57.0533 186.565 56.8C187.192 56.5333 187.952 56.4 188.845 56.4C189.525 56.4 190.205 56.4933 190.885 56.68C191.565 56.8533 192.125 57.0867 192.565 57.38L191.945 58.52C191.478 58.2 190.978 57.9733 190.445 57.84C189.912 57.6933 189.378 57.62 188.845 57.62C187.898 57.62 187.198 57.7867 186.745 58.12C186.305 58.44 186.085 58.8533 186.085 59.36C186.085 59.76 186.205 60.0733 186.445 60.3C186.698 60.5267 187.025 60.7067 187.425 60.84C187.838 60.96 188.285 61.06 188.765 61.14C189.258 61.22 189.745 61.32 190.225 61.44C190.718 61.5467 191.165 61.7 191.565 61.9C191.978 62.0867 192.305 62.36 192.545 62.72C192.798 63.0667 192.925 63.5267 192.925 64.1C192.925 64.7133 192.752 65.2467 192.405 65.7C192.072 66.14 191.578 66.4867 190.925 66.74C190.285 66.98 189.505 67.1 188.585 67.1ZM195.531 67V56.5H196.951V67H195.531ZM196.251 54.18C195.957 54.18 195.711 54.08 195.511 53.88C195.311 53.68 195.211 53.44 195.211 53.16C195.211 52.88 195.311 52.6467 195.511 52.46C195.711 52.26 195.957 52.16 196.251 52.16C196.544 52.16 196.791 52.2533 196.991 52.44C197.191 52.6267 197.291 52.86 197.291 53.14C197.291 53.4333 197.191 53.68 196.991 53.88C196.804 54.08 196.557 54.18 196.251 54.18ZM205.382 70.98C204.422 70.98 203.502 70.84 202.622 70.56C201.742 70.28 201.029 69.88 200.482 69.36L201.202 68.28C201.695 68.72 202.302 69.0667 203.022 69.32C203.755 69.5867 204.529 69.72 205.342 69.72C206.675 69.72 207.655 69.4067 208.282 68.78C208.909 68.1667 209.222 67.2067 209.222 65.9V63.28L209.422 61.48L209.282 59.68V56.5H210.642V65.72C210.642 67.5333 210.195 68.86 209.302 69.7C208.422 70.5533 207.115 70.98 205.382 70.98ZM205.122 66.6C204.122 66.6 203.222 66.3867 202.422 65.96C201.622 65.52 200.989 64.9133 200.522 64.14C200.069 63.3667 199.842 62.48 199.842 61.48C199.842 60.48 200.069 59.6 200.522 58.84C200.989 58.0667 201.622 57.4667 202.422 57.04C203.222 56.6133 204.122 56.4 205.122 56.4C206.055 56.4 206.895 56.5933 207.642 56.98C208.389 57.3667 208.982 57.94 209.422 58.7C209.862 59.46 210.082 60.3867 210.082 61.48C210.082 62.5733 209.862 63.5 209.422 64.26C208.982 65.02 208.389 65.6 207.642 66C206.895 66.4 206.055 66.6 205.122 66.6ZM205.262 65.34C206.035 65.34 206.722 65.18 207.322 64.86C207.922 64.5267 208.395 64.0733 208.742 63.5C209.089 62.9133 209.262 62.24 209.262 61.48C209.262 60.72 209.089 60.0533 208.742 59.48C208.395 58.9067 207.922 58.46 207.322 58.14C206.722 57.8067 206.035 57.64 205.262 57.64C204.502 57.64 203.815 57.8067 203.202 58.14C202.602 58.46 202.129 58.9067 201.782 59.48C201.449 60.0533 201.282 60.72 201.282 61.48C201.282 62.24 201.449 62.9133 201.782 63.5C202.129 64.0733 202.602 64.5267 203.202 64.86C203.815 65.18 204.502 65.34 205.262 65.34ZM219.953 56.4C220.807 56.4 221.553 56.5667 222.193 56.9C222.847 57.22 223.353 57.7133 223.713 58.38C224.087 59.0467 224.273 59.8867 224.273 60.9V67H222.853V61.04C222.853 59.9333 222.573 59.1 222.013 58.54C221.467 57.9667 220.693 57.68 219.693 57.68C218.947 57.68 218.293 57.8333 217.733 58.14C217.187 58.4333 216.76 58.8667 216.453 59.44C216.16 60 216.013 60.68 216.013 61.48V67H214.593V52.16H216.013V59.38L215.733 58.84C216.067 58.08 216.6 57.4867 217.333 57.06C218.067 56.62 218.94 56.4 219.953 56.4ZM231.429 67.1C230.442 67.1 229.682 66.8333 229.149 66.3C228.616 65.7667 228.349 65.0133 228.349 64.04V54.18H229.769V63.96C229.769 64.5733 229.922 65.0467 230.229 65.38C230.549 65.7133 231.002 65.88 231.589 65.88C232.216 65.88 232.736 65.7 233.149 65.34L233.649 66.36C233.369 66.6133 233.029 66.8 232.629 66.92C232.242 67.04 231.842 67.1 231.429 67.1ZM226.469 57.68V56.5H232.969V57.68H226.469ZM239.054 67.1C238.187 67.1 237.367 66.98 236.594 66.74C235.821 66.4867 235.214 66.1733 234.774 65.8L235.414 64.68C235.841 65 236.387 65.28 237.054 65.52C237.721 65.7467 238.421 65.86 239.154 65.86C240.154 65.86 240.874 65.7067 241.314 65.4C241.754 65.08 241.974 64.66 241.974 64.14C241.974 63.7533 241.847 63.4533 241.594 63.24C241.354 63.0133 241.034 62.8467 240.634 62.74C240.234 62.62 239.787 62.52 239.294 62.44C238.801 62.36 238.307 62.2667 237.814 62.16C237.334 62.0533 236.894 61.9 236.494 61.7C236.094 61.4867 235.767 61.2 235.514 60.84C235.274 60.48 235.154 60 235.154 59.4C235.154 58.8267 235.314 58.3133 235.634 57.86C235.954 57.4067 236.421 57.0533 237.034 56.8C237.661 56.5333 238.421 56.4 239.314 56.4C239.994 56.4 240.674 56.4933 241.354 56.68C242.034 56.8533 242.594 57.0867 243.034 57.38L242.414 58.52C241.947 58.2 241.447 57.9733 240.914 57.84C240.381 57.6933 239.847 57.62 239.314 57.62C238.367 57.62 237.667 57.7867 237.214 58.12C236.774 58.44 236.554 58.8533 236.554 59.36C236.554 59.76 236.674 60.0733 236.914 60.3C237.167 60.5267 237.494 60.7067 237.894 60.84C238.307 60.96 238.754 61.06 239.234 61.14C239.727 61.22 240.214 61.32 240.694 61.44C241.187 61.5467 241.634 61.7 242.034 61.9C242.447 62.0867 242.774 62.36 243.014 62.72C243.267 63.0667 243.394 63.5267 243.394 64.1C243.394 64.7133 243.221 65.2467 242.874 65.7C242.541 66.14 242.047 66.4867 241.394 66.74C240.754 66.98 239.974 67.1 239.054 67.1ZM251.234 67V56.5H252.654V67H251.234ZM251.954 54.18C251.661 54.18 251.414 54.08 251.214 53.88C251.014 53.68 250.914 53.44 250.914 53.16C250.914 52.88 251.014 52.6467 251.214 52.46C251.414 52.26 251.661 52.16 251.954 52.16C252.247 52.16 252.494 52.2533 252.694 52.44C252.894 52.6267 252.994 52.86 252.994 53.14C252.994 53.4333 252.894 53.68 252.694 53.88C252.507 54.08 252.261 54.18 251.954 54.18ZM261.965 56.4C262.818 56.4 263.565 56.5667 264.205 56.9C264.858 57.22 265.365 57.7133 265.725 58.38C266.098 59.0467 266.285 59.8867 266.285 60.9V67H264.865V61.04C264.865 59.9333 264.585 59.1 264.025 58.54C263.478 57.9667 262.705 57.68 261.705 57.68C260.958 57.68 260.305 57.8333 259.745 58.14C259.198 58.4333 258.772 58.8667 258.465 59.44C258.172 60 258.025 60.68 258.025 61.48V67H256.605V56.5H257.965V59.38L257.745 58.84C258.078 58.08 258.612 57.4867 259.345 57.06C260.078 56.62 260.952 56.4 261.965 56.4ZM273.441 67.1C272.454 67.1 271.694 66.8333 271.161 66.3C270.627 65.7667 270.361 65.0133 270.361 64.04V54.18H271.781V63.96C271.781 64.5733 271.934 65.0467 272.241 65.38C272.561 65.7133 273.014 65.88 273.601 65.88C274.227 65.88 274.747 65.7 275.161 65.34L275.661 66.36C275.381 66.6133 275.041 66.8 274.641 66.92C274.254 67.04 273.854 67.1 273.441 67.1ZM268.481 57.68V56.5H274.981V57.68H268.481ZM282.155 67.1C281.141 67.1 280.228 66.8733 279.415 66.42C278.615 65.9533 277.981 65.32 277.515 64.52C277.048 63.7067 276.815 62.78 276.815 61.74C276.815 60.6867 277.048 59.76 277.515 58.96C277.981 58.16 278.615 57.5333 279.415 57.08C280.215 56.6267 281.128 56.4 282.155 56.4C283.195 56.4 284.115 56.6267 284.915 57.08C285.728 57.5333 286.361 58.16 286.815 58.96C287.281 59.76 287.515 60.6867 287.515 61.74C287.515 62.78 287.281 63.7067 286.815 64.52C286.361 65.32 285.728 65.9533 284.915 66.42C284.101 66.8733 283.181 67.1 282.155 67.1ZM282.155 65.84C282.915 65.84 283.588 65.6733 284.175 65.34C284.761 64.9933 285.221 64.5133 285.555 63.9C285.901 63.2733 286.075 62.5533 286.075 61.74C286.075 60.9133 285.901 60.1933 285.555 59.58C285.221 58.9667 284.761 58.4933 284.175 58.16C283.588 57.8133 282.921 57.64 282.175 57.64C281.428 57.64 280.761 57.8133 280.175 58.16C279.588 58.4933 279.121 58.9667 278.775 59.58C278.428 60.1933 278.255 60.9133 278.255 61.74C278.255 62.5533 278.428 63.2733 278.775 63.9C279.121 64.5133 279.588 64.9933 280.175 65.34C280.761 65.6733 281.421 65.84 282.155 65.84ZM301.068 67.1C300.148 67.1 299.321 66.8933 298.588 66.48C297.855 66.0533 297.275 65.44 296.848 64.64C296.421 63.84 296.208 62.8733 296.208 61.74C296.208 60.5933 296.421 59.6267 296.848 58.84C297.288 58.04 297.875 57.4333 298.608 57.02C299.341 56.6067 300.161 56.4 301.068 56.4C302.068 56.4 302.961 56.6267 303.748 57.08C304.548 57.52 305.175 58.14 305.628 58.94C306.081 59.74 306.308 60.6733 306.308 61.74C306.308 62.7933 306.081 63.7267 305.628 64.54C305.175 65.34 304.548 65.9667 303.748 66.42C302.961 66.8733 302.068 67.1 301.068 67.1ZM295.648 67V52.16H297.068V59.6L296.868 61.72L297.008 63.84V67H295.648ZM300.968 65.84C301.715 65.84 302.381 65.6733 302.968 65.34C303.555 64.9933 304.021 64.5133 304.368 63.9C304.715 63.2733 304.888 62.5533 304.888 61.74C304.888 60.9133 304.715 60.1933 304.368 59.58C304.021 58.9667 303.555 58.4933 302.968 58.16C302.381 57.8133 301.715 57.64 300.968 57.64C300.221 57.64 299.548 57.8133 298.948 58.16C298.361 58.4933 297.895 58.9667 297.548 59.58C297.215 60.1933 297.048 60.9133 297.048 61.74C297.048 62.5533 297.215 63.2733 297.548 63.9C297.895 64.5133 298.361 64.9933 298.948 65.34C299.548 65.6733 300.221 65.84 300.968 65.84ZM313.663 67.1C312.569 67.1 311.609 66.8733 310.783 66.42C309.956 65.9533 309.309 65.32 308.843 64.52C308.376 63.7067 308.143 62.78 308.143 61.74C308.143 60.7 308.363 59.78 308.803 58.98C309.256 58.18 309.869 57.5533 310.643 57.1C311.429 56.6333 312.309 56.4 313.283 56.4C314.269 56.4 315.143 56.6267 315.903 57.08C316.676 57.52 317.283 58.1467 317.723 58.96C318.163 59.76 318.383 60.6867 318.383 61.74C318.383 61.8067 318.376 61.88 318.363 61.96C318.363 62.0267 318.363 62.1 318.363 62.18H309.223V61.12H317.603L317.043 61.54C317.043 60.78 316.876 60.1067 316.543 59.52C316.223 58.92 315.783 58.4533 315.223 58.12C314.663 57.7867 314.016 57.62 313.283 57.62C312.563 57.62 311.916 57.7867 311.343 58.12C310.769 58.4533 310.323 58.92 310.003 59.52C309.683 60.12 309.523 60.8067 309.523 61.58V61.8C309.523 62.6 309.696 63.3067 310.043 63.92C310.403 64.52 310.896 64.9933 311.523 65.34C312.163 65.6733 312.889 65.84 313.703 65.84C314.343 65.84 314.936 65.7267 315.483 65.5C316.043 65.2733 316.523 64.9267 316.923 64.46L317.723 65.38C317.256 65.94 316.669 66.3667 315.963 66.66C315.269 66.9533 314.503 67.1 313.663 67.1ZM324.093 67.1C323.226 67.1 322.406 66.98 321.633 66.74C320.86 66.4867 320.253 66.1733 319.813 65.8L320.453 64.68C320.88 65 321.426 65.28 322.093 65.52C322.76 65.7467 323.46 65.86 324.193 65.86C325.193 65.86 325.913 65.7067 326.353 65.4C326.793 65.08 327.013 64.66 327.013 64.14C327.013 63.7533 326.886 63.4533 326.633 63.24C326.393 63.0133 326.073 62.8467 325.673 62.74C325.273 62.62 324.826 62.52 324.333 62.44C323.84 62.36 323.346 62.2667 322.853 62.16C322.373 62.0533 321.933 61.9 321.533 61.7C321.133 61.4867 320.806 61.2 320.553 60.84C320.313 60.48 320.193 60 320.193 59.4C320.193 58.8267 320.353 58.3133 320.673 57.86C320.993 57.4067 321.46 57.0533 322.073 56.8C322.7 56.5333 323.46 56.4 324.353 56.4C325.033 56.4 325.713 56.4933 326.393 56.68C327.073 56.8533 327.633 57.0867 328.073 57.38L327.453 58.52C326.986 58.2 326.486 57.9733 325.953 57.84C325.42 57.6933 324.886 57.62 324.353 57.62C323.406 57.62 322.706 57.7867 322.253 58.12C321.813 58.44 321.593 58.8533 321.593 59.36C321.593 59.76 321.713 60.0733 321.953 60.3C322.206 60.5267 322.533 60.7067 322.933 60.84C323.346 60.96 323.793 61.06 324.273 61.14C324.766 61.22 325.253 61.32 325.733 61.44C326.226 61.5467 326.673 61.7 327.073 61.9C327.486 62.0867 327.813 62.36 328.053 62.72C328.306 63.0667 328.433 63.5267 328.433 64.1C328.433 64.7133 328.26 65.2467 327.913 65.7C327.58 66.14 327.086 66.4867 326.433 66.74C325.793 66.98 325.013 67.1 324.093 67.1ZM334.359 67.1C333.372 67.1 332.612 66.8333 332.079 66.3C331.545 65.7667 331.279 65.0133 331.279 64.04V54.18H332.699V63.96C332.699 64.5733 332.852 65.0467 333.159 65.38C333.479 65.7133 333.932 65.88 334.519 65.88C335.145 65.88 335.665 65.7 336.079 65.34L336.579 66.36C336.299 66.6133 335.959 66.8 335.559 66.92C335.172 67.04 334.772 67.1 334.359 67.1ZM329.399 57.68V56.5H335.899V57.68H329.399ZM341.984 67.1C341.117 67.1 340.297 66.98 339.524 66.74C338.75 66.4867 338.144 66.1733 337.704 65.8L338.344 64.68C338.77 65 339.317 65.28 339.984 65.52C340.65 65.7467 341.35 65.86 342.084 65.86C343.084 65.86 343.804 65.7067 344.244 65.4C344.684 65.08 344.904 64.66 344.904 64.14C344.904 63.7533 344.777 63.4533 344.524 63.24C344.284 63.0133 343.964 62.8467 343.564 62.74C343.164 62.62 342.717 62.52 342.224 62.44C341.73 62.36 341.237 62.2667 340.744 62.16C340.264 62.0533 339.824 61.9 339.424 61.7C339.024 61.4867 338.697 61.2 338.444 60.84C338.204 60.48 338.084 60 338.084 59.4C338.084 58.8267 338.244 58.3133 338.564 57.86C338.884 57.4067 339.35 57.0533 339.964 56.8C340.59 56.5333 341.35 56.4 342.244 56.4C342.924 56.4 343.604 56.4933 344.284 56.68C344.964 56.8533 345.524 57.0867 345.964 57.38L345.344 58.52C344.877 58.2 344.377 57.9733 343.844 57.84C343.31 57.6933 342.777 57.62 342.244 57.62C341.297 57.62 340.597 57.7867 340.144 58.12C339.704 58.44 339.484 58.8533 339.484 59.36C339.484 59.76 339.604 60.0733 339.844 60.3C340.097 60.5267 340.424 60.7067 340.824 60.84C341.237 60.96 341.684 61.06 342.164 61.14C342.657 61.22 343.144 61.32 343.624 61.44C344.117 61.5467 344.564 61.7 344.964 61.9C345.377 62.0867 345.704 62.36 345.944 62.72C346.197 63.0667 346.324 63.5267 346.324 64.1C346.324 64.7133 346.15 65.2467 345.804 65.7C345.47 66.14 344.977 66.4867 344.324 66.74C343.684 66.98 342.904 67.1 341.984 67.1ZM353.389 67.1C352.296 67.1 351.336 66.8733 350.509 66.42C349.683 65.9533 349.036 65.32 348.569 64.52C348.103 63.7067 347.869 62.78 347.869 61.74C347.869 60.7 348.089 59.78 348.529 58.98C348.983 58.18 349.596 57.5533 350.369 57.1C351.156 56.6333 352.036 56.4 353.009 56.4C353.996 56.4 354.869 56.6267 355.629 57.08C356.403 57.52 357.009 58.1467 357.449 58.96C357.889 59.76 358.109 60.6867 358.109 61.74C358.109 61.8067 358.103 61.88 358.089 61.96C358.089 62.0267 358.089 62.1 358.089 62.18H348.949V61.12H357.329L356.769 61.54C356.769 60.78 356.603 60.1067 356.269 59.52C355.949 58.92 355.509 58.4533 354.949 58.12C354.389 57.7867 353.743 57.62 353.009 57.62C352.289 57.62 351.643 57.7867 351.069 58.12C350.496 58.4533 350.049 58.92 349.729 59.52C349.409 60.12 349.249 60.8067 349.249 61.58V61.8C349.249 62.6 349.423 63.3067 349.769 63.92C350.129 64.52 350.623 64.9933 351.249 65.34C351.889 65.6733 352.616 65.84 353.429 65.84C354.069 65.84 354.663 65.7267 355.209 65.5C355.769 65.2733 356.249 64.9267 356.649 64.46L357.449 65.38C356.983 65.94 356.396 66.3667 355.689 66.66C354.996 66.9533 354.229 67.1 353.389 67.1ZM361 67V52.16H362.42V67H361ZM366.371 67V52.16H367.791V67H366.371ZM376.202 67.1C375.108 67.1 374.148 66.8733 373.322 66.42C372.495 65.9533 371.848 65.32 371.382 64.52C370.915 63.7067 370.682 62.78 370.682 61.74C370.682 60.7 370.902 59.78 371.342 58.98C371.795 58.18 372.408 57.5533 373.182 57.1C373.968 56.6333 374.848 56.4 375.822 56.4C376.808 56.4 377.682 56.6267 378.442 57.08C379.215 57.52 379.822 58.1467 380.262 58.96C380.702 59.76 380.922 60.6867 380.922 61.74C380.922 61.8067 380.915 61.88 380.902 61.96C380.902 62.0267 380.902 62.1 380.902 62.18H371.762V61.12H380.142L379.582 61.54C379.582 60.78 379.415 60.1067 379.082 59.52C378.762 58.92 378.322 58.4533 377.762 58.12C377.202 57.7867 376.555 57.62 375.822 57.62C375.102 57.62 374.455 57.7867 373.882 58.12C373.308 58.4533 372.862 58.92 372.542 59.52C372.222 60.12 372.062 60.8067 372.062 61.58V61.8C372.062 62.6 372.235 63.3067 372.582 63.92C372.942 64.52 373.435 64.9933 374.062 65.34C374.702 65.6733 375.428 65.84 376.242 65.84C376.882 65.84 377.475 65.7267 378.022 65.5C378.582 65.2733 379.062 64.9267 379.462 64.46L380.262 65.38C379.795 65.94 379.208 66.3667 378.502 66.66C377.808 66.9533 377.042 67.1 376.202 67.1ZM383.812 67V56.5H385.172V59.36L385.032 58.86C385.325 58.06 385.819 57.4533 386.512 57.04C387.205 56.6133 388.065 56.4 389.092 56.4V57.78C389.039 57.78 388.985 57.78 388.932 57.78C388.879 57.7667 388.825 57.76 388.772 57.76C387.665 57.76 386.799 58.1 386.172 58.78C385.545 59.4467 385.232 60.4 385.232 61.64V67H383.812ZM394.62 67.1C393.754 67.1 392.934 66.98 392.16 66.74C391.387 66.4867 390.78 66.1733 390.34 65.8L390.98 64.68C391.407 65 391.954 65.28 392.62 65.52C393.287 65.7467 393.987 65.86 394.72 65.86C395.72 65.86 396.44 65.7067 396.88 65.4C397.32 65.08 397.54 64.66 397.54 64.14C397.54 63.7533 397.414 63.4533 397.16 63.24C396.92 63.0133 396.6 62.8467 396.2 62.74C395.8 62.62 395.354 62.52 394.86 62.44C394.367 62.36 393.874 62.2667 393.38 62.16C392.9 62.0533 392.46 61.9 392.06 61.7C391.66 61.4867 391.334 61.2 391.08 60.84C390.84 60.48 390.72 60 390.72 59.4C390.72 58.8267 390.88 58.3133 391.2 57.86C391.52 57.4067 391.987 57.0533 392.6 56.8C393.227 56.5333 393.987 56.4 394.88 56.4C395.56 56.4 396.24 56.4933 396.92 56.68C397.6 56.8533 398.16 57.0867 398.6 57.38L397.98 58.52C397.514 58.2 397.014 57.9733 396.48 57.84C395.947 57.6933 395.414 57.62 394.88 57.62C393.934 57.62 393.234 57.7867 392.78 58.12C392.34 58.44 392.12 58.8533 392.12 59.36C392.12 59.76 392.24 60.0733 392.48 60.3C392.734 60.5267 393.06 60.7067 393.46 60.84C393.874 60.96 394.32 61.06 394.8 61.14C395.294 61.22 395.78 61.32 396.26 61.44C396.754 61.5467 397.2 61.7 397.6 61.9C398.014 62.0867 398.34 62.36 398.58 62.72C398.834 63.0667 398.96 63.5267 398.96 64.1C398.96 64.7133 398.787 65.2467 398.44 65.7C398.107 66.14 397.614 66.4867 396.96 66.74C396.32 66.98 395.54 67.1 394.62 67.1ZM400.706 69.92L401.586 66.22L401.746 67.08C401.439 67.08 401.179 66.98 400.966 66.78C400.766 66.58 400.666 66.32 400.666 66C400.666 65.68 400.766 65.42 400.966 65.22C401.179 65.02 401.433 64.92 401.726 64.92C402.033 64.92 402.279 65.0267 402.466 65.24C402.666 65.4533 402.766 65.7067 402.766 66C402.766 66.1067 402.759 66.2133 402.746 66.32C402.733 66.4267 402.706 66.5467 402.666 66.68C402.626 66.8133 402.573 66.9733 402.506 67.16L401.666 69.92H400.706ZM128.8 99.1C127.933 99.1 127.113 98.98 126.34 98.74C125.567 98.4867 124.96 98.1733 124.52 97.8L125.16 96.68C125.587 97 126.133 97.28 126.8 97.52C127.467 97.7467 128.167 97.86 128.9 97.86C129.9 97.86 130.62 97.7067 131.06 97.4C131.5 97.08 131.72 96.66 131.72 96.14C131.72 95.7533 131.593 95.4533 131.34 95.24C131.1 95.0133 130.78 94.8467 130.38 94.74C129.98 94.62 129.533 94.52 129.04 94.44C128.547 94.36 128.053 94.2667 127.56 94.16C127.08 94.0533 126.64 93.9 126.24 93.7C125.84 93.4867 125.513 93.2 125.26 92.84C125.02 92.48 124.9 92 124.9 91.4C124.9 90.8267 125.06 90.3133 125.38 89.86C125.7 89.4067 126.167 89.0533 126.78 88.8C127.407 88.5333 128.167 88.4 129.06 88.4C129.74 88.4 130.42 88.4933 131.1 88.68C131.78 88.8533 132.34 89.0867 132.78 89.38L132.16 90.52C131.693 90.2 131.193 89.9733 130.66 89.84C130.127 89.6933 129.593 89.62 129.06 89.62C128.113 89.62 127.413 89.7867 126.96 90.12C126.52 90.44 126.3 90.8533 126.3 91.36C126.3 91.76 126.42 92.0733 126.66 92.3C126.913 92.5267 127.24 92.7067 127.64 92.84C128.053 92.96 128.5 93.06 128.98 93.14C129.473 93.22 129.96 93.32 130.44 93.44C130.933 93.5467 131.38 93.7 131.78 93.9C132.193 94.0867 132.52 94.36 132.76 94.72C133.013 95.0667 133.14 95.5267 133.14 96.1C133.14 96.7133 132.967 97.2467 132.62 97.7C132.287 98.14 131.793 98.4867 131.14 98.74C130.5 98.98 129.72 99.1 128.8 99.1ZM139.066 99.1C138.079 99.1 137.319 98.8333 136.786 98.3C136.252 97.7667 135.986 97.0133 135.986 96.04V86.18H137.406V95.96C137.406 96.5733 137.559 97.0467 137.866 97.38C138.186 97.7133 138.639 97.88 139.226 97.88C139.852 97.88 140.372 97.7 140.786 97.34L141.286 98.36C141.006 98.6133 140.666 98.8 140.266 98.92C139.879 99.04 139.479 99.1 139.066 99.1ZM134.106 89.68V88.5H140.606V89.68H134.106ZM147.78 99.1C146.766 99.1 145.853 98.8733 145.04 98.42C144.24 97.9533 143.606 97.32 143.14 96.52C142.673 95.7067 142.44 94.78 142.44 93.74C142.44 92.6867 142.673 91.76 143.14 90.96C143.606 90.16 144.24 89.5333 145.04 89.08C145.84 88.6267 146.753 88.4 147.78 88.4C148.82 88.4 149.74 88.6267 150.54 89.08C151.353 89.5333 151.986 90.16 152.44 90.96C152.906 91.76 153.14 92.6867 153.14 93.74C153.14 94.78 152.906 95.7067 152.44 96.52C151.986 97.32 151.353 97.9533 150.54 98.42C149.726 98.8733 148.806 99.1 147.78 99.1ZM147.78 97.84C148.54 97.84 149.213 97.6733 149.8 97.34C150.386 96.9933 150.846 96.5133 151.18 95.9C151.526 95.2733 151.7 94.5533 151.7 93.74C151.7 92.9133 151.526 92.1933 151.18 91.58C150.846 90.9667 150.386 90.4933 149.8 90.16C149.213 89.8133 148.546 89.64 147.8 89.64C147.053 89.64 146.386 89.8133 145.8 90.16C145.213 90.4933 144.746 90.9667 144.4 91.58C144.053 92.1933 143.88 92.9133 143.88 93.74C143.88 94.5533 144.053 95.2733 144.4 95.9C144.746 96.5133 145.213 96.9933 145.8 97.34C146.386 97.6733 147.046 97.84 147.78 97.84ZM160.399 99.1C159.359 99.1 158.425 98.8733 157.599 98.42C156.785 97.9533 156.145 97.32 155.679 96.52C155.212 95.7067 154.979 94.78 154.979 93.74C154.979 92.6867 155.212 91.76 155.679 90.96C156.145 90.16 156.785 89.5333 157.599 89.08C158.425 88.6267 159.359 88.4 160.399 88.4C161.292 88.4 162.099 88.5733 162.819 88.92C163.539 89.2667 164.105 89.7867 164.519 90.48L163.459 91.2C163.099 90.6667 162.652 90.2733 162.119 90.02C161.585 89.7667 161.005 89.64 160.379 89.64C159.632 89.64 158.959 89.8133 158.359 90.16C157.759 90.4933 157.285 90.9667 156.939 91.58C156.592 92.1933 156.419 92.9133 156.419 93.74C156.419 94.5667 156.592 95.2867 156.939 95.9C157.285 96.5133 157.759 96.9933 158.359 97.34C158.959 97.6733 159.632 97.84 160.379 97.84C161.005 97.84 161.585 97.7133 162.119 97.46C162.652 97.2067 163.099 96.82 163.459 96.3L164.519 97.02C164.105 97.7 163.539 98.22 162.819 98.58C162.099 98.9267 161.292 99.1 160.399 99.1ZM168.272 96.28L168.312 94.46L174.852 88.5H176.592L171.972 92.92L171.172 93.6L168.272 96.28ZM167.152 99V84.16H168.572V99H167.152ZM175.292 99L170.912 93.54L171.832 92.44L177.032 99H175.292ZM187.098 99L182.438 88.5H183.918L188.198 98.24H187.498L191.838 88.5H193.238L188.558 99H187.098ZM201.505 99V96.68L201.445 96.3V92.42C201.445 91.5267 201.192 90.84 200.685 90.36C200.192 89.88 199.452 89.64 198.465 89.64C197.785 89.64 197.139 89.7533 196.525 89.98C195.912 90.2067 195.392 90.5067 194.965 90.88L194.325 89.82C194.859 89.3667 195.499 89.02 196.245 88.78C196.992 88.5267 197.779 88.4 198.605 88.4C199.965 88.4 201.012 88.74 201.745 89.42C202.492 90.0867 202.865 91.1067 202.865 92.48V99H201.505ZM197.885 99.1C197.099 99.1 196.412 98.9733 195.825 98.72C195.252 98.4533 194.812 98.0933 194.505 97.64C194.199 97.1733 194.045 96.64 194.045 96.04C194.045 95.4933 194.172 95 194.425 94.56C194.692 94.1067 195.119 93.7467 195.705 93.48C196.305 93.2 197.105 93.06 198.105 93.06H201.725V94.12H198.145C197.132 94.12 196.425 94.3 196.025 94.66C195.639 95.02 195.445 95.4667 195.445 96C195.445 96.6 195.679 97.08 196.145 97.44C196.612 97.8 197.265 97.98 198.105 97.98C198.905 97.98 199.592 97.8 200.165 97.44C200.752 97.0667 201.179 96.5333 201.445 95.84L201.765 96.82C201.499 97.5133 201.032 98.0667 200.365 98.48C199.712 98.8933 198.885 99.1 197.885 99.1ZM206.722 99V84.16H208.142V99H206.722ZM216.433 99.1C215.54 99.1 214.76 98.9333 214.093 98.6C213.427 98.2667 212.907 97.7667 212.533 97.1C212.173 96.4333 211.993 95.6 211.993 94.6V88.5H213.413V94.44C213.413 95.56 213.687 96.4067 214.233 96.98C214.793 97.54 215.573 97.82 216.573 97.82C217.307 97.82 217.94 97.6733 218.473 97.38C219.02 97.0733 219.433 96.6333 219.713 96.06C220.007 95.4867 220.153 94.8 220.153 94V88.5H221.573V99H220.213V96.12L220.433 96.64C220.1 97.4133 219.58 98.02 218.873 98.46C218.18 98.8867 217.367 99.1 216.433 99.1ZM229.991 99.1C228.897 99.1 227.937 98.8733 227.111 98.42C226.284 97.9533 225.637 97.32 225.171 96.52C224.704 95.7067 224.471 94.78 224.471 93.74C224.471 92.7 224.691 91.78 225.131 90.98C225.584 90.18 226.197 89.5533 226.971 89.1C227.757 88.6333 228.637 88.4 229.611 88.4C230.597 88.4 231.471 88.6267 232.231 89.08C233.004 89.52 233.611 90.1467 234.051 90.96C234.491 91.76 234.711 92.6867 234.711 93.74C234.711 93.8067 234.704 93.88 234.691 93.96C234.691 94.0267 234.691 94.1 234.691 94.18H225.551V93.12H233.931L233.371 93.54C233.371 92.78 233.204 92.1067 232.871 91.52C232.551 90.92 232.111 90.4533 231.551 90.12C230.991 89.7867 230.344 89.62 229.611 89.62C228.891 89.62 228.244 89.7867 227.671 90.12C227.097 90.4533 226.651 90.92 226.331 91.52C226.011 92.12 225.851 92.8067 225.851 93.58V93.8C225.851 94.6 226.024 95.3067 226.371 95.92C226.731 96.52 227.224 96.9933 227.851 97.34C228.491 97.6733 229.217 97.84 230.031 97.84C230.671 97.84 231.264 97.7267 231.811 97.5C232.371 97.2733 232.851 96.9267 233.251 96.46L234.051 97.38C233.584 97.94 232.997 98.3667 232.291 98.66C231.597 98.9533 230.831 99.1 229.991 99.1ZM236.741 101.92L237.621 98.22L237.781 99.08C237.474 99.08 237.214 98.98 237.001 98.78C236.801 98.58 236.701 98.32 236.701 98C236.701 97.68 236.801 97.42 237.001 97.22C237.214 97.02 237.468 96.92 237.761 96.92C238.068 96.92 238.314 97.0267 238.501 97.24C238.701 97.4533 238.801 97.7067 238.801 98C238.801 98.1067 238.794 98.2133 238.781 98.32C238.768 98.4267 238.741 98.5467 238.701 98.68C238.661 98.8133 238.608 98.9733 238.541 99.16L237.701 101.92H236.741ZM249.894 99.1C249.027 99.1 248.207 98.98 247.434 98.74C246.66 98.4867 246.054 98.1733 245.614 97.8L246.254 96.68C246.68 97 247.227 97.28 247.894 97.52C248.56 97.7467 249.26 97.86 249.994 97.86C250.994 97.86 251.714 97.7067 252.154 97.4C252.594 97.08 252.814 96.66 252.814 96.14C252.814 95.7533 252.687 95.4533 252.434 95.24C252.194 95.0133 251.874 94.8467 251.474 94.74C251.074 94.62 250.627 94.52 250.134 94.44C249.64 94.36 249.147 94.2667 248.654 94.16C248.174 94.0533 247.734 93.9 247.334 93.7C246.934 93.4867 246.607 93.2 246.354 92.84C246.114 92.48 245.994 92 245.994 91.4C245.994 90.8267 246.154 90.3133 246.474 89.86C246.794 89.4067 247.26 89.0533 247.874 88.8C248.5 88.5333 249.26 88.4 250.154 88.4C250.834 88.4 251.514 88.4933 252.194 88.68C252.874 88.8533 253.434 89.0867 253.874 89.38L253.254 90.52C252.787 90.2 252.287 89.9733 251.754 89.84C251.22 89.6933 250.687 89.62 250.154 89.62C249.207 89.62 248.507 89.7867 248.054 90.12C247.614 90.44 247.394 90.8533 247.394 91.36C247.394 91.76 247.514 92.0733 247.754 92.3C248.007 92.5267 248.334 92.7067 248.734 92.84C249.147 92.96 249.594 93.06 250.074 93.14C250.567 93.22 251.054 93.32 251.534 93.44C252.027 93.5467 252.474 93.7 252.874 93.9C253.287 94.0867 253.614 94.36 253.854 94.72C254.107 95.0667 254.234 95.5267 254.234 96.1C254.234 96.7133 254.06 97.2467 253.714 97.7C253.38 98.14 252.887 98.4867 252.234 98.74C251.594 98.98 250.814 99.1 249.894 99.1ZM263.419 99V96.68L263.359 96.3V92.42C263.359 91.5267 263.106 90.84 262.599 90.36C262.106 89.88 261.366 89.64 260.379 89.64C259.699 89.64 259.053 89.7533 258.439 89.98C257.826 90.2067 257.306 90.5067 256.879 90.88L256.239 89.82C256.773 89.3667 257.413 89.02 258.159 88.78C258.906 88.5267 259.693 88.4 260.519 88.4C261.879 88.4 262.926 88.74 263.659 89.42C264.406 90.0867 264.779 91.1067 264.779 92.48V99H263.419ZM259.799 99.1C259.013 99.1 258.326 98.9733 257.739 98.72C257.166 98.4533 256.726 98.0933 256.419 97.64C256.113 97.1733 255.959 96.64 255.959 96.04C255.959 95.4933 256.086 95 256.339 94.56C256.606 94.1067 257.033 93.7467 257.619 93.48C258.219 93.2 259.019 93.06 260.019 93.06H263.639V94.12H260.059C259.046 94.12 258.339 94.3 257.939 94.66C257.553 95.02 257.359 95.4667 257.359 96C257.359 96.6 257.593 97.08 258.059 97.44C258.526 97.8 259.179 97.98 260.019 97.98C260.819 97.98 261.506 97.8 262.079 97.44C262.666 97.0667 263.093 96.5333 263.359 95.84L263.679 96.82C263.413 97.5133 262.946 98.0667 262.279 98.48C261.626 98.8933 260.799 99.1 259.799 99.1ZM268.636 99V84.16H270.056V99H268.636ZM278.467 99.1C277.374 99.1 276.414 98.8733 275.587 98.42C274.761 97.9533 274.114 97.32 273.647 96.52C273.181 95.7067 272.947 94.78 272.947 93.74C272.947 92.7 273.167 91.78 273.607 90.98C274.061 90.18 274.674 89.5533 275.447 89.1C276.234 88.6333 277.114 88.4 278.087 88.4C279.074 88.4 279.947 88.6267 280.707 89.08C281.481 89.52 282.087 90.1467 282.527 90.96C282.967 91.76 283.187 92.6867 283.187 93.74C283.187 93.8067 283.181 93.88 283.167 93.96C283.167 94.0267 283.167 94.1 283.167 94.18H274.027V93.12H282.407L281.847 93.54C281.847 92.78 281.681 92.1067 281.347 91.52C281.027 90.92 280.587 90.4533 280.027 90.12C279.467 89.7867 278.821 89.62 278.087 89.62C277.367 89.62 276.721 89.7867 276.147 90.12C275.574 90.4533 275.127 90.92 274.807 91.52C274.487 92.12 274.327 92.8067 274.327 93.58V93.8C274.327 94.6 274.501 95.3067 274.847 95.92C275.207 96.52 275.701 96.9933 276.327 97.34C276.967 97.6733 277.694 97.84 278.507 97.84C279.147 97.84 279.741 97.7267 280.287 97.5C280.847 97.2733 281.327 96.9267 281.727 96.46L282.527 97.38C282.061 97.94 281.474 98.3667 280.767 98.66C280.074 98.9533 279.307 99.1 278.467 99.1ZM288.898 99.1C288.031 99.1 287.211 98.98 286.438 98.74C285.664 98.4867 285.058 98.1733 284.618 97.8L285.258 96.68C285.684 97 286.231 97.28 286.898 97.52C287.564 97.7467 288.264 97.86 288.998 97.86C289.998 97.86 290.718 97.7067 291.158 97.4C291.598 97.08 291.818 96.66 291.818 96.14C291.818 95.7533 291.691 95.4533 291.438 95.24C291.198 95.0133 290.878 94.8467 290.478 94.74C290.078 94.62 289.631 94.52 289.138 94.44C288.644 94.36 288.151 94.2667 287.658 94.16C287.178 94.0533 286.738 93.9 286.338 93.7C285.938 93.4867 285.611 93.2 285.358 92.84C285.118 92.48 284.998 92 284.998 91.4C284.998 90.8267 285.158 90.3133 285.478 89.86C285.798 89.4067 286.264 89.0533 286.878 88.8C287.504 88.5333 288.264 88.4 289.158 88.4C289.838 88.4 290.518 88.4933 291.198 88.68C291.878 88.8533 292.438 89.0867 292.878 89.38L292.258 90.52C291.791 90.2 291.291 89.9733 290.758 89.84C290.224 89.6933 289.691 89.62 289.158 89.62C288.211 89.62 287.511 89.7867 287.058 90.12C286.618 90.44 286.398 90.8533 286.398 91.36C286.398 91.76 286.518 92.0733 286.758 92.3C287.011 92.5267 287.338 92.7067 287.738 92.84C288.151 92.96 288.598 93.06 289.078 93.14C289.571 93.22 290.058 93.32 290.538 93.44C291.031 93.5467 291.478 93.7 291.878 93.9C292.291 94.0867 292.618 94.36 292.858 94.72C293.111 95.0667 293.238 95.5267 293.238 96.1C293.238 96.7133 293.064 97.2467 292.718 97.7C292.384 98.14 291.891 98.4867 291.238 98.74C290.598 98.98 289.818 99.1 288.898 99.1ZM304.398 99.1C303.411 99.1 302.651 98.8333 302.118 98.3C301.584 97.7667 301.318 97.0133 301.318 96.04V86.18H302.738V95.96C302.738 96.5733 302.891 97.0467 303.198 97.38C303.518 97.7133 303.971 97.88 304.558 97.88C305.184 97.88 305.704 97.7 306.118 97.34L306.618 98.36C306.338 98.6133 305.998 98.8 305.598 98.92C305.211 99.04 304.811 99.1 304.398 99.1ZM299.438 89.68V88.5H305.938V89.68H299.438ZM309.203 99V88.5H310.563V91.36L310.423 90.86C310.716 90.06 311.209 89.4533 311.903 89.04C312.596 88.6133 313.456 88.4 314.483 88.4V89.78C314.429 89.78 314.376 89.78 314.323 89.78C314.269 89.7667 314.216 89.76 314.163 89.76C313.056 89.76 312.189 90.1 311.563 90.78C310.936 91.4467 310.623 92.4 310.623 93.64V99H309.203ZM321.436 99.1C320.343 99.1 319.383 98.8733 318.556 98.42C317.729 97.9533 317.083 97.32 316.616 96.52C316.149 95.7067 315.916 94.78 315.916 93.74C315.916 92.7 316.136 91.78 316.576 90.98C317.029 90.18 317.643 89.5533 318.416 89.1C319.203 88.6333 320.083 88.4 321.056 88.4C322.043 88.4 322.916 88.6267 323.676 89.08C324.449 89.52 325.056 90.1467 325.496 90.96C325.936 91.76 326.156 92.6867 326.156 93.74C326.156 93.8067 326.149 93.88 326.136 93.96C326.136 94.0267 326.136 94.1 326.136 94.18H316.996V93.12H325.376L324.816 93.54C324.816 92.78 324.649 92.1067 324.316 91.52C323.996 90.92 323.556 90.4533 322.996 90.12C322.436 89.7867 321.789 89.62 321.056 89.62C320.336 89.62 319.689 89.7867 319.116 90.12C318.543 90.4533 318.096 90.92 317.776 91.52C317.456 92.12 317.296 92.8067 317.296 93.58V93.8C317.296 94.6 317.469 95.3067 317.816 95.92C318.176 96.52 318.669 96.9933 319.296 97.34C319.936 97.6733 320.663 97.84 321.476 97.84C322.116 97.84 322.709 97.7267 323.256 97.5C323.816 97.2733 324.296 96.9267 324.696 96.46L325.496 97.38C325.029 97.94 324.443 98.3667 323.736 98.66C323.043 98.9533 322.276 99.1 321.436 99.1ZM334.406 88.4C335.26 88.4 336.006 88.5667 336.646 88.9C337.3 89.22 337.806 89.7133 338.166 90.38C338.54 91.0467 338.726 91.8867 338.726 92.9V99H337.306V93.04C337.306 91.9333 337.026 91.1 336.466 90.54C335.92 89.9667 335.146 89.68 334.146 89.68C333.4 89.68 332.746 89.8333 332.186 90.14C331.64 90.4333 331.213 90.8667 330.906 91.44C330.613 92 330.466 92.68 330.466 93.48V99H329.046V88.5H330.406V91.38L330.186 90.84C330.52 90.08 331.053 89.4867 331.786 89.06C332.52 88.62 333.393 88.4 334.406 88.4ZM346.742 99.1C345.742 99.1 344.842 98.8733 344.042 98.42C343.255 97.9667 342.635 97.34 342.182 96.54C341.729 95.7267 341.502 94.7933 341.502 93.74C341.502 92.6733 341.729 91.74 342.182 90.94C342.635 90.14 343.255 89.52 344.042 89.08C344.842 88.6267 345.742 88.4 346.742 88.4C347.662 88.4 348.482 88.6067 349.202 89.02C349.935 89.4333 350.515 90.04 350.942 90.84C351.382 91.6267 351.602 92.5933 351.602 93.74C351.602 94.8733 351.389 95.84 350.962 96.64C350.535 97.44 349.955 98.0533 349.222 98.48C348.502 98.8933 347.675 99.1 346.742 99.1ZM346.842 97.84C347.589 97.84 348.255 97.6733 348.842 97.34C349.442 96.9933 349.909 96.5133 350.242 95.9C350.589 95.2733 350.762 94.5533 350.762 93.74C350.762 92.9133 350.589 92.1933 350.242 91.58C349.909 90.9667 349.442 90.4933 348.842 90.16C348.255 89.8133 347.589 89.64 346.842 89.64C346.109 89.64 345.449 89.8133 344.862 90.16C344.275 90.4933 343.809 90.9667 343.462 91.58C343.115 92.1933 342.942 92.9133 342.942 93.74C342.942 94.5533 343.115 95.2733 343.462 95.9C343.809 96.5133 344.275 96.9933 344.862 97.34C345.449 97.6733 346.109 97.84 346.842 97.84ZM350.802 99V95.84L350.942 93.72L350.742 91.6V84.16H352.162V99H350.802ZM358.937 99.1C358.07 99.1 357.25 98.98 356.477 98.74C355.703 98.4867 355.097 98.1733 354.657 97.8L355.297 96.68C355.723 97 356.27 97.28 356.937 97.52C357.603 97.7467 358.303 97.86 359.037 97.86C360.037 97.86 360.757 97.7067 361.197 97.4C361.637 97.08 361.857 96.66 361.857 96.14C361.857 95.7533 361.73 95.4533 361.477 95.24C361.237 95.0133 360.917 94.8467 360.517 94.74C360.117 94.62 359.67 94.52 359.177 94.44C358.683 94.36 358.19 94.2667 357.697 94.16C357.217 94.0533 356.777 93.9 356.377 93.7C355.977 93.4867 355.65 93.2 355.397 92.84C355.157 92.48 355.037 92 355.037 91.4C355.037 90.8267 355.197 90.3133 355.517 89.86C355.837 89.4067 356.303 89.0533 356.917 88.8C357.543 88.5333 358.303 88.4 359.197 88.4C359.877 88.4 360.557 88.4933 361.237 88.68C361.917 88.8533 362.477 89.0867 362.917 89.38L362.297 90.52C361.83 90.2 361.33 89.9733 360.797 89.84C360.263 89.6933 359.73 89.62 359.197 89.62C358.25 89.62 357.55 89.7867 357.097 90.12C356.657 90.44 356.437 90.8533 356.437 91.36C356.437 91.76 356.557 92.0733 356.797 92.3C357.05 92.5267 357.377 92.7067 357.777 92.84C358.19 92.96 358.637 93.06 359.117 93.14C359.61 93.22 360.097 93.32 360.577 93.44C361.07 93.5467 361.517 93.7 361.917 93.9C362.33 94.0867 362.657 94.36 362.897 94.72C363.15 95.0667 363.277 95.5267 363.277 96.1C363.277 96.7133 363.103 97.2467 362.757 97.7C362.423 98.14 361.93 98.4867 361.277 98.74C360.637 98.98 359.857 99.1 358.937 99.1ZM365.022 101.92L365.902 98.22L366.062 99.08C365.756 99.08 365.496 98.98 365.282 98.78C365.082 98.58 364.982 98.32 364.982 98C364.982 97.68 365.082 97.42 365.282 97.22C365.496 97.02 365.749 96.92 366.042 96.92C366.349 96.92 366.596 97.0267 366.782 97.24C366.982 97.4533 367.082 97.7067 367.082 98C367.082 98.1067 367.076 98.2133 367.062 98.32C367.049 98.4267 367.022 98.5467 366.982 98.68C366.942 98.8133 366.889 98.9733 366.822 99.16L365.982 101.92H365.022ZM381.935 99V96.68L381.875 96.3V92.42C381.875 91.5267 381.622 90.84 381.115 90.36C380.622 89.88 379.882 89.64 378.895 89.64C378.215 89.64 377.568 89.7533 376.955 89.98C376.342 90.2067 375.822 90.5067 375.395 90.88L374.755 89.82C375.288 89.3667 375.928 89.02 376.675 88.78C377.422 88.5267 378.208 88.4 379.035 88.4C380.395 88.4 381.442 88.74 382.175 89.42C382.922 90.0867 383.295 91.1067 383.295 92.48V99H381.935ZM378.315 99.1C377.528 99.1 376.842 98.9733 376.255 98.72C375.682 98.4533 375.242 98.0933 374.935 97.64C374.628 97.1733 374.475 96.64 374.475 96.04C374.475 95.4933 374.602 95 374.855 94.56C375.122 94.1067 375.548 93.7467 376.135 93.48C376.735 93.2 377.535 93.06 378.535 93.06H382.155V94.12H378.575C377.562 94.12 376.855 94.3 376.455 94.66C376.068 95.02 375.875 95.4667 375.875 96C375.875 96.6 376.108 97.08 376.575 97.44C377.042 97.8 377.695 97.98 378.535 97.98C379.335 97.98 380.022 97.8 380.595 97.44C381.182 97.0667 381.608 96.5333 381.875 95.84L382.195 96.82C381.928 97.5133 381.462 98.0667 380.795 98.48C380.142 98.8933 379.315 99.1 378.315 99.1ZM392.512 88.4C393.365 88.4 394.112 88.5667 394.752 88.9C395.405 89.22 395.912 89.7133 396.272 90.38C396.645 91.0467 396.832 91.8867 396.832 92.9V99H395.412V93.04C395.412 91.9333 395.132 91.1 394.572 90.54C394.025 89.9667 393.252 89.68 392.252 89.68C391.505 89.68 390.852 89.8333 390.292 90.14C389.745 90.4333 389.319 90.8667 389.012 91.44C388.719 92 388.572 92.68 388.572 93.48V99H387.152V88.5H388.512V91.38L388.292 90.84C388.625 90.08 389.159 89.4867 389.892 89.06C390.625 88.62 391.499 88.4 392.512 88.4ZM404.848 99.1C403.848 99.1 402.948 98.8733 402.148 98.42C401.361 97.9667 400.741 97.34 400.288 96.54C399.834 95.7267 399.608 94.7933 399.608 93.74C399.608 92.6733 399.834 91.74 400.288 90.94C400.741 90.14 401.361 89.52 402.148 89.08C402.948 88.6267 403.848 88.4 404.848 88.4C405.768 88.4 406.588 88.6067 407.308 89.02C408.041 89.4333 408.621 90.04 409.048 90.84C409.488 91.6267 409.707 92.5933 409.707 93.74C409.707 94.8733 409.494 95.84 409.068 96.64C408.641 97.44 408.061 98.0533 407.328 98.48C406.608 98.8933 405.781 99.1 404.848 99.1ZM404.948 97.84C405.694 97.84 406.361 97.6733 406.948 97.34C407.548 96.9933 408.014 96.5133 408.348 95.9C408.694 95.2733 408.868 94.5533 408.868 93.74C408.868 92.9133 408.694 92.1933 408.348 91.58C408.014 90.9667 407.548 90.4933 406.948 90.16C406.361 89.8133 405.694 89.64 404.948 89.64C404.214 89.64 403.554 89.8133 402.968 90.16C402.381 90.4933 401.914 90.9667 401.568 91.58C401.221 92.1933 401.048 92.9133 401.048 93.74C401.048 94.5533 401.221 95.2733 401.568 95.9C401.914 96.5133 402.381 96.9933 402.968 97.34C403.554 97.6733 404.214 97.84 404.948 97.84ZM408.908 99V95.84L409.048 93.72L408.848 91.6V84.16H410.268V99H408.908ZM131.4 131.1C130.48 131.1 129.653 130.893 128.92 130.48C128.187 130.053 127.607 129.44 127.18 128.64C126.753 127.84 126.54 126.873 126.54 125.74C126.54 124.593 126.753 123.627 127.18 122.84C127.62 122.04 128.207 121.433 128.94 121.02C129.673 120.607 130.493 120.4 131.4 120.4C132.4 120.4 133.293 120.627 134.08 121.08C134.88 121.52 135.507 122.14 135.96 122.94C136.413 123.74 136.64 124.673 136.64 125.74C136.64 126.793 136.413 127.727 135.96 128.54C135.507 129.34 134.88 129.967 134.08 130.42C133.293 130.873 132.4 131.1 131.4 131.1ZM125.98 131V116.16H127.4V123.6L127.2 125.72L127.34 127.84V131H125.98ZM131.3 129.84C132.047 129.84 132.713 129.673 133.3 129.34C133.887 128.993 134.353 128.513 134.7 127.9C135.047 127.273 135.22 126.553 135.22 125.74C135.22 124.913 135.047 124.193 134.7 123.58C134.353 122.967 133.887 122.493 133.3 122.16C132.713 121.813 132.047 121.64 131.3 121.64C130.553 121.64 129.88 121.813 129.28 122.16C128.693 122.493 128.227 122.967 127.88 123.58C127.547 124.193 127.38 124.913 127.38 125.74C127.38 126.553 127.547 127.273 127.88 127.9C128.227 128.513 128.693 128.993 129.28 129.34C129.88 129.673 130.553 129.84 131.3 129.84ZM143.875 131.1C142.981 131.1 142.201 130.933 141.535 130.6C140.868 130.267 140.348 129.767 139.975 129.1C139.615 128.433 139.435 127.6 139.435 126.6V120.5H140.855V126.44C140.855 127.56 141.128 128.407 141.675 128.98C142.235 129.54 143.015 129.82 144.015 129.82C144.748 129.82 145.381 129.673 145.915 129.38C146.461 129.073 146.875 128.633 147.155 128.06C147.448 127.487 147.595 126.8 147.595 126V120.5H149.015V131H147.655V128.12L147.875 128.64C147.541 129.413 147.021 130.02 146.315 130.46C145.621 130.887 144.808 131.1 143.875 131.1ZM155.792 131.1C154.926 131.1 154.106 130.98 153.332 130.74C152.559 130.487 151.952 130.173 151.512 129.8L152.152 128.68C152.579 129 153.126 129.28 153.792 129.52C154.459 129.747 155.159 129.86 155.892 129.86C156.892 129.86 157.612 129.707 158.052 129.4C158.492 129.08 158.712 128.66 158.712 128.14C158.712 127.753 158.586 127.453 158.332 127.24C158.092 127.013 157.772 126.847 157.372 126.74C156.972 126.62 156.526 126.52 156.032 126.44C155.539 126.36 155.046 126.267 154.552 126.16C154.072 126.053 153.632 125.9 153.232 125.7C152.832 125.487 152.506 125.2 152.252 124.84C152.012 124.48 151.892 124 151.892 123.4C151.892 122.827 152.052 122.313 152.372 121.86C152.692 121.407 153.159 121.053 153.772 120.8C154.399 120.533 155.159 120.4 156.052 120.4C156.732 120.4 157.412 120.493 158.092 120.68C158.772 120.853 159.332 121.087 159.772 121.38L159.152 122.52C158.686 122.2 158.186 121.973 157.652 121.84C157.119 121.693 156.586 121.62 156.052 121.62C155.106 121.62 154.406 121.787 153.952 122.12C153.512 122.44 153.292 122.853 153.292 123.36C153.292 123.76 153.412 124.073 153.652 124.3C153.906 124.527 154.232 124.707 154.632 124.84C155.046 124.96 155.492 125.06 155.972 125.14C156.466 125.22 156.952 125.32 157.432 125.44C157.926 125.547 158.372 125.7 158.772 125.9C159.186 126.087 159.512 126.36 159.752 126.72C160.006 127.067 160.132 127.527 160.132 128.1C160.132 128.713 159.959 129.247 159.612 129.7C159.279 130.14 158.786 130.487 158.132 130.74C157.492 130.98 156.712 131.1 155.792 131.1ZM162.738 131V120.5H164.158V131H162.738ZM163.458 118.18C163.164 118.18 162.918 118.08 162.718 117.88C162.518 117.68 162.418 117.44 162.418 117.16C162.418 116.88 162.518 116.647 162.718 116.46C162.918 116.26 163.164 116.16 163.458 116.16C163.751 116.16 163.998 116.253 164.198 116.44C164.398 116.627 164.498 116.86 164.498 117.14C164.498 117.433 164.398 117.68 164.198 117.88C164.011 118.08 163.764 118.18 163.458 118.18ZM173.469 120.4C174.322 120.4 175.069 120.567 175.709 120.9C176.362 121.22 176.869 121.713 177.229 122.38C177.602 123.047 177.789 123.887 177.789 124.9V131H176.369V125.04C176.369 123.933 176.089 123.1 175.529 122.54C174.982 121.967 174.209 121.68 173.209 121.68C172.462 121.68 171.809 121.833 171.249 122.14C170.702 122.433 170.276 122.867 169.969 123.44C169.676 124 169.529 124.68 169.529 125.48V131H168.109V120.5H169.469V123.38L169.249 122.84C169.582 122.08 170.116 121.487 170.849 121.06C171.582 120.62 172.456 120.4 173.469 120.4ZM186.085 131.1C184.991 131.1 184.031 130.873 183.205 130.42C182.378 129.953 181.731 129.32 181.265 128.52C180.798 127.707 180.565 126.78 180.565 125.74C180.565 124.7 180.785 123.78 181.225 122.98C181.678 122.18 182.291 121.553 183.065 121.1C183.851 120.633 184.731 120.4 185.705 120.4C186.691 120.4 187.565 120.627 188.325 121.08C189.098 121.52 189.705 122.147 190.145 122.96C190.585 123.76 190.805 124.687 190.805 125.74C190.805 125.807 190.798 125.88 190.785 125.96C190.785 126.027 190.785 126.1 190.785 126.18H181.645V125.12H190.025L189.465 125.54C189.465 124.78 189.298 124.107 188.965 123.52C188.645 122.92 188.205 122.453 187.645 122.12C187.085 121.787 186.438 121.62 185.705 121.62C184.985 121.62 184.338 121.787 183.765 122.12C183.191 122.453 182.745 122.92 182.425 123.52C182.105 124.12 181.945 124.807 181.945 125.58V125.8C181.945 126.6 182.118 127.307 182.465 127.92C182.825 128.52 183.318 128.993 183.945 129.34C184.585 129.673 185.311 129.84 186.125 129.84C186.765 129.84 187.358 129.727 187.905 129.5C188.465 129.273 188.945 128.927 189.345 128.46L190.145 129.38C189.678 129.94 189.091 130.367 188.385 130.66C187.691 130.953 186.925 131.1 186.085 131.1ZM196.515 131.1C195.648 131.1 194.828 130.98 194.055 130.74C193.282 130.487 192.675 130.173 192.235 129.8L192.875 128.68C193.302 129 193.848 129.28 194.515 129.52C195.182 129.747 195.882 129.86 196.615 129.86C197.615 129.86 198.335 129.707 198.775 129.4C199.215 129.08 199.435 128.66 199.435 128.14C199.435 127.753 199.308 127.453 199.055 127.24C198.815 127.013 198.495 126.847 198.095 126.74C197.695 126.62 197.248 126.52 196.755 126.44C196.262 126.36 195.768 126.267 195.275 126.16C194.795 126.053 194.355 125.9 193.955 125.7C193.555 125.487 193.228 125.2 192.975 124.84C192.735 124.48 192.615 124 192.615 123.4C192.615 122.827 192.775 122.313 193.095 121.86C193.415 121.407 193.882 121.053 194.495 120.8C195.122 120.533 195.882 120.4 196.775 120.4C197.455 120.4 198.135 120.493 198.815 120.68C199.495 120.853 200.055 121.087 200.495 121.38L199.875 122.52C199.408 122.2 198.908 121.973 198.375 121.84C197.842 121.693 197.308 121.62 196.775 121.62C195.828 121.62 195.128 121.787 194.675 122.12C194.235 122.44 194.015 122.853 194.015 123.36C194.015 123.76 194.135 124.073 194.375 124.3C194.628 124.527 194.955 124.707 195.355 124.84C195.768 124.96 196.215 125.06 196.695 125.14C197.188 125.22 197.675 125.32 198.155 125.44C198.648 125.547 199.095 125.7 199.495 125.9C199.908 126.087 200.235 126.36 200.475 126.72C200.728 127.067 200.855 127.527 200.855 128.1C200.855 128.713 200.682 129.247 200.335 129.7C200.002 130.14 199.508 130.487 198.855 130.74C198.215 130.98 197.435 131.1 196.515 131.1ZM206.28 131.1C205.414 131.1 204.594 130.98 203.82 130.74C203.047 130.487 202.44 130.173 202 129.8L202.64 128.68C203.067 129 203.614 129.28 204.28 129.52C204.947 129.747 205.647 129.86 206.38 129.86C207.38 129.86 208.1 129.707 208.54 129.4C208.98 129.08 209.2 128.66 209.2 128.14C209.2 127.753 209.074 127.453 208.82 127.24C208.58 127.013 208.26 126.847 207.86 126.74C207.46 126.62 207.014 126.52 206.52 126.44C206.027 126.36 205.534 126.267 205.04 126.16C204.56 126.053 204.12 125.9 203.72 125.7C203.32 125.487 202.994 125.2 202.74 124.84C202.5 124.48 202.38 124 202.38 123.4C202.38 122.827 202.54 122.313 202.86 121.86C203.18 121.407 203.647 121.053 204.26 120.8C204.887 120.533 205.647 120.4 206.54 120.4C207.22 120.4 207.9 120.493 208.58 120.68C209.26 120.853 209.82 121.087 210.26 121.38L209.64 122.52C209.174 122.2 208.674 121.973 208.14 121.84C207.607 121.693 207.074 121.62 206.54 121.62C205.594 121.62 204.894 121.787 204.44 122.12C204 122.44 203.78 122.853 203.78 123.36C203.78 123.76 203.9 124.073 204.14 124.3C204.394 124.527 204.72 124.707 205.12 124.84C205.534 124.96 205.98 125.06 206.46 125.14C206.954 125.22 207.44 125.32 207.92 125.44C208.414 125.547 208.86 125.7 209.26 125.9C209.674 126.087 210 126.36 210.24 126.72C210.494 127.067 210.62 127.527 210.62 128.1C210.62 128.713 210.447 129.247 210.1 129.7C209.767 130.14 209.274 130.487 208.62 130.74C207.98 130.98 207.2 131.1 206.28 131.1ZM222.94 134.98C221.98 134.98 221.06 134.84 220.18 134.56C219.3 134.28 218.587 133.88 218.04 133.36L218.76 132.28C219.254 132.72 219.86 133.067 220.58 133.32C221.314 133.587 222.087 133.72 222.9 133.72C224.234 133.72 225.214 133.407 225.84 132.78C226.467 132.167 226.78 131.207 226.78 129.9V127.28L226.98 125.48L226.84 123.68V120.5H228.2V129.72C228.2 131.533 227.754 132.86 226.86 133.7C225.98 134.553 224.674 134.98 222.94 134.98ZM222.68 130.6C221.68 130.6 220.78 130.387 219.98 129.96C219.18 129.52 218.547 128.913 218.08 128.14C217.627 127.367 217.4 126.48 217.4 125.48C217.4 124.48 217.627 123.6 218.08 122.84C218.547 122.067 219.18 121.467 219.98 121.04C220.78 120.613 221.68 120.4 222.68 120.4C223.614 120.4 224.454 120.593 225.2 120.98C225.947 121.367 226.54 121.94 226.98 122.7C227.42 123.46 227.64 124.387 227.64 125.48C227.64 126.573 227.42 127.5 226.98 128.26C226.54 129.02 225.947 129.6 225.2 130C224.454 130.4 223.614 130.6 222.68 130.6ZM222.82 129.34C223.594 129.34 224.28 129.18 224.88 128.86C225.48 128.527 225.954 128.073 226.3 127.5C226.647 126.913 226.82 126.24 226.82 125.48C226.82 124.72 226.647 124.053 226.3 123.48C225.954 122.907 225.48 122.46 224.88 122.14C224.28 121.807 223.594 121.64 222.82 121.64C222.06 121.64 221.374 121.807 220.76 122.14C220.16 122.46 219.687 122.907 219.34 123.48C219.007 124.053 218.84 124.72 218.84 125.48C218.84 126.24 219.007 126.913 219.34 127.5C219.687 128.073 220.16 128.527 220.76 128.86C221.374 129.18 222.06 129.34 222.82 129.34ZM232.152 131V120.5H233.512V123.36L233.372 122.86C233.665 122.06 234.159 121.453 234.852 121.04C235.545 120.613 236.405 120.4 237.432 120.4V121.78C237.379 121.78 237.325 121.78 237.272 121.78C237.219 121.767 237.165 121.76 237.112 121.76C236.005 121.76 235.139 122.1 234.512 122.78C233.885 123.447 233.572 124.4 233.572 125.64V131H232.152ZM244.205 131.1C243.192 131.1 242.279 130.873 241.465 130.42C240.665 129.953 240.032 129.32 239.565 128.52C239.099 127.707 238.865 126.78 238.865 125.74C238.865 124.687 239.099 123.76 239.565 122.96C240.032 122.16 240.665 121.533 241.465 121.08C242.265 120.627 243.179 120.4 244.205 120.4C245.245 120.4 246.165 120.627 246.965 121.08C247.779 121.533 248.412 122.16 248.865 122.96C249.332 123.76 249.565 124.687 249.565 125.74C249.565 126.78 249.332 127.707 248.865 128.52C248.412 129.32 247.779 129.953 246.965 130.42C246.152 130.873 245.232 131.1 244.205 131.1ZM244.205 129.84C244.965 129.84 245.639 129.673 246.225 129.34C246.812 128.993 247.272 128.513 247.605 127.9C247.952 127.273 248.125 126.553 248.125 125.74C248.125 124.913 247.952 124.193 247.605 123.58C247.272 122.967 246.812 122.493 246.225 122.16C245.639 121.813 244.972 121.64 244.225 121.64C243.479 121.64 242.812 121.813 242.225 122.16C241.639 122.493 241.172 122.967 240.825 123.58C240.479 124.193 240.305 124.913 240.305 125.74C240.305 126.553 240.479 127.273 240.825 127.9C241.172 128.513 241.639 128.993 242.225 129.34C242.812 129.673 243.472 129.84 244.205 129.84ZM254.311 131L250.351 120.5H251.711L255.311 130.24H254.691L258.391 120.5H259.611L263.271 130.24H262.651L266.311 120.5H267.611L263.631 131H262.291L258.771 121.84H259.191L255.651 131H254.311ZM273.363 131.1C272.376 131.1 271.616 130.833 271.083 130.3C270.549 129.767 270.283 129.013 270.283 128.04V118.18H271.703V127.96C271.703 128.573 271.856 129.047 272.163 129.38C272.483 129.713 272.936 129.88 273.523 129.88C274.149 129.88 274.669 129.7 275.083 129.34L275.583 130.36C275.303 130.613 274.963 130.8 274.563 130.92C274.176 131.04 273.776 131.1 273.363 131.1ZM268.403 121.68V120.5H274.903V121.68H268.403ZM283.528 120.4C284.381 120.4 285.128 120.567 285.768 120.9C286.421 121.22 286.928 121.713 287.288 122.38C287.661 123.047 287.848 123.887 287.848 124.9V131H286.428V125.04C286.428 123.933 286.148 123.1 285.588 122.54C285.041 121.967 284.268 121.68 283.268 121.68C282.521 121.68 281.868 121.833 281.308 122.14C280.761 122.433 280.334 122.867 280.028 123.44C279.734 124 279.588 124.68 279.588 125.48V131H278.168V116.16H279.588V123.38L279.308 122.84C279.641 122.08 280.174 121.487 280.908 121.06C281.641 120.62 282.514 120.4 283.528 120.4ZM291.823 131.1C291.53 131.1 291.276 130.993 291.063 130.78C290.863 130.567 290.763 130.307 290.763 130C290.763 129.68 290.863 129.42 291.063 129.22C291.276 129.02 291.53 128.92 291.823 128.92C292.116 128.92 292.363 129.02 292.563 129.22C292.776 129.42 292.883 129.68 292.883 130C292.883 130.307 292.776 130.567 292.563 130.78C292.363 130.993 292.116 131.1 291.823 131.1Z" fill="#333333"/>
<rect width="100" height="100" rx="6" fill="#F0F0F0"/>
<path d="M36.6667 63.3333H42V44.6667H36.6667V63.3333ZM47.3333 63.3333H52.6667V36.6667H47.3333V63.3333ZM58 63.3333H63.3333V52.6667H58V63.3333ZM31.3333 74C29.8667 74 28.6111 73.4778 27.5667 72.4333C26.5222 71.3889 26 70.1333 26 68.6667V31.3333C26 29.8667 26.5222 28.6111 27.5667 27.5667C28.6111 26.5222 29.8667 26 31.3333 26H68.6667C70.1333 26 71.3889 26.5222 72.4333 27.5667C73.4778 28.6111 74 29.8667 74 31.3333V68.6667C74 70.1333 73.4778 71.3889 72.4333 72.4333C71.3889 73.4778 70.1333 74 68.6667 74H31.3333ZM31.3333 68.6667H68.6667V31.3333H31.3333V68.6667Z" fill="#001EF4"/>
</svg>
