<svg width="100" height="100" viewBox="0 0 100 100" fill="none" xmlns="http://www.w3.org/2000/svg">
<path d="M47.3333 42V34H39.3333V28.6666H47.3333V20.6666H52.6667V28.6666H60.6667V34H52.6667V42H47.3333ZM32.9 75.1C31.8556 74.0555 31.3333 72.8 31.3333 71.3333C31.3333 69.8666 31.8556 68.6111 32.9 67.5666C33.9445 66.5222 35.2 66 36.6667 66C38.1333 66 39.3889 66.5222 40.4333 67.5666C41.4778 68.6111 42 69.8666 42 71.3333C42 72.8 41.4778 74.0555 40.4333 75.1C39.3889 76.1444 38.1333 76.6666 36.6667 76.6666C35.2 76.6666 33.9445 76.1444 32.9 75.1ZM59.5667 75.1C58.5222 74.0555 58 72.8 58 71.3333C58 69.8666 58.5222 68.6111 59.5667 67.5666C60.6111 66.5222 61.8667 66 63.3333 66C64.8 66 66.0556 66.5222 67.1 67.5666C68.1445 68.6111 68.6667 69.8666 68.6667 71.3333C68.6667 72.8 68.1445 74.0555 67.1 75.1C66.0556 76.1444 64.8 76.6666 63.3333 76.6666C61.8667 76.6666 60.6111 76.1444 59.5667 75.1ZM20.6667 28.6666V23.3333H29.4L40.7333 47.3333H59.4L69.8 28.6666H75.8667L64.1333 49.8666C63.6445 50.7555 62.9889 51.4444 62.1667 51.9333C61.3445 52.4222 60.4445 52.6666 59.4667 52.6666H39.6L36.6667 58H68.6667V63.3333H36.6667C34.6667 63.3333 33.1445 62.4666 32.1 60.7333C31.0556 59 31.0222 57.2444 32 55.4666L35.6 48.9333L26 28.6666H20.6667Z" fill="#001EF4"/>
</svg>
