<svg width="64" height="64" viewBox="0 0 64 64" fill="none" xmlns="http://www.w3.org/2000/svg">
  <path d="M4.86663 28.2667L0.133301 23.5334C0.977745 22.7334 1.85552 21.9667 2.76663 21.2334C3.67775 20.5001 4.59997 19.8001 5.5333 19.1334L1.99997 16.6001L5.79997 11.2001L58.2 47.8667L54.4 53.3334L33.5333 38.7334C33.2666 38.689 33.0111 38.6667 32.7666 38.6667H32C29.7333 38.6667 27.5666 39.0667 25.5 39.8667C23.4333 40.6667 21.5555 41.8445 19.8666 43.4001L15.2 38.6667C16.6222 37.289 18.1889 36.1223 19.9 35.1667C21.6111 34.2112 23.4 33.4667 25.2666 32.9334L21.2666 30.1334C19.6222 30.8001 18.0555 31.6112 16.5666 32.5667C15.0777 33.5223 13.6889 34.6223 12.4 35.8667L7.7333 31.1334C8.84441 30.0667 9.99997 29.089 11.2 28.2001C12.4 27.3112 13.6666 26.489 15 25.7334L11.4 23.2001C10.2444 23.9556 9.12219 24.7445 8.0333 25.5667C6.94441 26.389 5.88886 27.289 4.86663 28.2667ZM28.2333 51.7668C27.1889 50.7223 26.6666 49.4668 26.6666 48.0001C26.6666 46.5334 27.1889 45.2779 28.2333 44.2334C29.2777 43.189 30.5333 42.6667 32 42.6667C33.4666 42.6667 34.7222 43.189 35.7666 44.2334C36.8111 45.2779 37.3333 46.5334 37.3333 48.0001C37.3333 49.4668 36.8111 50.7223 35.7666 51.7668C34.7222 52.8112 33.4666 53.3334 32 53.3334C30.5333 53.3334 29.2777 52.8112 28.2333 51.7668ZM26.7333 17.6667L19.2666 12.4667C21.3555 11.8445 23.4555 11.389 25.5666 11.1001C27.6777 10.8112 29.8222 10.6667 32 10.6667C37.9555 10.6667 43.6777 11.7667 49.1666 13.9667C54.6555 16.1667 59.5555 19.3556 63.8666 23.5334L59.1333 28.2667C55.4889 24.7556 51.3333 22.0556 46.6666 20.1667C42 18.2779 37.1111 17.3334 32 17.3334C31.1111 17.3334 30.2333 17.3556 29.3666 17.4001C28.5 17.4445 27.6222 17.5334 26.7333 17.6667ZM52.0666 35.4001L31.9333 21.3334C36.5111 21.3334 40.9 22.1667 45.1 23.8334C49.3 25.5001 53.0444 27.9112 56.3333 31.0667L52.0666 35.4001Z" fill="#001EF4"/>
</svg>