<svg width="100" height="100" viewBox="0 0 100 100" fill="none" xmlns="http://www.w3.org/2000/svg">
<path d="M46 58H54L52.4666 49.4C53.3555 48.9556 54.0555 48.3111 54.5666 47.4667C55.0777 46.6223 55.3333 45.6889 55.3333 44.6667C55.3333 43.2 54.8111 41.9445 53.7666 40.9C52.7222 39.8556 51.4666 39.3334 50 39.3334C48.5333 39.3334 47.2777 39.8556 46.2333 40.9C45.1888 41.9445 44.6666 43.2 44.6666 44.6667C44.6666 45.6889 44.9222 46.6223 45.4333 47.4667C45.9444 48.3111 46.6444 48.9556 47.5333 49.4L46 58ZM50 76.6667C43.8222 75.1111 38.7222 71.5667 34.7 66.0334C30.6777 60.5 28.6666 54.3556 28.6666 47.6V31.3334L50 23.3334L71.3333 31.3334V47.6C71.3333 54.3556 69.3222 60.5 65.3 66.0334C61.2777 71.5667 56.1777 75.1111 50 76.6667ZM50 71.0667C54.6222 69.6 58.4444 66.6667 61.4666 62.2667C64.4888 57.8667 66 52.9778 66 47.6V35L50 29L34 35V47.6C34 52.9778 35.5111 57.8667 38.5333 62.2667C41.5555 66.6667 45.3777 69.6 50 71.0667Z" fill="#001EF4"/>
</svg>
