<svg width="68" height="64" viewBox="0 0 68 64" fill="none" xmlns="http://www.w3.org/2000/svg">
  <g clip-path="url(#clip0_69_284)">
    <path d="M42.6977 30.4001L15.814 25.6001V61.0673C15.814 62.687 17.1117 64.0001 18.7127 64.0001H65.1013C66.7022 64.0001 68 62.687 68 61.0673V48.0001L42.6977 30.4001Z" fill="#185C37"/>
    <path d="M42.6977 0H18.7127C17.1117 0 15.814 1.31305 15.814 2.93279V16L42.6977 32L56.9302 36.8L68 32V16L42.6977 0Z" fill="#21A366"/>
    <path d="M15.814 16H42.6977V32H15.814V16Z" fill="#107C41"/>
    <path opacity="0.1" d="M35.0548 12.8H15.814V52.8H35.0548C36.6535 52.7948 37.9483 51.4848 37.9535 49.8673V15.7328C37.9483 14.1153 36.6535 12.8053 35.0548 12.8Z" fill="black"/>
    <path opacity="0.2" d="M33.4734 14.3999H15.814V54.3999H33.4734C35.0722 54.3946 36.3669 53.0847 36.3721 51.4671V17.3327C36.3669 15.7151 35.0722 14.4052 33.4734 14.3999Z" fill="black"/>
    <path opacity="0.2" d="M33.4734 14.3999H15.814V51.1999H33.4734C35.0722 51.1946 36.3669 49.8847 36.3721 48.2671V17.3327C36.3669 15.7151 35.0722 14.4052 33.4734 14.3999Z" fill="black"/>
    <path opacity="0.2" d="M31.892 14.3999H15.814V51.1999H31.892C33.4908 51.1946 34.7855 49.8847 34.7907 48.2671V17.3327C34.7855 15.7151 33.4908 14.4052 31.892 14.3999Z" fill="black"/>
    <path d="M2.89869 14.3999H31.892C33.4929 14.3999 34.7907 15.713 34.7907 17.3327V46.6671C34.7907 48.2868 33.4929 49.5999 31.892 49.5999H2.89869C1.29778 49.5999 0 48.2869 0 46.6671V17.3327C0 15.713 1.29778 14.3999 2.89869 14.3999Z" fill="url(#paint0_linear_69_284)"/>
    <path d="M8.9776 41.5328L15.0755 31.9728L9.4884 22.4656H13.9827L17.0316 28.5456C17.3131 29.1232 17.5061 29.552 17.6104 29.8352H17.65C17.8503 29.3744 18.0611 28.9269 18.2825 28.4928L21.5418 22.4688H25.6676L19.9382 31.92L25.8132 41.5328H21.4232L17.9014 34.8592C17.7355 34.5752 17.5948 34.277 17.4808 33.968H17.4286C17.3254 34.2707 17.1886 34.5606 17.0206 34.832L13.3945 41.5328H8.9776Z" fill="white"/>
    <path d="M65.1013 0H42.6977V16H68V2.93279C68 1.31305 66.7022 0 65.1013 0Z" fill="#33C481"/>
    <path d="M42.6977 32H68V48H42.6977V32Z" fill="#107C41"/>
  </g>
  <defs>
    <linearGradient id="paint0_linear_69_284" x1="6.04385" y1="12.1083" x2="29.1475" y2="51.6575" gradientUnits="userSpaceOnUse">
      <stop stop-color="#18884F"/>
      <stop offset="0.5" stop-color="#117E43"/>
      <stop offset="1" stop-color="#0B6631"/>
    </linearGradient>
    <clipPath id="clip0_69_284">
      <rect width="68" height="64" fill="white"/>
    </clipPath>
  </defs>
</svg>