<svg width="1366" height="20" viewBox="0 0 1366 20" fill="none" xmlns="http://www.w3.org/2000/svg">
<path d="M935.68 14V2.8H940.048C941.029 2.8 941.867 2.95467 942.56 3.264C943.253 3.57333 943.787 4.02133 944.16 4.608C944.533 5.19467 944.72 5.89333 944.72 6.704C944.72 7.51467 944.533 8.21333 944.16 8.8C943.787 9.376 943.253 9.824 942.56 10.144C941.867 10.4533 941.029 10.608 940.048 10.608H936.56L937.28 9.856V14H935.68ZM937.28 10.016L936.56 9.216H940C941.024 9.216 941.797 8.99733 942.32 8.56C942.853 8.12267 943.12 7.504 943.12 6.704C943.12 5.904 942.853 5.28533 942.32 4.848C941.797 4.41067 941.024 4.192 940 4.192H936.56L937.28 3.392V10.016ZM946.69 14V5.52H948.162V7.824L948.018 7.248C948.253 6.66133 948.648 6.21333 949.202 5.904C949.757 5.59467 950.44 5.44 951.25 5.44V6.928C951.186 6.91733 951.122 6.912 951.058 6.912C951.005 6.912 950.952 6.912 950.898 6.912C950.077 6.912 949.426 7.15733 948.946 7.648C948.466 8.13867 948.226 8.848 948.226 9.776V14H946.69ZM953.144 14V5.52H954.68V14H953.144ZM953.912 3.888C953.613 3.888 953.362 3.792 953.16 3.6C952.968 3.408 952.872 3.17333 952.872 2.896C952.872 2.608 952.968 2.368 953.16 2.176C953.362 1.984 953.613 1.888 953.912 1.888C954.21 1.888 954.456 1.984 954.648 2.176C954.85 2.35733 954.952 2.58667 954.952 2.864C954.952 3.152 954.856 3.39733 954.664 3.6C954.472 3.792 954.221 3.888 953.912 3.888ZM959.836 14L956.124 5.52H957.724L961.02 13.2H960.252L963.612 5.52H965.116L961.404 14H959.836ZM971.548 14V12.208L971.468 11.872V8.816C971.468 8.16533 971.276 7.664 970.892 7.312C970.519 6.94933 969.953 6.768 969.196 6.768C968.695 6.768 968.204 6.85333 967.724 7.024C967.244 7.184 966.839 7.40267 966.508 7.68L965.868 6.528C966.305 6.176 966.828 5.90933 967.436 5.728C968.055 5.536 968.7 5.44 969.372 5.44C970.535 5.44 971.431 5.72267 972.06 6.288C972.689 6.85333 973.004 7.71733 973.004 8.88V14H971.548ZM968.764 14.096C968.135 14.096 967.58 13.9893 967.1 13.776C966.631 13.5627 966.268 13.2693 966.012 12.896C965.756 12.512 965.628 12.08 965.628 11.6C965.628 11.1413 965.735 10.7253 965.948 10.352C966.172 9.97867 966.529 9.68 967.02 9.456C967.521 9.232 968.193 9.12 969.036 9.12H971.724V10.224H969.1C968.332 10.224 967.815 10.352 967.548 10.608C967.281 10.864 967.148 11.1733 967.148 11.536C967.148 11.952 967.313 12.288 967.644 12.544C967.975 12.7893 968.433 12.912 969.02 12.912C969.596 12.912 970.097 12.784 970.524 12.528C970.961 12.272 971.276 11.8987 971.468 11.408L971.772 12.464C971.569 12.9653 971.212 13.3653 970.7 13.664C970.188 13.952 969.543 14.096 968.764 14.096ZM979.543 14.096C978.679 14.096 977.905 13.9093 977.223 13.536C976.551 13.1627 976.023 12.6507 975.639 12C975.255 11.3493 975.063 10.6027 975.063 9.76C975.063 8.91733 975.255 8.17067 975.639 7.52C976.023 6.86933 976.551 6.36267 977.223 6C977.905 5.62667 978.679 5.44 979.543 5.44C980.311 5.44 980.993 5.59467 981.591 5.904C982.199 6.20267 982.668 6.65067 982.999 7.248L981.831 8C981.553 7.584 981.212 7.28 980.807 7.088C980.412 6.88533 979.985 6.784 979.527 6.784C978.972 6.784 978.476 6.90667 978.039 7.152C977.601 7.39733 977.255 7.744 976.999 8.192C976.743 8.62933 976.615 9.152 976.615 9.76C976.615 10.368 976.743 10.896 976.999 11.344C977.255 11.792 977.601 12.1387 978.039 12.384C978.476 12.6293 978.972 12.752 979.527 12.752C979.985 12.752 980.412 12.656 980.807 12.464C981.212 12.2613 981.553 11.952 981.831 11.536L982.999 12.272C982.668 12.8587 982.199 13.312 981.591 13.632C980.993 13.9413 980.311 14.096 979.543 14.096ZM985.246 17.2C984.841 17.2 984.446 17.1307 984.062 16.992C983.678 16.864 983.347 16.672 983.07 16.416L983.726 15.264C983.939 15.4667 984.174 15.6213 984.43 15.728C984.686 15.8347 984.958 15.888 985.246 15.888C985.619 15.888 985.929 15.792 986.174 15.6C986.419 15.408 986.649 15.0667 986.862 14.576L987.39 13.408L987.55 13.216L990.878 5.52H992.382L988.27 14.848C988.025 15.4453 987.747 15.9147 987.438 16.256C987.139 16.5973 986.809 16.8373 986.446 16.976C986.083 17.1253 985.683 17.2 985.246 17.2ZM987.262 14.272L983.39 5.52H984.99L988.286 13.072L987.262 14.272Z" fill="#333333"/>
<path d="M1124.9 14V4.192H1121.06V2.8H1130.33V4.192H1126.49V14H1124.9ZM1134.75 14.096C1133.84 14.096 1133.04 13.9093 1132.35 13.536C1131.66 13.1627 1131.13 12.6507 1130.75 12C1130.37 11.3493 1130.19 10.6027 1130.19 9.76C1130.19 8.91733 1130.37 8.17067 1130.73 7.52C1131.1 6.86933 1131.61 6.36267 1132.25 6C1132.9 5.62667 1133.63 5.44 1134.44 5.44C1135.26 5.44 1135.99 5.62133 1136.62 5.984C1137.25 6.34667 1137.74 6.85867 1138.09 7.52C1138.45 8.17067 1138.64 8.93333 1138.64 9.808C1138.64 9.872 1138.63 9.94667 1138.62 10.032C1138.62 10.1173 1138.61 10.1973 1138.6 10.272H1131.39V9.168H1137.8L1137.18 9.552C1137.19 9.008 1137.08 8.52267 1136.84 8.096C1136.61 7.66933 1136.28 7.33867 1135.87 7.104C1135.46 6.85867 1134.99 6.736 1134.44 6.736C1133.91 6.736 1133.44 6.85867 1133.02 7.104C1132.6 7.33867 1132.28 7.67467 1132.04 8.112C1131.81 8.53867 1131.69 9.02933 1131.69 9.584V9.84C1131.69 10.4053 1131.82 10.912 1132.08 11.36C1132.34 11.7973 1132.71 12.1387 1133.18 12.384C1133.65 12.6293 1134.19 12.752 1134.8 12.752C1135.3 12.752 1135.75 12.6667 1136.16 12.496C1136.57 12.3253 1136.93 12.0693 1137.24 11.728L1138.09 12.72C1137.71 13.168 1137.23 13.5093 1136.65 13.744C1136.09 13.9787 1135.45 14.096 1134.75 14.096ZM1140.77 14V5.52H1142.24V7.824L1142.1 7.248C1142.33 6.66133 1142.73 6.21333 1143.28 5.904C1143.84 5.59467 1144.52 5.44 1145.33 5.44V6.928C1145.26 6.91733 1145.2 6.912 1145.14 6.912C1145.08 6.912 1145.03 6.912 1144.98 6.912C1144.16 6.912 1143.5 7.15733 1143.02 7.648C1142.54 8.13867 1142.3 8.848 1142.3 9.776V14H1140.77ZM1157.83 5.44C1158.51 5.44 1159.11 5.57333 1159.64 5.84C1160.16 6.10667 1160.57 6.512 1160.85 7.056C1161.15 7.6 1161.3 8.288 1161.3 9.12V14H1159.77V9.296C1159.77 8.47467 1159.57 7.856 1159.19 7.44C1158.81 7.024 1158.27 6.816 1157.57 6.816C1157.06 6.816 1156.61 6.92267 1156.23 7.136C1155.85 7.34933 1155.55 7.664 1155.33 8.08C1155.13 8.496 1155.03 9.01333 1155.03 9.632V14H1153.49V9.296C1153.49 8.47467 1153.3 7.856 1152.92 7.44C1152.54 7.024 1152.01 6.816 1151.3 6.816C1150.8 6.816 1150.36 6.92267 1149.97 7.136C1149.59 7.34933 1149.29 7.664 1149.08 8.08C1148.86 8.496 1148.76 9.01333 1148.76 9.632V14H1147.22V5.52H1148.69V7.776L1148.45 7.2C1148.72 6.64533 1149.13 6.21333 1149.69 5.904C1150.24 5.59467 1150.89 5.44 1151.62 5.44C1152.43 5.44 1153.13 5.64267 1153.72 6.048C1154.3 6.44267 1154.69 7.04533 1154.87 7.856L1154.25 7.6C1154.5 6.94933 1154.95 6.42667 1155.59 6.032C1156.23 5.63733 1156.98 5.44 1157.83 5.44ZM1166.56 14.096C1165.86 14.096 1165.18 14 1164.54 13.808C1163.91 13.616 1163.42 13.3813 1163.06 13.104L1163.7 11.888C1164.06 12.1333 1164.51 12.3413 1165.04 12.512C1165.57 12.6827 1166.12 12.768 1166.67 12.768C1167.39 12.768 1167.9 12.6667 1168.21 12.464C1168.53 12.2613 1168.69 11.9787 1168.69 11.616C1168.69 11.3493 1168.59 11.1413 1168.4 10.992C1168.21 10.8427 1167.95 10.7307 1167.63 10.656C1167.32 10.5813 1166.98 10.5173 1166.59 10.464C1166.21 10.4 1165.82 10.3253 1165.44 10.24C1165.06 10.144 1164.7 10.016 1164.38 9.856C1164.06 9.68533 1163.81 9.456 1163.62 9.168C1163.42 8.86933 1163.33 8.47467 1163.33 7.984C1163.33 7.472 1163.47 7.024 1163.76 6.64C1164.05 6.256 1164.45 5.96267 1164.98 5.76C1165.51 5.54667 1166.14 5.44 1166.86 5.44C1167.42 5.44 1167.98 5.50933 1168.54 5.648C1169.12 5.776 1169.59 5.96267 1169.95 6.208L1169.3 7.424C1168.91 7.168 1168.51 6.992 1168.1 6.896C1167.68 6.8 1167.26 6.752 1166.85 6.752C1166.18 6.752 1165.67 6.864 1165.34 7.088C1165.01 7.30133 1164.85 7.57867 1164.85 7.92C1164.85 8.208 1164.94 8.432 1165.14 8.592C1165.34 8.74133 1165.59 8.85867 1165.9 8.944C1166.22 9.02933 1166.58 9.104 1166.96 9.168C1167.34 9.22133 1167.73 9.296 1168.11 9.392C1168.5 9.47733 1168.84 9.6 1169.15 9.76C1169.47 9.92 1169.73 10.144 1169.92 10.432C1170.12 10.72 1170.22 11.104 1170.22 11.584C1170.22 12.096 1170.07 12.5387 1169.78 12.912C1169.48 13.2853 1169.06 13.5787 1168.51 13.792C1167.97 13.9947 1167.32 14.096 1166.56 14.096Z" fill="#333333"/>
<path d="M1303.94 14.128C1303.09 14.128 1302.27 14 1301.5 13.744C1300.72 13.4773 1300.1 13.136 1299.66 12.72L1300.25 11.472C1300.67 11.8453 1301.22 12.1547 1301.88 12.4C1302.54 12.6453 1303.23 12.768 1303.94 12.768C1304.59 12.768 1305.12 12.6933 1305.53 12.544C1305.93 12.3947 1306.23 12.192 1306.42 11.936C1306.62 11.6693 1306.71 11.3707 1306.71 11.04C1306.71 10.656 1306.58 10.3467 1306.33 10.112C1306.08 9.87733 1305.76 9.69067 1305.35 9.552C1304.96 9.40267 1304.52 9.27467 1304.04 9.168C1303.56 9.06133 1303.07 8.93867 1302.58 8.8C1302.1 8.65067 1301.66 8.464 1301.26 8.24C1300.86 8.016 1300.54 7.71733 1300.3 7.344C1300.05 6.96 1299.93 6.46933 1299.93 5.872C1299.93 5.296 1300.08 4.768 1300.38 4.288C1300.69 3.79733 1301.15 3.408 1301.78 3.12C1302.42 2.82133 1303.23 2.672 1304.22 2.672C1304.87 2.672 1305.51 2.75733 1306.15 2.928C1306.79 3.09867 1307.35 3.344 1307.82 3.664L1307.29 4.944C1306.81 4.624 1306.3 4.39467 1305.77 4.256C1305.23 4.10667 1304.72 4.032 1304.22 4.032C1303.59 4.032 1303.07 4.112 1302.66 4.272C1302.26 4.432 1301.96 4.64533 1301.77 4.912C1301.59 5.17867 1301.5 5.47733 1301.5 5.808C1301.5 6.20267 1301.62 6.51733 1301.86 6.752C1302.12 6.98667 1302.45 7.17333 1302.84 7.312C1303.25 7.45067 1303.69 7.57867 1304.17 7.696C1304.65 7.80267 1305.13 7.92533 1305.61 8.064C1306.1 8.20267 1306.54 8.384 1306.94 8.608C1307.34 8.832 1307.67 9.13067 1307.91 9.504C1308.16 9.87733 1308.28 10.3573 1308.28 10.944C1308.28 11.5093 1308.13 12.0373 1307.82 12.528C1307.51 13.008 1307.03 13.3973 1306.38 13.696C1305.74 13.984 1304.93 14.128 1303.94 14.128ZM1313.96 14.096C1313.24 14.096 1312.6 13.9627 1312.04 13.696C1311.5 13.4293 1311.07 13.024 1310.76 12.48C1310.46 11.9253 1310.31 11.232 1310.31 10.4V5.52H1311.85V10.224C1311.85 11.056 1312.05 11.68 1312.44 12.096C1312.85 12.512 1313.41 12.72 1314.14 12.72C1314.67 12.72 1315.13 12.6133 1315.53 12.4C1315.92 12.176 1316.23 11.856 1316.44 11.44C1316.65 11.0133 1316.76 10.5013 1316.76 9.904V5.52H1318.3V14H1316.84V11.712L1317.08 12.32C1316.8 12.8853 1316.39 13.3227 1315.83 13.632C1315.28 13.9413 1314.65 14.096 1313.96 14.096ZM1325.72 14.096C1325.01 14.096 1324.37 13.936 1323.78 13.616C1323.21 13.2853 1322.74 12.8 1322.39 12.16C1322.05 11.52 1321.88 10.72 1321.88 9.76C1321.88 8.8 1322.04 8 1322.37 7.36C1322.71 6.72 1323.17 6.24 1323.75 5.92C1324.34 5.6 1324.99 5.44 1325.72 5.44C1326.55 5.44 1327.29 5.62133 1327.93 5.984C1328.57 6.34667 1329.07 6.85333 1329.45 7.504C1329.82 8.144 1330.01 8.896 1330.01 9.76C1330.01 10.624 1329.82 11.3813 1329.45 12.032C1329.07 12.6827 1328.57 13.1893 1327.93 13.552C1327.29 13.9147 1326.55 14.096 1325.72 14.096ZM1321.22 17.104V5.52H1322.69V7.808L1322.6 9.776L1322.76 11.744V17.104H1321.22ZM1325.59 12.752C1326.13 12.752 1326.62 12.6293 1327.05 12.384C1327.48 12.1387 1327.82 11.792 1328.07 11.344C1328.33 10.8853 1328.45 10.3573 1328.45 9.76C1328.45 9.152 1328.33 8.62933 1328.07 8.192C1327.82 7.744 1327.48 7.39733 1327.05 7.152C1326.62 6.90667 1326.13 6.784 1325.59 6.784C1325.06 6.784 1324.57 6.90667 1324.13 7.152C1323.71 7.39733 1323.37 7.744 1323.11 8.192C1322.86 8.62933 1322.74 9.152 1322.74 9.76C1322.74 10.3573 1322.86 10.8853 1323.11 11.344C1323.37 11.792 1323.71 12.1387 1324.13 12.384C1324.57 12.6293 1325.06 12.752 1325.59 12.752ZM1336.62 14.096C1335.92 14.096 1335.27 13.936 1334.69 13.616C1334.11 13.2853 1333.65 12.8 1333.3 12.16C1332.95 11.52 1332.78 10.72 1332.78 9.76C1332.78 8.8 1332.95 8 1333.28 7.36C1333.62 6.72 1334.08 6.24 1334.66 5.92C1335.24 5.6 1335.9 5.44 1336.62 5.44C1337.46 5.44 1338.19 5.62133 1338.83 5.984C1339.47 6.34667 1339.98 6.85333 1340.35 7.504C1340.73 8.144 1340.91 8.896 1340.91 9.76C1340.91 10.624 1340.73 11.3813 1340.35 12.032C1339.98 12.6827 1339.47 13.1893 1338.83 13.552C1338.19 13.9147 1337.46 14.096 1336.62 14.096ZM1332.13 17.104V5.52H1333.6V7.808L1333.5 9.776L1333.66 11.744V17.104H1332.13ZM1336.5 12.752C1337.04 12.752 1337.53 12.6293 1337.95 12.384C1338.39 12.1387 1338.73 11.792 1338.98 11.344C1339.23 10.8853 1339.36 10.3573 1339.36 9.76C1339.36 9.152 1339.23 8.62933 1338.98 8.192C1338.73 7.744 1338.39 7.39733 1337.95 7.152C1337.53 6.90667 1337.04 6.784 1336.5 6.784C1335.96 6.784 1335.48 6.90667 1335.04 7.152C1334.61 7.39733 1334.27 7.744 1334.02 8.192C1333.77 8.62933 1333.65 9.152 1333.65 9.76C1333.65 10.3573 1333.77 10.8853 1334.02 11.344C1334.27 11.792 1334.61 12.1387 1335.04 12.384C1335.48 12.6293 1335.96 12.752 1336.5 12.752ZM1346.67 14.096C1345.81 14.096 1345.06 13.9093 1344.39 13.536C1343.73 13.1627 1343.21 12.6507 1342.83 12C1342.44 11.3387 1342.25 10.592 1342.25 9.76C1342.25 8.91733 1342.44 8.17067 1342.83 7.52C1343.21 6.86933 1343.73 6.36267 1344.39 6C1345.06 5.62667 1345.81 5.44 1346.67 5.44C1347.51 5.44 1348.26 5.62667 1348.92 6C1349.59 6.36267 1350.12 6.86933 1350.49 7.52C1350.87 8.16 1351.07 8.90667 1351.07 9.76C1351.07 10.6027 1350.87 11.3493 1350.49 12C1350.12 12.6507 1349.59 13.1627 1348.92 13.536C1348.26 13.9093 1347.51 14.096 1346.67 14.096ZM1346.67 12.752C1347.21 12.752 1347.7 12.6293 1348.12 12.384C1348.56 12.1387 1348.9 11.792 1349.15 11.344C1349.39 10.8853 1349.51 10.3573 1349.51 9.76C1349.51 9.152 1349.39 8.62933 1349.15 8.192C1348.9 7.744 1348.56 7.39733 1348.12 7.152C1347.7 6.90667 1347.21 6.784 1346.67 6.784C1346.12 6.784 1345.64 6.90667 1345.21 7.152C1344.78 7.39733 1344.44 7.744 1344.19 8.192C1343.93 8.62933 1343.8 9.152 1343.8 9.76C1343.8 10.3573 1343.93 10.8853 1344.19 11.344C1344.44 11.792 1344.78 12.1387 1345.21 12.384C1345.64 12.6293 1346.12 12.752 1346.67 12.752ZM1353.19 14V5.52H1354.66V7.824L1354.52 7.248C1354.75 6.66133 1355.15 6.21333 1355.7 5.904C1356.26 5.59467 1356.94 5.44 1357.75 5.44V6.928C1357.69 6.91733 1357.62 6.912 1357.56 6.912C1357.51 6.912 1357.45 6.912 1357.4 6.912C1356.58 6.912 1355.93 7.15733 1355.45 7.648C1354.97 8.13867 1354.73 8.848 1354.73 9.776V14H1353.19ZM1362.9 14.096C1362.05 14.096 1361.38 13.8667 1360.92 13.408C1360.45 12.9493 1360.21 12.2933 1360.21 11.44V3.664H1361.75V11.376C1361.75 11.8347 1361.86 12.1867 1362.08 12.432C1362.32 12.6773 1362.65 12.8 1363.08 12.8C1363.56 12.8 1363.96 12.6667 1364.28 12.4L1364.76 13.504C1364.52 13.7067 1364.24 13.856 1363.91 13.952C1363.59 14.048 1363.25 14.096 1362.9 14.096ZM1358.77 6.784V5.52H1364.18V6.784H1358.77Z" fill="#333333"/>
<path d="M5.656 15.042C4.956 15.042 4.30733 14.916 3.71 14.664C3.11267 14.412 2.59 14.062 2.142 13.614C1.694 13.1567 1.344 12.6293 1.092 12.032C0.849333 11.4347 0.728 10.7907 0.728 10.1C0.728 9.40933 0.854 8.76533 1.106 8.168C1.358 7.57067 1.708 7.048 2.156 6.6C2.604 6.14267 3.12667 5.788 3.724 5.536C4.33067 5.284 4.984 5.158 5.684 5.158C6.384 5.158 7.03267 5.284 7.63 5.536C8.23667 5.77867 8.75933 6.124 9.198 6.572C9.646 7.02 9.99133 7.54267 10.234 8.14C10.486 8.728 10.612 9.372 10.612 10.072C10.612 10.772 10.486 11.4253 10.234 12.032C9.982 12.6293 9.62733 13.1567 9.17 13.614C8.722 14.062 8.19933 14.412 7.602 14.664C7.00467 14.916 6.356 15.042 5.656 15.042ZM5.642 14.524C6.27667 14.524 6.86 14.412 7.392 14.188C7.924 13.9547 8.39067 13.6373 8.792 13.236C9.20267 12.8347 9.52 12.3633 9.744 11.822C9.968 11.2713 10.08 10.688 10.08 10.072C10.08 9.44667 9.968 8.868 9.744 8.336C9.52933 7.804 9.22133 7.33733 8.82 6.936C8.428 6.53467 7.96133 6.22667 7.42 6.012C6.888 5.788 6.30933 5.676 5.684 5.676C5.04933 5.676 4.46133 5.788 3.92 6.012C3.37867 6.236 2.90733 6.55333 2.506 6.964C2.114 7.36533 1.806 7.832 1.582 8.364C1.358 8.896 1.246 9.47467 1.246 10.1C1.246 10.716 1.358 11.2947 1.582 11.836C1.806 12.368 2.114 12.8393 2.506 13.25C2.90733 13.6513 3.374 13.964 3.906 14.188C4.44733 14.412 5.026 14.524 5.642 14.524ZM5.782 13.012C5.222 13.012 4.72267 12.8907 4.284 12.648C3.84533 12.396 3.5 12.0507 3.248 11.612C2.996 11.1733 2.87 10.6693 2.87 10.1C2.87 9.53067 2.996 9.02667 3.248 8.588C3.5 8.14933 3.84533 7.80867 4.284 7.566C4.72267 7.314 5.222 7.188 5.782 7.188C6.258 7.188 6.68733 7.286 7.07 7.482C7.462 7.66867 7.77467 7.93 8.008 8.266L7.406 8.714C7.21 8.44333 6.972 8.24267 6.692 8.112C6.412 7.98133 6.104 7.916 5.768 7.916C5.36667 7.916 5.00733 8.00933 4.69 8.196C4.382 8.37333 4.13467 8.62533 3.948 8.952C3.76133 9.27867 3.668 9.66133 3.668 10.1C3.668 10.5387 3.76133 10.9213 3.948 11.248C4.13467 11.5747 4.382 11.8313 4.69 12.018C5.00733 12.1953 5.36667 12.284 5.768 12.284C6.104 12.284 6.412 12.2187 6.692 12.088C6.972 11.9573 7.21 11.7567 7.406 11.486L8.008 11.92C7.77467 12.2653 7.462 12.536 7.07 12.732C6.68733 12.9187 6.258 13.012 5.782 13.012ZM15.5304 15V14.286L19.6044 10.296C19.9777 9.932 20.2577 9.61467 20.4444 9.344C20.631 9.064 20.757 8.80267 20.8224 8.56C20.8877 8.31733 20.9204 8.08867 20.9204 7.874C20.9204 7.30467 20.7244 6.85667 20.3324 6.53C19.9497 6.20333 19.3804 6.04 18.6244 6.04C18.0457 6.04 17.5324 6.12867 17.0844 6.306C16.6457 6.48333 16.2677 6.75867 15.9504 7.132L15.2364 6.516C15.619 6.068 16.109 5.72267 16.7064 5.48C17.3037 5.23733 17.971 5.116 18.7084 5.116C19.371 5.116 19.945 5.22333 20.4304 5.438C20.9157 5.64333 21.289 5.94667 21.5504 6.348C21.821 6.74933 21.9564 7.22067 21.9564 7.762C21.9564 8.07933 21.9097 8.392 21.8164 8.7C21.7324 9.008 21.5737 9.33467 21.3404 9.68C21.1164 10.016 20.785 10.3987 20.3464 10.828L16.6084 14.496L16.3284 14.104H22.4044V15H15.5304ZM27.5481 15.084C26.7921 15.084 26.1201 14.888 25.5321 14.496C24.9441 14.0947 24.4821 13.5253 24.1461 12.788C23.8101 12.0413 23.6421 11.1453 23.6421 10.1C23.6421 9.05467 23.8101 8.16333 24.1461 7.426C24.4821 6.67933 24.9441 6.11 25.5321 5.718C26.1201 5.31667 26.7921 5.116 27.5481 5.116C28.3041 5.116 28.9761 5.31667 29.5641 5.718C30.1521 6.11 30.6141 6.67933 30.9501 7.426C31.2954 8.16333 31.4681 9.05467 31.4681 10.1C31.4681 11.1453 31.2954 12.0413 30.9501 12.788C30.6141 13.5253 30.1521 14.0947 29.5641 14.496C28.9761 14.888 28.3041 15.084 27.5481 15.084ZM27.5481 14.16C28.1267 14.16 28.6307 14.006 29.0601 13.698C29.4894 13.3807 29.8254 12.9233 30.0681 12.326C30.3107 11.7193 30.4321 10.9773 30.4321 10.1C30.4321 9.22267 30.3107 8.48533 30.0681 7.888C29.8254 7.28133 29.4894 6.824 29.0601 6.516C28.6307 6.19867 28.1267 6.04 27.5481 6.04C26.9881 6.04 26.4887 6.19867 26.0501 6.516C25.6114 6.824 25.2707 7.28133 25.0281 7.888C24.7854 8.48533 24.6641 9.22267 24.6641 10.1C24.6641 10.9773 24.7854 11.7193 25.0281 12.326C25.2707 12.9233 25.6114 13.3807 26.0501 13.698C26.4887 14.006 26.9881 14.16 27.5481 14.16ZM32.7296 15V14.286L36.8036 10.296C37.1769 9.932 37.4569 9.61467 37.6436 9.344C37.8303 9.064 37.9563 8.80267 38.0216 8.56C38.0869 8.31733 38.1196 8.08867 38.1196 7.874C38.1196 7.30467 37.9236 6.85667 37.5316 6.53C37.1489 6.20333 36.5796 6.04 35.8236 6.04C35.2449 6.04 34.7316 6.12867 34.2836 6.306C33.8449 6.48333 33.4669 6.75867 33.1496 7.132L32.4356 6.516C32.8183 6.068 33.3083 5.72267 33.9056 5.48C34.5029 5.23733 35.1703 5.116 35.9076 5.116C36.5703 5.116 37.1443 5.22333 37.6296 5.438C38.1149 5.64333 38.4883 5.94667 38.7496 6.348C39.0203 6.74933 39.1556 7.22067 39.1556 7.762C39.1556 8.07933 39.1089 8.392 39.0156 8.7C38.9316 9.008 38.7729 9.33467 38.5396 9.68C38.3156 10.016 37.9843 10.3987 37.5456 10.828L33.8076 14.496L33.5276 14.104H39.6036V15H32.7296ZM44.8593 15.084C43.9913 15.084 43.2586 14.8927 42.6613 14.51C42.0639 14.118 41.6113 13.558 41.3033 12.83C40.9953 12.0927 40.8413 11.2107 40.8413 10.184C40.8413 9.07333 41.0279 8.14467 41.4013 7.398C41.7839 6.642 42.3113 6.07267 42.9833 5.69C43.6553 5.30733 44.4346 5.116 45.3213 5.116C45.7599 5.116 46.1799 5.158 46.5813 5.242C46.9826 5.326 47.3373 5.46133 47.6453 5.648L47.2393 6.46C46.9873 6.292 46.6979 6.17533 46.3713 6.11C46.0446 6.03533 45.6993 5.998 45.3353 5.998C44.2806 5.998 43.4359 6.334 42.8013 7.006C42.1759 7.678 41.8633 8.68133 41.8633 10.016C41.8633 10.2213 41.8726 10.478 41.8913 10.786C41.9193 11.0847 41.9753 11.3833 42.0593 11.682L41.7093 11.416C41.8119 10.9307 42.0126 10.52 42.3113 10.184C42.6099 9.83867 42.9833 9.57733 43.4313 9.4C43.8793 9.22267 44.3693 9.134 44.9013 9.134C45.5546 9.134 46.1286 9.25533 46.6233 9.498C47.1179 9.74067 47.5053 10.0813 47.7853 10.52C48.0653 10.9587 48.2053 11.4767 48.2053 12.074C48.2053 12.6807 48.0606 13.2127 47.7713 13.67C47.4819 14.118 47.0806 14.468 46.5673 14.72C46.0633 14.9627 45.4939 15.084 44.8593 15.084ZM44.8173 14.23C45.2839 14.23 45.6946 14.146 46.0493 13.978C46.4133 13.8007 46.6979 13.5533 46.9033 13.236C47.1086 12.9093 47.2113 12.5313 47.2113 12.102C47.2113 11.458 46.9873 10.9447 46.5393 10.562C46.1006 10.1793 45.5033 9.988 44.7473 9.988C44.2433 9.988 43.8046 10.0813 43.4313 10.268C43.0579 10.4547 42.7639 10.7113 42.5493 11.038C42.3346 11.3553 42.2273 11.7193 42.2273 12.13C42.2273 12.4847 42.3253 12.8253 42.5213 13.152C42.7173 13.4693 43.0066 13.7307 43.3893 13.936C43.7813 14.132 44.2573 14.23 44.8173 14.23ZM56.6066 15.084C55.8786 15.084 55.1786 14.9673 54.5066 14.734C53.8439 14.4913 53.3306 14.1833 52.9666 13.81L53.3726 13.012C53.7179 13.348 54.1799 13.6327 54.7586 13.866C55.3466 14.09 55.9626 14.202 56.6066 14.202C57.2226 14.202 57.7219 14.1273 58.1046 13.978C58.4966 13.8193 58.7813 13.6093 58.9586 13.348C59.1453 13.0867 59.2386 12.7973 59.2386 12.48C59.2386 12.0973 59.1266 11.7893 58.9026 11.556C58.6879 11.3227 58.4033 11.1407 58.0486 11.01C57.6939 10.87 57.3019 10.7487 56.8726 10.646C56.4433 10.5433 56.0139 10.436 55.5846 10.324C55.1553 10.2027 54.7586 10.044 54.3946 9.848C54.0399 9.652 53.7506 9.39533 53.5266 9.078C53.3119 8.75133 53.2046 8.32667 53.2046 7.804C53.2046 7.31867 53.3306 6.87533 53.5826 6.474C53.8439 6.06333 54.2406 5.73667 54.7726 5.494C55.3046 5.242 55.9859 5.116 56.8166 5.116C57.3673 5.116 57.9133 5.19533 58.4546 5.354C58.9959 5.50333 59.4626 5.71333 59.8546 5.984L59.5046 6.81C59.0846 6.53 58.6366 6.32467 58.1606 6.194C57.6939 6.06333 57.2413 5.998 56.8026 5.998C56.2146 5.998 55.7293 6.07733 55.3466 6.236C54.9639 6.39467 54.6793 6.60933 54.4926 6.88C54.3153 7.14133 54.2266 7.44 54.2266 7.776C54.2266 8.15867 54.3339 8.46667 54.5486 8.7C54.7726 8.93333 55.0619 9.11533 55.4166 9.246C55.7806 9.37667 56.1773 9.49333 56.6066 9.596C57.0359 9.69867 57.4606 9.81067 57.8806 9.932C58.3099 10.0533 58.7019 10.212 59.0566 10.408C59.4206 10.5947 59.7099 10.8467 59.9246 11.164C60.1486 11.4813 60.2606 11.8967 60.2606 12.41C60.2606 12.886 60.1299 13.3293 59.8686 13.74C59.6073 14.1413 59.2059 14.468 58.6646 14.72C58.1326 14.9627 57.4466 15.084 56.6066 15.084ZM64.6319 15.07C63.9412 15.07 63.4092 14.8833 63.0359 14.51C62.6625 14.1367 62.4759 13.6093 62.4759 12.928V6.026H63.4699V12.872C63.4699 13.3013 63.5772 13.6327 63.7919 13.866C64.0159 14.0993 64.3332 14.216 64.7439 14.216C65.1825 14.216 65.5465 14.09 65.8359 13.838L66.1859 14.552C65.9899 14.7293 65.7519 14.86 65.4719 14.944C65.2012 15.028 64.9212 15.07 64.6319 15.07ZM61.1599 8.476V7.65H65.7099V8.476H61.1599ZM70.7316 15.07C70.0223 15.07 69.3829 14.9113 68.8136 14.594C68.2536 14.2673 67.8103 13.824 67.4836 13.264C67.1569 12.6947 66.9936 12.046 66.9936 11.318C66.9936 10.5807 67.1569 9.932 67.4836 9.372C67.8103 8.812 68.2536 8.37333 68.8136 8.056C69.3736 7.73867 70.0129 7.58 70.7316 7.58C71.4596 7.58 72.1036 7.73867 72.6636 8.056C73.2329 8.37333 73.6763 8.812 73.9936 9.372C74.3203 9.932 74.4836 10.5807 74.4836 11.318C74.4836 12.046 74.3203 12.6947 73.9936 13.264C73.6763 13.824 73.2329 14.2673 72.6636 14.594C72.0943 14.9113 71.4503 15.07 70.7316 15.07ZM70.7316 14.188C71.2636 14.188 71.7349 14.0713 72.1456 13.838C72.5563 13.5953 72.8783 13.2593 73.1116 12.83C73.3543 12.3913 73.4756 11.8873 73.4756 11.318C73.4756 10.7393 73.3543 10.2353 73.1116 9.806C72.8783 9.37667 72.5563 9.04533 72.1456 8.812C71.7349 8.56933 71.2683 8.448 70.7456 8.448C70.2229 8.448 69.7563 8.56933 69.3456 8.812C68.9349 9.04533 68.6083 9.37667 68.3656 9.806C68.1229 10.2353 68.0016 10.7393 68.0016 11.318C68.0016 11.8873 68.1229 12.3913 68.3656 12.83C68.6083 13.2593 68.9349 13.5953 69.3456 13.838C69.7563 14.0713 70.2183 14.188 70.7316 14.188ZM79.565 15.07C78.837 15.07 78.1836 14.9113 77.605 14.594C77.0356 14.2673 76.5876 13.824 76.261 13.264C75.9343 12.6947 75.771 12.046 75.771 11.318C75.771 10.5807 75.9343 9.932 76.261 9.372C76.5876 8.812 77.0356 8.37333 77.605 8.056C78.1836 7.73867 78.837 7.58 79.565 7.58C80.1903 7.58 80.755 7.70133 81.259 7.944C81.763 8.18667 82.1596 8.55067 82.449 9.036L81.707 9.54C81.455 9.16667 81.1423 8.89133 80.769 8.714C80.3956 8.53667 79.9896 8.448 79.551 8.448C79.0283 8.448 78.557 8.56933 78.137 8.812C77.717 9.04533 77.3856 9.37667 77.143 9.806C76.9003 10.2353 76.779 10.7393 76.779 11.318C76.779 11.8967 76.9003 12.4007 77.143 12.83C77.3856 13.2593 77.717 13.5953 78.137 13.838C78.557 14.0713 79.0283 14.188 79.551 14.188C79.9896 14.188 80.3956 14.0993 80.769 13.922C81.1423 13.7447 81.455 13.474 81.707 13.11L82.449 13.614C82.1596 14.09 81.763 14.454 81.259 14.706C80.755 14.9487 80.1903 15.07 79.565 15.07ZM85.0763 13.096L85.1043 11.822L89.6823 7.65H90.9003L87.6663 10.744L87.1063 11.22L85.0763 13.096ZM84.2923 15V4.612H85.2863V15H84.2923ZM89.9903 15L86.9243 11.178L87.5683 10.408L91.2083 15H89.9903ZM92.7005 15V4.612H93.6945V15H92.7005ZM96.5162 17.786C96.1709 17.786 95.8396 17.73 95.5222 17.618C95.2142 17.506 94.9482 17.338 94.7242 17.114L95.1862 16.372C95.3729 16.5493 95.5736 16.6847 95.7882 16.778C96.0122 16.8807 96.2596 16.932 96.5302 16.932C96.8569 16.932 97.1369 16.8387 97.3702 16.652C97.6129 16.4747 97.8416 16.1573 98.0562 15.7L98.5322 14.622L98.6442 14.468L101.668 7.65H102.648L98.9662 15.882C98.7609 16.358 98.5322 16.736 98.2802 17.016C98.0376 17.296 97.7716 17.492 97.4822 17.604C97.1929 17.7253 96.8709 17.786 96.5162 17.786ZM98.4762 15.21L95.0882 7.65H96.1242L99.1202 14.398L98.4762 15.21ZM103.668 15.07C103.462 15.07 103.285 14.9953 103.136 14.846C102.996 14.6967 102.926 14.5147 102.926 14.3C102.926 14.076 102.996 13.894 103.136 13.754C103.285 13.614 103.462 13.544 103.668 13.544C103.873 13.544 104.046 13.614 104.186 13.754C104.335 13.894 104.41 14.076 104.41 14.3C104.41 14.5147 104.335 14.6967 104.186 14.846C104.046 14.9953 103.873 15.07 103.668 15.07ZM108.842 15L113.322 5.2H114.344L118.824 15H117.732L113.616 5.802H114.036L109.92 15H108.842ZM110.606 12.382L110.914 11.542H116.612L116.92 12.382H110.606ZM120.236 15V4.612H121.23V15H120.236ZM123.995 15V4.612H124.989V15H123.995ZM131.419 15V7.65H132.371V9.652L132.273 9.302C132.479 8.742 132.824 8.31733 133.309 8.028C133.795 7.72933 134.397 7.58 135.115 7.58V8.546C135.078 8.546 135.041 8.546 135.003 8.546C134.966 8.53667 134.929 8.532 134.891 8.532C134.117 8.532 133.51 8.77 133.071 9.246C132.633 9.71267 132.413 10.38 132.413 11.248V15H131.419ZM136.929 15V7.65H137.923V15H136.929ZM137.433 6.026C137.228 6.026 137.055 5.956 136.915 5.816C136.775 5.676 136.705 5.508 136.705 5.312C136.705 5.116 136.775 4.95267 136.915 4.822C137.055 4.682 137.228 4.612 137.433 4.612C137.638 4.612 137.811 4.67733 137.951 4.808C138.091 4.93867 138.161 5.102 138.161 5.298C138.161 5.50333 138.091 5.676 137.951 5.816C137.82 5.956 137.648 6.026 137.433 6.026ZM143.825 17.786C143.153 17.786 142.509 17.688 141.893 17.492C141.277 17.296 140.777 17.016 140.395 16.652L140.899 15.896C141.244 16.204 141.669 16.4467 142.173 16.624C142.686 16.8107 143.227 16.904 143.797 16.904C144.73 16.904 145.416 16.6847 145.855 16.246C146.293 15.8167 146.513 15.1447 146.513 14.23V12.396L146.653 11.136L146.555 9.876V7.65H147.507V14.104C147.507 15.3733 147.194 16.302 146.569 16.89C145.953 17.4873 145.038 17.786 143.825 17.786ZM143.643 14.72C142.943 14.72 142.313 14.5707 141.753 14.272C141.193 13.964 140.749 13.5393 140.423 12.998C140.105 12.4567 139.947 11.836 139.947 11.136C139.947 10.436 140.105 9.82 140.423 9.288C140.749 8.74667 141.193 8.32667 141.753 8.028C142.313 7.72933 142.943 7.58 143.643 7.58C144.296 7.58 144.884 7.71533 145.407 7.986C145.929 8.25667 146.345 8.658 146.653 9.19C146.961 9.722 147.115 10.3707 147.115 11.136C147.115 11.9013 146.961 12.55 146.653 13.082C146.345 13.614 145.929 14.02 145.407 14.3C144.884 14.58 144.296 14.72 143.643 14.72ZM143.741 13.838C144.282 13.838 144.763 13.726 145.183 13.502C145.603 13.2687 145.934 12.9513 146.177 12.55C146.419 12.1393 146.541 11.668 146.541 11.136C146.541 10.604 146.419 10.1373 146.177 9.736C145.934 9.33467 145.603 9.022 145.183 8.798C144.763 8.56467 144.282 8.448 143.741 8.448C143.209 8.448 142.728 8.56467 142.299 8.798C141.879 9.022 141.547 9.33467 141.305 9.736C141.071 10.1373 140.955 10.604 140.955 11.136C140.955 11.668 141.071 12.1393 141.305 12.55C141.547 12.9513 141.879 13.2687 142.299 13.502C142.728 13.726 143.209 13.838 143.741 13.838ZM154.025 7.58C154.622 7.58 155.145 7.69667 155.593 7.93C156.05 8.154 156.405 8.49933 156.657 8.966C156.918 9.43267 157.049 10.0207 157.049 10.73V15H156.055V10.828C156.055 10.0533 155.859 9.47 155.467 9.078C155.084 8.67667 154.543 8.476 153.843 8.476C153.32 8.476 152.863 8.58333 152.471 8.798C152.088 9.00333 151.789 9.30667 151.575 9.708C151.369 10.1 151.267 10.576 151.267 11.136V15H150.273V4.612H151.267V9.666L151.071 9.288C151.304 8.756 151.677 8.34067 152.191 8.042C152.704 7.734 153.315 7.58 154.025 7.58ZM162.058 15.07C161.367 15.07 160.835 14.8833 160.462 14.51C160.088 14.1367 159.902 13.6093 159.902 12.928V6.026H160.896V12.872C160.896 13.3013 161.003 13.6327 161.218 13.866C161.442 14.0993 161.759 14.216 162.17 14.216C162.608 14.216 162.972 14.09 163.262 13.838L163.612 14.552C163.416 14.7293 163.178 14.86 162.898 14.944C162.627 15.028 162.347 15.07 162.058 15.07ZM158.586 8.476V7.65H163.136V8.476H158.586ZM167.395 15.07C166.788 15.07 166.214 14.986 165.673 14.818C165.132 14.6407 164.707 14.4213 164.399 14.16L164.847 13.376C165.146 13.6 165.528 13.796 165.995 13.964C166.462 14.1227 166.952 14.202 167.465 14.202C168.165 14.202 168.669 14.0947 168.977 13.88C169.285 13.656 169.439 13.362 169.439 12.998C169.439 12.7273 169.35 12.5173 169.173 12.368C169.005 12.2093 168.781 12.0927 168.501 12.018C168.221 11.934 167.908 11.864 167.563 11.808C167.218 11.752 166.872 11.6867 166.527 11.612C166.191 11.5373 165.883 11.43 165.603 11.29C165.323 11.1407 165.094 10.94 164.917 10.688C164.749 10.436 164.665 10.1 164.665 9.68C164.665 9.27867 164.777 8.91933 165.001 8.602C165.225 8.28467 165.552 8.03733 165.981 7.86C166.42 7.67333 166.952 7.58 167.577 7.58C168.053 7.58 168.529 7.64533 169.005 7.776C169.481 7.89733 169.873 8.06067 170.181 8.266L169.747 9.064C169.42 8.84 169.07 8.68133 168.697 8.588C168.324 8.48533 167.95 8.434 167.577 8.434C166.914 8.434 166.424 8.55067 166.107 8.784C165.799 9.008 165.645 9.29733 165.645 9.652C165.645 9.932 165.729 10.1513 165.897 10.31C166.074 10.4687 166.303 10.5947 166.583 10.688C166.872 10.772 167.185 10.842 167.521 10.898C167.866 10.954 168.207 11.024 168.543 11.108C168.888 11.1827 169.201 11.29 169.481 11.43C169.77 11.5607 169.999 11.752 170.167 12.004C170.344 12.2467 170.433 12.5687 170.433 12.97C170.433 13.3993 170.312 13.7727 170.069 14.09C169.836 14.398 169.49 14.6407 169.033 14.818C168.585 14.986 168.039 15.07 167.395 15.07ZM175.921 15V7.65H176.873V9.652L176.775 9.302C176.98 8.742 177.326 8.31733 177.811 8.028C178.296 7.72933 178.898 7.58 179.617 7.58V8.546C179.58 8.546 179.542 8.546 179.505 8.546C179.468 8.53667 179.43 8.532 179.393 8.532C178.618 8.532 178.012 8.77 177.573 9.246C177.134 9.71267 176.915 10.38 176.915 11.248V15H175.921ZM184.485 15.07C183.719 15.07 183.047 14.9113 182.469 14.594C181.89 14.2673 181.437 13.824 181.111 13.264C180.784 12.6947 180.621 12.046 180.621 11.318C180.621 10.59 180.775 9.946 181.083 9.386C181.4 8.826 181.829 8.38733 182.371 8.07C182.921 7.74333 183.537 7.58 184.219 7.58C184.909 7.58 185.521 7.73867 186.053 8.056C186.594 8.364 187.019 8.80267 187.327 9.372C187.635 9.932 187.789 10.5807 187.789 11.318C187.789 11.3647 187.784 11.416 187.775 11.472C187.775 11.5187 187.775 11.57 187.775 11.626H181.377V10.884H187.243L186.851 11.178C186.851 10.646 186.734 10.1747 186.501 9.764C186.277 9.344 185.969 9.01733 185.577 8.784C185.185 8.55067 184.732 8.434 184.219 8.434C183.715 8.434 183.262 8.55067 182.861 8.784C182.459 9.01733 182.147 9.344 181.923 9.764C181.699 10.184 181.587 10.6647 181.587 11.206V11.36C181.587 11.92 181.708 12.4147 181.951 12.844C182.203 13.264 182.548 13.5953 182.987 13.838C183.435 14.0713 183.943 14.188 184.513 14.188C184.961 14.188 185.376 14.1087 185.759 13.95C186.151 13.7913 186.487 13.5487 186.767 13.222L187.327 13.866C187 14.258 186.589 14.5567 186.095 14.762C185.609 14.9673 185.073 15.07 184.485 15.07ZM191.786 15.07C191.179 15.07 190.605 14.986 190.064 14.818C189.522 14.6407 189.098 14.4213 188.79 14.16L189.238 13.376C189.536 13.6 189.919 13.796 190.386 13.964C190.852 14.1227 191.342 14.202 191.856 14.202C192.556 14.202 193.06 14.0947 193.368 13.88C193.676 13.656 193.83 13.362 193.83 12.998C193.83 12.7273 193.741 12.5173 193.564 12.368C193.396 12.2093 193.172 12.0927 192.892 12.018C192.612 11.934 192.299 11.864 191.954 11.808C191.608 11.752 191.263 11.6867 190.918 11.612C190.582 11.5373 190.274 11.43 189.994 11.29C189.714 11.1407 189.485 10.94 189.308 10.688C189.14 10.436 189.056 10.1 189.056 9.68C189.056 9.27867 189.168 8.91933 189.392 8.602C189.616 8.28467 189.942 8.03733 190.372 7.86C190.81 7.67333 191.342 7.58 191.968 7.58C192.444 7.58 192.92 7.64533 193.396 7.776C193.872 7.89733 194.264 8.06067 194.572 8.266L194.138 9.064C193.811 8.84 193.461 8.68133 193.088 8.588C192.714 8.48533 192.341 8.434 191.968 8.434C191.305 8.434 190.815 8.55067 190.498 8.784C190.19 9.008 190.036 9.29733 190.036 9.652C190.036 9.932 190.12 10.1513 190.288 10.31C190.465 10.4687 190.694 10.5947 190.974 10.688C191.263 10.772 191.576 10.842 191.912 10.898C192.257 10.954 192.598 11.024 192.934 11.108C193.279 11.1827 193.592 11.29 193.872 11.43C194.161 11.5607 194.39 11.752 194.558 12.004C194.735 12.2467 194.824 12.5687 194.824 12.97C194.824 13.3993 194.702 13.7727 194.46 14.09C194.226 14.398 193.881 14.6407 193.424 14.818C192.976 14.986 192.43 15.07 191.786 15.07ZM199.77 15.07C199.004 15.07 198.332 14.9113 197.754 14.594C197.175 14.2673 196.722 13.824 196.396 13.264C196.069 12.6947 195.906 12.046 195.906 11.318C195.906 10.59 196.06 9.946 196.368 9.386C196.685 8.826 197.114 8.38733 197.656 8.07C198.206 7.74333 198.822 7.58 199.504 7.58C200.194 7.58 200.806 7.73867 201.338 8.056C201.879 8.364 202.304 8.80267 202.612 9.372C202.92 9.932 203.074 10.5807 203.074 11.318C203.074 11.3647 203.069 11.416 203.06 11.472C203.06 11.5187 203.06 11.57 203.06 11.626H196.662V10.884H202.528L202.136 11.178C202.136 10.646 202.019 10.1747 201.786 9.764C201.562 9.344 201.254 9.01733 200.862 8.784C200.47 8.55067 200.017 8.434 199.504 8.434C199 8.434 198.547 8.55067 198.146 8.784C197.744 9.01733 197.432 9.344 197.208 9.764C196.984 10.184 196.872 10.6647 196.872 11.206V11.36C196.872 11.92 196.993 12.4147 197.236 12.844C197.488 13.264 197.833 13.5953 198.272 13.838C198.72 14.0713 199.228 14.188 199.798 14.188C200.246 14.188 200.661 14.1087 201.044 13.95C201.436 13.7913 201.772 13.5487 202.052 13.222L202.612 13.866C202.285 14.258 201.874 14.5567 201.38 14.762C200.894 14.9673 200.358 15.07 199.77 15.07ZM205.097 15V7.65H206.049V9.652L205.951 9.302C206.156 8.742 206.502 8.31733 206.987 8.028C207.472 7.72933 208.074 7.58 208.793 7.58V8.546C208.756 8.546 208.718 8.546 208.681 8.546C208.644 8.53667 208.606 8.532 208.569 8.532C207.794 8.532 207.188 8.77 206.749 9.246C206.31 9.71267 206.091 10.38 206.091 11.248V15H205.097ZM212.811 15L209.549 7.65H210.585L213.581 14.468H213.091L216.129 7.65H217.109L213.833 15H212.811ZM221.426 15.07C220.661 15.07 219.989 14.9113 219.41 14.594C218.831 14.2673 218.379 13.824 218.052 13.264C217.725 12.6947 217.562 12.046 217.562 11.318C217.562 10.59 217.716 9.946 218.024 9.386C218.341 8.826 218.771 8.38733 219.312 8.07C219.863 7.74333 220.479 7.58 221.16 7.58C221.851 7.58 222.462 7.73867 222.994 8.056C223.535 8.364 223.96 8.80267 224.268 9.372C224.576 9.932 224.73 10.5807 224.73 11.318C224.73 11.3647 224.725 11.416 224.716 11.472C224.716 11.5187 224.716 11.57 224.716 11.626H218.318V10.884H224.184L223.792 11.178C223.792 10.646 223.675 10.1747 223.442 9.764C223.218 9.344 222.91 9.01733 222.518 8.784C222.126 8.55067 221.673 8.434 221.16 8.434C220.656 8.434 220.203 8.55067 219.802 8.784C219.401 9.01733 219.088 9.344 218.864 9.764C218.64 10.184 218.528 10.6647 218.528 11.206V11.36C218.528 11.92 218.649 12.4147 218.892 12.844C219.144 13.264 219.489 13.5953 219.928 13.838C220.376 14.0713 220.885 14.188 221.454 14.188C221.902 14.188 222.317 14.1087 222.7 13.95C223.092 13.7913 223.428 13.5487 223.708 13.222L224.268 13.866C223.941 14.258 223.531 14.5567 223.036 14.762C222.551 14.9673 222.014 15.07 221.426 15.07ZM229.679 15.07C228.979 15.07 228.349 14.9113 227.789 14.594C227.239 14.2767 226.805 13.838 226.487 13.278C226.17 12.7087 226.011 12.0553 226.011 11.318C226.011 10.5713 226.17 9.918 226.487 9.358C226.805 8.798 227.239 8.364 227.789 8.056C228.349 7.73867 228.979 7.58 229.679 7.58C230.323 7.58 230.897 7.72467 231.401 8.014C231.915 8.30333 232.321 8.728 232.619 9.288C232.927 9.83867 233.081 10.5153 233.081 11.318C233.081 12.1113 232.932 12.788 232.633 13.348C232.335 13.908 231.929 14.3373 231.415 14.636C230.911 14.9253 230.333 15.07 229.679 15.07ZM229.749 14.188C230.272 14.188 230.739 14.0713 231.149 13.838C231.569 13.5953 231.896 13.2593 232.129 12.83C232.372 12.3913 232.493 11.8873 232.493 11.318C232.493 10.7393 232.372 10.2353 232.129 9.806C231.896 9.37667 231.569 9.04533 231.149 8.812C230.739 8.56933 230.272 8.448 229.749 8.448C229.236 8.448 228.774 8.56933 228.363 8.812C227.953 9.04533 227.626 9.37667 227.383 9.806C227.141 10.2353 227.019 10.7393 227.019 11.318C227.019 11.8873 227.141 12.3913 227.383 12.83C227.626 13.2593 227.953 13.5953 228.363 13.838C228.774 14.0713 229.236 14.188 229.749 14.188ZM232.521 15V12.788L232.619 11.304L232.479 9.82V4.612H233.473V15H232.521ZM236.339 15.07C236.134 15.07 235.957 14.9953 235.807 14.846C235.667 14.6967 235.597 14.5147 235.597 14.3C235.597 14.076 235.667 13.894 235.807 13.754C235.957 13.614 236.134 13.544 236.339 13.544C236.545 13.544 236.717 13.614 236.857 13.754C237.007 13.894 237.081 14.076 237.081 14.3C237.081 14.5147 237.007 14.6967 236.857 14.846C236.717 14.9953 236.545 15.07 236.339 15.07Z" fill="#333333"/>
</svg>
