<svg width="236" height="60" viewBox="0 0 236 60" fill="none" xmlns="http://www.w3.org/2000/svg">
<rect width="236" height="60" rx="30" fill="#FCFCFC"/>
<rect x="23" y="14.7634" width="92.5914" height="30.4731" rx="15.2366" fill="#001EF4"/>
<rect x="122" y="14.7634" width="92.5914" height="30.4731" rx="15.2366" fill="#F0F0F0"/>
<path d="M43.996 34V25.6H45.604L49.18 31.528H48.328L51.844 25.6H53.44L53.464 34H51.64L51.628 28.396H51.964L49.156 33.112H48.28L45.412 28.396H45.82V34H43.996ZM58.3969 34.096C57.7089 34.096 57.0969 33.952 56.5609 33.664C56.0329 33.376 55.6129 32.984 55.3009 32.488C54.9969 31.984 54.8449 31.412 54.8449 30.772C54.8449 30.124 54.9969 29.552 55.3009 29.056C55.6129 28.552 56.0329 28.16 56.5609 27.88C57.0969 27.592 57.7089 27.448 58.3969 27.448C59.0769 27.448 59.6849 27.592 60.2209 27.88C60.7569 28.16 61.1769 28.548 61.4809 29.044C61.7849 29.54 61.9369 30.116 61.9369 30.772C61.9369 31.412 61.7849 31.984 61.4809 32.488C61.1769 32.984 60.7569 33.376 60.2209 33.664C59.6849 33.952 59.0769 34.096 58.3969 34.096ZM58.3969 32.56C58.7089 32.56 58.9889 32.488 59.2369 32.344C59.4849 32.2 59.6809 31.996 59.8249 31.732C59.9689 31.46 60.0409 31.14 60.0409 30.772C60.0409 30.396 59.9689 30.076 59.8249 29.812C59.6809 29.548 59.4849 29.344 59.2369 29.2C58.9889 29.056 58.7089 28.984 58.3969 28.984C58.0849 28.984 57.8049 29.056 57.5569 29.2C57.3089 29.344 57.1089 29.548 56.9569 29.812C56.8129 30.076 56.7409 30.396 56.7409 30.772C56.7409 31.14 56.8129 31.46 56.9569 31.732C57.1089 31.996 57.3089 32.2 57.5569 32.344C57.8049 32.488 58.0849 32.56 58.3969 32.56ZM67.1122 27.448C67.6242 27.448 68.0802 27.552 68.4802 27.76C68.8882 27.96 69.2082 28.272 69.4402 28.696C69.6722 29.112 69.7882 29.648 69.7882 30.304V34H67.9162V30.592C67.9162 30.072 67.8002 29.688 67.5682 29.44C67.3442 29.192 67.0242 29.068 66.6082 29.068C66.3122 29.068 66.0442 29.132 65.8042 29.26C65.5722 29.38 65.3882 29.568 65.2522 29.824C65.1242 30.08 65.0602 30.408 65.0602 30.808V34H63.1882V27.544H64.9762V29.332L64.6402 28.792C64.8722 28.36 65.2042 28.028 65.6362 27.796C66.0682 27.564 66.5602 27.448 67.1122 27.448ZM74.1251 34.096C73.3651 34.096 72.7731 33.904 72.3491 33.52C71.9251 33.128 71.7131 32.548 71.7131 31.78V26.116H73.5851V31.756C73.5851 32.028 73.6571 32.24 73.8011 32.392C73.9451 32.536 74.1411 32.608 74.3891 32.608C74.6851 32.608 74.9371 32.528 75.1451 32.368L75.6491 33.688C75.4571 33.824 75.2251 33.928 74.9531 34C74.6891 34.064 74.4131 34.096 74.1251 34.096ZM70.7171 29.128V27.688H75.1931V29.128H70.7171ZM80.6239 27.448C81.1359 27.448 81.5919 27.552 81.9919 27.76C82.3999 27.96 82.7199 28.272 82.9519 28.696C83.1839 29.112 83.2999 29.648 83.2999 30.304V34H81.4279V30.592C81.4279 30.072 81.3119 29.688 81.0799 29.44C80.8559 29.192 80.5359 29.068 80.1199 29.068C79.8239 29.068 79.5559 29.132 79.3159 29.26C79.0839 29.38 78.8999 29.568 78.7639 29.824C78.6359 30.08 78.5719 30.408 78.5719 30.808V34H76.6999V25.096H78.5719V29.332L78.1519 28.792C78.3839 28.36 78.7159 28.028 79.1479 27.796C79.5799 27.564 80.0719 27.448 80.6239 27.448ZM84.9968 34V25.096H86.8688V34H84.9968ZM89.4222 36.424C89.0862 36.424 88.7542 36.372 88.4262 36.268C88.0982 36.164 87.8302 36.02 87.6222 35.836L88.3062 34.504C88.4502 34.632 88.6142 34.732 88.7982 34.804C88.9902 34.876 89.1782 34.912 89.3622 34.912C89.6262 34.912 89.8342 34.848 89.9862 34.72C90.1462 34.6 90.2902 34.396 90.4182 34.108L90.7542 33.316L90.8982 33.112L93.2142 27.544H95.0142L92.0982 34.396C91.8902 34.916 91.6502 35.324 91.3782 35.62C91.1142 35.916 90.8182 36.124 90.4902 36.244C90.1702 36.364 89.8142 36.424 89.4222 36.424ZM90.5262 34.252L87.6462 27.544H89.5782L91.8102 32.944L90.5262 34.252Z" fill="#FCFCFC"/>
<path d="M151.084 34V30.568L151.528 31.744L147.832 25.6H149.896L152.728 30.316H151.54L154.384 25.6H156.292L152.596 31.744L153.028 30.568V34H151.084ZM159.463 34.096C158.727 34.096 158.079 33.952 157.519 33.664C156.967 33.376 156.539 32.984 156.235 32.488C155.931 31.984 155.779 31.412 155.779 30.772C155.779 30.124 155.927 29.552 156.223 29.056C156.527 28.552 156.939 28.16 157.459 27.88C157.979 27.592 158.567 27.448 159.223 27.448C159.855 27.448 160.423 27.584 160.927 27.856C161.439 28.12 161.843 28.504 162.139 29.008C162.435 29.504 162.583 30.1 162.583 30.796C162.583 30.868 162.579 30.952 162.571 31.048C162.563 31.136 162.555 31.22 162.547 31.3H157.303V30.208H161.563L160.843 30.532C160.843 30.196 160.775 29.904 160.639 29.656C160.503 29.408 160.315 29.216 160.075 29.08C159.835 28.936 159.555 28.864 159.235 28.864C158.915 28.864 158.631 28.936 158.383 29.08C158.143 29.216 157.955 29.412 157.819 29.668C157.683 29.916 157.615 30.212 157.615 30.556V30.844C157.615 31.196 157.691 31.508 157.843 31.78C158.003 32.044 158.223 32.248 158.503 32.392C158.791 32.528 159.127 32.596 159.511 32.596C159.855 32.596 160.155 32.544 160.411 32.44C160.675 32.336 160.915 32.18 161.131 31.972L162.127 33.052C161.831 33.388 161.459 33.648 161.011 33.832C160.563 34.008 160.047 34.096 159.463 34.096ZM167.613 34V32.74L167.493 32.464V30.208C167.493 29.808 167.369 29.496 167.121 29.272C166.881 29.048 166.509 28.936 166.005 28.936C165.661 28.936 165.321 28.992 164.985 29.104C164.657 29.208 164.377 29.352 164.145 29.536L163.473 28.228C163.825 27.98 164.249 27.788 164.745 27.652C165.241 27.516 165.745 27.448 166.257 27.448C167.241 27.448 168.005 27.68 168.549 28.144C169.093 28.608 169.365 29.332 169.365 30.316V34H167.613ZM165.645 34.096C165.141 34.096 164.709 34.012 164.349 33.844C163.989 33.668 163.713 33.432 163.521 33.136C163.329 32.84 163.233 32.508 163.233 32.14C163.233 31.756 163.325 31.42 163.509 31.132C163.701 30.844 164.001 30.62 164.409 30.46C164.817 30.292 165.349 30.208 166.005 30.208H167.721V31.3H166.209C165.769 31.3 165.465 31.372 165.297 31.516C165.137 31.66 165.057 31.84 165.057 32.056C165.057 32.296 165.149 32.488 165.333 32.632C165.525 32.768 165.785 32.836 166.113 32.836C166.425 32.836 166.705 32.764 166.953 32.62C167.201 32.468 167.381 32.248 167.493 31.96L167.781 32.824C167.645 33.24 167.397 33.556 167.037 33.772C166.677 33.988 166.213 34.096 165.645 34.096ZM171.059 34V27.544H172.847V29.368L172.595 28.84C172.787 28.384 173.095 28.04 173.519 27.808C173.943 27.568 174.459 27.448 175.067 27.448V29.176C174.987 29.168 174.915 29.164 174.851 29.164C174.787 29.156 174.719 29.152 174.647 29.152C174.135 29.152 173.719 29.3 173.399 29.596C173.087 29.884 172.931 30.336 172.931 30.952V34H171.059ZM176.192 34V25.096H178.064V34H176.192ZM180.618 36.424C180.282 36.424 179.95 36.372 179.622 36.268C179.294 36.164 179.026 36.02 178.817 35.836L179.502 34.504C179.646 34.632 179.81 34.732 179.994 34.804C180.186 34.876 180.374 34.912 180.558 34.912C180.822 34.912 181.03 34.848 181.182 34.72C181.342 34.6 181.486 34.396 181.614 34.108L181.95 33.316L182.094 33.112L184.41 27.544H186.21L183.294 34.396C183.086 34.916 182.846 35.324 182.574 35.62C182.31 35.916 182.014 36.124 181.686 36.244C181.366 36.364 181.01 36.424 180.618 36.424ZM181.722 34.252L178.841 27.544H180.774L183.006 32.944L181.722 34.252Z" fill="#5E5E5E"/>
</svg>
