<svg width="442" height="140" viewBox="0 0 442 140" fill="none" xmlns="http://www.w3.org/2000/svg">
<path d="M134.327 31.32C132.578 31.32 130.903 31.0747 129.303 30.584C127.703 30.072 126.434 29.4213 125.495 28.632L126.935 25.4C127.831 26.104 128.94 26.6907 130.263 27.16C131.586 27.6293 132.94 27.864 134.327 27.864C135.5 27.864 136.45 27.736 137.175 27.48C137.9 27.224 138.434 26.8827 138.775 26.456C139.116 26.008 139.287 25.5067 139.287 24.952C139.287 24.2693 139.042 23.7253 138.551 23.32C138.06 22.8933 137.42 22.5627 136.631 22.328C135.863 22.072 134.999 21.8373 134.039 21.624C133.1 21.4107 132.151 21.1653 131.191 20.888C130.252 20.5893 129.388 20.216 128.599 19.768C127.831 19.2987 127.202 18.68 126.711 17.912C126.22 17.144 125.975 16.1627 125.975 14.968C125.975 13.752 126.295 12.6427 126.935 11.64C127.596 10.616 128.588 9.80533 129.911 9.208C131.255 8.58933 132.951 8.28 134.999 8.28C136.343 8.28 137.676 8.45067 138.999 8.792C140.322 9.13333 141.474 9.624 142.455 10.264L141.143 13.496C140.14 12.8987 139.106 12.4613 138.039 12.184C136.972 11.8853 135.948 11.736 134.967 11.736C133.815 11.736 132.876 11.8747 132.151 12.152C131.447 12.4293 130.924 12.792 130.583 13.24C130.263 13.688 130.103 14.2 130.103 14.776C130.103 15.4587 130.338 16.0133 130.807 16.44C131.298 16.8453 131.927 17.1653 132.695 17.4C133.484 17.6347 134.359 17.8693 135.319 18.104C136.279 18.3173 137.228 18.5627 138.167 18.84C139.127 19.1173 139.991 19.48 140.759 19.928C141.548 20.376 142.178 20.984 142.647 21.752C143.138 22.52 143.383 23.4907 143.383 24.664C143.383 25.8587 143.052 26.968 142.391 27.992C141.751 28.9947 140.759 29.8053 139.415 30.424C138.071 31.0213 136.375 31.32 134.327 31.32ZM168.692 13.72C170.057 13.72 171.263 13.9867 172.308 14.52C173.375 15.0533 174.207 15.8747 174.804 16.984C175.401 18.072 175.7 19.48 175.7 21.208V31H171.7V21.72C171.7 20.2053 171.369 19.0747 170.708 18.328C170.047 17.5813 169.097 17.208 167.86 17.208C166.985 17.208 166.207 17.4 165.524 17.784C164.863 18.168 164.34 18.7333 163.956 19.48C163.593 20.2267 163.412 21.176 163.412 22.328V31H159.412V21.72C159.412 20.2053 159.081 19.0747 158.42 18.328C157.759 17.5813 156.809 17.208 155.572 17.208C154.697 17.208 153.919 17.4 153.236 17.784C152.575 18.168 152.052 18.7333 151.668 19.48C151.305 20.2267 151.124 21.176 151.124 22.328V31H147.124V13.912H150.932V18.456L150.26 17.112C150.836 16.0027 151.668 15.16 152.756 14.584C153.865 14.008 155.124 13.72 156.532 13.72C158.132 13.72 159.519 14.1147 160.692 14.904C161.887 15.6933 162.676 16.888 163.06 18.488L161.492 17.944C162.047 16.664 162.964 15.64 164.244 14.872C165.524 14.104 167.007 13.72 168.692 13.72ZM191.34 31V27.544L191.116 26.808V20.76C191.116 19.5867 190.764 18.68 190.06 18.04C189.356 17.3787 188.289 17.048 186.86 17.048C185.9 17.048 184.95 17.1973 184.012 17.496C183.094 17.7947 182.316 18.2107 181.676 18.744L180.108 15.832C181.025 15.128 182.113 14.6053 183.372 14.264C184.652 13.9013 185.974 13.72 187.34 13.72C189.814 13.72 191.724 14.3173 193.068 15.512C194.433 16.6853 195.116 18.5093 195.116 20.984V31H191.34ZM185.964 31.224C184.684 31.224 183.564 31.0107 182.604 30.584C181.644 30.136 180.897 29.528 180.364 28.76C179.852 27.9707 179.596 27.0853 179.596 26.104C179.596 25.144 179.82 24.28 180.268 23.512C180.737 22.744 181.494 22.136 182.54 21.688C183.585 21.24 184.972 21.016 186.7 21.016H191.66V23.672H186.988C185.622 23.672 184.705 23.896 184.236 24.344C183.766 24.7707 183.532 25.304 183.532 25.944C183.532 26.6693 183.82 27.2453 184.396 27.672C184.972 28.0987 185.772 28.312 186.796 28.312C187.777 28.312 188.652 28.088 189.42 27.64C190.209 27.192 190.774 26.5307 191.116 25.656L191.788 28.056C191.404 29.0587 190.71 29.8373 189.708 30.392C188.726 30.9467 187.478 31.224 185.964 31.224ZM200.249 31V13.912H204.057V18.616L203.609 17.24C204.121 16.088 204.921 15.2133 206.009 14.616C207.118 14.0187 208.494 13.72 210.137 13.72V17.528C209.966 17.4853 209.806 17.464 209.657 17.464C209.508 17.4427 209.358 17.432 209.209 17.432C207.694 17.432 206.489 17.88 205.593 18.776C204.697 19.6507 204.249 20.9627 204.249 22.712V31H200.249ZM220.587 31.224C218.71 31.224 217.259 30.744 216.235 29.784C215.211 28.8027 214.699 27.3627 214.699 25.464V10.136H218.699V25.368C218.699 26.1787 218.902 26.808 219.307 27.256C219.734 27.704 220.321 27.928 221.067 27.928C221.963 27.928 222.71 27.6933 223.307 27.224L224.427 30.072C223.958 30.456 223.382 30.744 222.699 30.936C222.017 31.128 221.313 31.224 220.587 31.224ZM211.883 17.24V14.04H223.275V17.24H211.883ZM236.946 31V8.6H241.106V31H236.946ZM256.476 13.72C257.842 13.72 259.058 13.9867 260.124 14.52C261.212 15.0533 262.066 15.8747 262.684 16.984C263.303 18.072 263.612 19.48 263.612 21.208V31H259.612V21.72C259.612 20.2053 259.25 19.0747 258.524 18.328C257.82 17.5813 256.828 17.208 255.548 17.208C254.61 17.208 253.778 17.4 253.052 17.784C252.327 18.168 251.762 18.744 251.356 19.512C250.972 20.2587 250.78 21.208 250.78 22.36V31H246.78V13.912H250.588V18.52L249.916 17.112C250.514 16.024 251.378 15.192 252.508 14.616C253.66 14.0187 254.983 13.72 256.476 13.72ZM272.918 31L265.59 13.912H269.75L276.054 28.984H274.006L280.534 13.912H284.374L277.046 31H272.918ZM294.437 31.224C292.539 31.224 290.875 30.8507 289.445 30.104C288.037 29.336 286.939 28.2907 286.149 26.968C285.381 25.6453 284.997 24.1413 284.997 22.456C284.997 20.7493 285.371 19.2453 286.117 17.944C286.885 16.6213 287.931 15.5867 289.253 14.84C290.597 14.0933 292.123 13.72 293.829 13.72C295.493 13.72 296.976 14.0827 298.277 14.808C299.579 15.5333 300.603 16.5573 301.349 17.88C302.096 19.2027 302.469 20.76 302.469 22.552C302.469 22.7227 302.459 22.9147 302.437 23.128C302.437 23.3413 302.427 23.544 302.405 23.736H288.165V21.08H300.293L298.725 21.912C298.747 20.9307 298.544 20.0667 298.117 19.32C297.691 18.5733 297.104 17.9867 296.357 17.56C295.632 17.1333 294.789 16.92 293.829 16.92C292.848 16.92 291.984 17.1333 291.237 17.56C290.512 17.9867 289.936 18.584 289.509 19.352C289.104 20.0987 288.901 20.984 288.901 22.008V22.648C288.901 23.672 289.136 24.5787 289.605 25.368C290.075 26.1573 290.736 26.7653 291.589 27.192C292.443 27.6187 293.424 27.832 294.533 27.832C295.493 27.832 296.357 27.6827 297.125 27.384C297.893 27.0853 298.576 26.616 299.173 25.976L301.317 28.44C300.549 29.336 299.579 30.0293 298.405 30.52C297.253 30.9893 295.931 31.224 294.437 31.224ZM316.008 13.72C317.373 13.72 318.589 13.9867 319.656 14.52C320.744 15.0533 321.597 15.8747 322.216 16.984C322.834 18.072 323.144 19.48 323.144 21.208V31H319.144V21.72C319.144 20.2053 318.781 19.0747 318.056 18.328C317.352 17.5813 316.36 17.208 315.08 17.208C314.141 17.208 313.309 17.4 312.584 17.784C311.858 18.168 311.293 18.744 310.888 19.512C310.504 20.2587 310.312 21.208 310.312 22.36V31H306.312V13.912H310.12V18.52L309.448 17.112C310.045 16.024 310.909 15.192 312.04 14.616C313.192 14.0187 314.514 13.72 316.008 13.72ZM334.65 31.224C332.772 31.224 331.322 30.744 330.298 29.784C329.274 28.8027 328.762 27.3627 328.762 25.464V10.136H332.762V25.368C332.762 26.1787 332.964 26.808 333.37 27.256C333.796 27.704 334.383 27.928 335.13 27.928C336.026 27.928 336.772 27.6933 337.37 27.224L338.49 30.072C338.02 30.456 337.444 30.744 336.762 30.936C336.079 31.128 335.375 31.224 334.65 31.224ZM325.946 17.24V14.04H337.338V17.24H325.946ZM348.898 31.224C347.148 31.224 345.591 30.8507 344.226 30.104C342.86 29.336 341.783 28.2907 340.994 26.968C340.204 25.6453 339.81 24.1413 339.81 22.456C339.81 20.7493 340.204 19.2453 340.994 17.944C341.783 16.6213 342.86 15.5867 344.226 14.84C345.591 14.0933 347.148 13.72 348.898 13.72C350.668 13.72 352.236 14.0933 353.602 14.84C354.988 15.5867 356.066 16.6107 356.834 17.912C357.623 19.2133 358.018 20.728 358.018 22.456C358.018 24.1413 357.623 25.6453 356.834 26.968C356.066 28.2907 354.988 29.336 353.602 30.104C352.236 30.8507 350.668 31.224 348.898 31.224ZM348.898 27.8C349.879 27.8 350.754 27.5867 351.522 27.16C352.29 26.7333 352.887 26.1147 353.314 25.304C353.762 24.4933 353.986 23.544 353.986 22.456C353.986 21.3467 353.762 20.3973 353.314 19.608C352.887 18.7973 352.29 18.1787 351.522 17.752C350.754 17.3253 349.89 17.112 348.93 17.112C347.948 17.112 347.074 17.3253 346.306 17.752C345.559 18.1787 344.962 18.7973 344.514 19.608C344.066 20.3973 343.842 21.3467 343.842 22.456C343.842 23.544 344.066 24.4933 344.514 25.304C344.962 26.1147 345.559 26.7333 346.306 27.16C347.074 27.5867 347.938 27.8 348.898 27.8ZM361.843 31V13.912H365.651V18.616L365.203 17.24C365.715 16.088 366.515 15.2133 367.603 14.616C368.712 14.0187 370.088 13.72 371.731 13.72V17.528C371.56 17.4853 371.4 17.464 371.251 17.464C371.101 17.4427 370.952 17.432 370.803 17.432C369.288 17.432 368.083 17.88 367.187 18.776C366.291 19.6507 365.843 20.9627 365.843 22.712V31H361.843ZM377.157 37.432C376.325 37.432 375.493 37.2933 374.661 37.016C373.829 36.7387 373.136 36.3547 372.581 35.864L374.181 32.92C374.586 33.2827 375.045 33.5707 375.557 33.784C376.069 33.9973 376.592 34.104 377.125 34.104C377.85 34.104 378.437 33.9227 378.885 33.56C379.333 33.1973 379.749 32.5893 380.133 31.736L381.125 29.496L381.445 29.016L387.909 13.912H391.749L383.749 32.376C383.216 33.656 382.618 34.6693 381.957 35.416C381.317 36.1627 380.592 36.6853 379.781 36.984C378.992 37.2827 378.117 37.432 377.157 37.432ZM380.677 31.608L372.965 13.912H377.125L383.397 28.664L380.677 31.608Z" fill="#333333"/>
<path d="M129 67V54.28H124.08V53H135.4V54.28H130.48V67H129ZM137.191 67V56.5H138.551V59.36L138.411 58.86C138.704 58.06 139.198 57.4533 139.891 57.04C140.584 56.6133 141.444 56.4 142.471 56.4V57.78C142.418 57.78 142.364 57.78 142.311 57.78C142.258 57.7667 142.204 57.76 142.151 57.76C141.044 57.76 140.178 58.1 139.551 58.78C138.924 59.4467 138.611 60.4 138.611 61.64V67H137.191ZM150.861 67V64.68L150.801 64.3V60.42C150.801 59.5267 150.547 58.84 150.041 58.36C149.547 57.88 148.807 57.64 147.821 57.64C147.141 57.64 146.494 57.7533 145.881 57.98C145.267 58.2067 144.747 58.5067 144.321 58.88L143.681 57.82C144.214 57.3667 144.854 57.02 145.601 56.78C146.347 56.5267 147.134 56.4 147.961 56.4C149.321 56.4 150.367 56.74 151.101 57.42C151.847 58.0867 152.221 59.1067 152.221 60.48V67H150.861ZM147.241 67.1C146.454 67.1 145.767 66.9733 145.181 66.72C144.607 66.4533 144.167 66.0933 143.861 65.64C143.554 65.1733 143.401 64.64 143.401 64.04C143.401 63.4933 143.527 63 143.781 62.56C144.047 62.1067 144.474 61.7467 145.061 61.48C145.661 61.2 146.461 61.06 147.461 61.06H151.081V62.12H147.501C146.487 62.12 145.781 62.3 145.381 62.66C144.994 63.02 144.801 63.4667 144.801 64C144.801 64.6 145.034 65.08 145.501 65.44C145.967 65.8 146.621 65.98 147.461 65.98C148.261 65.98 148.947 65.8 149.521 65.44C150.107 65.0667 150.534 64.5333 150.801 63.84L151.121 64.82C150.854 65.5133 150.387 66.0667 149.721 66.48C149.067 66.8933 148.241 67.1 147.241 67.1ZM160.438 67.1C159.398 67.1 158.464 66.8733 157.638 66.42C156.824 65.9533 156.184 65.32 155.718 64.52C155.251 63.7067 155.018 62.78 155.018 61.74C155.018 60.6867 155.251 59.76 155.718 58.96C156.184 58.16 156.824 57.5333 157.638 57.08C158.464 56.6267 159.398 56.4 160.438 56.4C161.331 56.4 162.138 56.5733 162.858 56.92C163.578 57.2667 164.144 57.7867 164.558 58.48L163.498 59.2C163.138 58.6667 162.691 58.2733 162.158 58.02C161.624 57.7667 161.044 57.64 160.418 57.64C159.671 57.64 158.998 57.8133 158.398 58.16C157.798 58.4933 157.324 58.9667 156.978 59.58C156.631 60.1933 156.458 60.9133 156.458 61.74C156.458 62.5667 156.631 63.2867 156.978 63.9C157.324 64.5133 157.798 64.9933 158.398 65.34C158.998 65.6733 159.671 65.84 160.418 65.84C161.044 65.84 161.624 65.7133 162.158 65.46C162.691 65.2067 163.138 64.82 163.498 64.3L164.558 65.02C164.144 65.7 163.578 66.22 162.858 66.58C162.138 66.9267 161.331 67.1 160.438 67.1ZM168.311 64.28L168.351 62.46L174.891 56.5H176.631L172.011 60.92L171.211 61.6L168.311 64.28ZM167.191 67V52.16H168.611V67H167.191ZM175.331 67L170.951 61.54L171.871 60.44L177.071 67H175.331ZM184.517 70.98C184.024 70.98 183.55 70.9 183.097 70.74C182.657 70.58 182.277 70.34 181.957 70.02L182.617 68.96C182.884 69.2133 183.17 69.4067 183.477 69.54C183.797 69.6867 184.15 69.76 184.537 69.76C185.004 69.76 185.404 69.6267 185.737 69.36C186.084 69.1067 186.41 68.6533 186.717 68L187.397 66.46L187.557 66.24L191.877 56.5H193.277L188.017 68.26C187.724 68.94 187.397 69.48 187.037 69.88C186.69 70.28 186.31 70.56 185.897 70.72C185.484 70.8933 185.024 70.98 184.517 70.98ZM187.317 67.3L182.477 56.5H183.957L188.237 66.14L187.317 67.3ZM199.264 67.1C198.251 67.1 197.337 66.8733 196.524 66.42C195.724 65.9533 195.091 65.32 194.624 64.52C194.157 63.7067 193.924 62.78 193.924 61.74C193.924 60.6867 194.157 59.76 194.624 58.96C195.091 58.16 195.724 57.5333 196.524 57.08C197.324 56.6267 198.237 56.4 199.264 56.4C200.304 56.4 201.224 56.6267 202.024 57.08C202.837 57.5333 203.471 58.16 203.924 58.96C204.391 59.76 204.624 60.6867 204.624 61.74C204.624 62.78 204.391 63.7067 203.924 64.52C203.471 65.32 202.837 65.9533 202.024 66.42C201.211 66.8733 200.291 67.1 199.264 67.1ZM199.264 65.84C200.024 65.84 200.697 65.6733 201.284 65.34C201.871 64.9933 202.331 64.5133 202.664 63.9C203.011 63.2733 203.184 62.5533 203.184 61.74C203.184 60.9133 203.011 60.1933 202.664 59.58C202.331 58.9667 201.871 58.4933 201.284 58.16C200.697 57.8133 200.031 57.64 199.284 57.64C198.537 57.64 197.871 57.8133 197.284 58.16C196.697 58.4933 196.231 58.9667 195.884 59.58C195.537 60.1933 195.364 60.9133 195.364 61.74C195.364 62.5533 195.537 63.2733 195.884 63.9C196.231 64.5133 196.697 64.9933 197.284 65.34C197.871 65.6733 198.531 65.84 199.264 65.84ZM211.863 67.1C210.97 67.1 210.19 66.9333 209.523 66.6C208.856 66.2667 208.336 65.7667 207.963 65.1C207.603 64.4333 207.423 63.6 207.423 62.6V56.5H208.843V62.44C208.843 63.56 209.116 64.4067 209.663 64.98C210.223 65.54 211.003 65.82 212.003 65.82C212.736 65.82 213.37 65.6733 213.903 65.38C214.45 65.0733 214.863 64.6333 215.143 64.06C215.436 63.4867 215.583 62.8 215.583 62V56.5H217.003V67H215.643V64.12L215.863 64.64C215.53 65.4133 215.01 66.02 214.303 66.46C213.61 66.8867 212.796 67.1 211.863 67.1ZM220.96 67V56.5H222.32V59.36L222.18 58.86C222.474 58.06 222.967 57.4533 223.66 57.04C224.354 56.6133 225.214 56.4 226.24 56.4V57.78C226.187 57.78 226.134 57.78 226.08 57.78C226.027 57.7667 225.974 57.76 225.92 57.76C224.814 57.76 223.947 58.1 223.32 58.78C222.694 59.4467 222.38 60.4 222.38 61.64V67H220.96ZM237.042 67.1C236.176 67.1 235.356 66.98 234.582 66.74C233.809 66.4867 233.202 66.1733 232.762 65.8L233.402 64.68C233.829 65 234.376 65.28 235.042 65.52C235.709 65.7467 236.409 65.86 237.142 65.86C238.142 65.86 238.862 65.7067 239.302 65.4C239.742 65.08 239.962 64.66 239.962 64.14C239.962 63.7533 239.836 63.4533 239.582 63.24C239.342 63.0133 239.022 62.8467 238.622 62.74C238.222 62.62 237.776 62.52 237.282 62.44C236.789 62.36 236.296 62.2667 235.802 62.16C235.322 62.0533 234.882 61.9 234.482 61.7C234.082 61.4867 233.756 61.2 233.502 60.84C233.262 60.48 233.142 60 233.142 59.4C233.142 58.8267 233.302 58.3133 233.622 57.86C233.942 57.4067 234.409 57.0533 235.022 56.8C235.649 56.5333 236.409 56.4 237.302 56.4C237.982 56.4 238.662 56.4933 239.342 56.68C240.022 56.8533 240.582 57.0867 241.022 57.38L240.402 58.52C239.936 58.2 239.436 57.9733 238.902 57.84C238.369 57.6933 237.836 57.62 237.302 57.62C236.356 57.62 235.656 57.7867 235.202 58.12C234.762 58.44 234.542 58.8533 234.542 59.36C234.542 59.76 234.662 60.0733 234.902 60.3C235.156 60.5267 235.482 60.7067 235.882 60.84C236.296 60.96 236.742 61.06 237.222 61.14C237.716 61.22 238.202 61.32 238.682 61.44C239.176 61.5467 239.622 61.7 240.022 61.9C240.436 62.0867 240.762 62.36 241.002 62.72C241.256 63.0667 241.382 63.5267 241.382 64.1C241.382 64.7133 241.209 65.2467 240.862 65.7C240.529 66.14 240.036 66.4867 239.382 66.74C238.742 66.98 237.962 67.1 237.042 67.1ZM247.308 67.1C246.321 67.1 245.561 66.8333 245.028 66.3C244.494 65.7667 244.228 65.0133 244.228 64.04V54.18H245.648V63.96C245.648 64.5733 245.801 65.0467 246.108 65.38C246.428 65.7133 246.881 65.88 247.468 65.88C248.094 65.88 248.614 65.7 249.028 65.34L249.528 66.36C249.248 66.6133 248.908 66.8 248.508 66.92C248.121 67.04 247.721 67.1 247.308 67.1ZM242.348 57.68V56.5H248.848V57.68H242.348ZM256.022 67.1C255.008 67.1 254.095 66.8733 253.282 66.42C252.482 65.9533 251.848 65.32 251.382 64.52C250.915 63.7067 250.682 62.78 250.682 61.74C250.682 60.6867 250.915 59.76 251.382 58.96C251.848 58.16 252.482 57.5333 253.282 57.08C254.082 56.6267 254.995 56.4 256.022 56.4C257.062 56.4 257.982 56.6267 258.782 57.08C259.595 57.5333 260.228 58.16 260.682 58.96C261.148 59.76 261.382 60.6867 261.382 61.74C261.382 62.78 261.148 63.7067 260.682 64.52C260.228 65.32 259.595 65.9533 258.782 66.42C257.968 66.8733 257.048 67.1 256.022 67.1ZM256.022 65.84C256.782 65.84 257.455 65.6733 258.042 65.34C258.628 64.9933 259.088 64.5133 259.422 63.9C259.768 63.2733 259.942 62.5533 259.942 61.74C259.942 60.9133 259.768 60.1933 259.422 59.58C259.088 58.9667 258.628 58.4933 258.042 58.16C257.455 57.8133 256.788 57.64 256.042 57.64C255.295 57.64 254.628 57.8133 254.042 58.16C253.455 58.4933 252.988 58.9667 252.642 59.58C252.295 60.1933 252.122 60.9133 252.122 61.74C252.122 62.5533 252.295 63.2733 252.642 63.9C252.988 64.5133 253.455 64.9933 254.042 65.34C254.628 65.6733 255.288 65.84 256.022 65.84ZM268.641 67.1C267.601 67.1 266.667 66.8733 265.841 66.42C265.027 65.9533 264.387 65.32 263.921 64.52C263.454 63.7067 263.221 62.78 263.221 61.74C263.221 60.6867 263.454 59.76 263.921 58.96C264.387 58.16 265.027 57.5333 265.841 57.08C266.667 56.6267 267.601 56.4 268.641 56.4C269.534 56.4 270.341 56.5733 271.061 56.92C271.781 57.2667 272.347 57.7867 272.761 58.48L271.701 59.2C271.341 58.6667 270.894 58.2733 270.361 58.02C269.827 57.7667 269.247 57.64 268.621 57.64C267.874 57.64 267.201 57.8133 266.601 58.16C266.001 58.4933 265.527 58.9667 265.181 59.58C264.834 60.1933 264.661 60.9133 264.661 61.74C264.661 62.5667 264.834 63.2867 265.181 63.9C265.527 64.5133 266.001 64.9933 266.601 65.34C267.201 65.6733 267.874 65.84 268.621 65.84C269.247 65.84 269.827 65.7133 270.361 65.46C270.894 65.2067 271.341 64.82 271.701 64.3L272.761 65.02C272.347 65.7 271.781 66.22 271.061 66.58C270.341 66.9267 269.534 67.1 268.641 67.1ZM276.514 64.28L276.554 62.46L283.094 56.5H284.834L280.214 60.92L279.414 61.6L276.514 64.28ZM275.394 67V52.16H276.814V67H275.394ZM283.534 67L279.154 61.54L280.074 60.44L285.274 67H283.534ZM292.64 67V56.5H294.06V67H292.64ZM293.36 54.18C293.067 54.18 292.82 54.08 292.62 53.88C292.42 53.68 292.32 53.44 292.32 53.16C292.32 52.88 292.42 52.6467 292.62 52.46C292.82 52.26 293.067 52.16 293.36 52.16C293.653 52.16 293.9 52.2533 294.1 52.44C294.3 52.6267 294.4 52.86 294.4 53.14C294.4 53.4333 294.3 53.68 294.1 53.88C293.913 54.08 293.667 54.18 293.36 54.18ZM303.371 56.4C304.225 56.4 304.971 56.5667 305.611 56.9C306.265 57.22 306.771 57.7133 307.131 58.38C307.505 59.0467 307.691 59.8867 307.691 60.9V67H306.271V61.04C306.271 59.9333 305.991 59.1 305.431 58.54C304.885 57.9667 304.111 57.68 303.111 57.68C302.365 57.68 301.711 57.8333 301.151 58.14C300.605 58.4333 300.178 58.8667 299.871 59.44C299.578 60 299.431 60.68 299.431 61.48V67H298.011V56.5H299.371V59.38L299.151 58.84C299.485 58.08 300.018 57.4867 300.751 57.06C301.485 56.62 302.358 56.4 303.371 56.4ZM316.761 67V56.5H318.121V59.36L317.981 58.86C318.275 58.06 318.768 57.4533 319.461 57.04C320.155 56.6133 321.015 56.4 322.041 56.4V57.78C321.988 57.78 321.935 57.78 321.881 57.78C321.828 57.7667 321.775 57.76 321.721 57.76C320.615 57.76 319.748 58.1 319.121 58.78C318.495 59.4467 318.181 60.4 318.181 61.64V67H316.761ZM328.995 67.1C327.901 67.1 326.941 66.8733 326.115 66.42C325.288 65.9533 324.641 65.32 324.175 64.52C323.708 63.7067 323.475 62.78 323.475 61.74C323.475 60.7 323.695 59.78 324.135 58.98C324.588 58.18 325.201 57.5533 325.975 57.1C326.761 56.6333 327.641 56.4 328.615 56.4C329.601 56.4 330.475 56.6267 331.235 57.08C332.008 57.52 332.615 58.1467 333.055 58.96C333.495 59.76 333.715 60.6867 333.715 61.74C333.715 61.8067 333.708 61.88 333.695 61.96C333.695 62.0267 333.695 62.1 333.695 62.18H324.555V61.12H332.935L332.375 61.54C332.375 60.78 332.208 60.1067 331.875 59.52C331.555 58.92 331.115 58.4533 330.555 58.12C329.995 57.7867 329.348 57.62 328.615 57.62C327.895 57.62 327.248 57.7867 326.675 58.12C326.101 58.4533 325.655 58.92 325.335 59.52C325.015 60.12 324.855 60.8067 324.855 61.58V61.8C324.855 62.6 325.028 63.3067 325.375 63.92C325.735 64.52 326.228 64.9933 326.855 65.34C327.495 65.6733 328.221 65.84 329.035 65.84C329.675 65.84 330.268 65.7267 330.815 65.5C331.375 65.2733 331.855 64.9267 332.255 64.46L333.055 65.38C332.588 65.94 332.001 66.3667 331.295 66.66C330.601 66.9533 329.835 67.1 328.995 67.1ZM342.892 67V64.68L342.832 64.3V60.42C342.832 59.5267 342.579 58.84 342.072 58.36C341.579 57.88 340.839 57.64 339.852 57.64C339.172 57.64 338.525 57.7533 337.912 57.98C337.299 58.2067 336.779 58.5067 336.352 58.88L335.712 57.82C336.245 57.3667 336.885 57.02 337.632 56.78C338.379 56.5267 339.165 56.4 339.992 56.4C341.352 56.4 342.399 56.74 343.132 57.42C343.879 58.0867 344.252 59.1067 344.252 60.48V67H342.892ZM339.272 67.1C338.485 67.1 337.799 66.9733 337.212 66.72C336.639 66.4533 336.199 66.0933 335.892 65.64C335.585 65.1733 335.432 64.64 335.432 64.04C335.432 63.4933 335.559 63 335.812 62.56C336.079 62.1067 336.505 61.7467 337.092 61.48C337.692 61.2 338.492 61.06 339.492 61.06H343.112V62.12H339.532C338.519 62.12 337.812 62.3 337.412 62.66C337.025 63.02 336.832 63.4667 336.832 64C336.832 64.6 337.065 65.08 337.532 65.44C337.999 65.8 338.652 65.98 339.492 65.98C340.292 65.98 340.979 65.8 341.552 65.44C342.139 65.0667 342.565 64.5333 342.832 63.84L343.152 64.82C342.885 65.5133 342.419 66.0667 341.752 66.48C341.099 66.8933 340.272 67.1 339.272 67.1ZM348.109 67V52.16H349.529V67H348.109ZM352.7 62.2V60.96H357.94V62.2H352.7ZM364.632 67.1C363.645 67.1 362.885 66.8333 362.352 66.3C361.819 65.7667 361.552 65.0133 361.552 64.04V54.18H362.972V63.96C362.972 64.5733 363.125 65.0467 363.432 65.38C363.752 65.7133 364.205 65.88 364.792 65.88C365.419 65.88 365.939 65.7 366.352 65.34L366.852 66.36C366.572 66.6133 366.232 66.8 365.832 66.92C365.445 67.04 365.045 67.1 364.632 67.1ZM359.672 57.68V56.5H366.172V57.68H359.672ZM369.437 67V56.5H370.857V67H369.437ZM370.157 54.18C369.864 54.18 369.617 54.08 369.417 53.88C369.217 53.68 369.117 53.44 369.117 53.16C369.117 52.88 369.217 52.6467 369.417 52.46C369.617 52.26 369.864 52.16 370.157 52.16C370.45 52.16 370.697 52.2533 370.897 52.44C371.097 52.6267 371.197 52.86 371.197 53.14C371.197 53.4333 371.097 53.68 370.897 53.88C370.71 54.08 370.464 54.18 370.157 54.18ZM387.928 56.4C388.781 56.4 389.521 56.5667 390.148 56.9C390.788 57.22 391.281 57.7133 391.628 58.38C391.988 59.0467 392.168 59.8867 392.168 60.9V67H390.748V61.04C390.748 59.9333 390.481 59.1 389.948 58.54C389.428 57.9667 388.688 57.68 387.728 57.68C387.008 57.68 386.381 57.8333 385.848 58.14C385.328 58.4333 384.921 58.8667 384.628 59.44C384.348 60 384.208 60.68 384.208 61.48V67H382.788V61.04C382.788 59.9333 382.521 59.1 381.988 58.54C381.455 57.9667 380.708 57.68 379.748 57.68C379.041 57.68 378.421 57.8333 377.888 58.14C377.355 58.4333 376.941 58.8667 376.648 59.44C376.368 60 376.228 60.68 376.228 61.48V67H374.808V56.5H376.168V59.34L375.948 58.84C376.268 58.08 376.781 57.4867 377.488 57.06C378.208 56.62 379.055 56.4 380.028 56.4C381.055 56.4 381.928 56.66 382.648 57.18C383.368 57.6867 383.835 58.4533 384.048 59.48L383.488 59.26C383.795 58.4067 384.335 57.72 385.108 57.2C385.895 56.6667 386.835 56.4 387.928 56.4ZM400.479 67.1C399.386 67.1 398.426 66.8733 397.599 66.42C396.772 65.9533 396.126 65.32 395.659 64.52C395.192 63.7067 394.959 62.78 394.959 61.74C394.959 60.7 395.179 59.78 395.619 58.98C396.072 58.18 396.686 57.5533 397.459 57.1C398.246 56.6333 399.126 56.4 400.099 56.4C401.086 56.4 401.959 56.6267 402.719 57.08C403.492 57.52 404.099 58.1467 404.539 58.96C404.979 59.76 405.199 60.6867 405.199 61.74C405.199 61.8067 405.192 61.88 405.179 61.96C405.179 62.0267 405.179 62.1 405.179 62.18H396.039V61.12H404.419L403.859 61.54C403.859 60.78 403.692 60.1067 403.359 59.52C403.039 58.92 402.599 58.4533 402.039 58.12C401.479 57.7867 400.832 57.62 400.099 57.62C399.379 57.62 398.732 57.7867 398.159 58.12C397.586 58.4533 397.139 58.92 396.819 59.52C396.499 60.12 396.339 60.8067 396.339 61.58V61.8C396.339 62.6 396.512 63.3067 396.859 63.92C397.219 64.52 397.712 64.9933 398.339 65.34C398.979 65.6733 399.706 65.84 400.519 65.84C401.159 65.84 401.752 65.7267 402.299 65.5C402.859 65.2733 403.339 64.9267 403.739 64.46L404.539 65.38C404.072 65.94 403.486 66.3667 402.779 66.66C402.086 66.9533 401.319 67.1 400.479 67.1ZM128.12 99L124.16 88.5H125.52L129.12 98.24H128.5L132.2 88.5H133.42L137.08 98.24H136.46L140.12 88.5H141.42L137.44 99H136.1L132.58 89.84H133L129.46 99H128.12ZM143.558 99V88.5H144.978V99H143.558ZM144.278 86.18C143.985 86.18 143.738 86.08 143.538 85.88C143.338 85.68 143.238 85.44 143.238 85.16C143.238 84.88 143.338 84.6467 143.538 84.46C143.738 84.26 143.985 84.16 144.278 84.16C144.571 84.16 144.818 84.2533 145.018 84.44C145.218 84.6267 145.318 84.86 145.318 85.14C145.318 85.4333 145.218 85.68 145.018 85.88C144.831 86.08 144.585 86.18 144.278 86.18ZM152.249 99.1C151.263 99.1 150.503 98.8333 149.969 98.3C149.436 97.7667 149.169 97.0133 149.169 96.04V86.18H150.589V95.96C150.589 96.5733 150.743 97.0467 151.049 97.38C151.369 97.7133 151.823 97.88 152.409 97.88C153.036 97.88 153.556 97.7 153.969 97.34L154.469 98.36C154.189 98.6133 153.849 98.8 153.449 98.92C153.063 99.04 152.663 99.1 152.249 99.1ZM147.289 89.68V88.5H153.789V89.68H147.289ZM162.414 88.4C163.268 88.4 164.014 88.5667 164.654 88.9C165.308 89.22 165.814 89.7133 166.174 90.38C166.548 91.0467 166.734 91.8867 166.734 92.9V99H165.314V93.04C165.314 91.9333 165.034 91.1 164.474 90.54C163.928 89.9667 163.154 89.68 162.154 89.68C161.408 89.68 160.754 89.8333 160.194 90.14C159.648 90.4333 159.221 90.8667 158.914 91.44C158.621 92 158.474 92.68 158.474 93.48V99H157.054V84.16H158.474V91.38L158.194 90.84C158.528 90.08 159.061 89.4867 159.794 89.06C160.528 88.62 161.401 88.4 162.414 88.4ZM175.804 99V88.5H177.224V99H175.804ZM176.524 86.18C176.231 86.18 175.984 86.08 175.784 85.88C175.584 85.68 175.484 85.44 175.484 85.16C175.484 84.88 175.584 84.6467 175.784 84.46C175.984 84.26 176.231 84.16 176.524 84.16C176.818 84.16 177.064 84.2533 177.264 84.44C177.464 84.6267 177.564 84.86 177.564 85.14C177.564 85.4333 177.464 85.68 177.264 85.88C177.078 86.08 176.831 86.18 176.524 86.18ZM186.535 88.4C187.389 88.4 188.135 88.5667 188.775 88.9C189.429 89.22 189.935 89.7133 190.295 90.38C190.669 91.0467 190.855 91.8867 190.855 92.9V99H189.435V93.04C189.435 91.9333 189.155 91.1 188.595 90.54C188.049 89.9667 187.275 89.68 186.275 89.68C185.529 89.68 184.875 89.8333 184.315 90.14C183.769 90.4333 183.342 90.8667 183.035 91.44C182.742 92 182.595 92.68 182.595 93.48V99H181.175V88.5H182.535V91.38L182.315 90.84C182.649 90.08 183.182 89.4867 183.915 89.06C184.649 88.62 185.522 88.4 186.535 88.4ZM198.011 99.1C197.024 99.1 196.264 98.8333 195.731 98.3C195.198 97.7667 194.931 97.0133 194.931 96.04V86.18H196.351V95.96C196.351 96.5733 196.504 97.0467 196.811 97.38C197.131 97.7133 197.584 97.88 198.171 97.88C198.798 97.88 199.318 97.7 199.731 97.34L200.231 98.36C199.951 98.6133 199.611 98.8 199.211 98.92C198.824 99.04 198.424 99.1 198.011 99.1ZM193.051 89.68V88.5H199.551V89.68H193.051ZM206.905 99.1C205.812 99.1 204.852 98.8733 204.025 98.42C203.198 97.9533 202.552 97.32 202.085 96.52C201.618 95.7067 201.385 94.78 201.385 93.74C201.385 92.7 201.605 91.78 202.045 90.98C202.498 90.18 203.112 89.5533 203.885 89.1C204.672 88.6333 205.552 88.4 206.525 88.4C207.512 88.4 208.385 88.6267 209.145 89.08C209.918 89.52 210.525 90.1467 210.965 90.96C211.405 91.76 211.625 92.6867 211.625 93.74C211.625 93.8067 211.618 93.88 211.605 93.96C211.605 94.0267 211.605 94.1 211.605 94.18H202.465V93.12H210.845L210.285 93.54C210.285 92.78 210.118 92.1067 209.785 91.52C209.465 90.92 209.025 90.4533 208.465 90.12C207.905 89.7867 207.258 89.62 206.525 89.62C205.805 89.62 205.158 89.7867 204.585 90.12C204.012 90.4533 203.565 90.92 203.245 91.52C202.925 92.12 202.765 92.8067 202.765 93.58V93.8C202.765 94.6 202.938 95.3067 203.285 95.92C203.645 96.52 204.138 96.9933 204.765 97.34C205.405 97.6733 206.132 97.84 206.945 97.84C207.585 97.84 208.178 97.7267 208.725 97.5C209.285 97.2733 209.765 96.9267 210.165 96.46L210.965 97.38C210.498 97.94 209.912 98.3667 209.205 98.66C208.512 98.9533 207.745 99.1 206.905 99.1ZM214.515 99V84.16H215.935V99H214.515ZM219.886 99V84.16H221.306V99H219.886ZM225.257 99V88.5H226.677V99H225.257ZM225.977 86.18C225.684 86.18 225.437 86.08 225.237 85.88C225.037 85.68 224.937 85.44 224.937 85.16C224.937 84.88 225.037 84.6467 225.237 84.46C225.437 84.26 225.684 84.16 225.977 84.16C226.271 84.16 226.517 84.2533 226.717 84.44C226.917 84.6267 227.017 84.86 227.017 85.14C227.017 85.4333 226.917 85.68 226.717 85.88C226.531 86.08 226.284 86.18 225.977 86.18ZM235.108 102.98C234.148 102.98 233.228 102.84 232.348 102.56C231.468 102.28 230.755 101.88 230.208 101.36L230.928 100.28C231.422 100.72 232.028 101.067 232.748 101.32C233.482 101.587 234.255 101.72 235.068 101.72C236.402 101.72 237.382 101.407 238.008 100.78C238.635 100.167 238.948 99.2067 238.948 97.9V95.28L239.148 93.48L239.008 91.68V88.5H240.368V97.72C240.368 99.5333 239.922 100.86 239.028 101.7C238.148 102.553 236.842 102.98 235.108 102.98ZM234.848 98.6C233.848 98.6 232.948 98.3867 232.148 97.96C231.348 97.52 230.715 96.9133 230.248 96.14C229.795 95.3667 229.568 94.48 229.568 93.48C229.568 92.48 229.795 91.6 230.248 90.84C230.715 90.0667 231.348 89.4667 232.148 89.04C232.948 88.6133 233.848 88.4 234.848 88.4C235.782 88.4 236.622 88.5933 237.368 88.98C238.115 89.3667 238.708 89.94 239.148 90.7C239.588 91.46 239.808 92.3867 239.808 93.48C239.808 94.5733 239.588 95.5 239.148 96.26C238.708 97.02 238.115 97.6 237.368 98C236.622 98.4 235.782 98.6 234.848 98.6ZM234.988 97.34C235.762 97.34 236.448 97.18 237.048 96.86C237.648 96.5267 238.122 96.0733 238.468 95.5C238.815 94.9133 238.988 94.24 238.988 93.48C238.988 92.72 238.815 92.0533 238.468 91.48C238.122 90.9067 237.648 90.46 237.048 90.14C236.448 89.8067 235.762 89.64 234.988 89.64C234.228 89.64 233.542 89.8067 232.928 90.14C232.328 90.46 231.855 90.9067 231.508 91.48C231.175 92.0533 231.008 92.72 231.008 93.48C231.008 94.24 231.175 94.9133 231.508 95.5C231.855 96.0733 232.328 96.5267 232.928 96.86C233.542 97.18 234.228 97.34 234.988 97.34ZM248.78 99.1C247.687 99.1 246.727 98.8733 245.9 98.42C245.073 97.9533 244.427 97.32 243.96 96.52C243.493 95.7067 243.26 94.78 243.26 93.74C243.26 92.7 243.48 91.78 243.92 90.98C244.373 90.18 244.987 89.5533 245.76 89.1C246.547 88.6333 247.427 88.4 248.4 88.4C249.387 88.4 250.26 88.6267 251.02 89.08C251.793 89.52 252.4 90.1467 252.84 90.96C253.28 91.76 253.5 92.6867 253.5 93.74C253.5 93.8067 253.493 93.88 253.48 93.96C253.48 94.0267 253.48 94.1 253.48 94.18H244.34V93.12H252.72L252.16 93.54C252.16 92.78 251.993 92.1067 251.66 91.52C251.34 90.92 250.9 90.4533 250.34 90.12C249.78 89.7867 249.133 89.62 248.4 89.62C247.68 89.62 247.033 89.7867 246.46 90.12C245.887 90.4533 245.44 90.92 245.12 91.52C244.8 92.12 244.64 92.8067 244.64 93.58V93.8C244.64 94.6 244.813 95.3067 245.16 95.92C245.52 96.52 246.013 96.9933 246.64 97.34C247.28 97.6733 248.007 97.84 248.82 97.84C249.46 97.84 250.053 97.7267 250.6 97.5C251.16 97.2733 251.64 96.9267 252.04 96.46L252.84 97.38C252.373 97.94 251.787 98.3667 251.08 98.66C250.387 98.9533 249.62 99.1 248.78 99.1ZM261.75 88.4C262.603 88.4 263.35 88.5667 263.99 88.9C264.643 89.22 265.15 89.7133 265.51 90.38C265.883 91.0467 266.07 91.8867 266.07 92.9V99H264.65V93.04C264.65 91.9333 264.37 91.1 263.81 90.54C263.263 89.9667 262.49 89.68 261.49 89.68C260.743 89.68 260.09 89.8333 259.53 90.14C258.983 90.4333 258.557 90.8667 258.25 91.44C257.957 92 257.81 92.68 257.81 93.48V99H256.39V88.5H257.75V91.38L257.53 90.84C257.863 90.08 258.397 89.4867 259.13 89.06C259.863 88.62 260.737 88.4 261.75 88.4ZM273.226 99.1C272.239 99.1 271.479 98.8333 270.946 98.3C270.412 97.7667 270.146 97.0133 270.146 96.04V86.18H271.566V95.96C271.566 96.5733 271.719 97.0467 272.026 97.38C272.346 97.7133 272.799 97.88 273.386 97.88C274.012 97.88 274.532 97.7 274.946 97.34L275.446 98.36C275.166 98.6133 274.826 98.8 274.426 98.92C274.039 99.04 273.639 99.1 273.226 99.1ZM268.266 89.68V88.5H274.766V89.68H268.266ZM289.845 99V96.68L289.785 96.3V92.42C289.785 91.5267 289.532 90.84 289.025 90.36C288.532 89.88 287.792 89.64 286.805 89.64C286.125 89.64 285.478 89.7533 284.865 89.98C284.252 90.2067 283.732 90.5067 283.305 90.88L282.665 89.82C283.198 89.3667 283.838 89.02 284.585 88.78C285.332 88.5267 286.118 88.4 286.945 88.4C288.305 88.4 289.352 88.74 290.085 89.42C290.832 90.0867 291.205 91.1067 291.205 92.48V99H289.845ZM286.225 99.1C285.438 99.1 284.752 98.9733 284.165 98.72C283.592 98.4533 283.152 98.0933 282.845 97.64C282.538 97.1733 282.385 96.64 282.385 96.04C282.385 95.4933 282.512 95 282.765 94.56C283.032 94.1067 283.458 93.7467 284.045 93.48C284.645 93.2 285.445 93.06 286.445 93.06H290.065V94.12H286.485C285.472 94.12 284.765 94.3 284.365 94.66C283.978 95.02 283.785 95.4667 283.785 96C283.785 96.6 284.018 97.08 284.485 97.44C284.952 97.8 285.605 97.98 286.445 97.98C287.245 97.98 287.932 97.8 288.505 97.44C289.092 97.0667 289.518 96.5333 289.785 95.84L290.105 96.82C289.838 97.5133 289.372 98.0667 288.705 98.48C288.052 98.8933 287.225 99.1 286.225 99.1ZM295.062 99V84.16H296.482V99H295.062ZM304.893 99.1C303.8 99.1 302.84 98.8733 302.013 98.42C301.186 97.9533 300.54 97.32 300.073 96.52C299.606 95.7067 299.373 94.78 299.373 93.74C299.373 92.7 299.593 91.78 300.033 90.98C300.486 90.18 301.1 89.5533 301.873 89.1C302.66 88.6333 303.54 88.4 304.513 88.4C305.5 88.4 306.373 88.6267 307.133 89.08C307.906 89.52 308.513 90.1467 308.953 90.96C309.393 91.76 309.613 92.6867 309.613 93.74C309.613 93.8067 309.606 93.88 309.593 93.96C309.593 94.0267 309.593 94.1 309.593 94.18H300.453V93.12H308.833L308.273 93.54C308.273 92.78 308.106 92.1067 307.773 91.52C307.453 90.92 307.013 90.4533 306.453 90.12C305.893 89.7867 305.246 89.62 304.513 89.62C303.793 89.62 303.146 89.7867 302.573 90.12C302 90.4533 301.553 90.92 301.233 91.52C300.913 92.12 300.753 92.8067 300.753 93.58V93.8C300.753 94.6 300.926 95.3067 301.273 95.92C301.633 96.52 302.126 96.9933 302.753 97.34C303.393 97.6733 304.12 97.84 304.933 97.84C305.573 97.84 306.166 97.7267 306.713 97.5C307.273 97.2733 307.753 96.9267 308.153 96.46L308.953 97.38C308.486 97.94 307.9 98.3667 307.193 98.66C306.5 98.9533 305.733 99.1 304.893 99.1ZM312.503 99V88.5H313.863V91.36L313.723 90.86C314.017 90.06 314.51 89.4533 315.203 89.04C315.897 88.6133 316.757 88.4 317.783 88.4V89.78C317.73 89.78 317.677 89.78 317.623 89.78C317.57 89.7667 317.517 89.76 317.463 89.76C316.357 89.76 315.49 90.1 314.863 90.78C314.237 91.4467 313.923 92.4 313.923 93.64V99H312.503ZM324.144 99.1C323.157 99.1 322.397 98.8333 321.864 98.3C321.33 97.7667 321.064 97.0133 321.064 96.04V86.18H322.484V95.96C322.484 96.5733 322.637 97.0467 322.944 97.38C323.264 97.7133 323.717 97.88 324.304 97.88C324.93 97.88 325.45 97.7 325.864 97.34L326.364 98.36C326.084 98.6133 325.744 98.8 325.344 98.92C324.957 99.04 324.557 99.1 324.144 99.1ZM319.184 89.68V88.5H325.684V89.68H319.184ZM331.769 99.1C330.902 99.1 330.082 98.98 329.309 98.74C328.535 98.4867 327.929 98.1733 327.489 97.8L328.129 96.68C328.555 97 329.102 97.28 329.769 97.52C330.435 97.7467 331.135 97.86 331.869 97.86C332.869 97.86 333.589 97.7067 334.029 97.4C334.469 97.08 334.689 96.66 334.689 96.14C334.689 95.7533 334.562 95.4533 334.309 95.24C334.069 95.0133 333.749 94.8467 333.349 94.74C332.949 94.62 332.502 94.52 332.009 94.44C331.515 94.36 331.022 94.2667 330.529 94.16C330.049 94.0533 329.609 93.9 329.209 93.7C328.809 93.4867 328.482 93.2 328.229 92.84C327.989 92.48 327.869 92 327.869 91.4C327.869 90.8267 328.029 90.3133 328.349 89.86C328.669 89.4067 329.135 89.0533 329.749 88.8C330.375 88.5333 331.135 88.4 332.029 88.4C332.709 88.4 333.389 88.4933 334.069 88.68C334.749 88.8533 335.309 89.0867 335.749 89.38L335.129 90.52C334.662 90.2 334.162 89.9733 333.629 89.84C333.095 89.6933 332.562 89.62 332.029 89.62C331.082 89.62 330.382 89.7867 329.929 90.12C329.489 90.44 329.269 90.8533 329.269 91.36C329.269 91.76 329.389 92.0733 329.629 92.3C329.882 92.5267 330.209 92.7067 330.609 92.84C331.022 92.96 331.469 93.06 331.949 93.14C332.442 93.22 332.929 93.32 333.409 93.44C333.902 93.5467 334.349 93.7 334.749 93.9C335.162 94.0867 335.489 94.36 335.729 94.72C335.982 95.0667 336.109 95.5267 336.109 96.1C336.109 96.7133 335.935 97.2467 335.589 97.7C335.255 98.14 334.762 98.4867 334.109 98.74C333.469 98.98 332.689 99.1 331.769 99.1ZM350.529 99V96.68L350.469 96.3V92.42C350.469 91.5267 350.215 90.84 349.709 90.36C349.215 89.88 348.475 89.64 347.489 89.64C346.809 89.64 346.162 89.7533 345.549 89.98C344.935 90.2067 344.415 90.5067 343.989 90.88L343.349 89.82C343.882 89.3667 344.522 89.02 345.269 88.78C346.015 88.5267 346.802 88.4 347.629 88.4C348.989 88.4 350.035 88.74 350.769 89.42C351.515 90.0867 351.889 91.1067 351.889 92.48V99H350.529ZM346.909 99.1C346.122 99.1 345.435 98.9733 344.849 98.72C344.275 98.4533 343.835 98.0933 343.529 97.64C343.222 97.1733 343.069 96.64 343.069 96.04C343.069 95.4933 343.195 95 343.449 94.56C343.715 94.1067 344.142 93.7467 344.729 93.48C345.329 93.2 346.129 93.06 347.129 93.06H350.749V94.12H347.169C346.155 94.12 345.449 94.3 345.049 94.66C344.662 95.02 344.469 95.4667 344.469 96C344.469 96.6 344.702 97.08 345.169 97.44C345.635 97.8 346.289 97.98 347.129 97.98C347.929 97.98 348.615 97.8 349.189 97.44C349.775 97.0667 350.202 96.5333 350.469 95.84L350.789 96.82C350.522 97.5133 350.055 98.0667 349.389 98.48C348.735 98.8933 347.909 99.1 346.909 99.1ZM361.106 88.4C361.959 88.4 362.706 88.5667 363.346 88.9C363.999 89.22 364.506 89.7133 364.866 90.38C365.239 91.0467 365.426 91.8867 365.426 92.9V99H364.006V93.04C364.006 91.9333 363.726 91.1 363.166 90.54C362.619 89.9667 361.846 89.68 360.846 89.68C360.099 89.68 359.446 89.8333 358.886 90.14C358.339 90.4333 357.912 90.8667 357.606 91.44C357.312 92 357.166 92.68 357.166 93.48V99H355.746V88.5H357.106V91.38L356.886 90.84C357.219 90.08 357.752 89.4867 358.486 89.06C359.219 88.62 360.092 88.4 361.106 88.4ZM373.441 99.1C372.441 99.1 371.541 98.8733 370.741 98.42C369.955 97.9667 369.335 97.34 368.881 96.54C368.428 95.7267 368.201 94.7933 368.201 93.74C368.201 92.6733 368.428 91.74 368.881 90.94C369.335 90.14 369.955 89.52 370.741 89.08C371.541 88.6267 372.441 88.4 373.441 88.4C374.361 88.4 375.181 88.6067 375.901 89.02C376.635 89.4333 377.215 90.04 377.641 90.84C378.081 91.6267 378.301 92.5933 378.301 93.74C378.301 94.8733 378.088 95.84 377.661 96.64C377.235 97.44 376.655 98.0533 375.921 98.48C375.201 98.8933 374.375 99.1 373.441 99.1ZM373.541 97.84C374.288 97.84 374.955 97.6733 375.541 97.34C376.141 96.9933 376.608 96.5133 376.941 95.9C377.288 95.2733 377.461 94.5533 377.461 93.74C377.461 92.9133 377.288 92.1933 376.941 91.58C376.608 90.9667 376.141 90.4933 375.541 90.16C374.955 89.8133 374.288 89.64 373.541 89.64C372.808 89.64 372.148 89.8133 371.561 90.16C370.975 90.4933 370.508 90.9667 370.161 91.58C369.815 92.1933 369.641 92.9133 369.641 93.74C369.641 94.5533 369.815 95.2733 370.161 95.9C370.508 96.5133 370.975 96.9933 371.561 97.34C372.148 97.6733 372.808 97.84 373.541 97.84ZM377.501 99V95.84L377.641 93.72L377.441 91.6V84.16H378.861V99H377.501ZM132.56 131V128.68L132.5 128.3V124.42C132.5 123.527 132.247 122.84 131.74 122.36C131.247 121.88 130.507 121.64 129.52 121.64C128.84 121.64 128.193 121.753 127.58 121.98C126.967 122.207 126.447 122.507 126.02 122.88L125.38 121.82C125.913 121.367 126.553 121.02 127.3 120.78C128.047 120.527 128.833 120.4 129.66 120.4C131.02 120.4 132.067 120.74 132.8 121.42C133.547 122.087 133.92 123.107 133.92 124.48V131H132.56ZM128.94 131.1C128.153 131.1 127.467 130.973 126.88 130.72C126.307 130.453 125.867 130.093 125.56 129.64C125.253 129.173 125.1 128.64 125.1 128.04C125.1 127.493 125.227 127 125.48 126.56C125.747 126.107 126.173 125.747 126.76 125.48C127.36 125.2 128.16 125.06 129.16 125.06H132.78V126.12H129.2C128.187 126.12 127.48 126.3 127.08 126.66C126.693 127.02 126.5 127.467 126.5 128C126.5 128.6 126.733 129.08 127.2 129.44C127.667 129.8 128.32 129.98 129.16 129.98C129.96 129.98 130.647 129.8 131.22 129.44C131.807 129.067 132.233 128.533 132.5 127.84L132.82 128.82C132.553 129.513 132.087 130.067 131.42 130.48C130.767 130.893 129.94 131.1 128.94 131.1ZM142.117 131.1C141.224 131.1 140.444 130.933 139.777 130.6C139.11 130.267 138.59 129.767 138.217 129.1C137.857 128.433 137.677 127.6 137.677 126.6V120.5H139.097V126.44C139.097 127.56 139.37 128.407 139.917 128.98C140.477 129.54 141.257 129.82 142.257 129.82C142.99 129.82 143.624 129.673 144.157 129.38C144.704 129.073 145.117 128.633 145.397 128.06C145.69 127.487 145.837 126.8 145.837 126V120.5H147.257V131H145.897V128.12L146.117 128.64C145.784 129.413 145.264 130.02 144.557 130.46C143.864 130.887 143.05 131.1 142.117 131.1ZM154.534 131.1C153.548 131.1 152.788 130.833 152.254 130.3C151.721 129.767 151.454 129.013 151.454 128.04V118.18H152.874V127.96C152.874 128.573 153.028 129.047 153.334 129.38C153.654 129.713 154.108 129.88 154.694 129.88C155.321 129.88 155.841 129.7 156.254 129.34L156.754 130.36C156.474 130.613 156.134 130.8 155.734 130.92C155.348 131.04 154.948 131.1 154.534 131.1ZM149.574 121.68V120.5H156.074V121.68H149.574ZM163.248 131.1C162.235 131.1 161.322 130.873 160.508 130.42C159.708 129.953 159.075 129.32 158.608 128.52C158.142 127.707 157.908 126.78 157.908 125.74C157.908 124.687 158.142 123.76 158.608 122.96C159.075 122.16 159.708 121.533 160.508 121.08C161.308 120.627 162.222 120.4 163.248 120.4C164.288 120.4 165.208 120.627 166.008 121.08C166.822 121.533 167.455 122.16 167.908 122.96C168.375 123.76 168.608 124.687 168.608 125.74C168.608 126.78 168.375 127.707 167.908 128.52C167.455 129.32 166.822 129.953 166.008 130.42C165.195 130.873 164.275 131.1 163.248 131.1ZM163.248 129.84C164.008 129.84 164.682 129.673 165.268 129.34C165.855 128.993 166.315 128.513 166.648 127.9C166.995 127.273 167.168 126.553 167.168 125.74C167.168 124.913 166.995 124.193 166.648 123.58C166.315 122.967 165.855 122.493 165.268 122.16C164.682 121.813 164.015 121.64 163.268 121.64C162.522 121.64 161.855 121.813 161.268 122.16C160.682 122.493 160.215 122.967 159.868 123.58C159.522 124.193 159.348 124.913 159.348 125.74C159.348 126.553 159.522 127.273 159.868 127.9C160.215 128.513 160.682 128.993 161.268 129.34C161.855 129.673 162.515 129.84 163.248 129.84ZM184.627 120.4C185.481 120.4 186.221 120.567 186.847 120.9C187.487 121.22 187.981 121.713 188.327 122.38C188.687 123.047 188.867 123.887 188.867 124.9V131H187.447V125.04C187.447 123.933 187.181 123.1 186.647 122.54C186.127 121.967 185.387 121.68 184.427 121.68C183.707 121.68 183.081 121.833 182.547 122.14C182.027 122.433 181.621 122.867 181.327 123.44C181.047 124 180.907 124.68 180.907 125.48V131H179.487V125.04C179.487 123.933 179.221 123.1 178.687 122.54C178.154 121.967 177.407 121.68 176.447 121.68C175.741 121.68 175.121 121.833 174.587 122.14C174.054 122.433 173.641 122.867 173.347 123.44C173.067 124 172.927 124.68 172.927 125.48V131H171.507V120.5H172.867V123.34L172.647 122.84C172.967 122.08 173.481 121.487 174.187 121.06C174.907 120.62 175.754 120.4 176.727 120.4C177.754 120.4 178.627 120.66 179.347 121.18C180.067 121.687 180.534 122.453 180.747 123.48L180.187 123.26C180.494 122.407 181.034 121.72 181.807 121.2C182.594 120.667 183.534 120.4 184.627 120.4ZM199.298 131V128.68L199.238 128.3V124.42C199.238 123.527 198.985 122.84 198.478 122.36C197.985 121.88 197.245 121.64 196.258 121.64C195.578 121.64 194.932 121.753 194.318 121.98C193.705 122.207 193.185 122.507 192.758 122.88L192.118 121.82C192.652 121.367 193.292 121.02 194.038 120.78C194.785 120.527 195.572 120.4 196.398 120.4C197.758 120.4 198.805 120.74 199.538 121.42C200.285 122.087 200.658 123.107 200.658 124.48V131H199.298ZM195.678 131.1C194.892 131.1 194.205 130.973 193.618 130.72C193.045 130.453 192.605 130.093 192.298 129.64C191.992 129.173 191.838 128.64 191.838 128.04C191.838 127.493 191.965 127 192.218 126.56C192.485 126.107 192.912 125.747 193.498 125.48C194.098 125.2 194.898 125.06 195.898 125.06H199.518V126.12H195.938C194.925 126.12 194.218 126.3 193.818 126.66C193.432 127.02 193.238 127.467 193.238 128C193.238 128.6 193.472 129.08 193.938 129.44C194.405 129.8 195.058 129.98 195.898 129.98C196.698 129.98 197.385 129.8 197.958 129.44C198.545 129.067 198.972 128.533 199.238 127.84L199.558 128.82C199.292 129.513 198.825 130.067 198.158 130.48C197.505 130.893 196.678 131.1 195.678 131.1ZM207.835 131.1C206.848 131.1 206.088 130.833 205.555 130.3C205.022 129.767 204.755 129.013 204.755 128.04V118.18H206.175V127.96C206.175 128.573 206.328 129.047 206.635 129.38C206.955 129.713 207.408 129.88 207.995 129.88C208.622 129.88 209.142 129.7 209.555 129.34L210.055 130.36C209.775 130.613 209.435 130.8 209.035 130.92C208.648 131.04 208.248 131.1 207.835 131.1ZM202.875 121.68V120.5H209.375V121.68H202.875ZM216.729 131.1C215.636 131.1 214.676 130.873 213.849 130.42C213.022 129.953 212.376 129.32 211.909 128.52C211.442 127.707 211.209 126.78 211.209 125.74C211.209 124.7 211.429 123.78 211.869 122.98C212.322 122.18 212.936 121.553 213.709 121.1C214.496 120.633 215.376 120.4 216.349 120.4C217.336 120.4 218.209 120.627 218.969 121.08C219.742 121.52 220.349 122.147 220.789 122.96C221.229 123.76 221.449 124.687 221.449 125.74C221.449 125.807 221.442 125.88 221.429 125.96C221.429 126.027 221.429 126.1 221.429 126.18H212.289V125.12H220.669L220.109 125.54C220.109 124.78 219.942 124.107 219.609 123.52C219.289 122.92 218.849 122.453 218.289 122.12C217.729 121.787 217.082 121.62 216.349 121.62C215.629 121.62 214.982 121.787 214.409 122.12C213.836 122.453 213.389 122.92 213.069 123.52C212.749 124.12 212.589 124.807 212.589 125.58V125.8C212.589 126.6 212.762 127.307 213.109 127.92C213.469 128.52 213.962 128.993 214.589 129.34C215.229 129.673 215.956 129.84 216.769 129.84C217.409 129.84 218.002 129.727 218.549 129.5C219.109 129.273 219.589 128.927 219.989 128.46L220.789 129.38C220.322 129.94 219.736 130.367 219.029 130.66C218.336 130.953 217.569 131.1 216.729 131.1ZM228.519 131.1C227.519 131.1 226.619 130.873 225.819 130.42C225.033 129.967 224.413 129.34 223.959 128.54C223.506 127.727 223.279 126.793 223.279 125.74C223.279 124.673 223.506 123.74 223.959 122.94C224.413 122.14 225.033 121.52 225.819 121.08C226.619 120.627 227.519 120.4 228.519 120.4C229.439 120.4 230.259 120.607 230.979 121.02C231.713 121.433 232.293 122.04 232.719 122.84C233.159 123.627 233.379 124.593 233.379 125.74C233.379 126.873 233.166 127.84 232.739 128.64C232.313 129.44 231.733 130.053 230.999 130.48C230.279 130.893 229.453 131.1 228.519 131.1ZM228.619 129.84C229.366 129.84 230.033 129.673 230.619 129.34C231.219 128.993 231.686 128.513 232.019 127.9C232.366 127.273 232.539 126.553 232.539 125.74C232.539 124.913 232.366 124.193 232.019 123.58C231.686 122.967 231.219 122.493 230.619 122.16C230.033 121.813 229.366 121.64 228.619 121.64C227.886 121.64 227.226 121.813 226.639 122.16C226.053 122.493 225.586 122.967 225.239 123.58C224.893 124.193 224.719 124.913 224.719 125.74C224.719 126.553 224.893 127.273 225.239 127.9C225.586 128.513 226.053 128.993 226.639 129.34C227.226 129.673 227.886 129.84 228.619 129.84ZM232.579 131V127.84L232.719 125.72L232.519 123.6V116.16H233.939V131H232.579ZM243.128 131V120.5H244.488V123.36L244.348 122.86C244.642 122.06 245.135 121.453 245.828 121.04C246.522 120.613 247.382 120.4 248.408 120.4V121.78C248.355 121.78 248.302 121.78 248.248 121.78C248.195 121.767 248.142 121.76 248.088 121.76C246.982 121.76 246.115 122.1 245.488 122.78C244.862 123.447 244.548 124.4 244.548 125.64V131H243.128ZM255.362 131.1C254.269 131.1 253.309 130.873 252.482 130.42C251.655 129.953 251.009 129.32 250.542 128.52C250.075 127.707 249.842 126.78 249.842 125.74C249.842 124.7 250.062 123.78 250.502 122.98C250.955 122.18 251.569 121.553 252.342 121.1C253.129 120.633 254.009 120.4 254.982 120.4C255.969 120.4 256.842 120.627 257.602 121.08C258.375 121.52 258.982 122.147 259.422 122.96C259.862 123.76 260.082 124.687 260.082 125.74C260.082 125.807 260.075 125.88 260.062 125.96C260.062 126.027 260.062 126.1 260.062 126.18H250.922V125.12H259.302L258.742 125.54C258.742 124.78 258.575 124.107 258.242 123.52C257.922 122.92 257.482 122.453 256.922 122.12C256.362 121.787 255.715 121.62 254.982 121.62C254.262 121.62 253.615 121.787 253.042 122.12C252.469 122.453 252.022 122.92 251.702 123.52C251.382 124.12 251.222 124.807 251.222 125.58V125.8C251.222 126.6 251.395 127.307 251.742 127.92C252.102 128.52 252.595 128.993 253.222 129.34C253.862 129.673 254.589 129.84 255.402 129.84C256.042 129.84 256.635 129.727 257.182 129.5C257.742 129.273 258.222 128.927 258.622 128.46L259.422 129.38C258.955 129.94 258.369 130.367 257.662 130.66C256.969 130.953 256.202 131.1 255.362 131.1ZM267.252 131.1C266.239 131.1 265.326 130.873 264.512 130.42C263.712 129.953 263.079 129.32 262.612 128.52C262.146 127.707 261.912 126.78 261.912 125.74C261.912 124.687 262.146 123.76 262.612 122.96C263.079 122.16 263.712 121.533 264.512 121.08C265.312 120.627 266.226 120.4 267.252 120.4C268.292 120.4 269.212 120.627 270.012 121.08C270.826 121.533 271.459 122.16 271.912 122.96C272.379 123.76 272.612 124.687 272.612 125.74C272.612 126.78 272.379 127.707 271.912 128.52C271.459 129.32 270.826 129.953 270.012 130.42C269.199 130.873 268.279 131.1 267.252 131.1ZM267.252 129.84C268.012 129.84 268.686 129.673 269.272 129.34C269.859 128.993 270.319 128.513 270.652 127.9C270.999 127.273 271.172 126.553 271.172 125.74C271.172 124.913 270.999 124.193 270.652 123.58C270.319 122.967 269.859 122.493 269.272 122.16C268.686 121.813 268.019 121.64 267.272 121.64C266.526 121.64 265.859 121.813 265.272 122.16C264.686 122.493 264.219 122.967 263.872 123.58C263.526 124.193 263.352 124.913 263.352 125.74C263.352 126.553 263.526 127.273 263.872 127.9C264.219 128.513 264.686 128.993 265.272 129.34C265.859 129.673 266.519 129.84 267.252 129.84ZM275.511 131V120.5H276.871V123.36L276.731 122.86C277.025 122.06 277.518 121.453 278.211 121.04C278.905 120.613 279.765 120.4 280.791 120.4V121.78C280.738 121.78 280.685 121.78 280.631 121.78C280.578 121.767 280.525 121.76 280.471 121.76C279.365 121.76 278.498 122.1 277.871 122.78C277.245 123.447 276.931 124.4 276.931 125.64V131H275.511ZM287.465 131.1C286.465 131.1 285.565 130.873 284.765 130.42C283.978 129.967 283.358 129.34 282.905 128.54C282.451 127.727 282.225 126.793 282.225 125.74C282.225 124.673 282.451 123.74 282.905 122.94C283.358 122.14 283.978 121.52 284.765 121.08C285.565 120.627 286.465 120.4 287.465 120.4C288.385 120.4 289.205 120.607 289.925 121.02C290.658 121.433 291.238 122.04 291.665 122.84C292.105 123.627 292.325 124.593 292.325 125.74C292.325 126.873 292.111 127.84 291.685 128.64C291.258 129.44 290.678 130.053 289.945 130.48C289.225 130.893 288.398 131.1 287.465 131.1ZM287.565 129.84C288.311 129.84 288.978 129.673 289.565 129.34C290.165 128.993 290.631 128.513 290.965 127.9C291.311 127.273 291.485 126.553 291.485 125.74C291.485 124.913 291.311 124.193 290.965 123.58C290.631 122.967 290.165 122.493 289.565 122.16C288.978 121.813 288.311 121.64 287.565 121.64C286.831 121.64 286.171 121.813 285.585 122.16C284.998 122.493 284.531 122.967 284.185 123.58C283.838 124.193 283.665 124.913 283.665 125.74C283.665 126.553 283.838 127.273 284.185 127.9C284.531 128.513 284.998 128.993 285.585 129.34C286.171 129.673 286.831 129.84 287.565 129.84ZM291.525 131V127.84L291.665 125.72L291.465 123.6V116.16H292.885V131H291.525ZM301.299 131.1C300.206 131.1 299.246 130.873 298.419 130.42C297.593 129.953 296.946 129.32 296.479 128.52C296.013 127.707 295.779 126.78 295.779 125.74C295.779 124.7 295.999 123.78 296.439 122.98C296.893 122.18 297.506 121.553 298.279 121.1C299.066 120.633 299.946 120.4 300.919 120.4C301.906 120.4 302.779 120.627 303.539 121.08C304.313 121.52 304.919 122.147 305.359 122.96C305.799 123.76 306.019 124.687 306.019 125.74C306.019 125.807 306.013 125.88 305.999 125.96C305.999 126.027 305.999 126.1 305.999 126.18H296.859V125.12H305.239L304.679 125.54C304.679 124.78 304.513 124.107 304.179 123.52C303.859 122.92 303.419 122.453 302.859 122.12C302.299 121.787 301.653 121.62 300.919 121.62C300.199 121.62 299.553 121.787 298.979 122.12C298.406 122.453 297.959 122.92 297.639 123.52C297.319 124.12 297.159 124.807 297.159 125.58V125.8C297.159 126.6 297.333 127.307 297.679 127.92C298.039 128.52 298.533 128.993 299.159 129.34C299.799 129.673 300.526 129.84 301.339 129.84C301.979 129.84 302.573 129.727 303.119 129.5C303.679 129.273 304.159 128.927 304.559 128.46L305.359 129.38C304.893 129.94 304.306 130.367 303.599 130.66C302.906 130.953 302.139 131.1 301.299 131.1ZM308.91 131V120.5H310.27V123.36L310.13 122.86C310.423 122.06 310.916 121.453 311.61 121.04C312.303 120.613 313.163 120.4 314.19 120.4V121.78C314.136 121.78 314.083 121.78 314.03 121.78C313.976 121.767 313.923 121.76 313.87 121.76C312.763 121.76 311.896 122.1 311.27 122.78C310.643 123.447 310.33 124.4 310.33 125.64V131H308.91ZM316.781 131V120.5H318.201V131H316.781ZM317.501 118.18C317.207 118.18 316.961 118.08 316.761 117.88C316.561 117.68 316.461 117.44 316.461 117.16C316.461 116.88 316.561 116.647 316.761 116.46C316.961 116.26 317.207 116.16 317.501 116.16C317.794 116.16 318.041 116.253 318.241 116.44C318.441 116.627 318.541 116.86 318.541 117.14C318.541 117.433 318.441 117.68 318.241 117.88C318.054 118.08 317.807 118.18 317.501 118.18ZM327.512 120.4C328.365 120.4 329.112 120.567 329.752 120.9C330.405 121.22 330.912 121.713 331.272 122.38C331.645 123.047 331.832 123.887 331.832 124.9V131H330.412V125.04C330.412 123.933 330.132 123.1 329.572 122.54C329.025 121.967 328.252 121.68 327.252 121.68C326.505 121.68 325.852 121.833 325.292 122.14C324.745 122.433 324.319 122.867 324.012 123.44C323.719 124 323.572 124.68 323.572 125.48V131H322.152V120.5H323.512V123.38L323.292 122.84C323.625 122.08 324.159 121.487 324.892 121.06C325.625 120.62 326.499 120.4 327.512 120.4ZM340.148 134.98C339.188 134.98 338.268 134.84 337.388 134.56C336.508 134.28 335.794 133.88 335.248 133.36L335.968 132.28C336.461 132.72 337.068 133.067 337.788 133.32C338.521 133.587 339.294 133.72 340.108 133.72C341.441 133.72 342.421 133.407 343.048 132.78C343.674 132.167 343.988 131.207 343.988 129.9V127.28L344.188 125.48L344.048 123.68V120.5H345.408V129.72C345.408 131.533 344.961 132.86 344.068 133.7C343.188 134.553 341.881 134.98 340.148 134.98ZM339.888 130.6C338.888 130.6 337.988 130.387 337.188 129.96C336.388 129.52 335.754 128.913 335.288 128.14C334.834 127.367 334.608 126.48 334.608 125.48C334.608 124.48 334.834 123.6 335.288 122.84C335.754 122.067 336.388 121.467 337.188 121.04C337.988 120.613 338.888 120.4 339.888 120.4C340.821 120.4 341.661 120.593 342.408 120.98C343.154 121.367 343.748 121.94 344.188 122.7C344.628 123.46 344.848 124.387 344.848 125.48C344.848 126.573 344.628 127.5 344.188 128.26C343.748 129.02 343.154 129.6 342.408 130C341.661 130.4 340.821 130.6 339.888 130.6ZM340.028 129.34C340.801 129.34 341.488 129.18 342.088 128.86C342.688 128.527 343.161 128.073 343.508 127.5C343.854 126.913 344.028 126.24 344.028 125.48C344.028 124.72 343.854 124.053 343.508 123.48C343.161 122.907 342.688 122.46 342.088 122.14C341.488 121.807 340.801 121.64 340.028 121.64C339.268 121.64 338.581 121.807 337.968 122.14C337.368 122.46 336.894 122.907 336.548 123.48C336.214 124.053 336.048 124.72 336.048 125.48C336.048 126.24 336.214 126.913 336.548 127.5C336.894 128.073 337.368 128.527 337.968 128.86C338.581 129.18 339.268 129.34 340.028 129.34ZM349.499 131.1C349.206 131.1 348.952 130.993 348.739 130.78C348.539 130.567 348.439 130.307 348.439 130C348.439 129.68 348.539 129.42 348.739 129.22C348.952 129.02 349.206 128.92 349.499 128.92C349.792 128.92 350.039 129.02 350.239 129.22C350.452 129.42 350.559 129.68 350.559 130C350.559 130.307 350.452 130.567 350.239 130.78C350.039 130.993 349.792 131.1 349.499 131.1Z" fill="#333333"/>
<rect width="100" height="100" rx="6" fill="#F0F0F0"/>
<path d="M26 79.3333V20.6666H31.3333V26H68.6667V20.6666H74V79.3333H68.6667V74H31.3333V79.3333H26ZM31.3333 47.3333H36.6667V36.6666H52.6667V47.3333H68.6667V31.3333H31.3333V47.3333ZM31.3333 68.6666H47.3333V58H63.3333V68.6666H68.6667V52.6666H31.3333V68.6666ZM42 47.3333H47.3333V42H42V47.3333ZM52.6667 68.6666H58V63.3333H52.6667V68.6666Z" fill="#001EF4"/>
</svg>
