<svg width="442" height="140" viewBox="0 0 442 140" fill="none" xmlns="http://www.w3.org/2000/svg">
<path d="M133.952 31.32C132.203 31.32 130.528 31.0747 128.928 30.584C127.328 30.072 126.059 29.4213 125.12 28.632L126.56 25.4C127.456 26.104 128.565 26.6907 129.888 27.16C131.211 27.6293 132.565 27.864 133.952 27.864C135.125 27.864 136.075 27.736 136.8 27.48C137.525 27.224 138.059 26.8827 138.4 26.456C138.741 26.008 138.912 25.5067 138.912 24.952C138.912 24.2693 138.667 23.7253 138.176 23.32C137.685 22.8933 137.045 22.5627 136.256 22.328C135.488 22.072 134.624 21.8373 133.664 21.624C132.725 21.4107 131.776 21.1653 130.816 20.888C129.877 20.5893 129.013 20.216 128.224 19.768C127.456 19.2987 126.827 18.68 126.336 17.912C125.845 17.144 125.6 16.1627 125.6 14.968C125.6 13.752 125.92 12.6427 126.56 11.64C127.221 10.616 128.213 9.80533 129.536 9.208C130.88 8.58933 132.576 8.28 134.624 8.28C135.968 8.28 137.301 8.45067 138.624 8.792C139.947 9.13333 141.099 9.624 142.08 10.264L140.768 13.496C139.765 12.8987 138.731 12.4613 137.664 12.184C136.597 11.8853 135.573 11.736 134.592 11.736C133.44 11.736 132.501 11.8747 131.776 12.152C131.072 12.4293 130.549 12.792 130.208 13.24C129.888 13.688 129.728 14.2 129.728 14.776C129.728 15.4587 129.963 16.0133 130.432 16.44C130.923 16.8453 131.552 17.1653 132.32 17.4C133.109 17.6347 133.984 17.8693 134.944 18.104C135.904 18.3173 136.853 18.5627 137.792 18.84C138.752 19.1173 139.616 19.48 140.384 19.928C141.173 20.376 141.803 20.984 142.272 21.752C142.763 22.52 143.008 23.4907 143.008 24.664C143.008 25.8587 142.677 26.968 142.016 27.992C141.376 28.9947 140.384 29.8053 139.04 30.424C137.696 31.0213 136 31.32 133.952 31.32ZM154.781 31.224C152.882 31.224 151.218 30.8507 149.789 30.104C148.381 29.336 147.282 28.2907 146.493 26.968C145.725 25.6453 145.341 24.1413 145.341 22.456C145.341 20.7493 145.714 19.2453 146.461 17.944C147.229 16.6213 148.274 15.5867 149.597 14.84C150.941 14.0933 152.466 13.72 154.173 13.72C155.837 13.72 157.32 14.0827 158.621 14.808C159.922 15.5333 160.946 16.5573 161.693 17.88C162.44 19.2027 162.813 20.76 162.813 22.552C162.813 22.7227 162.802 22.9147 162.781 23.128C162.781 23.3413 162.77 23.544 162.749 23.736H148.509V21.08H160.637L159.069 21.912C159.09 20.9307 158.888 20.0667 158.461 19.32C158.034 18.5733 157.448 17.9867 156.701 17.56C155.976 17.1333 155.133 16.92 154.173 16.92C153.192 16.92 152.328 17.1333 151.581 17.56C150.856 17.9867 150.28 18.584 149.853 19.352C149.448 20.0987 149.245 20.984 149.245 22.008V22.648C149.245 23.672 149.48 24.5787 149.949 25.368C150.418 26.1573 151.08 26.7653 151.933 27.192C152.786 27.6187 153.768 27.832 154.877 27.832C155.837 27.832 156.701 27.6827 157.469 27.384C158.237 27.0853 158.92 26.616 159.517 25.976L161.661 28.44C160.893 29.336 159.922 30.0293 158.749 30.52C157.597 30.9893 156.274 31.224 154.781 31.224ZM174.495 31.224C172.703 31.224 171.103 30.8507 169.695 30.104C168.309 29.336 167.221 28.2907 166.431 26.968C165.642 25.6453 165.247 24.1413 165.247 22.456C165.247 20.7493 165.642 19.2453 166.431 17.944C167.221 16.6213 168.309 15.5867 169.695 14.84C171.103 14.0933 172.703 13.72 174.495 13.72C176.159 13.72 177.621 14.0613 178.879 14.744C180.159 15.4053 181.13 16.3867 181.791 17.688L178.719 19.48C178.207 18.6693 177.578 18.072 176.831 17.688C176.106 17.304 175.317 17.112 174.463 17.112C173.482 17.112 172.597 17.3253 171.807 17.752C171.018 18.1787 170.399 18.7973 169.951 19.608C169.503 20.3973 169.279 21.3467 169.279 22.456C169.279 23.5653 169.503 24.5253 169.951 25.336C170.399 26.1253 171.018 26.7333 171.807 27.16C172.597 27.5867 173.482 27.8 174.463 27.8C175.317 27.8 176.106 27.608 176.831 27.224C177.578 26.84 178.207 26.2427 178.719 25.432L181.791 27.224C181.13 28.504 180.159 29.496 178.879 30.2C177.621 30.8827 176.159 31.224 174.495 31.224ZM192.481 31.224C191.03 31.224 189.75 30.9573 188.641 30.424C187.532 29.8693 186.668 29.0373 186.049 27.928C185.43 26.7973 185.121 25.3787 185.121 23.672V13.912H189.121V23.128C189.121 24.664 189.462 25.816 190.145 26.584C190.849 27.3307 191.841 27.704 193.121 27.704C194.06 27.704 194.87 27.512 195.553 27.128C196.257 26.744 196.801 26.168 197.185 25.4C197.59 24.632 197.793 23.6827 197.793 22.552V13.912H201.793V31H197.985V26.392L198.657 27.8C198.081 28.9093 197.238 29.7627 196.129 30.36C195.02 30.936 193.804 31.224 192.481 31.224ZM207.03 31V13.912H210.838V18.616L210.39 17.24C210.902 16.088 211.702 15.2133 212.79 14.616C213.9 14.0187 215.276 13.72 216.918 13.72V17.528C216.748 17.4853 216.588 17.464 216.438 17.464C216.289 17.4427 216.14 17.432 215.99 17.432C214.476 17.432 213.27 17.88 212.374 18.776C211.478 19.6507 211.03 20.9627 211.03 22.712V31H207.03ZM228.187 31.224C226.289 31.224 224.625 30.8507 223.195 30.104C221.787 29.336 220.689 28.2907 219.899 26.968C219.131 25.6453 218.747 24.1413 218.747 22.456C218.747 20.7493 219.121 19.2453 219.867 17.944C220.635 16.6213 221.681 15.5867 223.003 14.84C224.347 14.0933 225.873 13.72 227.579 13.72C229.243 13.72 230.726 14.0827 232.027 14.808C233.329 15.5333 234.353 16.5573 235.099 17.88C235.846 19.2027 236.219 20.76 236.219 22.552C236.219 22.7227 236.209 22.9147 236.187 23.128C236.187 23.3413 236.177 23.544 236.155 23.736H221.915V21.08H234.043L232.475 21.912C232.497 20.9307 232.294 20.0667 231.867 19.32C231.441 18.5733 230.854 17.9867 230.107 17.56C229.382 17.1333 228.539 16.92 227.579 16.92C226.598 16.92 225.734 17.1333 224.987 17.56C224.262 17.9867 223.686 18.584 223.259 19.352C222.854 20.0987 222.651 20.984 222.651 22.008V22.648C222.651 23.672 222.886 24.5787 223.355 25.368C223.825 26.1573 224.486 26.7653 225.339 27.192C226.193 27.6187 227.174 27.832 228.283 27.832C229.243 27.832 230.107 27.6827 230.875 27.384C231.643 27.0853 232.326 26.616 232.923 25.976L235.067 28.44C234.299 29.336 233.329 30.0293 232.155 30.52C231.003 30.9893 229.681 31.224 228.187 31.224ZM255.753 31.32C254.196 31.32 252.799 31.064 251.561 30.552C250.324 30.04 249.353 29.336 248.649 28.44C247.945 27.544 247.593 26.5093 247.593 25.336C247.593 24.2693 247.828 23.3093 248.297 22.456C248.767 21.6027 249.513 20.792 250.537 20.024C251.561 19.2347 252.873 18.4453 254.473 17.656C255.732 17.0373 256.713 16.4933 257.417 16.024C258.143 15.5547 258.644 15.1067 258.921 14.68C259.22 14.2533 259.369 13.8053 259.369 13.336C259.369 12.696 259.145 12.184 258.697 11.8C258.249 11.3947 257.609 11.192 256.777 11.192C255.881 11.192 255.177 11.416 254.665 11.864C254.175 12.2907 253.929 12.856 253.929 13.56C253.929 13.9227 253.993 14.2747 254.121 14.616C254.271 14.9573 254.527 15.3413 254.889 15.768C255.252 16.1947 255.775 16.7387 256.457 17.4L268.297 28.76L266.089 31.352L253.289 19.064C252.564 18.36 251.977 17.7093 251.529 17.112C251.081 16.5147 250.761 15.9387 250.569 15.384C250.377 14.808 250.281 14.2213 250.281 13.624C250.281 12.5787 250.548 11.6613 251.081 10.872C251.615 10.0613 252.372 9.44267 253.353 9.016C254.335 8.568 255.476 8.344 256.777 8.344C257.993 8.344 259.039 8.54667 259.913 8.952C260.809 9.336 261.503 9.90133 261.993 10.648C262.505 11.3733 262.761 12.248 262.761 13.272C262.761 14.168 262.537 15 262.089 15.768C261.641 16.5147 260.937 17.2293 259.977 17.912C259.039 18.5947 257.78 19.3093 256.201 20.056C255.028 20.632 254.1 21.176 253.417 21.688C252.735 22.2 252.244 22.712 251.945 23.224C251.647 23.736 251.497 24.3013 251.497 24.92C251.497 25.5387 251.679 26.0827 252.041 26.552C252.425 27.0213 252.959 27.3947 253.641 27.672C254.324 27.928 255.124 28.056 256.041 28.056C257.407 28.056 258.644 27.7573 259.753 27.16C260.884 26.5413 261.833 25.624 262.601 24.408C263.369 23.192 263.924 21.688 264.265 19.896L267.497 20.952C267.049 23.1067 266.271 24.9627 265.161 26.52C264.073 28.056 262.729 29.24 261.129 30.072C259.529 30.904 257.737 31.32 255.753 31.32ZM280.727 31V8.6H289.943C291.927 8.6 293.623 8.92 295.031 9.56C296.46 10.2 297.559 11.1173 298.327 12.312C299.095 13.5067 299.479 14.9253 299.479 16.568C299.479 18.2107 299.095 19.6293 298.327 20.824C297.559 21.9973 296.46 22.904 295.031 23.544C293.623 24.1627 291.927 24.472 289.943 24.472H283.031L284.887 22.584V31H280.727ZM295.383 31L289.719 22.872H294.167L299.863 31H295.383ZM284.887 23.032L283.031 21.048H289.751C291.585 21.048 292.961 20.6533 293.879 19.864C294.817 19.0747 295.287 17.976 295.287 16.568C295.287 15.1387 294.817 14.04 293.879 13.272C292.961 12.504 291.585 12.12 289.751 12.12H283.031L284.887 10.072V23.032ZM311.781 31.224C309.882 31.224 308.218 30.8507 306.789 30.104C305.381 29.336 304.282 28.2907 303.493 26.968C302.725 25.6453 302.341 24.1413 302.341 22.456C302.341 20.7493 302.714 19.2453 303.461 17.944C304.229 16.6213 305.274 15.5867 306.597 14.84C307.941 14.0933 309.466 13.72 311.173 13.72C312.837 13.72 314.32 14.0827 315.621 14.808C316.922 15.5333 317.946 16.5573 318.693 17.88C319.44 19.2027 319.813 20.76 319.813 22.552C319.813 22.7227 319.802 22.9147 319.781 23.128C319.781 23.3413 319.77 23.544 319.749 23.736H305.509V21.08H317.637L316.069 21.912C316.09 20.9307 315.888 20.0667 315.461 19.32C315.034 18.5733 314.448 17.9867 313.701 17.56C312.976 17.1333 312.133 16.92 311.173 16.92C310.192 16.92 309.328 17.1333 308.581 17.56C307.856 17.9867 307.28 18.584 306.853 19.352C306.448 20.0987 306.245 20.984 306.245 22.008V22.648C306.245 23.672 306.48 24.5787 306.949 25.368C307.418 26.1573 308.08 26.7653 308.933 27.192C309.786 27.6187 310.768 27.832 311.877 27.832C312.837 27.832 313.701 27.6827 314.469 27.384C315.237 27.0853 315.92 26.616 316.517 25.976L318.661 28.44C317.893 29.336 316.922 30.0293 315.749 30.52C314.597 30.9893 313.274 31.224 311.781 31.224ZM323.655 31V7.256H327.655V31H323.655ZM332.905 31V13.912H336.905V31H332.905ZM334.921 11.096C334.175 11.096 333.556 10.8613 333.065 10.392C332.596 9.92267 332.361 9.35733 332.361 8.696C332.361 8.01333 332.596 7.448 333.065 7C333.556 6.53067 334.175 6.296 334.921 6.296C335.668 6.296 336.276 6.52 336.745 6.968C337.236 7.39467 337.481 7.93867 337.481 8.6C337.481 9.304 337.247 9.90133 336.777 10.392C336.308 10.8613 335.689 11.096 334.921 11.096ZM352.683 31V27.544L352.459 26.808V20.76C352.459 19.5867 352.107 18.68 351.403 18.04C350.699 17.3787 349.633 17.048 348.203 17.048C347.243 17.048 346.294 17.1973 345.355 17.496C344.438 17.7947 343.659 18.2107 343.019 18.744L341.451 15.832C342.369 15.128 343.457 14.6053 344.715 14.264C345.995 13.9013 347.318 13.72 348.683 13.72C351.158 13.72 353.067 14.3173 354.411 15.512C355.777 16.6853 356.459 18.5093 356.459 20.984V31H352.683ZM347.307 31.224C346.027 31.224 344.907 31.0107 343.947 30.584C342.987 30.136 342.241 29.528 341.707 28.76C341.195 27.9707 340.939 27.0853 340.939 26.104C340.939 25.144 341.163 24.28 341.611 23.512C342.081 22.744 342.838 22.136 343.883 21.688C344.929 21.24 346.315 21.016 348.043 21.016H353.003V23.672H348.331C346.966 23.672 346.049 23.896 345.579 24.344C345.11 24.7707 344.875 25.304 344.875 25.944C344.875 26.6693 345.163 27.2453 345.739 27.672C346.315 28.0987 347.115 28.312 348.139 28.312C349.121 28.312 349.995 28.088 350.763 27.64C351.553 27.192 352.118 26.5307 352.459 25.656L353.131 28.056C352.747 29.0587 352.054 29.8373 351.051 30.392C350.07 30.9467 348.822 31.224 347.307 31.224ZM371.065 31.224C369.614 31.224 368.323 30.904 367.193 30.264C366.062 29.624 365.166 28.664 364.505 27.384C363.865 26.0827 363.545 24.44 363.545 22.456C363.545 20.4507 363.875 18.808 364.537 17.528C365.219 16.248 366.126 15.2987 367.257 14.68C368.409 14.04 369.678 13.72 371.065 13.72C372.75 13.72 374.233 14.0827 375.513 14.808C376.814 15.5333 377.838 16.5467 378.585 17.848C379.353 19.1493 379.737 20.6853 379.737 22.456C379.737 24.2267 379.353 25.7627 378.585 27.064C377.838 28.3653 376.814 29.3893 375.513 30.136C374.233 30.8613 372.75 31.224 371.065 31.224ZM361.593 31V7.256H365.593V17.88L365.273 22.424L365.401 26.968V31H361.593ZM370.617 27.8C371.577 27.8 372.43 27.5867 373.177 27.16C373.945 26.7333 374.553 26.1147 375.001 25.304C375.449 24.4933 375.673 23.544 375.673 22.456C375.673 21.3467 375.449 20.3973 375.001 19.608C374.553 18.7973 373.945 18.1787 373.177 17.752C372.43 17.3253 371.577 17.112 370.617 17.112C369.657 17.112 368.793 17.3253 368.025 17.752C367.257 18.1787 366.649 18.7973 366.201 19.608C365.753 20.3973 365.529 21.3467 365.529 22.456C365.529 23.544 365.753 24.4933 366.201 25.304C366.649 26.1147 367.257 26.7333 368.025 27.16C368.793 27.5867 369.657 27.8 370.617 27.8ZM383.53 31V7.256H387.53V31H383.53ZM400.812 31.224C398.914 31.224 397.25 30.8507 395.82 30.104C394.412 29.336 393.314 28.2907 392.524 26.968C391.756 25.6453 391.372 24.1413 391.372 22.456C391.372 20.7493 391.746 19.2453 392.492 17.944C393.26 16.6213 394.306 15.5867 395.628 14.84C396.972 14.0933 398.498 13.72 400.204 13.72C401.868 13.72 403.351 14.0827 404.652 14.808C405.954 15.5333 406.978 16.5573 407.724 17.88C408.471 19.2027 408.844 20.76 408.844 22.552C408.844 22.7227 408.834 22.9147 408.812 23.128C408.812 23.3413 408.802 23.544 408.78 23.736H394.54V21.08H406.668L405.1 21.912C405.122 20.9307 404.919 20.0667 404.492 19.32C404.066 18.5733 403.479 17.9867 402.732 17.56C402.007 17.1333 401.164 16.92 400.204 16.92C399.223 16.92 398.359 17.1333 397.612 17.56C396.887 17.9867 396.311 18.584 395.884 19.352C395.479 20.0987 395.276 20.984 395.276 22.008V22.648C395.276 23.672 395.511 24.5787 395.98 25.368C396.45 26.1573 397.111 26.7653 397.964 27.192C398.818 27.6187 399.799 27.832 400.908 27.832C401.868 27.832 402.732 27.6827 403.5 27.384C404.268 27.0853 404.951 26.616 405.548 25.976L407.692 28.44C406.924 29.336 405.954 30.0293 404.78 30.52C403.628 30.9893 402.306 31.224 400.812 31.224Z" fill="#333333"/>
<path d="M127.6 59.26H135V60.52H127.6V59.26ZM127.76 65.72H136.18V67H126.28V53H135.88V54.28H127.76V65.72ZM144.719 56.4C145.572 56.4 146.319 56.5667 146.959 56.9C147.612 57.22 148.119 57.7133 148.479 58.38C148.852 59.0467 149.039 59.8867 149.039 60.9V67H147.619V61.04C147.619 59.9333 147.339 59.1 146.779 58.54C146.232 57.9667 145.459 57.68 144.459 57.68C143.712 57.68 143.059 57.8333 142.499 58.14C141.952 58.4333 141.526 58.8667 141.219 59.44C140.926 60 140.779 60.68 140.779 61.48V67H139.359V56.5H140.719V59.38L140.499 58.84C140.832 58.08 141.366 57.4867 142.099 57.06C142.832 56.62 143.706 56.4 144.719 56.4ZM156.195 67.1C155.208 67.1 154.448 66.8333 153.915 66.3C153.381 65.7667 153.115 65.0133 153.115 64.04V54.18H154.535V63.96C154.535 64.5733 154.688 65.0467 154.995 65.38C155.315 65.7133 155.768 65.88 156.355 65.88C156.981 65.88 157.501 65.7 157.915 65.34L158.415 66.36C158.135 66.6133 157.795 66.8 157.395 66.92C157.008 67.04 156.608 67.1 156.195 67.1ZM151.235 57.68V56.5H157.735V57.68H151.235ZM165.088 67.1C163.995 67.1 163.035 66.8733 162.208 66.42C161.382 65.9533 160.735 65.32 160.268 64.52C159.802 63.7067 159.568 62.78 159.568 61.74C159.568 60.7 159.788 59.78 160.228 58.98C160.682 58.18 161.295 57.5533 162.068 57.1C162.855 56.6333 163.735 56.4 164.708 56.4C165.695 56.4 166.568 56.6267 167.328 57.08C168.102 57.52 168.708 58.1467 169.148 58.96C169.588 59.76 169.808 60.6867 169.808 61.74C169.808 61.8067 169.802 61.88 169.788 61.96C169.788 62.0267 169.788 62.1 169.788 62.18H160.648V61.12H169.028L168.468 61.54C168.468 60.78 168.302 60.1067 167.968 59.52C167.648 58.92 167.208 58.4533 166.648 58.12C166.088 57.7867 165.442 57.62 164.708 57.62C163.988 57.62 163.342 57.7867 162.768 58.12C162.195 58.4533 161.748 58.92 161.428 59.52C161.108 60.12 160.948 60.8067 160.948 61.58V61.8C160.948 62.6 161.122 63.3067 161.468 63.92C161.828 64.52 162.322 64.9933 162.948 65.34C163.588 65.6733 164.315 65.84 165.128 65.84C165.768 65.84 166.362 65.7267 166.908 65.5C167.468 65.2733 167.948 64.9267 168.348 64.46L169.148 65.38C168.682 65.94 168.095 66.3667 167.388 66.66C166.695 66.9533 165.928 67.1 165.088 67.1ZM172.699 67V56.5H174.059V59.36L173.919 58.86C174.212 58.06 174.705 57.4533 175.399 57.04C176.092 56.6133 176.952 56.4 177.979 56.4V57.78C177.925 57.78 177.872 57.78 177.819 57.78C177.765 57.7667 177.712 57.76 177.659 57.76C176.552 57.76 175.685 58.1 175.059 58.78C174.432 59.4467 174.119 60.4 174.119 61.64V67H172.699ZM185.99 67.1C185.083 67.1 184.263 66.8933 183.53 66.48C182.797 66.0533 182.21 65.4467 181.77 64.66C181.343 63.86 181.13 62.8867 181.13 61.74C181.13 60.5933 181.343 59.6267 181.77 58.84C182.197 58.04 182.777 57.4333 183.51 57.02C184.243 56.6067 185.07 56.4 185.99 56.4C186.99 56.4 187.883 56.6267 188.67 57.08C189.47 57.52 190.097 58.1467 190.55 58.96C191.003 59.76 191.23 60.6867 191.23 61.74C191.23 62.8067 191.003 63.74 190.55 64.54C190.097 65.34 189.47 65.9667 188.67 66.42C187.883 66.8733 186.99 67.1 185.99 67.1ZM180.57 70.88V56.5H181.93V59.66L181.79 61.76L181.99 63.88V70.88H180.57ZM185.89 65.84C186.637 65.84 187.303 65.6733 187.89 65.34C188.477 64.9933 188.943 64.5133 189.29 63.9C189.637 63.2733 189.81 62.5533 189.81 61.74C189.81 60.9267 189.637 60.2133 189.29 59.6C188.943 58.9867 188.477 58.5067 187.89 58.16C187.303 57.8133 186.637 57.64 185.89 57.64C185.143 57.64 184.47 57.8133 183.87 58.16C183.283 58.5067 182.817 58.9867 182.47 59.6C182.137 60.2133 181.97 60.9267 181.97 61.74C181.97 62.5533 182.137 63.2733 182.47 63.9C182.817 64.5133 183.283 64.9933 183.87 65.34C184.47 65.6733 185.143 65.84 185.89 65.84ZM194.125 67V56.5H195.485V59.36L195.345 58.86C195.638 58.06 196.131 57.4533 196.825 57.04C197.518 56.6133 198.378 56.4 199.405 56.4V57.78C199.351 57.78 199.298 57.78 199.245 57.78C199.191 57.7667 199.138 57.76 199.085 57.76C197.978 57.76 197.111 58.1 196.485 58.78C195.858 59.4467 195.545 60.4 195.545 61.64V67H194.125ZM201.996 67V56.5H203.416V67H201.996ZM202.716 54.18C202.422 54.18 202.176 54.08 201.976 53.88C201.776 53.68 201.676 53.44 201.676 53.16C201.676 52.88 201.776 52.6467 201.976 52.46C202.176 52.26 202.422 52.16 202.716 52.16C203.009 52.16 203.256 52.2533 203.456 52.44C203.656 52.6267 203.756 52.86 203.756 53.14C203.756 53.4333 203.656 53.68 203.456 53.88C203.269 54.08 203.022 54.18 202.716 54.18ZM210.187 67.1C209.32 67.1 208.5 66.98 207.727 66.74C206.953 66.4867 206.347 66.1733 205.907 65.8L206.547 64.68C206.973 65 207.52 65.28 208.187 65.52C208.853 65.7467 209.553 65.86 210.287 65.86C211.287 65.86 212.007 65.7067 212.447 65.4C212.887 65.08 213.107 64.66 213.107 64.14C213.107 63.7533 212.98 63.4533 212.727 63.24C212.487 63.0133 212.167 62.8467 211.767 62.74C211.367 62.62 210.92 62.52 210.427 62.44C209.933 62.36 209.44 62.2667 208.947 62.16C208.467 62.0533 208.027 61.9 207.627 61.7C207.227 61.4867 206.9 61.2 206.647 60.84C206.407 60.48 206.287 60 206.287 59.4C206.287 58.8267 206.447 58.3133 206.767 57.86C207.087 57.4067 207.553 57.0533 208.167 56.8C208.793 56.5333 209.553 56.4 210.447 56.4C211.127 56.4 211.807 56.4933 212.487 56.68C213.167 56.8533 213.727 57.0867 214.167 57.38L213.547 58.52C213.08 58.2 212.58 57.9733 212.047 57.84C211.513 57.6933 210.98 57.62 210.447 57.62C209.5 57.62 208.8 57.7867 208.347 58.12C207.907 58.44 207.687 58.8533 207.687 59.36C207.687 59.76 207.807 60.0733 208.047 60.3C208.3 60.5267 208.627 60.7067 209.027 60.84C209.44 60.96 209.887 61.06 210.367 61.14C210.86 61.22 211.347 61.32 211.827 61.44C212.32 61.5467 212.767 61.7 213.167 61.9C213.58 62.0867 213.907 62.36 214.147 62.72C214.4 63.0667 214.527 63.5267 214.527 64.1C214.527 64.7133 214.353 65.2467 214.007 65.7C213.673 66.14 213.18 66.4867 212.527 66.74C211.887 66.98 211.107 67.1 210.187 67.1ZM221.592 67.1C220.499 67.1 219.539 66.8733 218.712 66.42C217.886 65.9533 217.239 65.32 216.772 64.52C216.306 63.7067 216.072 62.78 216.072 61.74C216.072 60.7 216.292 59.78 216.732 58.98C217.186 58.18 217.799 57.5533 218.572 57.1C219.359 56.6333 220.239 56.4 221.212 56.4C222.199 56.4 223.072 56.6267 223.832 57.08C224.606 57.52 225.212 58.1467 225.652 58.96C226.092 59.76 226.312 60.6867 226.312 61.74C226.312 61.8067 226.306 61.88 226.292 61.96C226.292 62.0267 226.292 62.1 226.292 62.18H217.152V61.12H225.532L224.972 61.54C224.972 60.78 224.806 60.1067 224.472 59.52C224.152 58.92 223.712 58.4533 223.152 58.12C222.592 57.7867 221.946 57.62 221.212 57.62C220.492 57.62 219.846 57.7867 219.272 58.12C218.699 58.4533 218.252 58.92 217.932 59.52C217.612 60.12 217.452 60.8067 217.452 61.58V61.8C217.452 62.6 217.626 63.3067 217.972 63.92C218.332 64.52 218.826 64.9933 219.452 65.34C220.092 65.6733 220.819 65.84 221.632 65.84C222.272 65.84 222.866 65.7267 223.412 65.5C223.972 65.2733 224.452 64.9267 224.852 64.46L225.652 65.38C225.186 65.94 224.599 66.3667 223.892 66.66C223.199 66.9533 222.432 67.1 221.592 67.1ZM228.618 62.2V60.96H233.858V62.2H228.618ZM241.71 70.98C240.75 70.98 239.83 70.84 238.95 70.56C238.07 70.28 237.357 69.88 236.81 69.36L237.53 68.28C238.023 68.72 238.63 69.0667 239.35 69.32C240.083 69.5867 240.857 69.72 241.67 69.72C243.003 69.72 243.983 69.4067 244.61 68.78C245.237 68.1667 245.55 67.2067 245.55 65.9V63.28L245.75 61.48L245.61 59.68V56.5H246.97V65.72C246.97 67.5333 246.523 68.86 245.63 69.7C244.75 70.5533 243.443 70.98 241.71 70.98ZM241.45 66.6C240.45 66.6 239.55 66.3867 238.75 65.96C237.95 65.52 237.317 64.9133 236.85 64.14C236.397 63.3667 236.17 62.48 236.17 61.48C236.17 60.48 236.397 59.6 236.85 58.84C237.317 58.0667 237.95 57.4667 238.75 57.04C239.55 56.6133 240.45 56.4 241.45 56.4C242.383 56.4 243.223 56.5933 243.97 56.98C244.717 57.3667 245.31 57.94 245.75 58.7C246.19 59.46 246.41 60.3867 246.41 61.48C246.41 62.5733 246.19 63.5 245.75 64.26C245.31 65.02 244.717 65.6 243.97 66C243.223 66.4 242.383 66.6 241.45 66.6ZM241.59 65.34C242.363 65.34 243.05 65.18 243.65 64.86C244.25 64.5267 244.723 64.0733 245.07 63.5C245.417 62.9133 245.59 62.24 245.59 61.48C245.59 60.72 245.417 60.0533 245.07 59.48C244.723 58.9067 244.25 58.46 243.65 58.14C243.05 57.8067 242.363 57.64 241.59 57.64C240.83 57.64 240.143 57.8067 239.53 58.14C238.93 58.46 238.457 58.9067 238.11 59.48C237.777 60.0533 237.61 60.72 237.61 61.48C237.61 62.24 237.777 62.9133 238.11 63.5C238.457 64.0733 238.93 64.5267 239.53 64.86C240.143 65.18 240.83 65.34 241.59 65.34ZM250.921 67V56.5H252.281V59.36L252.141 58.86C252.435 58.06 252.928 57.4533 253.621 57.04C254.315 56.6133 255.175 56.4 256.201 56.4V57.78C256.148 57.78 256.095 57.78 256.041 57.78C255.988 57.7667 255.935 57.76 255.881 57.76C254.775 57.76 253.908 58.1 253.281 58.78C252.655 59.4467 252.341 60.4 252.341 61.64V67H250.921ZM264.591 67V64.68L264.531 64.3V60.42C264.531 59.5267 264.278 58.84 263.771 58.36C263.278 57.88 262.538 57.64 261.551 57.64C260.871 57.64 260.225 57.7533 259.611 57.98C258.998 58.2067 258.478 58.5067 258.051 58.88L257.411 57.82C257.945 57.3667 258.585 57.02 259.331 56.78C260.078 56.5267 260.865 56.4 261.691 56.4C263.051 56.4 264.098 56.74 264.831 57.42C265.578 58.0867 265.951 59.1067 265.951 60.48V67H264.591ZM260.971 67.1C260.185 67.1 259.498 66.9733 258.911 66.72C258.338 66.4533 257.898 66.0933 257.591 65.64C257.285 65.1733 257.131 64.64 257.131 64.04C257.131 63.4933 257.258 63 257.511 62.56C257.778 62.1067 258.205 61.7467 258.791 61.48C259.391 61.2 260.191 61.06 261.191 61.06H264.811V62.12H261.231C260.218 62.12 259.511 62.3 259.111 62.66C258.725 63.02 258.531 63.4667 258.531 64C258.531 64.6 258.765 65.08 259.231 65.44C259.698 65.8 260.351 65.98 261.191 65.98C261.991 65.98 262.678 65.8 263.251 65.44C263.838 65.0667 264.265 64.5333 264.531 63.84L264.851 64.82C264.585 65.5133 264.118 66.0667 263.451 66.48C262.798 66.8933 261.971 67.1 260.971 67.1ZM273.988 67.1C272.988 67.1 272.088 66.8733 271.288 66.42C270.501 65.9667 269.881 65.34 269.428 64.54C268.975 63.7267 268.748 62.7933 268.748 61.74C268.748 60.6733 268.975 59.74 269.428 58.94C269.881 58.14 270.501 57.52 271.288 57.08C272.088 56.6267 272.988 56.4 273.988 56.4C274.908 56.4 275.728 56.6067 276.448 57.02C277.181 57.4333 277.761 58.04 278.188 58.84C278.628 59.6267 278.848 60.5933 278.848 61.74C278.848 62.8733 278.635 63.84 278.208 64.64C277.781 65.44 277.201 66.0533 276.468 66.48C275.748 66.8933 274.921 67.1 273.988 67.1ZM274.088 65.84C274.835 65.84 275.501 65.6733 276.088 65.34C276.688 64.9933 277.155 64.5133 277.488 63.9C277.835 63.2733 278.008 62.5533 278.008 61.74C278.008 60.9133 277.835 60.1933 277.488 59.58C277.155 58.9667 276.688 58.4933 276.088 58.16C275.501 57.8133 274.835 57.64 274.088 57.64C273.355 57.64 272.695 57.8133 272.108 58.16C271.521 58.4933 271.055 58.9667 270.708 59.58C270.361 60.1933 270.188 60.9133 270.188 61.74C270.188 62.5533 270.361 63.2733 270.708 63.9C271.055 64.5133 271.521 64.9933 272.108 65.34C272.695 65.6733 273.355 65.84 274.088 65.84ZM278.048 67V63.84L278.188 61.72L277.988 59.6V52.16H279.408V67H278.048ZM287.823 67.1C286.729 67.1 285.769 66.8733 284.943 66.42C284.116 65.9533 283.469 65.32 283.003 64.52C282.536 63.7067 282.303 62.78 282.303 61.74C282.303 60.7 282.523 59.78 282.963 58.98C283.416 58.18 284.029 57.5533 284.803 57.1C285.589 56.6333 286.469 56.4 287.443 56.4C288.429 56.4 289.303 56.6267 290.063 57.08C290.836 57.52 291.443 58.1467 291.883 58.96C292.323 59.76 292.543 60.6867 292.543 61.74C292.543 61.8067 292.536 61.88 292.523 61.96C292.523 62.0267 292.523 62.1 292.523 62.18H283.383V61.12H291.763L291.203 61.54C291.203 60.78 291.036 60.1067 290.703 59.52C290.383 58.92 289.943 58.4533 289.383 58.12C288.823 57.7867 288.176 57.62 287.443 57.62C286.723 57.62 286.076 57.7867 285.503 58.12C284.929 58.4533 284.483 58.92 284.163 59.52C283.843 60.12 283.683 60.8067 283.683 61.58V61.8C283.683 62.6 283.856 63.3067 284.203 63.92C284.563 64.52 285.056 64.9933 285.683 65.34C286.323 65.6733 287.049 65.84 287.863 65.84C288.503 65.84 289.096 65.7267 289.643 65.5C290.203 65.2733 290.683 64.9267 291.083 64.46L291.883 65.38C291.416 65.94 290.829 66.3667 290.123 66.66C289.429 66.9533 288.663 67.1 287.823 67.1ZM303.488 67.1C302.621 67.1 301.801 66.98 301.028 66.74C300.254 66.4867 299.648 66.1733 299.208 65.8L299.848 64.68C300.274 65 300.821 65.28 301.488 65.52C302.154 65.7467 302.854 65.86 303.588 65.86C304.588 65.86 305.308 65.7067 305.748 65.4C306.188 65.08 306.408 64.66 306.408 64.14C306.408 63.7533 306.281 63.4533 306.028 63.24C305.788 63.0133 305.468 62.8467 305.068 62.74C304.668 62.62 304.221 62.52 303.728 62.44C303.234 62.36 302.741 62.2667 302.248 62.16C301.768 62.0533 301.328 61.9 300.928 61.7C300.528 61.4867 300.201 61.2 299.948 60.84C299.708 60.48 299.588 60 299.588 59.4C299.588 58.8267 299.748 58.3133 300.068 57.86C300.388 57.4067 300.854 57.0533 301.468 56.8C302.094 56.5333 302.854 56.4 303.748 56.4C304.428 56.4 305.108 56.4933 305.788 56.68C306.468 56.8533 307.028 57.0867 307.468 57.38L306.848 58.52C306.381 58.2 305.881 57.9733 305.348 57.84C304.814 57.6933 304.281 57.62 303.748 57.62C302.801 57.62 302.101 57.7867 301.648 58.12C301.208 58.44 300.988 58.8533 300.988 59.36C300.988 59.76 301.108 60.0733 301.348 60.3C301.601 60.5267 301.928 60.7067 302.328 60.84C302.741 60.96 303.188 61.06 303.668 61.14C304.161 61.22 304.648 61.32 305.128 61.44C305.621 61.5467 306.068 61.7 306.468 61.9C306.881 62.0867 307.208 62.36 307.448 62.72C307.701 63.0667 307.828 63.5267 307.828 64.1C307.828 64.7133 307.654 65.2467 307.308 65.7C306.974 66.14 306.481 66.4867 305.828 66.74C305.188 66.98 304.408 67.1 303.488 67.1ZM314.893 67.1C313.8 67.1 312.84 66.8733 312.013 66.42C311.186 65.9533 310.54 65.32 310.073 64.52C309.606 63.7067 309.373 62.78 309.373 61.74C309.373 60.7 309.593 59.78 310.033 58.98C310.486 58.18 311.1 57.5533 311.873 57.1C312.66 56.6333 313.54 56.4 314.513 56.4C315.5 56.4 316.373 56.6267 317.133 57.08C317.906 57.52 318.513 58.1467 318.953 58.96C319.393 59.76 319.613 60.6867 319.613 61.74C319.613 61.8067 319.606 61.88 319.593 61.96C319.593 62.0267 319.593 62.1 319.593 62.18H310.453V61.12H318.833L318.273 61.54C318.273 60.78 318.106 60.1067 317.773 59.52C317.453 58.92 317.013 58.4533 316.453 58.12C315.893 57.7867 315.246 57.62 314.513 57.62C313.793 57.62 313.146 57.7867 312.573 58.12C312 58.4533 311.553 58.92 311.233 59.52C310.913 60.12 310.753 60.8067 310.753 61.58V61.8C310.753 62.6 310.926 63.3067 311.273 63.92C311.633 64.52 312.126 64.9933 312.753 65.34C313.393 65.6733 314.12 65.84 314.933 65.84C315.573 65.84 316.166 65.7267 316.713 65.5C317.273 65.2733 317.753 64.9267 318.153 64.46L318.953 65.38C318.486 65.94 317.9 66.3667 317.193 66.66C316.5 66.9533 315.733 67.1 314.893 67.1ZM326.863 67.1C325.823 67.1 324.89 66.8733 324.063 66.42C323.25 65.9533 322.61 65.32 322.143 64.52C321.677 63.7067 321.443 62.78 321.443 61.74C321.443 60.6867 321.677 59.76 322.143 58.96C322.61 58.16 323.25 57.5333 324.063 57.08C324.89 56.6267 325.823 56.4 326.863 56.4C327.757 56.4 328.563 56.5733 329.283 56.92C330.003 57.2667 330.57 57.7867 330.983 58.48L329.923 59.2C329.563 58.6667 329.117 58.2733 328.583 58.02C328.05 57.7667 327.47 57.64 326.843 57.64C326.097 57.64 325.423 57.8133 324.823 58.16C324.223 58.4933 323.75 58.9667 323.403 59.58C323.057 60.1933 322.883 60.9133 322.883 61.74C322.883 62.5667 323.057 63.2867 323.403 63.9C323.75 64.5133 324.223 64.9933 324.823 65.34C325.423 65.6733 326.097 65.84 326.843 65.84C327.47 65.84 328.05 65.7133 328.583 65.46C329.117 65.2067 329.563 64.82 329.923 64.3L330.983 65.02C330.57 65.7 330.003 66.22 329.283 66.58C328.563 66.9267 327.757 67.1 326.863 67.1ZM338.113 67.1C337.22 67.1 336.44 66.9333 335.773 66.6C335.106 66.2667 334.586 65.7667 334.213 65.1C333.853 64.4333 333.673 63.6 333.673 62.6V56.5H335.093V62.44C335.093 63.56 335.366 64.4067 335.913 64.98C336.473 65.54 337.253 65.82 338.253 65.82C338.986 65.82 339.62 65.6733 340.153 65.38C340.7 65.0733 341.113 64.6333 341.393 64.06C341.686 63.4867 341.833 62.8 341.833 62V56.5H343.253V67H341.893V64.12L342.113 64.64C341.78 65.4133 341.26 66.02 340.553 66.46C339.86 66.8867 339.046 67.1 338.113 67.1ZM347.21 67V56.5H348.57V59.36L348.43 58.86C348.724 58.06 349.217 57.4533 349.91 57.04C350.604 56.6133 351.464 56.4 352.49 56.4V57.78C352.437 57.78 352.384 57.78 352.33 57.78C352.277 57.7667 352.224 57.76 352.17 57.76C351.064 57.76 350.197 58.1 349.57 58.78C348.944 59.4467 348.63 60.4 348.63 61.64V67H347.21ZM355.082 67V56.5H356.502V67H355.082ZM355.802 54.18C355.508 54.18 355.262 54.08 355.062 53.88C354.862 53.68 354.762 53.44 354.762 53.16C354.762 52.88 354.862 52.6467 355.062 52.46C355.262 52.26 355.508 52.16 355.802 52.16C356.095 52.16 356.342 52.2533 356.542 52.44C356.742 52.6267 356.842 52.86 356.842 53.14C356.842 53.4333 356.742 53.68 356.542 53.88C356.355 54.08 356.108 54.18 355.802 54.18ZM363.773 67.1C362.786 67.1 362.026 66.8333 361.493 66.3C360.959 65.7667 360.693 65.0133 360.693 64.04V54.18H362.113V63.96C362.113 64.5733 362.266 65.0467 362.573 65.38C362.893 65.7133 363.346 65.88 363.933 65.88C364.559 65.88 365.079 65.7 365.493 65.34L365.993 66.36C365.713 66.6133 365.373 66.8 364.973 66.92C364.586 67.04 364.186 67.1 363.773 67.1ZM358.813 57.68V56.5H365.313V57.68H358.813ZM368.462 70.98C367.969 70.98 367.496 70.9 367.042 70.74C366.602 70.58 366.222 70.34 365.902 70.02L366.562 68.96C366.829 69.2133 367.116 69.4067 367.422 69.54C367.742 69.6867 368.096 69.76 368.482 69.76C368.949 69.76 369.349 69.6267 369.682 69.36C370.029 69.1067 370.356 68.6533 370.662 68L371.342 66.46L371.502 66.24L375.822 56.5H377.222L371.962 68.26C371.669 68.94 371.342 69.48 370.982 69.88C370.636 70.28 370.256 70.56 369.842 70.72C369.429 70.8933 368.969 70.98 368.462 70.98ZM371.262 67.3L366.422 56.5H367.902L372.182 66.14L371.262 67.3ZM386.597 67L382.637 56.5H383.997L387.597 66.24H386.977L390.677 56.5H391.897L395.557 66.24H394.937L398.597 56.5H399.897L395.917 67H394.577L391.057 57.84H391.477L387.937 67H386.597ZM402.035 67V56.5H403.455V67H402.035ZM402.755 54.18C402.461 54.18 402.215 54.08 402.015 53.88C401.815 53.68 401.715 53.44 401.715 53.16C401.715 52.88 401.815 52.6467 402.015 52.46C402.215 52.26 402.461 52.16 402.755 52.16C403.048 52.16 403.295 52.2533 403.495 52.44C403.695 52.6267 403.795 52.86 403.795 53.14C403.795 53.4333 403.695 53.68 403.495 53.88C403.308 54.08 403.061 54.18 402.755 54.18ZM410.726 67.1C409.739 67.1 408.979 66.8333 408.446 66.3C407.912 65.7667 407.646 65.0133 407.646 64.04V54.18H409.066V63.96C409.066 64.5733 409.219 65.0467 409.526 65.38C409.846 65.7133 410.299 65.88 410.886 65.88C411.512 65.88 412.032 65.7 412.446 65.34L412.946 66.36C412.666 66.6133 412.326 66.8 411.926 66.92C411.539 67.04 411.139 67.1 410.726 67.1ZM405.766 57.68V56.5H412.266V57.68H405.766ZM420.891 56.4C421.744 56.4 422.491 56.5667 423.131 56.9C423.784 57.22 424.291 57.7133 424.651 58.38C425.024 59.0467 425.211 59.8867 425.211 60.9V67H423.791V61.04C423.791 59.9333 423.511 59.1 422.951 58.54C422.404 57.9667 421.631 57.68 420.631 57.68C419.884 57.68 419.231 57.8333 418.671 58.14C418.124 58.4333 417.697 58.8667 417.391 59.44C417.097 60 416.951 60.68 416.951 61.48V67H415.531V52.16H416.951V59.38L416.671 58.84C417.004 58.08 417.537 57.4867 418.271 57.06C419.004 56.62 419.877 56.4 420.891 56.4ZM130.16 99.1C129.16 99.1 128.26 98.8733 127.46 98.42C126.673 97.9667 126.053 97.34 125.6 96.54C125.147 95.7267 124.92 94.7933 124.92 93.74C124.92 92.6733 125.147 91.74 125.6 90.94C126.053 90.14 126.673 89.52 127.46 89.08C128.26 88.6267 129.16 88.4 130.16 88.4C131.08 88.4 131.9 88.6067 132.62 89.02C133.353 89.4333 133.933 90.04 134.36 90.84C134.8 91.6267 135.02 92.5933 135.02 93.74C135.02 94.8733 134.807 95.84 134.38 96.64C133.953 97.44 133.373 98.0533 132.64 98.48C131.92 98.8933 131.093 99.1 130.16 99.1ZM130.26 97.84C131.007 97.84 131.673 97.6733 132.26 97.34C132.86 96.9933 133.327 96.5133 133.66 95.9C134.007 95.2733 134.18 94.5533 134.18 93.74C134.18 92.9133 134.007 92.1933 133.66 91.58C133.327 90.9667 132.86 90.4933 132.26 90.16C131.673 89.8133 131.007 89.64 130.26 89.64C129.527 89.64 128.867 89.8133 128.28 90.16C127.693 90.4933 127.227 90.9667 126.88 91.58C126.533 92.1933 126.36 92.9133 126.36 93.74C126.36 94.5533 126.533 95.2733 126.88 95.9C127.227 96.5133 127.693 96.9933 128.28 97.34C128.867 97.6733 129.527 97.84 130.26 97.84ZM134.22 99V95.84L134.36 93.72L134.16 91.6V84.16H135.58V99H134.22ZM146.115 99V96.68L146.055 96.3V92.42C146.055 91.5267 145.801 90.84 145.295 90.36C144.801 89.88 144.061 89.64 143.075 89.64C142.395 89.64 141.748 89.7533 141.135 89.98C140.521 90.2067 140.001 90.5067 139.575 90.88L138.935 89.82C139.468 89.3667 140.108 89.02 140.855 88.78C141.601 88.5267 142.388 88.4 143.215 88.4C144.575 88.4 145.621 88.74 146.355 89.42C147.101 90.0867 147.475 91.1067 147.475 92.48V99H146.115ZM142.495 99.1C141.708 99.1 141.021 98.9733 140.435 98.72C139.861 98.4533 139.421 98.0933 139.115 97.64C138.808 97.1733 138.655 96.64 138.655 96.04C138.655 95.4933 138.781 95 139.035 94.56C139.301 94.1067 139.728 93.7467 140.315 93.48C140.915 93.2 141.715 93.06 142.715 93.06H146.335V94.12H142.755C141.741 94.12 141.035 94.3 140.635 94.66C140.248 95.02 140.055 95.4667 140.055 96C140.055 96.6 140.288 97.08 140.755 97.44C141.221 97.8 141.875 97.98 142.715 97.98C143.515 97.98 144.201 97.8 144.775 97.44C145.361 97.0667 145.788 96.5333 146.055 95.84L146.375 96.82C146.108 97.5133 145.641 98.0667 144.975 98.48C144.321 98.8933 143.495 99.1 142.495 99.1ZM154.652 99.1C153.665 99.1 152.905 98.8333 152.372 98.3C151.838 97.7667 151.572 97.0133 151.572 96.04V86.18H152.992V95.96C152.992 96.5733 153.145 97.0467 153.452 97.38C153.772 97.7133 154.225 97.88 154.812 97.88C155.438 97.88 155.958 97.7 156.372 97.34L156.872 98.36C156.592 98.6133 156.252 98.8 155.852 98.92C155.465 99.04 155.065 99.1 154.652 99.1ZM149.692 89.68V88.5H156.192V89.68H149.692ZM166.037 99V96.68L165.977 96.3V92.42C165.977 91.5267 165.723 90.84 165.217 90.36C164.723 89.88 163.983 89.64 162.997 89.64C162.317 89.64 161.67 89.7533 161.057 89.98C160.443 90.2067 159.923 90.5067 159.497 90.88L158.857 89.82C159.39 89.3667 160.03 89.02 160.777 88.78C161.523 88.5267 162.31 88.4 163.137 88.4C164.497 88.4 165.543 88.74 166.277 89.42C167.023 90.0867 167.397 91.1067 167.397 92.48V99H166.037ZM162.417 99.1C161.63 99.1 160.943 98.9733 160.357 98.72C159.783 98.4533 159.343 98.0933 159.037 97.64C158.73 97.1733 158.577 96.64 158.577 96.04C158.577 95.4933 158.703 95 158.957 94.56C159.223 94.1067 159.65 93.7467 160.237 93.48C160.837 93.2 161.637 93.06 162.637 93.06H166.257V94.12H162.677C161.663 94.12 160.957 94.3 160.557 94.66C160.17 95.02 159.977 95.4667 159.977 96C159.977 96.6 160.21 97.08 160.677 97.44C161.143 97.8 161.797 97.98 162.637 97.98C163.437 97.98 164.123 97.8 164.697 97.44C165.283 97.0667 165.71 96.5333 165.977 95.84L166.297 96.82C166.03 97.5133 165.563 98.0667 164.897 98.48C164.243 98.8933 163.417 99.1 162.417 99.1ZM180.948 99.1C179.854 99.1 178.894 98.8733 178.068 98.42C177.241 97.9533 176.594 97.32 176.128 96.52C175.661 95.7067 175.428 94.78 175.428 93.74C175.428 92.7 175.648 91.78 176.088 90.98C176.541 90.18 177.154 89.5533 177.928 89.1C178.714 88.6333 179.594 88.4 180.568 88.4C181.554 88.4 182.428 88.6267 183.188 89.08C183.961 89.52 184.568 90.1467 185.008 90.96C185.448 91.76 185.668 92.6867 185.668 93.74C185.668 93.8067 185.661 93.88 185.648 93.96C185.648 94.0267 185.648 94.1 185.648 94.18H176.508V93.12H184.888L184.328 93.54C184.328 92.78 184.161 92.1067 183.828 91.52C183.508 90.92 183.068 90.4533 182.508 90.12C181.948 89.7867 181.301 89.62 180.568 89.62C179.848 89.62 179.201 89.7867 178.628 90.12C178.054 90.4533 177.608 90.92 177.288 91.52C176.968 92.12 176.808 92.8067 176.808 93.58V93.8C176.808 94.6 176.981 95.3067 177.328 95.92C177.688 96.52 178.181 96.9933 178.808 97.34C179.448 97.6733 180.174 97.84 180.988 97.84C181.628 97.84 182.221 97.7267 182.768 97.5C183.328 97.2733 183.808 96.9267 184.208 96.46L185.008 97.38C184.541 97.94 183.954 98.3667 183.248 98.66C182.554 98.9533 181.788 99.1 180.948 99.1ZM193.918 88.4C194.771 88.4 195.518 88.5667 196.158 88.9C196.811 89.22 197.318 89.7133 197.678 90.38C198.051 91.0467 198.238 91.8867 198.238 92.9V99H196.818V93.04C196.818 91.9333 196.538 91.1 195.978 90.54C195.431 89.9667 194.658 89.68 193.658 89.68C192.911 89.68 192.258 89.8333 191.698 90.14C191.151 90.4333 190.725 90.8667 190.418 91.44C190.125 92 189.978 92.68 189.978 93.48V99H188.558V88.5H189.918V91.38L189.698 90.84C190.031 90.08 190.565 89.4867 191.298 89.06C192.031 88.62 192.905 88.4 193.918 88.4ZM206.434 99.1C205.394 99.1 204.46 98.8733 203.634 98.42C202.82 97.9533 202.18 97.32 201.714 96.52C201.247 95.7067 201.014 94.78 201.014 93.74C201.014 92.6867 201.247 91.76 201.714 90.96C202.18 90.16 202.82 89.5333 203.634 89.08C204.46 88.6267 205.394 88.4 206.434 88.4C207.327 88.4 208.134 88.5733 208.854 88.92C209.574 89.2667 210.14 89.7867 210.554 90.48L209.494 91.2C209.134 90.6667 208.687 90.2733 208.154 90.02C207.62 89.7667 207.04 89.64 206.414 89.64C205.667 89.64 204.994 89.8133 204.394 90.16C203.794 90.4933 203.32 90.9667 202.974 91.58C202.627 92.1933 202.454 92.9133 202.454 93.74C202.454 94.5667 202.627 95.2867 202.974 95.9C203.32 96.5133 203.794 96.9933 204.394 97.34C204.994 97.6733 205.667 97.84 206.414 97.84C207.04 97.84 207.62 97.7133 208.154 97.46C208.687 97.2067 209.134 96.82 209.494 96.3L210.554 97.02C210.14 97.7 209.574 98.22 208.854 98.58C208.134 98.9267 207.327 99.1 206.434 99.1ZM213.343 99V88.5H214.703V91.36L214.563 90.86C214.857 90.06 215.35 89.4533 216.043 89.04C216.737 88.6133 217.597 88.4 218.623 88.4V89.78C218.57 89.78 218.517 89.78 218.463 89.78C218.41 89.7667 218.357 89.76 218.303 89.76C217.197 89.76 216.33 90.1 215.703 90.78C215.077 91.4467 214.763 92.4 214.763 93.64V99H213.343ZM221.744 102.98C221.25 102.98 220.777 102.9 220.324 102.74C219.884 102.58 219.504 102.34 219.184 102.02L219.844 100.96C220.11 101.213 220.397 101.407 220.704 101.54C221.024 101.687 221.377 101.76 221.764 101.76C222.23 101.76 222.63 101.627 222.964 101.36C223.31 101.107 223.637 100.653 223.944 100L224.624 98.46L224.784 98.24L229.104 88.5H230.504L225.244 100.26C224.95 100.94 224.624 101.48 224.264 101.88C223.917 102.28 223.537 102.56 223.124 102.72C222.71 102.893 222.25 102.98 221.744 102.98ZM224.544 99.3L219.704 88.5H221.184L225.464 98.14L224.544 99.3ZM237.923 99.1C237.017 99.1 236.197 98.8933 235.463 98.48C234.73 98.0533 234.143 97.4467 233.703 96.66C233.277 95.86 233.063 94.8867 233.063 93.74C233.063 92.5933 233.277 91.6267 233.703 90.84C234.13 90.04 234.71 89.4333 235.443 89.02C236.177 88.6067 237.003 88.4 237.923 88.4C238.923 88.4 239.817 88.6267 240.603 89.08C241.403 89.52 242.03 90.1467 242.483 90.96C242.937 91.76 243.163 92.6867 243.163 93.74C243.163 94.8067 242.937 95.74 242.483 96.54C242.03 97.34 241.403 97.9667 240.603 98.42C239.817 98.8733 238.923 99.1 237.923 99.1ZM232.503 102.88V88.5H233.863V91.66L233.723 93.76L233.923 95.88V102.88H232.503ZM237.823 97.84C238.57 97.84 239.237 97.6733 239.823 97.34C240.41 96.9933 240.877 96.5133 241.223 95.9C241.57 95.2733 241.743 94.5533 241.743 93.74C241.743 92.9267 241.57 92.2133 241.223 91.6C240.877 90.9867 240.41 90.5067 239.823 90.16C239.237 89.8133 238.57 89.64 237.823 89.64C237.077 89.64 236.403 89.8133 235.803 90.16C235.217 90.5067 234.75 90.9867 234.403 91.6C234.07 92.2133 233.903 92.9267 233.903 93.74C233.903 94.5533 234.07 95.2733 234.403 95.9C234.75 96.5133 235.217 96.9933 235.803 97.34C236.403 97.6733 237.077 97.84 237.823 97.84ZM249.378 99.1C248.391 99.1 247.631 98.8333 247.098 98.3C246.565 97.7667 246.298 97.0133 246.298 96.04V86.18H247.718V95.96C247.718 96.5733 247.871 97.0467 248.178 97.38C248.498 97.7133 248.951 97.88 249.538 97.88C250.165 97.88 250.685 97.7 251.098 97.34L251.598 98.36C251.318 98.6133 250.978 98.8 250.578 98.92C250.191 99.04 249.791 99.1 249.378 99.1ZM244.418 89.68V88.5H250.918V89.68H244.418ZM254.183 99V88.5H255.603V99H254.183ZM254.903 86.18C254.61 86.18 254.363 86.08 254.163 85.88C253.963 85.68 253.863 85.44 253.863 85.16C253.863 84.88 253.963 84.6467 254.163 84.46C254.363 84.26 254.61 84.16 254.903 84.16C255.196 84.16 255.443 84.2533 255.643 84.44C255.843 84.6267 255.943 84.86 255.943 85.14C255.943 85.4333 255.843 85.68 255.643 85.88C255.456 86.08 255.21 86.18 254.903 86.18ZM263.834 99.1C262.821 99.1 261.908 98.8733 261.094 98.42C260.294 97.9533 259.661 97.32 259.194 96.52C258.728 95.7067 258.494 94.78 258.494 93.74C258.494 92.6867 258.728 91.76 259.194 90.96C259.661 90.16 260.294 89.5333 261.094 89.08C261.894 88.6267 262.808 88.4 263.834 88.4C264.874 88.4 265.794 88.6267 266.594 89.08C267.408 89.5333 268.041 90.16 268.494 90.96C268.961 91.76 269.194 92.6867 269.194 93.74C269.194 94.78 268.961 95.7067 268.494 96.52C268.041 97.32 267.408 97.9533 266.594 98.42C265.781 98.8733 264.861 99.1 263.834 99.1ZM263.834 97.84C264.594 97.84 265.268 97.6733 265.854 97.34C266.441 96.9933 266.901 96.5133 267.234 95.9C267.581 95.2733 267.754 94.5533 267.754 93.74C267.754 92.9133 267.581 92.1933 267.234 91.58C266.901 90.9667 266.441 90.4933 265.854 90.16C265.268 89.8133 264.601 89.64 263.854 89.64C263.108 89.64 262.441 89.8133 261.854 90.16C261.268 90.4933 260.801 90.9667 260.454 91.58C260.108 92.1933 259.934 92.9133 259.934 93.74C259.934 94.5533 260.108 95.2733 260.454 95.9C260.801 96.5133 261.268 96.9933 261.854 97.34C262.441 97.6733 263.101 97.84 263.834 97.84ZM277.453 88.4C278.307 88.4 279.053 88.5667 279.693 88.9C280.347 89.22 280.853 89.7133 281.213 90.38C281.587 91.0467 281.773 91.8867 281.773 92.9V99H280.353V93.04C280.353 91.9333 280.073 91.1 279.513 90.54C278.967 89.9667 278.193 89.68 277.193 89.68C276.447 89.68 275.793 89.8333 275.233 90.14C274.687 90.4333 274.26 90.8667 273.953 91.44C273.66 92 273.513 92.68 273.513 93.48V99H272.093V88.5H273.453V91.38L273.233 90.84C273.567 90.08 274.1 89.4867 274.833 89.06C275.567 88.62 276.44 88.4 277.453 88.4ZM297.423 99V96.68L297.363 96.3V92.42C297.363 91.5267 297.11 90.84 296.603 90.36C296.11 89.88 295.37 89.64 294.383 89.64C293.703 89.64 293.057 89.7533 292.443 89.98C291.83 90.2067 291.31 90.5067 290.883 90.88L290.243 89.82C290.777 89.3667 291.417 89.02 292.163 88.78C292.91 88.5267 293.697 88.4 294.523 88.4C295.883 88.4 296.93 88.74 297.663 89.42C298.41 90.0867 298.783 91.1067 298.783 92.48V99H297.423ZM293.803 99.1C293.017 99.1 292.33 98.9733 291.743 98.72C291.17 98.4533 290.73 98.0933 290.423 97.64C290.117 97.1733 289.963 96.64 289.963 96.04C289.963 95.4933 290.09 95 290.343 94.56C290.61 94.1067 291.037 93.7467 291.623 93.48C292.223 93.2 293.023 93.06 294.023 93.06H297.643V94.12H294.063C293.05 94.12 292.343 94.3 291.943 94.66C291.557 95.02 291.363 95.4667 291.363 96C291.363 96.6 291.597 97.08 292.063 97.44C292.53 97.8 293.183 97.98 294.023 97.98C294.823 97.98 295.51 97.8 296.083 97.44C296.67 97.0667 297.097 96.5333 297.363 95.84L297.683 96.82C297.417 97.5133 296.95 98.0667 296.283 98.48C295.63 98.8933 294.803 99.1 293.803 99.1ZM308 88.4C308.853 88.4 309.6 88.5667 310.24 88.9C310.893 89.22 311.4 89.7133 311.76 90.38C312.133 91.0467 312.32 91.8867 312.32 92.9V99H310.9V93.04C310.9 91.9333 310.62 91.1 310.06 90.54C309.513 89.9667 308.74 89.68 307.74 89.68C306.993 89.68 306.34 89.8333 305.78 90.14C305.233 90.4333 304.807 90.8667 304.5 91.44C304.207 92 304.06 92.68 304.06 93.48V99H302.64V88.5H304V91.38L303.78 90.84C304.113 90.08 304.647 89.4867 305.38 89.06C306.113 88.62 306.987 88.4 308 88.4ZM320.336 99.1C319.336 99.1 318.436 98.8733 317.636 98.42C316.849 97.9667 316.229 97.34 315.776 96.54C315.322 95.7267 315.096 94.7933 315.096 93.74C315.096 92.6733 315.322 91.74 315.776 90.94C316.229 90.14 316.849 89.52 317.636 89.08C318.436 88.6267 319.336 88.4 320.336 88.4C321.256 88.4 322.076 88.6067 322.796 89.02C323.529 89.4333 324.109 90.04 324.536 90.84C324.976 91.6267 325.196 92.5933 325.196 93.74C325.196 94.8733 324.982 95.84 324.556 96.64C324.129 97.44 323.549 98.0533 322.816 98.48C322.096 98.8933 321.269 99.1 320.336 99.1ZM320.436 97.84C321.182 97.84 321.849 97.6733 322.436 97.34C323.036 96.9933 323.502 96.5133 323.836 95.9C324.182 95.2733 324.356 94.5533 324.356 93.74C324.356 92.9133 324.182 92.1933 323.836 91.58C323.502 90.9667 323.036 90.4933 322.436 90.16C321.849 89.8133 321.182 89.64 320.436 89.64C319.702 89.64 319.042 89.8133 318.456 90.16C317.869 90.4933 317.402 90.9667 317.056 91.58C316.709 92.1933 316.536 92.9133 316.536 93.74C316.536 94.5533 316.709 95.2733 317.056 95.9C317.402 96.5133 317.869 96.9933 318.456 97.34C319.042 97.6733 319.702 97.84 320.436 97.84ZM324.396 99V95.84L324.536 93.72L324.336 91.6V84.16H325.756V99H324.396ZM341.525 99V96.68L341.465 96.3V92.42C341.465 91.5267 341.212 90.84 340.705 90.36C340.212 89.88 339.472 89.64 338.485 89.64C337.805 89.64 337.158 89.7533 336.545 89.98C335.932 90.2067 335.412 90.5067 334.985 90.88L334.345 89.82C334.878 89.3667 335.518 89.02 336.265 88.78C337.012 88.5267 337.798 88.4 338.625 88.4C339.985 88.4 341.032 88.74 341.765 89.42C342.512 90.0867 342.885 91.1067 342.885 92.48V99H341.525ZM337.905 99.1C337.118 99.1 336.432 98.9733 335.845 98.72C335.272 98.4533 334.832 98.0933 334.525 97.64C334.218 97.1733 334.065 96.64 334.065 96.04C334.065 95.4933 334.192 95 334.445 94.56C334.712 94.1067 335.138 93.7467 335.725 93.48C336.325 93.2 337.125 93.06 338.125 93.06H341.745V94.12H338.165C337.152 94.12 336.445 94.3 336.045 94.66C335.658 95.02 335.465 95.4667 335.465 96C335.465 96.6 335.698 97.08 336.165 97.44C336.632 97.8 337.285 97.98 338.125 97.98C338.925 97.98 339.612 97.8 340.185 97.44C340.772 97.0667 341.198 96.5333 341.465 95.84L341.785 96.82C341.518 97.5133 341.052 98.0667 340.385 98.48C339.732 98.8933 338.905 99.1 337.905 99.1ZM351.082 99.1C350.188 99.1 349.408 98.9333 348.742 98.6C348.075 98.2667 347.555 97.7667 347.182 97.1C346.822 96.4333 346.642 95.6 346.642 94.6V88.5H348.062V94.44C348.062 95.56 348.335 96.4067 348.882 96.98C349.442 97.54 350.222 97.82 351.222 97.82C351.955 97.82 352.588 97.6733 353.122 97.38C353.668 97.0733 354.082 96.6333 354.362 96.06C354.655 95.4867 354.802 94.8 354.802 94V88.5H356.222V99H354.862V96.12L355.082 96.64C354.748 97.4133 354.228 98.02 353.522 98.46C352.828 98.8867 352.015 99.1 351.082 99.1ZM363.499 99.1C362.513 99.1 361.753 98.8333 361.219 98.3C360.686 97.7667 360.419 97.0133 360.419 96.04V86.18H361.839V95.96C361.839 96.5733 361.993 97.0467 362.299 97.38C362.619 97.7133 363.073 97.88 363.659 97.88C364.286 97.88 364.806 97.7 365.219 97.34L365.719 98.36C365.439 98.6133 365.099 98.8 364.699 98.92C364.313 99.04 363.913 99.1 363.499 99.1ZM358.539 89.68V88.5H365.039V89.68H358.539ZM372.213 99.1C371.2 99.1 370.286 98.8733 369.473 98.42C368.673 97.9533 368.04 97.32 367.573 96.52C367.106 95.7067 366.873 94.78 366.873 93.74C366.873 92.6867 367.106 91.76 367.573 90.96C368.04 90.16 368.673 89.5333 369.473 89.08C370.273 88.6267 371.186 88.4 372.213 88.4C373.253 88.4 374.173 88.6267 374.973 89.08C375.786 89.5333 376.42 90.16 376.873 90.96C377.34 91.76 377.573 92.6867 377.573 93.74C377.573 94.78 377.34 95.7067 376.873 96.52C376.42 97.32 375.786 97.9533 374.973 98.42C374.16 98.8733 373.24 99.1 372.213 99.1ZM372.213 97.84C372.973 97.84 373.646 97.6733 374.233 97.34C374.82 96.9933 375.28 96.5133 375.613 95.9C375.96 95.2733 376.133 94.5533 376.133 93.74C376.133 92.9133 375.96 92.1933 375.613 91.58C375.28 90.9667 374.82 90.4933 374.233 90.16C373.646 89.8133 372.98 89.64 372.233 89.64C371.486 89.64 370.82 89.8133 370.233 90.16C369.646 90.4933 369.18 90.9667 368.833 91.58C368.486 92.1933 368.313 92.9133 368.313 93.74C368.313 94.5533 368.486 95.2733 368.833 95.9C369.18 96.5133 369.646 96.9933 370.233 97.34C370.82 97.6733 371.48 97.84 372.213 97.84ZM393.592 88.4C394.446 88.4 395.186 88.5667 395.812 88.9C396.452 89.22 396.946 89.7133 397.292 90.38C397.652 91.0467 397.832 91.8867 397.832 92.9V99H396.412V93.04C396.412 91.9333 396.146 91.1 395.612 90.54C395.092 89.9667 394.352 89.68 393.392 89.68C392.672 89.68 392.046 89.8333 391.512 90.14C390.992 90.4333 390.586 90.8667 390.292 91.44C390.012 92 389.872 92.68 389.872 93.48V99H388.452V93.04C388.452 91.9333 388.186 91.1 387.652 90.54C387.119 89.9667 386.372 89.68 385.412 89.68C384.706 89.68 384.086 89.8333 383.552 90.14C383.019 90.4333 382.606 90.8667 382.312 91.44C382.032 92 381.892 92.68 381.892 93.48V99H380.472V88.5H381.832V91.34L381.612 90.84C381.932 90.08 382.446 89.4867 383.152 89.06C383.872 88.62 384.719 88.4 385.692 88.4C386.719 88.4 387.592 88.66 388.312 89.18C389.032 89.6867 389.499 90.4533 389.712 91.48L389.152 91.26C389.459 90.4067 389.999 89.72 390.772 89.2C391.559 88.6667 392.499 88.4 393.592 88.4ZM408.263 99V96.68L408.203 96.3V92.42C408.203 91.5267 407.95 90.84 407.443 90.36C406.95 89.88 406.21 89.64 405.223 89.64C404.543 89.64 403.896 89.7533 403.283 89.98C402.67 90.2067 402.15 90.5067 401.723 90.88L401.083 89.82C401.616 89.3667 402.256 89.02 403.003 88.78C403.75 88.5267 404.536 88.4 405.363 88.4C406.723 88.4 407.77 88.74 408.503 89.42C409.25 90.0867 409.623 91.1067 409.623 92.48V99H408.263ZM404.643 99.1C403.856 99.1 403.17 98.9733 402.583 98.72C402.01 98.4533 401.57 98.0933 401.263 97.64C400.956 97.1733 400.803 96.64 400.803 96.04C400.803 95.4933 400.93 95 401.183 94.56C401.45 94.1067 401.876 93.7467 402.463 93.48C403.063 93.2 403.863 93.06 404.863 93.06H408.483V94.12H404.903C403.89 94.12 403.183 94.3 402.783 94.66C402.396 95.02 402.203 95.4667 402.203 96C402.203 96.6 402.436 97.08 402.903 97.44C403.37 97.8 404.023 97.98 404.863 97.98C405.663 97.98 406.35 97.8 406.923 97.44C407.51 97.0667 407.936 96.5333 408.203 95.84L408.523 96.82C408.256 97.5133 407.79 98.0667 407.123 98.48C406.47 98.8933 405.643 99.1 404.643 99.1ZM416.8 99.1C415.813 99.1 415.053 98.8333 414.52 98.3C413.987 97.7667 413.72 97.0133 413.72 96.04V86.18H415.14V95.96C415.14 96.5733 415.293 97.0467 415.6 97.38C415.92 97.7133 416.373 97.88 416.96 97.88C417.587 97.88 418.107 97.7 418.52 97.34L419.02 98.36C418.74 98.6133 418.4 98.8 418 98.92C417.613 99.04 417.213 99.1 416.8 99.1ZM411.84 89.68V88.5H418.34V89.68H411.84ZM421.605 99V88.5H423.025V99H421.605ZM422.325 86.18C422.032 86.18 421.785 86.08 421.585 85.88C421.385 85.68 421.285 85.44 421.285 85.16C421.285 84.88 421.385 84.6467 421.585 84.46C421.785 84.26 422.032 84.16 422.325 84.16C422.618 84.16 422.865 84.2533 423.065 84.44C423.265 84.6267 423.365 84.86 423.365 85.14C423.365 85.4333 423.265 85.68 423.065 85.88C422.878 86.08 422.632 86.18 422.325 86.18ZM431.336 99.1C430.296 99.1 429.363 98.8733 428.536 98.42C427.723 97.9533 427.083 97.32 426.616 96.52C426.149 95.7067 425.916 94.78 425.916 93.74C425.916 92.6867 426.149 91.76 426.616 90.96C427.083 90.16 427.723 89.5333 428.536 89.08C429.363 88.6267 430.296 88.4 431.336 88.4C432.229 88.4 433.036 88.5733 433.756 88.92C434.476 89.2667 435.043 89.7867 435.456 90.48L434.396 91.2C434.036 90.6667 433.589 90.2733 433.056 90.02C432.523 89.7667 431.943 89.64 431.316 89.64C430.569 89.64 429.896 89.8133 429.296 90.16C428.696 90.4933 428.223 90.9667 427.876 91.58C427.529 92.1933 427.356 92.9133 427.356 93.74C427.356 94.5667 427.529 95.2867 427.876 95.9C428.223 96.5133 428.696 96.9933 429.296 97.34C429.896 97.6733 430.569 97.84 431.316 97.84C431.943 97.84 432.523 97.7133 433.056 97.46C433.589 97.2067 434.036 96.82 434.396 96.3L435.456 97.02C435.043 97.7 434.476 98.22 433.756 98.58C433.036 98.9267 432.229 99.1 431.336 99.1ZM131.4 131.1C130.48 131.1 129.653 130.893 128.92 130.48C128.187 130.053 127.607 129.44 127.18 128.64C126.753 127.84 126.54 126.873 126.54 125.74C126.54 124.593 126.753 123.627 127.18 122.84C127.62 122.04 128.207 121.433 128.94 121.02C129.673 120.607 130.493 120.4 131.4 120.4C132.4 120.4 133.293 120.627 134.08 121.08C134.88 121.52 135.507 122.14 135.96 122.94C136.413 123.74 136.64 124.673 136.64 125.74C136.64 126.793 136.413 127.727 135.96 128.54C135.507 129.34 134.88 129.967 134.08 130.42C133.293 130.873 132.4 131.1 131.4 131.1ZM125.98 131V116.16H127.4V123.6L127.2 125.72L127.34 127.84V131H125.98ZM131.3 129.84C132.047 129.84 132.713 129.673 133.3 129.34C133.887 128.993 134.353 128.513 134.7 127.9C135.047 127.273 135.22 126.553 135.22 125.74C135.22 124.913 135.047 124.193 134.7 123.58C134.353 122.967 133.887 122.493 133.3 122.16C132.713 121.813 132.047 121.64 131.3 121.64C130.553 121.64 129.88 121.813 129.28 122.16C128.693 122.493 128.227 122.967 127.88 123.58C127.547 124.193 127.38 124.913 127.38 125.74C127.38 126.553 127.547 127.273 127.88 127.9C128.227 128.513 128.693 128.993 129.28 129.34C129.88 129.673 130.553 129.84 131.3 129.84ZM146.056 131V128.68L145.996 128.3V124.42C145.996 123.527 145.743 122.84 145.236 122.36C144.743 121.88 144.003 121.64 143.016 121.64C142.336 121.64 141.689 121.753 141.076 121.98C140.463 122.207 139.943 122.507 139.516 122.88L138.876 121.82C139.409 121.367 140.049 121.02 140.796 120.78C141.543 120.527 142.329 120.4 143.156 120.4C144.516 120.4 145.563 120.74 146.296 121.42C147.043 122.087 147.416 123.107 147.416 124.48V131H146.056ZM142.436 131.1C141.649 131.1 140.963 130.973 140.376 130.72C139.803 130.453 139.363 130.093 139.056 129.64C138.749 129.173 138.596 128.64 138.596 128.04C138.596 127.493 138.723 127 138.976 126.56C139.243 126.107 139.669 125.747 140.256 125.48C140.856 125.2 141.656 125.06 142.656 125.06H146.276V126.12H142.696C141.683 126.12 140.976 126.3 140.576 126.66C140.189 127.02 139.996 127.467 139.996 128C139.996 128.6 140.229 129.08 140.696 129.44C141.163 129.8 141.816 129.98 142.656 129.98C143.456 129.98 144.143 129.8 144.716 129.44C145.303 129.067 145.729 128.533 145.996 127.84L146.316 128.82C146.049 129.513 145.583 130.067 144.916 130.48C144.263 130.893 143.436 131.1 142.436 131.1ZM155.633 131.1C154.593 131.1 153.66 130.873 152.833 130.42C152.02 129.953 151.38 129.32 150.913 128.52C150.446 127.707 150.213 126.78 150.213 125.74C150.213 124.687 150.446 123.76 150.913 122.96C151.38 122.16 152.02 121.533 152.833 121.08C153.66 120.627 154.593 120.4 155.633 120.4C156.526 120.4 157.333 120.573 158.053 120.92C158.773 121.267 159.34 121.787 159.753 122.48L158.693 123.2C158.333 122.667 157.886 122.273 157.353 122.02C156.82 121.767 156.24 121.64 155.613 121.64C154.866 121.64 154.193 121.813 153.593 122.16C152.993 122.493 152.52 122.967 152.173 123.58C151.826 124.193 151.653 124.913 151.653 125.74C151.653 126.567 151.826 127.287 152.173 127.9C152.52 128.513 152.993 128.993 153.593 129.34C154.193 129.673 154.866 129.84 155.613 129.84C156.24 129.84 156.82 129.713 157.353 129.46C157.886 129.207 158.333 128.82 158.693 128.3L159.753 129.02C159.34 129.7 158.773 130.22 158.053 130.58C157.333 130.927 156.526 131.1 155.633 131.1ZM163.506 128.28L163.546 126.46L170.086 120.5H171.826L167.206 124.92L166.406 125.6L163.506 128.28ZM162.386 131V116.16H163.806V131H162.386ZM170.526 131L166.146 125.54L167.066 124.44L172.266 131H170.526ZM178.543 131.1C177.649 131.1 176.869 130.933 176.203 130.6C175.536 130.267 175.016 129.767 174.643 129.1C174.283 128.433 174.103 127.6 174.103 126.6V120.5H175.523V126.44C175.523 127.56 175.796 128.407 176.343 128.98C176.903 129.54 177.683 129.82 178.683 129.82C179.416 129.82 180.049 129.673 180.583 129.38C181.129 129.073 181.543 128.633 181.823 128.06C182.116 127.487 182.263 126.8 182.263 126V120.5H183.683V131H182.323V128.12L182.543 128.64C182.209 129.413 181.689 130.02 180.983 130.46C180.289 130.887 179.476 131.1 178.543 131.1ZM193.06 131.1C192.153 131.1 191.333 130.893 190.6 130.48C189.867 130.053 189.28 129.447 188.84 128.66C188.413 127.86 188.2 126.887 188.2 125.74C188.2 124.593 188.413 123.627 188.84 122.84C189.267 122.04 189.847 121.433 190.58 121.02C191.313 120.607 192.14 120.4 193.06 120.4C194.06 120.4 194.953 120.627 195.74 121.08C196.54 121.52 197.167 122.147 197.62 122.96C198.073 123.76 198.3 124.687 198.3 125.74C198.3 126.807 198.073 127.74 197.62 128.54C197.167 129.34 196.54 129.967 195.74 130.42C194.953 130.873 194.06 131.1 193.06 131.1ZM187.64 134.88V120.5H189V123.66L188.86 125.76L189.06 127.88V134.88H187.64ZM192.96 129.84C193.707 129.84 194.373 129.673 194.96 129.34C195.547 128.993 196.013 128.513 196.36 127.9C196.707 127.273 196.88 126.553 196.88 125.74C196.88 124.927 196.707 124.213 196.36 123.6C196.013 122.987 195.547 122.507 194.96 122.16C194.373 121.813 193.707 121.64 192.96 121.64C192.213 121.64 191.54 121.813 190.94 122.16C190.353 122.507 189.887 122.987 189.54 123.6C189.207 124.213 189.04 124.927 189.04 125.74C189.04 126.553 189.207 127.273 189.54 127.9C189.887 128.513 190.353 128.993 190.94 129.34C191.54 129.673 192.213 129.84 192.96 129.84ZM204.015 131.1C203.148 131.1 202.328 130.98 201.555 130.74C200.782 130.487 200.175 130.173 199.735 129.8L200.375 128.68C200.802 129 201.348 129.28 202.015 129.52C202.682 129.747 203.382 129.86 204.115 129.86C205.115 129.86 205.835 129.707 206.275 129.4C206.715 129.08 206.935 128.66 206.935 128.14C206.935 127.753 206.808 127.453 206.555 127.24C206.315 127.013 205.995 126.847 205.595 126.74C205.195 126.62 204.748 126.52 204.255 126.44C203.762 126.36 203.268 126.267 202.775 126.16C202.295 126.053 201.855 125.9 201.455 125.7C201.055 125.487 200.728 125.2 200.475 124.84C200.235 124.48 200.115 124 200.115 123.4C200.115 122.827 200.275 122.313 200.595 121.86C200.915 121.407 201.382 121.053 201.995 120.8C202.622 120.533 203.382 120.4 204.275 120.4C204.955 120.4 205.635 120.493 206.315 120.68C206.995 120.853 207.555 121.087 207.995 121.38L207.375 122.52C206.908 122.2 206.408 121.973 205.875 121.84C205.342 121.693 204.808 121.62 204.275 121.62C203.328 121.62 202.628 121.787 202.175 122.12C201.735 122.44 201.515 122.853 201.515 123.36C201.515 123.76 201.635 124.073 201.875 124.3C202.128 124.527 202.455 124.707 202.855 124.84C203.268 124.96 203.715 125.06 204.195 125.14C204.688 125.22 205.175 125.32 205.655 125.44C206.148 125.547 206.595 125.7 206.995 125.9C207.408 126.087 207.735 126.36 207.975 126.72C208.228 127.067 208.355 127.527 208.355 128.1C208.355 128.713 208.182 129.247 207.835 129.7C207.502 130.14 207.008 130.487 206.355 130.74C205.715 130.98 204.935 131.1 204.015 131.1ZM211.1 131.1C210.807 131.1 210.554 130.993 210.34 130.78C210.14 130.567 210.04 130.307 210.04 130C210.04 129.68 210.14 129.42 210.34 129.22C210.554 129.02 210.807 128.92 211.1 128.92C211.394 128.92 211.64 129.02 211.84 129.22C212.054 129.42 212.16 129.68 212.16 130C212.16 130.307 212.054 130.567 211.84 130.78C211.64 130.993 211.394 131.1 211.1 131.1Z" fill="#333333"/>
<rect width="100" height="100" rx="6" fill="#F0F0F0"/>
<path d="M46 58H54L52.4666 49.4C53.3555 48.9556 54.0555 48.3111 54.5666 47.4667C55.0777 46.6223 55.3333 45.6889 55.3333 44.6667C55.3333 43.2 54.8111 41.9445 53.7666 40.9C52.7222 39.8556 51.4666 39.3334 50 39.3334C48.5333 39.3334 47.2777 39.8556 46.2333 40.9C45.1888 41.9445 44.6666 43.2 44.6666 44.6667C44.6666 45.6889 44.9222 46.6223 45.4333 47.4667C45.9444 48.3111 46.6444 48.9556 47.5333 49.4L46 58ZM50 76.6667C43.8222 75.1111 38.7222 71.5667 34.7 66.0334C30.6777 60.5 28.6666 54.3556 28.6666 47.6V31.3334L50 23.3334L71.3333 31.3334V47.6C71.3333 54.3556 69.3222 60.5 65.3 66.0334C61.2777 71.5667 56.1777 75.1111 50 76.6667ZM50 71.0667C54.6222 69.6 58.4444 66.6667 61.4666 62.2667C64.4888 57.8667 66 52.9778 66 47.6V35L50 29L34 35V47.6C34 52.9778 35.5111 57.8667 38.5333 62.2667C41.5555 66.6667 45.3777 69.6 50 71.0667Z" fill="#001EF4"/>
</svg>
