<svg width="226" height="24" viewBox="0 0 226 24" fill="none" xmlns="http://www.w3.org/2000/svg">
<path d="M1.86563e-05 18.5281V1.72808H6.91202C8.40002 1.72808 9.67202 1.96808 10.728 2.44808C11.8 2.92808 12.624 3.61608 13.2 4.51207C13.776 5.40808 14.064 6.47208 14.064 7.70408C14.064 8.93608 13.776 10.0001 13.2 10.8961C12.624 11.7761 11.8 12.4561 10.728 12.9361C9.67202 13.4001 8.40002 13.6321 6.91202 13.6321H1.72802L3.12002 12.2161V18.5281H1.86563e-05ZM10.992 18.5281L6.74402 12.4321H10.08L14.352 18.5281H10.992ZM3.12002 12.5521L1.72802 11.0641H6.76802C8.14402 11.0641 9.17602 10.7681 9.86402 10.1761C10.568 9.58408 10.92 8.76008 10.92 7.70408C10.92 6.63208 10.568 5.80808 9.86402 5.23208C9.17602 4.65608 8.14402 4.36808 6.76802 4.36808H1.72802L3.12002 2.83208V12.5521ZM23.2907 18.6961C21.8667 18.6961 20.6187 18.4161 19.5467 17.8561C18.4907 17.2801 17.6667 16.4961 17.0747 15.5041C16.4987 14.5121 16.2107 13.3841 16.2107 12.1201C16.2107 10.8401 16.4907 9.71208 17.0507 8.73608C17.6267 7.74408 18.4107 6.96808 19.4027 6.40808C20.4107 5.84808 21.5547 5.56808 22.8347 5.56808C24.0827 5.56808 25.1947 5.84008 26.1707 6.38408C27.1467 6.92808 27.9147 7.69608 28.4747 8.68808C29.0347 9.68008 29.3147 10.8481 29.3147 12.1921C29.3147 12.3201 29.3067 12.4641 29.2907 12.6241C29.2907 12.7841 29.2827 12.9361 29.2667 13.0801H18.5867V11.0881H27.6827L26.5067 11.7121C26.5227 10.9761 26.3707 10.3281 26.0507 9.76808C25.7307 9.20808 25.2907 8.76808 24.7307 8.44808C24.1867 8.12808 23.5547 7.96808 22.8347 7.96808C22.0987 7.96808 21.4507 8.12808 20.8907 8.44808C20.3467 8.76808 19.9147 9.21608 19.5947 9.79208C19.2907 10.3521 19.1387 11.0161 19.1387 11.7841V12.2641C19.1387 13.0321 19.3147 13.7121 19.6667 14.3041C20.0187 14.8961 20.5147 15.3521 21.1547 15.6721C21.7947 15.9921 22.5307 16.1521 23.3627 16.1521C24.0827 16.1521 24.7307 16.0401 25.3067 15.8161C25.8827 15.5921 26.3947 15.2401 26.8427 14.7601L28.4507 16.6081C27.8747 17.2801 27.1467 17.8001 26.2667 18.1681C25.4027 18.5201 24.4107 18.6961 23.2907 18.6961ZM37.0204 18.6961C35.6124 18.6961 34.5244 18.3361 33.7564 17.6161C32.9884 16.8801 32.6044 15.8001 32.6044 14.3761V2.88008H35.6044V14.3041C35.6044 14.9121 35.7564 15.3841 36.0604 15.7201C36.3804 16.0561 36.8204 16.2241 37.3804 16.2241C38.0524 16.2241 38.6124 16.0481 39.0604 15.6961L39.9004 17.8321C39.5484 18.1201 39.1164 18.3361 38.6044 18.4801C38.0924 18.6241 37.5644 18.6961 37.0204 18.6961ZM30.4924 8.20808V5.80808H39.0364V8.20808H30.4924ZM50.2643 18.5281V15.9361L50.0963 15.3841V10.8481C50.0963 9.96808 49.8323 9.28808 49.3043 8.80808C48.7763 8.31208 47.9763 8.06408 46.9043 8.06408C46.1843 8.06408 45.4723 8.17608 44.7683 8.40008C44.0803 8.62408 43.4963 8.93608 43.0163 9.33608L41.8403 7.15208C42.5283 6.62408 43.3443 6.23208 44.2883 5.97608C45.2483 5.70408 46.2403 5.56808 47.2643 5.56808C49.1203 5.56808 50.5523 6.01608 51.5603 6.91208C52.5843 7.79208 53.0963 9.16008 53.0963 11.0161V18.5281H50.2643ZM46.2323 18.6961C45.2723 18.6961 44.4323 18.5361 43.7123 18.2161C42.9923 17.8801 42.4323 17.4241 42.0323 16.8481C41.6483 16.2561 41.4563 15.5921 41.4563 14.8561C41.4563 14.1361 41.6243 13.4881 41.9603 12.9121C42.3123 12.3361 42.8803 11.8801 43.6643 11.5441C44.4483 11.2081 45.4883 11.0401 46.7843 11.0401H50.5043V13.0321H47.0003C45.9763 13.0321 45.2883 13.2001 44.9363 13.5361C44.5843 13.8561 44.4083 14.2561 44.4083 14.7361C44.4083 15.2801 44.6243 15.7121 45.0563 16.0321C45.4883 16.3521 46.0883 16.5121 46.8563 16.5121C47.5923 16.5121 48.2483 16.3441 48.8243 16.0081C49.4163 15.6721 49.8403 15.1761 50.0963 14.5201L50.6003 16.3201C50.3123 17.0721 49.7923 17.6561 49.0403 18.0721C48.3043 18.4881 47.3683 18.6961 46.2323 18.6961ZM56.9464 18.5281V5.71208H59.9464V18.5281H56.9464ZM58.4584 3.60008C57.8984 3.60008 57.4344 3.42408 57.0664 3.07207C56.7144 2.72008 56.5384 2.29608 56.5384 1.80008C56.5384 1.28808 56.7144 0.864075 57.0664 0.528075C57.4344 0.176075 57.8984 7.58171e-05 58.4584 7.58171e-05C59.0184 7.58171e-05 59.4744 0.168076 59.8264 0.504075C60.1944 0.824076 60.3784 1.23208 60.3784 1.72808C60.3784 2.25607 60.2024 2.70407 59.8504 3.07207C59.4984 3.42408 59.0344 3.60008 58.4584 3.60008ZM63.8839 18.5281V0.720075H66.8839V18.5281H63.8839ZM82.5902 18.7681C81.4222 18.7681 80.3742 18.5761 79.4462 18.1921C78.5182 17.8081 77.7902 17.2801 77.2622 16.6081C76.7342 15.9361 76.4702 15.1601 76.4702 14.2801C76.4702 13.4801 76.6462 12.7601 76.9982 12.1201C77.3502 11.4801 77.9102 10.8721 78.6782 10.2961C79.4462 9.70408 80.4302 9.11208 81.6302 8.52008C82.5742 8.05608 83.3102 7.64808 83.8382 7.29608C84.3822 6.94408 84.7582 6.60808 84.9662 6.28807C85.1902 5.96808 85.3022 5.63208 85.3022 5.28008C85.3022 4.80008 85.1342 4.41608 84.7982 4.12808C84.4622 3.82408 83.9822 3.67208 83.3582 3.67208C82.6862 3.67208 82.1582 3.84008 81.7742 4.17607C81.4062 4.49608 81.2222 4.92008 81.2222 5.44808C81.2222 5.72008 81.2702 5.98408 81.3662 6.24008C81.4782 6.49608 81.6702 6.78408 81.9422 7.10408C82.2142 7.42408 82.6062 7.83208 83.1182 8.32808L91.9982 16.8481L90.3422 18.7921L80.7422 9.57608C80.1982 9.04808 79.7582 8.56008 79.4222 8.11208C79.0862 7.66408 78.8462 7.23208 78.7022 6.81608C78.5582 6.38408 78.4862 5.94408 78.4862 5.49608C78.4862 4.71208 78.6862 4.02408 79.0862 3.43208C79.4862 2.82408 80.0542 2.36007 80.7902 2.04008C81.5262 1.70408 82.3822 1.53608 83.3582 1.53608C84.2702 1.53608 85.0542 1.68808 85.7102 1.99208C86.3822 2.28008 86.9022 2.70408 87.2702 3.26408C87.6542 3.80807 87.8462 4.46408 87.8462 5.23208C87.8462 5.90408 87.6782 6.52808 87.3422 7.10408C87.0062 7.66408 86.4782 8.20008 85.7582 8.71208C85.0542 9.22408 84.1102 9.76008 82.9262 10.3201C82.0462 10.7521 81.3502 11.1601 80.8382 11.5441C80.3262 11.9281 79.9582 12.3121 79.7342 12.6961C79.5102 13.0801 79.3982 13.5041 79.3982 13.9681C79.3982 14.4321 79.5342 14.8401 79.8062 15.1921C80.0942 15.5441 80.4942 15.8241 81.0062 16.0321C81.5182 16.2241 82.1182 16.3201 82.8062 16.3201C83.8302 16.3201 84.7582 16.0961 85.5902 15.6481C86.4382 15.1841 87.1502 14.4961 87.7262 13.5841C88.3022 12.6721 88.7182 11.5441 88.9742 10.2001L91.3982 10.9921C91.0622 12.6081 90.4782 14.0001 89.6462 15.1681C88.8302 16.3201 87.8222 17.2081 86.6222 17.8321C85.4222 18.4561 84.0782 18.7681 82.5902 18.7681ZM101.32 18.5281V1.72808H109.192C111.208 1.72808 112.744 2.12808 113.8 2.92808C114.856 3.71208 115.384 4.76808 115.384 6.09608C115.384 6.99208 115.176 7.76008 114.76 8.40008C114.344 9.02408 113.784 9.51208 113.08 9.86408C112.392 10.2001 111.64 10.3681 110.824 10.3681L111.256 9.50408C112.2 9.50408 113.048 9.68008 113.8 10.0321C114.552 10.3681 115.144 10.8641 115.576 11.5201C116.024 12.1761 116.248 12.9921 116.248 13.9681C116.248 15.4081 115.696 16.5281 114.592 17.3281C113.488 18.1281 111.848 18.5281 109.672 18.5281H101.32ZM104.44 16.0801H109.48C110.648 16.0801 111.544 15.8881 112.168 15.5041C112.792 15.1201 113.104 14.5041 113.104 13.6561C113.104 12.8241 112.792 12.2161 112.168 11.8321C111.544 11.4321 110.648 11.2321 109.48 11.2321H104.2V8.80808H108.856C109.944 8.80808 110.776 8.61608 111.352 8.23208C111.944 7.84808 112.24 7.27208 112.24 6.50408C112.24 5.72008 111.944 5.13608 111.352 4.75208C110.776 4.36808 109.944 4.17607 108.856 4.17607H104.44V16.0801ZM125.05 18.6961C123.738 18.6961 122.57 18.4161 121.546 17.8561C120.522 17.2801 119.714 16.4961 119.122 15.5041C118.53 14.5121 118.234 13.3841 118.234 12.1201C118.234 10.8401 118.53 9.71208 119.122 8.73608C119.714 7.74408 120.522 6.96808 121.546 6.40808C122.57 5.84808 123.738 5.56808 125.05 5.56808C126.378 5.56808 127.554 5.84808 128.578 6.40808C129.618 6.96808 130.426 7.73608 131.002 8.71208C131.594 9.68808 131.89 10.8241 131.89 12.1201C131.89 13.3841 131.594 14.5121 131.002 15.5041C130.426 16.4961 129.618 17.2801 128.578 17.8561C127.554 18.4161 126.378 18.6961 125.05 18.6961ZM125.05 16.1281C125.786 16.1281 126.442 15.9681 127.018 15.6481C127.594 15.3281 128.042 14.8641 128.362 14.2561C128.698 13.6481 128.866 12.9361 128.866 12.1201C128.866 11.2881 128.698 10.5761 128.362 9.98408C128.042 9.37608 127.594 8.91208 127.018 8.59208C126.442 8.27208 125.794 8.11208 125.074 8.11208C124.338 8.11208 123.682 8.27208 123.106 8.59208C122.546 8.91208 122.098 9.37608 121.762 9.98408C121.426 10.5761 121.258 11.2881 121.258 12.1201C121.258 12.9361 121.426 13.6481 121.762 14.2561C122.098 14.8641 122.546 15.3281 123.106 15.6481C123.682 15.9681 124.33 16.1281 125.05 16.1281ZM140.183 18.6961C139.095 18.6961 138.135 18.4961 137.303 18.0961C136.471 17.6801 135.823 17.0561 135.359 16.2241C134.895 15.3761 134.663 14.3121 134.663 13.0321V5.71208H137.663V12.6241C137.663 13.7761 137.919 14.6401 138.431 15.2161C138.959 15.7761 139.703 16.0561 140.663 16.0561C141.367 16.0561 141.975 15.9121 142.487 15.6241C143.015 15.3361 143.423 14.9041 143.711 14.3281C144.015 13.7521 144.167 13.0401 144.167 12.1921V5.71208H147.167V18.5281H144.311V15.0721L144.815 16.1281C144.383 16.9601 143.751 17.6001 142.919 18.0481C142.087 18.4801 141.175 18.6961 140.183 18.6961ZM155.919 18.6961C154.511 18.6961 153.423 18.3361 152.655 17.6161C151.887 16.8801 151.503 15.8001 151.503 14.3761V2.88008H154.503V14.3041C154.503 14.9121 154.655 15.3841 154.959 15.7201C155.279 16.0561 155.719 16.2241 156.279 16.2241C156.951 16.2241 157.511 16.0481 157.959 15.6961L158.799 17.8321C158.447 18.1201 158.015 18.3361 157.503 18.4801C156.991 18.6241 156.463 18.6961 155.919 18.6961ZM149.391 8.20808V5.80808H157.935V8.20808H149.391ZM161.267 18.5281V5.71208H164.267V18.5281H161.267ZM162.779 3.60008C162.219 3.60008 161.755 3.42408 161.387 3.07207C161.035 2.72008 160.859 2.29608 160.859 1.80008C160.859 1.28808 161.035 0.864075 161.387 0.528075C161.755 0.176075 162.219 7.58171e-05 162.779 7.58171e-05C163.339 7.58171e-05 163.795 0.168076 164.147 0.504075C164.515 0.824076 164.699 1.23208 164.699 1.72808C164.699 2.25607 164.523 2.70407 164.171 3.07207C163.819 3.42408 163.355 3.60008 162.779 3.60008ZM173.628 18.6961C172.396 18.6961 171.284 18.4241 170.292 17.8801C169.316 17.3361 168.548 16.5761 167.988 15.6001C167.428 14.6081 167.148 13.4481 167.148 12.1201C167.148 10.7921 167.428 9.64008 167.988 8.66408C168.548 7.68808 169.316 6.92808 170.292 6.38408C171.284 5.84008 172.396 5.56808 173.628 5.56808C174.732 5.56808 175.7 5.80808 176.532 6.28807C177.38 6.75208 178.044 7.46408 178.524 8.42408C179.02 9.38408 179.268 10.6161 179.268 12.1201C179.268 13.6081 179.012 14.8401 178.5 15.8161C178.004 16.7761 177.332 17.4961 176.484 17.9761C175.636 18.4561 174.684 18.6961 173.628 18.6961ZM173.964 16.1281C174.684 16.1281 175.332 15.9681 175.908 15.6481C176.484 15.3281 176.94 14.8641 177.276 14.2561C177.612 13.6481 177.78 12.9361 177.78 12.1201C177.78 11.2881 177.612 10.5761 177.276 9.98408C176.94 9.37608 176.484 8.91208 175.908 8.59208C175.332 8.27208 174.684 8.11208 173.964 8.11208C173.244 8.11208 172.596 8.27208 172.02 8.59208C171.46 8.91208 171.012 9.37608 170.676 9.98408C170.34 10.5761 170.172 11.2881 170.172 12.1201C170.172 12.9361 170.34 13.6481 170.676 14.2561C171.012 14.8641 171.46 15.3281 172.02 15.6481C172.596 15.9681 173.244 16.1281 173.964 16.1281ZM177.732 23.1841V15.5521L177.972 12.1441L177.876 8.73608V5.71208H180.732V23.1841H177.732ZM190.081 18.6961C188.993 18.6961 188.033 18.4961 187.201 18.0961C186.369 17.6801 185.721 17.0561 185.257 16.2241C184.793 15.3761 184.561 14.3121 184.561 13.0321V5.71208H187.561V12.6241C187.561 13.7761 187.817 14.6401 188.329 15.2161C188.857 15.7761 189.601 16.0561 190.561 16.0561C191.265 16.0561 191.873 15.9121 192.385 15.6241C192.913 15.3361 193.321 14.9041 193.609 14.3281C193.913 13.7521 194.065 13.0401 194.065 12.1921V5.71208H197.065V18.5281H194.209V15.0721L194.713 16.1281C194.281 16.9601 193.649 17.6001 192.817 18.0481C191.985 18.4801 191.073 18.6961 190.081 18.6961ZM207.017 18.6961C205.593 18.6961 204.345 18.4161 203.273 17.8561C202.217 17.2801 201.393 16.4961 200.801 15.5041C200.225 14.5121 199.937 13.3841 199.937 12.1201C199.937 10.8401 200.217 9.71208 200.777 8.73608C201.353 7.74408 202.137 6.96808 203.129 6.40808C204.137 5.84808 205.281 5.56808 206.561 5.56808C207.809 5.56808 208.921 5.84008 209.897 6.38408C210.873 6.92808 211.641 7.69608 212.201 8.68808C212.761 9.68008 213.041 10.8481 213.041 12.1921C213.041 12.3201 213.033 12.4641 213.017 12.6241C213.017 12.7841 213.009 12.9361 212.993 13.0801H202.313V11.0881H211.409L210.233 11.7121C210.249 10.9761 210.097 10.3281 209.777 9.76808C209.457 9.20808 209.017 8.76808 208.457 8.44808C207.913 8.12808 207.281 7.96808 206.561 7.96808C205.825 7.96808 205.177 8.12808 204.617 8.44808C204.073 8.76808 203.641 9.21608 203.321 9.79208C203.017 10.3521 202.865 11.0161 202.865 11.7841V12.2641C202.865 13.0321 203.041 13.7121 203.393 14.3041C203.745 14.8961 204.241 15.3521 204.881 15.6721C205.521 15.9921 206.257 16.1521 207.089 16.1521C207.809 16.1521 208.457 16.0401 209.033 15.8161C209.609 15.5921 210.121 15.2401 210.569 14.7601L212.177 16.6081C211.601 17.2801 210.873 17.8001 209.993 18.1681C209.129 18.5201 208.137 18.6961 207.017 18.6961ZM219.883 18.6961C218.811 18.6961 217.779 18.5601 216.787 18.2881C215.811 18.0001 215.035 17.6561 214.459 17.2561L215.611 14.9761C216.187 15.3441 216.875 15.6481 217.675 15.8881C218.475 16.1281 219.275 16.2481 220.075 16.2481C221.019 16.2481 221.699 16.1201 222.115 15.8641C222.547 15.6081 222.763 15.2641 222.763 14.8321C222.763 14.4801 222.619 14.2161 222.331 14.0401C222.043 13.8481 221.667 13.7041 221.203 13.6081C220.739 13.5121 220.219 13.4241 219.643 13.3441C219.083 13.2641 218.515 13.1601 217.939 13.0321C217.379 12.8881 216.867 12.6881 216.403 12.4321C215.939 12.1601 215.563 11.8001 215.275 11.3521C214.987 10.9041 214.843 10.3121 214.843 9.57608C214.843 8.76008 215.075 8.05608 215.539 7.46408C216.003 6.85608 216.651 6.39208 217.483 6.07207C218.331 5.73608 219.331 5.56808 220.483 5.56808C221.347 5.56808 222.219 5.66408 223.099 5.85608C223.979 6.04808 224.707 6.32008 225.283 6.67208L224.131 8.95208C223.523 8.58408 222.907 8.33608 222.283 8.20808C221.675 8.06408 221.067 7.99208 220.459 7.99208C219.547 7.99208 218.867 8.12808 218.419 8.40008C217.987 8.67208 217.771 9.01608 217.771 9.43208C217.771 9.81608 217.915 10.1041 218.203 10.2961C218.491 10.4881 218.867 10.6401 219.331 10.7521C219.795 10.8641 220.307 10.9601 220.867 11.0401C221.443 11.1041 222.011 11.2081 222.571 11.3521C223.131 11.4961 223.643 11.6961 224.107 11.9521C224.587 12.1921 224.971 12.5361 225.259 12.9841C225.547 13.4321 225.691 14.0161 225.691 14.7361C225.691 15.5361 225.451 16.2321 224.971 16.8241C224.507 17.4161 223.843 17.8801 222.979 18.2161C222.115 18.5361 221.083 18.6961 219.883 18.6961Z" fill="#FCFCFC"/>
</svg>
