<svg width="452" height="32" viewBox="0 0 452 32" fill="none" xmlns="http://www.w3.org/2000/svg">
<path d="M8.83201 25.0241C7.08267 25.0241 5.40801 24.7788 3.80801 24.2881C2.20801 23.7761 0.938672 23.1254 4.88758e-06 22.3361L1.44001 19.1041C2.33601 19.8081 3.44534 20.3948 4.76801 20.8641C6.09067 21.3334 7.44534 21.5681 8.83201 21.5681C10.0053 21.5681 10.9547 21.4401 11.68 21.1841C12.4053 20.9281 12.9387 20.5868 13.28 20.1601C13.6213 19.7121 13.792 19.2108 13.792 18.6561C13.792 17.9734 13.5467 17.4294 13.056 17.0241C12.5653 16.5974 11.9253 16.2668 11.136 16.0321C10.368 15.7761 9.50401 15.5414 8.54401 15.3281C7.60534 15.1148 6.65601 14.8694 5.69601 14.5921C4.75734 14.2934 3.89334 13.9201 3.104 13.4721C2.336 13.0028 1.70667 12.3841 1.21601 11.6161C0.725338 10.8481 0.480005 9.86677 0.480005 8.6721C0.480005 7.4561 0.800005 6.34677 1.44001 5.3441C2.10134 4.3201 3.09334 3.50943 4.41601 2.9121C5.76001 2.29343 7.45601 1.9841 9.50401 1.9841C10.848 1.9841 12.1813 2.15477 13.504 2.4961C14.8267 2.83743 15.9787 3.3281 16.96 3.9681L15.648 7.2001C14.6453 6.60277 13.6107 6.16543 12.544 5.8881C11.4773 5.58943 10.4533 5.4401 9.47201 5.4401C8.32001 5.4401 7.38134 5.57877 6.65601 5.8561C5.95201 6.13343 5.42934 6.4961 5.08801 6.9441C4.76801 7.3921 4.60801 7.9041 4.60801 8.4801C4.60801 9.16277 4.84267 9.71743 5.31201 10.1441C5.80267 10.5494 6.43201 10.8694 7.20001 11.1041C7.98934 11.3388 8.86401 11.5734 9.82401 11.8081C10.784 12.0214 11.7333 12.2668 12.672 12.5441C13.632 12.8214 14.496 13.1841 15.264 13.6321C16.0533 14.0801 16.6827 14.6881 17.152 15.4561C17.6427 16.2241 17.888 17.1948 17.888 18.3681C17.888 19.5628 17.5573 20.6721 16.896 21.6961C16.256 22.6988 15.264 23.5094 13.92 24.1281C12.576 24.7254 10.88 25.0241 8.83201 25.0241ZM21.629 24.7041V7.6161H25.629V24.7041H21.629ZM23.645 4.8001C22.8983 4.8001 22.2797 4.56543 21.789 4.0961C21.3197 3.62677 21.085 3.06143 21.085 2.4001C21.085 1.71743 21.3197 1.1521 21.789 0.7041C22.2797 0.234767 22.8983 0.000101089 23.645 0.000101089C24.3917 0.000101089 24.9997 0.224101 25.469 0.6721C25.9597 1.09877 26.205 1.64277 26.205 2.3041C26.205 3.0081 25.9703 3.60543 25.501 4.0961C25.0317 4.56543 24.413 4.8001 23.645 4.8001ZM52.447 7.4241C53.8123 7.4241 55.0177 7.69077 56.063 8.2241C57.1297 8.75743 57.9617 9.57877 58.559 10.6881C59.1563 11.7761 59.455 13.1841 59.455 14.9121V24.7041H55.455V15.4241C55.455 13.9094 55.1243 12.7788 54.463 12.0321C53.8017 11.2854 52.8523 10.9121 51.615 10.9121C50.7403 10.9121 49.9617 11.1041 49.279 11.4881C48.6177 11.8721 48.095 12.4374 47.711 13.1841C47.3483 13.9308 47.167 14.8801 47.167 16.0321V24.7041H43.167V15.4241C43.167 13.9094 42.8363 12.7788 42.175 12.0321C41.5137 11.2854 40.5643 10.9121 39.327 10.9121C38.4523 10.9121 37.6737 11.1041 36.991 11.4881C36.3297 11.8721 35.807 12.4374 35.423 13.1841C35.0603 13.9308 34.879 14.8801 34.879 16.0321V24.7041H30.879V7.6161H34.687V12.1601L34.015 10.8161C34.591 9.70677 35.423 8.8641 36.511 8.2881C37.6203 7.7121 38.879 7.4241 40.287 7.4241C41.887 7.4241 43.2737 7.81877 44.447 8.6081C45.6417 9.39743 46.431 10.5921 46.815 12.1921L45.247 11.6481C45.8017 10.3681 46.719 9.3441 47.999 8.5761C49.279 7.8081 50.7617 7.4241 52.447 7.4241ZM74.0385 24.9281C72.6518 24.9281 71.3825 24.6081 70.2305 23.9681C69.0998 23.3281 68.1932 22.3681 67.5105 21.0881C66.8492 19.7868 66.5185 18.1441 66.5185 16.1601C66.5185 14.1548 66.8385 12.5121 67.4785 11.2321C68.1398 9.9521 69.0358 9.00277 70.1665 8.3841C71.2972 7.7441 72.5878 7.4241 74.0385 7.4241C75.7238 7.4241 77.2065 7.78677 78.4865 8.5121C79.7878 9.23743 80.8118 10.2508 81.5585 11.5521C82.3265 12.8534 82.7105 14.3894 82.7105 16.1601C82.7105 17.9308 82.3265 19.4774 81.5585 20.8001C80.8118 22.1014 79.7878 23.1148 78.4865 23.8401C77.2065 24.5654 75.7238 24.9281 74.0385 24.9281ZM64.5665 30.9121V7.6161H68.3745V11.6481L68.2465 16.1921L68.5665 20.7361V30.9121H64.5665ZM73.5905 21.5041C74.5505 21.5041 75.4038 21.2908 76.1505 20.8641C76.9185 20.4374 77.5265 19.8188 77.9745 19.0081C78.4225 18.1974 78.6465 17.2481 78.6465 16.1601C78.6465 15.0508 78.4225 14.1014 77.9745 13.3121C77.5265 12.5014 76.9185 11.8828 76.1505 11.4561C75.4038 11.0294 74.5505 10.8161 73.5905 10.8161C72.6305 10.8161 71.7665 11.0294 70.9985 11.4561C70.2305 11.8828 69.6225 12.5014 69.1745 13.3121C68.7265 14.1014 68.5025 15.0508 68.5025 16.1601C68.5025 17.2481 68.7265 18.1974 69.1745 19.0081C69.6225 19.8188 70.2305 20.4374 70.9985 20.8641C71.7665 21.2908 72.6305 21.5041 73.5905 21.5041ZM86.504 24.7041V0.9601H90.504V24.7041H86.504ZM103.786 24.9281C101.887 24.9281 100.223 24.5548 98.794 23.8081C97.386 23.0401 96.2873 21.9948 95.498 20.6721C94.73 19.3494 94.346 17.8454 94.346 16.1601C94.346 14.4534 94.7193 12.9494 95.466 11.6481C96.234 10.3254 97.2793 9.29077 98.602 8.5441C99.946 7.79743 101.471 7.4241 103.178 7.4241C104.842 7.4241 106.325 7.78677 107.626 8.5121C108.927 9.23743 109.951 10.2614 110.698 11.5841C111.445 12.9068 111.818 14.4641 111.818 16.2561C111.818 16.4268 111.807 16.6188 111.786 16.8321C111.786 17.0454 111.775 17.2481 111.754 17.4401H97.514V14.7841H109.642L108.074 15.6161C108.095 14.6348 107.893 13.7708 107.466 13.0241C107.039 12.2774 106.453 11.6908 105.706 11.2641C104.981 10.8374 104.138 10.6241 103.178 10.6241C102.197 10.6241 101.333 10.8374 100.586 11.2641C99.8607 11.6908 99.2847 12.2881 98.858 13.0561C98.4527 13.8028 98.25 14.6881 98.25 15.7121V16.3521C98.25 17.3761 98.4847 18.2828 98.954 19.0721C99.4233 19.8614 100.085 20.4694 100.938 20.8961C101.791 21.3228 102.773 21.5361 103.882 21.5361C104.842 21.5361 105.706 21.3868 106.474 21.0881C107.242 20.7894 107.925 20.3201 108.522 19.6801L110.666 22.1441C109.898 23.0401 108.927 23.7334 107.754 24.2241C106.602 24.6934 105.279 24.9281 103.786 24.9281ZM114.604 29.5361L116.46 22.4641L117.004 24.8321C116.258 24.8321 115.628 24.6081 115.116 24.1601C114.626 23.6908 114.38 23.0614 114.38 22.2721C114.38 21.4614 114.626 20.8214 115.116 20.3521C115.628 19.8614 116.247 19.6161 116.972 19.6161C117.719 19.6161 118.338 19.8614 118.828 20.3521C119.319 20.8428 119.564 21.4828 119.564 22.2721C119.564 22.4854 119.543 22.7201 119.5 22.9761C119.458 23.2108 119.383 23.4881 119.276 23.8081C119.191 24.1281 119.042 24.5334 118.828 25.0241L117.196 29.5361H114.604ZM137.245 24.7041V5.8241H129.821V2.3041H148.829V5.8241H141.405V24.7041H137.245ZM151.16 24.7041V7.6161H154.968V12.3201L154.52 10.9441C155.032 9.7921 155.832 8.91743 156.92 8.3201C158.03 7.72277 159.406 7.4241 161.048 7.4241V11.2321C160.878 11.1894 160.718 11.1681 160.568 11.1681C160.419 11.1468 160.27 11.1361 160.12 11.1361C158.606 11.1361 157.4 11.5841 156.504 12.4801C155.608 13.3548 155.16 14.6668 155.16 16.4161V24.7041H151.16ZM173.751 24.7041V21.2481L173.527 20.5121V14.4641C173.527 13.2908 173.175 12.3841 172.471 11.7441C171.767 11.0828 170.7 10.7521 169.271 10.7521C168.311 10.7521 167.361 10.9014 166.423 11.2001C165.505 11.4988 164.727 11.9148 164.087 12.4481L162.519 9.5361C163.436 8.8321 164.524 8.30943 165.783 7.9681C167.063 7.60543 168.385 7.4241 169.751 7.4241C172.225 7.4241 174.135 8.02143 175.479 9.2161C176.844 10.3894 177.527 12.2134 177.527 14.6881V24.7041H173.751ZM168.375 24.9281C167.095 24.9281 165.975 24.7148 165.015 24.2881C164.055 23.8401 163.308 23.2321 162.775 22.4641C162.263 21.6748 162.007 20.7894 162.007 19.8081C162.007 18.8481 162.231 17.9841 162.679 17.2161C163.148 16.4481 163.905 15.8401 164.951 15.3921C165.996 14.9441 167.383 14.7201 169.111 14.7201H174.071V17.3761H169.399C168.033 17.3761 167.116 17.6001 166.647 18.0481C166.177 18.4748 165.943 19.0081 165.943 19.6481C165.943 20.3734 166.231 20.9494 166.807 21.3761C167.383 21.8028 168.183 22.0161 169.207 22.0161C170.188 22.0161 171.063 21.7921 171.831 21.3441C172.62 20.8961 173.185 20.2348 173.527 19.3601L174.199 21.7601C173.815 22.7628 173.121 23.5414 172.119 24.0961C171.137 24.6508 169.889 24.9281 168.375 24.9281ZM192.356 7.4241C193.722 7.4241 194.938 7.69077 196.004 8.2241C197.092 8.75743 197.946 9.57877 198.564 10.6881C199.183 11.7761 199.492 13.1841 199.492 14.9121V24.7041H195.492V15.4241C195.492 13.9094 195.13 12.7788 194.404 12.0321C193.7 11.2854 192.708 10.9121 191.428 10.9121C190.49 10.9121 189.658 11.1041 188.932 11.4881C188.207 11.8721 187.642 12.4481 187.236 13.2161C186.852 13.9628 186.66 14.9121 186.66 16.0641V24.7041H182.66V7.6161H186.468V12.2241L185.796 10.8161C186.394 9.7281 187.258 8.8961 188.388 8.3201C189.54 7.72277 190.863 7.4241 192.356 7.4241ZM209.847 24.9281C208.417 24.9281 207.041 24.7468 205.719 24.3841C204.417 24.0001 203.383 23.5414 202.615 23.0081L204.151 19.9681C204.919 20.4588 205.836 20.8641 206.903 21.1841C207.969 21.5041 209.036 21.6641 210.103 21.6641C211.361 21.6641 212.268 21.4934 212.823 21.1521C213.399 20.8108 213.687 20.3521 213.687 19.7761C213.687 19.3068 213.495 18.9548 213.111 18.7201C212.727 18.4641 212.225 18.2721 211.607 18.1441C210.988 18.0161 210.295 17.8988 209.527 17.7921C208.78 17.6854 208.023 17.5468 207.255 17.3761C206.508 17.1841 205.825 16.9174 205.207 16.5761C204.588 16.2134 204.087 15.7334 203.703 15.1361C203.319 14.5388 203.127 13.7494 203.127 12.7681C203.127 11.6801 203.436 10.7414 204.055 9.9521C204.673 9.14143 205.537 8.52277 206.647 8.0961C207.777 7.6481 209.111 7.4241 210.647 7.4241C211.799 7.4241 212.961 7.5521 214.135 7.8081C215.308 8.0641 216.279 8.42677 217.047 8.8961L215.511 11.9361C214.7 11.4454 213.879 11.1148 213.047 10.9441C212.236 10.7521 211.425 10.6561 210.615 10.6561C209.399 10.6561 208.492 10.8374 207.895 11.2001C207.319 11.5628 207.031 12.0214 207.031 12.5761C207.031 13.0881 207.223 13.4721 207.607 13.7281C207.991 13.9841 208.492 14.1868 209.111 14.3361C209.729 14.4854 210.412 14.6134 211.159 14.7201C211.927 14.8054 212.684 14.9441 213.431 15.1361C214.177 15.3281 214.86 15.5948 215.479 15.9361C216.119 16.2561 216.631 16.7148 217.015 17.3121C217.399 17.9094 217.591 18.6881 217.591 19.6481C217.591 20.7148 217.271 21.6428 216.631 22.4321C216.012 23.2214 215.127 23.8401 213.975 24.2881C212.823 24.7148 211.447 24.9281 209.847 24.9281ZM230.507 24.9281C229.121 24.9281 227.851 24.6081 226.699 23.9681C225.569 23.3281 224.662 22.3681 223.979 21.0881C223.318 19.7868 222.987 18.1441 222.987 16.1601C222.987 14.1548 223.307 12.5121 223.947 11.2321C224.609 9.9521 225.505 9.00277 226.635 8.3841C227.766 7.7441 229.057 7.4241 230.507 7.4241C232.193 7.4241 233.675 7.78677 234.955 8.5121C236.257 9.23743 237.281 10.2508 238.027 11.5521C238.795 12.8534 239.179 14.3894 239.179 16.1601C239.179 17.9308 238.795 19.4774 238.027 20.8001C237.281 22.1014 236.257 23.1148 234.955 23.8401C233.675 24.5654 232.193 24.9281 230.507 24.9281ZM221.035 30.9121V7.6161H224.843V11.6481L224.715 16.1921L225.035 20.7361V30.9121H221.035ZM230.059 21.5041C231.019 21.5041 231.873 21.2908 232.619 20.8641C233.387 20.4374 233.995 19.8188 234.443 19.0081C234.891 18.1974 235.115 17.2481 235.115 16.1601C235.115 15.0508 234.891 14.1014 234.443 13.3121C233.995 12.5014 233.387 11.8828 232.619 11.4561C231.873 11.0294 231.019 10.8161 230.059 10.8161C229.099 10.8161 228.235 11.0294 227.467 11.4561C226.699 11.8828 226.091 12.5014 225.643 13.3121C225.195 14.1014 224.971 15.0508 224.971 16.1601C224.971 17.2481 225.195 18.1974 225.643 19.0081C226.091 19.8188 226.699 20.4374 227.467 20.8641C228.235 21.2908 229.099 21.5041 230.059 21.5041ZM253.282 24.7041V21.2481L253.058 20.5121V14.4641C253.058 13.2908 252.706 12.3841 252.002 11.7441C251.298 11.0828 250.231 10.7521 248.802 10.7521C247.842 10.7521 246.893 10.9014 245.954 11.2001C245.037 11.4988 244.258 11.9148 243.618 12.4481L242.05 9.5361C242.967 8.8321 244.055 8.30943 245.314 7.9681C246.594 7.60543 247.917 7.4241 249.282 7.4241C251.757 7.4241 253.666 8.02143 255.01 9.2161C256.375 10.3894 257.058 12.2134 257.058 14.6881V24.7041H253.282ZM247.906 24.9281C246.626 24.9281 245.506 24.7148 244.546 24.2881C243.586 23.8401 242.839 23.2321 242.306 22.4641C241.794 21.6748 241.538 20.7894 241.538 19.8081C241.538 18.8481 241.762 17.9841 242.21 17.2161C242.679 16.4481 243.437 15.8401 244.482 15.3921C245.527 14.9441 246.914 14.7201 248.642 14.7201H253.602V17.3761H248.93C247.565 17.3761 246.647 17.6001 246.178 18.0481C245.709 18.4748 245.474 19.0081 245.474 19.6481C245.474 20.3734 245.762 20.9494 246.338 21.3761C246.914 21.8028 247.714 22.0161 248.738 22.0161C249.719 22.0161 250.594 21.7921 251.362 21.3441C252.151 20.8961 252.717 20.2348 253.058 19.3601L253.73 21.7601C253.346 22.7628 252.653 23.5414 251.65 24.0961C250.669 24.6508 249.421 24.9281 247.906 24.9281ZM262.192 24.7041V7.6161H266V12.3201L265.552 10.9441C266.064 9.7921 266.864 8.91743 267.952 8.3201C269.061 7.72277 270.437 7.4241 272.08 7.4241V11.2321C271.909 11.1894 271.749 11.1681 271.6 11.1681C271.45 11.1468 271.301 11.1361 271.152 11.1361C269.637 11.1361 268.432 11.5841 267.536 12.4801C266.64 13.3548 266.192 14.6668 266.192 16.4161V24.7041H262.192ZM283.349 24.9281C281.45 24.9281 279.786 24.5548 278.357 23.8081C276.949 23.0401 275.85 21.9948 275.061 20.6721C274.293 19.3494 273.909 17.8454 273.909 16.1601C273.909 14.4534 274.282 12.9494 275.029 11.6481C275.797 10.3254 276.842 9.29077 278.165 8.5441C279.509 7.79743 281.034 7.4241 282.741 7.4241C284.405 7.4241 285.887 7.78677 287.189 8.5121C288.49 9.23743 289.514 10.2614 290.261 11.5841C291.007 12.9068 291.381 14.4641 291.381 16.2561C291.381 16.4268 291.37 16.6188 291.349 16.8321C291.349 17.0454 291.338 17.2481 291.317 17.4401H277.077V14.7841H289.205L287.637 15.6161C287.658 14.6348 287.455 13.7708 287.029 13.0241C286.602 12.2774 286.015 11.6908 285.269 11.2641C284.543 10.8374 283.701 10.6241 282.741 10.6241C281.759 10.6241 280.895 10.8374 280.149 11.2641C279.423 11.6908 278.847 12.2881 278.421 13.0561C278.015 13.8028 277.813 14.6881 277.813 15.7121V16.3521C277.813 17.3761 278.047 18.2828 278.517 19.0721C278.986 19.8614 279.647 20.4694 280.501 20.8961C281.354 21.3228 282.335 21.5361 283.445 21.5361C284.405 21.5361 285.269 21.3868 286.037 21.0881C286.805 20.7894 287.487 20.3201 288.085 19.6801L290.229 22.1441C289.461 23.0401 288.49 23.7334 287.317 24.2241C286.165 24.6934 284.842 24.9281 283.349 24.9281ZM304.919 7.4241C306.284 7.4241 307.5 7.69077 308.567 8.2241C309.655 8.75743 310.508 9.57877 311.127 10.6881C311.745 11.7761 312.055 13.1841 312.055 14.9121V24.7041H308.055V15.4241C308.055 13.9094 307.692 12.7788 306.967 12.0321C306.263 11.2854 305.271 10.9121 303.991 10.9121C303.052 10.9121 302.22 11.1041 301.495 11.4881C300.769 11.8721 300.204 12.4481 299.799 13.2161C299.415 13.9628 299.223 14.9121 299.223 16.0641V24.7041H295.223V7.6161H299.031V12.2241L298.359 10.8161C298.956 9.7281 299.82 8.8961 300.951 8.3201C302.103 7.72277 303.425 7.4241 304.919 7.4241ZM323.561 24.9281C321.684 24.9281 320.233 24.4481 319.209 23.4881C318.185 22.5068 317.673 21.0668 317.673 19.1681V3.8401H321.673V19.0721C321.673 19.8828 321.876 20.5121 322.281 20.9601C322.708 21.4081 323.294 21.6321 324.041 21.6321C324.937 21.6321 325.684 21.3974 326.281 20.9281L327.401 23.7761C326.932 24.1601 326.356 24.4481 325.673 24.6401C324.99 24.8321 324.286 24.9281 323.561 24.9281ZM314.857 10.9441V7.7441H326.249V10.9441H314.857ZM339.919 24.7041V2.3041H349.135C351.119 2.3041 352.815 2.6241 354.223 3.2641C355.653 3.9041 356.751 4.82143 357.519 6.0161C358.287 7.21077 358.671 8.62943 358.671 10.2721C358.671 11.9148 358.287 13.3334 357.519 14.5281C356.751 15.7228 355.653 16.6401 354.223 17.2801C352.815 17.9201 351.119 18.2401 349.135 18.2401H342.223L344.079 16.2881V24.7041H339.919ZM344.079 16.7361L342.223 14.7201H348.943C350.778 14.7201 352.154 14.3361 353.071 13.5681C354.01 12.7788 354.479 11.6801 354.479 10.2721C354.479 8.84277 354.01 7.7441 353.071 6.9761C352.154 6.2081 350.778 5.8241 348.943 5.8241H342.223L344.079 3.7761V16.7361ZM362.285 24.7041V7.6161H366.093V12.3201L365.645 10.9441C366.157 9.7921 366.957 8.91743 368.045 8.3201C369.155 7.72277 370.531 7.4241 372.173 7.4241V11.2321C372.003 11.1894 371.843 11.1681 371.693 11.1681C371.544 11.1468 371.395 11.1361 371.245 11.1361C369.731 11.1361 368.525 11.5841 367.629 12.4801C366.733 13.3548 366.285 14.6668 366.285 16.4161V24.7041H362.285ZM375.567 24.7041V7.6161H379.567V24.7041H375.567ZM377.583 4.8001C376.836 4.8001 376.217 4.56543 375.727 4.0961C375.257 3.62677 375.023 3.06143 375.023 2.4001C375.023 1.71743 375.257 1.1521 375.727 0.7041C376.217 0.234767 376.836 0.000101089 377.583 0.000101089C378.329 0.000101089 378.937 0.224101 379.407 0.6721C379.897 1.09877 380.143 1.64277 380.143 2.3041C380.143 3.0081 379.908 3.60543 379.439 4.0961C378.969 4.56543 378.351 4.8001 377.583 4.8001ZM392.657 24.9281C390.865 24.9281 389.265 24.5548 387.857 23.8081C386.47 23.0401 385.382 21.9948 384.593 20.6721C383.803 19.3494 383.409 17.8454 383.409 16.1601C383.409 14.4534 383.803 12.9494 384.593 11.6481C385.382 10.3254 386.47 9.29077 387.857 8.5441C389.265 7.79743 390.865 7.4241 392.657 7.4241C394.321 7.4241 395.782 7.76543 397.041 8.4481C398.321 9.10943 399.291 10.0908 399.953 11.3921L396.881 13.1841C396.369 12.3734 395.739 11.7761 394.993 11.3921C394.267 11.0081 393.478 10.8161 392.625 10.8161C391.643 10.8161 390.758 11.0294 389.969 11.4561C389.179 11.8828 388.561 12.5014 388.113 13.3121C387.665 14.1014 387.441 15.0508 387.441 16.1601C387.441 17.2694 387.665 18.2294 388.113 19.0401C388.561 19.8294 389.179 20.4374 389.969 20.8641C390.758 21.2908 391.643 21.5041 392.625 21.5041C393.478 21.5041 394.267 21.3121 394.993 20.9281C395.739 20.5441 396.369 19.9468 396.881 19.1361L399.953 20.9281C399.291 22.2081 398.321 23.2001 397.041 23.9041C395.782 24.5868 394.321 24.9281 392.657 24.9281ZM403.254 24.7041V7.6161H407.254V24.7041H403.254ZM405.27 4.8001C404.523 4.8001 403.905 4.56543 403.414 4.0961C402.945 3.62677 402.71 3.06143 402.71 2.4001C402.71 1.71743 402.945 1.1521 403.414 0.7041C403.905 0.234767 404.523 0.000101089 405.27 0.000101089C406.017 0.000101089 406.625 0.224101 407.094 0.6721C407.585 1.09877 407.83 1.64277 407.83 2.3041C407.83 3.0081 407.595 3.60543 407.126 4.0961C406.657 4.56543 406.038 4.8001 405.27 4.8001ZM422.2 7.4241C423.565 7.4241 424.781 7.69077 425.848 8.2241C426.936 8.75743 427.789 9.57877 428.408 10.6881C429.027 11.7761 429.336 13.1841 429.336 14.9121V24.7041H425.336V15.4241C425.336 13.9094 424.973 12.7788 424.248 12.0321C423.544 11.2854 422.552 10.9121 421.272 10.9121C420.333 10.9121 419.501 11.1041 418.776 11.4881C418.051 11.8721 417.485 12.4481 417.08 13.2161C416.696 13.9628 416.504 14.9121 416.504 16.0641V24.7041H412.504V7.6161H416.312V12.2241L415.64 10.8161C416.237 9.7281 417.101 8.8961 418.232 8.3201C419.384 7.72277 420.707 7.4241 422.2 7.4241ZM442.186 31.1361C440.607 31.1361 439.06 30.9228 437.546 30.4961C436.052 30.0908 434.826 29.4934 433.866 28.7041L435.658 25.6961C436.404 26.3148 437.343 26.8054 438.474 27.1681C439.626 27.5521 440.788 27.7441 441.962 27.7441C443.839 27.7441 445.215 27.3068 446.09 26.4321C446.964 25.5788 447.402 24.2881 447.402 22.5601V19.5201L447.722 15.6481L447.594 11.7761V7.6161H451.402V22.1121C451.402 25.2054 450.612 27.4774 449.034 28.9281C447.455 30.4001 445.172 31.1361 442.186 31.1361ZM441.674 23.9361C440.052 23.9361 438.58 23.5948 437.258 22.9121C435.956 22.2081 434.922 21.2374 434.154 20.0001C433.407 18.7628 433.034 17.3121 433.034 15.6481C433.034 14.0054 433.407 12.5654 434.154 11.3281C434.922 10.0908 435.956 9.13077 437.258 8.4481C438.58 7.76543 440.052 7.4241 441.674 7.4241C443.124 7.4241 444.426 7.7121 445.578 8.2881C446.73 8.8641 447.647 9.7601 448.33 10.9761C449.034 12.1921 449.386 13.7494 449.386 15.6481C449.386 17.5468 449.034 19.1148 448.33 20.3521C447.647 21.5681 446.73 22.4748 445.578 23.0721C444.426 23.6481 443.124 23.9361 441.674 23.9361ZM442.282 20.5441C443.284 20.5441 444.18 20.3414 444.97 19.9361C445.759 19.5094 446.367 18.9334 446.794 18.2081C447.242 17.4614 447.466 16.6081 447.466 15.6481C447.466 14.6881 447.242 13.8454 446.794 13.1201C446.367 12.3734 445.759 11.8081 444.97 11.4241C444.18 11.0188 443.284 10.8161 442.282 10.8161C441.279 10.8161 440.372 11.0188 439.562 11.4241C438.772 11.8081 438.154 12.3734 437.706 13.1201C437.279 13.8454 437.066 14.6881 437.066 15.6481C437.066 16.6081 437.279 17.4614 437.706 18.2081C438.154 18.9334 438.772 19.5094 439.562 19.9361C440.372 20.3414 441.279 20.5441 442.282 20.5441Z" fill="#333333"/>
</svg>
