<svg width="700" height="19" viewBox="0 0 700 19" fill="none" xmlns="http://www.w3.org/2000/svg">
<path d="M7.32002 15.0599C6.26669 15.0599 5.29336 14.8866 4.40002 14.5399C3.50669 14.1799 2.73336 13.6799 2.08002 13.0399C1.42669 12.3999 0.913355 11.6466 0.540022 10.7799C0.180022 9.91327 2.19941e-05 8.96661 2.19941e-05 7.93994C2.19941e-05 6.91327 0.180022 5.96661 0.540022 5.09994C0.913355 4.23327 1.42669 3.47994 2.08002 2.83994C2.74669 2.19994 3.52669 1.70661 4.42002 1.35994C5.31336 0.999941 6.28669 0.819941 7.34002 0.819941C8.35336 0.819941 9.30669 0.993274 10.2 1.33994C11.0934 1.67327 11.8467 2.17994 12.46 2.85994L11.52 3.79994C10.9467 3.21327 10.3134 2.79327 9.62002 2.53994C8.92669 2.27327 8.18002 2.13994 7.38002 2.13994C6.54002 2.13994 5.76002 2.28661 5.04002 2.57994C4.32002 2.85994 3.69336 3.26661 3.16002 3.79994C2.62669 4.31994 2.20669 4.93327 1.90002 5.63994C1.60669 6.33327 1.46002 7.09994 1.46002 7.93994C1.46002 8.77994 1.60669 9.55327 1.90002 10.2599C2.20669 10.9533 2.62669 11.5666 3.16002 12.0999C3.69336 12.6199 4.32002 13.0266 5.04002 13.3199C5.76002 13.5999 6.54002 13.7399 7.38002 13.7399C8.18002 13.7399 8.92669 13.6066 9.62002 13.3399C10.3134 13.0733 10.9467 12.6466 11.52 12.0599L12.46 12.9999C11.8467 13.6799 11.0934 14.1933 10.2 14.5399C9.30669 14.8866 8.34669 15.0599 7.32002 15.0599ZM20.675 4.33994C21.5284 4.33994 22.275 4.50661 22.915 4.83994C23.5684 5.15994 24.075 5.65327 24.435 6.31994C24.8084 6.98661 24.995 7.82661 24.995 8.83994V14.9399H23.575V8.97994C23.575 7.87327 23.295 7.03994 22.735 6.47994C22.1884 5.90661 21.415 5.61994 20.415 5.61994C19.6684 5.61994 19.015 5.77327 18.455 6.07994C17.9084 6.37327 17.4817 6.80661 17.175 7.37994C16.8817 7.93994 16.735 8.61994 16.735 9.41994V14.9399H15.315V0.0999405H16.735V7.31994L16.455 6.77994C16.7884 6.01994 17.3217 5.42661 18.055 4.99994C18.7884 4.55994 19.6617 4.33994 20.675 4.33994ZM33.1106 15.0399C32.0973 15.0399 31.184 14.8133 30.3706 14.3599C29.5706 13.8933 28.9373 13.2599 28.4706 12.4599C28.004 11.6466 27.7706 10.7199 27.7706 9.67994C27.7706 8.62661 28.004 7.69994 28.4706 6.89994C28.9373 6.09994 29.5706 5.47327 30.3706 5.01994C31.1706 4.56661 32.084 4.33994 33.1106 4.33994C34.1506 4.33994 35.0706 4.56661 35.8706 5.01994C36.684 5.47327 37.3173 6.09994 37.7706 6.89994C38.2373 7.69994 38.4706 8.62661 38.4706 9.67994C38.4706 10.7199 38.2373 11.6466 37.7706 12.4599C37.3173 13.2599 36.684 13.8933 35.8706 14.3599C35.0573 14.8133 34.1373 15.0399 33.1106 15.0399ZM33.1106 13.7799C33.8706 13.7799 34.544 13.6133 35.1306 13.2799C35.7173 12.9333 36.1773 12.4533 36.5106 11.8399C36.8573 11.2133 37.0306 10.4933 37.0306 9.67994C37.0306 8.85327 36.8573 8.13327 36.5106 7.51994C36.1773 6.90661 35.7173 6.43327 35.1306 6.09994C34.544 5.75327 33.8773 5.57994 33.1306 5.57994C32.384 5.57994 31.7173 5.75327 31.1306 6.09994C30.544 6.43327 30.0773 6.90661 29.7306 7.51994C29.384 8.13327 29.2106 8.85327 29.2106 9.67994C29.2106 10.4933 29.384 11.2133 29.7306 11.8399C30.0773 12.4533 30.544 12.9333 31.1306 13.2799C31.7173 13.6133 32.3773 13.7799 33.1106 13.7799ZM45.6497 15.0399C44.6364 15.0399 43.723 14.8133 42.9097 14.3599C42.1097 13.8933 41.4764 13.2599 41.0097 12.4599C40.543 11.6466 40.3097 10.7199 40.3097 9.67994C40.3097 8.62661 40.543 7.69994 41.0097 6.89994C41.4764 6.09994 42.1097 5.47327 42.9097 5.01994C43.7097 4.56661 44.623 4.33994 45.6497 4.33994C46.6897 4.33994 47.6097 4.56661 48.4097 5.01994C49.223 5.47327 49.8564 6.09994 50.3097 6.89994C50.7764 7.69994 51.0097 8.62661 51.0097 9.67994C51.0097 10.7199 50.7764 11.6466 50.3097 12.4599C49.8564 13.2599 49.223 13.8933 48.4097 14.3599C47.5964 14.8133 46.6764 15.0399 45.6497 15.0399ZM45.6497 13.7799C46.4097 13.7799 47.083 13.6133 47.6697 13.2799C48.2564 12.9333 48.7164 12.4533 49.0497 11.8399C49.3964 11.2133 49.5697 10.4933 49.5697 9.67994C49.5697 8.85327 49.3964 8.13327 49.0497 7.51994C48.7164 6.90661 48.2564 6.43327 47.6697 6.09994C47.083 5.75327 46.4164 5.57994 45.6697 5.57994C44.923 5.57994 44.2564 5.75327 43.6697 6.09994C43.083 6.43327 42.6164 6.90661 42.2697 7.51994C41.923 8.13327 41.7497 8.85327 41.7497 9.67994C41.7497 10.4933 41.923 11.2133 42.2697 11.8399C42.6164 12.4533 43.083 12.9333 43.6697 13.2799C44.2564 13.6133 44.9164 13.7799 45.6497 13.7799ZM56.7288 15.0399C55.8621 15.0399 55.0421 14.9199 54.2688 14.6799C53.4954 14.4266 52.8888 14.1133 52.4488 13.7399L53.0888 12.6199C53.5154 12.9399 54.0621 13.2199 54.7288 13.4599C55.3954 13.6866 56.0954 13.7999 56.8288 13.7999C57.8288 13.7999 58.5488 13.6466 58.9888 13.3399C59.4288 13.0199 59.6488 12.5999 59.6488 12.0799C59.6488 11.6933 59.5221 11.3933 59.2688 11.1799C59.0288 10.9533 58.7088 10.7866 58.3088 10.6799C57.9088 10.5599 57.4621 10.4599 56.9688 10.3799C56.4754 10.2999 55.9821 10.2066 55.4888 10.0999C55.0088 9.99327 54.5688 9.83994 54.1688 9.63994C53.7688 9.42661 53.4421 9.13994 53.1888 8.77994C52.9488 8.41994 52.8288 7.93994 52.8288 7.33994C52.8288 6.76661 52.9888 6.25327 53.3088 5.79994C53.6288 5.34661 54.0954 4.99327 54.7088 4.73994C55.3354 4.47327 56.0954 4.33994 56.9888 4.33994C57.6688 4.33994 58.3488 4.43327 59.0288 4.61994C59.7088 4.79327 60.2688 5.02661 60.7088 5.31994L60.0888 6.45994C59.6221 6.13994 59.1221 5.91327 58.5888 5.77994C58.0554 5.63327 57.5221 5.55994 56.9888 5.55994C56.0421 5.55994 55.3421 5.72661 54.8888 6.05994C54.4488 6.37994 54.2288 6.79327 54.2288 7.29994C54.2288 7.69994 54.3488 8.01327 54.5888 8.23994C54.8421 8.46661 55.1688 8.64661 55.5688 8.77994C55.9821 8.89994 56.4288 8.99994 56.9088 9.07994C57.4021 9.15994 57.8888 9.25994 58.3688 9.37994C58.8621 9.48661 59.3088 9.63994 59.7088 9.83994C60.1221 10.0266 60.4488 10.2999 60.6888 10.6599C60.9421 11.0066 61.0688 11.4666 61.0688 12.0399C61.0688 12.6533 60.8954 13.1866 60.5488 13.6399C60.2154 14.0799 59.7221 14.4266 59.0688 14.6799C58.4288 14.9199 57.6488 15.0399 56.7288 15.0399ZM68.1344 15.0399C67.0411 15.0399 66.0811 14.8133 65.2544 14.3599C64.4277 13.8933 63.7811 13.2599 63.3144 12.4599C62.8477 11.6466 62.6144 10.7199 62.6144 9.67994C62.6144 8.63994 62.8344 7.71994 63.2744 6.91994C63.7277 6.11994 64.3411 5.49327 65.1144 5.03994C65.9011 4.57327 66.7811 4.33994 67.7544 4.33994C68.7411 4.33994 69.6144 4.56661 70.3744 5.01994C71.1477 5.45994 71.7544 6.08661 72.1944 6.89994C72.6344 7.69994 72.8544 8.62661 72.8544 9.67994C72.8544 9.74661 72.8477 9.81994 72.8344 9.89994C72.8344 9.96661 72.8344 10.0399 72.8344 10.1199H63.6944V9.05994H72.0744L71.5144 9.47994C71.5144 8.71994 71.3477 8.04661 71.0144 7.45994C70.6944 6.85994 70.2544 6.39327 69.6944 6.05994C69.1344 5.72661 68.4877 5.55994 67.7544 5.55994C67.0344 5.55994 66.3877 5.72661 65.8144 6.05994C65.2411 6.39327 64.7944 6.85994 64.4744 7.45994C64.1544 8.05994 63.9944 8.74661 63.9944 9.51994V9.73994C63.9944 10.5399 64.1677 11.2466 64.5144 11.8599C64.8744 12.4599 65.3677 12.9333 65.9944 13.2799C66.6344 13.6133 67.3611 13.7799 68.1744 13.7799C68.8144 13.7799 69.4077 13.6666 69.9544 13.4399C70.5144 13.2133 70.9944 12.8666 71.3944 12.3999L72.1944 13.3199C71.7277 13.8799 71.1411 14.3066 70.4344 14.5999C69.7411 14.8933 68.9744 15.0399 68.1344 15.0399ZM84.2991 15.0399C83.3124 15.0399 82.5524 14.7733 82.0191 14.2399C81.4858 13.7066 81.2191 12.9533 81.2191 11.9799V2.11994H82.6391V11.8999C82.6391 12.5133 82.7924 12.9866 83.0991 13.3199C83.4191 13.6533 83.8724 13.8199 84.4591 13.8199C85.0858 13.8199 85.6058 13.6399 86.0191 13.2799L86.5191 14.2999C86.2391 14.5533 85.8991 14.7399 85.4991 14.8599C85.1124 14.9799 84.7124 15.0399 84.2991 15.0399ZM79.3391 5.61994V4.43994H85.8391V5.61994H79.3391ZM94.4641 4.33994C95.3174 4.33994 96.0641 4.50661 96.7041 4.83994C97.3574 5.15994 97.8641 5.65327 98.2241 6.31994C98.5974 6.98661 98.7841 7.82661 98.7841 8.83994V14.9399H97.3641V8.97994C97.3641 7.87327 97.0841 7.03994 96.5241 6.47994C95.9774 5.90661 95.2041 5.61994 94.2041 5.61994C93.4574 5.61994 92.8041 5.77327 92.2441 6.07994C91.6974 6.37327 91.2708 6.80661 90.9641 7.37994C90.6708 7.93994 90.5241 8.61994 90.5241 9.41994V14.9399H89.1041V0.0999405H90.5241V7.31994L90.2441 6.77994C90.5774 6.01994 91.1108 5.42661 91.8441 4.99994C92.5774 4.55994 93.4508 4.33994 94.4641 4.33994ZM107.08 15.0399C105.986 15.0399 105.026 14.8133 104.2 14.3599C103.373 13.8933 102.726 13.2599 102.26 12.4599C101.793 11.6466 101.56 10.7199 101.56 9.67994C101.56 8.63994 101.78 7.71994 102.22 6.91994C102.673 6.11994 103.286 5.49327 104.06 5.03994C104.846 4.57327 105.726 4.33994 106.7 4.33994C107.686 4.33994 108.56 4.56661 109.32 5.01994C110.093 5.45994 110.7 6.08661 111.14 6.89994C111.58 7.69994 111.8 8.62661 111.8 9.67994C111.8 9.74661 111.793 9.81994 111.78 9.89994C111.78 9.96661 111.78 10.0399 111.78 10.1199H102.64V9.05994H111.02L110.46 9.47994C110.46 8.71994 110.293 8.04661 109.96 7.45994C109.64 6.85994 109.2 6.39327 108.64 6.05994C108.08 5.72661 107.433 5.55994 106.7 5.55994C105.98 5.55994 105.333 5.72661 104.76 6.05994C104.186 6.39327 103.74 6.85994 103.42 7.45994C103.1 8.05994 102.94 8.74661 102.94 9.51994V9.73994C102.94 10.5399 103.113 11.2466 103.46 11.8599C103.82 12.4599 104.313 12.9333 104.94 13.2799C105.58 13.6133 106.306 13.7799 107.12 13.7799C107.76 13.7799 108.353 13.6666 108.9 13.4399C109.46 13.2133 109.94 12.8666 110.34 12.3999L111.14 13.3199C110.673 13.8799 110.086 14.3066 109.38 14.5999C108.686 14.8933 107.92 15.0399 107.08 15.0399ZM125.344 15.0399C124.438 15.0399 123.618 14.8333 122.884 14.4199C122.151 13.9933 121.564 13.3866 121.124 12.5999C120.698 11.7999 120.484 10.8266 120.484 9.67994C120.484 8.53327 120.698 7.56661 121.124 6.77994C121.551 5.97994 122.131 5.37327 122.864 4.95994C123.598 4.54661 124.424 4.33994 125.344 4.33994C126.344 4.33994 127.238 4.56661 128.024 5.01994C128.824 5.45994 129.451 6.08661 129.904 6.89994C130.358 7.69994 130.584 8.62661 130.584 9.67994C130.584 10.7466 130.358 11.6799 129.904 12.4799C129.451 13.2799 128.824 13.9066 128.024 14.3599C127.238 14.8133 126.344 15.0399 125.344 15.0399ZM119.924 18.8199V4.43994H121.284V7.59994L121.144 9.69994L121.344 11.8199V18.8199H119.924ZM125.244 13.7799C125.991 13.7799 126.658 13.6133 127.244 13.2799C127.831 12.9333 128.298 12.4533 128.644 11.8399C128.991 11.2133 129.164 10.4933 129.164 9.67994C129.164 8.86661 128.991 8.15327 128.644 7.53994C128.298 6.92661 127.831 6.44661 127.244 6.09994C126.658 5.75327 125.991 5.57994 125.244 5.57994C124.498 5.57994 123.824 5.75327 123.224 6.09994C122.638 6.44661 122.171 6.92661 121.824 7.53994C121.491 8.15327 121.324 8.86661 121.324 9.67994C121.324 10.4933 121.491 11.2133 121.824 11.8399C122.171 12.4533 122.638 12.9333 123.224 13.2799C123.824 13.6133 124.498 13.7799 125.244 13.7799ZM133.479 14.9399V0.0999405H134.899V14.9399H133.479ZM145.43 14.9399V12.6199L145.37 12.2399V8.35994C145.37 7.46661 145.117 6.77994 144.61 6.29994C144.117 5.81994 143.377 5.57994 142.39 5.57994C141.71 5.57994 141.064 5.69327 140.45 5.91994C139.837 6.14661 139.317 6.44661 138.89 6.81994L138.25 5.75994C138.784 5.30661 139.424 4.95994 140.17 4.71994C140.917 4.46661 141.704 4.33994 142.53 4.33994C143.89 4.33994 144.937 4.67994 145.67 5.35994C146.417 6.02661 146.79 7.04661 146.79 8.41994V14.9399H145.43ZM141.81 15.0399C141.024 15.0399 140.337 14.9133 139.75 14.6599C139.177 14.3933 138.737 14.0333 138.43 13.5799C138.124 13.1133 137.97 12.5799 137.97 11.9799C137.97 11.4333 138.097 10.9399 138.35 10.4999C138.617 10.0466 139.044 9.68661 139.63 9.41994C140.23 9.13994 141.03 8.99994 142.03 8.99994H145.65V10.0599H142.07C141.057 10.0599 140.35 10.2399 139.95 10.5999C139.564 10.9599 139.37 11.4066 139.37 11.9399C139.37 12.5399 139.604 13.0199 140.07 13.3799C140.537 13.7399 141.19 13.9199 142.03 13.9199C142.83 13.9199 143.517 13.7399 144.09 13.3799C144.677 13.0066 145.104 12.4733 145.37 11.7799L145.69 12.7599C145.424 13.4533 144.957 14.0066 144.29 14.4199C143.637 14.8333 142.81 15.0399 141.81 15.0399ZM156.007 4.33994C156.86 4.33994 157.607 4.50661 158.247 4.83994C158.9 5.15994 159.407 5.65327 159.767 6.31994C160.14 6.98661 160.327 7.82661 160.327 8.83994V14.9399H158.907V8.97994C158.907 7.87327 158.627 7.03994 158.067 6.47994C157.52 5.90661 156.747 5.61994 155.747 5.61994C155 5.61994 154.347 5.77327 153.787 6.07994C153.24 6.37327 152.814 6.80661 152.507 7.37994C152.214 7.93994 152.067 8.61994 152.067 9.41994V14.9399H150.647V4.43994H152.007V7.31994L151.787 6.77994C152.12 6.01994 152.654 5.42661 153.387 4.99994C154.12 4.55994 154.994 4.33994 156.007 4.33994ZM172.717 15.0399C171.73 15.0399 170.97 14.7733 170.437 14.2399C169.904 13.7066 169.637 12.9533 169.637 11.9799V2.11994H171.057V11.8999C171.057 12.5133 171.21 12.9866 171.517 13.3199C171.837 13.6533 172.29 13.8199 172.877 13.8199C173.504 13.8199 174.024 13.6399 174.437 13.2799L174.937 14.2999C174.657 14.5533 174.317 14.7399 173.917 14.8599C173.53 14.9799 173.13 15.0399 172.717 15.0399ZM167.757 5.61994V4.43994H174.257V5.61994H167.757ZM182.882 4.33994C183.735 4.33994 184.482 4.50661 185.122 4.83994C185.775 5.15994 186.282 5.65327 186.642 6.31994C187.015 6.98661 187.202 7.82661 187.202 8.83994V14.9399H185.782V8.97994C185.782 7.87327 185.502 7.03994 184.942 6.47994C184.395 5.90661 183.622 5.61994 182.622 5.61994C181.875 5.61994 181.222 5.77327 180.662 6.07994C180.115 6.37327 179.689 6.80661 179.382 7.37994C179.089 7.93994 178.942 8.61994 178.942 9.41994V14.9399H177.522V0.0999405H178.942V7.31994L178.662 6.77994C178.995 6.01994 179.529 5.42661 180.262 4.99994C180.995 4.55994 181.869 4.33994 182.882 4.33994ZM197.618 14.9399V12.6199L197.558 12.2399V8.35994C197.558 7.46661 197.304 6.77994 196.798 6.29994C196.304 5.81994 195.564 5.57994 194.578 5.57994C193.898 5.57994 193.251 5.69327 192.638 5.91994C192.024 6.14661 191.504 6.44661 191.078 6.81994L190.438 5.75994C190.971 5.30661 191.611 4.95994 192.358 4.71994C193.104 4.46661 193.891 4.33994 194.718 4.33994C196.078 4.33994 197.124 4.67994 197.858 5.35994C198.604 6.02661 198.978 7.04661 198.978 8.41994V14.9399H197.618ZM193.998 15.0399C193.211 15.0399 192.524 14.9133 191.938 14.6599C191.364 14.3933 190.924 14.0333 190.618 13.5799C190.311 13.1133 190.158 12.5799 190.158 11.9799C190.158 11.4333 190.284 10.9399 190.538 10.4999C190.804 10.0466 191.231 9.68661 191.818 9.41994C192.418 9.13994 193.218 8.99994 194.218 8.99994H197.838V10.0599H194.258C193.244 10.0599 192.538 10.2399 192.138 10.5999C191.751 10.9599 191.558 11.4066 191.558 11.9399C191.558 12.5399 191.791 13.0199 192.258 13.3799C192.724 13.7399 193.378 13.9199 194.218 13.9199C195.018 13.9199 195.704 13.7399 196.278 13.3799C196.864 13.0066 197.291 12.4733 197.558 11.7799L197.878 12.7599C197.611 13.4533 197.144 14.0066 196.478 14.4199C195.824 14.8333 194.998 15.0399 193.998 15.0399ZM206.155 15.0399C205.168 15.0399 204.408 14.7733 203.875 14.2399C203.341 13.7066 203.075 12.9533 203.075 11.9799V2.11994H204.495V11.8999C204.495 12.5133 204.648 12.9866 204.955 13.3199C205.275 13.6533 205.728 13.8199 206.315 13.8199C206.941 13.8199 207.461 13.6399 207.875 13.2799L208.375 14.2999C208.095 14.5533 207.755 14.7399 207.355 14.8599C206.968 14.9799 206.568 15.0399 206.155 15.0399ZM201.195 5.61994V4.43994H207.695V5.61994H201.195ZM216.434 14.9399V3.11994C216.434 2.18661 216.707 1.43327 217.254 0.85994C217.801 0.286607 218.587 -5.93662e-05 219.614 -5.93662e-05C220.014 -5.93662e-05 220.401 0.0532741 220.774 0.159941C221.147 0.266608 221.461 0.433274 221.714 0.65994L221.234 1.71994C221.034 1.54661 220.801 1.41994 220.534 1.33994C220.267 1.24661 219.981 1.19994 219.674 1.19994C219.074 1.19994 218.614 1.36661 218.294 1.69994C217.974 2.03327 217.814 2.52661 217.814 3.17994V4.77994L217.854 5.43994V14.9399H216.434ZM214.554 5.61994V4.43994H221.054V5.61994H214.554ZM222.974 14.9399V4.43994H224.394V14.9399H222.974ZM223.694 2.11994C223.401 2.11994 223.154 2.01994 222.954 1.81994C222.754 1.61994 222.654 1.37994 222.654 1.09994C222.654 0.81994 222.754 0.586607 222.954 0.39994C223.154 0.19994 223.401 0.0999405 223.694 0.0999405C223.987 0.0999405 224.234 0.193274 224.434 0.379941C224.634 0.566607 224.734 0.799941 224.734 1.07994C224.734 1.37327 224.634 1.61994 224.434 1.81994C224.247 2.01994 224.001 2.11994 223.694 2.11994ZM231.701 15.0399C230.715 15.0399 229.955 14.7733 229.421 14.2399C228.888 13.7066 228.621 12.9533 228.621 11.9799V2.11994H230.041V11.8999C230.041 12.5133 230.195 12.9866 230.501 13.3199C230.821 13.6533 231.275 13.8199 231.861 13.8199C232.488 13.8199 233.008 13.6399 233.421 13.2799L233.921 14.2999C233.641 14.5533 233.301 14.7399 232.901 14.8599C232.515 14.9799 232.115 15.0399 231.701 15.0399ZM226.741 5.61994V4.43994H233.241V5.61994H226.741ZM239.326 15.0399C238.46 15.0399 237.64 14.9199 236.866 14.6799C236.093 14.4266 235.486 14.1133 235.046 13.7399L235.686 12.6199C236.113 12.9399 236.66 13.2199 237.326 13.4599C237.993 13.6866 238.693 13.7999 239.426 13.7999C240.426 13.7999 241.146 13.6466 241.586 13.3399C242.026 13.0199 242.246 12.5999 242.246 12.0799C242.246 11.6933 242.12 11.3933 241.866 11.1799C241.626 10.9533 241.306 10.7866 240.906 10.6799C240.506 10.5599 240.06 10.4599 239.566 10.3799C239.073 10.2999 238.58 10.2066 238.086 10.0999C237.606 9.99327 237.166 9.83994 236.766 9.63994C236.366 9.42661 236.04 9.13994 235.786 8.77994C235.546 8.41994 235.426 7.93994 235.426 7.33994C235.426 6.76661 235.586 6.25327 235.906 5.79994C236.226 5.34661 236.693 4.99327 237.306 4.73994C237.933 4.47327 238.693 4.33994 239.586 4.33994C240.266 4.33994 240.946 4.43327 241.626 4.61994C242.306 4.79327 242.866 5.02661 243.306 5.31994L242.686 6.45994C242.22 6.13994 241.72 5.91327 241.186 5.77994C240.653 5.63327 240.12 5.55994 239.586 5.55994C238.64 5.55994 237.94 5.72661 237.486 6.05994C237.046 6.37994 236.826 6.79327 236.826 7.29994C236.826 7.69994 236.946 8.01327 237.186 8.23994C237.44 8.46661 237.766 8.64661 238.166 8.77994C238.58 8.89994 239.026 8.99994 239.506 9.07994C240 9.15994 240.486 9.25994 240.966 9.37994C241.46 9.48661 241.906 9.63994 242.306 9.83994C242.72 10.0266 243.046 10.2999 243.286 10.6599C243.54 11.0066 243.666 11.4666 243.666 12.0399C243.666 12.6533 243.493 13.1866 243.146 13.6399C242.813 14.0799 242.32 14.4266 241.666 14.6799C241.026 14.9199 240.246 15.0399 239.326 15.0399ZM251.586 18.9199C251.093 18.9199 250.62 18.8399 250.166 18.6799C249.726 18.5199 249.346 18.2799 249.026 17.9599L249.686 16.8999C249.953 17.1533 250.24 17.3466 250.546 17.4799C250.866 17.6266 251.22 17.6999 251.606 17.6999C252.073 17.6999 252.473 17.5666 252.806 17.2999C253.153 17.0466 253.48 16.5933 253.786 15.9399L254.466 14.3999L254.626 14.1799L258.946 4.43994H260.346L255.086 16.1999C254.793 16.8799 254.466 17.4199 254.106 17.8199C253.76 18.2199 253.38 18.4999 252.966 18.6599C252.553 18.8333 252.093 18.9199 251.586 18.9199ZM254.386 15.2399L249.546 4.43994H251.026L255.306 14.0799L254.386 15.2399ZM266.333 15.0399C265.32 15.0399 264.407 14.8133 263.593 14.3599C262.793 13.8933 262.16 13.2599 261.693 12.4599C261.227 11.6466 260.993 10.7199 260.993 9.67994C260.993 8.62661 261.227 7.69994 261.693 6.89994C262.16 6.09994 262.793 5.47327 263.593 5.01994C264.393 4.56661 265.307 4.33994 266.333 4.33994C267.373 4.33994 268.293 4.56661 269.093 5.01994C269.907 5.47327 270.54 6.09994 270.993 6.89994C271.46 7.69994 271.693 8.62661 271.693 9.67994C271.693 10.7199 271.46 11.6466 270.993 12.4599C270.54 13.2599 269.907 13.8933 269.093 14.3599C268.28 14.8133 267.36 15.0399 266.333 15.0399ZM266.333 13.7799C267.093 13.7799 267.767 13.6133 268.353 13.2799C268.94 12.9333 269.4 12.4533 269.733 11.8399C270.08 11.2133 270.253 10.4933 270.253 9.67994C270.253 8.85327 270.08 8.13327 269.733 7.51994C269.4 6.90661 268.94 6.43327 268.353 6.09994C267.767 5.75327 267.1 5.57994 266.353 5.57994C265.607 5.57994 264.94 5.75327 264.353 6.09994C263.767 6.43327 263.3 6.90661 262.953 7.51994C262.607 8.13327 262.433 8.85327 262.433 9.67994C262.433 10.4933 262.607 11.2133 262.953 11.8399C263.3 12.4533 263.767 12.9333 264.353 13.2799C264.94 13.6133 265.6 13.7799 266.333 13.7799ZM278.932 15.0399C278.039 15.0399 277.259 14.8733 276.592 14.5399C275.926 14.2066 275.406 13.7066 275.032 13.0399C274.672 12.3733 274.492 11.5399 274.492 10.5399V4.43994H275.912V10.3799C275.912 11.4999 276.186 12.3466 276.732 12.9199C277.292 13.4799 278.072 13.7599 279.072 13.7599C279.806 13.7599 280.439 13.6133 280.972 13.3199C281.519 13.0133 281.932 12.5733 282.212 11.9999C282.506 11.4266 282.652 10.7399 282.652 9.93994V4.43994H284.072V14.9399H282.712V12.0599L282.932 12.5799C282.599 13.3533 282.079 13.9599 281.372 14.3999C280.679 14.8266 279.866 15.0399 278.932 15.0399ZM288.03 14.9399V4.43994H289.39V7.29994L289.25 6.79994C289.543 5.99994 290.037 5.39327 290.73 4.97994C291.423 4.55327 292.283 4.33994 293.31 4.33994V5.71994C293.257 5.71994 293.203 5.71994 293.15 5.71994C293.097 5.70661 293.043 5.69994 292.99 5.69994C291.883 5.69994 291.017 6.03994 290.39 6.71994C289.763 7.38661 289.45 8.33994 289.45 9.57994V14.9399H288.03ZM306.712 15.0399C305.792 15.0399 304.965 14.8333 304.232 14.4199C303.498 13.9933 302.918 13.3799 302.492 12.5799C302.065 11.7799 301.852 10.8133 301.852 9.67994C301.852 8.53327 302.065 7.56661 302.492 6.77994C302.932 5.97994 303.518 5.37327 304.252 4.95994C304.985 4.54661 305.805 4.33994 306.712 4.33994C307.712 4.33994 308.605 4.56661 309.392 5.01994C310.192 5.45994 310.818 6.07994 311.272 6.87994C311.725 7.67994 311.952 8.61327 311.952 9.67994C311.952 10.7333 311.725 11.6666 311.272 12.4799C310.818 13.2799 310.192 13.9066 309.392 14.3599C308.605 14.8133 307.712 15.0399 306.712 15.0399ZM301.292 14.9399V0.0999405H302.712V7.53994L302.512 9.65994L302.652 11.7799V14.9399H301.292ZM306.612 13.7799C307.358 13.7799 308.025 13.6133 308.612 13.2799C309.198 12.9333 309.665 12.4533 310.012 11.8399C310.358 11.2133 310.532 10.4933 310.532 9.67994C310.532 8.85327 310.358 8.13327 310.012 7.51994C309.665 6.90661 309.198 6.43327 308.612 6.09994C308.025 5.75327 307.358 5.57994 306.612 5.57994C305.865 5.57994 305.192 5.75327 304.592 6.09994C304.005 6.43327 303.538 6.90661 303.192 7.51994C302.858 8.13327 302.692 8.85327 302.692 9.67994C302.692 10.4933 302.858 11.2133 303.192 11.8399C303.538 12.4533 304.005 12.9333 304.592 13.2799C305.192 13.6133 305.865 13.7799 306.612 13.7799ZM319.186 15.0399C318.293 15.0399 317.513 14.8733 316.846 14.5399C316.18 14.2066 315.66 13.7066 315.286 13.0399C314.926 12.3733 314.746 11.5399 314.746 10.5399V4.43994H316.166V10.3799C316.166 11.4999 316.44 12.3466 316.986 12.9199C317.546 13.4799 318.326 13.7599 319.326 13.7599C320.06 13.7599 320.693 13.6133 321.226 13.3199C321.773 13.0133 322.186 12.5733 322.466 11.9999C322.76 11.4266 322.906 10.7399 322.906 9.93994V4.43994H324.326V14.9399H322.966V12.0599L323.186 12.5799C322.853 13.3533 322.333 13.9599 321.626 14.3999C320.933 14.8266 320.12 15.0399 319.186 15.0399ZM331.104 15.0399C330.237 15.0399 329.417 14.9199 328.644 14.6799C327.87 14.4266 327.264 14.1133 326.824 13.7399L327.464 12.6199C327.89 12.9399 328.437 13.2199 329.104 13.4599C329.77 13.6866 330.47 13.7999 331.204 13.7999C332.204 13.7999 332.924 13.6466 333.364 13.3399C333.804 13.0199 334.024 12.5999 334.024 12.0799C334.024 11.6933 333.897 11.3933 333.644 11.1799C333.404 10.9533 333.084 10.7866 332.684 10.6799C332.284 10.5599 331.837 10.4599 331.344 10.3799C330.85 10.2999 330.357 10.2066 329.864 10.0999C329.384 9.99327 328.944 9.83994 328.544 9.63994C328.144 9.42661 327.817 9.13994 327.564 8.77994C327.324 8.41994 327.204 7.93994 327.204 7.33994C327.204 6.76661 327.364 6.25327 327.684 5.79994C328.004 5.34661 328.47 4.99327 329.084 4.73994C329.71 4.47327 330.47 4.33994 331.364 4.33994C332.044 4.33994 332.724 4.43327 333.404 4.61994C334.084 4.79327 334.644 5.02661 335.084 5.31994L334.464 6.45994C333.997 6.13994 333.497 5.91327 332.964 5.77994C332.43 5.63327 331.897 5.55994 331.364 5.55994C330.417 5.55994 329.717 5.72661 329.264 6.05994C328.824 6.37994 328.604 6.79327 328.604 7.29994C328.604 7.69994 328.724 8.01327 328.964 8.23994C329.217 8.46661 329.544 8.64661 329.944 8.77994C330.357 8.89994 330.804 8.99994 331.284 9.07994C331.777 9.15994 332.264 9.25994 332.744 9.37994C333.237 9.48661 333.684 9.63994 334.084 9.83994C334.497 10.0266 334.824 10.2999 335.064 10.6599C335.317 11.0066 335.444 11.4666 335.444 12.0399C335.444 12.6533 335.27 13.1866 334.924 13.6399C334.59 14.0799 334.097 14.4266 333.444 14.6799C332.804 14.9199 332.024 15.0399 331.104 15.0399ZM338.049 14.9399V4.43994H339.469V14.9399H338.049ZM338.769 2.11994C338.476 2.11994 338.229 2.01994 338.029 1.81994C337.829 1.61994 337.729 1.37994 337.729 1.09994C337.729 0.81994 337.829 0.586607 338.029 0.39994C338.229 0.19994 338.476 0.0999405 338.769 0.0999405C339.063 0.0999405 339.309 0.193274 339.509 0.379941C339.709 0.566607 339.809 0.799941 339.809 1.07994C339.809 1.37327 339.709 1.61994 339.509 1.81994C339.323 2.01994 339.076 2.11994 338.769 2.11994ZM348.78 4.33994C349.634 4.33994 350.38 4.50661 351.02 4.83994C351.674 5.15994 352.18 5.65327 352.54 6.31994C352.914 6.98661 353.1 7.82661 353.1 8.83994V14.9399H351.68V8.97994C351.68 7.87327 351.4 7.03994 350.84 6.47994C350.294 5.90661 349.52 5.61994 348.52 5.61994C347.774 5.61994 347.12 5.77327 346.56 6.07994C346.014 6.37327 345.587 6.80661 345.28 7.37994C344.987 7.93994 344.84 8.61994 344.84 9.41994V14.9399H343.42V4.43994H344.78V7.31994L344.56 6.77994C344.894 6.01994 345.427 5.42661 346.16 4.99994C346.894 4.55994 347.767 4.33994 348.78 4.33994ZM361.396 15.0399C360.303 15.0399 359.343 14.8133 358.516 14.3599C357.689 13.8933 357.043 13.2599 356.576 12.4599C356.109 11.6466 355.876 10.7199 355.876 9.67994C355.876 8.63994 356.096 7.71994 356.536 6.91994C356.989 6.11994 357.603 5.49327 358.376 5.03994C359.163 4.57327 360.043 4.33994 361.016 4.33994C362.003 4.33994 362.876 4.56661 363.636 5.01994C364.409 5.45994 365.016 6.08661 365.456 6.89994C365.896 7.69994 366.116 8.62661 366.116 9.67994C366.116 9.74661 366.109 9.81994 366.096 9.89994C366.096 9.96661 366.096 10.0399 366.096 10.1199H356.956V9.05994H365.336L364.776 9.47994C364.776 8.71994 364.609 8.04661 364.276 7.45994C363.956 6.85994 363.516 6.39327 362.956 6.05994C362.396 5.72661 361.749 5.55994 361.016 5.55994C360.296 5.55994 359.649 5.72661 359.076 6.05994C358.503 6.39327 358.056 6.85994 357.736 7.45994C357.416 8.05994 357.256 8.74661 357.256 9.51994V9.73994C357.256 10.5399 357.429 11.2466 357.776 11.8599C358.136 12.4599 358.629 12.9333 359.256 13.2799C359.896 13.6133 360.623 13.7799 361.436 13.7799C362.076 13.7799 362.669 13.6666 363.216 13.4399C363.776 13.2133 364.256 12.8666 364.656 12.3999L365.456 13.3199C364.989 13.8799 364.403 14.3066 363.696 14.5999C363.003 14.8933 362.236 15.0399 361.396 15.0399ZM371.826 15.0399C370.96 15.0399 370.14 14.9199 369.366 14.6799C368.593 14.4266 367.986 14.1133 367.546 13.7399L368.186 12.6199C368.613 12.9399 369.16 13.2199 369.826 13.4599C370.493 13.6866 371.193 13.7999 371.926 13.7999C372.926 13.7999 373.646 13.6466 374.086 13.3399C374.526 13.0199 374.746 12.5999 374.746 12.0799C374.746 11.6933 374.62 11.3933 374.366 11.1799C374.126 10.9533 373.806 10.7866 373.406 10.6799C373.006 10.5599 372.56 10.4599 372.066 10.3799C371.573 10.2999 371.08 10.2066 370.586 10.0999C370.106 9.99327 369.666 9.83994 369.266 9.63994C368.866 9.42661 368.54 9.13994 368.286 8.77994C368.046 8.41994 367.926 7.93994 367.926 7.33994C367.926 6.76661 368.086 6.25327 368.406 5.79994C368.726 5.34661 369.193 4.99327 369.806 4.73994C370.433 4.47327 371.193 4.33994 372.086 4.33994C372.766 4.33994 373.446 4.43327 374.126 4.61994C374.806 4.79327 375.366 5.02661 375.806 5.31994L375.186 6.45994C374.72 6.13994 374.22 5.91327 373.686 5.77994C373.153 5.63327 372.62 5.55994 372.086 5.55994C371.14 5.55994 370.44 5.72661 369.986 6.05994C369.546 6.37994 369.326 6.79327 369.326 7.29994C369.326 7.69994 369.446 8.01327 369.686 8.23994C369.94 8.46661 370.266 8.64661 370.666 8.77994C371.08 8.89994 371.526 8.99994 372.006 9.07994C372.5 9.15994 372.986 9.25994 373.466 9.37994C373.96 9.48661 374.406 9.63994 374.806 9.83994C375.22 10.0266 375.546 10.2999 375.786 10.6599C376.04 11.0066 376.166 11.4666 376.166 12.0399C376.166 12.6533 375.993 13.1866 375.646 13.6399C375.313 14.0799 374.82 14.4266 374.166 14.6799C373.526 14.9199 372.746 15.0399 371.826 15.0399ZM381.592 15.0399C380.725 15.0399 379.905 14.9199 379.132 14.6799C378.359 14.4266 377.752 14.1133 377.312 13.7399L377.952 12.6199C378.379 12.9399 378.925 13.2199 379.592 13.4599C380.259 13.6866 380.959 13.7999 381.692 13.7999C382.692 13.7999 383.412 13.6466 383.852 13.3399C384.292 13.0199 384.512 12.5999 384.512 12.0799C384.512 11.6933 384.385 11.3933 384.132 11.1799C383.892 10.9533 383.572 10.7866 383.172 10.6799C382.772 10.5599 382.325 10.4599 381.832 10.3799C381.339 10.2999 380.845 10.2066 380.352 10.0999C379.872 9.99327 379.432 9.83994 379.032 9.63994C378.632 9.42661 378.305 9.13994 378.052 8.77994C377.812 8.41994 377.692 7.93994 377.692 7.33994C377.692 6.76661 377.852 6.25327 378.172 5.79994C378.492 5.34661 378.959 4.99327 379.572 4.73994C380.199 4.47327 380.959 4.33994 381.852 4.33994C382.532 4.33994 383.212 4.43327 383.892 4.61994C384.572 4.79327 385.132 5.02661 385.572 5.31994L384.952 6.45994C384.485 6.13994 383.985 5.91327 383.452 5.77994C382.919 5.63327 382.385 5.55994 381.852 5.55994C380.905 5.55994 380.205 5.72661 379.752 6.05994C379.312 6.37994 379.092 6.79327 379.092 7.29994C379.092 7.69994 379.212 8.01327 379.452 8.23994C379.705 8.46661 380.032 8.64661 380.432 8.77994C380.845 8.89994 381.292 8.99994 381.772 9.07994C382.265 9.15994 382.752 9.25994 383.232 9.37994C383.725 9.48661 384.172 9.63994 384.572 9.83994C384.985 10.0266 385.312 10.2999 385.552 10.6599C385.805 11.0066 385.932 11.4666 385.932 12.0399C385.932 12.6533 385.759 13.1866 385.412 13.6399C385.079 14.0799 384.585 14.4266 383.932 14.6799C383.292 14.9199 382.512 15.0399 381.592 15.0399ZM388.678 15.0399C388.384 15.0399 388.131 14.9333 387.918 14.7199C387.718 14.5066 387.618 14.2466 387.618 13.9399C387.618 13.6199 387.718 13.3599 387.918 13.1599C388.131 12.9599 388.384 12.8599 388.678 12.8599C388.971 12.8599 389.218 12.9599 389.418 13.1599C389.631 13.3599 389.738 13.6199 389.738 13.9399C389.738 14.2466 389.631 14.5066 389.418 14.7199C389.218 14.9333 388.971 15.0399 388.678 15.0399ZM403.95 15.0599C402.164 15.0599 400.757 14.5466 399.73 13.5199C398.704 12.4933 398.19 10.9733 398.19 8.95994V0.93994H399.67V8.89994C399.67 10.5533 400.044 11.7733 400.79 12.5599C401.537 13.3466 402.59 13.7399 403.95 13.7399C405.324 13.7399 406.384 13.3466 407.13 12.5599C407.877 11.7733 408.25 10.5533 408.25 8.89994V0.93994H409.69V8.95994C409.69 10.9733 409.177 12.4933 408.15 13.5199C407.137 14.5466 405.737 15.0599 403.95 15.0599ZM419.27 15.0399C418.364 15.0399 417.544 14.8333 416.81 14.4199C416.077 13.9933 415.49 13.3866 415.05 12.5999C414.624 11.7999 414.41 10.8266 414.41 9.67994C414.41 8.53327 414.624 7.56661 415.05 6.77994C415.477 5.97994 416.057 5.37327 416.79 4.95994C417.524 4.54661 418.35 4.33994 419.27 4.33994C420.27 4.33994 421.164 4.56661 421.95 5.01994C422.75 5.45994 423.377 6.08661 423.83 6.89994C424.284 7.69994 424.51 8.62661 424.51 9.67994C424.51 10.7466 424.284 11.6799 423.83 12.4799C423.377 13.2799 422.75 13.9066 421.95 14.3599C421.164 14.8133 420.27 15.0399 419.27 15.0399ZM413.85 18.8199V4.43994H415.21V7.59994L415.07 9.69994L415.27 11.8199V18.8199H413.85ZM419.17 13.7799C419.917 13.7799 420.584 13.6133 421.17 13.2799C421.757 12.9333 422.224 12.4533 422.57 11.8399C422.917 11.2133 423.09 10.4933 423.09 9.67994C423.09 8.86661 422.917 8.15327 422.57 7.53994C422.224 6.92661 421.757 6.44661 421.17 6.09994C420.584 5.75327 419.917 5.57994 419.17 5.57994C418.424 5.57994 417.75 5.75327 417.15 6.09994C416.564 6.44661 416.097 6.92661 415.75 7.53994C415.417 8.15327 415.25 8.86661 415.25 9.67994C415.25 10.4933 415.417 11.2133 415.75 11.8399C416.097 12.4533 416.564 12.9333 417.15 13.2799C417.75 13.6133 418.424 13.7799 419.17 13.7799ZM431.885 18.9199C430.925 18.9199 430.005 18.7799 429.125 18.4999C428.245 18.2199 427.532 17.8199 426.985 17.2999L427.705 16.2199C428.198 16.6599 428.805 17.0066 429.525 17.2599C430.258 17.5266 431.032 17.6599 431.845 17.6599C433.178 17.6599 434.158 17.3466 434.785 16.7199C435.412 16.1066 435.725 15.1466 435.725 13.8399V11.2199L435.925 9.41994L435.785 7.61994V4.43994H437.145V13.6599C437.145 15.4733 436.698 16.7999 435.805 17.6399C434.925 18.4933 433.618 18.9199 431.885 18.9199ZM431.625 14.5399C430.625 14.5399 429.725 14.3266 428.925 13.8999C428.125 13.4599 427.492 12.8533 427.025 12.0799C426.572 11.3066 426.345 10.4199 426.345 9.41994C426.345 8.41994 426.572 7.53994 427.025 6.77994C427.492 6.00661 428.125 5.40661 428.925 4.97994C429.725 4.55327 430.625 4.33994 431.625 4.33994C432.558 4.33994 433.398 4.53327 434.145 4.91994C434.892 5.30661 435.485 5.87994 435.925 6.63994C436.365 7.39994 436.585 8.32661 436.585 9.41994C436.585 10.5133 436.365 11.4399 435.925 12.1999C435.485 12.9599 434.892 13.5399 434.145 13.9399C433.398 14.3399 432.558 14.5399 431.625 14.5399ZM431.765 13.2799C432.538 13.2799 433.225 13.1199 433.825 12.7999C434.425 12.4666 434.898 12.0133 435.245 11.4399C435.592 10.8533 435.765 10.1799 435.765 9.41994C435.765 8.65994 435.592 7.99327 435.245 7.41994C434.898 6.84661 434.425 6.39994 433.825 6.07994C433.225 5.74661 432.538 5.57994 431.765 5.57994C431.005 5.57994 430.318 5.74661 429.705 6.07994C429.105 6.39994 428.632 6.84661 428.285 7.41994C427.952 7.99327 427.785 8.65994 427.785 9.41994C427.785 10.1799 427.952 10.8533 428.285 11.4399C428.632 12.0133 429.105 12.4666 429.705 12.7999C430.318 13.1199 431.005 13.2799 431.765 13.2799ZM441.096 14.9399V4.43994H442.456V7.29994L442.316 6.79994C442.61 5.99994 443.103 5.39327 443.796 4.97994C444.49 4.55327 445.35 4.33994 446.376 4.33994V5.71994C446.323 5.71994 446.27 5.71994 446.216 5.71994C446.163 5.70661 446.11 5.69994 446.056 5.69994C444.95 5.69994 444.083 6.03994 443.456 6.71994C442.83 7.38661 442.516 8.33994 442.516 9.57994V14.9399H441.096ZM454.766 14.9399V12.6199L454.706 12.2399V8.35994C454.706 7.46661 454.453 6.77994 453.946 6.29994C453.453 5.81994 452.713 5.57994 451.726 5.57994C451.046 5.57994 450.399 5.69327 449.786 5.91994C449.173 6.14661 448.653 6.44661 448.226 6.81994L447.586 5.75994C448.119 5.30661 448.759 4.95994 449.506 4.71994C450.253 4.46661 451.039 4.33994 451.866 4.33994C453.226 4.33994 454.273 4.67994 455.006 5.35994C455.753 6.02661 456.126 7.04661 456.126 8.41994V14.9399H454.766ZM451.146 15.0399C450.359 15.0399 449.673 14.9133 449.086 14.6599C448.513 14.3933 448.073 14.0333 447.766 13.5799C447.459 13.1133 447.306 12.5799 447.306 11.9799C447.306 11.4333 447.433 10.9399 447.686 10.4999C447.953 10.0466 448.379 9.68661 448.966 9.41994C449.566 9.13994 450.366 8.99994 451.366 8.99994H454.986V10.0599H451.406C450.393 10.0599 449.686 10.2399 449.286 10.5999C448.899 10.9599 448.706 11.4066 448.706 11.9399C448.706 12.5399 448.939 13.0199 449.406 13.3799C449.873 13.7399 450.526 13.9199 451.366 13.9199C452.166 13.9199 452.853 13.7399 453.426 13.3799C454.013 13.0066 454.439 12.4733 454.706 11.7799L455.026 12.7599C454.759 13.4533 454.293 14.0066 453.626 14.4199C452.973 14.8333 452.146 15.0399 451.146 15.0399ZM464.163 15.0399C463.163 15.0399 462.263 14.8133 461.463 14.3599C460.676 13.9066 460.056 13.2799 459.603 12.4799C459.15 11.6666 458.923 10.7333 458.923 9.67994C458.923 8.61327 459.15 7.67994 459.603 6.87994C460.056 6.07994 460.676 5.45994 461.463 5.01994C462.263 4.56661 463.163 4.33994 464.163 4.33994C465.083 4.33994 465.903 4.54661 466.623 4.95994C467.356 5.37327 467.936 5.97994 468.363 6.77994C468.803 7.56661 469.023 8.53327 469.023 9.67994C469.023 10.8133 468.81 11.7799 468.383 12.5799C467.956 13.3799 467.376 13.9933 466.643 14.4199C465.923 14.8333 465.096 15.0399 464.163 15.0399ZM464.263 13.7799C465.01 13.7799 465.676 13.6133 466.263 13.2799C466.863 12.9333 467.33 12.4533 467.663 11.8399C468.01 11.2133 468.183 10.4933 468.183 9.67994C468.183 8.85327 468.01 8.13327 467.663 7.51994C467.33 6.90661 466.863 6.43327 466.263 6.09994C465.676 5.75327 465.01 5.57994 464.263 5.57994C463.53 5.57994 462.87 5.75327 462.283 6.09994C461.696 6.43327 461.23 6.90661 460.883 7.51994C460.536 8.13327 460.363 8.85327 460.363 9.67994C460.363 10.4933 460.536 11.2133 460.883 11.8399C461.23 12.4533 461.696 12.9333 462.283 13.2799C462.87 13.6133 463.53 13.7799 464.263 13.7799ZM468.223 14.9399V11.7799L468.363 9.65994L468.163 7.53994V0.0999405H469.583V14.9399H468.223ZM477.998 15.0399C476.904 15.0399 475.944 14.8133 475.118 14.3599C474.291 13.8933 473.644 13.2599 473.178 12.4599C472.711 11.6466 472.478 10.7199 472.478 9.67994C472.478 8.63994 472.698 7.71994 473.138 6.91994C473.591 6.11994 474.204 5.49327 474.978 5.03994C475.764 4.57327 476.644 4.33994 477.618 4.33994C478.604 4.33994 479.478 4.56661 480.238 5.01994C481.011 5.45994 481.618 6.08661 482.058 6.89994C482.498 7.69994 482.718 8.62661 482.718 9.67994C482.718 9.74661 482.711 9.81994 482.698 9.89994C482.698 9.96661 482.698 10.0399 482.698 10.1199H473.558V9.05994H481.938L481.378 9.47994C481.378 8.71994 481.211 8.04661 480.878 7.45994C480.558 6.85994 480.118 6.39327 479.558 6.05994C478.998 5.72661 478.351 5.55994 477.618 5.55994C476.898 5.55994 476.251 5.72661 475.678 6.05994C475.104 6.39327 474.658 6.85994 474.338 7.45994C474.018 8.05994 473.858 8.74661 473.858 9.51994V9.73994C473.858 10.5399 474.031 11.2466 474.378 11.8599C474.738 12.4599 475.231 12.9333 475.858 13.2799C476.498 13.6133 477.224 13.7799 478.038 13.7799C478.678 13.7799 479.271 13.6666 479.818 13.4399C480.378 13.2133 480.858 12.8666 481.258 12.3999L482.058 13.3199C481.591 13.8799 481.004 14.3066 480.298 14.5999C479.604 14.8933 478.838 15.0399 477.998 15.0399ZM497.422 14.9399V12.6199L497.362 12.2399V8.35994C497.362 7.46661 497.109 6.77994 496.602 6.29994C496.109 5.81994 495.369 5.57994 494.382 5.57994C493.702 5.57994 493.056 5.69327 492.442 5.91994C491.829 6.14661 491.309 6.44661 490.882 6.81994L490.242 5.75994C490.776 5.30661 491.416 4.95994 492.162 4.71994C492.909 4.46661 493.696 4.33994 494.522 4.33994C495.882 4.33994 496.929 4.67994 497.662 5.35994C498.409 6.02661 498.782 7.04661 498.782 8.41994V14.9399H497.422ZM493.802 15.0399C493.016 15.0399 492.329 14.9133 491.742 14.6599C491.169 14.3933 490.729 14.0333 490.422 13.5799C490.116 13.1133 489.962 12.5799 489.962 11.9799C489.962 11.4333 490.089 10.9399 490.342 10.4999C490.609 10.0466 491.036 9.68661 491.622 9.41994C492.222 9.13994 493.022 8.99994 494.022 8.99994H497.642V10.0599H494.062C493.049 10.0599 492.342 10.2399 491.942 10.5999C491.556 10.9599 491.362 11.4066 491.362 11.9399C491.362 12.5399 491.596 13.0199 492.062 13.3799C492.529 13.7399 493.182 13.9199 494.022 13.9199C494.822 13.9199 495.509 13.7399 496.082 13.3799C496.669 13.0066 497.096 12.4733 497.362 11.7799L497.682 12.7599C497.416 13.4533 496.949 14.0066 496.282 14.4199C495.629 14.8333 494.802 15.0399 493.802 15.0399ZM507.999 4.33994C508.853 4.33994 509.599 4.50661 510.239 4.83994C510.893 5.15994 511.399 5.65327 511.759 6.31994C512.133 6.98661 512.319 7.82661 512.319 8.83994V14.9399H510.899V8.97994C510.899 7.87327 510.619 7.03994 510.059 6.47994C509.513 5.90661 508.739 5.61994 507.739 5.61994C506.993 5.61994 506.339 5.77327 505.779 6.07994C505.233 6.37327 504.806 6.80661 504.499 7.37994C504.206 7.93994 504.059 8.61994 504.059 9.41994V14.9399H502.639V4.43994H503.999V7.31994L503.779 6.77994C504.113 6.01994 504.646 5.42661 505.379 4.99994C506.113 4.55994 506.986 4.33994 507.999 4.33994ZM516.04 18.9199C515.546 18.9199 515.073 18.8399 514.62 18.6799C514.18 18.5199 513.8 18.2799 513.48 17.9599L514.14 16.8999C514.406 17.1533 514.693 17.3466 515 17.4799C515.32 17.6266 515.673 17.6999 516.06 17.6999C516.526 17.6999 516.926 17.5666 517.26 17.2999C517.606 17.0466 517.933 16.5933 518.24 15.9399L518.92 14.3999L519.08 14.1799L523.4 4.43994H524.8L519.54 16.1999C519.246 16.8799 518.92 17.4199 518.56 17.8199C518.213 18.2199 517.833 18.4999 517.42 18.6599C517.006 18.8333 516.546 18.9199 516.04 18.9199ZM518.84 15.2399L514 4.43994H515.48L519.76 14.0799L518.84 15.2399ZM530.412 15.0399C529.426 15.0399 528.666 14.7733 528.132 14.2399C527.599 13.7066 527.332 12.9533 527.332 11.9799V2.11994H528.752V11.8999C528.752 12.5133 528.906 12.9866 529.212 13.3199C529.532 13.6533 529.986 13.8199 530.572 13.8199C531.199 13.8199 531.719 13.6399 532.132 13.2799L532.632 14.2999C532.352 14.5533 532.012 14.7399 531.612 14.8599C531.226 14.9799 530.826 15.0399 530.412 15.0399ZM525.452 5.61994V4.43994H531.952V5.61994H525.452ZM535.217 14.9399V4.43994H536.637V14.9399H535.217ZM535.937 2.11994C535.644 2.11994 535.397 2.01994 535.197 1.81994C534.997 1.61994 534.897 1.37994 534.897 1.09994C534.897 0.81994 534.997 0.586607 535.197 0.39994C535.397 0.19994 535.644 0.0999405 535.937 0.0999405C536.231 0.0999405 536.477 0.193274 536.677 0.379941C536.877 0.566607 536.977 0.799941 536.977 1.07994C536.977 1.37327 536.877 1.61994 536.677 1.81994C536.491 2.01994 536.244 2.11994 535.937 2.11994ZM553.708 4.33994C554.562 4.33994 555.302 4.50661 555.928 4.83994C556.568 5.15994 557.062 5.65327 557.408 6.31994C557.768 6.98661 557.948 7.82661 557.948 8.83994V14.9399H556.528V8.97994C556.528 7.87327 556.262 7.03994 555.728 6.47994C555.208 5.90661 554.468 5.61994 553.508 5.61994C552.788 5.61994 552.162 5.77327 551.628 6.07994C551.108 6.37327 550.702 6.80661 550.408 7.37994C550.128 7.93994 549.988 8.61994 549.988 9.41994V14.9399H548.568V8.97994C548.568 7.87327 548.302 7.03994 547.768 6.47994C547.235 5.90661 546.488 5.61994 545.528 5.61994C544.822 5.61994 544.202 5.77327 543.668 6.07994C543.135 6.37327 542.722 6.80661 542.428 7.37994C542.148 7.93994 542.008 8.61994 542.008 9.41994V14.9399H540.588V4.43994H541.948V7.27994L541.728 6.77994C542.048 6.01994 542.562 5.42661 543.268 4.99994C543.988 4.55994 544.835 4.33994 545.808 4.33994C546.835 4.33994 547.708 4.59994 548.428 5.11994C549.148 5.62661 549.615 6.39327 549.828 7.41994L549.268 7.19994C549.575 6.34661 550.115 5.65994 550.888 5.13994C551.675 4.60661 552.615 4.33994 553.708 4.33994ZM566.259 15.0399C565.166 15.0399 564.206 14.8133 563.379 14.3599C562.553 13.8933 561.906 13.2599 561.439 12.4599C560.973 11.6466 560.739 10.7199 560.739 9.67994C560.739 8.63994 560.959 7.71994 561.399 6.91994C561.853 6.11994 562.466 5.49327 563.239 5.03994C564.026 4.57327 564.906 4.33994 565.879 4.33994C566.866 4.33994 567.739 4.56661 568.499 5.01994C569.273 5.45994 569.879 6.08661 570.319 6.89994C570.759 7.69994 570.979 8.62661 570.979 9.67994C570.979 9.74661 570.973 9.81994 570.959 9.89994C570.959 9.96661 570.959 10.0399 570.959 10.1199H561.819V9.05994H570.199L569.639 9.47994C569.639 8.71994 569.473 8.04661 569.139 7.45994C568.819 6.85994 568.379 6.39327 567.819 6.05994C567.259 5.72661 566.613 5.55994 565.879 5.55994C565.159 5.55994 564.513 5.72661 563.939 6.05994C563.366 6.39327 562.919 6.85994 562.599 7.45994C562.279 8.05994 562.119 8.74661 562.119 9.51994V9.73994C562.119 10.5399 562.293 11.2466 562.639 11.8599C562.999 12.4599 563.493 12.9333 564.119 13.2799C564.759 13.6133 565.486 13.7799 566.299 13.7799C566.939 13.7799 567.533 13.6666 568.079 13.4399C568.639 13.2133 569.119 12.8666 569.519 12.3999L570.319 13.3199C569.853 13.8799 569.266 14.3066 568.559 14.5999C567.866 14.8933 567.099 15.0399 566.259 15.0399ZM585.684 14.9399V12.6199L585.624 12.2399V8.35994C585.624 7.46661 585.371 6.77994 584.864 6.29994C584.371 5.81994 583.631 5.57994 582.644 5.57994C581.964 5.57994 581.317 5.69327 580.704 5.91994C580.091 6.14661 579.571 6.44661 579.144 6.81994L578.504 5.75994C579.037 5.30661 579.677 4.95994 580.424 4.71994C581.171 4.46661 581.957 4.33994 582.784 4.33994C584.144 4.33994 585.191 4.67994 585.924 5.35994C586.671 6.02661 587.044 7.04661 587.044 8.41994V14.9399H585.684ZM582.064 15.0399C581.277 15.0399 580.591 14.9133 580.004 14.6599C579.431 14.3933 578.991 14.0333 578.684 13.5799C578.377 13.1133 578.224 12.5799 578.224 11.9799C578.224 11.4333 578.351 10.9399 578.604 10.4999C578.871 10.0466 579.297 9.68661 579.884 9.41994C580.484 9.13994 581.284 8.99994 582.284 8.99994H585.904V10.0599H582.324C581.311 10.0599 580.604 10.2399 580.204 10.5999C579.817 10.9599 579.624 11.4066 579.624 11.9399C579.624 12.5399 579.857 13.0199 580.324 13.3799C580.791 13.7399 581.444 13.9199 582.284 13.9199C583.084 13.9199 583.771 13.7399 584.344 13.3799C584.931 13.0066 585.357 12.4733 585.624 11.7799L585.944 12.7599C585.677 13.4533 585.211 14.0066 584.544 14.4199C583.891 14.8333 583.064 15.0399 582.064 15.0399ZM593.721 15.0399C592.854 15.0399 592.034 14.9199 591.261 14.6799C590.488 14.4266 589.881 14.1133 589.441 13.7399L590.081 12.6199C590.508 12.9399 591.054 13.2199 591.721 13.4599C592.388 13.6866 593.088 13.7999 593.821 13.7999C594.821 13.7999 595.541 13.6466 595.981 13.3399C596.421 13.0199 596.641 12.5999 596.641 12.0799C596.641 11.6933 596.514 11.3933 596.261 11.1799C596.021 10.9533 595.701 10.7866 595.301 10.6799C594.901 10.5599 594.454 10.4599 593.961 10.3799C593.468 10.2999 592.974 10.2066 592.481 10.0999C592.001 9.99327 591.561 9.83994 591.161 9.63994C590.761 9.42661 590.434 9.13994 590.181 8.77994C589.941 8.41994 589.821 7.93994 589.821 7.33994C589.821 6.76661 589.981 6.25327 590.301 5.79994C590.621 5.34661 591.088 4.99327 591.701 4.73994C592.328 4.47327 593.088 4.33994 593.981 4.33994C594.661 4.33994 595.341 4.43327 596.021 4.61994C596.701 4.79327 597.261 5.02661 597.701 5.31994L597.081 6.45994C596.614 6.13994 596.114 5.91327 595.581 5.77994C595.048 5.63327 594.514 5.55994 593.981 5.55994C593.034 5.55994 592.334 5.72661 591.881 6.05994C591.441 6.37994 591.221 6.79327 591.221 7.29994C591.221 7.69994 591.341 8.01327 591.581 8.23994C591.834 8.46661 592.161 8.64661 592.561 8.77994C592.974 8.89994 593.421 8.99994 593.901 9.07994C594.394 9.15994 594.881 9.25994 595.361 9.37994C595.854 9.48661 596.301 9.63994 596.701 9.83994C597.114 10.0266 597.441 10.2999 597.681 10.6599C597.934 11.0066 598.061 11.4666 598.061 12.0399C598.061 12.6533 597.888 13.1866 597.541 13.6399C597.208 14.0799 596.714 14.4266 596.061 14.6799C595.421 14.9199 594.641 15.0399 593.721 15.0399ZM605.981 18.9199C605.488 18.9199 605.014 18.8399 604.561 18.6799C604.121 18.5199 603.741 18.2799 603.421 17.9599L604.081 16.8999C604.348 17.1533 604.634 17.3466 604.941 17.4799C605.261 17.6266 605.614 17.6999 606.001 17.6999C606.468 17.6999 606.868 17.5666 607.201 17.2999C607.548 17.0466 607.874 16.5933 608.181 15.9399L608.861 14.3999L609.021 14.1799L613.341 4.43994H614.741L609.481 16.1999C609.188 16.8799 608.861 17.4199 608.501 17.8199C608.154 18.2199 607.774 18.4999 607.361 18.6599C606.948 18.8333 606.488 18.9199 605.981 18.9199ZM608.781 15.2399L603.941 4.43994H605.421L609.701 14.0799L608.781 15.2399ZM620.728 15.0399C619.715 15.0399 618.801 14.8133 617.988 14.3599C617.188 13.8933 616.555 13.2599 616.088 12.4599C615.621 11.6466 615.388 10.7199 615.388 9.67994C615.388 8.62661 615.621 7.69994 616.088 6.89994C616.555 6.09994 617.188 5.47327 617.988 5.01994C618.788 4.56661 619.701 4.33994 620.728 4.33994C621.768 4.33994 622.688 4.56661 623.488 5.01994C624.301 5.47327 624.935 6.09994 625.388 6.89994C625.855 7.69994 626.088 8.62661 626.088 9.67994C626.088 10.7199 625.855 11.6466 625.388 12.4599C624.935 13.2599 624.301 13.8933 623.488 14.3599C622.675 14.8133 621.755 15.0399 620.728 15.0399ZM620.728 13.7799C621.488 13.7799 622.161 13.6133 622.748 13.2799C623.335 12.9333 623.795 12.4533 624.128 11.8399C624.475 11.2133 624.648 10.4933 624.648 9.67994C624.648 8.85327 624.475 8.13327 624.128 7.51994C623.795 6.90661 623.335 6.43327 622.748 6.09994C622.161 5.75327 621.495 5.57994 620.748 5.57994C620.001 5.57994 619.335 5.75327 618.748 6.09994C618.161 6.43327 617.695 6.90661 617.348 7.51994C617.001 8.13327 616.828 8.85327 616.828 9.67994C616.828 10.4933 617.001 11.2133 617.348 11.8399C617.695 12.4533 618.161 12.9333 618.748 13.2799C619.335 13.6133 619.995 13.7799 620.728 13.7799ZM633.327 15.0399C632.434 15.0399 631.654 14.8733 630.987 14.5399C630.32 14.2066 629.8 13.7066 629.427 13.0399C629.067 12.3733 628.887 11.5399 628.887 10.5399V4.43994H630.307V10.3799C630.307 11.4999 630.58 12.3466 631.127 12.9199C631.687 13.4799 632.467 13.7599 633.467 13.7599C634.2 13.7599 634.834 13.6133 635.367 13.3199C635.914 13.0133 636.327 12.5733 636.607 11.9999C636.9 11.4266 637.047 10.7399 637.047 9.93994V4.43994H638.467V14.9399H637.107V12.0599L637.327 12.5799C636.994 13.3533 636.474 13.9599 635.767 14.3999C635.074 14.8266 634.26 15.0399 633.327 15.0399ZM652.139 18.9199C651.179 18.9199 650.259 18.7799 649.379 18.4999C648.499 18.2199 647.785 17.8199 647.239 17.2999L647.959 16.2199C648.452 16.6599 649.059 17.0066 649.779 17.2599C650.512 17.5266 651.285 17.6599 652.099 17.6599C653.432 17.6599 654.412 17.3466 655.039 16.7199C655.665 16.1066 655.979 15.1466 655.979 13.8399V11.2199L656.179 9.41994L656.039 7.61994V4.43994H657.399V13.6599C657.399 15.4733 656.952 16.7999 656.059 17.6399C655.179 18.4933 653.872 18.9199 652.139 18.9199ZM651.879 14.5399C650.879 14.5399 649.979 14.3266 649.179 13.8999C648.379 13.4599 647.745 12.8533 647.279 12.0799C646.825 11.3066 646.599 10.4199 646.599 9.41994C646.599 8.41994 646.825 7.53994 647.279 6.77994C647.745 6.00661 648.379 5.40661 649.179 4.97994C649.979 4.55327 650.879 4.33994 651.879 4.33994C652.812 4.33994 653.652 4.53327 654.399 4.91994C655.145 5.30661 655.739 5.87994 656.179 6.63994C656.619 7.39994 656.839 8.32661 656.839 9.41994C656.839 10.5133 656.619 11.4399 656.179 12.1999C655.739 12.9599 655.145 13.5399 654.399 13.9399C653.652 14.3399 652.812 14.5399 651.879 14.5399ZM652.019 13.2799C652.792 13.2799 653.479 13.1199 654.079 12.7999C654.679 12.4666 655.152 12.0133 655.499 11.4399C655.845 10.8533 656.019 10.1799 656.019 9.41994C656.019 8.65994 655.845 7.99327 655.499 7.41994C655.152 6.84661 654.679 6.39994 654.079 6.07994C653.479 5.74661 652.792 5.57994 652.019 5.57994C651.259 5.57994 650.572 5.74661 649.959 6.07994C649.359 6.39994 648.885 6.84661 648.539 7.41994C648.205 7.99327 648.039 8.65994 648.039 9.41994C648.039 10.1799 648.205 10.8533 648.539 11.4399C648.885 12.0133 649.359 12.4666 649.959 12.7999C650.572 13.1199 651.259 13.2799 652.019 13.2799ZM661.35 14.9399V4.43994H662.71V7.29994L662.57 6.79994C662.864 5.99994 663.357 5.39327 664.05 4.97994C664.744 4.55327 665.604 4.33994 666.63 4.33994V5.71994C666.577 5.71994 666.524 5.71994 666.47 5.71994C666.417 5.70661 666.364 5.69994 666.31 5.69994C665.204 5.69994 664.337 6.03994 663.71 6.71994C663.084 7.38661 662.77 8.33994 662.77 9.57994V14.9399H661.35ZM673.404 15.0399C672.39 15.0399 671.477 14.8133 670.664 14.3599C669.864 13.8933 669.23 13.2599 668.764 12.4599C668.297 11.6466 668.064 10.7199 668.064 9.67994C668.064 8.62661 668.297 7.69994 668.764 6.89994C669.23 6.09994 669.864 5.47327 670.664 5.01994C671.464 4.56661 672.377 4.33994 673.404 4.33994C674.444 4.33994 675.364 4.56661 676.164 5.01994C676.977 5.47327 677.61 6.09994 678.064 6.89994C678.53 7.69994 678.764 8.62661 678.764 9.67994C678.764 10.7199 678.53 11.6466 678.064 12.4599C677.61 13.2599 676.977 13.8933 676.164 14.3599C675.35 14.8133 674.43 15.0399 673.404 15.0399ZM673.404 13.7799C674.164 13.7799 674.837 13.6133 675.424 13.2799C676.01 12.9333 676.47 12.4533 676.804 11.8399C677.15 11.2133 677.324 10.4933 677.324 9.67994C677.324 8.85327 677.15 8.13327 676.804 7.51994C676.47 6.90661 676.01 6.43327 675.424 6.09994C674.837 5.75327 674.17 5.57994 673.424 5.57994C672.677 5.57994 672.01 5.75327 671.424 6.09994C670.837 6.43327 670.37 6.90661 670.024 7.51994C669.677 8.13327 669.504 8.85327 669.504 9.67994C669.504 10.4933 669.677 11.2133 670.024 11.8399C670.37 12.4533 670.837 12.9333 671.424 13.2799C672.01 13.6133 672.67 13.7799 673.404 13.7799ZM683.51 14.9399L679.55 4.43994H680.91L684.51 14.1799H683.89L687.59 4.43994H688.81L692.47 14.1799H691.85L695.51 4.43994H696.81L692.83 14.9399H691.49L687.97 5.77994H688.39L684.85 14.9399H683.51ZM698.404 15.0399C698.111 15.0399 697.858 14.9333 697.644 14.7199C697.444 14.5066 697.344 14.2466 697.344 13.9399C697.344 13.6199 697.444 13.3599 697.644 13.1599C697.858 12.9599 698.111 12.8599 698.404 12.8599C698.698 12.8599 698.944 12.9599 699.144 13.1599C699.358 13.3599 699.464 13.6199 699.464 13.9399C699.464 14.2466 699.358 14.5066 699.144 14.7199C698.944 14.9333 698.698 15.0399 698.404 15.0399Z" fill="#333333"/>
</svg>
