<?xml version="1.0" encoding="UTF-8"?>
<svg id="Layer_1" data-name="Layer 1" xmlns="http://www.w3.org/2000/svg" version="1.1" viewBox="0 0 1080 1080">
  <defs>
    <style>
      .cls-1 {
        fill: #001ef4;
        stroke-width: 0px;
      }

      .cls-2 {
        fill: #333;
        font-family: Montserrat-Bold, Montserrat;
        font-size: 140.92px;
        font-weight: 700;
      }
    </style>
  </defs>
  <text class="cls-2" transform="translate(422.93 614.62)"><tspan x="0" y="0">Stockly</tspan></text>
  <g>
    <rect class="cls-1" x="173.99" y="491.22" width="26.08" height="144.34"/>
    <rect class="cls-1" x="213.77" y="491.22" width="26.08" height="144.34"/>
    <rect class="cls-1" x="253.55" y="491.22" width="26.08" height="144.34"/>
    <rect class="cls-1" x="293.33" y="491.22" width="26.08" height="144.34"/>
    <rect class="cls-1" x="213.77" y="491.22" width="26.08" height="144.34"/>
    <rect class="cls-1" x="253.55" y="491.22" width="26.08" height="144.34"/>
    <rect class="cls-1" x="293.33" y="491.22" width="26.08" height="144.34"/>
    <rect class="cls-1" x="333.11" y="491.22" width="26.08" height="144.34"/>
    <rect class="cls-1" x="253.55" y="491.22" width="26.08" height="144.34"/>
    <rect class="cls-1" x="293.33" y="491.22" width="26.08" height="144.34"/>
    <rect class="cls-1" x="333.11" y="491.22" width="26.08" height="144.34"/>
    <rect class="cls-1" x="372.89" y="491.22" width="26.08" height="144.34"/>
  </g>
  <g>
    <path class="cls-1" d="M415.42,491.03c-.84,0-1.59-.17-2.25-.52-.66-.34-1.18-.82-1.55-1.43-.37-.61-.56-1.3-.56-2.08s.19-1.48.56-2.09c.37-.61.89-1.08,1.55-1.42.66-.34,1.41-.52,2.25-.52s1.54.17,2.15.52c.61.34,1.06.84,1.35,1.48l-1.76.94c-.2-.37-.46-.64-.76-.81-.31-.17-.64-.26-1-.26-.39,0-.74.09-1.05.26-.31.17-.55.42-.73.74s-.27.71-.27,1.16.09.84.27,1.16.42.57.73.74c.31.17.66.26,1.05.26.36,0,.69-.08,1-.25.31-.17.56-.44.76-.82l1.76.96c-.29.63-.74,1.12-1.35,1.46-.61.34-1.33.52-2.15.52Z"/>
    <path class="cls-1" d="M414.99,495.29c-4.57,0-8.29-3.72-8.29-8.29s3.72-8.29,8.29-8.29,8.29,3.72,8.29,8.29-3.72,8.29-8.29,8.29ZM414.99,479.86c-3.94,0-7.14,3.2-7.14,7.14s3.2,7.14,7.14,7.14,7.14-3.2,7.14-7.14-3.2-7.14-7.14-7.14Z"/>
  </g>
</svg>