<svg width="143" height="12" viewBox="0 0 143 12" fill="none" xmlns="http://www.w3.org/2000/svg">
<path d="M2.83201 9.35986V2.15986H4.54401V9.35986H2.83201ZM6.79493e-06 6.55986V4.95986H7.37601V6.55986H6.79493e-06ZM8.72313 11.3599V9.96786L13.1711 5.74386C13.5445 5.39186 13.8218 5.08253 14.0031 4.81586C14.1845 4.5492 14.3018 4.30386 14.3551 4.07986C14.4191 3.8452 14.4511 3.62653 14.4511 3.42386C14.4511 2.91186 14.2751 2.5172 13.9231 2.23986C13.5711 1.95186 13.0538 1.80786 12.3711 1.80786C11.8271 1.80786 11.3311 1.90386 10.8831 2.09586C10.4458 2.28786 10.0671 2.5812 9.74713 2.97586L8.29113 1.85586C8.72847 1.2692 9.31513 0.815863 10.0511 0.495863C10.7978 0.165196 11.6298 -0.000137329 12.5471 -0.000137329C13.3578 -0.000137329 14.0618 0.133196 14.6591 0.399862C15.2671 0.655863 15.7311 1.02386 16.0511 1.50386C16.3818 1.98386 16.5471 2.55453 16.5471 3.21586C16.5471 3.57853 16.4991 3.9412 16.4031 4.30386C16.3071 4.65586 16.1258 5.0292 15.8591 5.42386C15.5925 5.81853 15.2031 6.2612 14.6911 6.75186L10.8671 10.3839L10.4351 9.59986H16.9791V11.3599H8.72313ZM19.9716 11.3599V0.959863L20.8836 1.90386H17.6036V0.159863H22.0516V11.3599H19.9716ZM27.7934 11.5199C27.004 11.5199 26.2307 11.4079 25.4734 11.1839C24.7267 10.9492 24.0974 10.6292 23.5854 10.2239L24.4814 8.60786C24.8867 8.93853 25.3774 9.2052 25.9534 9.40786C26.5294 9.61053 27.132 9.71186 27.7614 9.71186C28.508 9.71186 29.0894 9.56253 29.5054 9.26386C29.9214 8.95453 30.1294 8.53853 30.1294 8.01586C30.1294 7.50386 29.9374 7.09853 29.5534 6.79986C29.1694 6.5012 28.5507 6.35186 27.6974 6.35186H26.6734V4.92786L29.8734 1.11986L30.1454 1.90386H24.1294V0.159863H31.7614V1.55186L28.5614 5.35986L27.4734 4.71986H28.0974C29.4734 4.71986 30.5027 5.0292 31.1854 5.64786C31.8787 6.25586 32.2254 7.03986 32.2254 7.99986C32.2254 8.6292 32.0654 9.21053 31.7454 9.74386C31.4254 10.2772 30.9347 10.7092 30.2734 11.0399C29.6227 11.3599 28.796 11.5199 27.7934 11.5199ZM42.6798 11.5199C41.7944 11.5199 40.9944 11.2959 40.2798 10.8479C39.5758 10.3999 39.0211 9.7492 38.6158 8.89586C38.2104 8.03186 38.0078 6.98653 38.0078 5.75986C38.0078 4.5332 38.2104 3.4932 38.6158 2.63986C39.0211 1.77586 39.5758 1.11986 40.2798 0.671863C40.9944 0.223863 41.7944 -0.000137329 42.6798 -0.000137329C43.5758 -0.000137329 44.3758 0.223863 45.0798 0.671863C45.7838 1.11986 46.3384 1.77586 46.7438 2.63986C47.1598 3.4932 47.3678 4.5332 47.3678 5.75986C47.3678 6.98653 47.1598 8.03186 46.7438 8.89586C46.3384 9.7492 45.7838 10.3999 45.0798 10.8479C44.3758 11.2959 43.5758 11.5199 42.6798 11.5199ZM42.6798 9.71186C43.2024 9.71186 43.6558 9.5732 44.0398 9.29586C44.4238 9.00786 44.7224 8.57053 44.9358 7.98386C45.1598 7.3972 45.2718 6.65586 45.2718 5.75986C45.2718 4.8532 45.1598 4.11186 44.9358 3.53586C44.7224 2.9492 44.4238 2.5172 44.0398 2.23986C43.6558 1.95186 43.2024 1.80786 42.6798 1.80786C42.1784 1.80786 41.7304 1.95186 41.3358 2.23986C40.9518 2.5172 40.6478 2.9492 40.4238 3.53586C40.2104 4.11186 40.1038 4.8532 40.1038 5.75986C40.1038 6.65586 40.2104 7.3972 40.4238 7.98386C40.6478 8.57053 40.9518 9.00786 41.3358 9.29586C41.7304 9.5732 42.1784 9.71186 42.6798 9.71186ZM53.4454 11.5199C52.56 11.5199 51.76 11.2959 51.0454 10.8479C50.3414 10.3999 49.7867 9.7492 49.3814 8.89586C48.976 8.03186 48.7734 6.98653 48.7734 5.75986C48.7734 4.5332 48.976 3.4932 49.3814 2.63986C49.7867 1.77586 50.3414 1.11986 51.0454 0.671863C51.76 0.223863 52.56 -0.000137329 53.4454 -0.000137329C54.3414 -0.000137329 55.1414 0.223863 55.8454 0.671863C56.5494 1.11986 57.104 1.77586 57.5094 2.63986C57.9254 3.4932 58.1334 4.5332 58.1334 5.75986C58.1334 6.98653 57.9254 8.03186 57.5094 8.89586C57.104 9.7492 56.5494 10.3999 55.8454 10.8479C55.1414 11.2959 54.3414 11.5199 53.4454 11.5199ZM53.4454 9.71186C53.968 9.71186 54.4214 9.5732 54.8054 9.29586C55.1894 9.00786 55.488 8.57053 55.7014 7.98386C55.9254 7.3972 56.0374 6.65586 56.0374 5.75986C56.0374 4.8532 55.9254 4.11186 55.7014 3.53586C55.488 2.9492 55.1894 2.5172 54.8054 2.23986C54.4214 1.95186 53.968 1.80786 53.4454 1.80786C52.944 1.80786 52.496 1.95186 52.1014 2.23986C51.7174 2.5172 51.4134 2.9492 51.1894 3.53586C50.976 4.11186 50.8694 4.8532 50.8694 5.75986C50.8694 6.65586 50.976 7.3972 51.1894 7.98386C51.4134 8.57053 51.7174 9.00786 52.1014 9.29586C52.496 9.5732 52.944 9.71186 53.4454 9.71186ZM64.211 11.5199C63.3257 11.5199 62.5257 11.2959 61.811 10.8479C61.107 10.3999 60.5523 9.7492 60.147 8.89586C59.7417 8.03186 59.539 6.98653 59.539 5.75986C59.539 4.5332 59.7417 3.4932 60.147 2.63986C60.5523 1.77586 61.107 1.11986 61.811 0.671863C62.5257 0.223863 63.3257 -0.000137329 64.211 -0.000137329C65.107 -0.000137329 65.907 0.223863 66.611 0.671863C67.315 1.11986 67.8697 1.77586 68.275 2.63986C68.691 3.4932 68.899 4.5332 68.899 5.75986C68.899 6.98653 68.691 8.03186 68.275 8.89586C67.8697 9.7492 67.315 10.3999 66.611 10.8479C65.907 11.2959 65.107 11.5199 64.211 11.5199ZM64.211 9.71186C64.7337 9.71186 65.187 9.5732 65.571 9.29586C65.955 9.00786 66.2537 8.57053 66.467 7.98386C66.691 7.3972 66.803 6.65586 66.803 5.75986C66.803 4.8532 66.691 4.11186 66.467 3.53586C66.2537 2.9492 65.955 2.5172 65.571 2.23986C65.187 1.95186 64.7337 1.80786 64.211 1.80786C63.7097 1.80786 63.2617 1.95186 62.867 2.23986C62.483 2.5172 62.179 2.9492 61.955 3.53586C61.7417 4.11186 61.635 4.8532 61.635 5.75986C61.635 6.65586 61.7417 7.3972 61.955 7.98386C62.179 8.57053 62.483 9.00786 62.867 9.29586C63.2617 9.5732 63.7097 9.71186 64.211 9.71186ZM79.3985 11.5199C78.5132 11.5199 77.7132 11.2959 76.9985 10.8479C76.2945 10.3999 75.7398 9.7492 75.3345 8.89586C74.9292 8.03186 74.7265 6.98653 74.7265 5.75986C74.7265 4.5332 74.9292 3.4932 75.3345 2.63986C75.7398 1.77586 76.2945 1.11986 76.9985 0.671863C77.7132 0.223863 78.5132 -0.000137329 79.3985 -0.000137329C80.2945 -0.000137329 81.0945 0.223863 81.7985 0.671863C82.5025 1.11986 83.0572 1.77586 83.4625 2.63986C83.8785 3.4932 84.0865 4.5332 84.0865 5.75986C84.0865 6.98653 83.8785 8.03186 83.4625 8.89586C83.0572 9.7492 82.5025 10.3999 81.7985 10.8479C81.0945 11.2959 80.2945 11.5199 79.3985 11.5199ZM79.3985 9.71186C79.9212 9.71186 80.3745 9.5732 80.7585 9.29586C81.1425 9.00786 81.4412 8.57053 81.6545 7.98386C81.8785 7.3972 81.9905 6.65586 81.9905 5.75986C81.9905 4.8532 81.8785 4.11186 81.6545 3.53586C81.4412 2.9492 81.1425 2.5172 80.7585 2.23986C80.3745 1.95186 79.9212 1.80786 79.3985 1.80786C78.8972 1.80786 78.4492 1.95186 78.0545 2.23986C77.6705 2.5172 77.3665 2.9492 77.1425 3.53586C76.9292 4.11186 76.8225 4.8532 76.8225 5.75986C76.8225 6.65586 76.9292 7.3972 77.1425 7.98386C77.3665 8.57053 77.6705 9.00786 78.0545 9.29586C78.4492 9.5732 78.8972 9.71186 79.3985 9.71186ZM90.1641 11.5199C89.2788 11.5199 88.4788 11.2959 87.7641 10.8479C87.0601 10.3999 86.5055 9.7492 86.1001 8.89586C85.6948 8.03186 85.4921 6.98653 85.4921 5.75986C85.4921 4.5332 85.6948 3.4932 86.1001 2.63986C86.5055 1.77586 87.0601 1.11986 87.7641 0.671863C88.4788 0.223863 89.2788 -0.000137329 90.1641 -0.000137329C91.0601 -0.000137329 91.8601 0.223863 92.5641 0.671863C93.2681 1.11986 93.8228 1.77586 94.2281 2.63986C94.6441 3.4932 94.8521 4.5332 94.8521 5.75986C94.8521 6.98653 94.6441 8.03186 94.2281 8.89586C93.8228 9.7492 93.2681 10.3999 92.5641 10.8479C91.8601 11.2959 91.0601 11.5199 90.1641 11.5199ZM90.1641 9.71186C90.6868 9.71186 91.1401 9.5732 91.5241 9.29586C91.9081 9.00786 92.2068 8.57053 92.4201 7.98386C92.6441 7.3972 92.7561 6.65586 92.7561 5.75986C92.7561 4.8532 92.6441 4.11186 92.4201 3.53586C92.2068 2.9492 91.9081 2.5172 91.5241 2.23986C91.1401 1.95186 90.6868 1.80786 90.1641 1.80786C89.6628 1.80786 89.2148 1.95186 88.8201 2.23986C88.4361 2.5172 88.1321 2.9492 87.9081 3.53586C87.6948 4.11186 87.5881 4.8532 87.5881 5.75986C87.5881 6.65586 87.6948 7.3972 87.9081 7.98386C88.1321 8.57053 88.4361 9.00786 88.8201 9.29586C89.2148 9.5732 89.6628 9.71186 90.1641 9.71186ZM100.93 11.5199C100.044 11.5199 99.2444 11.2959 98.5298 10.8479C97.8258 10.3999 97.2711 9.7492 96.8658 8.89586C96.4604 8.03186 96.2578 6.98653 96.2578 5.75986C96.2578 4.5332 96.4604 3.4932 96.8658 2.63986C97.2711 1.77586 97.8258 1.11986 98.5298 0.671863C99.2444 0.223863 100.044 -0.000137329 100.93 -0.000137329C101.826 -0.000137329 102.626 0.223863 103.33 0.671863C104.034 1.11986 104.588 1.77586 104.994 2.63986C105.41 3.4932 105.618 4.5332 105.618 5.75986C105.618 6.98653 105.41 8.03186 104.994 8.89586C104.588 9.7492 104.034 10.3999 103.33 10.8479C102.626 11.2959 101.826 11.5199 100.93 11.5199ZM100.93 9.71186C101.452 9.71186 101.906 9.5732 102.29 9.29586C102.674 9.00786 102.972 8.57053 103.186 7.98386C103.41 7.3972 103.522 6.65586 103.522 5.75986C103.522 4.8532 103.41 4.11186 103.186 3.53586C102.972 2.9492 102.674 2.5172 102.29 2.23986C101.906 1.95186 101.452 1.80786 100.93 1.80786C100.428 1.80786 99.9804 1.95186 99.5858 2.23986C99.2018 2.5172 98.8978 2.9492 98.6738 3.53586C98.4604 4.11186 98.3538 4.8532 98.3538 5.75986C98.3538 6.65586 98.4604 7.3972 98.6738 7.98386C98.8978 8.57053 99.2018 9.00786 99.5858 9.29586C99.9804 9.5732 100.428 9.71186 100.93 9.71186ZM116.117 11.5199C115.232 11.5199 114.432 11.2959 113.717 10.8479C113.013 10.3999 112.459 9.7492 112.053 8.89586C111.648 8.03186 111.445 6.98653 111.445 5.75986C111.445 4.5332 111.648 3.4932 112.053 2.63986C112.459 1.77586 113.013 1.11986 113.717 0.671863C114.432 0.223863 115.232 -0.000137329 116.117 -0.000137329C117.013 -0.000137329 117.813 0.223863 118.517 0.671863C119.221 1.11986 119.776 1.77586 120.181 2.63986C120.597 3.4932 120.805 4.5332 120.805 5.75986C120.805 6.98653 120.597 8.03186 120.181 8.89586C119.776 9.7492 119.221 10.3999 118.517 10.8479C117.813 11.2959 117.013 11.5199 116.117 11.5199ZM116.117 9.71186C116.64 9.71186 117.093 9.5732 117.477 9.29586C117.861 9.00786 118.16 8.57053 118.373 7.98386C118.597 7.3972 118.709 6.65586 118.709 5.75986C118.709 4.8532 118.597 4.11186 118.373 3.53586C118.16 2.9492 117.861 2.5172 117.477 2.23986C117.093 1.95186 116.64 1.80786 116.117 1.80786C115.616 1.80786 115.168 1.95186 114.773 2.23986C114.389 2.5172 114.085 2.9492 113.861 3.53586C113.648 4.11186 113.541 4.8532 113.541 5.75986C113.541 6.65586 113.648 7.3972 113.861 7.98386C114.085 8.57053 114.389 9.00786 114.773 9.29586C115.168 9.5732 115.616 9.71186 116.117 9.71186ZM126.883 11.5199C125.998 11.5199 125.198 11.2959 124.483 10.8479C123.779 10.3999 123.224 9.7492 122.819 8.89586C122.414 8.03186 122.211 6.98653 122.211 5.75986C122.211 4.5332 122.414 3.4932 122.819 2.63986C123.224 1.77586 123.779 1.11986 124.483 0.671863C125.198 0.223863 125.998 -0.000137329 126.883 -0.000137329C127.779 -0.000137329 128.579 0.223863 129.283 0.671863C129.987 1.11986 130.542 1.77586 130.947 2.63986C131.363 3.4932 131.571 4.5332 131.571 5.75986C131.571 6.98653 131.363 8.03186 130.947 8.89586C130.542 9.7492 129.987 10.3999 129.283 10.8479C128.579 11.2959 127.779 11.5199 126.883 11.5199ZM126.883 9.71186C127.406 9.71186 127.859 9.5732 128.243 9.29586C128.627 9.00786 128.926 8.57053 129.139 7.98386C129.363 7.3972 129.475 6.65586 129.475 5.75986C129.475 4.8532 129.363 4.11186 129.139 3.53586C128.926 2.9492 128.627 2.5172 128.243 2.23986C127.859 1.95186 127.406 1.80786 126.883 1.80786C126.382 1.80786 125.934 1.95186 125.539 2.23986C125.155 2.5172 124.851 2.9492 124.627 3.53586C124.414 4.11186 124.307 4.8532 124.307 5.75986C124.307 6.65586 124.414 7.3972 124.627 7.98386C124.851 8.57053 125.155 9.00786 125.539 9.29586C125.934 9.5732 126.382 9.71186 126.883 9.71186ZM137.649 11.5199C136.763 11.5199 135.963 11.2959 135.249 10.8479C134.545 10.3999 133.99 9.7492 133.585 8.89586C133.179 8.03186 132.977 6.98653 132.977 5.75986C132.977 4.5332 133.179 3.4932 133.585 2.63986C133.99 1.77586 134.545 1.11986 135.249 0.671863C135.963 0.223863 136.763 -0.000137329 137.649 -0.000137329C138.545 -0.000137329 139.345 0.223863 140.049 0.671863C140.753 1.11986 141.307 1.77586 141.713 2.63986C142.129 3.4932 142.337 4.5332 142.337 5.75986C142.337 6.98653 142.129 8.03186 141.713 8.89586C141.307 9.7492 140.753 10.3999 140.049 10.8479C139.345 11.2959 138.545 11.5199 137.649 11.5199ZM137.649 9.71186C138.171 9.71186 138.625 9.5732 139.009 9.29586C139.393 9.00786 139.691 8.57053 139.905 7.98386C140.129 7.3972 140.241 6.65586 140.241 5.75986C140.241 4.8532 140.129 4.11186 139.905 3.53586C139.691 2.9492 139.393 2.5172 139.009 2.23986C138.625 1.95186 138.171 1.80786 137.649 1.80786C137.147 1.80786 136.699 1.95186 136.305 2.23986C135.921 2.5172 135.617 2.9492 135.393 3.53586C135.179 4.11186 135.073 4.8532 135.073 5.75986C135.073 6.65586 135.179 7.3972 135.393 7.98386C135.617 8.57053 135.921 9.00786 136.305 9.29586C136.699 9.5732 137.147 9.71186 137.649 9.71186Z" fill="#333333"/>
</svg>
