<svg width="356" height="47" viewBox="0 0 356 47" fill="none" xmlns="http://www.w3.org/2000/svg">
<path d="M24.256 46.3359C20.8 46.3359 17.5787 45.7812 14.592 44.6719C11.648 43.5199 9.088 41.8985 6.912 39.8079C4.736 37.7172 3.02933 35.2639 1.792 32.4479C0.597331 29.6319 -2.14577e-06 26.5385 -2.14577e-06 23.1679C-2.14577e-06 19.7972 0.597331 16.7039 1.792 13.8879C3.02933 11.0719 4.736 8.61854 6.912 6.52787C9.13067 4.4372 11.712 2.8372 14.656 1.72787C17.6 0.575869 20.8213 -0.0001297 24.32 -0.0001297C28.2027 -0.0001297 31.7013 0.682537 34.816 2.04787C37.9733 3.37054 40.6187 5.3332 42.752 7.93587L36.096 14.0799C34.56 12.3305 32.8533 11.0292 30.976 10.1759C29.0987 9.27987 27.0507 8.83187 24.832 8.83187C22.7413 8.83187 20.8213 9.1732 19.072 9.85587C17.3227 10.5385 15.808 11.5199 14.528 12.7999C13.248 14.0799 12.2453 15.5945 11.52 17.3439C10.8373 19.0932 10.496 21.0345 10.496 23.1679C10.496 25.3012 10.8373 27.2425 11.52 28.9919C12.2453 30.7412 13.248 32.2559 14.528 33.5359C15.808 34.8159 17.3227 35.7972 19.072 36.4799C20.8213 37.1625 22.7413 37.5039 24.832 37.5039C27.0507 37.5039 29.0987 37.0772 30.976 36.2239C32.8533 35.3279 34.56 33.9839 36.096 32.1919L42.752 38.3359C40.6187 40.9385 37.9733 42.9225 34.816 44.2879C31.7013 45.6532 28.1813 46.3359 24.256 46.3359ZM63.286 46.0799C59.6167 46.0799 56.3527 45.3119 53.494 43.7759C50.678 42.2399 48.438 40.1492 46.774 37.5039C45.1527 34.8159 44.342 31.7652 44.342 28.3519C44.342 24.8959 45.1527 21.8452 46.774 19.1999C48.438 16.5119 50.678 14.4212 53.494 12.9279C56.3527 11.3919 59.6167 10.6239 63.286 10.6239C66.9127 10.6239 70.1553 11.3919 73.014 12.9279C75.8727 14.4212 78.1127 16.4905 79.734 19.1359C81.3553 21.7812 82.166 24.8532 82.166 28.3519C82.166 31.7652 81.3553 34.8159 79.734 37.5039C78.1127 40.1492 75.8727 42.2399 73.014 43.7759C70.1553 45.3119 66.9127 46.0799 63.286 46.0799ZM63.286 37.8879C64.95 37.8879 66.4433 37.5039 67.766 36.7359C69.0887 35.9679 70.134 34.8799 70.902 33.4719C71.67 32.0212 72.054 30.3145 72.054 28.3519C72.054 26.3465 71.67 24.6399 70.902 23.2319C70.134 21.8239 69.0887 20.7359 67.766 19.9679C66.4433 19.1999 64.95 18.8159 63.286 18.8159C61.622 18.8159 60.1287 19.1999 58.806 19.9679C57.4833 20.7359 56.4167 21.8239 55.606 23.2319C54.838 24.6399 54.454 26.3465 54.454 28.3519C54.454 30.3145 54.838 32.0212 55.606 33.4719C56.4167 34.8799 57.4833 35.9679 58.806 36.7359C60.1287 37.5039 61.622 37.8879 63.286 37.8879ZM108.808 10.6239C111.538 10.6239 113.97 11.1785 116.104 12.2879C118.28 13.3545 119.986 15.0185 121.224 17.2799C122.461 19.4985 123.08 22.3572 123.08 25.8559V45.5679H113.096V27.3919C113.096 24.6185 112.477 22.5705 111.24 21.2479C110.045 19.9252 108.338 19.2639 106.12 19.2639C104.541 19.2639 103.112 19.6052 101.832 20.2879C100.594 20.9279 99.6128 21.9305 98.8875 23.2959C98.2048 24.6612 97.8635 26.4105 97.8635 28.5439V45.5679H87.8795V11.1359H97.4155V20.6719L95.6235 17.7919C96.8608 15.4879 98.6315 13.7172 100.936 12.4799C103.24 11.2425 105.864 10.6239 108.808 10.6239ZM145.249 46.0799C141.196 46.0799 138.039 45.0559 135.777 43.0079C133.516 40.9172 132.385 37.8239 132.385 33.7279V3.51987H142.369V33.5999C142.369 35.0505 142.753 36.1812 143.521 36.9919C144.289 37.7599 145.335 38.1439 146.657 38.1439C148.236 38.1439 149.58 37.7172 150.689 36.8639L153.377 43.9039C152.353 44.6292 151.116 45.1839 149.665 45.5679C148.257 45.9092 146.785 46.0799 145.249 46.0799ZM127.073 19.5839V11.9039H150.945V19.5839H127.073ZM179.142 45.5679V38.8479L178.502 37.3759V25.3439C178.502 23.2105 177.841 21.5465 176.518 20.3519C175.238 19.1572 173.254 18.5599 170.566 18.5599C168.731 18.5599 166.918 18.8585 165.126 19.4559C163.377 20.0105 161.883 20.7785 160.646 21.7599L157.062 14.7839C158.939 13.4612 161.201 12.4372 163.846 11.7119C166.491 10.9865 169.179 10.6239 171.91 10.6239C177.158 10.6239 181.233 11.8612 184.134 14.3359C187.035 16.8105 188.486 20.6719 188.486 25.9199V45.5679H179.142ZM168.646 46.0799C165.958 46.0799 163.654 45.6319 161.734 44.7359C159.814 43.7972 158.342 42.5385 157.318 40.9599C156.294 39.3812 155.782 37.6105 155.782 35.6479C155.782 33.5999 156.273 31.8079 157.254 30.2719C158.278 28.7359 159.878 27.5412 162.054 26.6879C164.23 25.7919 167.067 25.3439 170.566 25.3439H179.718V31.1679H171.654C169.307 31.1679 167.686 31.5519 166.79 32.3199C165.937 33.0879 165.51 34.0479 165.51 35.1999C165.51 36.4799 166.001 37.5039 166.982 38.2719C168.006 38.9972 169.393 39.3599 171.142 39.3599C172.806 39.3599 174.299 38.9759 175.622 38.2079C176.945 37.3972 177.905 36.2239 178.502 34.6879L180.038 39.2959C179.313 41.5145 177.99 43.1999 176.07 44.3519C174.15 45.5039 171.675 46.0799 168.646 46.0799ZM213.452 46.0799C209.74 46.0799 206.433 45.3332 203.532 43.8399C200.631 42.3039 198.348 40.1919 196.684 37.5039C195.063 34.8159 194.252 31.7652 194.252 28.3519C194.252 24.8959 195.063 21.8452 196.684 19.1999C198.348 16.5119 200.631 14.4212 203.532 12.9279C206.433 11.3919 209.74 10.6239 213.452 10.6239C217.079 10.6239 220.236 11.3919 222.924 12.9279C225.612 14.4212 227.596 16.5759 228.876 19.3919L221.132 23.5519C220.236 21.9305 219.105 20.7359 217.74 19.9679C216.417 19.1999 214.967 18.8159 213.388 18.8159C211.681 18.8159 210.145 19.1999 208.78 19.9679C207.415 20.7359 206.327 21.8239 205.516 23.2319C204.748 24.6399 204.364 26.3465 204.364 28.3519C204.364 30.3572 204.748 32.0639 205.516 33.4719C206.327 34.8799 207.415 35.9679 208.78 36.7359C210.145 37.5039 211.681 37.8879 213.388 37.8879C214.967 37.8879 216.417 37.5252 217.74 36.7999C219.105 36.0319 220.236 34.8159 221.132 33.1519L228.876 37.3759C227.596 40.1492 225.612 42.3039 222.924 43.8399C220.236 45.3332 217.079 46.0799 213.452 46.0799ZM248.245 46.0799C244.191 46.0799 241.034 45.0559 238.773 43.0079C236.511 40.9172 235.381 37.8239 235.381 33.7279V3.51987H245.365V33.5999C245.365 35.0505 245.749 36.1812 246.517 36.9919C247.285 37.7599 248.33 38.1439 249.653 38.1439C251.231 38.1439 252.575 37.7172 253.685 36.8639L256.373 43.9039C255.349 44.6292 254.111 45.1839 252.661 45.5679C251.253 45.9092 249.781 46.0799 248.245 46.0799ZM230.069 19.5839V11.9039H253.941V19.5839H230.069Z" fill="#001EF4"/>
<path d="M298.79 46.3359C292.433 46.3359 287.462 44.5652 283.878 41.0239C280.294 37.4825 278.502 32.4265 278.502 25.8559V0.767868H288.87V25.4719C288.87 29.7385 289.745 32.8105 291.494 34.6879C293.243 36.5652 295.697 37.5039 298.854 37.5039C302.011 37.5039 304.465 36.5652 306.214 34.6879C307.963 32.8105 308.838 29.7385 308.838 25.4719V0.767868H319.078V25.8559C319.078 32.4265 317.286 37.4825 313.702 41.0239C310.118 44.5652 305.147 46.3359 298.79 46.3359ZM339.243 46.0799C336.299 46.0799 333.462 45.7385 330.731 45.0559C328.043 44.3305 325.91 43.4345 324.331 42.3679L327.659 35.1999C329.238 36.1812 331.094 36.9919 333.227 37.6319C335.403 38.2292 337.537 38.5279 339.627 38.5279C341.931 38.5279 343.553 38.2505 344.491 37.6959C345.473 37.1412 345.963 36.3732 345.963 35.3919C345.963 34.5812 345.579 33.9839 344.811 33.5999C344.086 33.1732 343.105 32.8532 341.867 32.6399C340.63 32.4265 339.265 32.2132 337.771 31.9999C336.321 31.7865 334.849 31.5092 333.355 31.1679C331.862 30.7839 330.497 30.2292 329.259 29.5039C328.022 28.7785 327.019 27.7972 326.251 26.5599C325.526 25.3225 325.163 23.7225 325.163 21.7599C325.163 19.5839 325.782 17.6639 327.019 15.9999C328.299 14.3359 330.134 13.0345 332.523 12.0959C334.913 11.1145 337.771 10.6239 341.099 10.6239C343.446 10.6239 345.835 10.8799 348.267 11.3919C350.699 11.9039 352.726 12.6505 354.347 13.6319L351.019 20.7359C349.355 19.7545 347.67 19.0932 345.963 18.7519C344.299 18.3679 342.678 18.1759 341.099 18.1759C338.881 18.1759 337.259 18.4745 336.235 19.0719C335.211 19.6692 334.699 20.4372 334.699 21.3759C334.699 22.2292 335.062 22.8692 335.787 23.2959C336.555 23.7225 337.558 24.0639 338.795 24.3199C340.033 24.5759 341.377 24.8105 342.827 25.0239C344.321 25.1945 345.814 25.4719 347.307 25.8559C348.801 26.2399 350.145 26.7945 351.339 27.5199C352.577 28.2025 353.579 29.1625 354.347 30.3999C355.115 31.5945 355.499 33.1732 355.499 35.1359C355.499 37.2692 354.859 39.1679 353.579 40.8319C352.299 42.4532 350.443 43.7332 348.011 44.6719C345.622 45.6105 342.699 46.0799 339.243 46.0799Z" fill="#333333"/>
</svg>
