<svg width="113" height="15" viewBox="0 0 113 15" fill="none" xmlns="http://www.w3.org/2000/svg">
<path d="M4.48001 11.2002V7.04019L4.75201 7.7762L8.78982e-06 0.00019455H1.26401L5.44001 6.8322H4.76801L8.94401 0.00019455H10.128L5.37601 7.7762L5.64801 7.04019V11.2002H4.48001ZM14.1951 11.2802C13.3845 11.2802 12.6538 11.0989 12.0031 10.7362C11.3631 10.3629 10.8565 9.8562 10.4831 9.2162C10.1098 8.56553 9.92313 7.8242 9.92313 6.9922C9.92313 6.14953 10.1098 5.4082 10.4831 4.7682C10.8565 4.1282 11.3631 3.62686 12.0031 3.26419C12.6431 2.90153 13.3738 2.72019 14.1951 2.72019C15.0271 2.72019 15.7631 2.90153 16.4031 3.26419C17.0538 3.62686 17.5605 4.1282 17.9231 4.7682C18.2965 5.4082 18.4831 6.14953 18.4831 6.9922C18.4831 7.8242 18.2965 8.56553 17.9231 9.2162C17.5605 9.8562 17.0538 10.3629 16.4031 10.7362C15.7525 11.0989 15.0165 11.2802 14.1951 11.2802ZM14.1951 10.2722C14.8031 10.2722 15.3418 10.1389 15.8111 9.8722C16.2805 9.59486 16.6485 9.21086 16.9151 8.7202C17.1925 8.21886 17.3311 7.64286 17.3311 6.9922C17.3311 6.33086 17.1925 5.75486 16.9151 5.26419C16.6485 4.77353 16.2805 4.39486 15.8111 4.12819C15.3418 3.85086 14.8085 3.71219 14.2111 3.71219C13.6138 3.71219 13.0805 3.85086 12.6111 4.12819C12.1418 4.39486 11.7685 4.77353 11.4911 5.26419C11.2138 5.75486 11.0751 6.33086 11.0751 6.9922C11.0751 7.64286 11.2138 8.21886 11.4911 8.7202C11.7685 9.21086 12.1418 9.59486 12.6111 9.8722C13.0805 10.1389 13.6085 10.2722 14.1951 10.2722ZM24.2744 11.2802C23.5597 11.2802 22.9357 11.1469 22.4024 10.8802C21.8691 10.6135 21.4531 10.2135 21.1544 9.6802C20.8664 9.14686 20.7224 8.4802 20.7224 7.6802V2.80019H21.8584V7.5522C21.8584 8.4482 22.0771 9.12553 22.5144 9.5842C22.9624 10.0322 23.5864 10.2562 24.3864 10.2562C24.9731 10.2562 25.4797 10.1389 25.9064 9.9042C26.3437 9.65886 26.6744 9.30686 26.8984 8.8482C27.1331 8.38953 27.2504 7.8402 27.2504 7.2002V2.80019H28.3864V11.2002H27.2984V8.8962L27.4744 9.3122C27.2077 9.93086 26.7917 10.4162 26.2264 10.7682C25.6717 11.1095 25.0211 11.2802 24.2744 11.2802ZM31.5524 11.2002V2.80019H32.6404V5.08819L32.5284 4.6882C32.7631 4.0482 33.1577 3.56286 33.7124 3.23219C34.2671 2.89086 34.9551 2.72019 35.7764 2.72019V3.82419C35.7337 3.82419 35.6911 3.82419 35.6484 3.82419C35.6057 3.81353 35.5631 3.8082 35.5204 3.8082C34.6351 3.8082 33.9417 4.0802 33.4404 4.6242C32.9391 5.15753 32.6884 5.92019 32.6884 6.9122V11.2002H31.5524ZM52.6578 2.72019C53.3404 2.72019 53.9324 2.85353 54.4338 3.1202C54.9458 3.37619 55.3404 3.77086 55.6178 4.30419C55.9058 4.83753 56.0498 5.50953 56.0498 6.3202V11.2002H54.9138V6.4322C54.9138 5.54686 54.7004 4.8802 54.2738 4.4322C53.8578 3.97353 53.2658 3.74419 52.4978 3.74419C51.9218 3.74419 51.4204 3.86686 50.9938 4.1122C50.5778 4.34686 50.2524 4.69353 50.0178 5.15219C49.7938 5.60019 49.6818 6.14419 49.6818 6.78419V11.2002H48.5458V6.4322C48.5458 5.54686 48.3324 4.8802 47.9058 4.4322C47.4791 3.97353 46.8818 3.74419 46.1138 3.74419C45.5484 3.74419 45.0524 3.86686 44.6258 4.1122C44.1991 4.34686 43.8684 4.69353 43.6338 5.15219C43.4098 5.60019 43.2978 6.14419 43.2978 6.78419V11.2002H42.1618V2.80019H43.2498V5.0722L43.0738 4.67219C43.3298 4.06419 43.7404 3.58953 44.3058 3.2482C44.8818 2.89619 45.5591 2.72019 46.3378 2.72019C47.1591 2.72019 47.8578 2.92819 48.4338 3.34419C49.0098 3.74953 49.3831 4.36286 49.5538 5.1842L49.1058 5.00819C49.3511 4.32553 49.7831 3.77619 50.4018 3.3602C51.0311 2.93353 51.7831 2.72019 52.6578 2.72019ZM62.6985 11.2802C61.8238 11.2802 61.0558 11.0989 60.3945 10.7362C59.7332 10.3629 59.2158 9.8562 58.8425 9.2162C58.4692 8.56553 58.2825 7.8242 58.2825 6.9922C58.2825 6.1602 58.4585 5.42419 58.8105 4.78419C59.1732 4.14419 59.6638 3.64286 60.2825 3.28019C60.9118 2.90686 61.6158 2.72019 62.3945 2.72019C63.1838 2.72019 63.8825 2.90153 64.4905 3.26419C65.1092 3.61619 65.5945 4.11753 65.9465 4.7682C66.2985 5.4082 66.4745 6.14953 66.4745 6.9922C66.4745 7.04553 66.4692 7.1042 66.4585 7.1682C66.4585 7.22153 66.4585 7.2802 66.4585 7.3442H59.1465V6.4962H65.8505L65.4025 6.8322C65.4025 6.2242 65.2692 5.68553 65.0025 5.2162C64.7465 4.73619 64.3945 4.36286 63.9465 4.09619C63.4985 3.82953 62.9812 3.6962 62.3945 3.6962C61.8185 3.6962 61.3012 3.82953 60.8425 4.09619C60.3838 4.36286 60.0265 4.73619 59.7705 5.2162C59.5145 5.69619 59.3865 6.24553 59.3865 6.86419V7.04019C59.3865 7.6802 59.5252 8.24553 59.8025 8.7362C60.0905 9.2162 60.4852 9.59486 60.9865 9.8722C61.4985 10.1389 62.0798 10.2722 62.7305 10.2722C63.2425 10.2722 63.7172 10.1815 64.1545 10.0002C64.6025 9.81886 64.9865 9.54153 65.3065 9.1682L65.9465 9.9042C65.5732 10.3522 65.1038 10.6935 64.5385 10.9282C63.9838 11.1629 63.3705 11.2802 62.6985 11.2802ZM71.0428 11.2802C70.3494 11.2802 69.6934 11.1842 69.0748 10.9922C68.4561 10.7895 67.9708 10.5389 67.6188 10.2402L68.1308 9.3442C68.4721 9.6002 68.9094 9.8242 69.4428 10.0162C69.9761 10.1975 70.5361 10.2882 71.1228 10.2882C71.9228 10.2882 72.4988 10.1655 72.8508 9.9202C73.2028 9.6642 73.3788 9.3282 73.3788 8.9122C73.3788 8.60286 73.2774 8.36286 73.0748 8.1922C72.8828 8.01086 72.6268 7.87753 72.3068 7.7922C71.9868 7.6962 71.6294 7.6162 71.2348 7.5522C70.8401 7.4882 70.4454 7.41353 70.0508 7.3282C69.6668 7.24286 69.3148 7.1202 68.9948 6.9602C68.6748 6.78953 68.4134 6.56019 68.2108 6.27219C68.0188 5.9842 67.9228 5.6002 67.9228 5.12019C67.9228 4.66153 68.0508 4.25086 68.3068 3.8882C68.5628 3.52553 68.9361 3.24286 69.4268 3.04019C69.9281 2.82686 70.5361 2.72019 71.2508 2.72019C71.7948 2.72019 72.3388 2.79486 72.8828 2.94419C73.4268 3.08286 73.8748 3.26953 74.2268 3.50419L73.7308 4.41619C73.3574 4.1602 72.9574 3.97886 72.5308 3.87219C72.1041 3.75486 71.6774 3.6962 71.2508 3.6962C70.4934 3.6962 69.9334 3.82953 69.5708 4.09619C69.2188 4.35219 69.0428 4.68286 69.0428 5.08819C69.0428 5.40819 69.1388 5.65886 69.3308 5.8402C69.5334 6.02153 69.7948 6.16553 70.1148 6.27219C70.4454 6.36819 70.8028 6.44819 71.1868 6.5122C71.5814 6.5762 71.9708 6.6562 72.3548 6.75219C72.7494 6.83753 73.1068 6.9602 73.4268 7.12019C73.7574 7.26953 74.0188 7.4882 74.2108 7.7762C74.4134 8.05353 74.5148 8.42153 74.5148 8.8802C74.5148 9.37086 74.3761 9.79753 74.0988 10.1602C73.8321 10.5122 73.4374 10.7895 72.9148 10.9922C72.4028 11.1842 71.7788 11.2802 71.0428 11.2802ZM78.8553 11.2802C78.1619 11.2802 77.5059 11.1842 76.8873 10.9922C76.2686 10.7895 75.7833 10.5389 75.4313 10.2402L75.9433 9.3442C76.2846 9.6002 76.7219 9.8242 77.2553 10.0162C77.7886 10.1975 78.3486 10.2882 78.9353 10.2882C79.7353 10.2882 80.3113 10.1655 80.6633 9.9202C81.0153 9.6642 81.1913 9.3282 81.1913 8.9122C81.1913 8.60286 81.0899 8.36286 80.8873 8.1922C80.6953 8.01086 80.4393 7.87753 80.1193 7.7922C79.7993 7.6962 79.4419 7.6162 79.0473 7.5522C78.6526 7.4882 78.2579 7.41353 77.8633 7.3282C77.4793 7.24286 77.1273 7.1202 76.8073 6.9602C76.4873 6.78953 76.2259 6.56019 76.0233 6.27219C75.8313 5.9842 75.7353 5.6002 75.7353 5.12019C75.7353 4.66153 75.8633 4.25086 76.1193 3.8882C76.3753 3.52553 76.7486 3.24286 77.2393 3.04019C77.7406 2.82686 78.3486 2.72019 79.0633 2.72019C79.6073 2.72019 80.1513 2.79486 80.6953 2.94419C81.2393 3.08286 81.6873 3.26953 82.0393 3.50419L81.5433 4.41619C81.1699 4.1602 80.7699 3.97886 80.3433 3.87219C79.9166 3.75486 79.4899 3.6962 79.0633 3.6962C78.3059 3.6962 77.7459 3.82953 77.3833 4.09619C77.0313 4.35219 76.8553 4.68286 76.8553 5.08819C76.8553 5.40819 76.9513 5.65886 77.1433 5.8402C77.3459 6.02153 77.6073 6.16553 77.9273 6.27219C78.2579 6.36819 78.6153 6.44819 78.9993 6.5122C79.3939 6.5762 79.7833 6.6562 80.1673 6.75219C80.5619 6.83753 80.9193 6.9602 81.2393 7.12019C81.5699 7.26953 81.8313 7.4882 82.0233 7.7762C82.2259 8.05353 82.3273 8.42153 82.3273 8.8802C82.3273 9.37086 82.1886 9.79753 81.9113 10.1602C81.6446 10.5122 81.2499 10.7895 80.7273 10.9922C80.2153 11.1842 79.5913 11.2802 78.8553 11.2802ZM89.6758 11.2002V9.3442L89.6278 9.0402V5.93619C89.6278 5.22153 89.4251 4.67219 89.0198 4.2882C88.6251 3.90419 88.0331 3.71219 87.2438 3.71219C86.6998 3.71219 86.1824 3.80286 85.6918 3.98419C85.2011 4.16553 84.7851 4.40553 84.4438 4.7042L83.9318 3.85619C84.3584 3.49353 84.8704 3.21619 85.4678 3.02419C86.0651 2.82153 86.6944 2.72019 87.3558 2.72019C88.4438 2.72019 89.2811 2.99219 89.8678 3.53619C90.4651 4.06953 90.7638 4.88553 90.7638 5.9842V11.2002H89.6758ZM86.7798 11.2802C86.1504 11.2802 85.6011 11.1789 85.1318 10.9762C84.6731 10.7629 84.3211 10.4749 84.0758 10.1122C83.8304 9.73886 83.7078 9.3122 83.7078 8.8322C83.7078 8.39486 83.8091 8.0002 84.0118 7.6482C84.2251 7.28553 84.5664 6.99753 85.0358 6.78419C85.5158 6.56019 86.1558 6.44819 86.9558 6.44819H89.8518V7.2962H86.9878C86.1771 7.2962 85.6118 7.4402 85.2918 7.7282C84.9824 8.0162 84.8278 8.37353 84.8278 8.8002C84.8278 9.2802 85.0144 9.6642 85.3878 9.9522C85.7611 10.2402 86.2838 10.3842 86.9558 10.3842C87.5958 10.3842 88.1451 10.2402 88.6038 9.9522C89.0731 9.65353 89.4144 9.22686 89.6278 8.6722L89.8838 9.4562C89.6704 10.0109 89.2971 10.4535 88.7638 10.7842C88.2411 11.1149 87.5798 11.2802 86.7798 11.2802ZM97.4333 14.3842C96.6653 14.3842 95.9293 14.2722 95.2253 14.0482C94.5213 13.8242 93.9506 13.5042 93.5133 13.0882L94.0893 12.2242C94.4839 12.5762 94.9693 12.8535 95.5453 13.0562C96.1319 13.2695 96.7506 13.3762 97.4013 13.3762C98.4679 13.3762 99.2519 13.1255 99.7533 12.6242C100.255 12.1335 100.505 11.3655 100.505 10.3202V8.2242L100.665 6.78419L100.553 5.34419V2.80019H101.641V10.1762C101.641 11.6269 101.284 12.6882 100.569 13.3602C99.8653 14.0429 98.8199 14.3842 97.4333 14.3842ZM97.2253 10.8802C96.4253 10.8802 95.7053 10.7095 95.0653 10.3682C94.4253 10.0162 93.9186 9.53086 93.5453 8.9122C93.1826 8.29353 93.0013 7.5842 93.0013 6.78419C93.0013 5.9842 93.1826 5.2802 93.5453 4.67219C93.9186 4.05353 94.4253 3.57353 95.0653 3.23219C95.7053 2.89086 96.4253 2.72019 97.2253 2.72019C97.9719 2.72019 98.6439 2.87486 99.2413 3.18419C99.8386 3.49353 100.313 3.95219 100.665 4.56019C101.017 5.1682 101.193 5.90953 101.193 6.78419C101.193 7.65886 101.017 8.4002 100.665 9.0082C100.313 9.6162 99.8386 10.0802 99.2413 10.4002C98.6439 10.7202 97.9719 10.8802 97.2253 10.8802ZM97.3373 9.8722C97.9559 9.8722 98.5053 9.7442 98.9853 9.4882C99.4653 9.22153 99.8439 8.85886 100.121 8.4002C100.399 7.93086 100.537 7.3922 100.537 6.78419C100.537 6.1762 100.399 5.64286 100.121 5.1842C99.8439 4.72553 99.4653 4.36819 98.9853 4.1122C98.5053 3.84553 97.9559 3.71219 97.3373 3.71219C96.7293 3.71219 96.1799 3.84553 95.6893 4.1122C95.2093 4.36819 94.8306 4.72553 94.5533 5.1842C94.2866 5.64286 94.1533 6.1762 94.1533 6.78419C94.1533 7.3922 94.2866 7.93086 94.5533 8.4002C94.8306 8.85886 95.2093 9.22153 95.6893 9.4882C96.1799 9.7442 96.7293 9.8722 97.3373 9.8722ZM108.37 11.2802C107.496 11.2802 106.728 11.0989 106.066 10.7362C105.405 10.3629 104.888 9.8562 104.514 9.2162C104.141 8.56553 103.954 7.8242 103.954 6.9922C103.954 6.1602 104.13 5.42419 104.482 4.78419C104.845 4.14419 105.336 3.64286 105.954 3.28019C106.584 2.90686 107.288 2.72019 108.066 2.72019C108.856 2.72019 109.554 2.90153 110.162 3.26419C110.781 3.61619 111.266 4.11753 111.618 4.7682C111.97 5.4082 112.146 6.14953 112.146 6.9922C112.146 7.04553 112.141 7.1042 112.13 7.1682C112.13 7.22153 112.13 7.2802 112.13 7.3442H104.818V6.4962H111.522L111.074 6.8322C111.074 6.2242 110.941 5.68553 110.674 5.2162C110.418 4.73619 110.066 4.36286 109.618 4.09619C109.17 3.82953 108.653 3.6962 108.066 3.6962C107.49 3.6962 106.973 3.82953 106.514 4.09619C106.056 4.36286 105.698 4.73619 105.442 5.2162C105.186 5.69619 105.058 6.24553 105.058 6.86419V7.04019C105.058 7.6802 105.197 8.24553 105.474 8.7362C105.762 9.2162 106.157 9.59486 106.658 9.8722C107.17 10.1389 107.752 10.2722 108.402 10.2722C108.914 10.2722 109.389 10.1815 109.826 10.0002C110.274 9.81886 110.658 9.54153 110.978 9.1682L111.618 9.9042C111.245 10.3522 110.776 10.6935 110.21 10.9282C109.656 11.1629 109.042 11.2802 108.37 11.2802Z" fill="#333333"/>
</svg>
