<svg width="314" height="31" viewBox="0 0 314 31" fill="none" xmlns="http://www.w3.org/2000/svg">
<path d="M8.83201 24.0641C7.08267 24.0641 5.40801 23.8188 3.80801 23.3281C2.20801 22.8161 0.938672 22.1655 4.88758e-06 21.3761L1.44001 18.1441C2.33601 18.8481 3.44534 19.4348 4.76801 19.9041C6.09067 20.3735 7.44534 20.6081 8.83201 20.6081C10.0053 20.6081 10.9547 20.4801 11.68 20.2241C12.4053 19.9681 12.9387 19.6268 13.28 19.2001C13.6213 18.7521 13.792 18.2508 13.792 17.6961C13.792 17.0135 13.5467 16.4695 13.056 16.0641C12.5653 15.6375 11.9253 15.3068 11.136 15.0721C10.368 14.8161 9.50401 14.5815 8.54401 14.3681C7.60534 14.1548 6.65601 13.9095 5.69601 13.6321C4.75734 13.3335 3.89334 12.9601 3.104 12.5121C2.336 12.0428 1.70667 11.4241 1.21601 10.6561C0.725338 9.88814 0.480005 8.90681 0.480005 7.71214C0.480005 6.49614 0.800005 5.38681 1.44001 4.38414C2.10134 3.36014 3.09334 2.54947 4.41601 1.95214C5.76001 1.33347 7.45601 1.02414 9.50401 1.02414C10.848 1.02414 12.1813 1.19481 13.504 1.53614C14.8267 1.87747 15.9787 2.36814 16.96 3.00814L15.648 6.24014C14.6453 5.64281 13.6107 5.20547 12.544 4.92814C11.4773 4.62947 10.4533 4.48014 9.47201 4.48014C8.32001 4.48014 7.38134 4.61881 6.65601 4.89614C5.95201 5.17347 5.42934 5.53614 5.08801 5.98414C4.76801 6.43214 4.60801 6.94414 4.60801 7.52014C4.60801 8.20281 4.84267 8.75747 5.31201 9.18414C5.80267 9.58947 6.43201 9.90947 7.20001 10.1441C7.98934 10.3788 8.86401 10.6135 9.82401 10.8481C10.784 11.0615 11.7333 11.3068 12.672 11.5841C13.632 11.8615 14.496 12.2241 15.264 12.6721C16.0533 13.1201 16.6827 13.7281 17.152 14.4961C17.6427 15.2641 17.888 16.2348 17.888 17.4081C17.888 18.6028 17.5573 19.7121 16.896 20.7361C16.256 21.7388 15.264 22.5495 13.92 23.1681C12.576 23.7655 10.88 24.0641 8.83201 24.0641ZM29.661 23.9681C27.7623 23.9681 26.0983 23.5948 24.669 22.8481C23.261 22.0801 22.1623 21.0348 21.373 19.7121C20.605 18.3895 20.221 16.8855 20.221 15.2001C20.221 13.4935 20.5943 11.9895 21.341 10.6881C22.109 9.36547 23.1543 8.33081 24.477 7.58414C25.821 6.83747 27.3463 6.46414 29.053 6.46414C30.717 6.46414 32.1997 6.82681 33.501 7.55214C34.8023 8.27747 35.8263 9.30147 36.573 10.6241C37.3197 11.9468 37.693 13.5041 37.693 15.2961C37.693 15.4668 37.6823 15.6588 37.661 15.8721C37.661 16.0855 37.6503 16.2881 37.629 16.4801H23.389V13.8241H35.517L33.949 14.6561C33.9703 13.6748 33.7677 12.8108 33.341 12.0641C32.9143 11.3175 32.3277 10.7308 31.581 10.3041C30.8557 9.87747 30.013 9.66414 29.053 9.66414C28.0717 9.66414 27.2077 9.87747 26.461 10.3041C25.7357 10.7308 25.1597 11.3281 24.733 12.0961C24.3277 12.8428 24.125 13.7281 24.125 14.7521V15.3921C24.125 16.4161 24.3597 17.3228 24.829 18.1121C25.2983 18.9015 25.9597 19.5095 26.813 19.9361C27.6663 20.3628 28.6477 20.5761 29.757 20.5761C30.717 20.5761 31.581 20.4268 32.349 20.1281C33.117 19.8295 33.7997 19.3601 34.397 18.7201L36.541 21.1841C35.773 22.0801 34.8023 22.7735 33.629 23.2641C32.477 23.7335 31.1543 23.9681 29.661 23.9681ZM51.2313 6.46414C52.5966 6.46414 53.8126 6.73081 54.8793 7.26414C55.9673 7.79747 56.8206 8.61881 57.4393 9.72814C58.0579 10.8161 58.3673 12.2241 58.3673 13.9521V23.7441H54.3673V14.4641C54.3673 12.9495 54.0046 11.8188 53.2793 11.0721C52.5753 10.3255 51.5833 9.95214 50.3033 9.95214C49.3646 9.95214 48.5326 10.1441 47.8073 10.5281C47.0819 10.9121 46.5166 11.4881 46.1113 12.2561C45.7273 13.0028 45.5353 13.9521 45.5353 15.1041V23.7441H41.5353V6.65614H45.3433V11.2641L44.6713 9.85614C45.2686 8.76814 46.1326 7.93614 47.2633 7.36014C48.4153 6.76281 49.7379 6.46414 51.2313 6.46414ZM70.7048 23.9681C69.0621 23.9681 67.5794 23.6055 66.2568 22.8801C64.9554 22.1335 63.9314 21.1095 63.1848 19.8081C62.4381 18.5068 62.0648 16.9708 62.0648 15.2001C62.0648 13.4295 62.4381 11.8935 63.1848 10.5921C63.9314 9.29081 64.9554 8.27747 66.2568 7.55214C67.5794 6.82681 69.0621 6.46414 70.7048 6.46414C72.1341 6.46414 73.4141 6.78414 74.5448 7.42414C75.6754 8.04281 76.5714 8.99214 77.2328 10.2721C77.8941 11.5521 78.2248 13.1948 78.2248 15.2001C78.2248 17.1841 77.9048 18.8268 77.2648 20.1281C76.6248 21.4081 75.7394 22.3681 74.6088 23.0081C73.4781 23.6481 72.1768 23.9681 70.7048 23.9681ZM71.1848 20.5441C72.1448 20.5441 72.9981 20.3308 73.7448 19.9041C74.5128 19.4775 75.1208 18.8588 75.5688 18.0481C76.0381 17.2375 76.2728 16.2881 76.2728 15.2001C76.2728 14.0908 76.0381 13.1415 75.5688 12.3521C75.1208 11.5415 74.5128 10.9228 73.7448 10.4961C72.9981 10.0695 72.1448 9.85614 71.1848 9.85614C70.2248 9.85614 69.3608 10.0695 68.5928 10.4961C67.8461 10.9228 67.2381 11.5415 66.7688 12.3521C66.3208 13.1415 66.0968 14.0908 66.0968 15.2001C66.0968 16.2881 66.3208 17.2375 66.7688 18.0481C67.2381 18.8588 67.8461 19.4775 68.5928 19.9041C69.3608 20.3308 70.2248 20.5441 71.1848 20.5441ZM76.3688 23.7441V19.7121L76.5288 15.1681L76.2088 10.6241V0.000139236H80.1768V23.7441H76.3688ZM101.517 23.9681C100.067 23.9681 98.7866 23.7015 97.6773 23.1681C96.5679 22.6135 95.7039 21.7815 95.0853 20.6721C94.4666 19.5415 94.1573 18.1228 94.1573 16.4161V6.65614H98.1573V15.8721C98.1573 17.4081 98.4986 18.5601 99.1813 19.3281C99.8853 20.0748 100.877 20.4481 102.157 20.4481C103.096 20.4481 103.907 20.2561 104.589 19.8721C105.293 19.4881 105.837 18.9121 106.221 18.1441C106.627 17.3761 106.829 16.4268 106.829 15.2961V6.65614H110.829V23.7441H107.021V19.1361L107.693 20.5441C107.117 21.6535 106.275 22.5068 105.165 23.1041C104.056 23.6801 102.84 23.9681 101.517 23.9681ZM121.347 23.9681C119.917 23.9681 118.541 23.7868 117.219 23.4241C115.917 23.0401 114.883 22.5815 114.115 22.0481L115.651 19.0081C116.419 19.4988 117.336 19.9041 118.403 20.2241C119.469 20.5441 120.536 20.7041 121.603 20.7041C122.861 20.7041 123.768 20.5335 124.323 20.1921C124.899 19.8508 125.187 19.3921 125.187 18.8161C125.187 18.3468 124.995 17.9948 124.611 17.7601C124.227 17.5041 123.725 17.3121 123.107 17.1841C122.488 17.0561 121.795 16.9388 121.027 16.8321C120.28 16.7255 119.523 16.5868 118.755 16.4161C118.008 16.2241 117.325 15.9575 116.707 15.6161C116.088 15.2535 115.587 14.7735 115.203 14.1761C114.819 13.5788 114.627 12.7895 114.627 11.8081C114.627 10.7201 114.936 9.78147 115.555 8.99214C116.173 8.18147 117.037 7.56281 118.147 7.13614C119.277 6.68814 120.611 6.46414 122.147 6.46414C123.299 6.46414 124.461 6.59214 125.635 6.84814C126.808 7.10414 127.779 7.46681 128.547 7.93614L127.011 10.9761C126.2 10.4855 125.379 10.1548 124.547 9.98414C123.736 9.79214 122.925 9.69614 122.115 9.69614C120.899 9.69614 119.992 9.87747 119.395 10.2401C118.819 10.6028 118.531 11.0615 118.531 11.6161C118.531 12.1281 118.723 12.5121 119.107 12.7681C119.491 13.0241 119.992 13.2268 120.611 13.3761C121.229 13.5255 121.912 13.6535 122.659 13.7601C123.427 13.8455 124.184 13.9841 124.931 14.1761C125.677 14.3681 126.36 14.6348 126.979 14.9761C127.619 15.2961 128.131 15.7548 128.515 16.3521C128.899 16.9495 129.091 17.7281 129.091 18.6881C129.091 19.7548 128.771 20.6828 128.131 21.4721C127.512 22.2615 126.627 22.8801 125.475 23.3281C124.323 23.7548 122.947 23.9681 121.347 23.9681ZM151.907 23.7441V20.2881L151.683 19.5521V13.5041C151.683 12.3308 151.331 11.4241 150.627 10.7841C149.923 10.1228 148.856 9.79214 147.427 9.79214C146.467 9.79214 145.518 9.94147 144.579 10.2401C143.662 10.5388 142.883 10.9548 142.243 11.4881L140.675 8.57614C141.592 7.87214 142.68 7.34947 143.939 7.00814C145.219 6.64547 146.542 6.46414 147.907 6.46414C150.382 6.46414 152.291 7.06147 153.635 8.25614C155 9.42947 155.683 11.2535 155.683 13.7281V23.7441H151.907ZM146.531 23.9681C145.251 23.9681 144.131 23.7548 143.171 23.3281C142.211 22.8801 141.464 22.2721 140.931 21.5041C140.419 20.7148 140.163 19.8295 140.163 18.8481C140.163 17.8881 140.387 17.0241 140.835 16.2561C141.304 15.4881 142.062 14.8801 143.107 14.4321C144.152 13.9841 145.539 13.7601 147.267 13.7601H152.227V16.4161H147.555C146.19 16.4161 145.272 16.6401 144.803 17.0881C144.334 17.5148 144.099 18.0481 144.099 18.6881C144.099 19.4135 144.387 19.9895 144.963 20.4161C145.539 20.8428 146.339 21.0561 147.363 21.0561C148.344 21.0561 149.219 20.8321 149.987 20.3841C150.776 19.9361 151.342 19.2748 151.683 18.4001L152.355 20.8001C151.971 21.8028 151.278 22.5815 150.275 23.1361C149.294 23.6908 148.046 23.9681 146.531 23.9681ZM191.228 6.46414C192.594 6.46414 193.799 6.73081 194.844 7.26414C195.911 7.79747 196.743 8.61881 197.34 9.72814C197.938 10.8161 198.236 12.2241 198.236 13.9521V23.7441H194.236V14.4641C194.236 12.9495 193.906 11.8188 193.244 11.0721C192.583 10.3255 191.634 9.95214 190.396 9.95214C189.522 9.95214 188.743 10.1441 188.06 10.5281C187.399 10.9121 186.876 11.4775 186.492 12.2241C186.13 12.9708 185.948 13.9201 185.948 15.0721V23.7441H181.948V14.4641C181.948 12.9495 181.618 11.8188 180.956 11.0721C180.295 10.3255 179.346 9.95214 178.108 9.95214C177.234 9.95214 176.455 10.1441 175.772 10.5281C175.111 10.9121 174.588 11.4775 174.204 12.2241C173.842 12.9708 173.66 13.9201 173.66 15.0721V23.7441H169.66V6.65614H173.468V11.2001L172.796 9.85614C173.372 8.74681 174.204 7.90414 175.292 7.32814C176.402 6.75214 177.66 6.46414 179.068 6.46414C180.668 6.46414 182.055 6.85881 183.228 7.64814C184.423 8.43747 185.212 9.63214 185.596 11.2321L184.028 10.6881C184.583 9.40814 185.5 8.38414 186.78 7.61614C188.06 6.84814 189.543 6.46414 191.228 6.46414ZM211.411 23.9681C209.512 23.9681 207.848 23.5948 206.419 22.8481C205.011 22.0801 203.912 21.0348 203.123 19.7121C202.355 18.3895 201.971 16.8855 201.971 15.2001C201.971 13.4935 202.344 11.9895 203.091 10.6881C203.859 9.36547 204.904 8.33081 206.227 7.58414C207.571 6.83747 209.096 6.46414 210.803 6.46414C212.467 6.46414 213.95 6.82681 215.251 7.55214C216.552 8.27747 217.576 9.30147 218.323 10.6241C219.07 11.9468 219.443 13.5041 219.443 15.2961C219.443 15.4668 219.432 15.6588 219.411 15.8721C219.411 16.0855 219.4 16.2881 219.379 16.4801H205.139V13.8241H217.267L215.699 14.6561C215.72 13.6748 215.518 12.8108 215.091 12.0641C214.664 11.3175 214.078 10.7308 213.331 10.3041C212.606 9.87747 211.763 9.66414 210.803 9.66414C209.822 9.66414 208.958 9.87747 208.211 10.3041C207.486 10.7308 206.91 11.3281 206.483 12.0961C206.078 12.8428 205.875 13.7281 205.875 14.7521V15.3921C205.875 16.4161 206.11 17.3228 206.579 18.1121C207.048 18.9015 207.71 19.5095 208.563 19.9361C209.416 20.3628 210.398 20.5761 211.507 20.5761C212.467 20.5761 213.331 20.4268 214.099 20.1281C214.867 19.8295 215.55 19.3601 216.147 18.7201L218.291 21.1841C217.523 22.0801 216.552 22.7735 215.379 23.2641C214.227 23.7335 212.904 23.9681 211.411 23.9681ZM228.565 23.9681C227.136 23.9681 225.76 23.7868 224.437 23.4241C223.136 23.0401 222.101 22.5815 221.333 22.0481L222.869 19.0081C223.637 19.4988 224.555 19.9041 225.621 20.2241C226.688 20.5441 227.755 20.7041 228.821 20.7041C230.08 20.7041 230.987 20.5335 231.541 20.1921C232.117 19.8508 232.405 19.3921 232.405 18.8161C232.405 18.3468 232.213 17.9948 231.829 17.7601C231.445 17.5041 230.944 17.3121 230.325 17.1841C229.707 17.0561 229.013 16.9388 228.245 16.8321C227.499 16.7255 226.741 16.5868 225.973 16.4161C225.227 16.2241 224.544 15.9575 223.925 15.6161C223.307 15.2535 222.805 14.7735 222.421 14.1761C222.037 13.5788 221.845 12.7895 221.845 11.8081C221.845 10.7201 222.155 9.78147 222.773 8.99214C223.392 8.18147 224.256 7.56281 225.365 7.13614C226.496 6.68814 227.829 6.46414 229.365 6.46414C230.517 6.46414 231.68 6.59214 232.853 6.84814C234.027 7.10414 234.997 7.46681 235.765 7.93614L234.229 10.9761C233.419 10.4855 232.597 10.1548 231.765 9.98414C230.955 9.79214 230.144 9.69614 229.333 9.69614C228.117 9.69614 227.211 9.87747 226.613 10.2401C226.037 10.6028 225.749 11.0615 225.749 11.6161C225.749 12.1281 225.941 12.5121 226.325 12.7681C226.709 13.0241 227.211 13.2268 227.829 13.3761C228.448 13.5255 229.131 13.6535 229.877 13.7601C230.645 13.8455 231.403 13.9841 232.149 14.1761C232.896 14.3681 233.579 14.6348 234.197 14.9761C234.837 15.2961 235.349 15.7548 235.733 16.3521C236.117 16.9495 236.309 17.7281 236.309 18.6881C236.309 19.7548 235.989 20.6828 235.349 21.4721C234.731 22.2615 233.845 22.8801 232.693 23.3281C231.541 23.7548 230.165 23.9681 228.565 23.9681ZM245.034 23.9681C243.605 23.9681 242.229 23.7868 240.906 23.4241C239.605 23.0401 238.57 22.5815 237.802 22.0481L239.338 19.0081C240.106 19.4988 241.023 19.9041 242.09 20.2241C243.157 20.5441 244.223 20.7041 245.29 20.7041C246.549 20.7041 247.455 20.5335 248.01 20.1921C248.586 19.8508 248.874 19.3921 248.874 18.8161C248.874 18.3468 248.682 17.9948 248.298 17.7601C247.914 17.5041 247.413 17.3121 246.794 17.1841C246.175 17.0561 245.482 16.9388 244.714 16.8321C243.967 16.7255 243.21 16.5868 242.442 16.4161C241.695 16.2241 241.013 15.9575 240.394 15.6161C239.775 15.2535 239.274 14.7735 238.89 14.1761C238.506 13.5788 238.314 12.7895 238.314 11.8081C238.314 10.7201 238.623 9.78147 239.242 8.99214C239.861 8.18147 240.725 7.56281 241.834 7.13614C242.965 6.68814 244.298 6.46414 245.834 6.46414C246.986 6.46414 248.149 6.59214 249.322 6.84814C250.495 7.10414 251.466 7.46681 252.234 7.93614L250.698 10.9761C249.887 10.4855 249.066 10.1548 248.234 9.98414C247.423 9.79214 246.613 9.69614 245.802 9.69614C244.586 9.69614 243.679 9.87747 243.082 10.2401C242.506 10.6028 242.218 11.0615 242.218 11.6161C242.218 12.1281 242.41 12.5121 242.794 12.7681C243.178 13.0241 243.679 13.2268 244.298 13.3761C244.917 13.5255 245.599 13.6535 246.346 13.7601C247.114 13.8455 247.871 13.9841 248.618 14.1761C249.365 14.3681 250.047 14.6348 250.666 14.9761C251.306 15.2961 251.818 15.7548 252.202 16.3521C252.586 16.9495 252.778 17.7281 252.778 18.6881C252.778 19.7548 252.458 20.6828 251.818 21.4721C251.199 22.2615 250.314 22.8801 249.162 23.3281C248.01 23.7548 246.634 23.9681 245.034 23.9681ZM266.751 23.7441V20.2881L266.527 19.5521V13.5041C266.527 12.3308 266.175 11.4241 265.471 10.7841C264.767 10.1228 263.7 9.79214 262.271 9.79214C261.311 9.79214 260.361 9.94147 259.423 10.2401C258.505 10.5388 257.727 10.9548 257.087 11.4881L255.519 8.57614C256.436 7.87214 257.524 7.34947 258.783 7.00814C260.063 6.64547 261.385 6.46414 262.751 6.46414C265.225 6.46414 267.135 7.06147 268.479 8.25614C269.844 9.42947 270.527 11.2535 270.527 13.7281V23.7441H266.751ZM261.375 23.9681C260.095 23.9681 258.975 23.7548 258.015 23.3281C257.055 22.8801 256.308 22.2721 255.775 21.5041C255.263 20.7148 255.007 19.8295 255.007 18.8481C255.007 17.8881 255.231 17.0241 255.679 16.2561C256.148 15.4881 256.905 14.8801 257.951 14.4321C258.996 13.9841 260.383 13.7601 262.111 13.7601H267.071V16.4161H262.399C261.033 16.4161 260.116 16.6401 259.647 17.0881C259.177 17.5148 258.943 18.0481 258.943 18.6881C258.943 19.4135 259.231 19.9895 259.807 20.4161C260.383 20.8428 261.183 21.0561 262.207 21.0561C263.188 21.0561 264.063 20.8321 264.831 20.3841C265.62 19.9361 266.185 19.2748 266.527 18.4001L267.199 20.8001C266.815 21.8028 266.121 22.5815 265.119 23.1361C264.137 23.6908 262.889 23.9681 261.375 23.9681ZM283.436 30.1761C281.857 30.1761 280.31 29.9628 278.796 29.5361C277.302 29.1308 276.076 28.5335 275.116 27.7441L276.908 24.7361C277.654 25.3548 278.593 25.8455 279.724 26.2081C280.876 26.5921 282.038 26.7841 283.212 26.7841C285.089 26.7841 286.465 26.3468 287.34 25.4721C288.214 24.6188 288.652 23.3281 288.652 21.6001V18.5601L288.972 14.6881L288.844 10.8161V6.65614H292.652V21.1521C292.652 24.2455 291.862 26.5175 290.284 27.9681C288.705 29.4401 286.422 30.1761 283.436 30.1761ZM282.924 22.9761C281.302 22.9761 279.83 22.6348 278.508 21.9521C277.206 21.2481 276.172 20.2775 275.404 19.0401C274.657 17.8028 274.284 16.3521 274.284 14.6881C274.284 13.0455 274.657 11.6055 275.404 10.3681C276.172 9.13081 277.206 8.17081 278.508 7.48814C279.83 6.80547 281.302 6.46414 282.924 6.46414C284.374 6.46414 285.676 6.75214 286.828 7.32814C287.98 7.90414 288.897 8.80014 289.58 10.0161C290.284 11.2321 290.636 12.7895 290.636 14.6881C290.636 16.5868 290.284 18.1548 289.58 19.3921C288.897 20.6081 287.98 21.5148 286.828 22.1121C285.676 22.6881 284.374 22.9761 282.924 22.9761ZM283.532 19.5841C284.534 19.5841 285.43 19.3815 286.22 18.9761C287.009 18.5495 287.617 17.9735 288.044 17.2481C288.492 16.5015 288.716 15.6481 288.716 14.6881C288.716 13.7281 288.492 12.8855 288.044 12.1601C287.617 11.4135 287.009 10.8481 286.22 10.4641C285.43 10.0588 284.534 9.85614 283.532 9.85614C282.529 9.85614 281.622 10.0588 280.812 10.4641C280.022 10.8481 279.404 11.4135 278.956 12.1601C278.529 12.8855 278.316 13.7281 278.316 14.6881C278.316 15.6481 278.529 16.5015 278.956 17.2481C279.404 17.9735 280.022 18.5495 280.812 18.9761C281.622 19.3815 282.529 19.5841 283.532 19.5841ZM305.942 23.9681C304.044 23.9681 302.38 23.5948 300.95 22.8481C299.542 22.0801 298.444 21.0348 297.654 19.7121C296.886 18.3895 296.502 16.8855 296.502 15.2001C296.502 13.4935 296.876 11.9895 297.622 10.6881C298.39 9.36547 299.436 8.33081 300.758 7.58414C302.102 6.83747 303.628 6.46414 305.334 6.46414C306.998 6.46414 308.481 6.82681 309.782 7.55214C311.084 8.27747 312.108 9.30147 312.854 10.6241C313.601 11.9468 313.974 13.5041 313.974 15.2961C313.974 15.4668 313.964 15.6588 313.942 15.8721C313.942 16.0855 313.932 16.2881 313.91 16.4801H299.67V13.8241H311.798L310.23 14.6561C310.252 13.6748 310.049 12.8108 309.622 12.0641C309.196 11.3175 308.609 10.7308 307.862 10.3041C307.137 9.87747 306.294 9.66414 305.334 9.66414C304.353 9.66414 303.489 9.87747 302.742 10.3041C302.017 10.7308 301.441 11.3281 301.014 12.0961C300.609 12.8428 300.406 13.7281 300.406 14.7521V15.3921C300.406 16.4161 300.641 17.3228 301.11 18.1121C301.58 18.9015 302.241 19.5095 303.094 19.9361C303.948 20.3628 304.929 20.5761 306.038 20.5761C306.998 20.5761 307.862 20.4268 308.63 20.1281C309.398 19.8295 310.081 19.3601 310.678 18.7201L312.822 21.1841C312.054 22.0801 311.084 22.7735 309.91 23.2641C308.758 23.7335 307.436 23.9681 305.942 23.9681Z" fill="black"/>
</svg>
