<svg width="639" height="72" viewBox="0 0 639 72" fill="none" xmlns="http://www.w3.org/2000/svg">
<path d="M7.42399 24.7041V5.8241H-5.97537e-06V2.3041H19.008V5.8241H11.584V24.7041H7.42399ZM28.028 24.9281C26.1293 24.9281 24.4653 24.5548 23.036 23.8081C21.628 23.0401 20.5293 21.9948 19.74 20.6721C18.972 19.3494 18.588 17.8454 18.588 16.1601C18.588 14.4534 18.9613 12.9494 19.708 11.6481C20.476 10.3254 21.5213 9.29077 22.844 8.5441C24.188 7.79743 25.7133 7.4241 27.42 7.4241C29.084 7.4241 30.5667 7.78677 31.868 8.5121C33.1693 9.23743 34.1933 10.2614 34.94 11.5841C35.6867 12.9068 36.06 14.4641 36.06 16.2561C36.06 16.4268 36.0493 16.6188 36.028 16.8321C36.028 17.0454 36.0173 17.2481 35.996 17.4401H21.756V14.7841H33.884L32.316 15.6161C32.3373 14.6348 32.1347 13.7708 31.708 13.0241C31.2813 12.2774 30.6947 11.6908 29.948 11.2641C29.2227 10.8374 28.38 10.6241 27.42 10.6241C26.4387 10.6241 25.5747 10.8374 24.828 11.2641C24.1027 11.6908 23.5267 12.2881 23.1 13.0561C22.6947 13.8028 22.492 14.6881 22.492 15.7121V16.3521C22.492 17.3761 22.7267 18.2828 23.196 19.0721C23.6653 19.8614 24.3267 20.4694 25.18 20.8961C26.0333 21.3228 27.0147 21.5361 28.124 21.5361C29.084 21.5361 29.948 21.3868 30.716 21.0881C31.484 20.7894 32.1667 20.3201 32.764 19.6801L34.908 22.1441C34.14 23.0401 33.1693 23.7334 31.996 24.2241C30.844 24.6934 29.5213 24.9281 28.028 24.9281ZM39.9022 24.7041V0.9601H43.9022V24.7041H39.9022ZM49.1522 24.7041V0.9601H53.1522V24.7041H49.1522ZM74.478 24.9281C73.0273 24.9281 71.7473 24.6614 70.638 24.1281C69.5287 23.5734 68.6647 22.7414 68.046 21.6321C67.4273 20.5014 67.118 19.0828 67.118 17.3761V7.6161H71.118V16.8321C71.118 18.3681 71.4593 19.5201 72.142 20.2881C72.846 21.0348 73.838 21.4081 75.118 21.4081C76.0567 21.4081 76.8673 21.2161 77.55 20.8321C78.254 20.4481 78.798 19.8721 79.182 19.1041C79.5873 18.3361 79.79 17.3868 79.79 16.2561V7.6161H83.79V24.7041H79.982V20.0961L80.654 21.5041C80.078 22.6134 79.2353 23.4668 78.126 24.0641C77.0167 24.6401 75.8007 24.9281 74.478 24.9281ZM94.3072 24.9281C92.8779 24.9281 91.5019 24.7468 90.1792 24.3841C88.8779 24.0001 87.8432 23.5414 87.0752 23.0081L88.6112 19.9681C89.3792 20.4588 90.2966 20.8641 91.3632 21.1841C92.4299 21.5041 93.4966 21.6641 94.5632 21.6641C95.8219 21.6641 96.7286 21.4934 97.2832 21.1521C97.8592 20.8108 98.1472 20.3521 98.1472 19.7761C98.1472 19.3068 97.9552 18.9548 97.5712 18.7201C97.1872 18.4641 96.6859 18.2721 96.0672 18.1441C95.4486 18.0161 94.7552 17.8988 93.9872 17.7921C93.2406 17.6854 92.4832 17.5468 91.7152 17.3761C90.9686 17.1841 90.2859 16.9174 89.6672 16.5761C89.0486 16.2134 88.5472 15.7334 88.1632 15.1361C87.7792 14.5388 87.5872 13.7494 87.5872 12.7681C87.5872 11.6801 87.8966 10.7414 88.5152 9.9521C89.1339 9.14143 89.9979 8.52277 91.1072 8.0961C92.2379 7.6481 93.5712 7.4241 95.1072 7.4241C96.2592 7.4241 97.4219 7.5521 98.5952 7.8081C99.7686 8.0641 100.739 8.42677 101.507 8.8961L99.9712 11.9361C99.1606 11.4454 98.3392 11.1148 97.5072 10.9441C96.6966 10.7521 95.8859 10.6561 95.0752 10.6561C93.8592 10.6561 92.9526 10.8374 92.3552 11.2001C91.7792 11.5628 91.4912 12.0214 91.4912 12.5761C91.4912 13.0881 91.6832 13.4721 92.0672 13.7281C92.4512 13.9841 92.9526 14.1868 93.5712 14.3361C94.1899 14.4854 94.8726 14.6134 95.6192 14.7201C96.3872 14.8054 97.1446 14.9441 97.8912 15.1361C98.6379 15.3281 99.3206 15.5948 99.9392 15.9361C100.579 16.2561 101.091 16.7148 101.475 17.3121C101.859 17.9094 102.051 18.6881 102.051 19.6481C102.051 20.7148 101.731 21.6428 101.091 22.4321C100.473 23.2214 99.5872 23.8401 98.4352 24.2881C97.2832 24.7148 95.9072 24.9281 94.3072 24.9281ZM124.868 24.7041V21.2481L124.644 20.5121V14.4641C124.644 13.2908 124.292 12.3841 123.588 11.7441C122.884 11.0828 121.817 10.7521 120.388 10.7521C119.428 10.7521 118.478 10.9014 117.54 11.2001C116.622 11.4988 115.844 11.9148 115.204 12.4481L113.636 9.5361C114.553 8.8321 115.641 8.30943 116.9 7.9681C118.18 7.60543 119.502 7.4241 120.868 7.4241C123.342 7.4241 125.252 8.02143 126.596 9.2161C127.961 10.3894 128.644 12.2134 128.644 14.6881V24.7041H124.868ZM119.492 24.9281C118.212 24.9281 117.092 24.7148 116.132 24.2881C115.172 23.8401 114.425 23.2321 113.892 22.4641C113.38 21.6748 113.124 20.7894 113.124 19.8081C113.124 18.8481 113.348 17.9841 113.796 17.2161C114.265 16.4481 115.022 15.8401 116.068 15.3921C117.113 14.9441 118.5 14.7201 120.228 14.7201H125.188V17.3761H120.516C119.15 17.3761 118.233 17.6001 117.764 18.0481C117.294 18.4748 117.06 19.0081 117.06 19.6481C117.06 20.3734 117.348 20.9494 117.924 21.3761C118.5 21.8028 119.3 22.0161 120.324 22.0161C121.305 22.0161 122.18 21.7921 122.948 21.3441C123.737 20.8961 124.302 20.2348 124.644 19.3601L125.316 21.7601C124.932 22.7628 124.238 23.5414 123.236 24.0961C122.254 24.6508 121.006 24.9281 119.492 24.9281ZM143.249 24.9281C141.799 24.9281 140.508 24.6081 139.377 23.9681C138.247 23.3281 137.351 22.3681 136.689 21.0881C136.049 19.7868 135.729 18.1441 135.729 16.1601C135.729 14.1548 136.06 12.5121 136.721 11.2321C137.404 9.9521 138.311 9.00277 139.441 8.3841C140.593 7.7441 141.863 7.4241 143.249 7.4241C144.935 7.4241 146.417 7.78677 147.697 8.5121C148.999 9.23743 150.023 10.2508 150.769 11.5521C151.537 12.8534 151.921 14.3894 151.921 16.1601C151.921 17.9308 151.537 19.4668 150.769 20.7681C150.023 22.0694 148.999 23.0934 147.697 23.8401C146.417 24.5654 144.935 24.9281 143.249 24.9281ZM133.777 24.7041V0.9601H137.777V11.5841L137.457 16.1281L137.585 20.6721V24.7041H133.777ZM142.801 21.5041C143.761 21.5041 144.615 21.2908 145.361 20.8641C146.129 20.4374 146.737 19.8188 147.185 19.0081C147.633 18.1974 147.857 17.2481 147.857 16.1601C147.857 15.0508 147.633 14.1014 147.185 13.3121C146.737 12.5014 146.129 11.8828 145.361 11.4561C144.615 11.0294 143.761 10.8161 142.801 10.8161C141.841 10.8161 140.977 11.0294 140.209 11.4561C139.441 11.8828 138.833 12.5014 138.385 13.3121C137.937 14.1014 137.713 15.0508 137.713 16.1601C137.713 17.2481 137.937 18.1974 138.385 19.0081C138.833 19.8188 139.441 20.4374 140.209 20.8641C140.977 21.2908 141.841 21.5041 142.801 21.5041ZM163.395 24.9281C161.645 24.9281 160.088 24.5548 158.723 23.8081C157.357 23.0401 156.28 21.9948 155.491 20.6721C154.701 19.3494 154.307 17.8454 154.307 16.1601C154.307 14.4534 154.701 12.9494 155.491 11.6481C156.28 10.3254 157.357 9.29077 158.723 8.5441C160.088 7.79743 161.645 7.4241 163.395 7.4241C165.165 7.4241 166.733 7.79743 168.099 8.5441C169.485 9.29077 170.563 10.3148 171.331 11.6161C172.12 12.9174 172.515 14.4321 172.515 16.1601C172.515 17.8454 172.12 19.3494 171.331 20.6721C170.563 21.9948 169.485 23.0401 168.099 23.8081C166.733 24.5548 165.165 24.9281 163.395 24.9281ZM163.395 21.5041C164.376 21.5041 165.251 21.2908 166.019 20.8641C166.787 20.4374 167.384 19.8188 167.811 19.0081C168.259 18.1974 168.483 17.2481 168.483 16.1601C168.483 15.0508 168.259 14.1014 167.811 13.3121C167.384 12.5014 166.787 11.8828 166.019 11.4561C165.251 11.0294 164.387 10.8161 163.427 10.8161C162.445 10.8161 161.571 11.0294 160.803 11.4561C160.056 11.8828 159.459 12.5014 159.011 13.3121C158.563 14.1014 158.339 15.0508 158.339 16.1601C158.339 17.2481 158.563 18.1974 159.011 19.0081C159.459 19.8188 160.056 20.4374 160.803 20.8641C161.571 21.2908 162.435 21.5041 163.395 21.5041ZM183.572 24.9281C182.121 24.9281 180.841 24.6614 179.732 24.1281C178.622 23.5734 177.758 22.7414 177.14 21.6321C176.521 20.5014 176.212 19.0828 176.212 17.3761V7.6161H180.212V16.8321C180.212 18.3681 180.553 19.5201 181.236 20.2881C181.94 21.0348 182.932 21.4081 184.212 21.4081C185.15 21.4081 185.961 21.2161 186.644 20.8321C187.348 20.4481 187.892 19.8721 188.276 19.1041C188.681 18.3361 188.884 17.3868 188.884 16.2561V7.6161H192.884V24.7041H189.076V20.0961L189.748 21.5041C189.172 22.6134 188.329 23.4668 187.22 24.0641C186.11 24.6401 184.894 24.9281 183.572 24.9281ZM204.553 24.9281C202.676 24.9281 201.225 24.4481 200.201 23.4881C199.177 22.5068 198.665 21.0668 198.665 19.1681V3.8401H202.665V19.0721C202.665 19.8828 202.868 20.5121 203.273 20.9601C203.7 21.4081 204.286 21.6321 205.033 21.6321C205.929 21.6321 206.676 21.3974 207.273 20.9281L208.393 23.7761C207.924 24.1601 207.348 24.4481 206.665 24.6401C205.982 24.8321 205.278 24.9281 204.553 24.9281ZM195.849 10.9441V7.7441H207.241V10.9441H195.849ZM221.935 31.1361C221.103 31.1361 220.271 30.9974 219.439 30.7201C218.607 30.4428 217.914 30.0588 217.359 29.5681L218.959 26.6241C219.365 26.9868 219.823 27.2748 220.335 27.4881C220.847 27.7014 221.37 27.8081 221.903 27.8081C222.629 27.8081 223.215 27.6268 223.663 27.2641C224.111 26.9014 224.527 26.2934 224.911 25.4401L225.903 23.2001L226.223 22.7201L232.687 7.6161H236.527L228.527 26.0801C227.994 27.3601 227.397 28.3734 226.735 29.1201C226.095 29.8668 225.37 30.3894 224.559 30.6881C223.77 30.9868 222.895 31.1361 221.935 31.1361ZM225.455 25.3121L217.743 7.6161H221.903L228.175 22.3681L225.455 25.3121ZM246.238 24.9281C244.489 24.9281 242.932 24.5548 241.566 23.8081C240.201 23.0401 239.124 21.9948 238.334 20.6721C237.545 19.3494 237.15 17.8454 237.15 16.1601C237.15 14.4534 237.545 12.9494 238.334 11.6481C239.124 10.3254 240.201 9.29077 241.566 8.5441C242.932 7.79743 244.489 7.4241 246.238 7.4241C248.009 7.4241 249.577 7.79743 250.942 8.5441C252.329 9.29077 253.406 10.3148 254.174 11.6161C254.964 12.9174 255.358 14.4321 255.358 16.1601C255.358 17.8454 254.964 19.3494 254.174 20.6721C253.406 21.9948 252.329 23.0401 250.942 23.8081C249.577 24.5548 248.009 24.9281 246.238 24.9281ZM246.238 21.5041C247.22 21.5041 248.094 21.2908 248.862 20.8641C249.63 20.4374 250.228 19.8188 250.654 19.0081C251.102 18.1974 251.326 17.2481 251.326 16.1601C251.326 15.0508 251.102 14.1014 250.654 13.3121C250.228 12.5014 249.63 11.8828 248.862 11.4561C248.094 11.0294 247.23 10.8161 246.27 10.8161C245.289 10.8161 244.414 11.0294 243.646 11.4561C242.9 11.8828 242.302 12.5014 241.854 13.3121C241.406 14.1014 241.182 15.0508 241.182 16.1601C241.182 17.2481 241.406 18.1974 241.854 19.0081C242.302 19.8188 242.9 20.4374 243.646 20.8641C244.414 21.2908 245.278 21.5041 246.238 21.5041ZM266.415 24.9281C264.965 24.9281 263.685 24.6614 262.575 24.1281C261.466 23.5734 260.602 22.7414 259.983 21.6321C259.365 20.5014 259.055 19.0828 259.055 17.3761V7.6161H263.055V16.8321C263.055 18.3681 263.397 19.5201 264.079 20.2881C264.783 21.0348 265.775 21.4081 267.055 21.4081C267.994 21.4081 268.805 21.2161 269.487 20.8321C270.191 20.4481 270.735 19.8721 271.119 19.1041C271.525 18.3361 271.727 17.3868 271.727 16.2561V7.6161H275.727V24.7041H271.919V20.0961L272.591 21.5041C272.015 22.6134 271.173 23.4668 270.063 24.0641C268.954 24.6401 267.738 24.9281 266.415 24.9281ZM280.965 24.7041V7.6161H284.773V12.3201L284.325 10.9441C284.837 9.7921 285.637 8.91743 286.725 8.3201C287.834 7.72277 289.21 7.4241 290.853 7.4241V11.2321C290.682 11.1894 290.522 11.1681 290.373 11.1681C290.223 11.1468 290.074 11.1361 289.925 11.1361C288.41 11.1361 287.205 11.5841 286.309 12.4801C285.413 13.3548 284.965 14.6668 284.965 16.4161V24.7041H280.965ZM312.718 24.9281C311.267 24.9281 309.977 24.6081 308.846 23.9681C307.715 23.3281 306.819 22.3681 306.158 21.0881C305.518 19.7868 305.198 18.1441 305.198 16.1601C305.198 14.1548 305.529 12.5121 306.19 11.2321C306.873 9.9521 307.779 9.00277 308.91 8.3841C310.062 7.7441 311.331 7.4241 312.718 7.4241C314.403 7.4241 315.886 7.78677 317.166 8.5121C318.467 9.23743 319.491 10.2508 320.238 11.5521C321.006 12.8534 321.39 14.3894 321.39 16.1601C321.39 17.9308 321.006 19.4668 320.238 20.7681C319.491 22.0694 318.467 23.0934 317.166 23.8401C315.886 24.5654 314.403 24.9281 312.718 24.9281ZM303.246 24.7041V0.9601H307.246V11.5841L306.926 16.1281L307.054 20.6721V24.7041H303.246ZM312.27 21.5041C313.23 21.5041 314.083 21.2908 314.83 20.8641C315.598 20.4374 316.206 19.8188 316.654 19.0081C317.102 18.1974 317.326 17.2481 317.326 16.1601C317.326 15.0508 317.102 14.1014 316.654 13.3121C316.206 12.5014 315.598 11.8828 314.83 11.4561C314.083 11.0294 313.23 10.8161 312.27 10.8161C311.31 10.8161 310.446 11.0294 309.678 11.4561C308.91 11.8828 308.302 12.5014 307.854 13.3121C307.406 14.1014 307.182 15.0508 307.182 16.1601C307.182 17.2481 307.406 18.1974 307.854 19.0081C308.302 19.8188 308.91 20.4374 309.678 20.8641C310.446 21.2908 311.31 21.5041 312.27 21.5041ZM332.415 24.9281C330.965 24.9281 329.685 24.6614 328.575 24.1281C327.466 23.5734 326.602 22.7414 325.983 21.6321C325.365 20.5014 325.055 19.0828 325.055 17.3761V7.6161H329.055V16.8321C329.055 18.3681 329.397 19.5201 330.079 20.2881C330.783 21.0348 331.775 21.4081 333.055 21.4081C333.994 21.4081 334.805 21.2161 335.487 20.8321C336.191 20.4481 336.735 19.8721 337.119 19.1041C337.525 18.3361 337.727 17.3868 337.727 16.2561V7.6161H341.727V24.7041H337.919V20.0961L338.591 21.5041C338.015 22.6134 337.173 23.4668 336.063 24.0641C334.954 24.6401 333.738 24.9281 332.415 24.9281ZM352.245 24.9281C350.815 24.9281 349.439 24.7468 348.117 24.3841C346.815 24.0001 345.781 23.5414 345.013 23.0081L346.549 19.9681C347.317 20.4588 348.234 20.8641 349.301 21.1841C350.367 21.5041 351.434 21.6641 352.501 21.6641C353.759 21.6641 354.666 21.4934 355.221 21.1521C355.797 20.8108 356.085 20.3521 356.085 19.7761C356.085 19.3068 355.893 18.9548 355.509 18.7201C355.125 18.4641 354.623 18.2721 354.005 18.1441C353.386 18.0161 352.693 17.8988 351.925 17.7921C351.178 17.6854 350.421 17.5468 349.653 17.3761C348.906 17.1841 348.223 16.9174 347.605 16.5761C346.986 16.2134 346.485 15.7334 346.101 15.1361C345.717 14.5388 345.525 13.7494 345.525 12.7681C345.525 11.6801 345.834 10.7414 346.453 9.9521C347.071 9.14143 347.935 8.52277 349.045 8.0961C350.175 7.6481 351.509 7.4241 353.045 7.4241C354.197 7.4241 355.359 7.5521 356.533 7.8081C357.706 8.0641 358.677 8.42677 359.445 8.8961L357.909 11.9361C357.098 11.4454 356.277 11.1148 355.445 10.9441C354.634 10.7521 353.823 10.6561 353.013 10.6561C351.797 10.6561 350.89 10.8374 350.293 11.2001C349.717 11.5628 349.429 12.0214 349.429 12.5761C349.429 13.0881 349.621 13.4721 350.005 13.7281C350.389 13.9841 350.89 14.1868 351.509 14.3361C352.127 14.4854 352.81 14.6134 353.557 14.7201C354.325 14.8054 355.082 14.9441 355.829 15.1361C356.575 15.3281 357.258 15.5948 357.877 15.9361C358.517 16.2561 359.029 16.7148 359.413 17.3121C359.797 17.9094 359.989 18.6881 359.989 19.6481C359.989 20.7148 359.669 21.6428 359.029 22.4321C358.41 23.2214 357.525 23.8401 356.373 24.2881C355.221 24.7148 353.845 24.9281 352.245 24.9281ZM363.433 24.7041V7.6161H367.433V24.7041H363.433ZM365.449 4.8001C364.703 4.8001 364.084 4.56543 363.593 4.0961C363.124 3.62677 362.889 3.06143 362.889 2.4001C362.889 1.71743 363.124 1.1521 363.593 0.7041C364.084 0.234767 364.703 0.000101089 365.449 0.000101089C366.196 0.000101089 366.804 0.224101 367.273 0.6721C367.764 1.09877 368.009 1.64277 368.009 2.3041C368.009 3.0081 367.775 3.60543 367.305 4.0961C366.836 4.56543 366.217 4.8001 365.449 4.8001ZM382.379 7.4241C383.745 7.4241 384.961 7.69077 386.027 8.2241C387.115 8.75743 387.969 9.57877 388.587 10.6881C389.206 11.7761 389.515 13.1841 389.515 14.9121V24.7041H385.515V15.4241C385.515 13.9094 385.153 12.7788 384.427 12.0321C383.723 11.2854 382.731 10.9121 381.451 10.9121C380.513 10.9121 379.681 11.1041 378.955 11.4881C378.23 11.8721 377.665 12.4481 377.259 13.2161C376.875 13.9628 376.683 14.9121 376.683 16.0641V24.7041H372.683V7.6161H376.491V12.2241L375.819 10.8161C376.417 9.7281 377.281 8.8961 378.411 8.3201C379.563 7.72277 380.886 7.4241 382.379 7.4241ZM402.653 24.9281C400.754 24.9281 399.09 24.5548 397.661 23.8081C396.253 23.0401 395.154 21.9948 394.365 20.6721C393.597 19.3494 393.213 17.8454 393.213 16.1601C393.213 14.4534 393.586 12.9494 394.333 11.6481C395.101 10.3254 396.146 9.29077 397.469 8.5441C398.813 7.79743 400.338 7.4241 402.045 7.4241C403.709 7.4241 405.192 7.78677 406.493 8.5121C407.794 9.23743 408.818 10.2614 409.565 11.5841C410.312 12.9068 410.685 14.4641 410.685 16.2561C410.685 16.4268 410.674 16.6188 410.653 16.8321C410.653 17.0454 410.642 17.2481 410.621 17.4401H396.381V14.7841H408.509L406.941 15.6161C406.962 14.6348 406.76 13.7708 406.333 13.0241C405.906 12.2774 405.32 11.6908 404.573 11.2641C403.848 10.8374 403.005 10.6241 402.045 10.6241C401.064 10.6241 400.2 10.8374 399.453 11.2641C398.728 11.6908 398.152 12.2881 397.725 13.0561C397.32 13.8028 397.117 14.6881 397.117 15.7121V16.3521C397.117 17.3761 397.352 18.2828 397.821 19.0721C398.29 19.8614 398.952 20.4694 399.805 20.8961C400.658 21.3228 401.64 21.5361 402.749 21.5361C403.709 21.5361 404.573 21.3868 405.341 21.0881C406.109 20.7894 406.792 20.3201 407.389 19.6801L409.533 22.1441C408.765 23.0401 407.794 23.7334 406.621 24.2241C405.469 24.6934 404.146 24.9281 402.653 24.9281ZM419.807 24.9281C418.378 24.9281 417.002 24.7468 415.679 24.3841C414.378 24.0001 413.343 23.5414 412.575 23.0081L414.111 19.9681C414.879 20.4588 415.797 20.8641 416.863 21.1841C417.93 21.5041 418.997 21.6641 420.063 21.6641C421.322 21.6641 422.229 21.4934 422.783 21.1521C423.359 20.8108 423.647 20.3521 423.647 19.7761C423.647 19.3068 423.455 18.9548 423.071 18.7201C422.687 18.4641 422.186 18.2721 421.567 18.1441C420.949 18.0161 420.255 17.8988 419.487 17.7921C418.741 17.6854 417.983 17.5468 417.215 17.3761C416.469 17.1841 415.786 16.9174 415.167 16.5761C414.549 16.2134 414.047 15.7334 413.663 15.1361C413.279 14.5388 413.087 13.7494 413.087 12.7681C413.087 11.6801 413.397 10.7414 414.015 9.9521C414.634 9.14143 415.498 8.52277 416.607 8.0961C417.738 7.6481 419.071 7.4241 420.607 7.4241C421.759 7.4241 422.922 7.5521 424.095 7.8081C425.269 8.0641 426.239 8.42677 427.007 8.8961L425.471 11.9361C424.661 11.4454 423.839 11.1148 423.007 10.9441C422.197 10.7521 421.386 10.6561 420.575 10.6561C419.359 10.6561 418.453 10.8374 417.855 11.2001C417.279 11.5628 416.991 12.0214 416.991 12.5761C416.991 13.0881 417.183 13.4721 417.567 13.7281C417.951 13.9841 418.453 14.1868 419.071 14.3361C419.69 14.4854 420.373 14.6134 421.119 14.7201C421.887 14.8054 422.645 14.9441 423.391 15.1361C424.138 15.3281 424.821 15.5948 425.439 15.9361C426.079 16.2561 426.591 16.7148 426.975 17.3121C427.359 17.9094 427.551 18.6881 427.551 19.6481C427.551 20.7148 427.231 21.6428 426.591 22.4321C425.973 23.2214 425.087 23.8401 423.935 24.2881C422.783 24.7148 421.407 24.9281 419.807 24.9281ZM436.276 24.9281C434.847 24.9281 433.471 24.7468 432.148 24.3841C430.847 24.0001 429.812 23.5414 429.044 23.0081L430.58 19.9681C431.348 20.4588 432.265 20.8641 433.332 21.1841C434.399 21.5041 435.465 21.6641 436.532 21.6641C437.791 21.6641 438.697 21.4934 439.252 21.1521C439.828 20.8108 440.116 20.3521 440.116 19.7761C440.116 19.3068 439.924 18.9548 439.54 18.7201C439.156 18.4641 438.655 18.2721 438.036 18.1441C437.417 18.0161 436.724 17.8988 435.956 17.7921C435.209 17.6854 434.452 17.5468 433.684 17.3761C432.937 17.1841 432.255 16.9174 431.636 16.5761C431.017 16.2134 430.516 15.7334 430.132 15.1361C429.748 14.5388 429.556 13.7494 429.556 12.7681C429.556 11.6801 429.865 10.7414 430.484 9.9521C431.103 9.14143 431.967 8.52277 433.076 8.0961C434.207 7.6481 435.54 7.4241 437.076 7.4241C438.228 7.4241 439.391 7.5521 440.564 7.8081C441.737 8.0641 442.708 8.42677 443.476 8.8961L441.94 11.9361C441.129 11.4454 440.308 11.1148 439.476 10.9441C438.665 10.7521 437.855 10.6561 437.044 10.6561C435.828 10.6561 434.921 10.8374 434.324 11.2001C433.748 11.5628 433.46 12.0214 433.46 12.5761C433.46 13.0881 433.652 13.4721 434.036 13.7281C434.42 13.9841 434.921 14.1868 435.54 14.3361C436.159 14.4854 436.841 14.6134 437.588 14.7201C438.356 14.8054 439.113 14.9441 439.86 15.1361C440.607 15.3281 441.289 15.5948 441.908 15.9361C442.548 16.2561 443.06 16.7148 443.444 17.3121C443.828 17.9094 444.02 18.6881 444.02 19.6481C444.02 20.7148 443.7 21.6428 443.06 22.4321C442.441 23.2214 441.556 23.8401 440.404 24.2881C439.252 24.7148 437.876 24.9281 436.276 24.9281ZM466.836 24.7041V21.2481L466.612 20.5121V14.4641C466.612 13.2908 466.26 12.3841 465.556 11.7441C464.852 11.0828 463.786 10.7521 462.356 10.7521C461.396 10.7521 460.447 10.9014 459.508 11.2001C458.591 11.4988 457.812 11.9148 457.172 12.4481L455.604 9.5361C456.522 8.8321 457.61 8.30943 458.868 7.9681C460.148 7.60543 461.471 7.4241 462.836 7.4241C465.311 7.4241 467.22 8.02143 468.564 9.2161C469.93 10.3894 470.612 12.2134 470.612 14.6881V24.7041H466.836ZM461.46 24.9281C460.18 24.9281 459.06 24.7148 458.1 24.2881C457.14 23.8401 456.394 23.2321 455.86 22.4641C455.348 21.6748 455.092 20.7894 455.092 19.8081C455.092 18.8481 455.316 17.9841 455.764 17.2161C456.234 16.4481 456.991 15.8401 458.036 15.3921C459.082 14.9441 460.468 14.7201 462.196 14.7201H467.156V17.3761H462.484C461.119 17.3761 460.202 17.6001 459.732 18.0481C459.263 18.4748 459.028 19.0081 459.028 19.6481C459.028 20.3734 459.316 20.9494 459.892 21.3761C460.468 21.8028 461.268 22.0161 462.292 22.0161C463.274 22.0161 464.148 21.7921 464.916 21.3441C465.706 20.8961 466.271 20.2348 466.612 19.3601L467.284 21.7601C466.9 22.7628 466.207 23.5414 465.204 24.0961C464.223 24.6508 462.975 24.9281 461.46 24.9281ZM485.442 7.4241C486.807 7.4241 488.023 7.69077 489.09 8.2241C490.178 8.75743 491.031 9.57877 491.65 10.6881C492.269 11.7761 492.578 13.1841 492.578 14.9121V24.7041H488.578V15.4241C488.578 13.9094 488.215 12.7788 487.49 12.0321C486.786 11.2854 485.794 10.9121 484.514 10.9121C483.575 10.9121 482.743 11.1041 482.018 11.4881C481.293 11.8721 480.727 12.4481 480.322 13.2161C479.938 13.9628 479.746 14.9121 479.746 16.0641V24.7041H475.746V7.6161H479.554V12.2241L478.882 10.8161C479.479 9.7281 480.343 8.8961 481.474 8.3201C482.626 7.72277 483.949 7.4241 485.442 7.4241ZM504.915 24.9281C503.273 24.9281 501.79 24.5654 500.467 23.8401C499.166 23.0934 498.142 22.0694 497.395 20.7681C496.649 19.4668 496.275 17.9308 496.275 16.1601C496.275 14.3894 496.649 12.8534 497.395 11.5521C498.142 10.2508 499.166 9.23743 500.467 8.5121C501.79 7.78677 503.273 7.4241 504.915 7.4241C506.345 7.4241 507.625 7.7441 508.755 8.3841C509.886 9.00277 510.782 9.9521 511.443 11.2321C512.105 12.5121 512.435 14.1548 512.435 16.1601C512.435 18.1441 512.115 19.7868 511.475 21.0881C510.835 22.3681 509.95 23.3281 508.819 23.9681C507.689 24.6081 506.387 24.9281 504.915 24.9281ZM505.395 21.5041C506.355 21.5041 507.209 21.2908 507.955 20.8641C508.723 20.4374 509.331 19.8188 509.779 19.0081C510.249 18.1974 510.483 17.2481 510.483 16.1601C510.483 15.0508 510.249 14.1014 509.779 13.3121C509.331 12.5014 508.723 11.8828 507.955 11.4561C507.209 11.0294 506.355 10.8161 505.395 10.8161C504.435 10.8161 503.571 11.0294 502.803 11.4561C502.057 11.8828 501.449 12.5014 500.979 13.3121C500.531 14.1014 500.307 15.0508 500.307 16.1601C500.307 17.2481 500.531 18.1974 500.979 19.0081C501.449 19.8188 502.057 20.4374 502.803 20.8641C503.571 21.2908 504.435 21.5041 505.395 21.5041ZM510.579 24.7041V20.6721L510.739 16.1281L510.419 11.5841V0.9601H514.387V24.7041H510.579ZM532.272 24.7041L526 7.6161H529.776L535.152 22.6881H533.36L538.992 7.6161H542.352L547.824 22.6881H546.064L551.6 7.6161H555.152L548.848 24.7041H545.008L540.016 11.3601H541.2L536.112 24.7041H532.272ZM565.465 24.9281C563.567 24.9281 561.903 24.5548 560.473 23.8081C559.065 23.0401 557.967 21.9948 557.177 20.6721C556.409 19.3494 556.025 17.8454 556.025 16.1601C556.025 14.4534 556.399 12.9494 557.145 11.6481C557.913 10.3254 558.959 9.29077 560.281 8.5441C561.625 7.79743 563.151 7.4241 564.857 7.4241C566.521 7.4241 568.004 7.78677 569.305 8.5121C570.607 9.23743 571.631 10.2614 572.377 11.5841C573.124 12.9068 573.497 14.4641 573.497 16.2561C573.497 16.4268 573.487 16.6188 573.465 16.8321C573.465 17.0454 573.455 17.2481 573.433 17.4401H559.193V14.7841H571.321L569.753 15.6161C569.775 14.6348 569.572 13.7708 569.145 13.0241C568.719 12.2774 568.132 11.6908 567.385 11.2641C566.66 10.8374 565.817 10.6241 564.857 10.6241C563.876 10.6241 563.012 10.8374 562.265 11.2641C561.54 11.6908 560.964 12.2881 560.537 13.0561C560.132 13.8028 559.929 14.6881 559.929 15.7121V16.3521C559.929 17.3761 560.164 18.2828 560.633 19.0721C561.103 19.8614 561.764 20.4694 562.617 20.8961C563.471 21.3228 564.452 21.5361 565.561 21.5361C566.521 21.5361 567.385 21.3868 568.153 21.0881C568.921 20.7894 569.604 20.3201 570.201 19.6801L572.345 22.1441C571.577 23.0401 570.607 23.7334 569.433 24.2241C568.281 24.6934 566.959 24.9281 565.465 24.9281ZM589.959 24.7041L583.687 7.6161H587.463L592.839 22.6881H591.047L596.679 7.6161H600.039L605.511 22.6881H603.751L609.287 7.6161H612.839L606.535 24.7041H602.695L597.703 11.3601H598.887L593.799 24.7041H589.959ZM615.59 24.7041V7.6161H619.59V24.7041H615.59ZM617.606 4.8001C616.859 4.8001 616.24 4.56543 615.75 4.0961C615.28 3.62677 615.046 3.06143 615.046 2.4001C615.046 1.71743 615.28 1.1521 615.75 0.7041C616.24 0.234767 616.859 0.000101089 617.606 0.000101089C618.352 0.000101089 618.96 0.224101 619.43 0.6721C619.92 1.09877 620.166 1.64277 620.166 2.3041C620.166 3.0081 619.931 3.60543 619.462 4.0961C618.992 4.56543 618.374 4.8001 617.606 4.8001ZM624.84 24.7041V0.9601H628.84V24.7041H624.84ZM634.09 24.7041V0.9601H638.09V24.7041H634.09ZM12.192 47.4241C13.5573 47.4241 14.7733 47.6908 15.84 48.2241C16.928 48.7574 17.7813 49.5788 18.4 50.6881C19.0187 51.7761 19.328 53.1841 19.328 54.9121V64.7041H15.328V55.4241C15.328 53.9094 14.9653 52.7788 14.24 52.0321C13.536 51.2854 12.544 50.9121 11.264 50.9121C10.3253 50.9121 9.49333 51.1041 8.76799 51.4881C8.04266 51.8721 7.47733 52.4481 7.07199 53.2161C6.68799 53.9628 6.49599 54.9121 6.49599 56.0641V64.7041H2.49599V40.9601H6.49599V52.2241L5.63199 50.8161C6.22933 49.7281 7.09333 48.8961 8.22399 48.3201C9.37599 47.7228 10.6987 47.4241 12.192 47.4241ZM32.4655 64.9281C30.5668 64.9281 28.9028 64.5548 27.4735 63.8081C26.0655 63.0401 24.9668 61.9948 24.1775 60.6721C23.4095 59.3494 23.0255 57.8454 23.0255 56.1601C23.0255 54.4534 23.3988 52.9494 24.1455 51.6481C24.9135 50.3254 25.9588 49.2908 27.2815 48.5441C28.6255 47.7974 30.1508 47.4241 31.8575 47.4241C33.5215 47.4241 35.0042 47.7868 36.3055 48.5121C37.6068 49.2374 38.6308 50.2614 39.3775 51.5841C40.1242 52.9068 40.4975 54.4641 40.4975 56.2561C40.4975 56.4268 40.4868 56.6188 40.4655 56.8321C40.4655 57.0454 40.4548 57.2481 40.4335 57.4401H26.1935V54.7841H38.3215L36.7535 55.6161C36.7748 54.6348 36.5722 53.7708 36.1455 53.0241C35.7188 52.2774 35.1322 51.6908 34.3855 51.2641C33.6602 50.8374 32.8175 50.6241 31.8575 50.6241C30.8762 50.6241 30.0122 50.8374 29.2655 51.2641C28.5402 51.6908 27.9642 52.2881 27.5375 53.0561C27.1322 53.8028 26.9295 54.6881 26.9295 55.7121V56.3521C26.9295 57.3761 27.1642 58.2828 27.6335 59.0721C28.1028 59.8614 28.7642 60.4694 29.6175 60.8961C30.4708 61.3228 31.4522 61.5361 32.5615 61.5361C33.5215 61.5361 34.3855 61.3868 35.1535 61.0881C35.9215 60.7894 36.6042 60.3201 37.2015 59.6801L39.3455 62.1441C38.5775 63.0401 37.6068 63.7334 36.4335 64.2241C35.2815 64.6934 33.9588 64.9281 32.4655 64.9281ZM44.3397 64.7041V40.9601H48.3397V64.7041H44.3397ZM63.0617 64.9281C61.6751 64.9281 60.4057 64.6081 59.2537 63.9681C58.1231 63.3281 57.2164 62.3681 56.5337 61.0881C55.8724 59.7868 55.5417 58.1441 55.5417 56.1601C55.5417 54.1548 55.8617 52.5121 56.5017 51.2321C57.1631 49.9521 58.0591 49.0028 59.1897 48.3841C60.3204 47.7441 61.6111 47.4241 63.0617 47.4241C64.7471 47.4241 66.2297 47.7868 67.5097 48.5121C68.8111 49.2374 69.8351 50.2508 70.5817 51.5521C71.3497 52.8534 71.7337 54.3894 71.7337 56.1601C71.7337 57.9308 71.3497 59.4774 70.5817 60.8001C69.8351 62.1014 68.8111 63.1148 67.5097 63.8401C66.2297 64.5654 64.7471 64.9281 63.0617 64.9281ZM53.5897 70.9121V47.6161H57.3977V51.6481L57.2697 56.1921L57.5897 60.7361V70.9121H53.5897ZM62.6137 61.5041C63.5737 61.5041 64.4271 61.2908 65.1737 60.8641C65.9417 60.4374 66.5497 59.8188 66.9977 59.0081C67.4457 58.1974 67.6697 57.2481 67.6697 56.1601C67.6697 55.0508 67.4457 54.1014 66.9977 53.3121C66.5497 52.5014 65.9417 51.8828 65.1737 51.4561C64.4271 51.0294 63.5737 50.8161 62.6137 50.8161C61.6537 50.8161 60.7897 51.0294 60.0217 51.4561C59.2537 51.8828 58.6457 52.5014 58.1977 53.3121C57.7497 54.1014 57.5257 55.0508 57.5257 56.1601C57.5257 57.2481 57.7497 58.1974 58.1977 59.0081C58.6457 59.8188 59.2537 60.4374 60.0217 60.8641C60.7897 61.2908 61.6537 61.5041 62.6137 61.5041ZM85.779 71.1361C84.947 71.1361 84.115 70.9974 83.283 70.7201C82.451 70.4428 81.7577 70.0588 81.203 69.5681L82.803 66.6241C83.2083 66.9868 83.667 67.2748 84.179 67.4881C84.691 67.7014 85.2137 67.8081 85.747 67.8081C86.4723 67.8081 87.059 67.6268 87.507 67.2641C87.955 66.9014 88.371 66.2934 88.755 65.4401L89.747 63.2001L90.067 62.7201L96.531 47.6161H100.371L92.371 66.0801C91.8377 67.3601 91.2403 68.3734 90.579 69.1201C89.939 69.8668 89.2137 70.3894 88.403 70.6881C87.6137 70.9868 86.739 71.1361 85.779 71.1361ZM89.299 65.3121L81.587 47.6161H85.747L92.019 62.3681L89.299 65.3121ZM110.082 64.9281C108.333 64.9281 106.776 64.5548 105.41 63.8081C104.045 63.0401 102.968 61.9948 102.178 60.6721C101.389 59.3494 100.994 57.8454 100.994 56.1601C100.994 54.4534 101.389 52.9494 102.178 51.6481C102.968 50.3254 104.045 49.2908 105.41 48.5441C106.776 47.7974 108.333 47.4241 110.082 47.4241C111.853 47.4241 113.421 47.7974 114.786 48.5441C116.173 49.2908 117.25 50.3148 118.018 51.6161C118.808 52.9174 119.202 54.4321 119.202 56.1601C119.202 57.8454 118.808 59.3494 118.018 60.6721C117.25 61.9948 116.173 63.0401 114.786 63.8081C113.421 64.5548 111.853 64.9281 110.082 64.9281ZM110.082 61.5041C111.064 61.5041 111.938 61.2908 112.706 60.8641C113.474 60.4374 114.072 59.8188 114.498 59.0081C114.946 58.1974 115.17 57.2481 115.17 56.1601C115.17 55.0508 114.946 54.1014 114.498 53.3121C114.072 52.5014 113.474 51.8828 112.706 51.4561C111.938 51.0294 111.074 50.8161 110.114 50.8161C109.133 50.8161 108.258 51.0294 107.49 51.4561C106.744 51.8828 106.146 52.5014 105.698 53.3121C105.25 54.1014 105.026 55.0508 105.026 56.1601C105.026 57.2481 105.25 58.1974 105.698 59.0081C106.146 59.8188 106.744 60.4374 107.49 60.8641C108.258 61.2908 109.122 61.5041 110.082 61.5041ZM130.259 64.9281C128.809 64.9281 127.529 64.6614 126.419 64.1281C125.31 63.5734 124.446 62.7414 123.827 61.6321C123.209 60.5014 122.899 59.0828 122.899 57.3761V47.6161H126.899V56.8321C126.899 58.3681 127.241 59.5201 127.923 60.2881C128.627 61.0348 129.619 61.4081 130.899 61.4081C131.838 61.4081 132.649 61.2161 133.331 60.8321C134.035 60.4481 134.579 59.8721 134.963 59.1041C135.369 58.3361 135.571 57.3868 135.571 56.2561V47.6161H139.571V64.7041H135.763V60.0961L136.435 61.5041C135.859 62.6134 135.017 63.4668 133.907 64.0641C132.798 64.6401 131.582 64.9281 130.259 64.9281ZM163.124 64.9281C161.738 64.9281 160.468 64.6081 159.316 63.9681C158.186 63.3281 157.279 62.3681 156.596 61.0881C155.935 59.7868 155.604 58.1441 155.604 56.1601C155.604 54.1548 155.924 52.5121 156.564 51.2321C157.226 49.9521 158.122 49.0028 159.252 48.3841C160.383 47.7441 161.674 47.4241 163.124 47.4241C164.81 47.4241 166.292 47.7868 167.572 48.5121C168.874 49.2374 169.898 50.2508 170.644 51.5521C171.412 52.8534 171.796 54.3894 171.796 56.1601C171.796 57.9308 171.412 59.4774 170.644 60.8001C169.898 62.1014 168.874 63.1148 167.572 63.8401C166.292 64.5654 164.81 64.9281 163.124 64.9281ZM153.652 70.9121V47.6161H157.46V51.6481L157.332 56.1921L157.652 60.7361V70.9121H153.652ZM162.676 61.5041C163.636 61.5041 164.49 61.2908 165.236 60.8641C166.004 60.4374 166.612 59.8188 167.06 59.0081C167.508 58.1974 167.732 57.2481 167.732 56.1601C167.732 55.0508 167.508 54.1014 167.06 53.3121C166.612 52.5014 166.004 51.8828 165.236 51.4561C164.49 51.0294 163.636 50.8161 162.676 50.8161C161.716 50.8161 160.852 51.0294 160.084 51.4561C159.316 51.8828 158.708 52.5014 158.26 53.3121C157.812 54.1014 157.588 55.0508 157.588 56.1601C157.588 57.2481 157.812 58.1974 158.26 59.0081C158.708 59.8188 159.316 60.4374 160.084 60.8641C160.852 61.2908 161.716 61.5041 162.676 61.5041ZM175.59 64.7041V47.6161H179.59V64.7041H175.59ZM177.606 44.8001C176.859 44.8001 176.24 44.5654 175.75 44.0961C175.28 43.6268 175.046 43.0614 175.046 42.4001C175.046 41.7174 175.28 41.1521 175.75 40.7041C176.24 40.2348 176.859 40.0001 177.606 40.0001C178.352 40.0001 178.96 40.2241 179.43 40.6721C179.92 41.0988 180.166 41.6428 180.166 42.3041C180.166 43.0081 179.931 43.6054 179.462 44.0961C178.992 44.5654 178.374 44.8001 177.606 44.8001ZM192.68 64.9281C190.888 64.9281 189.288 64.5548 187.88 63.8081C186.493 63.0401 185.405 61.9948 184.616 60.6721C183.826 59.3494 183.432 57.8454 183.432 56.1601C183.432 54.4534 183.826 52.9494 184.616 51.6481C185.405 50.3254 186.493 49.2908 187.88 48.5441C189.288 47.7974 190.888 47.4241 192.68 47.4241C194.344 47.4241 195.805 47.7654 197.064 48.4481C198.344 49.1094 199.314 50.0908 199.976 51.3921L196.904 53.1841C196.392 52.3734 195.762 51.7761 195.016 51.3921C194.29 51.0081 193.501 50.8161 192.648 50.8161C191.666 50.8161 190.781 51.0294 189.992 51.4561C189.202 51.8828 188.584 52.5014 188.136 53.3121C187.688 54.1014 187.464 55.0508 187.464 56.1601C187.464 57.2694 187.688 58.2294 188.136 59.0401C188.584 59.8294 189.202 60.4374 189.992 60.8641C190.781 61.2908 191.666 61.5041 192.648 61.5041C193.501 61.5041 194.29 61.3121 195.016 60.9281C195.762 60.5441 196.392 59.9468 196.904 59.1361L199.976 60.9281C199.314 62.2081 198.344 63.2001 197.064 63.9041C195.805 64.5868 194.344 64.9281 192.68 64.9281ZM206.541 60.8961L206.637 55.8721L215.565 47.6161H220.365L212.781 55.2321L210.669 56.9921L206.541 60.8961ZM203.277 64.7041V40.9601H207.277V64.7041H203.277ZM216.173 64.7041L209.933 56.9921L212.461 53.7921L221.037 64.7041H216.173ZM238.897 64.9281C237.019 64.9281 235.569 64.4481 234.545 63.4881C233.521 62.5068 233.009 61.0668 233.009 59.1681V43.8401H237.009V59.0721C237.009 59.8828 237.211 60.5121 237.617 60.9601C238.043 61.4081 238.63 61.6321 239.377 61.6321C240.273 61.6321 241.019 61.3974 241.617 60.9281L242.737 63.7761C242.267 64.1601 241.691 64.4481 241.009 64.6401C240.326 64.8321 239.622 64.9281 238.897 64.9281ZM230.193 50.9441V47.7441H241.585V50.9441H230.193ZM255.723 47.4241C257.089 47.4241 258.305 47.6908 259.371 48.2241C260.459 48.7574 261.313 49.5788 261.931 50.6881C262.55 51.7761 262.859 53.1841 262.859 54.9121V64.7041H258.859V55.4241C258.859 53.9094 258.497 52.7788 257.771 52.0321C257.067 51.2854 256.075 50.9121 254.795 50.9121C253.857 50.9121 253.025 51.1041 252.299 51.4881C251.574 51.8721 251.009 52.4481 250.603 53.2161C250.219 53.9628 250.027 54.9121 250.027 56.0641V64.7041H246.027V40.9601H250.027V52.2241L249.163 50.8161C249.761 49.7281 250.625 48.8961 251.755 48.3201C252.907 47.7228 254.23 47.4241 255.723 47.4241ZM275.997 64.9281C274.098 64.9281 272.434 64.5548 271.005 63.8081C269.597 63.0401 268.498 61.9948 267.709 60.6721C266.941 59.3494 266.557 57.8454 266.557 56.1601C266.557 54.4534 266.93 52.9494 267.677 51.6481C268.445 50.3254 269.49 49.2908 270.813 48.5441C272.157 47.7974 273.682 47.4241 275.389 47.4241C277.053 47.4241 278.535 47.7868 279.837 48.5121C281.138 49.2374 282.162 50.2614 282.909 51.5841C283.655 52.9068 284.029 54.4641 284.029 56.2561C284.029 56.4268 284.018 56.6188 283.997 56.8321C283.997 57.0454 283.986 57.2481 283.965 57.4401H269.725V54.7841H281.853L280.285 55.6161C280.306 54.6348 280.103 53.7708 279.677 53.0241C279.25 52.2774 278.663 51.6908 277.917 51.2641C277.191 50.8374 276.349 50.6241 275.389 50.6241C274.407 50.6241 273.543 50.8374 272.797 51.2641C272.071 51.6908 271.495 52.2881 271.069 53.0561C270.663 53.8028 270.461 54.6881 270.461 55.7121V56.3521C270.461 57.3761 270.695 58.2828 271.165 59.0721C271.634 59.8614 272.295 60.4694 273.149 60.8961C274.002 61.3228 274.983 61.5361 276.093 61.5361C277.053 61.5361 277.917 61.3868 278.685 61.0881C279.453 60.7894 280.135 60.3201 280.733 59.6801L282.877 62.1441C282.109 63.0401 281.138 63.7334 279.965 64.2241C278.813 64.6934 277.49 64.9281 275.997 64.9281ZM296.715 64.7041V47.6161H300.523V52.3201L300.075 50.9441C300.587 49.7921 301.387 48.9174 302.475 48.3201C303.584 47.7228 304.96 47.4241 306.603 47.4241V51.2321C306.432 51.1894 306.272 51.1681 306.123 51.1681C305.973 51.1468 305.824 51.1361 305.675 51.1361C304.16 51.1361 302.955 51.5841 302.059 52.4801C301.163 53.3548 300.715 54.6668 300.715 56.4161V64.7041H296.715ZM309.996 64.7041V47.6161H313.996V64.7041H309.996ZM312.012 44.8001C311.265 44.8001 310.647 44.5654 310.156 44.0961C309.687 43.6268 309.452 43.0614 309.452 42.4001C309.452 41.7174 309.687 41.1521 310.156 40.7041C310.647 40.2348 311.265 40.0001 312.012 40.0001C312.759 40.0001 313.367 40.2241 313.836 40.6721C314.327 41.0988 314.572 41.6428 314.572 42.3041C314.572 43.0081 314.337 43.6054 313.868 44.0961C313.399 44.5654 312.78 44.8001 312.012 44.8001ZM326.99 71.1361C325.411 71.1361 323.865 70.9228 322.35 70.4961C320.857 70.0908 319.63 69.4934 318.67 68.7041L320.462 65.6961C321.209 66.3148 322.147 66.8054 323.278 67.1681C324.43 67.5521 325.593 67.7441 326.766 67.7441C328.643 67.7441 330.019 67.3068 330.894 66.4321C331.769 65.5788 332.206 64.2881 332.206 62.5601V59.5201L332.526 55.6481L332.398 51.7761V47.6161H336.206V62.1121C336.206 65.2054 335.417 67.4774 333.838 68.9281C332.259 70.4001 329.977 71.1361 326.99 71.1361ZM326.478 63.9361C324.857 63.9361 323.385 63.5948 322.062 62.9121C320.761 62.2081 319.726 61.2374 318.958 60.0001C318.211 58.7628 317.838 57.3121 317.838 55.6481C317.838 54.0054 318.211 52.5654 318.958 51.3281C319.726 50.0908 320.761 49.1308 322.062 48.4481C323.385 47.7654 324.857 47.4241 326.478 47.4241C327.929 47.4241 329.23 47.7121 330.382 48.2881C331.534 48.8641 332.451 49.7601 333.134 50.9761C333.838 52.1921 334.19 53.7494 334.19 55.6481C334.19 57.5468 333.838 59.1148 333.134 60.3521C332.451 61.5681 331.534 62.4748 330.382 63.0721C329.23 63.6481 327.929 63.9361 326.478 63.9361ZM327.086 60.5441C328.089 60.5441 328.985 60.3414 329.774 59.9361C330.563 59.5094 331.171 58.9334 331.598 58.2081C332.046 57.4614 332.27 56.6081 332.27 55.6481C332.27 54.6881 332.046 53.8454 331.598 53.1201C331.171 52.3734 330.563 51.8081 329.774 51.4241C328.985 51.0188 328.089 50.8161 327.086 50.8161C326.083 50.8161 325.177 51.0188 324.366 51.4241C323.577 51.8081 322.958 52.3734 322.51 53.1201C322.083 53.8454 321.87 54.6881 321.87 55.6481C321.87 56.6081 322.083 57.4614 322.51 58.2081C322.958 58.9334 323.577 59.5094 324.366 59.9361C325.177 60.3414 326.083 60.5441 327.086 60.5441ZM351.161 47.4241C352.526 47.4241 353.742 47.6908 354.809 48.2241C355.897 48.7574 356.75 49.5788 357.369 50.6881C357.987 51.7761 358.297 53.1841 358.297 54.9121V64.7041H354.297V55.4241C354.297 53.9094 353.934 52.7788 353.209 52.0321C352.505 51.2854 351.513 50.9121 350.233 50.9121C349.294 50.9121 348.462 51.1041 347.737 51.4881C347.011 51.8721 346.446 52.4481 346.041 53.2161C345.657 53.9628 345.465 54.9121 345.465 56.0641V64.7041H341.465V40.9601H345.465V52.2241L344.601 50.8161C345.198 49.7281 346.062 48.8961 347.193 48.3201C348.345 47.7228 349.667 47.4241 351.161 47.4241ZM369.803 64.9281C367.926 64.9281 366.475 64.4481 365.451 63.4881C364.427 62.5068 363.915 61.0668 363.915 59.1681V43.8401H367.915V59.0721C367.915 59.8828 368.118 60.5121 368.523 60.9601C368.95 61.4081 369.536 61.6321 370.283 61.6321C371.179 61.6321 371.926 61.3974 372.523 60.9281L373.643 63.7761C373.174 64.1601 372.598 64.4481 371.915 64.6401C371.232 64.8321 370.528 64.9281 369.803 64.9281ZM361.099 50.9441V47.7441H372.491V50.9441H361.099ZM395.249 64.9281C393.863 64.9281 392.593 64.6081 391.441 63.9681C390.311 63.3281 389.404 62.3681 388.721 61.0881C388.06 59.7868 387.729 58.1441 387.729 56.1601C387.729 54.1548 388.049 52.5121 388.689 51.2321C389.351 49.9521 390.247 49.0028 391.377 48.3841C392.508 47.7441 393.799 47.4241 395.249 47.4241C396.935 47.4241 398.417 47.7868 399.697 48.5121C400.999 49.2374 402.023 50.2508 402.769 51.5521C403.537 52.8534 403.921 54.3894 403.921 56.1601C403.921 57.9308 403.537 59.4774 402.769 60.8001C402.023 62.1014 400.999 63.1148 399.697 63.8401C398.417 64.5654 396.935 64.9281 395.249 64.9281ZM385.777 70.9121V47.6161H389.585V51.6481L389.457 56.1921L389.777 60.7361V70.9121H385.777ZM394.801 61.5041C395.761 61.5041 396.615 61.2908 397.361 60.8641C398.129 60.4374 398.737 59.8188 399.185 59.0081C399.633 58.1974 399.857 57.2481 399.857 56.1601C399.857 55.0508 399.633 54.1014 399.185 53.3121C398.737 52.5014 398.129 51.8828 397.361 51.4561C396.615 51.0294 395.761 50.8161 394.801 50.8161C393.841 50.8161 392.977 51.0294 392.209 51.4561C391.441 51.8828 390.833 52.5014 390.385 53.3121C389.937 54.1014 389.713 55.0508 389.713 56.1601C389.713 57.2481 389.937 58.1974 390.385 59.0081C390.833 59.8188 391.441 60.4374 392.209 60.8641C392.977 61.2908 393.841 61.5041 394.801 61.5041ZM407.715 64.7041V40.9601H411.715V64.7041H407.715ZM427.493 64.7041V61.2481L427.269 60.5121V54.4641C427.269 53.2908 426.917 52.3841 426.213 51.7441C425.509 51.0828 424.442 50.7521 423.013 50.7521C422.053 50.7521 421.103 50.9014 420.165 51.2001C419.247 51.4988 418.469 51.9148 417.829 52.4481L416.261 49.5361C417.178 48.8321 418.266 48.3094 419.525 47.9681C420.805 47.6054 422.127 47.4241 423.493 47.4241C425.967 47.4241 427.877 48.0214 429.221 49.2161C430.586 50.3894 431.269 52.2134 431.269 54.6881V64.7041H427.493ZM422.117 64.9281C420.837 64.9281 419.717 64.7148 418.757 64.2881C417.797 63.8401 417.05 63.2321 416.517 62.4641C416.005 61.6748 415.749 60.7894 415.749 59.8081C415.749 58.8481 415.973 57.9841 416.421 57.2161C416.89 56.4481 417.647 55.8401 418.693 55.3921C419.738 54.9441 421.125 54.7201 422.853 54.7201H427.813V57.3761H423.141C421.775 57.3761 420.858 57.6001 420.389 58.0481C419.919 58.4748 419.685 59.0081 419.685 59.6481C419.685 60.3734 419.973 60.9494 420.549 61.3761C421.125 61.8028 421.925 62.0161 422.949 62.0161C423.93 62.0161 424.805 61.7921 425.573 61.3441C426.362 60.8961 426.927 60.2348 427.269 59.3601L427.941 61.7601C427.557 62.7628 426.863 63.5414 425.861 64.0961C424.879 64.6508 423.631 64.9281 422.117 64.9281ZM446.098 47.4241C447.464 47.4241 448.68 47.6908 449.746 48.2241C450.834 48.7574 451.688 49.5788 452.306 50.6881C452.925 51.7761 453.234 53.1841 453.234 54.9121V64.7041H449.234V55.4241C449.234 53.9094 448.872 52.7788 448.146 52.0321C447.442 51.2854 446.45 50.9121 445.17 50.9121C444.232 50.9121 443.4 51.1041 442.674 51.4881C441.949 51.8721 441.384 52.4481 440.978 53.2161C440.594 53.9628 440.402 54.9121 440.402 56.0641V64.7041H436.402V47.6161H440.21V52.2241L439.538 50.8161C440.136 49.7281 441 48.8961 442.13 48.3201C443.282 47.7228 444.605 47.4241 446.098 47.4241ZM459.588 64.9281C458.863 64.9281 458.244 64.6828 457.732 64.1921C457.22 63.6801 456.964 63.0401 456.964 62.2721C456.964 61.4614 457.22 60.8214 457.732 60.3521C458.244 59.8614 458.863 59.6161 459.588 59.6161C460.314 59.6161 460.932 59.8614 461.444 60.3521C461.956 60.8214 462.212 61.4614 462.212 62.2721C462.212 63.0401 461.956 63.6801 461.444 64.1921C460.932 64.6828 460.314 64.9281 459.588 64.9281Z" fill="#333333"/>
</svg>
