<svg width="113" height="12" viewBox="0 0 113 12" fill="none" xmlns="http://www.w3.org/2000/svg">
<path d="M1.05599 5.68007H6.976V6.68807H1.05599V5.68007ZM1.184 10.8481H7.92V11.8721H-5.00679e-06V0.67207H7.68V1.69607H1.184V10.8481ZM20.9591 3.39207C21.6418 3.39207 22.2338 3.5254 22.7351 3.79207C23.2471 4.04807 23.6418 4.44274 23.9191 4.97607C24.2071 5.5094 24.3511 6.1814 24.3511 6.99207V11.8721H23.2151V7.10407C23.2151 6.21874 23.0018 5.55207 22.5751 5.10407C22.1591 4.6454 21.5671 4.41607 20.7991 4.41607C20.2231 4.41607 19.7218 4.53874 19.2951 4.78407C18.8791 5.01874 18.5538 5.3654 18.3191 5.82407C18.0951 6.27207 17.9831 6.81607 17.9831 7.45607V11.8721H16.8471V7.10407C16.8471 6.21874 16.6338 5.55207 16.2071 5.10407C15.7805 4.6454 15.1831 4.41607 14.4151 4.41607C13.8498 4.41607 13.3538 4.53874 12.9271 4.78407C12.5005 5.01874 12.1698 5.3654 11.9351 5.82407C11.7111 6.27207 11.5991 6.81607 11.5991 7.45607V11.8721H10.4631V3.47207H11.5511V5.74407L11.3751 5.34407C11.6311 4.73607 12.0418 4.2614 12.6071 3.92007C13.1831 3.56807 13.8605 3.39207 14.6391 3.39207C15.4605 3.39207 16.1591 3.60007 16.7351 4.01607C17.3111 4.4214 17.6845 5.03474 17.8551 5.85607L17.4071 5.68007C17.6525 4.9974 18.0845 4.44807 18.7031 4.03207C19.3325 3.6054 20.0845 3.39207 20.9591 3.39207ZM32.6959 11.8721V10.0161L32.6479 9.71207V6.60807C32.6479 5.8934 32.4452 5.34407 32.0399 4.96007C31.6452 4.57607 31.0532 4.38407 30.2639 4.38407C29.7199 4.38407 29.2025 4.47474 28.7119 4.65607C28.2212 4.8374 27.8052 5.0774 27.4639 5.37607L26.9519 4.52807C27.3785 4.1654 27.8905 3.88807 28.4879 3.69607C29.0852 3.4934 29.7145 3.39207 30.3759 3.39207C31.4639 3.39207 32.3012 3.66407 32.8879 4.20807C33.4852 4.7414 33.7839 5.5574 33.7839 6.65607V11.8721H32.6959ZM29.7999 11.9521C29.1705 11.9521 28.6212 11.8507 28.1519 11.6481C27.6932 11.4347 27.3412 11.1467 27.0959 10.7841C26.8505 10.4107 26.7279 9.98407 26.7279 9.50407C26.7279 9.06674 26.8292 8.67207 27.0319 8.32007C27.2452 7.9574 27.5865 7.6694 28.0559 7.45607C28.5359 7.23207 29.1759 7.12007 29.9759 7.12007H32.8719V7.96807H30.0079C29.1972 7.96807 28.6319 8.11207 28.3119 8.40007C28.0025 8.68807 27.8479 9.0454 27.8479 9.47207C27.8479 9.95207 28.0345 10.3361 28.4079 10.6241C28.7812 10.9121 29.3039 11.0561 29.9759 11.0561C30.6159 11.0561 31.1652 10.9121 31.6239 10.6241C32.0932 10.3254 32.4345 9.89874 32.6479 9.34407L32.9039 10.1281C32.6905 10.6827 32.3172 11.1254 31.7839 11.4561C31.2612 11.7867 30.5999 11.9521 29.7999 11.9521ZM36.8694 11.8721V3.47207H38.0054V11.8721H36.8694ZM37.4454 1.61607C37.2107 1.61607 37.0134 1.53607 36.8534 1.37607C36.6934 1.21607 36.6134 1.02407 36.6134 0.80007C36.6134 0.57607 36.6934 0.389403 36.8534 0.240069C37.0134 0.0800695 37.2107 6.96182e-05 37.4454 6.96182e-05C37.68 6.96182e-05 37.8774 0.0747363 38.0374 0.22407C38.1974 0.373403 38.2774 0.56007 38.2774 0.78407C38.2774 1.01874 38.1974 1.21607 38.0374 1.37607C37.888 1.53607 37.6907 1.61607 37.4454 1.61607ZM41.1662 11.8721V6.96182e-05H42.3022V11.8721H41.1662ZM48.0986 11.8721L53.2186 0.67207H54.3866L59.5066 11.8721H58.2586L53.5546 1.36007H54.0346L49.3306 11.8721H48.0986ZM50.1146 8.88007L50.4666 7.92007H56.9786L57.3306 8.88007H50.1146ZM64.3852 11.9521C63.5852 11.9521 62.8652 11.7707 62.2252 11.4081C61.5959 11.0454 61.0999 10.5441 60.7372 9.90407C60.3746 9.2534 60.1932 8.50674 60.1932 7.66407C60.1932 6.81074 60.3746 6.06407 60.7372 5.42407C61.0999 4.78407 61.5959 4.28807 62.2252 3.93607C62.8652 3.5734 63.5852 3.39207 64.3852 3.39207C65.1212 3.39207 65.7772 3.5574 66.3532 3.88807C66.9399 4.21874 67.4039 4.70407 67.7452 5.34407C68.0972 5.9734 68.2732 6.74674 68.2732 7.66407C68.2732 8.57074 68.1026 9.34407 67.7612 9.98407C67.4199 10.6241 66.9559 11.1147 66.3692 11.4561C65.7932 11.7867 65.1319 11.9521 64.3852 11.9521ZM64.4652 10.9441C65.0626 10.9441 65.5959 10.8107 66.0652 10.5441C66.5452 10.2667 66.9186 9.88274 67.1852 9.39207C67.4626 8.89074 67.6012 8.31474 67.6012 7.66407C67.6012 7.00274 67.4626 6.42674 67.1852 5.93607C66.9186 5.4454 66.5452 5.06674 66.0652 4.80007C65.5959 4.52274 65.0626 4.38407 64.4652 4.38407C63.8786 4.38407 63.3506 4.52274 62.8812 4.80007C62.4119 5.06674 62.0386 5.4454 61.7612 5.93607C61.4839 6.42674 61.3452 7.00274 61.3452 7.66407C61.3452 8.31474 61.4839 8.89074 61.7612 9.39207C62.0386 9.88274 62.4119 10.2667 62.8812 10.5441C63.3506 10.8107 63.8786 10.9441 64.4652 10.9441ZM67.6332 11.8721V9.34407L67.7452 7.64807L67.5852 5.95207V6.96182e-05H68.7212V11.8721H67.6332ZM75.229 11.9521C74.429 11.9521 73.709 11.7707 73.069 11.4081C72.4397 11.0454 71.9437 10.5441 71.581 9.90407C71.2183 9.2534 71.037 8.50674 71.037 7.66407C71.037 6.81074 71.2183 6.06407 71.581 5.42407C71.9437 4.78407 72.4397 4.28807 73.069 3.93607C73.709 3.5734 74.429 3.39207 75.229 3.39207C75.965 3.39207 76.621 3.5574 77.197 3.88807C77.7837 4.21874 78.2477 4.70407 78.589 5.34407C78.941 5.9734 79.117 6.74674 79.117 7.66407C79.117 8.57074 78.9463 9.34407 78.605 9.98407C78.2637 10.6241 77.7997 11.1147 77.213 11.4561C76.637 11.7867 75.9757 11.9521 75.229 11.9521ZM75.309 10.9441C75.9063 10.9441 76.4397 10.8107 76.909 10.5441C77.389 10.2667 77.7623 9.88274 78.029 9.39207C78.3063 8.89074 78.445 8.31474 78.445 7.66407C78.445 7.00274 78.3063 6.42674 78.029 5.93607C77.7623 5.4454 77.389 5.06674 76.909 4.80007C76.4397 4.52274 75.9063 4.38407 75.309 4.38407C74.7223 4.38407 74.1943 4.52274 73.725 4.80007C73.2557 5.06674 72.8823 5.4454 72.605 5.93607C72.3277 6.42674 72.189 7.00274 72.189 7.66407C72.189 8.31474 72.3277 8.89074 72.605 9.39207C72.8823 9.88274 73.2557 10.2667 73.725 10.5441C74.1943 10.8107 74.7223 10.9441 75.309 10.9441ZM78.477 11.8721V9.34407L78.589 7.64807L78.429 5.95207V6.96182e-05H79.565V11.8721H78.477ZM82.7287 11.8721V3.47207H83.8167V5.76007L83.7047 5.36007C83.9394 4.72007 84.3341 4.23474 84.8887 3.90407C85.4434 3.56274 86.1314 3.39207 86.9527 3.39207V4.49607C86.9101 4.49607 86.8674 4.49607 86.8247 4.49607C86.7821 4.4854 86.7394 4.48007 86.6967 4.48007C85.8114 4.48007 85.1181 4.75207 84.6167 5.29607C84.1154 5.8294 83.8647 6.59207 83.8647 7.58407V11.8721H82.7287ZM92.5155 11.9521C91.6408 11.9521 90.8728 11.7707 90.2115 11.4081C89.5502 11.0347 89.0328 10.5281 88.6595 9.88807C88.2862 9.2374 88.0995 8.49607 88.0995 7.66407C88.0995 6.83207 88.2755 6.09607 88.6275 5.45607C88.9902 4.81607 89.4808 4.31474 90.0995 3.95207C90.7288 3.57874 91.4328 3.39207 92.2115 3.39207C93.0008 3.39207 93.6995 3.5734 94.3075 3.93607C94.9262 4.28807 95.4115 4.7894 95.7635 5.44007C96.1155 6.08007 96.2915 6.8214 96.2915 7.66407C96.2915 7.7174 96.2862 7.77607 96.2755 7.84007C96.2755 7.8934 96.2755 7.95207 96.2755 8.01607H88.9635V7.16807H95.6675L95.2195 7.50407C95.2195 6.89607 95.0862 6.3574 94.8195 5.88807C94.5635 5.40807 94.2115 5.03474 93.7635 4.76807C93.3155 4.5014 92.7982 4.36807 92.2115 4.36807C91.6355 4.36807 91.1182 4.5014 90.6595 4.76807C90.2008 5.03474 89.8435 5.40807 89.5875 5.88807C89.3315 6.36807 89.2035 6.9174 89.2035 7.53607V7.71207C89.2035 8.35207 89.3422 8.9174 89.6195 9.40807C89.9075 9.88807 90.3022 10.2667 90.8035 10.5441C91.3155 10.8107 91.8968 10.9441 92.5475 10.9441C93.0595 10.9441 93.5342 10.8534 93.9715 10.6721C94.4195 10.4907 94.8035 10.2134 95.1235 9.84007L95.7635 10.5761C95.3902 11.0241 94.9208 11.3654 94.3555 11.6001C93.8008 11.8347 93.1875 11.9521 92.5155 11.9521ZM100.86 11.9521C100.166 11.9521 99.5104 11.8561 98.8917 11.6641C98.2731 11.4614 97.7877 11.2107 97.4357 10.9121L97.9477 10.0161C98.2891 10.2721 98.7264 10.4961 99.2597 10.6881C99.7931 10.8694 100.353 10.9601 100.94 10.9601C101.74 10.9601 102.316 10.8374 102.668 10.5921C103.02 10.3361 103.196 10.0001 103.196 9.58407C103.196 9.27474 103.094 9.03474 102.892 8.86407C102.7 8.68274 102.444 8.5494 102.124 8.46407C101.804 8.36807 101.446 8.28807 101.052 8.22407C100.657 8.16007 100.262 8.0854 99.8677 8.00007C99.4837 7.91474 99.1317 7.79207 98.8117 7.63207C98.4917 7.4614 98.2304 7.23207 98.0277 6.94407C97.8357 6.65607 97.7397 6.27207 97.7397 5.79207C97.7397 5.3334 97.8677 4.92274 98.1237 4.56007C98.3797 4.1974 98.7531 3.91474 99.2437 3.71207C99.7451 3.49874 100.353 3.39207 101.068 3.39207C101.612 3.39207 102.156 3.46674 102.7 3.61607C103.244 3.75474 103.692 3.9414 104.044 4.17607L103.548 5.08807C103.174 4.83207 102.774 4.65074 102.348 4.54407C101.921 4.42674 101.494 4.36807 101.068 4.36807C100.31 4.36807 99.7504 4.5014 99.3877 4.76807C99.0357 5.02407 98.8597 5.35474 98.8597 5.76007C98.8597 6.08007 98.9557 6.33074 99.1477 6.51207C99.3504 6.6934 99.6117 6.8374 99.9317 6.94407C100.262 7.04007 100.62 7.12007 101.004 7.18407C101.398 7.24807 101.788 7.32807 102.172 7.42407C102.566 7.5094 102.924 7.63207 103.244 7.79207C103.574 7.9414 103.836 8.16007 104.028 8.44807C104.23 8.7254 104.332 9.0934 104.332 9.55207C104.332 10.0427 104.193 10.4694 103.916 10.8321C103.649 11.1841 103.254 11.4614 102.732 11.6641C102.22 11.8561 101.596 11.9521 100.86 11.9521ZM108.672 11.9521C107.979 11.9521 107.323 11.8561 106.704 11.6641C106.086 11.4614 105.6 11.2107 105.248 10.9121L105.76 10.0161C106.102 10.2721 106.539 10.4961 107.072 10.6881C107.606 10.8694 108.166 10.9601 108.752 10.9601C109.552 10.9601 110.128 10.8374 110.48 10.5921C110.832 10.3361 111.008 10.0001 111.008 9.58407C111.008 9.27474 110.907 9.03474 110.704 8.86407C110.512 8.68274 110.256 8.5494 109.936 8.46407C109.616 8.36807 109.259 8.28807 108.864 8.22407C108.47 8.16007 108.075 8.0854 107.68 8.00007C107.296 7.91474 106.944 7.79207 106.624 7.63207C106.304 7.4614 106.043 7.23207 105.84 6.94407C105.648 6.65607 105.552 6.27207 105.552 5.79207C105.552 5.3334 105.68 4.92274 105.936 4.56007C106.192 4.1974 106.566 3.91474 107.056 3.71207C107.558 3.49874 108.166 3.39207 108.88 3.39207C109.424 3.39207 109.968 3.46674 110.512 3.61607C111.056 3.75474 111.504 3.9414 111.856 4.17607L111.36 5.08807C110.987 4.83207 110.587 4.65074 110.16 4.54407C109.734 4.42674 109.307 4.36807 108.88 4.36807C108.123 4.36807 107.563 4.5014 107.2 4.76807C106.848 5.02407 106.672 5.35474 106.672 5.76007C106.672 6.08007 106.768 6.33074 106.96 6.51207C107.163 6.6934 107.424 6.8374 107.744 6.94407C108.075 7.04007 108.432 7.12007 108.816 7.18407C109.211 7.24807 109.6 7.32807 109.984 7.42407C110.379 7.5094 110.736 7.63207 111.056 7.79207C111.387 7.9414 111.648 8.16007 111.84 8.44807C112.043 8.7254 112.144 9.0934 112.144 9.55207C112.144 10.0427 112.006 10.4694 111.728 10.8321C111.462 11.1841 111.067 11.4614 110.544 11.6641C110.032 11.8561 109.408 11.9521 108.672 11.9521Z" fill="#333333"/>
</svg>
