<svg width="264" height="24" viewBox="0 0 264 24" fill="none" xmlns="http://www.w3.org/2000/svg">
<g clip-path="url(#clip0_67_236)">
<path d="M12 0C5.37264 0 0 5.37264 0 12C0 17.6275 3.87456 22.3498 9.10128 23.6467V15.6672H6.62688V12H9.10128V10.4198C9.10128 6.33552 10.9498 4.4424 14.9597 4.4424C15.72 4.4424 17.0318 4.59168 17.5685 4.74048V8.06448C17.2853 8.03472 16.7933 8.01984 16.1822 8.01984C14.2147 8.01984 13.4544 8.76528 13.4544 10.703V12H17.3741L16.7006 15.6672H13.4544V23.9122C19.3963 23.1946 24.0005 18.1354 24.0005 12C24 5.37264 18.6274 0 12 0Z" fill="#333333"/>
</g>
<path d="M66.3263 1.90381H69.6998L62.3297 10.3273L71 21.7898H64.2112L58.894 14.8378L52.8099 21.7898H49.4344L57.3174 12.7799L49 1.90381H55.9611L60.7674 8.25814L66.3263 1.90381ZM65.1423 19.7706H67.0116L54.9454 3.81694H52.9395L65.1423 19.7706Z" fill="#333333"/>
<g clip-path="url(#clip1_67_236)">
<path d="M108 2.16094C111.206 2.16094 111.586 2.175 112.847 2.23125C114.019 2.28281 114.652 2.47969 115.073 2.64375C115.631 2.85938 116.034 3.12188 116.452 3.53906C116.873 3.96094 117.131 4.35938 117.347 4.91719C117.511 5.33906 117.708 5.97656 117.759 7.14375C117.816 8.40937 117.83 8.78906 117.83 11.9906C117.83 15.1969 117.816 15.5766 117.759 16.8375C117.708 18.0094 117.511 18.6422 117.347 19.0641C117.131 19.6219 116.869 20.025 116.452 20.4422C116.03 20.8641 115.631 21.1219 115.073 21.3375C114.652 21.5016 114.014 21.6984 112.847 21.75C111.581 21.8062 111.202 21.8203 108 21.8203C104.794 21.8203 104.414 21.8062 103.153 21.75C101.981 21.6984 101.348 21.5016 100.927 21.3375C100.369 21.1219 99.9656 20.8594 99.5484 20.4422C99.1266 20.0203 98.8688 19.6219 98.6531 19.0641C98.4891 18.6422 98.2922 18.0047 98.2406 16.8375C98.1844 15.5719 98.1703 15.1922 98.1703 11.9906C98.1703 8.78438 98.1844 8.40469 98.2406 7.14375C98.2922 5.97187 98.4891 5.33906 98.6531 4.91719C98.8688 4.35938 99.1313 3.95625 99.5484 3.53906C99.9703 3.11719 100.369 2.85938 100.927 2.64375C101.348 2.47969 101.986 2.28281 103.153 2.23125C104.414 2.175 104.794 2.16094 108 2.16094ZM108 0C104.742 0 104.334 0.0140625 103.055 0.0703125C101.78 0.126563 100.903 0.332812 100.144 0.628125C99.3516 0.9375 98.6813 1.34531 98.0156 2.01562C97.3453 2.68125 96.9375 3.35156 96.6281 4.13906C96.3328 4.90313 96.1266 5.775 96.0703 7.05C96.0141 8.33437 96 8.74219 96 12C96 15.2578 96.0141 15.6656 96.0703 16.9453C96.1266 18.2203 96.3328 19.0969 96.6281 19.8563C96.9375 20.6484 97.3453 21.3188 98.0156 21.9844C98.6813 22.65 99.3516 23.0625 100.139 23.3672C100.903 23.6625 101.775 23.8687 103.05 23.925C104.33 23.9812 104.738 23.9953 107.995 23.9953C111.253 23.9953 111.661 23.9812 112.941 23.925C114.216 23.8687 115.092 23.6625 115.852 23.3672C116.639 23.0625 117.309 22.65 117.975 21.9844C118.641 21.3188 119.053 20.6484 119.358 19.8609C119.653 19.0969 119.859 18.225 119.916 16.95C119.972 15.6703 119.986 15.2625 119.986 12.0047C119.986 8.74688 119.972 8.33906 119.916 7.05938C119.859 5.78438 119.653 4.90781 119.358 4.14844C119.062 3.35156 118.655 2.68125 117.984 2.01562C117.319 1.35 116.648 0.9375 115.861 0.632812C115.097 0.3375 114.225 0.13125 112.95 0.075C111.666 0.0140625 111.258 0 108 0Z" fill="#333333"/>
<path d="M108 5.83594C104.597 5.83594 101.836 8.59688 101.836 12C101.836 15.4031 104.597 18.1641 108 18.1641C111.403 18.1641 114.164 15.4031 114.164 12C114.164 8.59688 111.403 5.83594 108 5.83594ZM108 15.9984C105.792 15.9984 104.002 14.2078 104.002 12C104.002 9.79219 105.792 8.00156 108 8.00156C110.208 8.00156 111.998 9.79219 111.998 12C111.998 14.2078 110.208 15.9984 108 15.9984Z" fill="#333333"/>
<path d="M115.847 5.59238C115.847 6.38926 115.2 7.03145 114.408 7.03145C113.611 7.03145 112.969 6.38457 112.969 5.59238C112.969 4.79551 113.616 4.15332 114.408 4.15332C115.2 4.15332 115.847 4.8002 115.847 5.59238Z" fill="#333333"/>
</g>
<g clip-path="url(#clip2_67_236)">
<path d="M166.223 0H145.772C144.792 0 144 0.773438 144 1.72969V22.2656C144 23.2219 144.792 24 145.772 24H166.223C167.203 24 168 23.2219 168 22.2703V1.72969C168 0.773438 167.203 0 166.223 0ZM151.12 20.4516H147.558V8.99531H151.12V20.4516ZM149.339 7.43438C148.195 7.43438 147.272 6.51094 147.272 5.37187C147.272 4.23281 148.195 3.30937 149.339 3.30937C150.478 3.30937 151.402 4.23281 151.402 5.37187C151.402 6.50625 150.478 7.43438 149.339 7.43438ZM164.452 20.4516H160.894V14.8828C160.894 13.5562 160.87 11.8453 159.042 11.8453C157.191 11.8453 156.909 13.2937 156.909 14.7891V20.4516H153.356V8.99531H156.769V10.5609H156.816C157.289 9.66094 158.452 8.70938 160.181 8.70938C163.786 8.70938 164.452 11.0813 164.452 14.1656V20.4516Z" fill="#333333"/>
</g>
<path d="M215.761 7.1998C215.761 7.1998 215.527 5.54512 214.805 4.81855C213.891 3.8623 212.869 3.85762 212.4 3.80137C209.044 3.55762 204.005 3.55762 204.005 3.55762H203.995C203.995 3.55762 198.956 3.55762 195.6 3.80137C195.131 3.85762 194.109 3.8623 193.195 4.81855C192.473 5.54512 192.244 7.1998 192.244 7.1998C192.244 7.1998 192 9.14512 192 11.0857V12.9045C192 14.8451 192.239 16.7904 192.239 16.7904C192.239 16.7904 192.473 18.4451 193.191 19.1717C194.105 20.1279 195.305 20.0951 195.839 20.1982C197.761 20.3811 204 20.4373 204 20.4373C204 20.4373 209.044 20.4279 212.4 20.1889C212.869 20.1326 213.891 20.1279 214.805 19.1717C215.527 18.4451 215.761 16.7904 215.761 16.7904C215.761 16.7904 216 14.8498 216 12.9045V11.0857C216 9.14512 215.761 7.1998 215.761 7.1998ZM201.52 15.1123V8.36699L208.003 11.7514L201.52 15.1123Z" fill="#333333"/>
<path d="M257.073 0H253.028V16.3478C253.028 18.2957 251.472 19.8957 249.536 19.8957C247.6 19.8957 246.045 18.2957 246.045 16.3478C246.045 14.4348 247.566 12.8695 249.433 12.8V8.69567C245.319 8.7652 242 12.1391 242 16.3478C242 20.5913 245.388 24 249.571 24C253.754 24 257.142 20.5565 257.142 16.3478V7.9652C258.663 9.07827 260.529 9.73913 262.5 9.77393V5.66957C259.458 5.56522 257.073 3.06087 257.073 0Z" fill="#333333"/>
<defs>
<clipPath id="clip0_67_236">
<rect width="24" height="24" fill="white"/>
</clipPath>
<clipPath id="clip1_67_236">
<rect width="24" height="24" fill="white" transform="translate(96)"/>
</clipPath>
<clipPath id="clip2_67_236">
<rect width="24" height="24" fill="white" transform="translate(144)"/>
</clipPath>
</defs>
</svg>
