<svg width="78" height="13" viewBox="0 0 78 13" fill="none" xmlns="http://www.w3.org/2000/svg">
<path d="M1.904 5.82407H7.488V7.58407H1.904V5.82407ZM2.08 11.8721H2.26498e-06V0.67207H8.176V2.41607H2.08V11.8721ZM13.6011 11.9841C12.7265 11.9841 11.9478 11.7974 11.2651 11.4241C10.5825 11.0401 10.0438 10.5174 9.64913 9.85607C9.25446 9.19474 9.05713 8.44274 9.05713 7.60007C9.05713 6.74674 9.25446 5.99474 9.64913 5.34407C10.0438 4.68274 10.5825 4.1654 11.2651 3.79207C11.9478 3.41874 12.7265 3.23207 13.6011 3.23207C14.4865 3.23207 15.2705 3.41874 15.9531 3.79207C16.6465 4.1654 17.1851 4.6774 17.5691 5.32807C17.9638 5.97874 18.1611 6.73607 18.1611 7.60007C18.1611 8.44274 17.9638 9.19474 17.5691 9.85607C17.1851 10.5174 16.6465 11.0401 15.9531 11.4241C15.2705 11.7974 14.4865 11.9841 13.6011 11.9841ZM13.6011 10.2721C14.0918 10.2721 14.5291 10.1654 14.9131 9.95207C15.2971 9.73874 15.5958 9.4294 15.8091 9.02407C16.0331 8.61874 16.1451 8.14407 16.1451 7.60007C16.1451 7.0454 16.0331 6.57074 15.8091 6.17607C15.5958 5.77074 15.2971 5.4614 14.9131 5.24807C14.5291 5.03474 14.0971 4.92807 13.6171 4.92807C13.1265 4.92807 12.6891 5.03474 12.3051 5.24807C11.9318 5.4614 11.6331 5.77074 11.4091 6.17607C11.1851 6.57074 11.0731 7.0454 11.0731 7.60007C11.0731 8.14407 11.1851 8.61874 11.4091 9.02407C11.6331 9.4294 11.9318 9.73874 12.3051 9.95207C12.6891 10.1654 13.1211 10.2721 13.6011 10.2721ZM20.0736 11.8721V6.96182e-05H22.0736V11.8721H20.0736ZM24.6986 11.8721V6.96182e-05H26.6986V11.8721H24.6986ZM33.1636 11.9841C32.289 11.9841 31.5103 11.7974 30.8276 11.4241C30.145 11.0401 29.6063 10.5174 29.2116 9.85607C28.817 9.19474 28.6196 8.44274 28.6196 7.60007C28.6196 6.74674 28.817 5.99474 29.2116 5.34407C29.6063 4.68274 30.145 4.1654 30.8276 3.79207C31.5103 3.41874 32.289 3.23207 33.1636 3.23207C34.049 3.23207 34.833 3.41874 35.5156 3.79207C36.209 4.1654 36.7476 4.6774 37.1316 5.32807C37.5263 5.97874 37.7236 6.73607 37.7236 7.60007C37.7236 8.44274 37.5263 9.19474 37.1316 9.85607C36.7476 10.5174 36.209 11.0401 35.5156 11.4241C34.833 11.7974 34.049 11.9841 33.1636 11.9841ZM33.1636 10.2721C33.6543 10.2721 34.0916 10.1654 34.4756 9.95207C34.8596 9.73874 35.1583 9.4294 35.3716 9.02407C35.5956 8.61874 35.7076 8.14407 35.7076 7.60007C35.7076 7.0454 35.5956 6.57074 35.3716 6.17607C35.1583 5.77074 34.8596 5.4614 34.4756 5.24807C34.0916 5.03474 33.6596 4.92807 33.1796 4.92807C32.689 4.92807 32.2516 5.03474 31.8676 5.24807C31.4943 5.4614 31.1956 5.77074 30.9716 6.17607C30.7476 6.57074 30.6356 7.0454 30.6356 7.60007C30.6356 8.14407 30.7476 8.61874 30.9716 9.02407C31.1956 9.4294 31.4943 9.73874 31.8676 9.95207C32.2516 10.1654 32.6836 10.2721 33.1636 10.2721ZM41.2898 11.8721L38.1538 3.32807H40.0418L42.7298 10.8641H41.8338L44.6498 3.32807H46.3298L49.0658 10.8641H48.1858L50.9538 3.32807H52.7298L49.5778 11.8721H47.6578L45.1618 5.20007H45.7538L43.2098 11.8721H41.2898ZM63.5348 12.0321C61.9988 12.0321 60.7934 11.6001 59.9188 10.7361C59.0548 9.87207 58.6228 8.62407 58.6228 6.99207V0.67207H60.7028V6.91207C60.7028 8.06407 60.9481 8.9014 61.4388 9.42407C61.9401 9.94674 62.6441 10.2081 63.5508 10.2081C64.4574 10.2081 65.1561 9.94674 65.6468 9.42407C66.1374 8.9014 66.3828 8.06407 66.3828 6.91207V0.67207H68.4308V6.99207C68.4308 8.62407 67.9934 9.87207 67.1188 10.7361C66.2548 11.6001 65.0601 12.0321 63.5348 12.0321ZM73.7918 11.9841C73.0771 11.9841 72.3891 11.8934 71.7278 11.7121C71.0771 11.5201 70.5598 11.2907 70.1758 11.0241L70.9438 9.50407C71.3278 9.7494 71.7864 9.95207 72.3198 10.1121C72.8531 10.2721 73.3864 10.3521 73.9198 10.3521C74.5491 10.3521 75.0024 10.2667 75.2798 10.0961C75.5678 9.9254 75.7118 9.69607 75.7118 9.40807C75.7118 9.1734 75.6158 8.9974 75.4238 8.88007C75.2318 8.75207 74.9811 8.65607 74.6718 8.59207C74.3624 8.52807 74.0158 8.4694 73.6318 8.41607C73.2584 8.36274 72.8798 8.2934 72.4958 8.20807C72.1224 8.11207 71.7811 7.97874 71.4718 7.80807C71.1624 7.62674 70.9118 7.38674 70.7198 7.08807C70.5278 6.7894 70.4318 6.39474 70.4318 5.90407C70.4318 5.36007 70.5864 4.89074 70.8958 4.49607C71.2051 4.09074 71.6371 3.7814 72.1918 3.56807C72.7571 3.34407 73.4238 3.23207 74.1918 3.23207C74.7678 3.23207 75.3491 3.29607 75.9358 3.42407C76.5224 3.55207 77.0078 3.7334 77.3918 3.96807L76.6238 5.48807C76.2184 5.24274 75.8078 5.0774 75.3918 4.99207C74.9864 4.89607 74.5811 4.84807 74.1758 4.84807C73.5678 4.84807 73.1144 4.93874 72.8158 5.12007C72.5278 5.3014 72.3838 5.53074 72.3838 5.80807C72.3838 6.06407 72.4798 6.25607 72.6718 6.38407C72.8638 6.51207 73.1144 6.6134 73.4238 6.68807C73.7331 6.76274 74.0744 6.82674 74.4478 6.88007C74.8318 6.92274 75.2104 6.99207 75.5838 7.08807C75.9571 7.18407 76.2984 7.3174 76.6078 7.48807C76.9278 7.64807 77.1838 7.8774 77.3758 8.17607C77.5678 8.47474 77.6638 8.86407 77.6638 9.34407C77.6638 9.8774 77.5038 10.3414 77.1838 10.7361C76.8744 11.1307 76.4318 11.4401 75.8558 11.6641C75.2798 11.8774 74.5918 11.9841 73.7918 11.9841Z" fill="#333333"/>
</svg>
