<svg width="442" height="140" viewBox="0 0 442 140" fill="none" xmlns="http://www.w3.org/2000/svg">
<path d="M137.504 31.32C135.755 31.32 134.144 31.032 132.672 30.456C131.2 29.88 129.92 29.08 128.832 28.056C127.744 27.0107 126.901 25.7947 126.304 24.408C125.707 23 125.408 21.464 125.408 19.8C125.408 18.136 125.707 16.6107 126.304 15.224C126.901 13.816 127.744 12.6 128.832 11.576C129.92 10.5307 131.2 9.72 132.672 9.144C134.144 8.568 135.744 8.28 137.472 8.28C139.221 8.28 140.821 8.568 142.272 9.144C143.744 9.72 145.024 10.5307 146.112 11.576C147.2 12.6 148.043 13.816 148.64 15.224C149.237 16.6107 149.536 18.136 149.536 19.8C149.536 21.464 149.237 23 148.64 24.408C148.043 25.816 147.2 27.032 146.112 28.056C145.024 29.08 143.744 29.88 142.272 30.456C140.821 31.032 139.232 31.32 137.504 31.32ZM137.472 27.672C138.603 27.672 139.648 27.48 140.608 27.096C141.568 26.712 142.4 26.168 143.104 25.464C143.808 24.7387 144.352 23.9067 144.736 22.968C145.141 22.008 145.344 20.952 145.344 19.8C145.344 18.648 145.141 17.6027 144.736 16.664C144.352 15.704 143.808 14.872 143.104 14.168C142.4 13.4427 141.568 12.888 140.608 12.504C139.648 12.12 138.603 11.928 137.472 11.928C136.341 11.928 135.296 12.12 134.336 12.504C133.397 12.888 132.565 13.4427 131.84 14.168C131.136 14.872 130.581 15.704 130.176 16.664C129.792 17.6027 129.6 18.648 129.6 19.8C129.6 20.9307 129.792 21.976 130.176 22.936C130.581 23.896 131.136 24.7387 131.84 25.464C132.544 26.168 133.376 26.712 134.336 27.096C135.296 27.48 136.341 27.672 137.472 27.672ZM153.562 31V13.912H157.37V18.616L156.922 17.24C157.434 16.088 158.234 15.2133 159.322 14.616C160.431 14.0187 161.807 13.72 163.45 13.72V17.528C163.279 17.4853 163.119 17.464 162.97 17.464C162.82 17.4427 162.671 17.432 162.522 17.432C161.007 17.432 159.802 17.88 158.906 18.776C158.01 19.6507 157.562 20.9627 157.562 22.712V31H153.562ZM173.919 31.224C172.276 31.224 170.793 30.8613 169.471 30.136C168.169 29.3893 167.145 28.3653 166.399 27.064C165.652 25.7627 165.279 24.2267 165.279 22.456C165.279 20.6853 165.652 19.1493 166.399 17.848C167.145 16.5467 168.169 15.5333 169.471 14.808C170.793 14.0827 172.276 13.72 173.919 13.72C175.348 13.72 176.628 14.04 177.759 14.68C178.889 15.2987 179.785 16.248 180.447 17.528C181.108 18.808 181.439 20.4507 181.439 22.456C181.439 24.44 181.119 26.0827 180.479 27.384C179.839 28.664 178.953 29.624 177.823 30.264C176.692 30.904 175.391 31.224 173.919 31.224ZM174.399 27.8C175.359 27.8 176.212 27.5867 176.959 27.16C177.727 26.7333 178.335 26.1147 178.783 25.304C179.252 24.4933 179.487 23.544 179.487 22.456C179.487 21.3467 179.252 20.3973 178.783 19.608C178.335 18.7973 177.727 18.1787 176.959 17.752C176.212 17.3253 175.359 17.112 174.399 17.112C173.439 17.112 172.575 17.3253 171.807 17.752C171.06 18.1787 170.452 18.7973 169.983 19.608C169.535 20.3973 169.311 21.3467 169.311 22.456C169.311 23.544 169.535 24.4933 169.983 25.304C170.452 26.1147 171.06 26.7333 171.807 27.16C172.575 27.5867 173.439 27.8 174.399 27.8ZM179.583 31V26.968L179.743 22.424L179.423 17.88V7.256H183.391V31H179.583ZM196.687 31.224C194.789 31.224 193.125 30.8507 191.695 30.104C190.287 29.336 189.189 28.2907 188.399 26.968C187.631 25.6453 187.247 24.1413 187.247 22.456C187.247 20.7493 187.621 19.2453 188.367 17.944C189.135 16.6213 190.181 15.5867 191.503 14.84C192.847 14.0933 194.373 13.72 196.079 13.72C197.743 13.72 199.226 14.0827 200.527 14.808C201.829 15.5333 202.853 16.5573 203.599 17.88C204.346 19.2027 204.719 20.76 204.719 22.552C204.719 22.7227 204.709 22.9147 204.687 23.128C204.687 23.3413 204.677 23.544 204.655 23.736H190.415V21.08H202.543L200.975 21.912C200.997 20.9307 200.794 20.0667 200.367 19.32C199.941 18.5733 199.354 17.9867 198.607 17.56C197.882 17.1333 197.039 16.92 196.079 16.92C195.098 16.92 194.234 17.1333 193.487 17.56C192.762 17.9867 192.186 18.584 191.759 19.352C191.354 20.0987 191.151 20.984 191.151 22.008V22.648C191.151 23.672 191.386 24.5787 191.855 25.368C192.325 26.1573 192.986 26.7653 193.839 27.192C194.693 27.6187 195.674 27.832 196.783 27.832C197.743 27.832 198.607 27.6827 199.375 27.384C200.143 27.0853 200.826 26.616 201.423 25.976L203.567 28.44C202.799 29.336 201.829 30.0293 200.655 30.52C199.503 30.9893 198.181 31.224 196.687 31.224ZM208.562 31V13.912H212.37V18.616L211.922 17.24C212.434 16.088 213.234 15.2133 214.322 14.616C215.431 14.0187 216.807 13.72 218.45 13.72V17.528C218.279 17.4853 218.119 17.464 217.97 17.464C217.82 17.4427 217.671 17.432 217.522 17.432C216.007 17.432 214.802 17.88 213.906 18.776C213.01 19.6507 212.562 20.9627 212.562 22.712V31H208.562ZM227.279 31.224C225.85 31.224 224.474 31.0427 223.151 30.68C221.85 30.296 220.815 29.8373 220.047 29.304L221.583 26.264C222.351 26.7547 223.268 27.16 224.335 27.48C225.402 27.8 226.468 27.96 227.535 27.96C228.794 27.96 229.7 27.7893 230.255 27.448C230.831 27.1067 231.119 26.648 231.119 26.072C231.119 25.6027 230.927 25.2507 230.543 25.016C230.159 24.76 229.658 24.568 229.039 24.44C228.42 24.312 227.727 24.1947 226.959 24.088C226.212 23.9813 225.455 23.8427 224.687 23.672C223.94 23.48 223.258 23.2133 222.639 22.872C222.02 22.5093 221.519 22.0293 221.135 21.432C220.751 20.8347 220.559 20.0453 220.559 19.064C220.559 17.976 220.868 17.0373 221.487 16.248C222.106 15.4373 222.97 14.8187 224.079 14.392C225.21 13.944 226.543 13.72 228.079 13.72C229.231 13.72 230.394 13.848 231.567 14.104C232.74 14.36 233.711 14.7227 234.479 15.192L232.943 18.232C232.132 17.7413 231.311 17.4107 230.479 17.24C229.668 17.048 228.858 16.952 228.047 16.952C226.831 16.952 225.924 17.1333 225.327 17.496C224.751 17.8587 224.463 18.3173 224.463 18.872C224.463 19.384 224.655 19.768 225.039 20.024C225.423 20.28 225.924 20.4827 226.543 20.632C227.162 20.7813 227.844 20.9093 228.591 21.016C229.359 21.1013 230.116 21.24 230.863 21.432C231.61 21.624 232.292 21.8907 232.911 22.232C233.551 22.552 234.063 23.0107 234.447 23.608C234.831 24.2053 235.023 24.984 235.023 25.944C235.023 27.0107 234.703 27.9387 234.063 28.728C233.444 29.5173 232.559 30.136 231.407 30.584C230.255 31.0107 228.879 31.224 227.279 31.224ZM247.696 31V8.6H256.912C258.896 8.6 260.592 8.92 262 9.56C263.429 10.2 264.528 11.1173 265.296 12.312C266.064 13.5067 266.448 14.9253 266.448 16.568C266.448 18.2107 266.064 19.6293 265.296 20.824C264.528 21.9973 263.429 22.904 262 23.544C260.592 24.1627 258.896 24.472 256.912 24.472H250L251.856 22.584V31H247.696ZM262.352 31L256.688 22.872H261.135L266.832 31H262.352ZM251.856 23.032L250 21.048H256.72C258.554 21.048 259.93 20.6533 260.847 19.864C261.786 19.0747 262.256 17.976 262.256 16.568C262.256 15.1387 261.786 14.04 260.847 13.272C259.93 12.504 258.554 12.12 256.72 12.12H250L251.856 10.072V23.032ZM278.75 31.224C276.851 31.224 275.187 30.8507 273.758 30.104C272.35 29.336 271.251 28.2907 270.462 26.968C269.694 25.6453 269.31 24.1413 269.31 22.456C269.31 20.7493 269.683 19.2453 270.43 17.944C271.198 16.6213 272.243 15.5867 273.566 14.84C274.91 14.0933 276.435 13.72 278.142 13.72C279.806 13.72 281.288 14.0827 282.59 14.808C283.891 15.5333 284.915 16.5573 285.662 17.88C286.408 19.2027 286.782 20.76 286.782 22.552C286.782 22.7227 286.771 22.9147 286.75 23.128C286.75 23.3413 286.739 23.544 286.718 23.736H272.478V21.08H284.606L283.038 21.912C283.059 20.9307 282.856 20.0667 282.43 19.32C282.003 18.5733 281.416 17.9867 280.67 17.56C279.944 17.1333 279.102 16.92 278.142 16.92C277.16 16.92 276.296 17.1333 275.55 17.56C274.824 17.9867 274.248 18.584 273.822 19.352C273.416 20.0987 273.214 20.984 273.214 22.008V22.648C273.214 23.672 273.448 24.5787 273.918 25.368C274.387 26.1573 275.048 26.7653 275.902 27.192C276.755 27.6187 277.736 27.832 278.846 27.832C279.806 27.832 280.67 27.6827 281.438 27.384C282.206 27.0853 282.888 26.616 283.486 25.976L285.63 28.44C284.862 29.336 283.891 30.0293 282.718 30.52C281.566 30.9893 280.243 31.224 278.75 31.224ZM300.683 31V27.544L300.459 26.808V20.76C300.459 19.5867 300.107 18.68 299.403 18.04C298.699 17.3787 297.633 17.048 296.203 17.048C295.243 17.048 294.294 17.1973 293.355 17.496C292.438 17.7947 291.659 18.2107 291.019 18.744L289.451 15.832C290.369 15.128 291.457 14.6053 292.715 14.264C293.995 13.9013 295.318 13.72 296.683 13.72C299.158 13.72 301.067 14.3173 302.411 15.512C303.777 16.6853 304.459 18.5093 304.459 20.984V31H300.683ZM295.307 31.224C294.027 31.224 292.907 31.0107 291.947 30.584C290.987 30.136 290.241 29.528 289.707 28.76C289.195 27.9707 288.939 27.0853 288.939 26.104C288.939 25.144 289.163 24.28 289.611 23.512C290.081 22.744 290.838 22.136 291.883 21.688C292.929 21.24 294.315 21.016 296.043 21.016H301.003V23.672H296.331C294.966 23.672 294.049 23.896 293.579 24.344C293.11 24.7707 292.875 25.304 292.875 25.944C292.875 26.6693 293.163 27.2453 293.739 27.672C294.315 28.0987 295.115 28.312 296.139 28.312C297.121 28.312 297.995 28.088 298.763 27.64C299.553 27.192 300.118 26.5307 300.459 25.656L301.131 28.056C300.747 29.0587 300.054 29.8373 299.051 30.392C298.07 30.9467 296.822 31.224 295.307 31.224ZM316.856 31.224C315.213 31.224 313.731 30.8613 312.408 30.136C311.107 29.3893 310.083 28.3653 309.336 27.064C308.589 25.7627 308.216 24.2267 308.216 22.456C308.216 20.6853 308.589 19.1493 309.336 17.848C310.083 16.5467 311.107 15.5333 312.408 14.808C313.731 14.0827 315.213 13.72 316.856 13.72C318.285 13.72 319.565 14.04 320.696 14.68C321.827 15.2987 322.723 16.248 323.384 17.528C324.045 18.808 324.376 20.4507 324.376 22.456C324.376 24.44 324.056 26.0827 323.416 27.384C322.776 28.664 321.891 29.624 320.76 30.264C319.629 30.904 318.328 31.224 316.856 31.224ZM317.336 27.8C318.296 27.8 319.149 27.5867 319.896 27.16C320.664 26.7333 321.272 26.1147 321.72 25.304C322.189 24.4933 322.424 23.544 322.424 22.456C322.424 21.3467 322.189 20.3973 321.72 19.608C321.272 18.7973 320.664 18.1787 319.896 17.752C319.149 17.3253 318.296 17.112 317.336 17.112C316.376 17.112 315.512 17.3253 314.744 17.752C313.997 18.1787 313.389 18.7973 312.92 19.608C312.472 20.3973 312.248 21.3467 312.248 22.456C312.248 23.544 312.472 24.4933 312.92 25.304C313.389 26.1147 313.997 26.7333 314.744 27.16C315.512 27.5867 316.376 27.8 317.336 27.8ZM322.52 31V26.968L322.68 22.424L322.36 17.88V7.256H326.328V31H322.52ZM333.001 37.432C332.169 37.432 331.337 37.2933 330.505 37.016C329.673 36.7387 328.979 36.3547 328.425 35.864L330.025 32.92C330.43 33.2827 330.889 33.5707 331.401 33.784C331.913 33.9973 332.435 34.104 332.969 34.104C333.694 34.104 334.281 33.9227 334.729 33.56C335.177 33.1973 335.593 32.5893 335.977 31.736L336.969 29.496L337.289 29.016L343.753 13.912H347.593L339.593 32.376C339.059 33.656 338.462 34.6693 337.801 35.416C337.161 36.1627 336.435 36.6853 335.625 36.984C334.835 37.2827 333.961 37.432 333.001 37.432ZM336.521 31.608L328.809 13.912H332.969L339.241 28.664L336.521 31.608Z" fill="#333333"/>
<path d="M126.28 67V53H127.5L133.9 63.92H133.26L139.6 53H140.82V67H139.4V55.22H139.74L133.9 65.22H133.2L127.32 55.22H127.7V67H126.28ZM151.662 67V64.68L151.602 64.3V60.42C151.602 59.5267 151.348 58.84 150.842 58.36C150.348 57.88 149.608 57.64 148.622 57.64C147.942 57.64 147.295 57.7533 146.682 57.98C146.068 58.2067 145.548 58.5067 145.122 58.88L144.482 57.82C145.015 57.3667 145.655 57.02 146.402 56.78C147.148 56.5267 147.935 56.4 148.762 56.4C150.122 56.4 151.168 56.74 151.902 57.42C152.648 58.0867 153.022 59.1067 153.022 60.48V67H151.662ZM148.042 67.1C147.255 67.1 146.568 66.9733 145.982 66.72C145.408 66.4533 144.968 66.0933 144.662 65.64C144.355 65.1733 144.202 64.64 144.202 64.04C144.202 63.4933 144.328 63 144.582 62.56C144.848 62.1067 145.275 61.7467 145.862 61.48C146.462 61.2 147.262 61.06 148.262 61.06H151.882V62.12H148.302C147.288 62.12 146.582 62.3 146.182 62.66C145.795 63.02 145.602 63.4667 145.602 64C145.602 64.6 145.835 65.08 146.302 65.44C146.768 65.8 147.422 65.98 148.262 65.98C149.062 65.98 149.748 65.8 150.322 65.44C150.908 65.0667 151.335 64.5333 151.602 63.84L151.922 64.82C151.655 65.5133 151.188 66.0667 150.522 66.48C149.868 66.8933 149.042 67.1 148.042 67.1ZM162.238 56.4C163.092 56.4 163.838 56.5667 164.478 56.9C165.132 57.22 165.638 57.7133 165.998 58.38C166.372 59.0467 166.558 59.8867 166.558 60.9V67H165.138V61.04C165.138 59.9333 164.858 59.1 164.298 58.54C163.752 57.9667 162.978 57.68 161.978 57.68C161.232 57.68 160.578 57.8333 160.018 58.14C159.472 58.4333 159.045 58.8667 158.738 59.44C158.445 60 158.298 60.68 158.298 61.48V67H156.878V56.5H158.238V59.38L158.018 58.84C158.352 58.08 158.885 57.4867 159.618 57.06C160.352 56.62 161.225 56.4 162.238 56.4ZM176.974 67V64.68L176.914 64.3V60.42C176.914 59.5267 176.661 58.84 176.154 58.36C175.661 57.88 174.921 57.64 173.934 57.64C173.254 57.64 172.607 57.7533 171.994 57.98C171.381 58.2067 170.861 58.5067 170.434 58.88L169.794 57.82C170.327 57.3667 170.967 57.02 171.714 56.78C172.461 56.5267 173.247 56.4 174.074 56.4C175.434 56.4 176.481 56.74 177.214 57.42C177.961 58.0867 178.334 59.1067 178.334 60.48V67H176.974ZM173.354 67.1C172.567 67.1 171.881 66.9733 171.294 66.72C170.721 66.4533 170.281 66.0933 169.974 65.64C169.667 65.1733 169.514 64.64 169.514 64.04C169.514 63.4933 169.641 63 169.894 62.56C170.161 62.1067 170.587 61.7467 171.174 61.48C171.774 61.2 172.574 61.06 173.574 61.06H177.194V62.12H173.614C172.601 62.12 171.894 62.3 171.494 62.66C171.107 63.02 170.914 63.4667 170.914 64C170.914 64.6 171.147 65.08 171.614 65.44C172.081 65.8 172.734 65.98 173.574 65.98C174.374 65.98 175.061 65.8 175.634 65.44C176.221 65.0667 176.647 64.5333 176.914 63.84L177.234 64.82C176.967 65.5133 176.501 66.0667 175.834 66.48C175.181 66.8933 174.354 67.1 173.354 67.1ZM186.671 70.98C185.711 70.98 184.791 70.84 183.911 70.56C183.031 70.28 182.318 69.88 181.771 69.36L182.491 68.28C182.984 68.72 183.591 69.0667 184.311 69.32C185.044 69.5867 185.818 69.72 186.631 69.72C187.964 69.72 188.944 69.4067 189.571 68.78C190.198 68.1667 190.511 67.2067 190.511 65.9V63.28L190.711 61.48L190.571 59.68V56.5H191.931V65.72C191.931 67.5333 191.484 68.86 190.591 69.7C189.711 70.5533 188.404 70.98 186.671 70.98ZM186.411 66.6C185.411 66.6 184.511 66.3867 183.711 65.96C182.911 65.52 182.278 64.9133 181.811 64.14C181.358 63.3667 181.131 62.48 181.131 61.48C181.131 60.48 181.358 59.6 181.811 58.84C182.278 58.0667 182.911 57.4667 183.711 57.04C184.511 56.6133 185.411 56.4 186.411 56.4C187.344 56.4 188.184 56.5933 188.931 56.98C189.678 57.3667 190.271 57.94 190.711 58.7C191.151 59.46 191.371 60.3867 191.371 61.48C191.371 62.5733 191.151 63.5 190.711 64.26C190.271 65.02 189.678 65.6 188.931 66C188.184 66.4 187.344 66.6 186.411 66.6ZM186.551 65.34C187.324 65.34 188.011 65.18 188.611 64.86C189.211 64.5267 189.684 64.0733 190.031 63.5C190.378 62.9133 190.551 62.24 190.551 61.48C190.551 60.72 190.378 60.0533 190.031 59.48C189.684 58.9067 189.211 58.46 188.611 58.14C188.011 57.8067 187.324 57.64 186.551 57.64C185.791 57.64 185.104 57.8067 184.491 58.14C183.891 58.46 183.418 58.9067 183.071 59.48C182.738 60.0533 182.571 60.72 182.571 61.48C182.571 62.24 182.738 62.9133 183.071 63.5C183.418 64.0733 183.891 64.5267 184.491 64.86C185.104 65.18 185.791 65.34 186.551 65.34ZM200.342 67.1C199.249 67.1 198.289 66.8733 197.462 66.42C196.636 65.9533 195.989 65.32 195.522 64.52C195.056 63.7067 194.822 62.78 194.822 61.74C194.822 60.7 195.042 59.78 195.482 58.98C195.936 58.18 196.549 57.5533 197.322 57.1C198.109 56.6333 198.989 56.4 199.962 56.4C200.949 56.4 201.822 56.6267 202.582 57.08C203.356 57.52 203.962 58.1467 204.402 58.96C204.842 59.76 205.062 60.6867 205.062 61.74C205.062 61.8067 205.056 61.88 205.042 61.96C205.042 62.0267 205.042 62.1 205.042 62.18H195.902V61.12H204.282L203.722 61.54C203.722 60.78 203.556 60.1067 203.222 59.52C202.902 58.92 202.462 58.4533 201.902 58.12C201.342 57.7867 200.696 57.62 199.962 57.62C199.242 57.62 198.596 57.7867 198.022 58.12C197.449 58.4533 197.002 58.92 196.682 59.52C196.362 60.12 196.202 60.8067 196.202 61.58V61.8C196.202 62.6 196.376 63.3067 196.722 63.92C197.082 64.52 197.576 64.9933 198.202 65.34C198.842 65.6733 199.569 65.84 200.382 65.84C201.022 65.84 201.616 65.7267 202.162 65.5C202.722 65.2733 203.202 64.9267 203.602 64.46L204.402 65.38C203.936 65.94 203.349 66.3667 202.642 66.66C201.949 66.9533 201.182 67.1 200.342 67.1ZM217.467 67.1C216.454 67.1 215.54 66.8733 214.727 66.42C213.927 65.9533 213.294 65.32 212.827 64.52C212.36 63.7067 212.127 62.78 212.127 61.74C212.127 60.6867 212.36 59.76 212.827 58.96C213.294 58.16 213.927 57.5333 214.727 57.08C215.527 56.6267 216.44 56.4 217.467 56.4C218.507 56.4 219.427 56.6267 220.227 57.08C221.04 57.5333 221.674 58.16 222.127 58.96C222.594 59.76 222.827 60.6867 222.827 61.74C222.827 62.78 222.594 63.7067 222.127 64.52C221.674 65.32 221.04 65.9533 220.227 66.42C219.414 66.8733 218.494 67.1 217.467 67.1ZM217.467 65.84C218.227 65.84 218.9 65.6733 219.487 65.34C220.074 64.9933 220.534 64.5133 220.867 63.9C221.214 63.2733 221.387 62.5533 221.387 61.74C221.387 60.9133 221.214 60.1933 220.867 59.58C220.534 58.9667 220.074 58.4933 219.487 58.16C218.9 57.8133 218.234 57.64 217.487 57.64C216.74 57.64 216.074 57.8133 215.487 58.16C214.9 58.4933 214.434 58.9667 214.087 59.58C213.74 60.1933 213.567 60.9133 213.567 61.74C213.567 62.5533 213.74 63.2733 214.087 63.9C214.434 64.5133 214.9 64.9933 215.487 65.34C216.074 65.6733 216.734 65.84 217.467 65.84ZM225.726 67V56.5H227.086V59.36L226.946 58.86C227.239 58.06 227.733 57.4533 228.426 57.04C229.119 56.6133 229.979 56.4 231.006 56.4V57.78C230.953 57.78 230.899 57.78 230.846 57.78C230.793 57.7667 230.739 57.76 230.686 57.76C229.579 57.76 228.713 58.1 228.086 58.78C227.459 59.4467 227.146 60.4 227.146 61.64V67H225.726ZM237.68 67.1C236.68 67.1 235.78 66.8733 234.98 66.42C234.193 65.9667 233.573 65.34 233.12 64.54C232.666 63.7267 232.44 62.7933 232.44 61.74C232.44 60.6733 232.666 59.74 233.12 58.94C233.573 58.14 234.193 57.52 234.98 57.08C235.78 56.6267 236.68 56.4 237.68 56.4C238.6 56.4 239.42 56.6067 240.14 57.02C240.873 57.4333 241.453 58.04 241.88 58.84C242.32 59.6267 242.54 60.5933 242.54 61.74C242.54 62.8733 242.326 63.84 241.9 64.64C241.473 65.44 240.893 66.0533 240.16 66.48C239.44 66.8933 238.613 67.1 237.68 67.1ZM237.78 65.84C238.526 65.84 239.193 65.6733 239.78 65.34C240.38 64.9933 240.846 64.5133 241.18 63.9C241.526 63.2733 241.7 62.5533 241.7 61.74C241.7 60.9133 241.526 60.1933 241.18 59.58C240.846 58.9667 240.38 58.4933 239.78 58.16C239.193 57.8133 238.526 57.64 237.78 57.64C237.046 57.64 236.386 57.8133 235.8 58.16C235.213 58.4933 234.746 58.9667 234.4 59.58C234.053 60.1933 233.88 60.9133 233.88 61.74C233.88 62.5533 234.053 63.2733 234.4 63.9C234.746 64.5133 235.213 64.9933 235.8 65.34C236.386 65.6733 237.046 65.84 237.78 65.84ZM241.74 67V63.84L241.88 61.72L241.68 59.6V52.16H243.1V67H241.74ZM251.514 67.1C250.421 67.1 249.461 66.8733 248.634 66.42C247.808 65.9533 247.161 65.32 246.694 64.52C246.228 63.7067 245.994 62.78 245.994 61.74C245.994 60.7 246.214 59.78 246.654 58.98C247.108 58.18 247.721 57.5533 248.494 57.1C249.281 56.6333 250.161 56.4 251.134 56.4C252.121 56.4 252.994 56.6267 253.754 57.08C254.528 57.52 255.134 58.1467 255.574 58.96C256.014 59.76 256.234 60.6867 256.234 61.74C256.234 61.8067 256.228 61.88 256.214 61.96C256.214 62.0267 256.214 62.1 256.214 62.18H247.074V61.12H255.454L254.894 61.54C254.894 60.78 254.728 60.1067 254.394 59.52C254.074 58.92 253.634 58.4533 253.074 58.12C252.514 57.7867 251.868 57.62 251.134 57.62C250.414 57.62 249.768 57.7867 249.194 58.12C248.621 58.4533 248.174 58.92 247.854 59.52C247.534 60.12 247.374 60.8067 247.374 61.58V61.8C247.374 62.6 247.548 63.3067 247.894 63.92C248.254 64.52 248.748 64.9933 249.374 65.34C250.014 65.6733 250.741 65.84 251.554 65.84C252.194 65.84 252.788 65.7267 253.334 65.5C253.894 65.2733 254.374 64.9267 254.774 64.46L255.574 65.38C255.108 65.94 254.521 66.3667 253.814 66.66C253.121 66.9533 252.354 67.1 251.514 67.1ZM259.125 67V56.5H260.485V59.36L260.345 58.86C260.638 58.06 261.131 57.4533 261.825 57.04C262.518 56.6133 263.378 56.4 264.405 56.4V57.78C264.351 57.78 264.298 57.78 264.245 57.78C264.191 57.7667 264.138 57.76 264.085 57.76C262.978 57.76 262.111 58.1 261.485 58.78C260.858 59.4467 260.545 60.4 260.545 61.64V67H259.125ZM269.933 67.1C269.066 67.1 268.246 66.98 267.473 66.74C266.699 66.4867 266.093 66.1733 265.653 65.8L266.293 64.68C266.719 65 267.266 65.28 267.933 65.52C268.599 65.7467 269.299 65.86 270.033 65.86C271.033 65.86 271.753 65.7067 272.193 65.4C272.633 65.08 272.853 64.66 272.853 64.14C272.853 63.7533 272.726 63.4533 272.473 63.24C272.233 63.0133 271.913 62.8467 271.513 62.74C271.113 62.62 270.666 62.52 270.173 62.44C269.679 62.36 269.186 62.2667 268.693 62.16C268.213 62.0533 267.773 61.9 267.373 61.7C266.973 61.4867 266.646 61.2 266.393 60.84C266.153 60.48 266.033 60 266.033 59.4C266.033 58.8267 266.193 58.3133 266.513 57.86C266.833 57.4067 267.299 57.0533 267.913 56.8C268.539 56.5333 269.299 56.4 270.193 56.4C270.873 56.4 271.553 56.4933 272.233 56.68C272.913 56.8533 273.473 57.0867 273.913 57.38L273.293 58.52C272.826 58.2 272.326 57.9733 271.793 57.84C271.259 57.6933 270.726 57.62 270.193 57.62C269.246 57.62 268.546 57.7867 268.093 58.12C267.653 58.44 267.433 58.8533 267.433 59.36C267.433 59.76 267.553 60.0733 267.793 60.3C268.046 60.5267 268.373 60.7067 268.773 60.84C269.186 60.96 269.633 61.06 270.113 61.14C270.606 61.22 271.093 61.32 271.573 61.44C272.066 61.5467 272.513 61.7 272.913 61.9C273.326 62.0867 273.653 62.36 273.893 62.72C274.146 63.0667 274.273 63.5267 274.273 64.1C274.273 64.7133 274.099 65.2467 273.753 65.7C273.419 66.14 272.926 66.4867 272.273 66.74C271.633 66.98 270.853 67.1 269.933 67.1ZM276.018 69.92L276.898 66.22L277.058 67.08C276.752 67.08 276.492 66.98 276.278 66.78C276.078 66.58 275.978 66.32 275.978 66C275.978 65.68 276.078 65.42 276.278 65.22C276.492 65.02 276.745 64.92 277.038 64.92C277.345 64.92 277.592 65.0267 277.778 65.24C277.978 65.4533 278.078 65.7067 278.078 66C278.078 66.1067 278.072 66.2133 278.058 66.32C278.045 66.4267 278.018 66.5467 277.978 66.68C277.938 66.8133 277.885 66.9733 277.818 67.16L276.978 69.92H276.018ZM289.671 67.1C288.684 67.1 287.924 66.8333 287.391 66.3C286.858 65.7667 286.591 65.0133 286.591 64.04V54.18H288.011V63.96C288.011 64.5733 288.164 65.0467 288.471 65.38C288.791 65.7133 289.244 65.88 289.831 65.88C290.458 65.88 290.978 65.7 291.391 65.34L291.891 66.36C291.611 66.6133 291.271 66.8 290.871 66.92C290.484 67.04 290.084 67.1 289.671 67.1ZM284.711 57.68V56.5H291.211V57.68H284.711ZM294.476 67V56.5H295.836V59.36L295.696 58.86C295.989 58.06 296.483 57.4533 297.176 57.04C297.869 56.6133 298.729 56.4 299.756 56.4V57.78C299.703 57.78 299.649 57.78 299.596 57.78C299.543 57.7667 299.489 57.76 299.436 57.76C298.329 57.76 297.463 58.1 296.836 58.78C296.209 59.4467 295.896 60.4 295.896 61.64V67H294.476ZM308.146 67V64.68L308.086 64.3V60.42C308.086 59.5267 307.833 58.84 307.326 58.36C306.833 57.88 306.093 57.64 305.106 57.64C304.426 57.64 303.779 57.7533 303.166 57.98C302.553 58.2067 302.033 58.5067 301.606 58.88L300.966 57.82C301.499 57.3667 302.139 57.02 302.886 56.78C303.633 56.5267 304.419 56.4 305.246 56.4C306.606 56.4 307.653 56.74 308.386 57.42C309.133 58.0867 309.506 59.1067 309.506 60.48V67H308.146ZM304.526 67.1C303.739 67.1 303.053 66.9733 302.466 66.72C301.893 66.4533 301.453 66.0933 301.146 65.64C300.839 65.1733 300.686 64.64 300.686 64.04C300.686 63.4933 300.813 63 301.066 62.56C301.333 62.1067 301.759 61.7467 302.346 61.48C302.946 61.2 303.746 61.06 304.746 61.06H308.366V62.12H304.786C303.773 62.12 303.066 62.3 302.666 62.66C302.279 63.02 302.086 63.4667 302.086 64C302.086 64.6 302.319 65.08 302.786 65.44C303.253 65.8 303.906 65.98 304.746 65.98C305.546 65.98 306.233 65.8 306.806 65.44C307.393 65.0667 307.819 64.5333 308.086 63.84L308.406 64.82C308.139 65.5133 307.673 66.0667 307.006 66.48C306.353 66.8933 305.526 67.1 304.526 67.1ZM317.723 67.1C316.683 67.1 315.749 66.8733 314.923 66.42C314.109 65.9533 313.469 65.32 313.003 64.52C312.536 63.7067 312.303 62.78 312.303 61.74C312.303 60.6867 312.536 59.76 313.003 58.96C313.469 58.16 314.109 57.5333 314.923 57.08C315.749 56.6267 316.683 56.4 317.723 56.4C318.616 56.4 319.423 56.5733 320.143 56.92C320.863 57.2667 321.429 57.7867 321.843 58.48L320.783 59.2C320.423 58.6667 319.976 58.2733 319.443 58.02C318.909 57.7667 318.329 57.64 317.703 57.64C316.956 57.64 316.283 57.8133 315.683 58.16C315.083 58.4933 314.609 58.9667 314.263 59.58C313.916 60.1933 313.743 60.9133 313.743 61.74C313.743 62.5667 313.916 63.2867 314.263 63.9C314.609 64.5133 315.083 64.9933 315.683 65.34C316.283 65.6733 316.956 65.84 317.703 65.84C318.329 65.84 318.909 65.7133 319.443 65.46C319.976 65.2067 320.423 64.82 320.783 64.3L321.843 65.02C321.429 65.7 320.863 66.22 320.143 66.58C319.423 66.9267 318.616 67.1 317.723 67.1ZM325.596 64.28L325.636 62.46L332.176 56.5H333.916L329.296 60.92L328.496 61.6L325.596 64.28ZM324.476 67V52.16H325.896V67H324.476ZM332.616 67L328.236 61.54L329.156 60.44L334.356 67H332.616ZM128.8 99.1C127.933 99.1 127.113 98.98 126.34 98.74C125.567 98.4867 124.96 98.1733 124.52 97.8L125.16 96.68C125.587 97 126.133 97.28 126.8 97.52C127.467 97.7467 128.167 97.86 128.9 97.86C129.9 97.86 130.62 97.7067 131.06 97.4C131.5 97.08 131.72 96.66 131.72 96.14C131.72 95.7533 131.593 95.4533 131.34 95.24C131.1 95.0133 130.78 94.8467 130.38 94.74C129.98 94.62 129.533 94.52 129.04 94.44C128.547 94.36 128.053 94.2667 127.56 94.16C127.08 94.0533 126.64 93.9 126.24 93.7C125.84 93.4867 125.513 93.2 125.26 92.84C125.02 92.48 124.9 92 124.9 91.4C124.9 90.8267 125.06 90.3133 125.38 89.86C125.7 89.4067 126.167 89.0533 126.78 88.8C127.407 88.5333 128.167 88.4 129.06 88.4C129.74 88.4 130.42 88.4933 131.1 88.68C131.78 88.8533 132.34 89.0867 132.78 89.38L132.16 90.52C131.693 90.2 131.193 89.9733 130.66 89.84C130.127 89.6933 129.593 89.62 129.06 89.62C128.113 89.62 127.413 89.7867 126.96 90.12C126.52 90.44 126.3 90.8533 126.3 91.36C126.3 91.76 126.42 92.0733 126.66 92.3C126.913 92.5267 127.24 92.7067 127.64 92.84C128.053 92.96 128.5 93.06 128.98 93.14C129.473 93.22 129.96 93.32 130.44 93.44C130.933 93.5467 131.38 93.7 131.78 93.9C132.193 94.0867 132.52 94.36 132.76 94.72C133.013 95.0667 133.14 95.5267 133.14 96.1C133.14 96.7133 132.967 97.2467 132.62 97.7C132.287 98.14 131.793 98.4867 131.14 98.74C130.5 98.98 129.72 99.1 128.8 99.1ZM141.106 88.4C141.959 88.4 142.706 88.5667 143.346 88.9C143.999 89.22 144.506 89.7133 144.866 90.38C145.239 91.0467 145.426 91.8867 145.426 92.9V99H144.006V93.04C144.006 91.9333 143.726 91.1 143.166 90.54C142.619 89.9667 141.846 89.68 140.846 89.68C140.099 89.68 139.446 89.8333 138.886 90.14C138.339 90.4333 137.912 90.8667 137.606 91.44C137.312 92 137.166 92.68 137.166 93.48V99H135.746V84.16H137.166V91.38L136.886 90.84C137.219 90.08 137.752 89.4867 138.486 89.06C139.219 88.62 140.092 88.4 141.106 88.4ZM149.261 99V88.5H150.681V99H149.261ZM149.981 86.18C149.688 86.18 149.441 86.08 149.241 85.88C149.041 85.68 148.941 85.44 148.941 85.16C148.941 84.88 149.041 84.6467 149.241 84.46C149.441 84.26 149.688 84.16 149.981 84.16C150.275 84.16 150.521 84.2533 150.721 84.44C150.921 84.6267 151.021 84.86 151.021 85.14C151.021 85.4333 150.921 85.68 150.721 85.88C150.535 86.08 150.288 86.18 149.981 86.18ZM160.052 99.1C159.146 99.1 158.326 98.8933 157.592 98.48C156.859 98.0533 156.272 97.4467 155.832 96.66C155.406 95.86 155.192 94.8867 155.192 93.74C155.192 92.5933 155.406 91.6267 155.832 90.84C156.259 90.04 156.839 89.4333 157.572 89.02C158.306 88.6067 159.132 88.4 160.052 88.4C161.052 88.4 161.946 88.6267 162.732 89.08C163.532 89.52 164.159 90.1467 164.612 90.96C165.066 91.76 165.292 92.6867 165.292 93.74C165.292 94.8067 165.066 95.74 164.612 96.54C164.159 97.34 163.532 97.9667 162.732 98.42C161.946 98.8733 161.052 99.1 160.052 99.1ZM154.632 102.88V88.5H155.992V91.66L155.852 93.76L156.052 95.88V102.88H154.632ZM159.952 97.84C160.699 97.84 161.366 97.6733 161.952 97.34C162.539 96.9933 163.006 96.5133 163.352 95.9C163.699 95.2733 163.872 94.5533 163.872 93.74C163.872 92.9267 163.699 92.2133 163.352 91.6C163.006 90.9867 162.539 90.5067 161.952 90.16C161.366 89.8133 160.699 89.64 159.952 89.64C159.206 89.64 158.532 89.8133 157.932 90.16C157.346 90.5067 156.879 90.9867 156.532 91.6C156.199 92.2133 156.032 92.9267 156.032 93.74C156.032 94.5533 156.199 95.2733 156.532 95.9C156.879 96.5133 157.346 96.9933 157.932 97.34C158.532 97.6733 159.206 97.84 159.952 97.84ZM181.307 88.4C182.16 88.4 182.9 88.5667 183.527 88.9C184.167 89.22 184.66 89.7133 185.007 90.38C185.367 91.0467 185.547 91.8867 185.547 92.9V99H184.127V93.04C184.127 91.9333 183.86 91.1 183.327 90.54C182.807 89.9667 182.067 89.68 181.107 89.68C180.387 89.68 179.76 89.8333 179.227 90.14C178.707 90.4333 178.3 90.8667 178.007 91.44C177.727 92 177.587 92.68 177.587 93.48V99H176.167V93.04C176.167 91.9333 175.9 91.1 175.367 90.54C174.834 89.9667 174.087 89.68 173.127 89.68C172.42 89.68 171.8 89.8333 171.267 90.14C170.734 90.4333 170.32 90.8667 170.027 91.44C169.747 92 169.607 92.68 169.607 93.48V99H168.187V88.5H169.547V91.34L169.327 90.84C169.647 90.08 170.16 89.4867 170.867 89.06C171.587 88.62 172.434 88.4 173.407 88.4C174.434 88.4 175.307 88.66 176.027 89.18C176.747 89.6867 177.214 90.4533 177.427 91.48L176.867 91.26C177.174 90.4067 177.714 89.72 178.487 89.2C179.274 88.6667 180.214 88.4 181.307 88.4ZM193.858 99.1C192.765 99.1 191.805 98.8733 190.978 98.42C190.151 97.9533 189.505 97.32 189.038 96.52C188.571 95.7067 188.338 94.78 188.338 93.74C188.338 92.7 188.558 91.78 188.998 90.98C189.451 90.18 190.065 89.5533 190.838 89.1C191.625 88.6333 192.505 88.4 193.478 88.4C194.465 88.4 195.338 88.6267 196.098 89.08C196.871 89.52 197.478 90.1467 197.918 90.96C198.358 91.76 198.578 92.6867 198.578 93.74C198.578 93.8067 198.571 93.88 198.558 93.96C198.558 94.0267 198.558 94.1 198.558 94.18H189.418V93.12H197.798L197.238 93.54C197.238 92.78 197.071 92.1067 196.738 91.52C196.418 90.92 195.978 90.4533 195.418 90.12C194.858 89.7867 194.211 89.62 193.478 89.62C192.758 89.62 192.111 89.7867 191.538 90.12C190.965 90.4533 190.518 90.92 190.198 91.52C189.878 92.12 189.718 92.8067 189.718 93.58V93.8C189.718 94.6 189.891 95.3067 190.238 95.92C190.598 96.52 191.091 96.9933 191.718 97.34C192.358 97.6733 193.085 97.84 193.898 97.84C194.538 97.84 195.131 97.7267 195.678 97.5C196.238 97.2733 196.718 96.9267 197.118 96.46L197.918 97.38C197.451 97.94 196.865 98.3667 196.158 98.66C195.465 98.9533 194.698 99.1 193.858 99.1ZM206.828 88.4C207.682 88.4 208.428 88.5667 209.068 88.9C209.722 89.22 210.228 89.7133 210.588 90.38C210.962 91.0467 211.148 91.8867 211.148 92.9V99H209.728V93.04C209.728 91.9333 209.448 91.1 208.888 90.54C208.342 89.9667 207.568 89.68 206.568 89.68C205.822 89.68 205.168 89.8333 204.608 90.14C204.062 90.4333 203.635 90.8667 203.328 91.44C203.035 92 202.888 92.68 202.888 93.48V99H201.468V88.5H202.828V91.38L202.608 90.84C202.942 90.08 203.475 89.4867 204.208 89.06C204.942 88.62 205.815 88.4 206.828 88.4ZM218.304 99.1C217.317 99.1 216.557 98.8333 216.024 98.3C215.491 97.7667 215.224 97.0133 215.224 96.04V86.18H216.644V95.96C216.644 96.5733 216.797 97.0467 217.104 97.38C217.424 97.7133 217.877 97.88 218.464 97.88C219.091 97.88 219.611 97.7 220.024 97.34L220.524 98.36C220.244 98.6133 219.904 98.8 219.504 98.92C219.117 99.04 218.717 99.1 218.304 99.1ZM213.344 89.68V88.5H219.844V89.68H213.344ZM225.929 99.1C225.062 99.1 224.242 98.98 223.469 98.74C222.696 98.4867 222.089 98.1733 221.649 97.8L222.289 96.68C222.716 97 223.262 97.28 223.929 97.52C224.596 97.7467 225.296 97.86 226.029 97.86C227.029 97.86 227.749 97.7067 228.189 97.4C228.629 97.08 228.849 96.66 228.849 96.14C228.849 95.7533 228.722 95.4533 228.469 95.24C228.229 95.0133 227.909 94.8467 227.509 94.74C227.109 94.62 226.662 94.52 226.169 94.44C225.676 94.36 225.182 94.2667 224.689 94.16C224.209 94.0533 223.769 93.9 223.369 93.7C222.969 93.4867 222.642 93.2 222.389 92.84C222.149 92.48 222.029 92 222.029 91.4C222.029 90.8267 222.189 90.3133 222.509 89.86C222.829 89.4067 223.296 89.0533 223.909 88.8C224.536 88.5333 225.296 88.4 226.189 88.4C226.869 88.4 227.549 88.4933 228.229 88.68C228.909 88.8533 229.469 89.0867 229.909 89.38L229.289 90.52C228.822 90.2 228.322 89.9733 227.789 89.84C227.256 89.6933 226.722 89.62 226.189 89.62C225.242 89.62 224.542 89.7867 224.089 90.12C223.649 90.44 223.429 90.8533 223.429 91.36C223.429 91.76 223.549 92.0733 223.789 92.3C224.042 92.5267 224.369 92.7067 224.769 92.84C225.182 92.96 225.629 93.06 226.109 93.14C226.602 93.22 227.089 93.32 227.569 93.44C228.062 93.5467 228.509 93.7 228.909 93.9C229.322 94.0867 229.649 94.36 229.889 94.72C230.142 95.0667 230.269 95.5267 230.269 96.1C230.269 96.7133 230.096 97.2467 229.749 97.7C229.416 98.14 228.922 98.4867 228.269 98.74C227.629 98.98 226.849 99.1 225.929 99.1ZM232.015 101.92L232.895 98.22L233.055 99.08C232.748 99.08 232.488 98.98 232.275 98.78C232.075 98.58 231.975 98.32 231.975 98C231.975 97.68 232.075 97.42 232.275 97.22C232.488 97.02 232.741 96.92 233.035 96.92C233.341 96.92 233.588 97.0267 233.775 97.24C233.975 97.4533 234.075 97.7067 234.075 98C234.075 98.1067 234.068 98.2133 234.055 98.32C234.041 98.4267 234.015 98.5467 233.975 98.68C233.935 98.8133 233.881 98.9733 233.815 99.16L232.975 101.92H232.015ZM248.927 99V96.68L248.867 96.3V92.42C248.867 91.5267 248.614 90.84 248.107 90.36C247.614 89.88 246.874 89.64 245.887 89.64C245.207 89.64 244.561 89.7533 243.947 89.98C243.334 90.2067 242.814 90.5067 242.387 90.88L241.747 89.82C242.281 89.3667 242.921 89.02 243.667 88.78C244.414 88.5267 245.201 88.4 246.027 88.4C247.387 88.4 248.434 88.74 249.167 89.42C249.914 90.0867 250.287 91.1067 250.287 92.48V99H248.927ZM245.307 99.1C244.521 99.1 243.834 98.9733 243.247 98.72C242.674 98.4533 242.234 98.0933 241.927 97.64C241.621 97.1733 241.467 96.64 241.467 96.04C241.467 95.4933 241.594 95 241.847 94.56C242.114 94.1067 242.541 93.7467 243.127 93.48C243.727 93.2 244.527 93.06 245.527 93.06H249.147V94.12H245.567C244.554 94.12 243.847 94.3 243.447 94.66C243.061 95.02 242.867 95.4667 242.867 96C242.867 96.6 243.101 97.08 243.567 97.44C244.034 97.8 244.687 97.98 245.527 97.98C246.327 97.98 247.014 97.8 247.587 97.44C248.174 97.0667 248.601 96.5333 248.867 95.84L249.187 96.82C248.921 97.5133 248.454 98.0667 247.787 98.48C247.134 98.8933 246.307 99.1 245.307 99.1ZM259.504 88.4C260.357 88.4 261.104 88.5667 261.744 88.9C262.397 89.22 262.904 89.7133 263.264 90.38C263.637 91.0467 263.824 91.8867 263.824 92.9V99H262.404V93.04C262.404 91.9333 262.124 91.1 261.564 90.54C261.017 89.9667 260.244 89.68 259.244 89.68C258.497 89.68 257.844 89.8333 257.284 90.14C256.737 90.4333 256.311 90.8667 256.004 91.44C255.711 92 255.564 92.68 255.564 93.48V99H254.144V88.5H255.504V91.38L255.284 90.84C255.617 90.08 256.151 89.4867 256.884 89.06C257.617 88.62 258.491 88.4 259.504 88.4ZM271.84 99.1C270.84 99.1 269.94 98.8733 269.14 98.42C268.353 97.9667 267.733 97.34 267.28 96.54C266.826 95.7267 266.6 94.7933 266.6 93.74C266.6 92.6733 266.826 91.74 267.28 90.94C267.733 90.14 268.353 89.52 269.14 89.08C269.94 88.6267 270.84 88.4 271.84 88.4C272.76 88.4 273.58 88.6067 274.3 89.02C275.033 89.4333 275.613 90.04 276.04 90.84C276.48 91.6267 276.7 92.5933 276.7 93.74C276.7 94.8733 276.486 95.84 276.06 96.64C275.633 97.44 275.053 98.0533 274.32 98.48C273.6 98.8933 272.773 99.1 271.84 99.1ZM271.94 97.84C272.686 97.84 273.353 97.6733 273.94 97.34C274.54 96.9933 275.006 96.5133 275.34 95.9C275.686 95.2733 275.86 94.5533 275.86 93.74C275.86 92.9133 275.686 92.1933 275.34 91.58C275.006 90.9667 274.54 90.4933 273.94 90.16C273.353 89.8133 272.686 89.64 271.94 89.64C271.206 89.64 270.546 89.8133 269.96 90.16C269.373 90.4933 268.906 90.9667 268.56 91.58C268.213 92.1933 268.04 92.9133 268.04 93.74C268.04 94.5533 268.213 95.2733 268.56 95.9C268.906 96.5133 269.373 96.9933 269.96 97.34C270.546 97.6733 271.206 97.84 271.94 97.84ZM275.9 99V95.84L276.04 93.72L275.84 91.6V84.16H277.26V99H275.9ZM291.809 88.4C292.662 88.4 293.409 88.5667 294.049 88.9C294.702 89.22 295.209 89.7133 295.569 90.38C295.942 91.0467 296.129 91.8867 296.129 92.9V99H294.709V93.04C294.709 91.9333 294.429 91.1 293.869 90.54C293.322 89.9667 292.549 89.68 291.549 89.68C290.802 89.68 290.149 89.8333 289.589 90.14C289.042 90.4333 288.615 90.8667 288.309 91.44C288.015 92 287.869 92.68 287.869 93.48V99H286.449V84.16H287.869V91.38L287.589 90.84C287.922 90.08 288.455 89.4867 289.189 89.06C289.922 88.62 290.795 88.4 291.809 88.4ZM306.544 99V96.68L306.484 96.3V92.42C306.484 91.5267 306.231 90.84 305.724 90.36C305.231 89.88 304.491 89.64 303.504 89.64C302.824 89.64 302.178 89.7533 301.564 89.98C300.951 90.2067 300.431 90.5067 300.004 90.88L299.364 89.82C299.898 89.3667 300.538 89.02 301.284 88.78C302.031 88.5267 302.818 88.4 303.644 88.4C305.004 88.4 306.051 88.74 306.784 89.42C307.531 90.0867 307.904 91.1067 307.904 92.48V99H306.544ZM302.924 99.1C302.138 99.1 301.451 98.9733 300.864 98.72C300.291 98.4533 299.851 98.0933 299.544 97.64C299.238 97.1733 299.084 96.64 299.084 96.04C299.084 95.4933 299.211 95 299.464 94.56C299.731 94.1067 300.158 93.7467 300.744 93.48C301.344 93.2 302.144 93.06 303.144 93.06H306.764V94.12H303.184C302.171 94.12 301.464 94.3 301.064 94.66C300.678 95.02 300.484 95.4667 300.484 96C300.484 96.6 300.718 97.08 301.184 97.44C301.651 97.8 302.304 97.98 303.144 97.98C303.944 97.98 304.631 97.8 305.204 97.44C305.791 97.0667 306.218 96.5333 306.484 95.84L306.804 96.82C306.538 97.5133 306.071 98.0667 305.404 98.48C304.751 98.8933 303.924 99.1 302.924 99.1ZM317.121 88.4C317.975 88.4 318.721 88.5667 319.361 88.9C320.015 89.22 320.521 89.7133 320.881 90.38C321.255 91.0467 321.441 91.8867 321.441 92.9V99H320.021V93.04C320.021 91.9333 319.741 91.1 319.181 90.54C318.635 89.9667 317.861 89.68 316.861 89.68C316.115 89.68 315.461 89.8333 314.901 90.14C314.355 90.4333 313.928 90.8667 313.621 91.44C313.328 92 313.181 92.68 313.181 93.48V99H311.761V88.5H313.121V91.38L312.901 90.84C313.235 90.08 313.768 89.4867 314.501 89.06C315.235 88.62 316.108 88.4 317.121 88.4ZM329.457 99.1C328.457 99.1 327.557 98.8733 326.757 98.42C325.97 97.9667 325.35 97.34 324.897 96.54C324.444 95.7267 324.217 94.7933 324.217 93.74C324.217 92.6733 324.444 91.74 324.897 90.94C325.35 90.14 325.97 89.52 326.757 89.08C327.557 88.6267 328.457 88.4 329.457 88.4C330.377 88.4 331.197 88.6067 331.917 89.02C332.65 89.4333 333.23 90.04 333.657 90.84C334.097 91.6267 334.317 92.5933 334.317 93.74C334.317 94.8733 334.104 95.84 333.677 96.64C333.25 97.44 332.67 98.0533 331.937 98.48C331.217 98.8933 330.39 99.1 329.457 99.1ZM329.557 97.84C330.304 97.84 330.97 97.6733 331.557 97.34C332.157 96.9933 332.624 96.5133 332.957 95.9C333.304 95.2733 333.477 94.5533 333.477 93.74C333.477 92.9133 333.304 92.1933 332.957 91.58C332.624 90.9667 332.157 90.4933 331.557 90.16C330.97 89.8133 330.304 89.64 329.557 89.64C328.824 89.64 328.164 89.8133 327.577 90.16C326.99 90.4933 326.524 90.9667 326.177 91.58C325.83 92.1933 325.657 92.9133 325.657 93.74C325.657 94.5533 325.83 95.2733 326.177 95.9C326.524 96.5133 326.99 96.9933 327.577 97.34C328.164 97.6733 328.824 97.84 329.557 97.84ZM333.517 99V95.84L333.657 93.72L333.457 91.6V84.16H334.877V99H333.517ZM338.832 99V84.16H340.252V99H338.832ZM348.663 99.1C347.569 99.1 346.609 98.8733 345.783 98.42C344.956 97.9533 344.309 97.32 343.843 96.52C343.376 95.7067 343.143 94.78 343.143 93.74C343.143 92.7 343.363 91.78 343.803 90.98C344.256 90.18 344.869 89.5533 345.643 89.1C346.429 88.6333 347.309 88.4 348.283 88.4C349.269 88.4 350.143 88.6267 350.903 89.08C351.676 89.52 352.283 90.1467 352.723 90.96C353.163 91.76 353.383 92.6867 353.383 93.74C353.383 93.8067 353.376 93.88 353.363 93.96C353.363 94.0267 353.363 94.1 353.363 94.18H344.223V93.12H352.603L352.043 93.54C352.043 92.78 351.876 92.1067 351.543 91.52C351.223 90.92 350.783 90.4533 350.223 90.12C349.663 89.7867 349.016 89.62 348.283 89.62C347.563 89.62 346.916 89.7867 346.343 90.12C345.769 90.4533 345.323 90.92 345.003 91.52C344.683 92.12 344.523 92.8067 344.523 93.58V93.8C344.523 94.6 344.696 95.3067 345.043 95.92C345.403 96.52 345.896 96.9933 346.523 97.34C347.163 97.6733 347.889 97.84 348.703 97.84C349.343 97.84 349.936 97.7267 350.483 97.5C351.043 97.2733 351.523 96.9267 351.923 96.46L352.723 97.38C352.256 97.94 351.669 98.3667 350.963 98.66C350.269 98.9533 349.503 99.1 348.663 99.1ZM130.34 131.1C129.3 131.1 128.367 130.873 127.54 130.42C126.727 129.953 126.087 129.32 125.62 128.52C125.153 127.707 124.92 126.78 124.92 125.74C124.92 124.687 125.153 123.76 125.62 122.96C126.087 122.16 126.727 121.533 127.54 121.08C128.367 120.627 129.3 120.4 130.34 120.4C131.233 120.4 132.04 120.573 132.76 120.92C133.48 121.267 134.047 121.787 134.46 122.48L133.4 123.2C133.04 122.667 132.593 122.273 132.06 122.02C131.527 121.767 130.947 121.64 130.32 121.64C129.573 121.64 128.9 121.813 128.3 122.16C127.7 122.493 127.227 122.967 126.88 123.58C126.533 124.193 126.36 124.913 126.36 125.74C126.36 126.567 126.533 127.287 126.88 127.9C127.227 128.513 127.7 128.993 128.3 129.34C128.9 129.673 129.573 129.84 130.32 129.84C130.947 129.84 131.527 129.713 132.06 129.46C132.593 129.207 133.04 128.82 133.4 128.3L134.46 129.02C134.047 129.7 133.48 130.22 132.76 130.58C132.04 130.927 131.233 131.1 130.34 131.1ZM141.59 131.1C140.696 131.1 139.916 130.933 139.25 130.6C138.583 130.267 138.063 129.767 137.69 129.1C137.33 128.433 137.15 127.6 137.15 126.6V120.5H138.57V126.44C138.57 127.56 138.843 128.407 139.39 128.98C139.95 129.54 140.73 129.82 141.73 129.82C142.463 129.82 143.096 129.673 143.63 129.38C144.176 129.073 144.59 128.633 144.87 128.06C145.163 127.487 145.31 126.8 145.31 126V120.5H146.73V131H145.37V128.12L145.59 128.64C145.256 129.413 144.736 130.02 144.03 130.46C143.336 130.887 142.523 131.1 141.59 131.1ZM153.507 131.1C152.64 131.1 151.82 130.98 151.047 130.74C150.274 130.487 149.667 130.173 149.227 129.8L149.867 128.68C150.294 129 150.84 129.28 151.507 129.52C152.174 129.747 152.874 129.86 153.607 129.86C154.607 129.86 155.327 129.707 155.767 129.4C156.207 129.08 156.427 128.66 156.427 128.14C156.427 127.753 156.3 127.453 156.047 127.24C155.807 127.013 155.487 126.847 155.087 126.74C154.687 126.62 154.24 126.52 153.747 126.44C153.254 126.36 152.76 126.267 152.267 126.16C151.787 126.053 151.347 125.9 150.947 125.7C150.547 125.487 150.22 125.2 149.967 124.84C149.727 124.48 149.607 124 149.607 123.4C149.607 122.827 149.767 122.313 150.087 121.86C150.407 121.407 150.874 121.053 151.487 120.8C152.114 120.533 152.874 120.4 153.767 120.4C154.447 120.4 155.127 120.493 155.807 120.68C156.487 120.853 157.047 121.087 157.487 121.38L156.867 122.52C156.4 122.2 155.9 121.973 155.367 121.84C154.834 121.693 154.3 121.62 153.767 121.62C152.82 121.62 152.12 121.787 151.667 122.12C151.227 122.44 151.007 122.853 151.007 123.36C151.007 123.76 151.127 124.073 151.367 124.3C151.62 124.527 151.947 124.707 152.347 124.84C152.76 124.96 153.207 125.06 153.687 125.14C154.18 125.22 154.667 125.32 155.147 125.44C155.64 125.547 156.087 125.7 156.487 125.9C156.9 126.087 157.227 126.36 157.467 126.72C157.72 127.067 157.847 127.527 157.847 128.1C157.847 128.713 157.674 129.247 157.327 129.7C156.994 130.14 156.5 130.487 155.847 130.74C155.207 130.98 154.427 131.1 153.507 131.1ZM163.773 131.1C162.786 131.1 162.026 130.833 161.493 130.3C160.959 129.767 160.693 129.013 160.693 128.04V118.18H162.113V127.96C162.113 128.573 162.266 129.047 162.573 129.38C162.893 129.713 163.346 129.88 163.933 129.88C164.559 129.88 165.079 129.7 165.493 129.34L165.993 130.36C165.713 130.613 165.373 130.8 164.973 130.92C164.586 131.04 164.186 131.1 163.773 131.1ZM158.813 121.68V120.5H165.313V121.68H158.813ZM172.487 131.1C171.473 131.1 170.56 130.873 169.747 130.42C168.947 129.953 168.313 129.32 167.847 128.52C167.38 127.707 167.147 126.78 167.147 125.74C167.147 124.687 167.38 123.76 167.847 122.96C168.313 122.16 168.947 121.533 169.747 121.08C170.547 120.627 171.46 120.4 172.487 120.4C173.527 120.4 174.447 120.627 175.247 121.08C176.06 121.533 176.693 122.16 177.147 122.96C177.613 123.76 177.847 124.687 177.847 125.74C177.847 126.78 177.613 127.707 177.147 128.52C176.693 129.32 176.06 129.953 175.247 130.42C174.433 130.873 173.513 131.1 172.487 131.1ZM172.487 129.84C173.247 129.84 173.92 129.673 174.507 129.34C175.093 128.993 175.553 128.513 175.887 127.9C176.233 127.273 176.407 126.553 176.407 125.74C176.407 124.913 176.233 124.193 175.887 123.58C175.553 122.967 175.093 122.493 174.507 122.16C173.92 121.813 173.253 121.64 172.507 121.64C171.76 121.64 171.093 121.813 170.507 122.16C169.92 122.493 169.453 122.967 169.107 123.58C168.76 124.193 168.587 124.913 168.587 125.74C168.587 126.553 168.76 127.273 169.107 127.9C169.453 128.513 169.92 128.993 170.507 129.34C171.093 129.673 171.753 129.84 172.487 129.84ZM193.866 120.4C194.719 120.4 195.459 120.567 196.086 120.9C196.726 121.22 197.219 121.713 197.566 122.38C197.926 123.047 198.106 123.887 198.106 124.9V131H196.686V125.04C196.686 123.933 196.419 123.1 195.886 122.54C195.366 121.967 194.626 121.68 193.666 121.68C192.946 121.68 192.319 121.833 191.786 122.14C191.266 122.433 190.859 122.867 190.566 123.44C190.286 124 190.146 124.68 190.146 125.48V131H188.726V125.04C188.726 123.933 188.459 123.1 187.926 122.54C187.392 121.967 186.646 121.68 185.686 121.68C184.979 121.68 184.359 121.833 183.826 122.14C183.292 122.433 182.879 122.867 182.586 123.44C182.306 124 182.166 124.68 182.166 125.48V131H180.746V120.5H182.106V123.34L181.886 122.84C182.206 122.08 182.719 121.487 183.426 121.06C184.146 120.62 184.992 120.4 185.966 120.4C186.992 120.4 187.866 120.66 188.586 121.18C189.306 121.687 189.772 122.453 189.986 123.48L189.426 123.26C189.732 122.407 190.272 121.72 191.046 121.2C191.832 120.667 192.772 120.4 193.866 120.4ZM206.417 131.1C205.323 131.1 204.363 130.873 203.537 130.42C202.71 129.953 202.063 129.32 201.597 128.52C201.13 127.707 200.897 126.78 200.897 125.74C200.897 124.7 201.117 123.78 201.557 122.98C202.01 122.18 202.623 121.553 203.397 121.1C204.183 120.633 205.063 120.4 206.037 120.4C207.023 120.4 207.897 120.627 208.657 121.08C209.43 121.52 210.037 122.147 210.477 122.96C210.917 123.76 211.137 124.687 211.137 125.74C211.137 125.807 211.13 125.88 211.117 125.96C211.117 126.027 211.117 126.1 211.117 126.18H201.977V125.12H210.357L209.797 125.54C209.797 124.78 209.63 124.107 209.297 123.52C208.977 122.92 208.537 122.453 207.977 122.12C207.417 121.787 206.77 121.62 206.037 121.62C205.317 121.62 204.67 121.787 204.097 122.12C203.523 122.453 203.077 122.92 202.757 123.52C202.437 124.12 202.277 124.807 202.277 125.58V125.8C202.277 126.6 202.45 127.307 202.797 127.92C203.157 128.52 203.65 128.993 204.277 129.34C204.917 129.673 205.643 129.84 206.457 129.84C207.097 129.84 207.69 129.727 208.237 129.5C208.797 129.273 209.277 128.927 209.677 128.46L210.477 129.38C210.01 129.94 209.423 130.367 208.717 130.66C208.023 130.953 207.257 131.1 206.417 131.1ZM214.027 131V120.5H215.387V123.36L215.247 122.86C215.54 122.06 216.034 121.453 216.727 121.04C217.42 120.613 218.28 120.4 219.307 120.4V121.78C219.254 121.78 219.2 121.78 219.147 121.78C219.094 121.767 219.04 121.76 218.987 121.76C217.88 121.76 217.014 122.1 216.387 122.78C215.76 123.447 215.447 124.4 215.447 125.64V131H214.027ZM231.469 131.1C230.469 131.1 229.569 130.873 228.769 130.42C227.982 129.967 227.362 129.34 226.909 128.54C226.455 127.727 226.229 126.793 226.229 125.74C226.229 124.673 226.455 123.74 226.909 122.94C227.362 122.14 227.982 121.52 228.769 121.08C229.569 120.627 230.469 120.4 231.469 120.4C232.389 120.4 233.209 120.607 233.929 121.02C234.662 121.433 235.242 122.04 235.669 122.84C236.109 123.627 236.329 124.593 236.329 125.74C236.329 126.873 236.115 127.84 235.689 128.64C235.262 129.44 234.682 130.053 233.949 130.48C233.229 130.893 232.402 131.1 231.469 131.1ZM231.569 129.84C232.315 129.84 232.982 129.673 233.569 129.34C234.169 128.993 234.635 128.513 234.969 127.9C235.315 127.273 235.489 126.553 235.489 125.74C235.489 124.913 235.315 124.193 234.969 123.58C234.635 122.967 234.169 122.493 233.569 122.16C232.982 121.813 232.315 121.64 231.569 121.64C230.835 121.64 230.175 121.813 229.589 122.16C229.002 122.493 228.535 122.967 228.189 123.58C227.842 124.193 227.669 124.913 227.669 125.74C227.669 126.553 227.842 127.273 228.189 127.9C228.535 128.513 229.002 128.993 229.589 129.34C230.175 129.673 230.835 129.84 231.569 129.84ZM235.529 131V127.84L235.669 125.72L235.469 123.6V116.16H236.889V131H235.529ZM247.423 131V128.68L247.363 128.3V124.42C247.363 123.527 247.11 122.84 246.603 122.36C246.11 121.88 245.37 121.64 244.383 121.64C243.703 121.64 243.057 121.753 242.443 121.98C241.83 122.207 241.31 122.507 240.883 122.88L240.243 121.82C240.777 121.367 241.417 121.02 242.163 120.78C242.91 120.527 243.697 120.4 244.523 120.4C245.883 120.4 246.93 120.74 247.663 121.42C248.41 122.087 248.783 123.107 248.783 124.48V131H247.423ZM243.803 131.1C243.017 131.1 242.33 130.973 241.743 130.72C241.17 130.453 240.73 130.093 240.423 129.64C240.117 129.173 239.963 128.64 239.963 128.04C239.963 127.493 240.09 127 240.343 126.56C240.61 126.107 241.037 125.747 241.623 125.48C242.223 125.2 243.023 125.06 244.023 125.06H247.643V126.12H244.063C243.05 126.12 242.343 126.3 241.943 126.66C241.557 127.02 241.363 127.467 241.363 128C241.363 128.6 241.597 129.08 242.063 129.44C242.53 129.8 243.183 129.98 244.023 129.98C244.823 129.98 245.51 129.8 246.083 129.44C246.67 129.067 247.097 128.533 247.363 127.84L247.683 128.82C247.417 129.513 246.95 130.067 246.283 130.48C245.63 130.893 244.803 131.1 243.803 131.1ZM255.96 131.1C254.973 131.1 254.213 130.833 253.68 130.3C253.147 129.767 252.88 129.013 252.88 128.04V118.18H254.3V127.96C254.3 128.573 254.453 129.047 254.76 129.38C255.08 129.713 255.533 129.88 256.12 129.88C256.747 129.88 257.267 129.7 257.68 129.34L258.18 130.36C257.9 130.613 257.56 130.8 257.16 130.92C256.773 131.04 256.373 131.1 255.96 131.1ZM251 121.68V120.5H257.5V121.68H251ZM267.345 131V128.68L267.285 128.3V124.42C267.285 123.527 267.032 122.84 266.525 122.36C266.032 121.88 265.292 121.64 264.305 121.64C263.625 121.64 262.978 121.753 262.365 121.98C261.752 122.207 261.232 122.507 260.805 122.88L260.165 121.82C260.698 121.367 261.338 121.02 262.085 120.78C262.832 120.527 263.618 120.4 264.445 120.4C265.805 120.4 266.852 120.74 267.585 121.42C268.332 122.087 268.705 123.107 268.705 124.48V131H267.345ZM263.725 131.1C262.938 131.1 262.252 130.973 261.665 130.72C261.092 130.453 260.652 130.093 260.345 129.64C260.038 129.173 259.885 128.64 259.885 128.04C259.885 127.493 260.012 127 260.265 126.56C260.532 126.107 260.958 125.747 261.545 125.48C262.145 125.2 262.945 125.06 263.945 125.06H267.565V126.12H263.985C262.972 126.12 262.265 126.3 261.865 126.66C261.478 127.02 261.285 127.467 261.285 128C261.285 128.6 261.518 129.08 261.985 129.44C262.452 129.8 263.105 129.98 263.945 129.98C264.745 129.98 265.432 129.8 266.005 129.44C266.592 129.067 267.018 128.533 267.285 127.84L267.605 128.82C267.338 129.513 266.872 130.067 266.205 130.48C265.552 130.893 264.725 131.1 263.725 131.1ZM280.616 131.1C279.75 131.1 278.93 130.98 278.156 130.74C277.383 130.487 276.776 130.173 276.336 129.8L276.976 128.68C277.403 129 277.95 129.28 278.616 129.52C279.283 129.747 279.983 129.86 280.716 129.86C281.716 129.86 282.436 129.707 282.876 129.4C283.316 129.08 283.536 128.66 283.536 128.14C283.536 127.753 283.41 127.453 283.156 127.24C282.916 127.013 282.596 126.847 282.196 126.74C281.796 126.62 281.35 126.52 280.856 126.44C280.363 126.36 279.87 126.267 279.376 126.16C278.896 126.053 278.456 125.9 278.056 125.7C277.656 125.487 277.33 125.2 277.076 124.84C276.836 124.48 276.716 124 276.716 123.4C276.716 122.827 276.876 122.313 277.196 121.86C277.516 121.407 277.983 121.053 278.596 120.8C279.223 120.533 279.983 120.4 280.876 120.4C281.556 120.4 282.236 120.493 282.916 120.68C283.596 120.853 284.156 121.087 284.596 121.38L283.976 122.52C283.51 122.2 283.01 121.973 282.476 121.84C281.943 121.693 281.41 121.62 280.876 121.62C279.93 121.62 279.23 121.787 278.776 122.12C278.336 122.44 278.116 122.853 278.116 123.36C278.116 123.76 278.236 124.073 278.476 124.3C278.73 124.527 279.056 124.707 279.456 124.84C279.87 124.96 280.316 125.06 280.796 125.14C281.29 125.22 281.776 125.32 282.256 125.44C282.75 125.547 283.196 125.7 283.596 125.9C284.01 126.087 284.336 126.36 284.576 126.72C284.83 127.067 284.956 127.527 284.956 128.1C284.956 128.713 284.783 129.247 284.436 129.7C284.103 130.14 283.61 130.487 282.956 130.74C282.316 130.98 281.536 131.1 280.616 131.1ZM292.022 131.1C290.929 131.1 289.969 130.873 289.142 130.42C288.315 129.953 287.669 129.32 287.202 128.52C286.735 127.707 286.502 126.78 286.502 125.74C286.502 124.7 286.722 123.78 287.162 122.98C287.615 122.18 288.229 121.553 289.002 121.1C289.789 120.633 290.669 120.4 291.642 120.4C292.629 120.4 293.502 120.627 294.262 121.08C295.035 121.52 295.642 122.147 296.082 122.96C296.522 123.76 296.742 124.687 296.742 125.74C296.742 125.807 296.735 125.88 296.722 125.96C296.722 126.027 296.722 126.1 296.722 126.18H287.582V125.12H295.962L295.402 125.54C295.402 124.78 295.235 124.107 294.902 123.52C294.582 122.92 294.142 122.453 293.582 122.12C293.022 121.787 292.375 121.62 291.642 121.62C290.922 121.62 290.275 121.787 289.702 122.12C289.129 122.453 288.682 122.92 288.362 123.52C288.042 124.12 287.882 124.807 287.882 125.58V125.8C287.882 126.6 288.055 127.307 288.402 127.92C288.762 128.52 289.255 128.993 289.882 129.34C290.522 129.673 291.249 129.84 292.062 129.84C292.702 129.84 293.295 129.727 293.842 129.5C294.402 129.273 294.882 128.927 295.282 128.46L296.082 129.38C295.615 129.94 295.029 130.367 294.322 130.66C293.629 130.953 292.862 131.1 292.022 131.1ZM305.919 131V128.68L305.859 128.3V124.42C305.859 123.527 305.606 122.84 305.099 122.36C304.606 121.88 303.866 121.64 302.879 121.64C302.199 121.64 301.553 121.753 300.939 121.98C300.326 122.207 299.806 122.507 299.379 122.88L298.739 121.82C299.273 121.367 299.913 121.02 300.659 120.78C301.406 120.527 302.193 120.4 303.019 120.4C304.379 120.4 305.426 120.74 306.159 121.42C306.906 122.087 307.279 123.107 307.279 124.48V131H305.919ZM302.299 131.1C301.513 131.1 300.826 130.973 300.239 130.72C299.666 130.453 299.226 130.093 298.919 129.64C298.613 129.173 298.459 128.64 298.459 128.04C298.459 127.493 298.586 127 298.839 126.56C299.106 126.107 299.533 125.747 300.119 125.48C300.719 125.2 301.519 125.06 302.519 125.06H306.139V126.12H302.559C301.546 126.12 300.839 126.3 300.439 126.66C300.053 127.02 299.859 127.467 299.859 128C299.859 128.6 300.093 129.08 300.559 129.44C301.026 129.8 301.679 129.98 302.519 129.98C303.319 129.98 304.006 129.8 304.579 129.44C305.166 129.067 305.593 128.533 305.859 127.84L306.179 128.82C305.913 129.513 305.446 130.067 304.779 130.48C304.126 130.893 303.299 131.1 302.299 131.1ZM324.256 120.4C325.11 120.4 325.85 120.567 326.476 120.9C327.116 121.22 327.61 121.713 327.956 122.38C328.316 123.047 328.496 123.887 328.496 124.9V131H327.076V125.04C327.076 123.933 326.81 123.1 326.276 122.54C325.756 121.967 325.016 121.68 324.056 121.68C323.336 121.68 322.71 121.833 322.176 122.14C321.656 122.433 321.25 122.867 320.956 123.44C320.676 124 320.536 124.68 320.536 125.48V131H319.116V125.04C319.116 123.933 318.85 123.1 318.316 122.54C317.783 121.967 317.036 121.68 316.076 121.68C315.37 121.68 314.75 121.833 314.216 122.14C313.683 122.433 313.27 122.867 312.976 123.44C312.696 124 312.556 124.68 312.556 125.48V131H311.136V120.5H312.496V123.34L312.276 122.84C312.596 122.08 313.11 121.487 313.816 121.06C314.536 120.62 315.383 120.4 316.356 120.4C317.383 120.4 318.256 120.66 318.976 121.18C319.696 121.687 320.163 122.453 320.376 123.48L319.816 123.26C320.123 122.407 320.663 121.72 321.436 121.2C322.223 120.667 323.163 120.4 324.256 120.4ZM332.347 131V116.16H333.767V131H332.347ZM342.178 131.1C341.085 131.1 340.125 130.873 339.298 130.42C338.472 129.953 337.825 129.32 337.358 128.52C336.892 127.707 336.658 126.78 336.658 125.74C336.658 124.7 336.878 123.78 337.318 122.98C337.772 122.18 338.385 121.553 339.158 121.1C339.945 120.633 340.825 120.4 341.798 120.4C342.785 120.4 343.658 120.627 344.418 121.08C345.192 121.52 345.798 122.147 346.238 122.96C346.678 123.76 346.898 124.687 346.898 125.74C346.898 125.807 346.892 125.88 346.878 125.96C346.878 126.027 346.878 126.1 346.878 126.18H337.738V125.12H346.118L345.558 125.54C345.558 124.78 345.392 124.107 345.058 123.52C344.738 122.92 344.298 122.453 343.738 122.12C343.178 121.787 342.532 121.62 341.798 121.62C341.078 121.62 340.432 121.787 339.858 122.12C339.285 122.453 338.838 122.92 338.518 123.52C338.198 124.12 338.038 124.807 338.038 125.58V125.8C338.038 126.6 338.212 127.307 338.558 127.92C338.918 128.52 339.412 128.993 340.038 129.34C340.678 129.673 341.405 129.84 342.218 129.84C342.858 129.84 343.452 129.727 343.998 129.5C344.558 129.273 345.038 128.927 345.438 128.46L346.238 129.38C345.772 129.94 345.185 130.367 344.478 130.66C343.785 130.953 343.018 131.1 342.178 131.1ZM352.609 131.1C351.742 131.1 350.922 130.98 350.149 130.74C349.375 130.487 348.769 130.173 348.329 129.8L348.969 128.68C349.395 129 349.942 129.28 350.609 129.52C351.275 129.747 351.975 129.86 352.709 129.86C353.709 129.86 354.429 129.707 354.869 129.4C355.309 129.08 355.529 128.66 355.529 128.14C355.529 127.753 355.402 127.453 355.149 127.24C354.909 127.013 354.589 126.847 354.189 126.74C353.789 126.62 353.342 126.52 352.849 126.44C352.355 126.36 351.862 126.267 351.369 126.16C350.889 126.053 350.449 125.9 350.049 125.7C349.649 125.487 349.322 125.2 349.069 124.84C348.829 124.48 348.709 124 348.709 123.4C348.709 122.827 348.869 122.313 349.189 121.86C349.509 121.407 349.975 121.053 350.589 120.8C351.215 120.533 351.975 120.4 352.869 120.4C353.549 120.4 354.229 120.493 354.909 120.68C355.589 120.853 356.149 121.087 356.589 121.38L355.969 122.52C355.502 122.2 355.002 121.973 354.469 121.84C353.935 121.693 353.402 121.62 352.869 121.62C351.922 121.62 351.222 121.787 350.769 122.12C350.329 122.44 350.109 122.853 350.109 123.36C350.109 123.76 350.229 124.073 350.469 124.3C350.722 124.527 351.049 124.707 351.449 124.84C351.862 124.96 352.309 125.06 352.789 125.14C353.282 125.22 353.769 125.32 354.249 125.44C354.742 125.547 355.189 125.7 355.589 125.9C356.002 126.087 356.329 126.36 356.569 126.72C356.822 127.067 356.949 127.527 356.949 128.1C356.949 128.713 356.775 129.247 356.429 129.7C356.095 130.14 355.602 130.487 354.949 130.74C354.309 130.98 353.529 131.1 352.609 131.1ZM362.374 131.1C361.508 131.1 360.688 130.98 359.914 130.74C359.141 130.487 358.534 130.173 358.094 129.8L358.734 128.68C359.161 129 359.708 129.28 360.374 129.52C361.041 129.747 361.741 129.86 362.474 129.86C363.474 129.86 364.194 129.707 364.634 129.4C365.074 129.08 365.294 128.66 365.294 128.14C365.294 127.753 365.168 127.453 364.914 127.24C364.674 127.013 364.354 126.847 363.954 126.74C363.554 126.62 363.108 126.52 362.614 126.44C362.121 126.36 361.628 126.267 361.134 126.16C360.654 126.053 360.214 125.9 359.814 125.7C359.414 125.487 359.088 125.2 358.834 124.84C358.594 124.48 358.474 124 358.474 123.4C358.474 122.827 358.634 122.313 358.954 121.86C359.274 121.407 359.741 121.053 360.354 120.8C360.981 120.533 361.741 120.4 362.634 120.4C363.314 120.4 363.994 120.493 364.674 120.68C365.354 120.853 365.914 121.087 366.354 121.38L365.734 122.52C365.268 122.2 364.768 121.973 364.234 121.84C363.701 121.693 363.168 121.62 362.634 121.62C361.688 121.62 360.988 121.787 360.534 122.12C360.094 122.44 359.874 122.853 359.874 123.36C359.874 123.76 359.994 124.073 360.234 124.3C360.488 124.527 360.814 124.707 361.214 124.84C361.628 124.96 362.074 125.06 362.554 125.14C363.048 125.22 363.534 125.32 364.014 125.44C364.508 125.547 364.954 125.7 365.354 125.9C365.768 126.087 366.094 126.36 366.334 126.72C366.588 127.067 366.714 127.527 366.714 128.1C366.714 128.713 366.541 129.247 366.194 129.7C365.861 130.14 365.368 130.487 364.714 130.74C364.074 130.98 363.294 131.1 362.374 131.1ZM369.32 131V116.16H370.74V131H369.32ZM374.771 134.98C374.278 134.98 373.804 134.9 373.351 134.74C372.911 134.58 372.531 134.34 372.211 134.02L372.871 132.96C373.138 133.213 373.424 133.407 373.731 133.54C374.051 133.687 374.404 133.76 374.791 133.76C375.258 133.76 375.658 133.627 375.991 133.36C376.338 133.107 376.664 132.653 376.971 132L377.651 130.46L377.811 130.24L382.131 120.5H383.531L378.271 132.26C377.978 132.94 377.651 133.48 377.291 133.88C376.944 134.28 376.564 134.56 376.151 134.72C375.738 134.893 375.278 134.98 374.771 134.98ZM377.571 131.3L372.731 120.5H374.211L378.491 130.14L377.571 131.3ZM384.987 131.1C384.694 131.1 384.441 130.993 384.227 130.78C384.027 130.567 383.927 130.307 383.927 130C383.927 129.68 384.027 129.42 384.227 129.22C384.441 129.02 384.694 128.92 384.987 128.92C385.281 128.92 385.527 129.02 385.727 129.22C385.941 129.42 386.047 129.68 386.047 130C386.047 130.307 385.941 130.567 385.727 130.78C385.527 130.993 385.281 131.1 384.987 131.1Z" fill="#333333"/>
<rect width="100" height="100" rx="6" fill="#F0F0F0"/>
<path d="M47.3333 42V34H39.3333V28.6666H47.3333V20.6666H52.6667V28.6666H60.6667V34H52.6667V42H47.3333ZM32.9 75.1C31.8556 74.0555 31.3333 72.8 31.3333 71.3333C31.3333 69.8666 31.8556 68.6111 32.9 67.5666C33.9445 66.5222 35.2 66 36.6667 66C38.1333 66 39.3889 66.5222 40.4333 67.5666C41.4778 68.6111 42 69.8666 42 71.3333C42 72.8 41.4778 74.0555 40.4333 75.1C39.3889 76.1444 38.1333 76.6666 36.6667 76.6666C35.2 76.6666 33.9445 76.1444 32.9 75.1ZM59.5667 75.1C58.5222 74.0555 58 72.8 58 71.3333C58 69.8666 58.5222 68.6111 59.5667 67.5666C60.6111 66.5222 61.8667 66 63.3333 66C64.8 66 66.0556 66.5222 67.1 67.5666C68.1445 68.6111 68.6667 69.8666 68.6667 71.3333C68.6667 72.8 68.1445 74.0555 67.1 75.1C66.0556 76.1444 64.8 76.6666 63.3333 76.6666C61.8667 76.6666 60.6111 76.1444 59.5667 75.1ZM20.6667 28.6666V23.3333H29.4L40.7333 47.3333H59.4L69.8 28.6666H75.8667L64.1333 49.8666C63.6445 50.7555 62.9889 51.4444 62.1667 51.9333C61.3445 52.4222 60.4445 52.6666 59.4667 52.6666H39.6L36.6667 58H68.6667V63.3333H36.6667C34.6667 63.3333 33.1445 62.4666 32.1 60.7333C31.0556 59 31.0222 57.2444 32 55.4666L35.6 48.9333L26 28.6666H20.6667Z" fill="#001EF4"/>
</svg>
