<svg width="942" height="19" viewBox="0 0 942 19" fill="none" xmlns="http://www.w3.org/2000/svg">
<path d="M1.37091e-06 14.94V0.940001H5.24C6.42667 0.940001 7.44667 1.13334 8.3 1.52C9.15334 1.89334 9.80667 2.44 10.26 3.16C10.7267 3.86667 10.96 4.72667 10.96 5.74C10.96 6.72667 10.7267 7.58 10.26 8.3C9.80667 9.00667 9.15334 9.55334 8.3 9.94C7.44667 10.3267 6.42667 10.52 5.24 10.52H0.820001L1.48 9.82V14.94H1.37091e-06ZM1.48 9.94L0.820001 9.22H5.2C6.6 9.22 7.66 8.92 8.38 8.32C9.11333 7.70667 9.48 6.84667 9.48 5.74C9.48 4.62 9.11333 3.75334 8.38 3.14C7.66 2.52667 6.6 2.22 5.2 2.22H0.820001L1.48 1.52V9.94ZM18.0816 15.04C17.0682 15.04 16.1549 14.8133 15.3416 14.36C14.5416 13.8933 13.9082 13.26 13.4416 12.46C12.9749 11.6467 12.7416 10.72 12.7416 9.68C12.7416 8.62667 12.9749 7.7 13.4416 6.9C13.9082 6.1 14.5416 5.47334 15.3416 5.02C16.1416 4.56667 17.0549 4.34 18.0816 4.34C19.1216 4.34 20.0416 4.56667 20.8416 5.02C21.6549 5.47334 22.2882 6.1 22.7416 6.9C23.2082 7.7 23.4416 8.62667 23.4416 9.68C23.4416 10.72 23.2082 11.6467 22.7416 12.46C22.2882 13.26 21.6549 13.8933 20.8416 14.36C20.0282 14.8133 19.1082 15.04 18.0816 15.04ZM18.0816 13.78C18.8416 13.78 19.5149 13.6133 20.1016 13.28C20.6882 12.9333 21.1482 12.4533 21.4816 11.84C21.8282 11.2133 22.0016 10.4933 22.0016 9.68C22.0016 8.85334 21.8282 8.13334 21.4816 7.52C21.1482 6.90667 20.6882 6.43334 20.1016 6.1C19.5149 5.75334 18.8482 5.58 18.1016 5.58C17.3549 5.58 16.6882 5.75334 16.1016 6.1C15.5149 6.43334 15.0482 6.90667 14.7016 7.52C14.3549 8.13334 14.1816 8.85334 14.1816 9.68C14.1816 10.4933 14.3549 11.2133 14.7016 11.84C15.0482 12.4533 15.5149 12.9333 16.1016 13.28C16.6882 13.6133 17.3482 13.78 18.0816 13.78ZM28.1877 14.94L24.2277 4.44H25.5877L29.1877 14.18H28.5677L32.2677 4.44H33.4877L37.1477 14.18H36.5277L40.1877 4.44H41.4877L37.5077 14.94H36.1677L32.6477 5.78H33.0677L29.5277 14.94H28.1877ZM47.7928 15.04C46.6995 15.04 45.7395 14.8133 44.9128 14.36C44.0861 13.8933 43.4395 13.26 42.9728 12.46C42.5061 11.6467 42.2728 10.72 42.2728 9.68C42.2728 8.64 42.4928 7.72 42.9328 6.92C43.3861 6.12 43.9995 5.49334 44.7728 5.04C45.5595 4.57334 46.4395 4.34 47.4128 4.34C48.3995 4.34 49.2728 4.56667 50.0328 5.02C50.8061 5.46 51.4128 6.08667 51.8528 6.9C52.2928 7.7 52.5128 8.62667 52.5128 9.68C52.5128 9.74667 52.5061 9.82 52.4928 9.9C52.4928 9.96667 52.4928 10.04 52.4928 10.12H43.3528V9.06H51.7328L51.1728 9.48C51.1728 8.72 51.0061 8.04667 50.6728 7.46C50.3528 6.86 49.9128 6.39334 49.3528 6.06C48.7928 5.72667 48.1461 5.56 47.4128 5.56C46.6928 5.56 46.0461 5.72667 45.4728 6.06C44.8995 6.39334 44.4528 6.86 44.1328 7.46C43.8128 8.06 43.6528 8.74667 43.6528 9.52V9.74C43.6528 10.54 43.8261 11.2467 44.1728 11.86C44.5328 12.46 45.0261 12.9333 45.6528 13.28C46.2928 13.6133 47.0195 13.78 47.8328 13.78C48.4728 13.78 49.0661 13.6667 49.6128 13.44C50.1728 13.2133 50.6528 12.8667 51.0528 12.4L51.8528 13.32C51.3861 13.88 50.7995 14.3067 50.0928 14.6C49.3995 14.8933 48.6328 15.04 47.7928 15.04ZM55.4031 14.94V4.44H56.7631V7.3L56.6231 6.8C56.9165 6 57.4098 5.39334 58.1031 4.98C58.7965 4.55334 59.6565 4.34 60.6831 4.34V5.72C60.6298 5.72 60.5765 5.72 60.5231 5.72C60.4698 5.70667 60.4165 5.7 60.3631 5.7C59.2565 5.7 58.3898 6.04 57.7631 6.72C57.1365 7.38667 56.8231 8.34 56.8231 9.58V14.94H55.4031ZM63.6705 14.94V3.12C63.6705 2.18667 63.9438 1.43334 64.4905 0.860001C65.0371 0.286668 65.8238 1.66893e-06 66.8505 1.66893e-06C67.2505 1.66893e-06 67.6371 0.0533351 68.0105 0.160002C68.3838 0.266669 68.6971 0.433335 68.9505 0.660002L68.4705 1.72C68.2705 1.54667 68.0371 1.42 67.7705 1.34C67.5038 1.24667 67.2171 1.2 66.9105 1.2C66.3105 1.2 65.8505 1.36667 65.5305 1.7C65.2105 2.03334 65.0505 2.52667 65.0505 3.18V4.78L65.0905 5.44V14.94H63.6705ZM61.7905 5.62V4.44H68.2905V5.62H61.7905ZM74.5478 15.04C73.6545 15.04 72.8745 14.8733 72.2078 14.54C71.5411 14.2067 71.0211 13.7067 70.6478 13.04C70.2878 12.3733 70.1078 11.54 70.1078 10.54V4.44H71.5278V10.38C71.5278 11.5 71.8011 12.3467 72.3478 12.92C72.9078 13.48 73.6878 13.76 74.6878 13.76C75.4211 13.76 76.0545 13.6133 76.5878 13.32C77.1345 13.0133 77.5478 12.5733 77.8278 12C78.1211 11.4267 78.2678 10.74 78.2678 9.94V4.44H79.6878V14.94H78.3278V12.06L78.5478 12.58C78.2145 13.3533 77.6945 13.96 76.9878 14.4C76.2945 14.8267 75.4811 15.04 74.5478 15.04ZM83.6453 14.94V0.100002H85.0653V14.94H83.6453ZM94.4908 14.94V3.12C94.4908 2.18667 94.7641 1.43334 95.3108 0.860001C95.8574 0.286668 96.6441 1.66893e-06 97.6708 1.66893e-06C98.0708 1.66893e-06 98.4574 0.0533351 98.8308 0.160002C99.2041 0.266669 99.5174 0.433335 99.7708 0.660002L99.2908 1.72C99.0908 1.54667 98.8574 1.42 98.5908 1.34C98.3241 1.24667 98.0374 1.2 97.7308 1.2C97.1308 1.2 96.6708 1.36667 96.3508 1.7C96.0308 2.03334 95.8708 2.52667 95.8708 3.18V4.78L95.9108 5.44V14.94H94.4908ZM92.6108 5.62V4.44H99.1108V5.62H92.6108ZM105.312 15.04C104.219 15.04 103.259 14.8133 102.432 14.36C101.606 13.8933 100.959 13.26 100.492 12.46C100.026 11.6467 99.7923 10.72 99.7923 9.68C99.7923 8.64 100.012 7.72 100.452 6.92C100.906 6.12 101.519 5.49334 102.292 5.04C103.079 4.57334 103.959 4.34 104.932 4.34C105.919 4.34 106.792 4.56667 107.552 5.02C108.326 5.46 108.932 6.08667 109.372 6.9C109.812 7.7 110.032 8.62667 110.032 9.68C110.032 9.74667 110.026 9.82 110.012 9.9C110.012 9.96667 110.012 10.04 110.012 10.12H100.872V9.06H109.252L108.692 9.48C108.692 8.72 108.526 8.04667 108.192 7.46C107.872 6.86 107.432 6.39334 106.872 6.06C106.312 5.72667 105.666 5.56 104.932 5.56C104.212 5.56 103.566 5.72667 102.992 6.06C102.419 6.39334 101.972 6.86 101.652 7.46C101.332 8.06 101.172 8.74667 101.172 9.52V9.74C101.172 10.54 101.346 11.2467 101.692 11.86C102.052 12.46 102.546 12.9333 103.172 13.28C103.812 13.6133 104.539 13.78 105.352 13.78C105.992 13.78 106.586 13.6667 107.132 13.44C107.692 13.2133 108.172 12.8667 108.572 12.4L109.372 13.32C108.906 13.88 108.319 14.3067 107.612 14.6C106.919 14.8933 106.152 15.04 105.312 15.04ZM119.21 14.94V12.62L119.15 12.24V8.36C119.15 7.46667 118.896 6.78 118.39 6.3C117.896 5.82 117.156 5.58 116.17 5.58C115.49 5.58 114.843 5.69334 114.23 5.92C113.616 6.14667 113.096 6.44667 112.67 6.82L112.03 5.76C112.563 5.30667 113.203 4.96 113.95 4.72C114.696 4.46667 115.483 4.34 116.31 4.34C117.67 4.34 118.716 4.68 119.45 5.36C120.196 6.02667 120.57 7.04667 120.57 8.42V14.94H119.21ZM115.59 15.04C114.803 15.04 114.116 14.9133 113.53 14.66C112.956 14.3933 112.516 14.0333 112.21 13.58C111.903 13.1133 111.75 12.58 111.75 11.98C111.75 11.4333 111.876 10.94 112.13 10.5C112.396 10.0467 112.823 9.68667 113.41 9.42C114.01 9.14 114.81 9 115.81 9H119.43V10.06H115.85C114.836 10.06 114.13 10.24 113.73 10.6C113.343 10.96 113.15 11.4067 113.15 11.94C113.15 12.54 113.383 13.02 113.85 13.38C114.316 13.74 114.97 13.92 115.81 13.92C116.61 13.92 117.296 13.74 117.87 13.38C118.456 13.0067 118.883 12.4733 119.15 11.78L119.47 12.76C119.203 13.4533 118.736 14.0067 118.07 14.42C117.416 14.8333 116.59 15.04 115.59 15.04ZM127.747 15.04C126.76 15.04 126 14.7733 125.467 14.24C124.933 13.7067 124.667 12.9533 124.667 11.98V2.12H126.087V11.9C126.087 12.5133 126.24 12.9867 126.547 13.32C126.867 13.6533 127.32 13.82 127.907 13.82C128.533 13.82 129.053 13.64 129.467 13.28L129.967 14.3C129.687 14.5533 129.347 14.74 128.947 14.86C128.56 14.98 128.16 15.04 127.747 15.04ZM122.787 5.62V4.44H129.287V5.62H122.787ZM136.892 15.04C135.998 15.04 135.218 14.8733 134.552 14.54C133.885 14.2067 133.365 13.7067 132.992 13.04C132.632 12.3733 132.452 11.54 132.452 10.54V4.44H133.872V10.38C133.872 11.5 134.145 12.3467 134.692 12.92C135.252 13.48 136.032 13.76 137.032 13.76C137.765 13.76 138.398 13.6133 138.932 13.32C139.478 13.0133 139.892 12.5733 140.172 12C140.465 11.4267 140.612 10.74 140.612 9.94V4.44H142.032V14.94H140.672V12.06L140.892 12.58C140.558 13.3533 140.038 13.96 139.332 14.4C138.638 14.8267 137.825 15.04 136.892 15.04ZM145.989 14.94V4.44H147.349V7.3L147.209 6.8C147.502 6 147.996 5.39334 148.689 4.98C149.382 4.55334 150.242 4.34 151.269 4.34V5.72C151.216 5.72 151.162 5.72 151.109 5.72C151.056 5.70667 151.002 5.7 150.949 5.7C149.842 5.7 148.976 6.04 148.349 6.72C147.722 7.38667 147.409 8.34 147.409 9.58V14.94H145.989ZM158.223 15.04C157.129 15.04 156.169 14.8133 155.343 14.36C154.516 13.8933 153.869 13.26 153.403 12.46C152.936 11.6467 152.703 10.72 152.703 9.68C152.703 8.64 152.923 7.72 153.363 6.92C153.816 6.12 154.429 5.49334 155.203 5.04C155.989 4.57334 156.869 4.34 157.843 4.34C158.829 4.34 159.703 4.56667 160.463 5.02C161.236 5.46 161.843 6.08667 162.283 6.9C162.723 7.7 162.943 8.62667 162.943 9.68C162.943 9.74667 162.936 9.82 162.923 9.9C162.923 9.96667 162.923 10.04 162.923 10.12H153.783V9.06H162.163L161.603 9.48C161.603 8.72 161.436 8.04667 161.103 7.46C160.783 6.86 160.343 6.39334 159.783 6.06C159.223 5.72667 158.576 5.56 157.843 5.56C157.123 5.56 156.476 5.72667 155.903 6.06C155.329 6.39334 154.883 6.86 154.563 7.46C154.243 8.06 154.083 8.74667 154.083 9.52V9.74C154.083 10.54 154.256 11.2467 154.603 11.86C154.963 12.46 155.456 12.9333 156.083 13.28C156.723 13.6133 157.449 13.78 158.263 13.78C158.903 13.78 159.496 13.6667 160.043 13.44C160.603 13.2133 161.083 12.8667 161.483 12.4L162.283 13.32C161.816 13.88 161.229 14.3067 160.523 14.6C159.829 14.8933 159.063 15.04 158.223 15.04ZM168.653 15.04C167.786 15.04 166.966 14.92 166.193 14.68C165.419 14.4267 164.813 14.1133 164.373 13.74L165.013 12.62C165.439 12.94 165.986 13.22 166.653 13.46C167.319 13.6867 168.019 13.8 168.753 13.8C169.753 13.8 170.473 13.6467 170.913 13.34C171.353 13.02 171.573 12.6 171.573 12.08C171.573 11.6933 171.446 11.3933 171.193 11.18C170.953 10.9533 170.633 10.7867 170.233 10.68C169.833 10.56 169.386 10.46 168.893 10.38C168.399 10.3 167.906 10.2067 167.413 10.1C166.933 9.99334 166.493 9.84 166.093 9.64C165.693 9.42667 165.366 9.14 165.113 8.78C164.873 8.42 164.753 7.94 164.753 7.34C164.753 6.76667 164.913 6.25334 165.233 5.8C165.553 5.34667 166.019 4.99334 166.633 4.74C167.259 4.47334 168.019 4.34 168.913 4.34C169.593 4.34 170.273 4.43334 170.953 4.62C171.633 4.79334 172.193 5.02667 172.633 5.32L172.013 6.46C171.546 6.14 171.046 5.91334 170.513 5.78C169.979 5.63334 169.446 5.56 168.913 5.56C167.966 5.56 167.266 5.72667 166.813 6.06C166.373 6.38 166.153 6.79334 166.153 7.3C166.153 7.7 166.273 8.01334 166.513 8.24C166.766 8.46667 167.093 8.64667 167.493 8.78C167.906 8.9 168.353 9 168.833 9.08C169.326 9.16 169.813 9.26 170.293 9.38C170.786 9.48667 171.233 9.64 171.633 9.84C172.046 10.0267 172.373 10.3 172.613 10.66C172.866 11.0067 172.993 11.4667 172.993 12.04C172.993 12.6533 172.819 13.1867 172.473 13.64C172.139 14.08 171.646 14.4267 170.993 14.68C170.353 14.92 169.573 15.04 168.653 15.04ZM185.013 15.04C184.013 15.04 183.113 14.8133 182.313 14.36C181.526 13.9067 180.906 13.28 180.453 12.48C179.999 11.6667 179.773 10.7333 179.773 9.68C179.773 8.61334 179.999 7.68 180.453 6.88C180.906 6.08 181.526 5.46 182.313 5.02C183.113 4.56667 184.013 4.34 185.013 4.34C185.933 4.34 186.753 4.54667 187.473 4.96C188.206 5.37334 188.786 5.98 189.213 6.78C189.653 7.56667 189.873 8.53334 189.873 9.68C189.873 10.8133 189.659 11.78 189.233 12.58C188.806 13.38 188.226 13.9933 187.493 14.42C186.773 14.8333 185.946 15.04 185.013 15.04ZM185.113 13.78C185.859 13.78 186.526 13.6133 187.113 13.28C187.713 12.9333 188.179 12.4533 188.513 11.84C188.859 11.2133 189.033 10.4933 189.033 9.68C189.033 8.85334 188.859 8.13334 188.513 7.52C188.179 6.90667 187.713 6.43334 187.113 6.1C186.526 5.75334 185.859 5.58 185.113 5.58C184.379 5.58 183.719 5.75334 183.133 6.1C182.546 6.43334 182.079 6.90667 181.733 7.52C181.386 8.13334 181.213 8.85334 181.213 9.68C181.213 10.4933 181.386 11.2133 181.733 11.84C182.079 12.4533 182.546 12.9333 183.133 13.28C183.719 13.6133 184.379 13.78 185.113 13.78ZM189.073 14.94V11.78L189.213 9.66L189.013 7.54V0.100002H190.433V14.94H189.073ZM198.848 15.04C197.754 15.04 196.794 14.8133 195.968 14.36C195.141 13.8933 194.494 13.26 194.028 12.46C193.561 11.6467 193.328 10.72 193.328 9.68C193.328 8.64 193.548 7.72 193.988 6.92C194.441 6.12 195.054 5.49334 195.828 5.04C196.614 4.57334 197.494 4.34 198.468 4.34C199.454 4.34 200.328 4.56667 201.088 5.02C201.861 5.46 202.468 6.08667 202.908 6.9C203.348 7.7 203.568 8.62667 203.568 9.68C203.568 9.74667 203.561 9.82 203.548 9.9C203.548 9.96667 203.548 10.04 203.548 10.12H194.408V9.06H202.788L202.228 9.48C202.228 8.72 202.061 8.04667 201.728 7.46C201.408 6.86 200.968 6.39334 200.408 6.06C199.848 5.72667 199.201 5.56 198.468 5.56C197.748 5.56 197.101 5.72667 196.528 6.06C195.954 6.39334 195.508 6.86 195.188 7.46C194.868 8.06 194.708 8.74667 194.708 9.52V9.74C194.708 10.54 194.881 11.2467 195.228 11.86C195.588 12.46 196.081 12.9333 196.708 13.28C197.348 13.6133 198.074 13.78 198.888 13.78C199.528 13.78 200.121 13.6667 200.668 13.44C201.228 13.2133 201.708 12.8667 202.108 12.4L202.908 13.32C202.441 13.88 201.854 14.3067 201.148 14.6C200.454 14.8933 199.688 15.04 198.848 15.04ZM209.278 15.04C208.411 15.04 207.591 14.92 206.818 14.68C206.044 14.4267 205.438 14.1133 204.998 13.74L205.638 12.62C206.064 12.94 206.611 13.22 207.278 13.46C207.944 13.6867 208.644 13.8 209.378 13.8C210.378 13.8 211.098 13.6467 211.538 13.34C211.978 13.02 212.198 12.6 212.198 12.08C212.198 11.6933 212.071 11.3933 211.818 11.18C211.578 10.9533 211.258 10.7867 210.858 10.68C210.458 10.56 210.011 10.46 209.518 10.38C209.024 10.3 208.531 10.2067 208.038 10.1C207.558 9.99334 207.118 9.84 206.718 9.64C206.318 9.42667 205.991 9.14 205.738 8.78C205.498 8.42 205.378 7.94 205.378 7.34C205.378 6.76667 205.538 6.25334 205.858 5.8C206.178 5.34667 206.644 4.99334 207.258 4.74C207.884 4.47334 208.644 4.34 209.538 4.34C210.218 4.34 210.898 4.43334 211.578 4.62C212.258 4.79334 212.818 5.02667 213.258 5.32L212.638 6.46C212.171 6.14 211.671 5.91334 211.138 5.78C210.604 5.63334 210.071 5.56 209.538 5.56C208.591 5.56 207.891 5.72667 207.438 6.06C206.998 6.38 206.778 6.79334 206.778 7.3C206.778 7.7 206.898 8.01334 207.138 8.24C207.391 8.46667 207.718 8.64667 208.118 8.78C208.531 8.9 208.978 9 209.458 9.08C209.951 9.16 210.438 9.26 210.918 9.38C211.411 9.48667 211.858 9.64 212.258 9.84C212.671 10.0267 212.998 10.3 213.238 10.66C213.491 11.0067 213.618 11.4667 213.618 12.04C213.618 12.6533 213.444 13.1867 213.098 13.64C212.764 14.08 212.271 14.4267 211.618 14.68C210.978 14.92 210.198 15.04 209.278 15.04ZM216.223 14.94V4.44H217.643V14.94H216.223ZM216.943 2.12C216.65 2.12 216.403 2.02 216.203 1.82C216.003 1.62 215.903 1.38 215.903 1.1C215.903 0.820001 216.003 0.586668 216.203 0.400001C216.403 0.200001 216.65 0.100002 216.943 0.100002C217.237 0.100002 217.483 0.193335 217.683 0.380002C217.883 0.566668 217.983 0.800002 217.983 1.08C217.983 1.37334 217.883 1.62 217.683 1.82C217.497 2.02 217.25 2.12 216.943 2.12ZM226.075 18.92C225.115 18.92 224.195 18.78 223.315 18.5C222.435 18.22 221.721 17.82 221.175 17.3L221.895 16.22C222.388 16.66 222.995 17.0067 223.715 17.26C224.448 17.5267 225.221 17.66 226.035 17.66C227.368 17.66 228.348 17.3467 228.975 16.72C229.601 16.1067 229.915 15.1467 229.915 13.84V11.22L230.115 9.42L229.975 7.62V4.44H231.335V13.66C231.335 15.4733 230.888 16.8 229.995 17.64C229.115 18.4933 227.808 18.92 226.075 18.92ZM225.815 14.54C224.815 14.54 223.915 14.3267 223.115 13.9C222.315 13.46 221.681 12.8533 221.215 12.08C220.761 11.3067 220.535 10.42 220.535 9.42C220.535 8.42 220.761 7.54 221.215 6.78C221.681 6.00667 222.315 5.40667 223.115 4.98C223.915 4.55334 224.815 4.34 225.815 4.34C226.748 4.34 227.588 4.53334 228.335 4.92C229.081 5.30667 229.675 5.88 230.115 6.64C230.555 7.4 230.775 8.32667 230.775 9.42C230.775 10.5133 230.555 11.44 230.115 12.2C229.675 12.96 229.081 13.54 228.335 13.94C227.588 14.34 226.748 14.54 225.815 14.54ZM225.955 13.28C226.728 13.28 227.415 13.12 228.015 12.8C228.615 12.4667 229.088 12.0133 229.435 11.44C229.781 10.8533 229.955 10.18 229.955 9.42C229.955 8.66 229.781 7.99334 229.435 7.42C229.088 6.84667 228.615 6.4 228.015 6.08C227.415 5.74667 226.728 5.58 225.955 5.58C225.195 5.58 224.508 5.74667 223.895 6.08C223.295 6.4 222.821 6.84667 222.475 7.42C222.141 7.99334 221.975 8.66 221.975 9.42C221.975 10.18 222.141 10.8533 222.475 11.44C222.821 12.0133 223.295 12.4667 223.895 12.8C224.508 13.12 225.195 13.28 225.955 13.28ZM240.646 4.34C241.499 4.34 242.246 4.50667 242.886 4.84C243.539 5.16 244.046 5.65334 244.406 6.32C244.779 6.98667 244.966 7.82667 244.966 8.84V14.94H243.546V8.98C243.546 7.87334 243.266 7.04 242.706 6.48C242.159 5.90667 241.386 5.62 240.386 5.62C239.639 5.62 238.986 5.77334 238.426 6.08C237.879 6.37334 237.453 6.80667 237.146 7.38C236.853 7.94 236.706 8.62 236.706 9.42V14.94H235.286V4.44H236.646V7.32L236.426 6.78C236.759 6.02 237.293 5.42667 238.026 5C238.759 4.56 239.633 4.34 240.646 4.34ZM253.262 15.04C252.168 15.04 251.208 14.8133 250.382 14.36C249.555 13.8933 248.908 13.26 248.442 12.46C247.975 11.6467 247.742 10.72 247.742 9.68C247.742 8.64 247.962 7.72 248.402 6.92C248.855 6.12 249.468 5.49334 250.242 5.04C251.028 4.57334 251.908 4.34 252.882 4.34C253.868 4.34 254.742 4.56667 255.502 5.02C256.275 5.46 256.882 6.08667 257.322 6.9C257.762 7.7 257.982 8.62667 257.982 9.68C257.982 9.74667 257.975 9.82 257.962 9.9C257.962 9.96667 257.962 10.04 257.962 10.12H248.822V9.06H257.202L256.642 9.48C256.642 8.72 256.475 8.04667 256.142 7.46C255.822 6.86 255.382 6.39334 254.822 6.06C254.262 5.72667 253.615 5.56 252.882 5.56C252.162 5.56 251.515 5.72667 250.942 6.06C250.368 6.39334 249.922 6.86 249.602 7.46C249.282 8.06 249.122 8.74667 249.122 9.52V9.74C249.122 10.54 249.295 11.2467 249.642 11.86C250.002 12.46 250.495 12.9333 251.122 13.28C251.762 13.6133 252.488 13.78 253.302 13.78C253.942 13.78 254.535 13.6667 255.082 13.44C255.642 13.2133 256.122 12.8667 256.522 12.4L257.322 13.32C256.855 13.88 256.268 14.3067 255.562 14.6C254.868 14.8933 254.102 15.04 253.262 15.04ZM265.052 15.04C264.052 15.04 263.152 14.8133 262.352 14.36C261.565 13.9067 260.945 13.28 260.492 12.48C260.039 11.6667 259.812 10.7333 259.812 9.68C259.812 8.61334 260.039 7.68 260.492 6.88C260.945 6.08 261.565 5.46 262.352 5.02C263.152 4.56667 264.052 4.34 265.052 4.34C265.972 4.34 266.792 4.54667 267.512 4.96C268.245 5.37334 268.825 5.98 269.252 6.78C269.692 7.56667 269.912 8.53334 269.912 9.68C269.912 10.8133 269.699 11.78 269.272 12.58C268.845 13.38 268.265 13.9933 267.532 14.42C266.812 14.8333 265.985 15.04 265.052 15.04ZM265.152 13.78C265.899 13.78 266.565 13.6133 267.152 13.28C267.752 12.9333 268.219 12.4533 268.552 11.84C268.899 11.2133 269.072 10.4933 269.072 9.68C269.072 8.85334 268.899 8.13334 268.552 7.52C268.219 6.90667 267.752 6.43334 267.152 6.1C266.565 5.75334 265.899 5.58 265.152 5.58C264.419 5.58 263.759 5.75334 263.172 6.1C262.585 6.43334 262.119 6.90667 261.772 7.52C261.425 8.13334 261.252 8.85334 261.252 9.68C261.252 10.4933 261.425 11.2133 261.772 11.84C262.119 12.4533 262.585 12.9333 263.172 13.28C263.759 13.6133 264.419 13.78 265.152 13.78ZM269.112 14.94V11.78L269.252 9.66L269.052 7.54V0.100002H270.472V14.94H269.112ZM282.981 15.04C281.994 15.04 281.234 14.7733 280.701 14.24C280.168 13.7067 279.901 12.9533 279.901 11.98V2.12H281.321V11.9C281.321 12.5133 281.474 12.9867 281.781 13.32C282.101 13.6533 282.554 13.82 283.141 13.82C283.768 13.82 284.288 13.64 284.701 13.28L285.201 14.3C284.921 14.5533 284.581 14.74 284.181 14.86C283.794 14.98 283.394 15.04 282.981 15.04ZM278.021 5.62V4.44H284.521V5.62H278.021ZM291.695 15.04C290.682 15.04 289.768 14.8133 288.955 14.36C288.155 13.8933 287.522 13.26 287.055 12.46C286.588 11.6467 286.355 10.72 286.355 9.68C286.355 8.62667 286.588 7.7 287.055 6.9C287.522 6.1 288.155 5.47334 288.955 5.02C289.755 4.56667 290.668 4.34 291.695 4.34C292.735 4.34 293.655 4.56667 294.455 5.02C295.268 5.47334 295.902 6.1 296.355 6.9C296.822 7.7 297.055 8.62667 297.055 9.68C297.055 10.72 296.822 11.6467 296.355 12.46C295.902 13.26 295.268 13.8933 294.455 14.36C293.642 14.8133 292.722 15.04 291.695 15.04ZM291.695 13.78C292.455 13.78 293.128 13.6133 293.715 13.28C294.302 12.9333 294.762 12.4533 295.095 11.84C295.442 11.2133 295.615 10.4933 295.615 9.68C295.615 8.85334 295.442 8.13334 295.095 7.52C294.762 6.90667 294.302 6.43334 293.715 6.1C293.128 5.75334 292.462 5.58 291.715 5.58C290.968 5.58 290.302 5.75334 289.715 6.1C289.128 6.43334 288.662 6.90667 288.315 7.52C287.968 8.13334 287.795 8.85334 287.795 9.68C287.795 10.4933 287.968 11.2133 288.315 11.84C288.662 12.4533 289.128 12.9333 289.715 13.28C290.302 13.6133 290.962 13.78 291.695 13.78ZM310.548 4.34C311.402 4.34 312.148 4.50667 312.788 4.84C313.442 5.16 313.948 5.65334 314.308 6.32C314.682 6.98667 314.868 7.82667 314.868 8.84V14.94H313.448V8.98C313.448 7.87334 313.168 7.04 312.608 6.48C312.062 5.90667 311.288 5.62 310.288 5.62C309.542 5.62 308.888 5.77334 308.328 6.08C307.782 6.37334 307.355 6.80667 307.048 7.38C306.755 7.94 306.608 8.62 306.608 9.42V14.94H305.188V0.100002H306.608V7.32L306.328 6.78C306.662 6.02 307.195 5.42667 307.928 5C308.662 4.56 309.535 4.34 310.548 4.34ZM323.164 15.04C322.071 15.04 321.111 14.8133 320.284 14.36C319.457 13.8933 318.811 13.26 318.344 12.46C317.877 11.6467 317.644 10.72 317.644 9.68C317.644 8.64 317.864 7.72 318.304 6.92C318.757 6.12 319.371 5.49334 320.144 5.04C320.931 4.57334 321.811 4.34 322.784 4.34C323.771 4.34 324.644 4.56667 325.404 5.02C326.177 5.46 326.784 6.08667 327.224 6.9C327.664 7.7 327.884 8.62667 327.884 9.68C327.884 9.74667 327.877 9.82 327.864 9.9C327.864 9.96667 327.864 10.04 327.864 10.12H318.724V9.06H327.104L326.544 9.48C326.544 8.72 326.377 8.04667 326.044 7.46C325.724 6.86 325.284 6.39334 324.724 6.06C324.164 5.72667 323.517 5.56 322.784 5.56C322.064 5.56 321.417 5.72667 320.844 6.06C320.271 6.39334 319.824 6.86 319.504 7.46C319.184 8.06 319.024 8.74667 319.024 9.52V9.74C319.024 10.54 319.197 11.2467 319.544 11.86C319.904 12.46 320.397 12.9333 321.024 13.28C321.664 13.6133 322.391 13.78 323.204 13.78C323.844 13.78 324.437 13.6667 324.984 13.44C325.544 13.2133 326.024 12.8667 326.424 12.4L327.224 13.32C326.757 13.88 326.171 14.3067 325.464 14.6C324.771 14.8933 324.004 15.04 323.164 15.04ZM330.774 14.94V0.100002H332.194V14.94H330.774ZM341.565 15.04C340.659 15.04 339.839 14.8333 339.105 14.42C338.372 13.9933 337.785 13.3867 337.345 12.6C336.919 11.8 336.705 10.8267 336.705 9.68C336.705 8.53334 336.919 7.56667 337.345 6.78C337.772 5.98 338.352 5.37334 339.085 4.96C339.819 4.54667 340.645 4.34 341.565 4.34C342.565 4.34 343.459 4.56667 344.245 5.02C345.045 5.46 345.672 6.08667 346.125 6.9C346.579 7.7 346.805 8.62667 346.805 9.68C346.805 10.7467 346.579 11.68 346.125 12.48C345.672 13.28 345.045 13.9067 344.245 14.36C343.459 14.8133 342.565 15.04 341.565 15.04ZM336.145 18.82V4.44H337.505V7.6L337.365 9.7L337.565 11.82V18.82H336.145ZM341.465 13.78C342.212 13.78 342.879 13.6133 343.465 13.28C344.052 12.9333 344.519 12.4533 344.865 11.84C345.212 11.2133 345.385 10.4933 345.385 9.68C345.385 8.86667 345.212 8.15334 344.865 7.54C344.519 6.92667 344.052 6.44667 343.465 6.1C342.879 5.75334 342.212 5.58 341.465 5.58C340.719 5.58 340.045 5.75334 339.445 6.1C338.859 6.44667 338.392 6.92667 338.045 7.54C337.712 8.15334 337.545 8.86667 337.545 9.68C337.545 10.4933 337.712 11.2133 338.045 11.84C338.392 12.4533 338.859 12.9333 339.445 13.28C340.045 13.6133 340.719 13.78 341.465 13.78ZM355.014 18.92C354.521 18.92 354.048 18.84 353.594 18.68C353.154 18.52 352.774 18.28 352.454 17.96L353.114 16.9C353.381 17.1533 353.668 17.3467 353.974 17.48C354.294 17.6267 354.648 17.7 355.034 17.7C355.501 17.7 355.901 17.5667 356.234 17.3C356.581 17.0467 356.908 16.5933 357.214 15.94L357.894 14.4L358.054 14.18L362.374 4.44H363.774L358.514 16.2C358.221 16.88 357.894 17.42 357.534 17.82C357.188 18.22 356.808 18.5 356.394 18.66C355.981 18.8333 355.521 18.92 355.014 18.92ZM357.814 15.24L352.974 4.44H354.454L358.734 14.08L357.814 15.24ZM369.761 15.04C368.748 15.04 367.835 14.8133 367.021 14.36C366.221 13.8933 365.588 13.26 365.121 12.46C364.655 11.6467 364.421 10.72 364.421 9.68C364.421 8.62667 364.655 7.7 365.121 6.9C365.588 6.1 366.221 5.47334 367.021 5.02C367.821 4.56667 368.735 4.34 369.761 4.34C370.801 4.34 371.721 4.56667 372.521 5.02C373.335 5.47334 373.968 6.1 374.421 6.9C374.888 7.7 375.121 8.62667 375.121 9.68C375.121 10.72 374.888 11.6467 374.421 12.46C373.968 13.26 373.335 13.8933 372.521 14.36C371.708 14.8133 370.788 15.04 369.761 15.04ZM369.761 13.78C370.521 13.78 371.195 13.6133 371.781 13.28C372.368 12.9333 372.828 12.4533 373.161 11.84C373.508 11.2133 373.681 10.4933 373.681 9.68C373.681 8.85334 373.508 8.13334 373.161 7.52C372.828 6.90667 372.368 6.43334 371.781 6.1C371.195 5.75334 370.528 5.58 369.781 5.58C369.035 5.58 368.368 5.75334 367.781 6.1C367.195 6.43334 366.728 6.90667 366.381 7.52C366.035 8.13334 365.861 8.85334 365.861 9.68C365.861 10.4933 366.035 11.2133 366.381 11.84C366.728 12.4533 367.195 12.9333 367.781 13.28C368.368 13.6133 369.028 13.78 369.761 13.78ZM382.36 15.04C381.467 15.04 380.687 14.8733 380.02 14.54C379.354 14.2067 378.834 13.7067 378.46 13.04C378.1 12.3733 377.92 11.54 377.92 10.54V4.44H379.34V10.38C379.34 11.5 379.614 12.3467 380.16 12.92C380.72 13.48 381.5 13.76 382.5 13.76C383.234 13.76 383.867 13.6133 384.4 13.32C384.947 13.0133 385.36 12.5733 385.64 12C385.934 11.4267 386.08 10.74 386.08 9.94V4.44H387.5V14.94H386.14V12.06L386.36 12.58C386.027 13.3533 385.507 13.96 384.8 14.4C384.107 14.8267 383.294 15.04 382.36 15.04ZM409.812 4.34C410.666 4.34 411.406 4.50667 412.032 4.84C412.672 5.16 413.166 5.65334 413.512 6.32C413.872 6.98667 414.052 7.82667 414.052 8.84V14.94H412.632V8.98C412.632 7.87334 412.366 7.04 411.832 6.48C411.312 5.90667 410.572 5.62 409.612 5.62C408.892 5.62 408.266 5.77334 407.732 6.08C407.212 6.37334 406.806 6.80667 406.512 7.38C406.232 7.94 406.092 8.62 406.092 9.42V14.94H404.672V8.98C404.672 7.87334 404.406 7.04 403.872 6.48C403.339 5.90667 402.592 5.62 401.632 5.62C400.926 5.62 400.306 5.77334 399.772 6.08C399.239 6.37334 398.826 6.80667 398.532 7.38C398.252 7.94 398.112 8.62 398.112 9.42V14.94H396.692V4.44H398.052V7.28L397.832 6.78C398.152 6.02 398.666 5.42667 399.372 5C400.092 4.56 400.939 4.34 401.912 4.34C402.939 4.34 403.812 4.6 404.532 5.12C405.252 5.62667 405.719 6.39334 405.932 7.42L405.372 7.2C405.679 6.34667 406.219 5.66 406.992 5.14C407.779 4.60667 408.719 4.34 409.812 4.34ZM424.483 14.94V12.62L424.423 12.24V8.36C424.423 7.46667 424.17 6.78 423.663 6.3C423.17 5.82 422.43 5.58 421.443 5.58C420.763 5.58 420.116 5.69334 419.503 5.92C418.89 6.14667 418.37 6.44667 417.943 6.82L417.303 5.76C417.836 5.30667 418.476 4.96 419.223 4.72C419.97 4.46667 420.756 4.34 421.583 4.34C422.943 4.34 423.99 4.68 424.723 5.36C425.47 6.02667 425.843 7.04667 425.843 8.42V14.94H424.483ZM420.863 15.04C420.076 15.04 419.39 14.9133 418.803 14.66C418.23 14.3933 417.79 14.0333 417.483 13.58C417.176 13.1133 417.023 12.58 417.023 11.98C417.023 11.4333 417.15 10.94 417.403 10.5C417.67 10.0467 418.096 9.68667 418.683 9.42C419.283 9.14 420.083 9 421.083 9H424.703V10.06H421.123C420.11 10.06 419.403 10.24 419.003 10.6C418.616 10.96 418.423 11.4067 418.423 11.94C418.423 12.54 418.656 13.02 419.123 13.38C419.59 13.74 420.243 13.92 421.083 13.92C421.883 13.92 422.57 13.74 423.143 13.38C423.73 13.0067 424.156 12.4733 424.423 11.78L424.743 12.76C424.476 13.4533 424.01 14.0067 423.343 14.42C422.69 14.8333 421.863 15.04 420.863 15.04ZM435.06 4.34C435.913 4.34 436.66 4.50667 437.3 4.84C437.953 5.16 438.46 5.65334 438.82 6.32C439.193 6.98667 439.38 7.82667 439.38 8.84V14.94H437.96V8.98C437.96 7.87334 437.68 7.04 437.12 6.48C436.573 5.90667 435.8 5.62 434.8 5.62C434.053 5.62 433.4 5.77334 432.84 6.08C432.293 6.37334 431.867 6.80667 431.56 7.38C431.267 7.94 431.12 8.62 431.12 9.42V14.94H429.7V4.44H431.06V7.32L430.84 6.78C431.173 6.02 431.707 5.42667 432.44 5C433.173 4.56 434.047 4.34 435.06 4.34ZM449.796 14.94V12.62L449.736 12.24V8.36C449.736 7.46667 449.482 6.78 448.976 6.3C448.482 5.82 447.742 5.58 446.756 5.58C446.076 5.58 445.429 5.69334 444.816 5.92C444.202 6.14667 443.682 6.44667 443.256 6.82L442.616 5.76C443.149 5.30667 443.789 4.96 444.536 4.72C445.282 4.46667 446.069 4.34 446.896 4.34C448.256 4.34 449.302 4.68 450.036 5.36C450.782 6.02667 451.156 7.04667 451.156 8.42V14.94H449.796ZM446.176 15.04C445.389 15.04 444.702 14.9133 444.116 14.66C443.542 14.3933 443.102 14.0333 442.796 13.58C442.489 13.1133 442.336 12.58 442.336 11.98C442.336 11.4333 442.462 10.94 442.716 10.5C442.982 10.0467 443.409 9.68667 443.996 9.42C444.596 9.14 445.396 9 446.396 9H450.016V10.06H446.436C445.422 10.06 444.716 10.24 444.316 10.6C443.929 10.96 443.736 11.4067 443.736 11.94C443.736 12.54 443.969 13.02 444.436 13.38C444.902 13.74 445.556 13.92 446.396 13.92C447.196 13.92 447.882 13.74 448.456 13.38C449.042 13.0067 449.469 12.4733 449.736 11.78L450.056 12.76C449.789 13.4533 449.322 14.0067 448.656 14.42C448.002 14.8333 447.176 15.04 446.176 15.04ZM459.493 18.92C458.533 18.92 457.613 18.78 456.733 18.5C455.853 18.22 455.139 17.82 454.593 17.3L455.313 16.22C455.806 16.66 456.413 17.0067 457.133 17.26C457.866 17.5267 458.639 17.66 459.453 17.66C460.786 17.66 461.766 17.3467 462.393 16.72C463.019 16.1067 463.333 15.1467 463.333 13.84V11.22L463.533 9.42L463.393 7.62V4.44H464.753V13.66C464.753 15.4733 464.306 16.8 463.413 17.64C462.533 18.4933 461.226 18.92 459.493 18.92ZM459.233 14.54C458.233 14.54 457.333 14.3267 456.533 13.9C455.733 13.46 455.099 12.8533 454.633 12.08C454.179 11.3067 453.953 10.42 453.953 9.42C453.953 8.42 454.179 7.54 454.633 6.78C455.099 6.00667 455.733 5.40667 456.533 4.98C457.333 4.55334 458.233 4.34 459.233 4.34C460.166 4.34 461.006 4.53334 461.753 4.92C462.499 5.30667 463.093 5.88 463.533 6.64C463.973 7.4 464.193 8.32667 464.193 9.42C464.193 10.5133 463.973 11.44 463.533 12.2C463.093 12.96 462.499 13.54 461.753 13.94C461.006 14.34 460.166 14.54 459.233 14.54ZM459.373 13.28C460.146 13.28 460.833 13.12 461.433 12.8C462.033 12.4667 462.506 12.0133 462.853 11.44C463.199 10.8533 463.373 10.18 463.373 9.42C463.373 8.66 463.199 7.99334 462.853 7.42C462.506 6.84667 462.033 6.4 461.433 6.08C460.833 5.74667 460.146 5.58 459.373 5.58C458.613 5.58 457.926 5.74667 457.313 6.08C456.713 6.4 456.239 6.84667 455.893 7.42C455.559 7.99334 455.393 8.66 455.393 9.42C455.393 10.18 455.559 10.8533 455.893 11.44C456.239 12.0133 456.713 12.4667 457.313 12.8C457.926 13.12 458.613 13.28 459.373 13.28ZM473.164 15.04C472.071 15.04 471.111 14.8133 470.284 14.36C469.457 13.8933 468.811 13.26 468.344 12.46C467.877 11.6467 467.644 10.72 467.644 9.68C467.644 8.64 467.864 7.72 468.304 6.92C468.757 6.12 469.371 5.49334 470.144 5.04C470.931 4.57334 471.811 4.34 472.784 4.34C473.771 4.34 474.644 4.56667 475.404 5.02C476.177 5.46 476.784 6.08667 477.224 6.9C477.664 7.7 477.884 8.62667 477.884 9.68C477.884 9.74667 477.877 9.82 477.864 9.9C477.864 9.96667 477.864 10.04 477.864 10.12H468.724V9.06H477.104L476.544 9.48C476.544 8.72 476.377 8.04667 476.044 7.46C475.724 6.86 475.284 6.39334 474.724 6.06C474.164 5.72667 473.517 5.56 472.784 5.56C472.064 5.56 471.417 5.72667 470.844 6.06C470.271 6.39334 469.824 6.86 469.504 7.46C469.184 8.06 469.024 8.74667 469.024 9.52V9.74C469.024 10.54 469.197 11.2467 469.544 11.86C469.904 12.46 470.397 12.9333 471.024 13.28C471.664 13.6133 472.391 13.78 473.204 13.78C473.844 13.78 474.437 13.6667 474.984 13.44C475.544 13.2133 476.024 12.8667 476.424 12.4L477.224 13.32C476.757 13.88 476.171 14.3067 475.464 14.6C474.771 14.8933 474.004 15.04 473.164 15.04ZM486.009 14.94V4.44H487.429V14.94H486.009ZM486.729 2.12C486.435 2.12 486.189 2.02 485.989 1.82C485.789 1.62 485.689 1.38 485.689 1.1C485.689 0.820001 485.789 0.586668 485.989 0.400001C486.189 0.200001 486.435 0.100002 486.729 0.100002C487.022 0.100002 487.269 0.193335 487.469 0.380002C487.669 0.566668 487.769 0.800002 487.769 1.08C487.769 1.37334 487.669 1.62 487.469 1.82C487.282 2.02 487.035 2.12 486.729 2.12ZM496.74 4.34C497.593 4.34 498.34 4.50667 498.98 4.84C499.633 5.16 500.14 5.65334 500.5 6.32C500.873 6.98667 501.06 7.82667 501.06 8.84V14.94H499.64V8.98C499.64 7.87334 499.36 7.04 498.8 6.48C498.253 5.90667 497.48 5.62 496.48 5.62C495.733 5.62 495.08 5.77334 494.52 6.08C493.973 6.37334 493.546 6.80667 493.24 7.38C492.946 7.94 492.8 8.62 492.8 9.42V14.94H491.38V4.44H492.74V7.32L492.52 6.78C492.853 6.02 493.386 5.42667 494.12 5C494.853 4.56 495.726 4.34 496.74 4.34ZM507.4 14.94L502.74 4.44H504.22L508.5 14.18H507.8L512.14 4.44H513.54L508.86 14.94H507.4ZM519.707 15.04C518.614 15.04 517.654 14.8133 516.827 14.36C516 13.8933 515.354 13.26 514.887 12.46C514.42 11.6467 514.187 10.72 514.187 9.68C514.187 8.64 514.407 7.72 514.847 6.92C515.3 6.12 515.914 5.49334 516.687 5.04C517.474 4.57334 518.354 4.34 519.327 4.34C520.314 4.34 521.187 4.56667 521.947 5.02C522.72 5.46 523.327 6.08667 523.767 6.9C524.207 7.7 524.427 8.62667 524.427 9.68C524.427 9.74667 524.42 9.82 524.407 9.9C524.407 9.96667 524.407 10.04 524.407 10.12H515.267V9.06H523.647L523.087 9.48C523.087 8.72 522.92 8.04667 522.587 7.46C522.267 6.86 521.827 6.39334 521.267 6.06C520.707 5.72667 520.06 5.56 519.327 5.56C518.607 5.56 517.96 5.72667 517.387 6.06C516.814 6.39334 516.367 6.86 516.047 7.46C515.727 8.06 515.567 8.74667 515.567 9.52V9.74C515.567 10.54 515.74 11.2467 516.087 11.86C516.447 12.46 516.94 12.9333 517.567 13.28C518.207 13.6133 518.934 13.78 519.747 13.78C520.387 13.78 520.98 13.6667 521.527 13.44C522.087 13.2133 522.567 12.8667 522.967 12.4L523.767 13.32C523.3 13.88 522.714 14.3067 522.007 14.6C521.314 14.8933 520.547 15.04 519.707 15.04ZM532.677 4.34C533.531 4.34 534.277 4.50667 534.917 4.84C535.571 5.16 536.077 5.65334 536.437 6.32C536.811 6.98667 536.997 7.82667 536.997 8.84V14.94H535.577V8.98C535.577 7.87334 535.297 7.04 534.737 6.48C534.191 5.90667 533.417 5.62 532.417 5.62C531.671 5.62 531.017 5.77334 530.457 6.08C529.911 6.37334 529.484 6.80667 529.177 7.38C528.884 7.94 528.737 8.62 528.737 9.42V14.94H527.317V4.44H528.677V7.32L528.457 6.78C528.791 6.02 529.324 5.42667 530.057 5C530.791 4.56 531.664 4.34 532.677 4.34ZM544.153 15.04C543.166 15.04 542.406 14.7733 541.873 14.24C541.339 13.7067 541.073 12.9533 541.073 11.98V2.12H542.493V11.9C542.493 12.5133 542.646 12.9867 542.953 13.32C543.273 13.6533 543.726 13.82 544.313 13.82C544.939 13.82 545.459 13.64 545.873 13.28L546.373 14.3C546.093 14.5533 545.753 14.74 545.353 14.86C544.966 14.98 544.566 15.04 544.153 15.04ZM539.193 5.62V4.44H545.693V5.62H539.193ZM552.867 15.04C551.853 15.04 550.94 14.8133 550.127 14.36C549.327 13.8933 548.693 13.26 548.227 12.46C547.76 11.6467 547.527 10.72 547.527 9.68C547.527 8.62667 547.76 7.7 548.227 6.9C548.693 6.1 549.327 5.47334 550.127 5.02C550.927 4.56667 551.84 4.34 552.867 4.34C553.907 4.34 554.827 4.56667 555.627 5.02C556.44 5.47334 557.073 6.1 557.527 6.9C557.993 7.7 558.227 8.62667 558.227 9.68C558.227 10.72 557.993 11.6467 557.527 12.46C557.073 13.26 556.44 13.8933 555.627 14.36C554.813 14.8133 553.893 15.04 552.867 15.04ZM552.867 13.78C553.627 13.78 554.3 13.6133 554.887 13.28C555.473 12.9333 555.933 12.4533 556.267 11.84C556.613 11.2133 556.787 10.4933 556.787 9.68C556.787 8.85334 556.613 8.13334 556.267 7.52C555.933 6.90667 555.473 6.43334 554.887 6.1C554.3 5.75334 553.633 5.58 552.887 5.58C552.14 5.58 551.473 5.75334 550.887 6.1C550.3 6.43334 549.833 6.90667 549.487 7.52C549.14 8.13334 548.967 8.85334 548.967 9.68C548.967 10.4933 549.14 11.2133 549.487 11.84C549.833 12.4533 550.3 12.9333 550.887 13.28C551.473 13.6133 552.133 13.78 552.867 13.78ZM561.126 14.94V4.44H562.486V7.3L562.346 6.8C562.639 6 563.132 5.39334 563.826 4.98C564.519 4.55334 565.379 4.34 566.406 4.34V5.72C566.352 5.72 566.299 5.72 566.246 5.72C566.192 5.70667 566.139 5.7 566.086 5.7C564.979 5.7 564.112 6.04 563.486 6.72C562.859 7.38667 562.546 8.34 562.546 9.58V14.94H561.126ZM569.526 18.92C569.033 18.92 568.559 18.84 568.106 18.68C567.666 18.52 567.286 18.28 566.966 17.96L567.626 16.9C567.893 17.1533 568.179 17.3467 568.486 17.48C568.806 17.6267 569.159 17.7 569.546 17.7C570.013 17.7 570.413 17.5667 570.746 17.3C571.093 17.0467 571.419 16.5933 571.726 15.94L572.406 14.4L572.566 14.18L576.886 4.44H578.286L573.026 16.2C572.733 16.88 572.406 17.42 572.046 17.82C571.699 18.22 571.319 18.5 570.906 18.66C570.493 18.8333 570.033 18.92 569.526 18.92ZM572.326 15.24L567.486 4.44H568.966L573.246 14.08L572.326 15.24ZM578.742 17.86L579.622 14.16L579.782 15.02C579.476 15.02 579.216 14.92 579.002 14.72C578.802 14.52 578.702 14.26 578.702 13.94C578.702 13.62 578.802 13.36 579.002 13.16C579.216 12.96 579.469 12.86 579.762 12.86C580.069 12.86 580.316 12.9667 580.502 13.18C580.702 13.3933 580.802 13.6467 580.802 13.94C580.802 14.0467 580.796 14.1533 580.782 14.26C580.769 14.3667 580.742 14.4867 580.702 14.62C580.662 14.7533 580.609 14.9133 580.542 15.1L579.702 17.86H578.742ZM592.395 15.04C591.408 15.04 590.648 14.7733 590.115 14.24C589.582 13.7067 589.315 12.9533 589.315 11.98V2.12H590.735V11.9C590.735 12.5133 590.888 12.9867 591.195 13.32C591.515 13.6533 591.968 13.82 592.555 13.82C593.182 13.82 593.702 13.64 594.115 13.28L594.615 14.3C594.335 14.5533 593.995 14.74 593.595 14.86C593.208 14.98 592.808 15.04 592.395 15.04ZM587.435 5.62V4.44H593.935V5.62H587.435ZM597.2 14.94V4.44H598.56V7.3L598.42 6.8C598.713 6 599.207 5.39334 599.9 4.98C600.593 4.55334 601.453 4.34 602.48 4.34V5.72C602.427 5.72 602.373 5.72 602.32 5.72C602.267 5.70667 602.213 5.7 602.16 5.7C601.053 5.7 600.187 6.04 599.56 6.72C598.933 7.38667 598.62 8.34 598.62 9.58V14.94H597.2ZM610.87 14.94V12.62L610.81 12.24V8.36C610.81 7.46667 610.557 6.78 610.05 6.3C609.557 5.82 608.817 5.58 607.83 5.58C607.15 5.58 606.503 5.69334 605.89 5.92C605.277 6.14667 604.757 6.44667 604.33 6.82L603.69 5.76C604.223 5.30667 604.863 4.96 605.61 4.72C606.357 4.46667 607.143 4.34 607.97 4.34C609.33 4.34 610.377 4.68 611.11 5.36C611.857 6.02667 612.23 7.04667 612.23 8.42V14.94H610.87ZM607.25 15.04C606.463 15.04 605.777 14.9133 605.19 14.66C604.617 14.3933 604.177 14.0333 603.87 13.58C603.563 13.1133 603.41 12.58 603.41 11.98C603.41 11.4333 603.537 10.94 603.79 10.5C604.057 10.0467 604.483 9.68667 605.07 9.42C605.67 9.14 606.47 9 607.47 9H611.09V10.06H607.51C606.497 10.06 605.79 10.24 605.39 10.6C605.003 10.96 604.81 11.4067 604.81 11.94C604.81 12.54 605.043 13.02 605.51 13.38C605.977 13.74 606.63 13.92 607.47 13.92C608.27 13.92 608.957 13.74 609.53 13.38C610.117 13.0067 610.543 12.4733 610.81 11.78L611.13 12.76C610.863 13.4533 610.397 14.0067 609.73 14.42C609.077 14.8333 608.25 15.04 607.25 15.04ZM620.447 15.04C619.407 15.04 618.473 14.8133 617.647 14.36C616.833 13.8933 616.193 13.26 615.727 12.46C615.26 11.6467 615.027 10.72 615.027 9.68C615.027 8.62667 615.26 7.7 615.727 6.9C616.193 6.1 616.833 5.47334 617.647 5.02C618.473 4.56667 619.407 4.34 620.447 4.34C621.34 4.34 622.147 4.51334 622.867 4.86C623.587 5.20667 624.153 5.72667 624.567 6.42L623.507 7.14C623.147 6.60667 622.7 6.21334 622.167 5.96C621.633 5.70667 621.053 5.58 620.427 5.58C619.68 5.58 619.007 5.75334 618.407 6.1C617.807 6.43334 617.333 6.90667 616.987 7.52C616.64 8.13334 616.467 8.85334 616.467 9.68C616.467 10.5067 616.64 11.2267 616.987 11.84C617.333 12.4533 617.807 12.9333 618.407 13.28C619.007 13.6133 619.68 13.78 620.427 13.78C621.053 13.78 621.633 13.6533 622.167 13.4C622.7 13.1467 623.147 12.76 623.507 12.24L624.567 12.96C624.153 13.64 623.587 14.16 622.867 14.52C622.147 14.8667 621.34 15.04 620.447 15.04ZM628.32 12.22L628.36 10.4L634.9 4.44H636.64L632.02 8.86L631.22 9.54L628.32 12.22ZM627.2 14.94V0.100002H628.62V14.94H627.2ZM635.34 14.94L630.96 9.48L631.88 8.38L637.08 14.94H635.34ZM647.266 15.04C646.399 15.04 645.579 14.92 644.806 14.68C644.033 14.4267 643.426 14.1133 642.986 13.74L643.626 12.62C644.053 12.94 644.599 13.22 645.266 13.46C645.933 13.6867 646.633 13.8 647.366 13.8C648.366 13.8 649.086 13.6467 649.526 13.34C649.966 13.02 650.186 12.6 650.186 12.08C650.186 11.6933 650.059 11.3933 649.806 11.18C649.566 10.9533 649.246 10.7867 648.846 10.68C648.446 10.56 647.999 10.46 647.506 10.38C647.013 10.3 646.519 10.2067 646.026 10.1C645.546 9.99334 645.106 9.84 644.706 9.64C644.306 9.42667 643.979 9.14 643.726 8.78C643.486 8.42 643.366 7.94 643.366 7.34C643.366 6.76667 643.526 6.25334 643.846 5.8C644.166 5.34667 644.633 4.99334 645.246 4.74C645.873 4.47334 646.633 4.34 647.526 4.34C648.206 4.34 648.886 4.43334 649.566 4.62C650.246 4.79334 650.806 5.02667 651.246 5.32L650.626 6.46C650.159 6.14 649.659 5.91334 649.126 5.78C648.593 5.63334 648.059 5.56 647.526 5.56C646.579 5.56 645.879 5.72667 645.426 6.06C644.986 6.38 644.766 6.79334 644.766 7.3C644.766 7.7 644.886 8.01334 645.126 8.24C645.379 8.46667 645.706 8.64667 646.106 8.78C646.519 8.9 646.966 9 647.446 9.08C647.939 9.16 648.426 9.26 648.906 9.38C649.399 9.48667 649.846 9.64 650.246 9.84C650.659 10.0267 650.986 10.3 651.226 10.66C651.479 11.0067 651.606 11.4667 651.606 12.04C651.606 12.6533 651.433 13.1867 651.086 13.64C650.753 14.08 650.259 14.4267 649.606 14.68C648.966 14.92 648.186 15.04 647.266 15.04ZM660.792 14.94V12.62L660.732 12.24V8.36C660.732 7.46667 660.478 6.78 659.972 6.3C659.478 5.82 658.738 5.58 657.752 5.58C657.072 5.58 656.425 5.69334 655.812 5.92C655.198 6.14667 654.678 6.44667 654.252 6.82L653.612 5.76C654.145 5.30667 654.785 4.96 655.532 4.72C656.278 4.46667 657.065 4.34 657.892 4.34C659.252 4.34 660.298 4.68 661.032 5.36C661.778 6.02667 662.152 7.04667 662.152 8.42V14.94H660.792ZM657.172 15.04C656.385 15.04 655.698 14.9133 655.112 14.66C654.538 14.3933 654.098 14.0333 653.792 13.58C653.485 13.1133 653.332 12.58 653.332 11.98C653.332 11.4333 653.458 10.94 653.712 10.5C653.978 10.0467 654.405 9.68667 654.992 9.42C655.592 9.14 656.392 9 657.392 9H661.012V10.06H657.432C656.418 10.06 655.712 10.24 655.312 10.6C654.925 10.96 654.732 11.4067 654.732 11.94C654.732 12.54 654.965 13.02 655.432 13.38C655.898 13.74 656.552 13.92 657.392 13.92C658.192 13.92 658.878 13.74 659.452 13.38C660.038 13.0067 660.465 12.4733 660.732 11.78L661.052 12.76C660.785 13.4533 660.318 14.0067 659.652 14.42C658.998 14.8333 658.172 15.04 657.172 15.04ZM666.009 14.94V0.100002H667.429V14.94H666.009ZM675.84 15.04C674.746 15.04 673.786 14.8133 672.96 14.36C672.133 13.8933 671.486 13.26 671.02 12.46C670.553 11.6467 670.32 10.72 670.32 9.68C670.32 8.64 670.54 7.72 670.98 6.92C671.433 6.12 672.046 5.49334 672.82 5.04C673.606 4.57334 674.486 4.34 675.46 4.34C676.446 4.34 677.32 4.56667 678.08 5.02C678.853 5.46 679.46 6.08667 679.9 6.9C680.34 7.7 680.56 8.62667 680.56 9.68C680.56 9.74667 680.553 9.82 680.54 9.9C680.54 9.96667 680.54 10.04 680.54 10.12H671.4V9.06H679.78L679.22 9.48C679.22 8.72 679.053 8.04667 678.72 7.46C678.4 6.86 677.96 6.39334 677.4 6.06C676.84 5.72667 676.193 5.56 675.46 5.56C674.74 5.56 674.093 5.72667 673.52 6.06C672.946 6.39334 672.5 6.86 672.18 7.46C671.86 8.06 671.7 8.74667 671.7 9.52V9.74C671.7 10.54 671.873 11.2467 672.22 11.86C672.58 12.46 673.073 12.9333 673.7 13.28C674.34 13.6133 675.066 13.78 675.88 13.78C676.52 13.78 677.113 13.6667 677.66 13.44C678.22 13.2133 678.7 12.8667 679.1 12.4L679.9 13.32C679.433 13.88 678.846 14.3067 678.14 14.6C677.446 14.8933 676.68 15.04 675.84 15.04ZM686.27 15.04C685.403 15.04 684.583 14.92 683.81 14.68C683.037 14.4267 682.43 14.1133 681.99 13.74L682.63 12.62C683.057 12.94 683.603 13.22 684.27 13.46C684.937 13.6867 685.637 13.8 686.37 13.8C687.37 13.8 688.09 13.6467 688.53 13.34C688.97 13.02 689.19 12.6 689.19 12.08C689.19 11.6933 689.063 11.3933 688.81 11.18C688.57 10.9533 688.25 10.7867 687.85 10.68C687.45 10.56 687.003 10.46 686.51 10.38C686.017 10.3 685.523 10.2067 685.03 10.1C684.55 9.99334 684.11 9.84 683.71 9.64C683.31 9.42667 682.983 9.14 682.73 8.78C682.49 8.42 682.37 7.94 682.37 7.34C682.37 6.76667 682.53 6.25334 682.85 5.8C683.17 5.34667 683.637 4.99334 684.25 4.74C684.877 4.47334 685.637 4.34 686.53 4.34C687.21 4.34 687.89 4.43334 688.57 4.62C689.25 4.79334 689.81 5.02667 690.25 5.32L689.63 6.46C689.163 6.14 688.663 5.91334 688.13 5.78C687.597 5.63334 687.063 5.56 686.53 5.56C685.583 5.56 684.883 5.72667 684.43 6.06C683.99 6.38 683.77 6.79334 683.77 7.3C683.77 7.7 683.89 8.01334 684.13 8.24C684.383 8.46667 684.71 8.64667 685.11 8.78C685.523 8.9 685.97 9 686.45 9.08C686.943 9.16 687.43 9.26 687.91 9.38C688.403 9.48667 688.85 9.64 689.25 9.84C689.663 10.0267 689.99 10.3 690.23 10.66C690.483 11.0067 690.61 11.4667 690.61 12.04C690.61 12.6533 690.437 13.1867 690.09 13.64C689.757 14.08 689.263 14.4267 688.61 14.68C687.97 14.92 687.19 15.04 686.27 15.04ZM692.356 17.86L693.236 14.16L693.396 15.02C693.089 15.02 692.829 14.92 692.616 14.72C692.416 14.52 692.316 14.26 692.316 13.94C692.316 13.62 692.416 13.36 692.616 13.16C692.829 12.96 693.082 12.86 693.376 12.86C693.682 12.86 693.929 12.9667 694.116 13.18C694.316 13.3933 694.416 13.6467 694.416 13.94C694.416 14.0467 694.409 14.1533 694.396 14.26C694.382 14.3667 694.356 14.4867 694.316 14.62C694.276 14.7533 694.222 14.9133 694.156 15.1L693.316 17.86H692.356ZM709.268 14.94V12.62L709.208 12.24V8.36C709.208 7.46667 708.955 6.78 708.448 6.3C707.955 5.82 707.215 5.58 706.228 5.58C705.548 5.58 704.902 5.69334 704.288 5.92C703.675 6.14667 703.155 6.44667 702.728 6.82L702.088 5.76C702.622 5.30667 703.262 4.96 704.008 4.72C704.755 4.46667 705.542 4.34 706.368 4.34C707.728 4.34 708.775 4.68 709.508 5.36C710.255 6.02667 710.628 7.04667 710.628 8.42V14.94H709.268ZM705.648 15.04C704.862 15.04 704.175 14.9133 703.588 14.66C703.015 14.3933 702.575 14.0333 702.268 13.58C701.962 13.1133 701.808 12.58 701.808 11.98C701.808 11.4333 701.935 10.94 702.188 10.5C702.455 10.0467 702.882 9.68667 703.468 9.42C704.068 9.14 704.868 9 705.868 9H709.488V10.06H705.908C704.895 10.06 704.188 10.24 703.788 10.6C703.402 10.96 703.208 11.4067 703.208 11.94C703.208 12.54 703.442 13.02 703.908 13.38C704.375 13.74 705.028 13.92 705.868 13.92C706.668 13.92 707.355 13.74 707.928 13.38C708.515 13.0067 708.942 12.4733 709.208 11.78L709.528 12.76C709.262 13.4533 708.795 14.0067 708.128 14.42C707.475 14.8333 706.648 15.04 705.648 15.04ZM719.845 4.34C720.698 4.34 721.445 4.50667 722.085 4.84C722.738 5.16 723.245 5.65334 723.605 6.32C723.978 6.98667 724.165 7.82667 724.165 8.84V14.94H722.745V8.98C722.745 7.87334 722.465 7.04 721.905 6.48C721.358 5.90667 720.585 5.62 719.585 5.62C718.838 5.62 718.185 5.77334 717.625 6.08C717.078 6.37334 716.652 6.80667 716.345 7.38C716.052 7.94 715.905 8.62 715.905 9.42V14.94H714.485V4.44H715.845V7.32L715.625 6.78C715.958 6.02 716.492 5.42667 717.225 5C717.958 4.56 718.832 4.34 719.845 4.34ZM732.181 15.04C731.181 15.04 730.281 14.8133 729.481 14.36C728.694 13.9067 728.074 13.28 727.621 12.48C727.167 11.6667 726.941 10.7333 726.941 9.68C726.941 8.61334 727.167 7.68 727.621 6.88C728.074 6.08 728.694 5.46 729.481 5.02C730.281 4.56667 731.181 4.34 732.181 4.34C733.101 4.34 733.921 4.54667 734.641 4.96C735.374 5.37334 735.954 5.98 736.381 6.78C736.821 7.56667 737.041 8.53334 737.041 9.68C737.041 10.8133 736.827 11.78 736.401 12.58C735.974 13.38 735.394 13.9933 734.661 14.42C733.941 14.8333 733.114 15.04 732.181 15.04ZM732.281 13.78C733.027 13.78 733.694 13.6133 734.281 13.28C734.881 12.9333 735.347 12.4533 735.681 11.84C736.027 11.2133 736.201 10.4933 736.201 9.68C736.201 8.85334 736.027 8.13334 735.681 7.52C735.347 6.90667 734.881 6.43334 734.281 6.1C733.694 5.75334 733.027 5.58 732.281 5.58C731.547 5.58 730.887 5.75334 730.301 6.1C729.714 6.43334 729.247 6.90667 728.901 7.52C728.554 8.13334 728.381 8.85334 728.381 9.68C728.381 10.4933 728.554 11.2133 728.901 11.84C729.247 12.4533 729.714 12.9333 730.301 13.28C730.887 13.6133 731.547 13.78 732.281 13.78ZM736.241 14.94V11.78L736.381 9.66L736.181 7.54V0.100002H737.601V14.94H736.241ZM751.27 18.92C750.31 18.92 749.39 18.78 748.51 18.5C747.63 18.22 746.917 17.82 746.37 17.3L747.09 16.22C747.583 16.66 748.19 17.0067 748.91 17.26C749.643 17.5267 750.417 17.66 751.23 17.66C752.563 17.66 753.543 17.3467 754.17 16.72C754.797 16.1067 755.11 15.1467 755.11 13.84V11.22L755.31 9.42L755.17 7.62V4.44H756.53V13.66C756.53 15.4733 756.083 16.8 755.19 17.64C754.31 18.4933 753.003 18.92 751.27 18.92ZM751.01 14.54C750.01 14.54 749.11 14.3267 748.31 13.9C747.51 13.46 746.877 12.8533 746.41 12.08C745.957 11.3067 745.73 10.42 745.73 9.42C745.73 8.42 745.957 7.54 746.41 6.78C746.877 6.00667 747.51 5.40667 748.31 4.98C749.11 4.55334 750.01 4.34 751.01 4.34C751.943 4.34 752.783 4.53334 753.53 4.92C754.277 5.30667 754.87 5.88 755.31 6.64C755.75 7.4 755.97 8.32667 755.97 9.42C755.97 10.5133 755.75 11.44 755.31 12.2C754.87 12.96 754.277 13.54 753.53 13.94C752.783 14.34 751.943 14.54 751.01 14.54ZM751.15 13.28C751.923 13.28 752.61 13.12 753.21 12.8C753.81 12.4667 754.283 12.0133 754.63 11.44C754.977 10.8533 755.15 10.18 755.15 9.42C755.15 8.66 754.977 7.99334 754.63 7.42C754.283 6.84667 753.81 6.4 753.21 6.08C752.61 5.74667 751.923 5.58 751.15 5.58C750.39 5.58 749.703 5.74667 749.09 6.08C748.49 6.4 748.017 6.84667 747.67 7.42C747.337 7.99334 747.17 8.66 747.17 9.42C747.17 10.18 747.337 10.8533 747.67 11.44C748.017 12.0133 748.49 12.4667 749.09 12.8C749.703 13.12 750.39 13.28 751.15 13.28ZM760.481 14.94V4.44H761.841V7.3L761.701 6.8C761.995 6 762.488 5.39334 763.181 4.98C763.875 4.55334 764.735 4.34 765.761 4.34V5.72C765.708 5.72 765.655 5.72 765.601 5.72C765.548 5.70667 765.495 5.7 765.441 5.7C764.335 5.7 763.468 6.04 762.841 6.72C762.215 7.38667 761.901 8.34 761.901 9.58V14.94H760.481ZM772.535 15.04C771.521 15.04 770.608 14.8133 769.795 14.36C768.995 13.8933 768.361 13.26 767.895 12.46C767.428 11.6467 767.195 10.72 767.195 9.68C767.195 8.62667 767.428 7.7 767.895 6.9C768.361 6.1 768.995 5.47334 769.795 5.02C770.595 4.56667 771.508 4.34 772.535 4.34C773.575 4.34 774.495 4.56667 775.295 5.02C776.108 5.47334 776.741 6.1 777.195 6.9C777.661 7.7 777.895 8.62667 777.895 9.68C777.895 10.72 777.661 11.6467 777.195 12.46C776.741 13.26 776.108 13.8933 775.295 14.36C774.481 14.8133 773.561 15.04 772.535 15.04ZM772.535 13.78C773.295 13.78 773.968 13.6133 774.555 13.28C775.141 12.9333 775.601 12.4533 775.935 11.84C776.281 11.2133 776.455 10.4933 776.455 9.68C776.455 8.85334 776.281 8.13334 775.935 7.52C775.601 6.90667 775.141 6.43334 774.555 6.1C773.968 5.75334 773.301 5.58 772.555 5.58C771.808 5.58 771.141 5.75334 770.555 6.1C769.968 6.43334 769.501 6.90667 769.155 7.52C768.808 8.13334 768.635 8.85334 768.635 9.68C768.635 10.4933 768.808 11.2133 769.155 11.84C769.501 12.4533 769.968 12.9333 770.555 13.28C771.141 13.6133 771.801 13.78 772.535 13.78ZM782.641 14.94L778.681 4.44H780.041L783.641 14.18H783.021L786.721 4.44H787.941L791.601 14.18H790.981L794.641 4.44H795.941L791.961 14.94H790.621L787.101 5.78H787.521L783.981 14.94H782.641ZM803.393 18.92C802.9 18.92 802.427 18.84 801.973 18.68C801.533 18.52 801.153 18.28 800.833 17.96L801.493 16.9C801.76 17.1533 802.047 17.3467 802.353 17.48C802.673 17.6267 803.027 17.7 803.413 17.7C803.88 17.7 804.28 17.5667 804.613 17.3C804.96 17.0467 805.287 16.5933 805.593 15.94L806.273 14.4L806.433 14.18L810.753 4.44H812.153L806.893 16.2C806.6 16.88 806.273 17.42 805.913 17.82C805.567 18.22 805.187 18.5 804.773 18.66C804.36 18.8333 803.9 18.92 803.393 18.92ZM806.193 15.24L801.353 4.44H802.833L807.113 14.08L806.193 15.24ZM818.14 15.04C817.127 15.04 816.213 14.8133 815.4 14.36C814.6 13.8933 813.967 13.26 813.5 12.46C813.033 11.6467 812.8 10.72 812.8 9.68C812.8 8.62667 813.033 7.7 813.5 6.9C813.967 6.1 814.6 5.47334 815.4 5.02C816.2 4.56667 817.113 4.34 818.14 4.34C819.18 4.34 820.1 4.56667 820.9 5.02C821.713 5.47334 822.347 6.1 822.8 6.9C823.267 7.7 823.5 8.62667 823.5 9.68C823.5 10.72 823.267 11.6467 822.8 12.46C822.347 13.26 821.713 13.8933 820.9 14.36C820.087 14.8133 819.167 15.04 818.14 15.04ZM818.14 13.78C818.9 13.78 819.573 13.6133 820.16 13.28C820.747 12.9333 821.207 12.4533 821.54 11.84C821.887 11.2133 822.06 10.4933 822.06 9.68C822.06 8.85334 821.887 8.13334 821.54 7.52C821.207 6.90667 820.747 6.43334 820.16 6.1C819.573 5.75334 818.907 5.58 818.16 5.58C817.413 5.58 816.747 5.75334 816.16 6.1C815.573 6.43334 815.107 6.90667 814.76 7.52C814.413 8.13334 814.24 8.85334 814.24 9.68C814.24 10.4933 814.413 11.2133 814.76 11.84C815.107 12.4533 815.573 12.9333 816.16 13.28C816.747 13.6133 817.407 13.78 818.14 13.78ZM830.739 15.04C829.846 15.04 829.066 14.8733 828.399 14.54C827.733 14.2067 827.213 13.7067 826.839 13.04C826.479 12.3733 826.299 11.54 826.299 10.54V4.44H827.719V10.38C827.719 11.5 827.993 12.3467 828.539 12.92C829.099 13.48 829.879 13.76 830.879 13.76C831.613 13.76 832.246 13.6133 832.779 13.32C833.326 13.0133 833.739 12.5733 834.019 12C834.313 11.4267 834.459 10.74 834.459 9.94V4.44H835.879V14.94H834.519V12.06L834.739 12.58C834.406 13.3533 833.886 13.96 833.179 14.4C832.486 14.8267 831.673 15.04 830.739 15.04ZM839.837 14.94V4.44H841.197V7.3L841.057 6.8C841.35 6 841.843 5.39334 842.537 4.98C843.23 4.55334 844.09 4.34 845.117 4.34V5.72C845.063 5.72 845.01 5.72 844.957 5.72C844.903 5.70667 844.85 5.7 844.797 5.7C843.69 5.7 842.823 6.04 842.197 6.72C841.57 7.38667 841.257 8.34 841.257 9.58V14.94H839.837ZM858.518 15.04C857.598 15.04 856.772 14.8333 856.038 14.42C855.305 13.9933 854.725 13.38 854.298 12.58C853.872 11.78 853.658 10.8133 853.658 9.68C853.658 8.53334 853.872 7.56667 854.298 6.78C854.738 5.98 855.325 5.37334 856.058 4.96C856.792 4.54667 857.612 4.34 858.518 4.34C859.518 4.34 860.412 4.56667 861.198 5.02C861.998 5.46 862.625 6.08 863.078 6.88C863.532 7.68 863.758 8.61334 863.758 9.68C863.758 10.7333 863.532 11.6667 863.078 12.48C862.625 13.28 861.998 13.9067 861.198 14.36C860.412 14.8133 859.518 15.04 858.518 15.04ZM853.098 14.94V0.100002H854.518V7.54L854.318 9.66L854.458 11.78V14.94H853.098ZM858.418 13.78C859.165 13.78 859.832 13.6133 860.418 13.28C861.005 12.9333 861.472 12.4533 861.818 11.84C862.165 11.2133 862.338 10.4933 862.338 9.68C862.338 8.85334 862.165 8.13334 861.818 7.52C861.472 6.90667 861.005 6.43334 860.418 6.1C859.832 5.75334 859.165 5.58 858.418 5.58C857.672 5.58 856.998 5.75334 856.398 6.1C855.812 6.43334 855.345 6.90667 854.998 7.52C854.665 8.13334 854.498 8.85334 854.498 9.68C854.498 10.4933 854.665 11.2133 854.998 11.84C855.345 12.4533 855.812 12.9333 856.398 13.28C856.998 13.6133 857.672 13.78 858.418 13.78ZM870.993 15.04C870.1 15.04 869.32 14.8733 868.653 14.54C867.986 14.2067 867.466 13.7067 867.093 13.04C866.733 12.3733 866.553 11.54 866.553 10.54V4.44H867.973V10.38C867.973 11.5 868.246 12.3467 868.793 12.92C869.353 13.48 870.133 13.76 871.133 13.76C871.866 13.76 872.5 13.6133 873.033 13.32C873.58 13.0133 873.993 12.5733 874.273 12C874.566 11.4267 874.713 10.74 874.713 9.94V4.44H876.133V14.94H874.773V12.06L874.993 12.58C874.66 13.3533 874.14 13.96 873.433 14.4C872.74 14.8267 871.926 15.04 870.993 15.04ZM882.911 15.04C882.044 15.04 881.224 14.92 880.451 14.68C879.677 14.4267 879.071 14.1133 878.631 13.74L879.271 12.62C879.697 12.94 880.244 13.22 880.911 13.46C881.577 13.6867 882.277 13.8 883.011 13.8C884.011 13.8 884.731 13.6467 885.171 13.34C885.611 13.02 885.831 12.6 885.831 12.08C885.831 11.6933 885.704 11.3933 885.451 11.18C885.211 10.9533 884.891 10.7867 884.491 10.68C884.091 10.56 883.644 10.46 883.151 10.38C882.657 10.3 882.164 10.2067 881.671 10.1C881.191 9.99334 880.751 9.84 880.351 9.64C879.951 9.42667 879.624 9.14 879.371 8.78C879.131 8.42 879.011 7.94 879.011 7.34C879.011 6.76667 879.171 6.25334 879.491 5.8C879.811 5.34667 880.277 4.99334 880.891 4.74C881.517 4.47334 882.277 4.34 883.171 4.34C883.851 4.34 884.531 4.43334 885.211 4.62C885.891 4.79334 886.451 5.02667 886.891 5.32L886.271 6.46C885.804 6.14 885.304 5.91334 884.771 5.78C884.237 5.63334 883.704 5.56 883.171 5.56C882.224 5.56 881.524 5.72667 881.071 6.06C880.631 6.38 880.411 6.79334 880.411 7.3C880.411 7.7 880.531 8.01334 880.771 8.24C881.024 8.46667 881.351 8.64667 881.751 8.78C882.164 8.9 882.611 9 883.091 9.08C883.584 9.16 884.071 9.26 884.551 9.38C885.044 9.48667 885.491 9.64 885.891 9.84C886.304 10.0267 886.631 10.3 886.871 10.66C887.124 11.0067 887.251 11.4667 887.251 12.04C887.251 12.6533 887.077 13.1867 886.731 13.64C886.397 14.08 885.904 14.4267 885.251 14.68C884.611 14.92 883.831 15.04 882.911 15.04ZM889.856 14.94V4.44H891.276V14.94H889.856ZM890.576 2.12C890.283 2.12 890.036 2.02 889.836 1.82C889.636 1.62 889.536 1.38 889.536 1.1C889.536 0.820001 889.636 0.586668 889.836 0.400001C890.036 0.200001 890.283 0.100002 890.576 0.100002C890.87 0.100002 891.116 0.193335 891.316 0.380002C891.516 0.566668 891.616 0.800002 891.616 1.08C891.616 1.37334 891.516 1.62 891.316 1.82C891.13 2.02 890.883 2.12 890.576 2.12ZM900.587 4.34C901.441 4.34 902.187 4.50667 902.827 4.84C903.481 5.16 903.987 5.65334 904.347 6.32C904.721 6.98667 904.907 7.82667 904.907 8.84V14.94H903.487V8.98C903.487 7.87334 903.207 7.04 902.647 6.48C902.101 5.90667 901.327 5.62 900.327 5.62C899.581 5.62 898.927 5.77334 898.367 6.08C897.821 6.37334 897.394 6.80667 897.087 7.38C896.794 7.94 896.647 8.62 896.647 9.42V14.94H895.227V4.44H896.587V7.32L896.367 6.78C896.701 6.02 897.234 5.42667 897.967 5C898.701 4.56 899.574 4.34 900.587 4.34ZM913.203 15.04C912.11 15.04 911.15 14.8133 910.323 14.36C909.496 13.8933 908.85 13.26 908.383 12.46C907.916 11.6467 907.683 10.72 907.683 9.68C907.683 8.64 907.903 7.72 908.343 6.92C908.796 6.12 909.41 5.49334 910.183 5.04C910.97 4.57334 911.85 4.34 912.823 4.34C913.81 4.34 914.683 4.56667 915.443 5.02C916.216 5.46 916.823 6.08667 917.263 6.9C917.703 7.7 917.923 8.62667 917.923 9.68C917.923 9.74667 917.916 9.82 917.903 9.9C917.903 9.96667 917.903 10.04 917.903 10.12H908.763V9.06H917.143L916.583 9.48C916.583 8.72 916.416 8.04667 916.083 7.46C915.763 6.86 915.323 6.39334 914.763 6.06C914.203 5.72667 913.556 5.56 912.823 5.56C912.103 5.56 911.456 5.72667 910.883 6.06C910.31 6.39334 909.863 6.86 909.543 7.46C909.223 8.06 909.063 8.74667 909.063 9.52V9.74C909.063 10.54 909.236 11.2467 909.583 11.86C909.943 12.46 910.436 12.9333 911.063 13.28C911.703 13.6133 912.43 13.78 913.243 13.78C913.883 13.78 914.476 13.6667 915.023 13.44C915.583 13.2133 916.063 12.8667 916.463 12.4L917.263 13.32C916.796 13.88 916.21 14.3067 915.503 14.6C914.81 14.8933 914.043 15.04 913.203 15.04ZM923.633 15.04C922.767 15.04 921.947 14.92 921.173 14.68C920.4 14.4267 919.793 14.1133 919.353 13.74L919.993 12.62C920.42 12.94 920.967 13.22 921.633 13.46C922.3 13.6867 923 13.8 923.733 13.8C924.733 13.8 925.453 13.6467 925.893 13.34C926.333 13.02 926.553 12.6 926.553 12.08C926.553 11.6933 926.427 11.3933 926.173 11.18C925.933 10.9533 925.613 10.7867 925.213 10.68C924.813 10.56 924.367 10.46 923.873 10.38C923.38 10.3 922.887 10.2067 922.393 10.1C921.913 9.99334 921.473 9.84 921.073 9.64C920.673 9.42667 920.347 9.14 920.093 8.78C919.853 8.42 919.733 7.94 919.733 7.34C919.733 6.76667 919.893 6.25334 920.213 5.8C920.533 5.34667 921 4.99334 921.613 4.74C922.24 4.47334 923 4.34 923.893 4.34C924.573 4.34 925.253 4.43334 925.933 4.62C926.613 4.79334 927.173 5.02667 927.613 5.32L926.993 6.46C926.527 6.14 926.027 5.91334 925.493 5.78C924.96 5.63334 924.427 5.56 923.893 5.56C922.947 5.56 922.247 5.72667 921.793 6.06C921.353 6.38 921.133 6.79334 921.133 7.3C921.133 7.7 921.253 8.01334 921.493 8.24C921.747 8.46667 922.073 8.64667 922.473 8.78C922.887 8.9 923.333 9 923.813 9.08C924.307 9.16 924.793 9.26 925.273 9.38C925.767 9.48667 926.213 9.64 926.613 9.84C927.027 10.0267 927.353 10.3 927.593 10.66C927.847 11.0067 927.973 11.4667 927.973 12.04C927.973 12.6533 927.8 13.1867 927.453 13.64C927.12 14.08 926.627 14.4267 925.973 14.68C925.333 14.92 924.553 15.04 923.633 15.04ZM933.399 15.04C932.532 15.04 931.712 14.92 930.939 14.68C930.166 14.4267 929.559 14.1133 929.119 13.74L929.759 12.62C930.186 12.94 930.732 13.22 931.399 13.46C932.066 13.6867 932.766 13.8 933.499 13.8C934.499 13.8 935.219 13.6467 935.659 13.34C936.099 13.02 936.319 12.6 936.319 12.08C936.319 11.6933 936.192 11.3933 935.939 11.18C935.699 10.9533 935.379 10.7867 934.979 10.68C934.579 10.56 934.132 10.46 933.639 10.38C933.146 10.3 932.652 10.2067 932.159 10.1C931.679 9.99334 931.239 9.84 930.839 9.64C930.439 9.42667 930.112 9.14 929.859 8.78C929.619 8.42 929.499 7.94 929.499 7.34C929.499 6.76667 929.659 6.25334 929.979 5.8C930.299 5.34667 930.766 4.99334 931.379 4.74C932.006 4.47334 932.766 4.34 933.659 4.34C934.339 4.34 935.019 4.43334 935.699 4.62C936.379 4.79334 936.939 5.02667 937.379 5.32L936.759 6.46C936.292 6.14 935.792 5.91334 935.259 5.78C934.726 5.63334 934.192 5.56 933.659 5.56C932.712 5.56 932.012 5.72667 931.559 6.06C931.119 6.38 930.899 6.79334 930.899 7.3C930.899 7.7 931.019 8.01334 931.259 8.24C931.512 8.46667 931.839 8.64667 932.239 8.78C932.652 8.9 933.099 9 933.579 9.08C934.072 9.16 934.559 9.26 935.039 9.38C935.532 9.48667 935.979 9.64 936.379 9.84C936.792 10.0267 937.119 10.3 937.359 10.66C937.612 11.0067 937.739 11.4667 937.739 12.04C937.739 12.6533 937.566 13.1867 937.219 13.64C936.886 14.08 936.392 14.4267 935.739 14.68C935.099 14.92 934.319 15.04 933.399 15.04ZM940.485 15.04C940.191 15.04 939.938 14.9333 939.725 14.72C939.525 14.5067 939.425 14.2467 939.425 13.94C939.425 13.62 939.525 13.36 939.725 13.16C939.938 12.96 940.191 12.86 940.485 12.86C940.778 12.86 941.025 12.96 941.225 13.16C941.438 13.36 941.545 13.62 941.545 13.94C941.545 14.2467 941.438 14.5067 941.225 14.72C941.025 14.9333 940.778 15.04 940.485 15.04Z" fill="#333333"/>
</svg>
