<svg width="442" height="140" viewBox="0 0 442 140" fill="none" xmlns="http://www.w3.org/2000/svg">
<path d="M127.008 31V8.6H137.504C140.192 8.6 142.24 9.13333 143.648 10.2C145.056 11.2453 145.76 12.6533 145.76 14.424C145.76 15.6187 145.483 16.6427 144.928 17.496C144.373 18.328 143.627 18.9787 142.688 19.448C141.771 19.896 140.768 20.12 139.68 20.12L140.256 18.968C141.515 18.968 142.645 19.2027 143.648 19.672C144.651 20.12 145.44 20.7813 146.016 21.656C146.613 22.5307 146.912 23.6187 146.912 24.92C146.912 26.84 146.176 28.3333 144.704 29.4C143.232 30.4667 141.045 31 138.144 31H127.008ZM131.168 27.736H137.888C139.445 27.736 140.64 27.48 141.472 26.968C142.304 26.456 142.72 25.6347 142.72 24.504C142.72 23.3947 142.304 22.584 141.472 22.072C140.64 21.5387 139.445 21.272 137.888 21.272H130.848V18.04H137.056C138.507 18.04 139.616 17.784 140.384 17.272C141.173 16.76 141.568 15.992 141.568 14.968C141.568 13.9227 141.173 13.144 140.384 12.632C139.616 12.12 138.507 11.864 137.056 11.864H131.168V27.736ZM161.496 31V27.544L161.272 26.808V20.76C161.272 19.5867 160.92 18.68 160.216 18.04C159.512 17.3787 158.445 17.048 157.016 17.048C156.056 17.048 155.106 17.1973 154.168 17.496C153.25 17.7947 152.472 18.2107 151.832 18.744L150.264 15.832C151.181 15.128 152.269 14.6053 153.528 14.264C154.808 13.9013 156.13 13.72 157.496 13.72C159.97 13.72 161.88 14.3173 163.224 15.512C164.589 16.6853 165.272 18.5093 165.272 20.984V31H161.496ZM156.12 31.224C154.84 31.224 153.72 31.0107 152.76 30.584C151.8 30.136 151.053 29.528 150.52 28.76C150.008 27.9707 149.752 27.0853 149.752 26.104C149.752 25.144 149.976 24.28 150.424 23.512C150.893 22.744 151.65 22.136 152.696 21.688C153.741 21.24 155.128 21.016 156.856 21.016H161.816V23.672H157.144C155.778 23.672 154.861 23.896 154.392 24.344C153.922 24.7707 153.688 25.304 153.688 25.944C153.688 26.6693 153.976 27.2453 154.552 27.672C155.128 28.0987 155.928 28.312 156.952 28.312C157.933 28.312 158.808 28.088 159.576 27.64C160.365 27.192 160.93 26.5307 161.272 25.656L161.944 28.056C161.56 29.0587 160.866 29.8373 159.864 30.392C158.882 30.9467 157.634 31.224 156.12 31.224ZM170.405 31V13.912H174.213V18.616L173.765 17.24C174.277 16.088 175.077 15.2133 176.165 14.616C177.275 14.0187 178.651 13.72 180.293 13.72V17.528C180.123 17.4853 179.963 17.464 179.813 17.464C179.664 17.4427 179.515 17.432 179.365 17.432C177.851 17.432 176.645 17.88 175.749 18.776C174.853 19.6507 174.405 20.9627 174.405 22.712V31H170.405ZM191.37 31.224C189.578 31.224 187.978 30.8507 186.57 30.104C185.184 29.336 184.096 28.2907 183.306 26.968C182.517 25.6453 182.122 24.1413 182.122 22.456C182.122 20.7493 182.517 19.2453 183.306 17.944C184.096 16.6213 185.184 15.5867 186.57 14.84C187.978 14.0933 189.578 13.72 191.37 13.72C193.034 13.72 194.496 14.0613 195.754 14.744C197.034 15.4053 198.005 16.3867 198.666 17.688L195.594 19.48C195.082 18.6693 194.453 18.072 193.706 17.688C192.981 17.304 192.192 17.112 191.338 17.112C190.357 17.112 189.472 17.3253 188.682 17.752C187.893 18.1787 187.274 18.7973 186.826 19.608C186.378 20.3973 186.154 21.3467 186.154 22.456C186.154 23.5653 186.378 24.5253 186.826 25.336C187.274 26.1253 187.893 26.7333 188.682 27.16C189.472 27.5867 190.357 27.8 191.338 27.8C192.192 27.8 192.981 27.608 193.706 27.224C194.453 26.84 195.082 26.2427 195.594 25.432L198.666 27.224C198.005 28.504 197.034 29.496 195.754 30.2C194.496 30.8827 193.034 31.224 191.37 31.224ZM209.554 31.224C207.805 31.224 206.247 30.8507 204.882 30.104C203.517 29.336 202.439 28.2907 201.65 26.968C200.861 25.6453 200.466 24.1413 200.466 22.456C200.466 20.7493 200.861 19.2453 201.65 17.944C202.439 16.6213 203.517 15.5867 204.882 14.84C206.247 14.0933 207.805 13.72 209.554 13.72C211.325 13.72 212.893 14.0933 214.258 14.84C215.645 15.5867 216.722 16.6107 217.49 17.912C218.279 19.2133 218.674 20.728 218.674 22.456C218.674 24.1413 218.279 25.6453 217.49 26.968C216.722 28.2907 215.645 29.336 214.258 30.104C212.893 30.8507 211.325 31.224 209.554 31.224ZM209.554 27.8C210.535 27.8 211.41 27.5867 212.178 27.16C212.946 26.7333 213.543 26.1147 213.97 25.304C214.418 24.4933 214.642 23.544 214.642 22.456C214.642 21.3467 214.418 20.3973 213.97 19.608C213.543 18.7973 212.946 18.1787 212.178 17.752C211.41 17.3253 210.546 17.112 209.586 17.112C208.605 17.112 207.73 17.3253 206.962 17.752C206.215 18.1787 205.618 18.7973 205.17 19.608C204.722 20.3973 204.498 21.3467 204.498 22.456C204.498 23.544 204.722 24.4933 205.17 25.304C205.618 26.1147 206.215 26.7333 206.962 27.16C207.73 27.5867 208.594 27.8 209.554 27.8ZM229.731 31.224C228.088 31.224 226.606 30.8613 225.283 30.136C223.982 29.3893 222.958 28.3653 222.211 27.064C221.464 25.7627 221.091 24.2267 221.091 22.456C221.091 20.6853 221.464 19.1493 222.211 17.848C222.958 16.5467 223.982 15.5333 225.283 14.808C226.606 14.0827 228.088 13.72 229.731 13.72C231.16 13.72 232.44 14.04 233.571 14.68C234.702 15.2987 235.598 16.248 236.259 17.528C236.92 18.808 237.251 20.4507 237.251 22.456C237.251 24.44 236.931 26.0827 236.291 27.384C235.651 28.664 234.766 29.624 233.635 30.264C232.504 30.904 231.203 31.224 229.731 31.224ZM230.211 27.8C231.171 27.8 232.024 27.5867 232.771 27.16C233.539 26.7333 234.147 26.1147 234.595 25.304C235.064 24.4933 235.299 23.544 235.299 22.456C235.299 21.3467 235.064 20.3973 234.595 19.608C234.147 18.7973 233.539 18.1787 232.771 17.752C232.024 17.3253 231.171 17.112 230.211 17.112C229.251 17.112 228.387 17.3253 227.619 17.752C226.872 18.1787 226.264 18.7973 225.795 19.608C225.347 20.3973 225.123 21.3467 225.123 22.456C225.123 23.544 225.347 24.4933 225.795 25.304C226.264 26.1147 226.872 26.7333 227.619 27.16C228.387 27.5867 229.251 27.8 230.211 27.8ZM235.395 31V26.968L235.555 22.424L235.235 17.88V7.256H239.203V31H235.395ZM252.5 31.224C250.601 31.224 248.937 30.8507 247.508 30.104C246.1 29.336 245.001 28.2907 244.212 26.968C243.444 25.6453 243.06 24.1413 243.06 22.456C243.06 20.7493 243.433 19.2453 244.18 17.944C244.948 16.6213 245.993 15.5867 247.316 14.84C248.66 14.0933 250.185 13.72 251.892 13.72C253.556 13.72 255.038 14.0827 256.34 14.808C257.641 15.5333 258.665 16.5573 259.412 17.88C260.158 19.2027 260.532 20.76 260.532 22.552C260.532 22.7227 260.521 22.9147 260.5 23.128C260.5 23.3413 260.489 23.544 260.468 23.736H246.228V21.08H258.356L256.788 21.912C256.809 20.9307 256.606 20.0667 256.18 19.32C255.753 18.5733 255.166 17.9867 254.42 17.56C253.694 17.1333 252.852 16.92 251.892 16.92C250.91 16.92 250.046 17.1333 249.3 17.56C248.574 17.9867 247.998 18.584 247.572 19.352C247.166 20.0987 246.964 20.984 246.964 22.008V22.648C246.964 23.672 247.198 24.5787 247.668 25.368C248.137 26.1573 248.798 26.7653 249.652 27.192C250.505 27.6187 251.486 27.832 252.596 27.832C253.556 27.832 254.42 27.6827 255.188 27.384C255.956 27.0853 256.638 26.616 257.236 25.976L259.38 28.44C258.612 29.336 257.641 30.0293 256.468 30.52C255.316 30.9893 253.993 31.224 252.5 31.224ZM280.546 31.32C278.796 31.32 277.122 31.0747 275.522 30.584C273.922 30.072 272.652 29.4213 271.714 28.632L273.154 25.4C274.05 26.104 275.159 26.6907 276.482 27.16C277.804 27.6293 279.159 27.864 280.546 27.864C281.719 27.864 282.668 27.736 283.394 27.48C284.119 27.224 284.652 26.8827 284.994 26.456C285.335 26.008 285.506 25.5067 285.506 24.952C285.506 24.2693 285.26 23.7253 284.77 23.32C284.279 22.8933 283.639 22.5627 282.85 22.328C282.082 22.072 281.218 21.8373 280.258 21.624C279.319 21.4107 278.37 21.1653 277.41 20.888C276.471 20.5893 275.607 20.216 274.818 19.768C274.05 19.2987 273.42 18.68 272.93 17.912C272.439 17.144 272.194 16.1627 272.194 14.968C272.194 13.752 272.514 12.6427 273.154 11.64C273.815 10.616 274.807 9.80533 276.13 9.208C277.474 8.58933 279.17 8.28 281.218 8.28C282.562 8.28 283.895 8.45067 285.218 8.792C286.54 9.13333 287.692 9.624 288.674 10.264L287.362 13.496C286.359 12.8987 285.324 12.4613 284.258 12.184C283.191 11.8853 282.167 11.736 281.186 11.736C280.034 11.736 279.095 11.8747 278.37 12.152C277.666 12.4293 277.143 12.792 276.802 13.24C276.482 13.688 276.322 14.2 276.322 14.776C276.322 15.4587 276.556 16.0133 277.026 16.44C277.516 16.8453 278.146 17.1653 278.914 17.4C279.703 17.6347 280.578 17.8693 281.538 18.104C282.498 18.3173 283.447 18.5627 284.386 18.84C285.346 19.1173 286.21 19.48 286.978 19.928C287.767 20.376 288.396 20.984 288.866 21.752C289.356 22.52 289.602 23.4907 289.602 24.664C289.602 25.8587 289.271 26.968 288.61 27.992C287.97 28.9947 286.978 29.8053 285.634 30.424C284.29 31.0213 282.594 31.32 280.546 31.32ZM301.183 31.224C299.391 31.224 297.791 30.8507 296.383 30.104C294.996 29.336 293.908 28.2907 293.119 26.968C292.329 25.6453 291.935 24.1413 291.935 22.456C291.935 20.7493 292.329 19.2453 293.119 17.944C293.908 16.6213 294.996 15.5867 296.383 14.84C297.791 14.0933 299.391 13.72 301.183 13.72C302.847 13.72 304.308 14.0613 305.567 14.744C306.847 15.4053 307.817 16.3867 308.479 17.688L305.407 19.48C304.895 18.6693 304.265 18.072 303.519 17.688C302.793 17.304 302.004 17.112 301.151 17.112C300.169 17.112 299.284 17.3253 298.495 17.752C297.705 18.1787 297.087 18.7973 296.639 19.608C296.191 20.3973 295.967 21.3467 295.967 22.456C295.967 23.5653 296.191 24.5253 296.639 25.336C297.087 26.1253 297.705 26.7333 298.495 27.16C299.284 27.5867 300.169 27.8 301.151 27.8C302.004 27.8 302.793 27.608 303.519 27.224C304.265 26.84 304.895 26.2427 305.407 25.432L308.479 27.224C307.817 28.504 306.847 29.496 305.567 30.2C304.308 30.8827 302.847 31.224 301.183 31.224ZM322.465 31V27.544L322.241 26.808V20.76C322.241 19.5867 321.889 18.68 321.185 18.04C320.481 17.3787 319.414 17.048 317.985 17.048C317.025 17.048 316.075 17.1973 315.137 17.496C314.219 17.7947 313.441 18.2107 312.801 18.744L311.233 15.832C312.15 15.128 313.238 14.6053 314.497 14.264C315.777 13.9013 317.099 13.72 318.465 13.72C320.939 13.72 322.849 14.3173 324.193 15.512C325.558 16.6853 326.241 18.5093 326.241 20.984V31H322.465ZM317.089 31.224C315.809 31.224 314.689 31.0107 313.729 30.584C312.769 30.136 312.022 29.528 311.489 28.76C310.977 27.9707 310.721 27.0853 310.721 26.104C310.721 25.144 310.945 24.28 311.393 23.512C311.862 22.744 312.619 22.136 313.665 21.688C314.71 21.24 316.097 21.016 317.825 21.016H322.785V23.672H318.113C316.747 23.672 315.83 23.896 315.361 24.344C314.891 24.7707 314.657 25.304 314.657 25.944C314.657 26.6693 314.945 27.2453 315.521 27.672C316.097 28.0987 316.897 28.312 317.921 28.312C318.902 28.312 319.777 28.088 320.545 27.64C321.334 27.192 321.899 26.5307 322.241 25.656L322.913 28.056C322.529 29.0587 321.835 29.8373 320.833 30.392C319.851 30.9467 318.603 31.224 317.089 31.224ZM341.07 13.72C342.435 13.72 343.651 13.9867 344.718 14.52C345.806 15.0533 346.659 15.8747 347.278 16.984C347.897 18.072 348.206 19.48 348.206 21.208V31H344.206V21.72C344.206 20.2053 343.843 19.0747 343.118 18.328C342.414 17.5813 341.422 17.208 340.142 17.208C339.203 17.208 338.371 17.4 337.646 17.784C336.921 18.168 336.355 18.744 335.95 19.512C335.566 20.2587 335.374 21.208 335.374 22.36V31H331.374V13.912H335.182V18.52L334.51 17.112C335.107 16.024 335.971 15.192 337.102 14.616C338.254 14.0187 339.577 13.72 341.07 13.72ZM362.976 13.72C364.342 13.72 365.558 13.9867 366.624 14.52C367.712 15.0533 368.566 15.8747 369.184 16.984C369.803 18.072 370.112 19.48 370.112 21.208V31H366.112V21.72C366.112 20.2053 365.75 19.0747 365.024 18.328C364.32 17.5813 363.328 17.208 362.048 17.208C361.11 17.208 360.278 17.4 359.552 17.784C358.827 18.168 358.262 18.744 357.856 19.512C357.472 20.2587 357.28 21.208 357.28 22.36V31H353.28V13.912H357.088V18.52L356.416 17.112C357.014 16.024 357.878 15.192 359.008 14.616C360.16 14.0187 361.483 13.72 362.976 13.72ZM375.187 31V13.912H379.187V31H375.187ZM377.203 11.096C376.456 11.096 375.837 10.8613 375.347 10.392C374.877 9.92267 374.643 9.35733 374.643 8.696C374.643 8.01333 374.877 7.448 375.347 7C375.837 6.53067 376.456 6.296 377.203 6.296C377.949 6.296 378.557 6.52 379.027 6.968C379.517 7.39467 379.763 7.93867 379.763 8.6C379.763 9.304 379.528 9.90133 379.059 10.392C378.589 10.8613 377.971 11.096 377.203 11.096ZM394.133 13.72C395.498 13.72 396.714 13.9867 397.781 14.52C398.869 15.0533 399.722 15.8747 400.341 16.984C400.959 18.072 401.269 19.48 401.269 21.208V31H397.269V21.72C397.269 20.2053 396.906 19.0747 396.181 18.328C395.477 17.5813 394.485 17.208 393.205 17.208C392.266 17.208 391.434 17.4 390.709 17.784C389.983 18.168 389.418 18.744 389.013 19.512C388.629 20.2587 388.437 21.208 388.437 22.36V31H384.437V13.912H388.245V18.52L387.573 17.112C388.17 16.024 389.034 15.192 390.165 14.616C391.317 14.0187 392.639 13.72 394.133 13.72ZM414.118 37.432C412.539 37.432 410.993 37.2187 409.478 36.792C407.985 36.3867 406.758 35.7893 405.798 35L407.59 31.992C408.337 32.6107 409.275 33.1013 410.406 33.464C411.558 33.848 412.721 34.04 413.894 34.04C415.771 34.04 417.147 33.6027 418.022 32.728C418.897 31.8747 419.334 30.584 419.334 28.856V25.816L419.654 21.944L419.526 18.072V13.912H423.334V28.408C423.334 31.5013 422.545 33.7733 420.966 35.224C419.387 36.696 417.105 37.432 414.118 37.432ZM413.606 30.232C411.985 30.232 410.513 29.8907 409.19 29.208C407.889 28.504 406.854 27.5333 406.086 26.296C405.339 25.0587 404.966 23.608 404.966 21.944C404.966 20.3013 405.339 18.8613 406.086 17.624C406.854 16.3867 407.889 15.4267 409.19 14.744C410.513 14.0613 411.985 13.72 413.606 13.72C415.057 13.72 416.358 14.008 417.51 14.584C418.662 15.16 419.579 16.056 420.262 17.272C420.966 18.488 421.318 20.0453 421.318 21.944C421.318 23.8427 420.966 25.4107 420.262 26.648C419.579 27.864 418.662 28.7707 417.51 29.368C416.358 29.944 415.057 30.232 413.606 30.232ZM414.214 26.84C415.217 26.84 416.113 26.6373 416.902 26.232C417.691 25.8053 418.299 25.2293 418.726 24.504C419.174 23.7573 419.398 22.904 419.398 21.944C419.398 20.984 419.174 20.1413 418.726 19.416C418.299 18.6693 417.691 18.104 416.902 17.72C416.113 17.3147 415.217 17.112 414.214 17.112C413.211 17.112 412.305 17.3147 411.494 17.72C410.705 18.104 410.086 18.6693 409.638 19.416C409.211 20.1413 408.998 20.984 408.998 21.944C408.998 22.904 409.211 23.7573 409.638 24.504C410.086 25.2293 410.705 25.8053 411.494 26.232C412.305 26.6373 413.211 26.84 414.214 26.84Z" fill="#333333"/>
<path d="M130.14 67.12C129.1 67.12 128.1 66.9533 127.14 66.62C126.193 66.2733 125.46 65.8333 124.94 65.3L125.52 64.16C126.013 64.64 126.673 65.0467 127.5 65.38C128.34 65.7 129.22 65.86 130.14 65.86C131.02 65.86 131.733 65.7533 132.28 65.54C132.84 65.3133 133.247 65.0133 133.5 64.64C133.767 64.2667 133.9 63.8533 133.9 63.4C133.9 62.8533 133.74 62.4133 133.42 62.08C133.113 61.7467 132.707 61.4867 132.2 61.3C131.693 61.1 131.133 60.9267 130.52 60.78C129.907 60.6333 129.293 60.48 128.68 60.32C128.067 60.1467 127.5 59.92 126.98 59.64C126.473 59.36 126.06 58.9933 125.74 58.54C125.433 58.0733 125.28 57.4667 125.28 56.72C125.28 56.0267 125.46 55.3933 125.82 54.82C126.193 54.2333 126.76 53.7667 127.52 53.42C128.28 53.06 129.253 52.88 130.44 52.88C131.227 52.88 132.007 52.9933 132.78 53.22C133.553 53.4333 134.22 53.7333 134.78 54.12L134.28 55.3C133.68 54.9 133.04 54.6067 132.36 54.42C131.693 54.2333 131.047 54.14 130.42 54.14C129.58 54.14 128.887 54.2533 128.34 54.48C127.793 54.7067 127.387 55.0133 127.12 55.4C126.867 55.7733 126.74 56.2 126.74 56.68C126.74 57.2267 126.893 57.6667 127.2 58C127.52 58.3333 127.933 58.5933 128.44 58.78C128.96 58.9667 129.527 59.1333 130.14 59.28C130.753 59.4267 131.36 59.5867 131.96 59.76C132.573 59.9333 133.133 60.16 133.64 60.44C134.16 60.7067 134.573 61.0667 134.88 61.52C135.2 61.9733 135.36 62.5667 135.36 63.3C135.36 63.98 135.173 64.6133 134.8 65.2C134.427 65.7733 133.853 66.24 133.08 66.6C132.32 66.9467 131.34 67.12 130.14 67.12ZM142.645 67.1C141.605 67.1 140.671 66.8733 139.845 66.42C139.031 65.9533 138.391 65.32 137.925 64.52C137.458 63.7067 137.225 62.78 137.225 61.74C137.225 60.6867 137.458 59.76 137.925 58.96C138.391 58.16 139.031 57.5333 139.845 57.08C140.671 56.6267 141.605 56.4 142.645 56.4C143.538 56.4 144.345 56.5733 145.065 56.92C145.785 57.2667 146.351 57.7867 146.765 58.48L145.705 59.2C145.345 58.6667 144.898 58.2733 144.365 58.02C143.831 57.7667 143.251 57.64 142.625 57.64C141.878 57.64 141.205 57.8133 140.605 58.16C140.005 58.4933 139.531 58.9667 139.185 59.58C138.838 60.1933 138.665 60.9133 138.665 61.74C138.665 62.5667 138.838 63.2867 139.185 63.9C139.531 64.5133 140.005 64.9933 140.605 65.34C141.205 65.6733 141.878 65.84 142.625 65.84C143.251 65.84 143.831 65.7133 144.365 65.46C144.898 65.2067 145.345 64.82 145.705 64.3L146.765 65.02C146.351 65.7 145.785 66.22 145.065 66.58C144.345 66.9267 143.538 67.1 142.645 67.1ZM156.134 67V64.68L156.074 64.3V60.42C156.074 59.5267 155.821 58.84 155.314 58.36C154.821 57.88 154.081 57.64 153.094 57.64C152.414 57.64 151.768 57.7533 151.154 57.98C150.541 58.2067 150.021 58.5067 149.594 58.88L148.954 57.82C149.488 57.3667 150.128 57.02 150.874 56.78C151.621 56.5267 152.408 56.4 153.234 56.4C154.594 56.4 155.641 56.74 156.374 57.42C157.121 58.0867 157.494 59.1067 157.494 60.48V67H156.134ZM152.514 67.1C151.728 67.1 151.041 66.9733 150.454 66.72C149.881 66.4533 149.441 66.0933 149.134 65.64C148.828 65.1733 148.674 64.64 148.674 64.04C148.674 63.4933 148.801 63 149.054 62.56C149.321 62.1067 149.748 61.7467 150.334 61.48C150.934 61.2 151.734 61.06 152.734 61.06H156.354V62.12H152.774C151.761 62.12 151.054 62.3 150.654 62.66C150.268 63.02 150.074 63.4667 150.074 64C150.074 64.6 150.308 65.08 150.774 65.44C151.241 65.8 151.894 65.98 152.734 65.98C153.534 65.98 154.221 65.8 154.794 65.44C155.381 65.0667 155.808 64.5333 156.074 63.84L156.394 64.82C156.128 65.5133 155.661 66.0667 154.994 66.48C154.341 66.8933 153.514 67.1 152.514 67.1ZM166.711 56.4C167.564 56.4 168.311 56.5667 168.951 56.9C169.604 57.22 170.111 57.7133 170.471 58.38C170.844 59.0467 171.031 59.8867 171.031 60.9V67H169.611V61.04C169.611 59.9333 169.331 59.1 168.771 58.54C168.224 57.9667 167.451 57.68 166.451 57.68C165.704 57.68 165.051 57.8333 164.491 58.14C163.944 58.4333 163.518 58.8667 163.211 59.44C162.918 60 162.771 60.68 162.771 61.48V67H161.351V56.5H162.711V59.38L162.491 58.84C162.824 58.08 163.358 57.4867 164.091 57.06C164.824 56.62 165.698 56.4 166.711 56.4ZM185.521 67.1C184.614 67.1 183.794 66.8933 183.061 66.48C182.328 66.0533 181.741 65.4467 181.301 64.66C180.874 63.86 180.661 62.8867 180.661 61.74C180.661 60.5933 180.874 59.6267 181.301 58.84C181.728 58.04 182.308 57.4333 183.041 57.02C183.774 56.6067 184.601 56.4 185.521 56.4C186.521 56.4 187.414 56.6267 188.201 57.08C189.001 57.52 189.628 58.1467 190.081 58.96C190.534 59.76 190.761 60.6867 190.761 61.74C190.761 62.8067 190.534 63.74 190.081 64.54C189.628 65.34 189.001 65.9667 188.201 66.42C187.414 66.8733 186.521 67.1 185.521 67.1ZM180.101 70.88V56.5H181.461V59.66L181.321 61.76L181.521 63.88V70.88H180.101ZM185.421 65.84C186.168 65.84 186.834 65.6733 187.421 65.34C188.008 64.9933 188.474 64.5133 188.821 63.9C189.168 63.2733 189.341 62.5533 189.341 61.74C189.341 60.9267 189.168 60.2133 188.821 59.6C188.474 58.9867 188.008 58.5067 187.421 58.16C186.834 57.8133 186.168 57.64 185.421 57.64C184.674 57.64 184.001 57.8133 183.401 58.16C182.814 58.5067 182.348 58.9867 182.001 59.6C181.668 60.2133 181.501 60.9267 181.501 61.74C181.501 62.5533 181.668 63.2733 182.001 63.9C182.348 64.5133 182.814 64.9933 183.401 65.34C184.001 65.6733 184.674 65.84 185.421 65.84ZM193.656 67V56.5H195.016V59.36L194.876 58.86C195.169 58.06 195.662 57.4533 196.356 57.04C197.049 56.6133 197.909 56.4 198.936 56.4V57.78C198.882 57.78 198.829 57.78 198.776 57.78C198.722 57.7667 198.669 57.76 198.616 57.76C197.509 57.76 196.642 58.1 196.016 58.78C195.389 59.4467 195.076 60.4 195.076 61.64V67H193.656ZM205.709 67.1C204.696 67.1 203.783 66.8733 202.969 66.42C202.169 65.9533 201.536 65.32 201.069 64.52C200.603 63.7067 200.369 62.78 200.369 61.74C200.369 60.6867 200.603 59.76 201.069 58.96C201.536 58.16 202.169 57.5333 202.969 57.08C203.769 56.6267 204.683 56.4 205.709 56.4C206.749 56.4 207.669 56.6267 208.469 57.08C209.283 57.5333 209.916 58.16 210.369 58.96C210.836 59.76 211.069 60.6867 211.069 61.74C211.069 62.78 210.836 63.7067 210.369 64.52C209.916 65.32 209.283 65.9533 208.469 66.42C207.656 66.8733 206.736 67.1 205.709 67.1ZM205.709 65.84C206.469 65.84 207.143 65.6733 207.729 65.34C208.316 64.9933 208.776 64.5133 209.109 63.9C209.456 63.2733 209.629 62.5533 209.629 61.74C209.629 60.9133 209.456 60.1933 209.109 59.58C208.776 58.9667 208.316 58.4933 207.729 58.16C207.143 57.8133 206.476 57.64 205.729 57.64C204.983 57.64 204.316 57.8133 203.729 58.16C203.143 58.4933 202.676 58.9667 202.329 59.58C201.983 60.1933 201.809 60.9133 201.809 61.74C201.809 62.5533 201.983 63.2733 202.329 63.9C202.676 64.5133 203.143 64.9933 203.729 65.34C204.316 65.6733 204.976 65.84 205.709 65.84ZM218.148 67.1C217.148 67.1 216.248 66.8733 215.448 66.42C214.662 65.9667 214.042 65.34 213.588 64.54C213.135 63.7267 212.908 62.7933 212.908 61.74C212.908 60.6733 213.135 59.74 213.588 58.94C214.042 58.14 214.662 57.52 215.448 57.08C216.248 56.6267 217.148 56.4 218.148 56.4C219.068 56.4 219.888 56.6067 220.608 57.02C221.342 57.4333 221.922 58.04 222.348 58.84C222.788 59.6267 223.008 60.5933 223.008 61.74C223.008 62.8733 222.795 63.84 222.368 64.64C221.942 65.44 221.362 66.0533 220.628 66.48C219.908 66.8933 219.082 67.1 218.148 67.1ZM218.248 65.84C218.995 65.84 219.662 65.6733 220.248 65.34C220.848 64.9933 221.315 64.5133 221.648 63.9C221.995 63.2733 222.168 62.5533 222.168 61.74C222.168 60.9133 221.995 60.1933 221.648 59.58C221.315 58.9667 220.848 58.4933 220.248 58.16C219.662 57.8133 218.995 57.64 218.248 57.64C217.515 57.64 216.855 57.8133 216.268 58.16C215.682 58.4933 215.215 58.9667 214.868 59.58C214.522 60.1933 214.348 60.9133 214.348 61.74C214.348 62.5533 214.522 63.2733 214.868 63.9C215.215 64.5133 215.682 64.9933 216.268 65.34C216.855 65.6733 217.515 65.84 218.248 65.84ZM222.208 67V63.84L222.348 61.72L222.148 59.6V52.16H223.568V67H222.208ZM231.863 67.1C230.97 67.1 230.19 66.9333 229.523 66.6C228.856 66.2667 228.336 65.7667 227.963 65.1C227.603 64.4333 227.423 63.6 227.423 62.6V56.5H228.843V62.44C228.843 63.56 229.116 64.4067 229.663 64.98C230.223 65.54 231.003 65.82 232.003 65.82C232.736 65.82 233.37 65.6733 233.903 65.38C234.45 65.0733 234.863 64.6333 235.143 64.06C235.436 63.4867 235.583 62.8 235.583 62V56.5H237.003V67H235.643V64.12L235.863 64.64C235.53 65.4133 235.01 66.02 234.303 66.46C233.61 66.8867 232.796 67.1 231.863 67.1ZM245.32 67.1C244.28 67.1 243.347 66.8733 242.52 66.42C241.707 65.9533 241.067 65.32 240.6 64.52C240.134 63.7067 239.9 62.78 239.9 61.74C239.9 60.6867 240.134 59.76 240.6 58.96C241.067 58.16 241.707 57.5333 242.52 57.08C243.347 56.6267 244.28 56.4 245.32 56.4C246.214 56.4 247.02 56.5733 247.74 56.92C248.46 57.2667 249.027 57.7867 249.44 58.48L248.38 59.2C248.02 58.6667 247.574 58.2733 247.04 58.02C246.507 57.7667 245.927 57.64 245.3 57.64C244.554 57.64 243.88 57.8133 243.28 58.16C242.68 58.4933 242.207 58.9667 241.86 59.58C241.514 60.1933 241.34 60.9133 241.34 61.74C241.34 62.5667 241.514 63.2867 241.86 63.9C242.207 64.5133 242.68 64.9933 243.28 65.34C243.88 65.6733 244.554 65.84 245.3 65.84C245.927 65.84 246.507 65.7133 247.04 65.46C247.574 65.2067 248.02 64.82 248.38 64.3L249.44 65.02C249.027 65.7 248.46 66.22 247.74 66.58C247.02 66.9267 246.214 67.1 245.32 67.1ZM255.667 67.1C254.681 67.1 253.921 66.8333 253.387 66.3C252.854 65.7667 252.587 65.0133 252.587 64.04V54.18H254.007V63.96C254.007 64.5733 254.161 65.0467 254.467 65.38C254.787 65.7133 255.241 65.88 255.827 65.88C256.454 65.88 256.974 65.7 257.387 65.34L257.887 66.36C257.607 66.6133 257.267 66.8 256.867 66.92C256.481 67.04 256.081 67.1 255.667 67.1ZM250.707 57.68V56.5H257.207V57.68H250.707ZM263.292 67.1C262.426 67.1 261.606 66.98 260.832 66.74C260.059 66.4867 259.452 66.1733 259.012 65.8L259.652 64.68C260.079 65 260.626 65.28 261.292 65.52C261.959 65.7467 262.659 65.86 263.392 65.86C264.392 65.86 265.112 65.7067 265.552 65.4C265.992 65.08 266.212 64.66 266.212 64.14C266.212 63.7533 266.086 63.4533 265.832 63.24C265.592 63.0133 265.272 62.8467 264.872 62.74C264.472 62.62 264.026 62.52 263.532 62.44C263.039 62.36 262.546 62.2667 262.052 62.16C261.572 62.0533 261.132 61.9 260.732 61.7C260.332 61.4867 260.006 61.2 259.752 60.84C259.512 60.48 259.392 60 259.392 59.4C259.392 58.8267 259.552 58.3133 259.872 57.86C260.192 57.4067 260.659 57.0533 261.272 56.8C261.899 56.5333 262.659 56.4 263.552 56.4C264.232 56.4 264.912 56.4933 265.592 56.68C266.272 56.8533 266.832 57.0867 267.272 57.38L266.652 58.52C266.186 58.2 265.686 57.9733 265.152 57.84C264.619 57.6933 264.086 57.62 263.552 57.62C262.606 57.62 261.906 57.7867 261.452 58.12C261.012 58.44 260.792 58.8533 260.792 59.36C260.792 59.76 260.912 60.0733 261.152 60.3C261.406 60.5267 261.732 60.7067 262.132 60.84C262.546 60.96 262.992 61.06 263.472 61.14C263.966 61.22 264.452 61.32 264.932 61.44C265.426 61.5467 265.872 61.7 266.272 61.9C266.686 62.0867 267.012 62.36 267.252 62.72C267.506 63.0667 267.632 63.5267 267.632 64.1C267.632 64.7133 267.459 65.2467 267.112 65.7C266.779 66.14 266.286 66.4867 265.632 66.74C264.992 66.98 264.212 67.1 263.292 67.1ZM275.472 67V56.5H276.892V67H275.472ZM276.192 54.18C275.899 54.18 275.652 54.08 275.452 53.88C275.252 53.68 275.152 53.44 275.152 53.16C275.152 52.88 275.252 52.6467 275.452 52.46C275.652 52.26 275.899 52.16 276.192 52.16C276.486 52.16 276.732 52.2533 276.932 52.44C277.132 52.6267 277.232 52.86 277.232 53.14C277.232 53.4333 277.132 53.68 276.932 53.88C276.746 54.08 276.499 54.18 276.192 54.18ZM286.203 56.4C287.057 56.4 287.803 56.5667 288.443 56.9C289.097 57.22 289.603 57.7133 289.963 58.38C290.337 59.0467 290.523 59.8867 290.523 60.9V67H289.103V61.04C289.103 59.9333 288.823 59.1 288.263 58.54C287.717 57.9667 286.943 57.68 285.943 57.68C285.197 57.68 284.543 57.8333 283.983 58.14C283.437 58.4333 283.01 58.8667 282.703 59.44C282.41 60 282.263 60.68 282.263 61.48V67H280.843V56.5H282.203V59.38L281.983 58.84C282.317 58.08 282.85 57.4867 283.583 57.06C284.317 56.62 285.19 56.4 286.203 56.4ZM297.179 67.1C296.312 67.1 295.492 66.98 294.719 66.74C293.946 66.4867 293.339 66.1733 292.899 65.8L293.539 64.68C293.966 65 294.512 65.28 295.179 65.52C295.846 65.7467 296.546 65.86 297.279 65.86C298.279 65.86 298.999 65.7067 299.439 65.4C299.879 65.08 300.099 64.66 300.099 64.14C300.099 63.7533 299.972 63.4533 299.719 63.24C299.479 63.0133 299.159 62.8467 298.759 62.74C298.359 62.62 297.912 62.52 297.419 62.44C296.926 62.36 296.432 62.2667 295.939 62.16C295.459 62.0533 295.019 61.9 294.619 61.7C294.219 61.4867 293.892 61.2 293.639 60.84C293.399 60.48 293.279 60 293.279 59.4C293.279 58.8267 293.439 58.3133 293.759 57.86C294.079 57.4067 294.546 57.0533 295.159 56.8C295.786 56.5333 296.546 56.4 297.439 56.4C298.119 56.4 298.799 56.4933 299.479 56.68C300.159 56.8533 300.719 57.0867 301.159 57.38L300.539 58.52C300.072 58.2 299.572 57.9733 299.039 57.84C298.506 57.6933 297.972 57.62 297.439 57.62C296.492 57.62 295.792 57.7867 295.339 58.12C294.899 58.44 294.679 58.8533 294.679 59.36C294.679 59.76 294.799 60.0733 295.039 60.3C295.292 60.5267 295.619 60.7067 296.019 60.84C296.432 60.96 296.879 61.06 297.359 61.14C297.852 61.22 298.339 61.32 298.819 61.44C299.312 61.5467 299.759 61.7 300.159 61.9C300.572 62.0867 300.899 62.36 301.139 62.72C301.392 63.0667 301.519 63.5267 301.519 64.1C301.519 64.7133 301.346 65.2467 300.999 65.7C300.666 66.14 300.172 66.4867 299.519 66.74C298.879 66.98 298.099 67.1 297.179 67.1ZM307.445 67.1C306.458 67.1 305.698 66.8333 305.165 66.3C304.631 65.7667 304.365 65.0133 304.365 64.04V54.18H305.785V63.96C305.785 64.5733 305.938 65.0467 306.245 65.38C306.565 65.7133 307.018 65.88 307.605 65.88C308.231 65.88 308.751 65.7 309.165 65.34L309.665 66.36C309.385 66.6133 309.045 66.8 308.645 66.92C308.258 67.04 307.858 67.1 307.445 67.1ZM302.485 57.68V56.5H308.985V57.68H302.485ZM318.83 67V64.68L318.77 64.3V60.42C318.77 59.5267 318.516 58.84 318.01 58.36C317.516 57.88 316.776 57.64 315.79 57.64C315.11 57.64 314.463 57.7533 313.85 57.98C313.236 58.2067 312.716 58.5067 312.29 58.88L311.65 57.82C312.183 57.3667 312.823 57.02 313.57 56.78C314.316 56.5267 315.103 56.4 315.93 56.4C317.29 56.4 318.336 56.74 319.07 57.42C319.816 58.0867 320.19 59.1067 320.19 60.48V67H318.83ZM315.21 67.1C314.423 67.1 313.736 66.9733 313.15 66.72C312.576 66.4533 312.136 66.0933 311.83 65.64C311.523 65.1733 311.37 64.64 311.37 64.04C311.37 63.4933 311.496 63 311.75 62.56C312.016 62.1067 312.443 61.7467 313.03 61.48C313.63 61.2 314.43 61.06 315.43 61.06H319.05V62.12H315.47C314.456 62.12 313.75 62.3 313.35 62.66C312.963 63.02 312.77 63.4667 312.77 64C312.77 64.6 313.003 65.08 313.47 65.44C313.936 65.8 314.59 65.98 315.43 65.98C316.23 65.98 316.916 65.8 317.49 65.44C318.076 65.0667 318.503 64.5333 318.77 63.84L319.09 64.82C318.823 65.5133 318.356 66.0667 317.69 66.48C317.036 66.8933 316.21 67.1 315.21 67.1ZM329.406 56.4C330.26 56.4 331.006 56.5667 331.646 56.9C332.3 57.22 332.806 57.7133 333.166 58.38C333.54 59.0467 333.726 59.8867 333.726 60.9V67H332.306V61.04C332.306 59.9333 332.026 59.1 331.466 58.54C330.92 57.9667 330.146 57.68 329.146 57.68C328.4 57.68 327.746 57.8333 327.186 58.14C326.64 58.4333 326.213 58.8667 325.906 59.44C325.613 60 325.466 60.68 325.466 61.48V67H324.046V56.5H325.406V59.38L325.186 58.84C325.52 58.08 326.053 57.4867 326.786 57.06C327.52 56.62 328.393 56.4 329.406 56.4ZM340.882 67.1C339.895 67.1 339.135 66.8333 338.602 66.3C338.069 65.7667 337.802 65.0133 337.802 64.04V54.18H339.222V63.96C339.222 64.5733 339.375 65.0467 339.682 65.38C340.002 65.7133 340.455 65.88 341.042 65.88C341.669 65.88 342.189 65.7 342.602 65.34L343.102 66.36C342.822 66.6133 342.482 66.8 342.082 66.92C341.695 67.04 341.295 67.1 340.882 67.1ZM335.922 57.68V56.5H342.422V57.68H335.922ZM345.687 67V52.16H347.107V67H345.687ZM351.138 70.98C350.645 70.98 350.171 70.9 349.718 70.74C349.278 70.58 348.898 70.34 348.578 70.02L349.238 68.96C349.505 69.2133 349.791 69.4067 350.098 69.54C350.418 69.6867 350.771 69.76 351.158 69.76C351.625 69.76 352.025 69.6267 352.358 69.36C352.705 69.1067 353.031 68.6533 353.338 68L354.018 66.46L354.178 66.24L358.498 56.5H359.898L354.638 68.26C354.345 68.94 354.018 69.48 353.658 69.88C353.311 70.28 352.931 70.56 352.518 70.72C352.105 70.8933 351.645 70.98 351.138 70.98ZM353.938 67.3L349.098 56.5H350.578L354.858 66.14L353.938 67.3ZM369.272 67L365.312 56.5H366.672L370.272 66.24H369.652L373.352 56.5H374.572L378.232 66.24H377.612L381.272 56.5H382.572L378.592 67H377.252L373.732 57.84H374.152L370.612 67H369.272ZM384.71 67V56.5H386.13V67H384.71ZM385.43 54.18C385.137 54.18 384.89 54.08 384.69 53.88C384.49 53.68 384.39 53.44 384.39 53.16C384.39 52.88 384.49 52.6467 384.69 52.46C384.89 52.26 385.137 52.16 385.43 52.16C385.724 52.16 385.97 52.2533 386.17 52.44C386.37 52.6267 386.47 52.86 386.47 53.14C386.47 53.4333 386.37 53.68 386.17 53.88C385.984 54.08 385.737 54.18 385.43 54.18ZM393.402 67.1C392.415 67.1 391.655 66.8333 391.122 66.3C390.588 65.7667 390.322 65.0133 390.322 64.04V54.18H391.742V63.96C391.742 64.5733 391.895 65.0467 392.202 65.38C392.522 65.7133 392.975 65.88 393.562 65.88C394.188 65.88 394.708 65.7 395.122 65.34L395.622 66.36C395.342 66.6133 395.002 66.8 394.602 66.92C394.215 67.04 393.815 67.1 393.402 67.1ZM388.442 57.68V56.5H394.942V57.68H388.442ZM403.567 56.4C404.42 56.4 405.167 56.5667 405.807 56.9C406.46 57.22 406.967 57.7133 407.327 58.38C407.7 59.0467 407.887 59.8867 407.887 60.9V67H406.467V61.04C406.467 59.9333 406.187 59.1 405.627 58.54C405.08 57.9667 404.307 57.68 403.307 57.68C402.56 57.68 401.907 57.8333 401.347 58.14C400.8 58.4333 400.373 58.8667 400.067 59.44C399.773 60 399.627 60.68 399.627 61.48V67H398.207V52.16H399.627V59.38L399.347 58.84C399.68 58.08 400.213 57.4867 400.947 57.06C401.68 56.62 402.553 56.4 403.567 56.4ZM126.06 102.98C125.567 102.98 125.093 102.9 124.64 102.74C124.2 102.58 123.82 102.34 123.5 102.02L124.16 100.96C124.427 101.213 124.713 101.407 125.02 101.54C125.34 101.687 125.693 101.76 126.08 101.76C126.547 101.76 126.947 101.627 127.28 101.36C127.627 101.107 127.953 100.653 128.26 100L128.94 98.46L129.1 98.24L133.42 88.5H134.82L129.56 100.26C129.267 100.94 128.94 101.48 128.58 101.88C128.233 102.28 127.853 102.56 127.44 102.72C127.027 102.893 126.567 102.98 126.06 102.98ZM128.86 99.3L124.02 88.5H125.5L129.78 98.14L128.86 99.3ZM140.807 99.1C139.794 99.1 138.88 98.8733 138.067 98.42C137.267 97.9533 136.634 97.32 136.167 96.52C135.7 95.7067 135.467 94.78 135.467 93.74C135.467 92.6867 135.7 91.76 136.167 90.96C136.634 90.16 137.267 89.5333 138.067 89.08C138.867 88.6267 139.78 88.4 140.807 88.4C141.847 88.4 142.767 88.6267 143.567 89.08C144.38 89.5333 145.014 90.16 145.467 90.96C145.934 91.76 146.167 92.6867 146.167 93.74C146.167 94.78 145.934 95.7067 145.467 96.52C145.014 97.32 144.38 97.9533 143.567 98.42C142.754 98.8733 141.834 99.1 140.807 99.1ZM140.807 97.84C141.567 97.84 142.24 97.6733 142.827 97.34C143.414 96.9933 143.874 96.5133 144.207 95.9C144.554 95.2733 144.727 94.5533 144.727 93.74C144.727 92.9133 144.554 92.1933 144.207 91.58C143.874 90.9667 143.414 90.4933 142.827 90.16C142.24 89.8133 141.574 89.64 140.827 89.64C140.08 89.64 139.414 89.8133 138.827 90.16C138.24 90.4933 137.774 90.9667 137.427 91.58C137.08 92.1933 136.907 92.9133 136.907 93.74C136.907 94.5533 137.08 95.2733 137.427 95.9C137.774 96.5133 138.24 96.9933 138.827 97.34C139.414 97.6733 140.074 97.84 140.807 97.84ZM153.406 99.1C152.513 99.1 151.733 98.9333 151.066 98.6C150.399 98.2667 149.879 97.7667 149.506 97.1C149.146 96.4333 148.966 95.6 148.966 94.6V88.5H150.386V94.44C150.386 95.56 150.659 96.4067 151.206 96.98C151.766 97.54 152.546 97.82 153.546 97.82C154.279 97.82 154.913 97.6733 155.446 97.38C155.993 97.0733 156.406 96.6333 156.686 96.06C156.979 95.4867 157.126 94.8 157.126 94V88.5H158.546V99H157.186V96.12L157.406 96.64C157.073 97.4133 156.553 98.02 155.846 98.46C155.153 98.8867 154.339 99.1 153.406 99.1ZM162.503 99V88.5H163.863V91.36L163.723 90.86C164.017 90.06 164.51 89.4533 165.203 89.04C165.897 88.6133 166.757 88.4 167.783 88.4V89.78C167.73 89.78 167.677 89.78 167.623 89.78C167.57 89.7667 167.517 89.76 167.463 89.76C166.357 89.76 165.49 90.1 164.863 90.78C164.237 91.4467 163.923 92.4 163.923 93.64V99H162.503ZM179.945 99.1C178.945 99.1 178.045 98.8733 177.245 98.42C176.458 97.9667 175.838 97.34 175.385 96.54C174.932 95.7267 174.705 94.7933 174.705 93.74C174.705 92.6733 174.932 91.74 175.385 90.94C175.838 90.14 176.458 89.52 177.245 89.08C178.045 88.6267 178.945 88.4 179.945 88.4C180.865 88.4 181.685 88.6067 182.405 89.02C183.138 89.4333 183.718 90.04 184.145 90.84C184.585 91.6267 184.805 92.5933 184.805 93.74C184.805 94.8733 184.592 95.84 184.165 96.64C183.738 97.44 183.158 98.0533 182.425 98.48C181.705 98.8933 180.878 99.1 179.945 99.1ZM180.045 97.84C180.792 97.84 181.458 97.6733 182.045 97.34C182.645 96.9933 183.112 96.5133 183.445 95.9C183.792 95.2733 183.965 94.5533 183.965 93.74C183.965 92.9133 183.792 92.1933 183.445 91.58C183.112 90.9667 182.645 90.4933 182.045 90.16C181.458 89.8133 180.792 89.64 180.045 89.64C179.312 89.64 178.652 89.8133 178.065 90.16C177.478 90.4933 177.012 90.9667 176.665 91.58C176.318 92.1933 176.145 92.9133 176.145 93.74C176.145 94.5533 176.318 95.2733 176.665 95.9C177.012 96.5133 177.478 96.9933 178.065 97.34C178.652 97.6733 179.312 97.84 180.045 97.84ZM184.005 99V95.84L184.145 93.72L183.945 91.6V84.16H185.365V99H184.005ZM193.78 99.1C192.687 99.1 191.727 98.8733 190.9 98.42C190.073 97.9533 189.427 97.32 188.96 96.52C188.493 95.7067 188.26 94.78 188.26 93.74C188.26 92.7 188.48 91.78 188.92 90.98C189.373 90.18 189.987 89.5533 190.76 89.1C191.547 88.6333 192.427 88.4 193.4 88.4C194.387 88.4 195.26 88.6267 196.02 89.08C196.793 89.52 197.4 90.1467 197.84 90.96C198.28 91.76 198.5 92.6867 198.5 93.74C198.5 93.8067 198.493 93.88 198.48 93.96C198.48 94.0267 198.48 94.1 198.48 94.18H189.34V93.12H197.72L197.16 93.54C197.16 92.78 196.993 92.1067 196.66 91.52C196.34 90.92 195.9 90.4533 195.34 90.12C194.78 89.7867 194.133 89.62 193.4 89.62C192.68 89.62 192.033 89.7867 191.46 90.12C190.887 90.4533 190.44 90.92 190.12 91.52C189.8 92.12 189.64 92.8067 189.64 93.58V93.8C189.64 94.6 189.813 95.3067 190.16 95.92C190.52 96.52 191.013 96.9933 191.64 97.34C192.28 97.6733 193.007 97.84 193.82 97.84C194.46 97.84 195.053 97.7267 195.6 97.5C196.16 97.2733 196.64 96.9267 197.04 96.46L197.84 97.38C197.373 97.94 196.787 98.3667 196.08 98.66C195.387 98.9533 194.62 99.1 193.78 99.1ZM203.895 99L199.235 88.5H200.715L204.995 98.24H204.295L208.635 88.5H210.035L205.355 99H203.895ZM212.035 99V88.5H213.455V99H212.035ZM212.755 86.18C212.461 86.18 212.215 86.08 212.015 85.88C211.815 85.68 211.715 85.44 211.715 85.16C211.715 84.88 211.815 84.6467 212.015 84.46C212.215 84.26 212.461 84.16 212.755 84.16C213.048 84.16 213.295 84.2533 213.495 84.44C213.695 84.6267 213.795 84.86 213.795 85.14C213.795 85.4333 213.695 85.68 213.495 85.88C213.308 86.08 213.061 86.18 212.755 86.18ZM221.766 99.1C220.726 99.1 219.792 98.8733 218.966 98.42C218.152 97.9533 217.512 97.32 217.046 96.52C216.579 95.7067 216.346 94.78 216.346 93.74C216.346 92.6867 216.579 91.76 217.046 90.96C217.512 90.16 218.152 89.5333 218.966 89.08C219.792 88.6267 220.726 88.4 221.766 88.4C222.659 88.4 223.466 88.5733 224.186 88.92C224.906 89.2667 225.472 89.7867 225.886 90.48L224.826 91.2C224.466 90.6667 224.019 90.2733 223.486 90.02C222.952 89.7667 222.372 89.64 221.746 89.64C220.999 89.64 220.326 89.8133 219.726 90.16C219.126 90.4933 218.652 90.9667 218.306 91.58C217.959 92.1933 217.786 92.9133 217.786 93.74C217.786 94.5667 217.959 95.2867 218.306 95.9C218.652 96.5133 219.126 96.9933 219.726 97.34C220.326 97.6733 220.999 97.84 221.746 97.84C222.372 97.84 222.952 97.7133 223.486 97.46C224.019 97.2067 224.466 96.82 224.826 96.3L225.886 97.02C225.472 97.7 224.906 98.22 224.186 98.58C223.466 98.9267 222.659 99.1 221.766 99.1ZM232.96 99.1C231.866 99.1 230.906 98.8733 230.08 98.42C229.253 97.9533 228.606 97.32 228.14 96.52C227.673 95.7067 227.44 94.78 227.44 93.74C227.44 92.7 227.66 91.78 228.1 90.98C228.553 90.18 229.166 89.5533 229.94 89.1C230.726 88.6333 231.606 88.4 232.58 88.4C233.566 88.4 234.44 88.6267 235.2 89.08C235.973 89.52 236.58 90.1467 237.02 90.96C237.46 91.76 237.68 92.6867 237.68 93.74C237.68 93.8067 237.673 93.88 237.66 93.96C237.66 94.0267 237.66 94.1 237.66 94.18H228.52V93.12H236.9L236.34 93.54C236.34 92.78 236.173 92.1067 235.84 91.52C235.52 90.92 235.08 90.4533 234.52 90.12C233.96 89.7867 233.313 89.62 232.58 89.62C231.86 89.62 231.213 89.7867 230.64 90.12C230.066 90.4533 229.62 90.92 229.3 91.52C228.98 92.12 228.82 92.8067 228.82 93.58V93.8C228.82 94.6 228.993 95.3067 229.34 95.92C229.7 96.52 230.193 96.9933 230.82 97.34C231.46 97.6733 232.186 97.84 233 97.84C233.64 97.84 234.233 97.7267 234.78 97.5C235.34 97.2733 235.82 96.9267 236.22 96.46L237.02 97.38C236.553 97.94 235.966 98.3667 235.26 98.66C234.566 98.9533 233.8 99.1 232.96 99.1ZM250.164 99.1C249.124 99.1 248.191 98.8733 247.364 98.42C246.551 97.9533 245.911 97.32 245.444 96.52C244.978 95.7067 244.744 94.78 244.744 93.74C244.744 92.6867 244.978 91.76 245.444 90.96C245.911 90.16 246.551 89.5333 247.364 89.08C248.191 88.6267 249.124 88.4 250.164 88.4C251.058 88.4 251.864 88.5733 252.584 88.92C253.304 89.2667 253.871 89.7867 254.284 90.48L253.224 91.2C252.864 90.6667 252.418 90.2733 251.884 90.02C251.351 89.7667 250.771 89.64 250.144 89.64C249.398 89.64 248.724 89.8133 248.124 90.16C247.524 90.4933 247.051 90.9667 246.704 91.58C246.358 92.1933 246.184 92.9133 246.184 93.74C246.184 94.5667 246.358 95.2867 246.704 95.9C247.051 96.5133 247.524 96.9933 248.124 97.34C248.724 97.6733 249.398 97.84 250.144 97.84C250.771 97.84 251.351 97.7133 251.884 97.46C252.418 97.2067 252.864 96.82 253.224 96.3L254.284 97.02C253.871 97.7 253.304 98.22 252.584 98.58C251.864 98.9267 251.058 99.1 250.164 99.1ZM263.654 99V96.68L263.594 96.3V92.42C263.594 91.5267 263.34 90.84 262.834 90.36C262.34 89.88 261.6 89.64 260.614 89.64C259.934 89.64 259.287 89.7533 258.674 89.98C258.06 90.2067 257.54 90.5067 257.114 90.88L256.474 89.82C257.007 89.3667 257.647 89.02 258.394 88.78C259.14 88.5267 259.927 88.4 260.754 88.4C262.114 88.4 263.16 88.74 263.894 89.42C264.64 90.0867 265.014 91.1067 265.014 92.48V99H263.654ZM260.034 99.1C259.247 99.1 258.56 98.9733 257.974 98.72C257.4 98.4533 256.96 98.0933 256.654 97.64C256.347 97.1733 256.194 96.64 256.194 96.04C256.194 95.4933 256.32 95 256.574 94.56C256.84 94.1067 257.267 93.7467 257.854 93.48C258.454 93.2 259.254 93.06 260.254 93.06H263.874V94.12H260.294C259.28 94.12 258.574 94.3 258.174 94.66C257.787 95.02 257.594 95.4667 257.594 96C257.594 96.6 257.827 97.08 258.294 97.44C258.76 97.8 259.414 97.98 260.254 97.98C261.054 97.98 261.74 97.8 262.314 97.44C262.9 97.0667 263.327 96.5333 263.594 95.84L263.914 96.82C263.647 97.5133 263.18 98.0667 262.514 98.48C261.86 98.8933 261.034 99.1 260.034 99.1ZM281.991 88.4C282.844 88.4 283.584 88.5667 284.211 88.9C284.851 89.22 285.344 89.7133 285.691 90.38C286.051 91.0467 286.231 91.8867 286.231 92.9V99H284.811V93.04C284.811 91.9333 284.544 91.1 284.011 90.54C283.491 89.9667 282.751 89.68 281.791 89.68C281.071 89.68 280.444 89.8333 279.911 90.14C279.391 90.4333 278.984 90.8667 278.691 91.44C278.411 92 278.271 92.68 278.271 93.48V99H276.851V93.04C276.851 91.9333 276.584 91.1 276.051 90.54C275.517 89.9667 274.771 89.68 273.811 89.68C273.104 89.68 272.484 89.8333 271.951 90.14C271.417 90.4333 271.004 90.8667 270.711 91.44C270.431 92 270.291 92.68 270.291 93.48V99H268.871V88.5H270.231V91.34L270.011 90.84C270.331 90.08 270.844 89.4867 271.551 89.06C272.271 88.62 273.117 88.4 274.091 88.4C275.117 88.4 275.991 88.66 276.711 89.18C277.431 89.6867 277.897 90.4533 278.111 91.48L277.551 91.26C277.857 90.4067 278.397 89.72 279.171 89.2C279.957 88.6667 280.897 88.4 281.991 88.4ZM294.542 99.1C293.448 99.1 292.488 98.8733 291.662 98.42C290.835 97.9533 290.188 97.32 289.722 96.52C289.255 95.7067 289.022 94.78 289.022 93.74C289.022 92.7 289.242 91.78 289.682 90.98C290.135 90.18 290.748 89.5533 291.522 89.1C292.308 88.6333 293.188 88.4 294.162 88.4C295.148 88.4 296.022 88.6267 296.782 89.08C297.555 89.52 298.162 90.1467 298.602 90.96C299.042 91.76 299.262 92.6867 299.262 93.74C299.262 93.8067 299.255 93.88 299.242 93.96C299.242 94.0267 299.242 94.1 299.242 94.18H290.102V93.12H298.482L297.922 93.54C297.922 92.78 297.755 92.1067 297.422 91.52C297.102 90.92 296.662 90.4533 296.102 90.12C295.542 89.7867 294.895 89.62 294.162 89.62C293.442 89.62 292.795 89.7867 292.222 90.12C291.648 90.4533 291.202 90.92 290.882 91.52C290.562 92.12 290.402 92.8067 290.402 93.58V93.8C290.402 94.6 290.575 95.3067 290.922 95.92C291.282 96.52 291.775 96.9933 292.402 97.34C293.042 97.6733 293.768 97.84 294.582 97.84C295.222 97.84 295.815 97.7267 296.362 97.5C296.922 97.2733 297.402 96.9267 297.802 96.46L298.602 97.38C298.135 97.94 297.548 98.3667 296.842 98.66C296.148 98.9533 295.382 99.1 294.542 99.1ZM302.152 99V88.5H303.512V91.36L303.372 90.86C303.665 90.06 304.159 89.4533 304.852 89.04C305.545 88.6133 306.405 88.4 307.432 88.4V89.78C307.379 89.78 307.325 89.78 307.272 89.78C307.219 89.7667 307.165 89.76 307.112 89.76C306.005 89.76 305.139 90.1 304.512 90.78C303.885 91.4467 303.572 92.4 303.572 93.64V99H302.152ZM315.822 99V96.68L315.762 96.3V92.42C315.762 91.5267 315.508 90.84 315.002 90.36C314.508 89.88 313.768 89.64 312.782 89.64C312.102 89.64 311.455 89.7533 310.842 89.98C310.228 90.2067 309.708 90.5067 309.282 90.88L308.642 89.82C309.175 89.3667 309.815 89.02 310.562 88.78C311.308 88.5267 312.095 88.4 312.922 88.4C314.282 88.4 315.328 88.74 316.062 89.42C316.808 90.0867 317.182 91.1067 317.182 92.48V99H315.822ZM312.202 99.1C311.415 99.1 310.728 98.9733 310.142 98.72C309.568 98.4533 309.128 98.0933 308.822 97.64C308.515 97.1733 308.362 96.64 308.362 96.04C308.362 95.4933 308.488 95 308.742 94.56C309.008 94.1067 309.435 93.7467 310.022 93.48C310.622 93.2 311.422 93.06 312.422 93.06H316.042V94.12H312.462C311.448 94.12 310.742 94.3 310.342 94.66C309.955 95.02 309.762 95.4667 309.762 96C309.762 96.6 309.995 97.08 310.462 97.44C310.928 97.8 311.582 97.98 312.422 97.98C313.222 97.98 313.908 97.8 314.482 97.44C315.068 97.0667 315.495 96.5333 315.762 95.84L316.082 96.82C315.815 97.5133 315.348 98.0667 314.682 98.48C314.028 98.8933 313.202 99.1 312.202 99.1ZM326.513 99V87.18C326.513 86.2467 326.786 85.4933 327.333 84.92C327.88 84.3467 328.666 84.06 329.693 84.06C330.093 84.06 330.48 84.1133 330.853 84.22C331.226 84.3267 331.54 84.4933 331.793 84.72L331.313 85.78C331.113 85.6067 330.88 85.48 330.613 85.4C330.346 85.3067 330.06 85.26 329.753 85.26C329.153 85.26 328.693 85.4267 328.373 85.76C328.053 86.0933 327.893 86.5867 327.893 87.24V88.84L327.933 89.5V99H326.513ZM324.633 89.68V88.5H331.133V89.68H324.633ZM337.155 99.1C336.141 99.1 335.228 98.8733 334.415 98.42C333.615 97.9533 332.981 97.32 332.515 96.52C332.048 95.7067 331.815 94.78 331.815 93.74C331.815 92.6867 332.048 91.76 332.515 90.96C332.981 90.16 333.615 89.5333 334.415 89.08C335.215 88.6267 336.128 88.4 337.155 88.4C338.195 88.4 339.115 88.6267 339.915 89.08C340.728 89.5333 341.361 90.16 341.815 90.96C342.281 91.76 342.515 92.6867 342.515 93.74C342.515 94.78 342.281 95.7067 341.815 96.52C341.361 97.32 340.728 97.9533 339.915 98.42C339.101 98.8733 338.181 99.1 337.155 99.1ZM337.155 97.84C337.915 97.84 338.588 97.6733 339.175 97.34C339.761 96.9933 340.221 96.5133 340.555 95.9C340.901 95.2733 341.075 94.5533 341.075 93.74C341.075 92.9133 340.901 92.1933 340.555 91.58C340.221 90.9667 339.761 90.4933 339.175 90.16C338.588 89.8133 337.921 89.64 337.175 89.64C336.428 89.64 335.761 89.8133 335.175 90.16C334.588 90.4933 334.121 90.9667 333.775 91.58C333.428 92.1933 333.255 92.9133 333.255 93.74C333.255 94.5533 333.428 95.2733 333.775 95.9C334.121 96.5133 334.588 96.9933 335.175 97.34C335.761 97.6733 336.421 97.84 337.155 97.84ZM345.414 99V88.5H346.774V91.36L346.634 90.86C346.927 90.06 347.42 89.4533 348.114 89.04C348.807 88.6133 349.667 88.4 350.694 88.4V89.78C350.64 89.78 350.587 89.78 350.534 89.78C350.48 89.7667 350.427 89.76 350.374 89.76C349.267 89.76 348.4 90.1 347.774 90.78C347.147 91.4467 346.834 92.4 346.834 93.64V99H345.414ZM362.855 99.1C361.855 99.1 360.955 98.8733 360.155 98.42C359.369 97.9667 358.749 97.34 358.295 96.54C357.842 95.74 357.615 94.8067 357.615 93.74C357.615 92.6867 357.842 91.76 358.295 90.96C358.749 90.1467 359.369 89.52 360.155 89.08C360.955 88.6267 361.855 88.4 362.855 88.4C363.789 88.4 364.615 88.6067 365.335 89.02C366.069 89.4333 366.649 90.04 367.075 90.84C367.502 91.6267 367.715 92.5933 367.715 93.74C367.715 94.8867 367.495 95.86 367.055 96.66C366.629 97.4467 366.049 98.0533 365.315 98.48C364.595 98.8933 363.775 99.1 362.855 99.1ZM362.955 97.84C363.702 97.84 364.369 97.6733 364.955 97.34C365.555 96.9933 366.022 96.5133 366.355 95.9C366.702 95.2733 366.875 94.5533 366.875 93.74C366.875 92.9267 366.702 92.2133 366.355 91.6C366.022 90.9867 365.555 90.5067 364.955 90.16C364.369 89.8133 363.702 89.64 362.955 89.64C362.222 89.64 361.562 89.8133 360.975 90.16C360.389 90.5067 359.922 90.9867 359.575 91.6C359.229 92.2133 359.055 92.9267 359.055 93.74C359.055 94.5533 359.229 95.2733 359.575 95.9C359.922 96.5133 360.389 96.9933 360.975 97.34C361.562 97.6733 362.222 97.84 362.955 97.84ZM366.855 102.88V95.88L367.055 93.76L366.915 91.66V88.5H368.275V102.88H366.855ZM376.57 99.1C375.677 99.1 374.897 98.9333 374.23 98.6C373.563 98.2667 373.043 97.7667 372.67 97.1C372.31 96.4333 372.13 95.6 372.13 94.6V88.5H373.55V94.44C373.55 95.56 373.823 96.4067 374.37 96.98C374.93 97.54 375.71 97.82 376.71 97.82C377.443 97.82 378.077 97.6733 378.61 97.38C379.157 97.0733 379.57 96.6333 379.85 96.06C380.143 95.4867 380.29 94.8 380.29 94V88.5H381.71V99H380.35V96.12L380.57 96.64C380.237 97.4133 379.717 98.02 379.01 98.46C378.317 98.8867 377.503 99.1 376.57 99.1ZM385.668 99V88.5H387.088V99H385.668ZM386.388 86.18C386.094 86.18 385.848 86.08 385.648 85.88C385.448 85.68 385.348 85.44 385.348 85.16C385.348 84.88 385.448 84.6467 385.648 84.46C385.848 84.26 386.094 84.16 386.388 84.16C386.681 84.16 386.928 84.2533 387.128 84.44C387.328 84.6267 387.428 84.86 387.428 85.14C387.428 85.4333 387.328 85.68 387.128 85.88C386.941 86.08 386.694 86.18 386.388 86.18ZM395.399 99.1C394.359 99.1 393.425 98.8733 392.599 98.42C391.785 97.9533 391.145 97.32 390.679 96.52C390.212 95.7067 389.979 94.78 389.979 93.74C389.979 92.6867 390.212 91.76 390.679 90.96C391.145 90.16 391.785 89.5333 392.599 89.08C393.425 88.6267 394.359 88.4 395.399 88.4C396.292 88.4 397.099 88.5733 397.819 88.92C398.539 89.2667 399.105 89.7867 399.519 90.48L398.459 91.2C398.099 90.6667 397.652 90.2733 397.119 90.02C396.585 89.7667 396.005 89.64 395.379 89.64C394.632 89.64 393.959 89.8133 393.359 90.16C392.759 90.4933 392.285 90.9667 391.939 91.58C391.592 92.1933 391.419 92.9133 391.419 93.74C391.419 94.5667 391.592 95.2867 391.939 95.9C392.285 96.5133 392.759 96.9933 393.359 97.34C393.959 97.6733 394.632 97.84 395.379 97.84C396.005 97.84 396.585 97.7133 397.119 97.46C397.652 97.2067 398.099 96.82 398.459 96.3L399.519 97.02C399.105 97.7 398.539 98.22 397.819 98.58C397.099 98.9267 396.292 99.1 395.399 99.1ZM403.272 96.28L403.312 94.46L409.852 88.5H411.592L406.972 92.92L406.172 93.6L403.272 96.28ZM402.152 99V84.16H403.572V99H402.152ZM410.292 99L405.912 93.54L406.832 92.44L412.032 99H410.292ZM125.98 131V116.16H127.4V131H125.98ZM135.631 131.1C134.618 131.1 133.704 130.873 132.891 130.42C132.091 129.953 131.458 129.32 130.991 128.52C130.524 127.707 130.291 126.78 130.291 125.74C130.291 124.687 130.524 123.76 130.991 122.96C131.458 122.16 132.091 121.533 132.891 121.08C133.691 120.627 134.604 120.4 135.631 120.4C136.671 120.4 137.591 120.627 138.391 121.08C139.204 121.533 139.838 122.16 140.291 122.96C140.758 123.76 140.991 124.687 140.991 125.74C140.991 126.78 140.758 127.707 140.291 128.52C139.838 129.32 139.204 129.953 138.391 130.42C137.578 130.873 136.658 131.1 135.631 131.1ZM135.631 129.84C136.391 129.84 137.064 129.673 137.651 129.34C138.238 128.993 138.698 128.513 139.031 127.9C139.378 127.273 139.551 126.553 139.551 125.74C139.551 124.913 139.378 124.193 139.031 123.58C138.698 122.967 138.238 122.493 137.651 122.16C137.064 121.813 136.398 121.64 135.651 121.64C134.904 121.64 134.238 121.813 133.651 122.16C133.064 122.493 132.598 122.967 132.251 123.58C131.904 124.193 131.731 124.913 131.731 125.74C131.731 126.553 131.904 127.273 132.251 127.9C132.598 128.513 133.064 128.993 133.651 129.34C134.238 129.673 134.898 129.84 135.631 129.84ZM148.17 131.1C147.157 131.1 146.243 130.873 145.43 130.42C144.63 129.953 143.997 129.32 143.53 128.52C143.063 127.707 142.83 126.78 142.83 125.74C142.83 124.687 143.063 123.76 143.53 122.96C143.997 122.16 144.63 121.533 145.43 121.08C146.23 120.627 147.143 120.4 148.17 120.4C149.21 120.4 150.13 120.627 150.93 121.08C151.743 121.533 152.377 122.16 152.83 122.96C153.297 123.76 153.53 124.687 153.53 125.74C153.53 126.78 153.297 127.707 152.83 128.52C152.377 129.32 151.743 129.953 150.93 130.42C150.117 130.873 149.197 131.1 148.17 131.1ZM148.17 129.84C148.93 129.84 149.603 129.673 150.19 129.34C150.777 128.993 151.237 128.513 151.57 127.9C151.917 127.273 152.09 126.553 152.09 125.74C152.09 124.913 151.917 124.193 151.57 123.58C151.237 122.967 150.777 122.493 150.19 122.16C149.603 121.813 148.937 121.64 148.19 121.64C147.443 121.64 146.777 121.813 146.19 122.16C145.603 122.493 145.137 122.967 144.79 123.58C144.443 124.193 144.27 124.913 144.27 125.74C144.27 126.553 144.443 127.273 144.79 127.9C145.137 128.513 145.603 128.993 146.19 129.34C146.777 129.673 147.437 129.84 148.17 129.84ZM157.549 128.28L157.589 126.46L164.129 120.5H165.869L161.249 124.92L160.449 125.6L157.549 128.28ZM156.429 131V116.16H157.849V131H156.429ZM164.569 131L160.189 125.54L161.109 124.44L166.309 131H164.569ZM172.586 131.1C171.692 131.1 170.912 130.933 170.246 130.6C169.579 130.267 169.059 129.767 168.686 129.1C168.326 128.433 168.146 127.6 168.146 126.6V120.5H169.566V126.44C169.566 127.56 169.839 128.407 170.386 128.98C170.946 129.54 171.726 129.82 172.726 129.82C173.459 129.82 174.092 129.673 174.626 129.38C175.172 129.073 175.586 128.633 175.866 128.06C176.159 127.487 176.306 126.8 176.306 126V120.5H177.726V131H176.366V128.12L176.586 128.64C176.252 129.413 175.732 130.02 175.026 130.46C174.332 130.887 173.519 131.1 172.586 131.1ZM187.103 131.1C186.196 131.1 185.376 130.893 184.643 130.48C183.91 130.053 183.323 129.447 182.883 128.66C182.456 127.86 182.243 126.887 182.243 125.74C182.243 124.593 182.456 123.627 182.883 122.84C183.31 122.04 183.89 121.433 184.623 121.02C185.356 120.607 186.183 120.4 187.103 120.4C188.103 120.4 188.996 120.627 189.783 121.08C190.583 121.52 191.21 122.147 191.663 122.96C192.116 123.76 192.343 124.687 192.343 125.74C192.343 126.807 192.116 127.74 191.663 128.54C191.21 129.34 190.583 129.967 189.783 130.42C188.996 130.873 188.103 131.1 187.103 131.1ZM181.683 134.88V120.5H183.043V123.66L182.903 125.76L183.103 127.88V134.88H181.683ZM187.003 129.84C187.75 129.84 188.416 129.673 189.003 129.34C189.59 128.993 190.056 128.513 190.403 127.9C190.75 127.273 190.923 126.553 190.923 125.74C190.923 124.927 190.75 124.213 190.403 123.6C190.056 122.987 189.59 122.507 189.003 122.16C188.416 121.813 187.75 121.64 187.003 121.64C186.256 121.64 185.583 121.813 184.983 122.16C184.396 122.507 183.93 122.987 183.583 123.6C183.25 124.213 183.083 124.927 183.083 125.74C183.083 126.553 183.25 127.273 183.583 127.9C183.93 128.513 184.396 128.993 184.983 129.34C185.583 129.673 186.256 129.84 187.003 129.84ZM207.052 131V128.68L206.992 128.3V124.42C206.992 123.527 206.739 122.84 206.232 122.36C205.739 121.88 204.999 121.64 204.012 121.64C203.332 121.64 202.686 121.753 202.072 121.98C201.459 122.207 200.939 122.507 200.512 122.88L199.872 121.82C200.406 121.367 201.046 121.02 201.792 120.78C202.539 120.527 203.326 120.4 204.152 120.4C205.512 120.4 206.559 120.74 207.292 121.42C208.039 122.087 208.412 123.107 208.412 124.48V131H207.052ZM203.432 131.1C202.646 131.1 201.959 130.973 201.372 130.72C200.799 130.453 200.359 130.093 200.052 129.64C199.746 129.173 199.592 128.64 199.592 128.04C199.592 127.493 199.719 127 199.972 126.56C200.239 126.107 200.666 125.747 201.252 125.48C201.852 125.2 202.652 125.06 203.652 125.06H207.272V126.12H203.692C202.679 126.12 201.972 126.3 201.572 126.66C201.186 127.02 200.992 127.467 200.992 128C200.992 128.6 201.226 129.08 201.692 129.44C202.159 129.8 202.812 129.98 203.652 129.98C204.452 129.98 205.139 129.8 205.712 129.44C206.299 129.067 206.726 128.533 206.992 127.84L207.312 128.82C207.046 129.513 206.579 130.067 205.912 130.48C205.259 130.893 204.432 131.1 203.432 131.1ZM217.629 120.4C218.482 120.4 219.229 120.567 219.869 120.9C220.522 121.22 221.029 121.713 221.389 122.38C221.762 123.047 221.949 123.887 221.949 124.9V131H220.529V125.04C220.529 123.933 220.249 123.1 219.689 122.54C219.142 121.967 218.369 121.68 217.369 121.68C216.622 121.68 215.969 121.833 215.409 122.14C214.862 122.433 214.436 122.867 214.129 123.44C213.836 124 213.689 124.68 213.689 125.48V131H212.269V120.5H213.629V123.38L213.409 122.84C213.742 122.08 214.276 121.487 215.009 121.06C215.742 120.62 216.616 120.4 217.629 120.4ZM229.965 131.1C228.965 131.1 228.065 130.873 227.265 130.42C226.478 129.967 225.858 129.34 225.405 128.54C224.951 127.727 224.725 126.793 224.725 125.74C224.725 124.673 224.951 123.74 225.405 122.94C225.858 122.14 226.478 121.52 227.265 121.08C228.065 120.627 228.965 120.4 229.965 120.4C230.885 120.4 231.705 120.607 232.425 121.02C233.158 121.433 233.738 122.04 234.165 122.84C234.605 123.627 234.825 124.593 234.825 125.74C234.825 126.873 234.611 127.84 234.185 128.64C233.758 129.44 233.178 130.053 232.445 130.48C231.725 130.893 230.898 131.1 229.965 131.1ZM230.065 129.84C230.811 129.84 231.478 129.673 232.065 129.34C232.665 128.993 233.131 128.513 233.465 127.9C233.811 127.273 233.985 126.553 233.985 125.74C233.985 124.913 233.811 124.193 233.465 123.58C233.131 122.967 232.665 122.493 232.065 122.16C231.478 121.813 230.811 121.64 230.065 121.64C229.331 121.64 228.671 121.813 228.085 122.16C227.498 122.493 227.031 122.967 226.685 123.58C226.338 124.193 226.165 124.913 226.165 125.74C226.165 126.553 226.338 127.273 226.685 127.9C227.031 128.513 227.498 128.993 228.085 129.34C228.671 129.673 229.331 129.84 230.065 129.84ZM234.025 131V127.84L234.165 125.72L233.965 123.6V116.16H235.385V131H234.025ZM248.934 131.1C247.894 131.1 246.96 130.873 246.134 130.42C245.32 129.953 244.68 129.32 244.214 128.52C243.747 127.707 243.514 126.78 243.514 125.74C243.514 124.687 243.747 123.76 244.214 122.96C244.68 122.16 245.32 121.533 246.134 121.08C246.96 120.627 247.894 120.4 248.934 120.4C249.827 120.4 250.634 120.573 251.354 120.92C252.074 121.267 252.64 121.787 253.054 122.48L251.994 123.2C251.634 122.667 251.187 122.273 250.654 122.02C250.12 121.767 249.54 121.64 248.914 121.64C248.167 121.64 247.494 121.813 246.894 122.16C246.294 122.493 245.82 122.967 245.474 123.58C245.127 124.193 244.954 124.913 244.954 125.74C244.954 126.567 245.127 127.287 245.474 127.9C245.82 128.513 246.294 128.993 246.894 129.34C247.494 129.673 248.167 129.84 248.914 129.84C249.54 129.84 250.12 129.713 250.654 129.46C251.187 129.207 251.634 128.82 251.994 128.3L253.054 129.02C252.64 129.7 252.074 130.22 251.354 130.58C250.634 130.927 249.827 131.1 248.934 131.1ZM261.047 120.4C261.9 120.4 262.647 120.567 263.287 120.9C263.94 121.22 264.447 121.713 264.807 122.38C265.18 123.047 265.367 123.887 265.367 124.9V131H263.947V125.04C263.947 123.933 263.667 123.1 263.107 122.54C262.56 121.967 261.787 121.68 260.787 121.68C260.04 121.68 259.387 121.833 258.827 122.14C258.28 122.433 257.854 122.867 257.547 123.44C257.254 124 257.107 124.68 257.107 125.48V131H255.687V116.16H257.107V123.38L256.827 122.84C257.16 122.08 257.694 121.487 258.427 121.06C259.16 120.62 260.034 120.4 261.047 120.4ZM273.663 131.1C272.569 131.1 271.609 130.873 270.783 130.42C269.956 129.953 269.309 129.32 268.843 128.52C268.376 127.707 268.143 126.78 268.143 125.74C268.143 124.7 268.363 123.78 268.803 122.98C269.256 122.18 269.869 121.553 270.643 121.1C271.429 120.633 272.309 120.4 273.283 120.4C274.269 120.4 275.143 120.627 275.903 121.08C276.676 121.52 277.283 122.147 277.723 122.96C278.163 123.76 278.383 124.687 278.383 125.74C278.383 125.807 278.376 125.88 278.363 125.96C278.363 126.027 278.363 126.1 278.363 126.18H269.223V125.12H277.603L277.043 125.54C277.043 124.78 276.876 124.107 276.543 123.52C276.223 122.92 275.783 122.453 275.223 122.12C274.663 121.787 274.016 121.62 273.283 121.62C272.563 121.62 271.916 121.787 271.343 122.12C270.769 122.453 270.323 122.92 270.003 123.52C269.683 124.12 269.523 124.807 269.523 125.58V125.8C269.523 126.6 269.696 127.307 270.043 127.92C270.403 128.52 270.896 128.993 271.523 129.34C272.163 129.673 272.889 129.84 273.703 129.84C274.343 129.84 274.936 129.727 275.483 129.5C276.043 129.273 276.523 128.927 276.923 128.46L277.723 129.38C277.256 129.94 276.669 130.367 275.963 130.66C275.269 130.953 274.503 131.1 273.663 131.1ZM285.633 131.1C284.593 131.1 283.66 130.873 282.833 130.42C282.02 129.953 281.38 129.32 280.913 128.52C280.446 127.707 280.213 126.78 280.213 125.74C280.213 124.687 280.446 123.76 280.913 122.96C281.38 122.16 282.02 121.533 282.833 121.08C283.66 120.627 284.593 120.4 285.633 120.4C286.526 120.4 287.333 120.573 288.053 120.92C288.773 121.267 289.34 121.787 289.753 122.48L288.693 123.2C288.333 122.667 287.886 122.273 287.353 122.02C286.82 121.767 286.24 121.64 285.613 121.64C284.866 121.64 284.193 121.813 283.593 122.16C282.993 122.493 282.52 122.967 282.173 123.58C281.826 124.193 281.653 124.913 281.653 125.74C281.653 126.567 281.826 127.287 282.173 127.9C282.52 128.513 282.993 128.993 283.593 129.34C284.193 129.673 284.866 129.84 285.613 129.84C286.24 129.84 286.82 129.713 287.353 129.46C287.886 129.207 288.333 128.82 288.693 128.3L289.753 129.02C289.34 129.7 288.773 130.22 288.053 130.58C287.333 130.927 286.526 131.1 285.633 131.1ZM293.506 128.28L293.546 126.46L300.086 120.5H301.826L297.206 124.92L296.406 125.6L293.506 128.28ZM292.386 131V116.16H293.806V131H292.386ZM300.526 131L296.146 125.54L297.066 124.44L302.266 131H300.526ZM308.268 131.1C307.254 131.1 306.341 130.873 305.528 130.42C304.728 129.953 304.094 129.32 303.628 128.52C303.161 127.707 302.928 126.78 302.928 125.74C302.928 124.687 303.161 123.76 303.628 122.96C304.094 122.16 304.728 121.533 305.528 121.08C306.328 120.627 307.241 120.4 308.268 120.4C309.308 120.4 310.228 120.627 311.028 121.08C311.841 121.533 312.474 122.16 312.928 122.96C313.394 123.76 313.628 124.687 313.628 125.74C313.628 126.78 313.394 127.707 312.928 128.52C312.474 129.32 311.841 129.953 311.028 130.42C310.214 130.873 309.294 131.1 308.268 131.1ZM308.268 129.84C309.028 129.84 309.701 129.673 310.288 129.34C310.874 128.993 311.334 128.513 311.668 127.9C312.014 127.273 312.188 126.553 312.188 125.74C312.188 124.913 312.014 124.193 311.668 123.58C311.334 122.967 310.874 122.493 310.288 122.16C309.701 121.813 309.034 121.64 308.288 121.64C307.541 121.64 306.874 121.813 306.288 122.16C305.701 122.493 305.234 122.967 304.888 123.58C304.541 124.193 304.368 124.913 304.368 125.74C304.368 126.553 304.541 127.273 304.888 127.9C305.234 128.513 305.701 128.993 306.288 129.34C306.874 129.673 307.534 129.84 308.268 129.84ZM320.867 131.1C319.974 131.1 319.194 130.933 318.527 130.6C317.86 130.267 317.34 129.767 316.967 129.1C316.607 128.433 316.427 127.6 316.427 126.6V120.5H317.847V126.44C317.847 127.56 318.12 128.407 318.667 128.98C319.227 129.54 320.007 129.82 321.007 129.82C321.74 129.82 322.374 129.673 322.907 129.38C323.454 129.073 323.867 128.633 324.147 128.06C324.44 127.487 324.587 126.8 324.587 126V120.5H326.007V131H324.647V128.12L324.867 128.64C324.534 129.413 324.014 130.02 323.307 130.46C322.614 130.887 321.8 131.1 320.867 131.1ZM333.284 131.1C332.298 131.1 331.538 130.833 331.004 130.3C330.471 129.767 330.204 129.013 330.204 128.04V118.18H331.624V127.96C331.624 128.573 331.778 129.047 332.084 129.38C332.404 129.713 332.858 129.88 333.444 129.88C334.071 129.88 334.591 129.7 335.004 129.34L335.504 130.36C335.224 130.613 334.884 130.8 334.484 130.92C334.098 131.04 333.698 131.1 333.284 131.1ZM328.324 121.68V120.5H334.824V121.68H328.324ZM338.425 131.1C338.131 131.1 337.878 130.993 337.665 130.78C337.465 130.567 337.365 130.307 337.365 130C337.365 129.68 337.465 129.42 337.665 129.22C337.878 129.02 338.131 128.92 338.425 128.92C338.718 128.92 338.965 129.02 339.165 129.22C339.378 129.42 339.485 129.68 339.485 130C339.485 130.307 339.378 130.567 339.165 130.78C338.965 130.993 338.718 131.1 338.425 131.1Z" fill="#333333"/>
<rect width="100" height="100" rx="6" fill="#F0F0F0"/>
<path d="M20.6667 74V60.6667H26V68.6667H34V74H20.6667ZM66 74V68.6667H74V60.6667H79.3334V74H66ZM28.6667 66V34H34V66H28.6667ZM36.6667 66V34H39.3334V66H36.6667ZM44.6667 66V34H50V66H44.6667ZM52.6667 66V34H60.6667V66H52.6667ZM63.3334 66V34H66V66H63.3334ZM68.6667 66V34H71.3334V66H68.6667ZM20.6667 39.3333V26H34V31.3333H26V39.3333H20.6667ZM74 39.3333V31.3333H66V26H79.3334V39.3333H74Z" fill="#001EF4"/>
</svg>
