<svg width="437" height="48" viewBox="0 0 437 48" fill="none" xmlns="http://www.w3.org/2000/svg">
<rect width="200" height="48" rx="4" fill="#001EF4"/>
<path d="M38.736 30.16C37.8613 30.16 37.056 30.0213 36.32 29.744C35.5947 29.456 34.96 29.056 34.416 28.544C33.872 28.0213 33.4507 27.408 33.152 26.704C32.8533 26 32.704 25.232 32.704 24.4C32.704 23.568 32.8533 22.8 33.152 22.096C33.4507 21.392 33.872 20.784 34.416 20.272C34.9707 19.7493 35.616 19.3493 36.352 19.072C37.088 18.784 37.8933 18.64 38.768 18.64C39.7173 18.64 40.5707 18.7947 41.328 19.104C42.096 19.4133 42.7413 19.8667 43.264 20.464L41.952 21.744C41.5147 21.3067 41.04 20.9867 40.528 20.784C40.0267 20.5707 39.472 20.464 38.864 20.464C38.2773 20.464 37.7333 20.56 37.232 20.752C36.7307 20.944 36.2987 21.216 35.936 21.568C35.5733 21.92 35.2907 22.336 35.088 22.816C34.896 23.296 34.8 23.824 34.8 24.4C34.8 24.9653 34.896 25.488 35.088 25.968C35.2907 26.448 35.5733 26.8693 35.936 27.232C36.2987 27.584 36.7253 27.856 37.216 28.048C37.7067 28.24 38.2507 28.336 38.848 28.336C39.4027 28.336 39.936 28.2507 40.448 28.08C40.9707 27.8987 41.4667 27.6 41.936 27.184L43.12 28.736C42.5333 29.2053 41.8507 29.5627 41.072 29.808C40.304 30.0427 39.5253 30.16 38.736 30.16ZM41.152 28.464V24.272H43.12V28.736L41.152 28.464ZM49.6874 30.112C48.738 30.112 47.906 29.9253 47.1914 29.552C46.4874 29.168 45.938 28.6453 45.5434 27.984C45.1594 27.3227 44.9674 26.5707 44.9674 25.728C44.9674 24.8747 45.154 24.1227 45.5274 23.472C45.9114 22.8107 46.434 22.2933 47.0954 21.92C47.7674 21.5467 48.53 21.36 49.3834 21.36C50.2154 21.36 50.9567 21.5413 51.6074 21.904C52.258 22.2667 52.77 22.7787 53.1434 23.44C53.5167 24.1013 53.7034 24.88 53.7034 25.776C53.7034 25.8613 53.698 25.9573 53.6874 26.064C53.6874 26.1707 53.682 26.272 53.6714 26.368H46.5514V25.04H52.6154L51.8314 25.456C51.842 24.9653 51.7407 24.5333 51.5274 24.16C51.314 23.7867 51.0207 23.4933 50.6474 23.28C50.2847 23.0667 49.8634 22.96 49.3834 22.96C48.8927 22.96 48.4607 23.0667 48.0874 23.28C47.7247 23.4933 47.4367 23.792 47.2234 24.176C47.0207 24.5493 46.9194 24.992 46.9194 25.504V25.824C46.9194 26.336 47.0367 26.7893 47.2714 27.184C47.506 27.5787 47.8367 27.8827 48.2634 28.096C48.69 28.3093 49.1807 28.416 49.7354 28.416C50.2154 28.416 50.6474 28.3413 51.0314 28.192C51.4154 28.0427 51.7567 27.808 52.0554 27.488L53.1274 28.72C52.7434 29.168 52.258 29.5147 51.6714 29.76C51.0954 29.9947 50.434 30.112 49.6874 30.112ZM58.8405 30.112C57.9018 30.112 57.1765 29.872 56.6645 29.392C56.1525 28.9013 55.8965 28.1813 55.8965 27.232V19.568H57.8965V27.184C57.8965 27.5893 57.9978 27.904 58.2005 28.128C58.4138 28.352 58.7072 28.464 59.0805 28.464C59.5285 28.464 59.9018 28.3467 60.2005 28.112L60.7605 29.536C60.5258 29.728 60.2378 29.872 59.8965 29.968C59.5552 30.064 59.2032 30.112 58.8405 30.112ZM54.4885 23.12V21.52H60.1845V23.12H54.4885ZM70.4916 30.16C69.617 30.16 68.7796 30.0373 67.9796 29.792C67.1796 29.536 66.545 29.2107 66.0756 28.816L66.7956 27.2C67.2436 27.552 67.7983 27.8453 68.4596 28.08C69.121 28.3147 69.7983 28.432 70.4916 28.432C71.0783 28.432 71.553 28.368 71.9156 28.24C72.2783 28.112 72.545 27.9413 72.7156 27.728C72.8863 27.504 72.9716 27.2533 72.9716 26.976C72.9716 26.6347 72.849 26.3627 72.6036 26.16C72.3583 25.9467 72.0383 25.7813 71.6436 25.664C71.2596 25.536 70.8276 25.4187 70.3476 25.312C69.8783 25.2053 69.4036 25.0827 68.9236 24.944C68.4543 24.7947 68.0223 24.608 67.6276 24.384C67.2436 24.1493 66.929 23.84 66.6836 23.456C66.4383 23.072 66.3156 22.5813 66.3156 21.984C66.3156 21.376 66.4756 20.8213 66.7956 20.32C67.1263 19.808 67.6223 19.4027 68.2836 19.104C68.9556 18.7947 69.8036 18.64 70.8276 18.64C71.4996 18.64 72.1663 18.7253 72.8276 18.896C73.489 19.0667 74.065 19.312 74.5556 19.632L73.8996 21.248C73.3983 20.9493 72.881 20.7307 72.3476 20.592C71.8143 20.4427 71.3023 20.368 70.8116 20.368C70.2356 20.368 69.7663 20.4373 69.4036 20.576C69.0516 20.7147 68.7903 20.896 68.6196 21.12C68.4596 21.344 68.3796 21.6 68.3796 21.888C68.3796 22.2293 68.497 22.5067 68.7316 22.72C68.977 22.9227 69.2916 23.0827 69.6756 23.2C70.0703 23.3173 70.5076 23.4347 70.9876 23.552C71.4676 23.6587 71.9423 23.7813 72.4116 23.92C72.8916 24.0587 73.3236 24.24 73.7076 24.464C74.1023 24.688 74.417 24.992 74.6516 25.376C74.897 25.76 75.0196 26.2453 75.0196 26.832C75.0196 27.4293 74.8543 27.984 74.5236 28.496C74.2036 28.9973 73.7076 29.4027 73.0356 29.712C72.3636 30.0107 71.5156 30.16 70.4916 30.16ZM80.1061 30.112C79.1675 30.112 78.4421 29.872 77.9301 29.392C77.4181 28.9013 77.1621 28.1813 77.1621 27.232V19.568H79.1621V27.184C79.1621 27.5893 79.2635 27.904 79.4661 28.128C79.6795 28.352 79.9728 28.464 80.3461 28.464C80.7941 28.464 81.1675 28.3467 81.4661 28.112L82.0261 29.536C81.7915 29.728 81.5035 29.872 81.1621 29.968C80.8208 30.064 80.4688 30.112 80.1061 30.112ZM75.7541 23.12V21.52H81.4501V23.12H75.7541ZM88.9354 30V28.272L88.8234 27.904V24.88C88.8234 24.2933 88.6474 23.84 88.2954 23.52C87.9434 23.1893 87.41 23.024 86.6954 23.024C86.2154 23.024 85.7407 23.0987 85.2714 23.248C84.8127 23.3973 84.4234 23.6053 84.1034 23.872L83.3194 22.416C83.778 22.064 84.322 21.8027 84.9514 21.632C85.5914 21.4507 86.2527 21.36 86.9354 21.36C88.1727 21.36 89.1274 21.6587 89.7994 22.256C90.482 22.8427 90.8234 23.7547 90.8234 24.992V30H88.9354ZM86.2474 30.112C85.6074 30.112 85.0474 30.0053 84.5674 29.792C84.0874 29.568 83.714 29.264 83.4474 28.88C83.1914 28.4853 83.0634 28.0427 83.0634 27.552C83.0634 27.072 83.1754 26.64 83.3994 26.256C83.634 25.872 84.0127 25.568 84.5354 25.344C85.058 25.12 85.7514 25.008 86.6154 25.008H89.0954V26.336H86.7594C86.0767 26.336 85.618 26.448 85.3834 26.672C85.1487 26.8853 85.0314 27.152 85.0314 27.472C85.0314 27.8347 85.1754 28.1227 85.4634 28.336C85.7514 28.5493 86.1514 28.656 86.6634 28.656C87.154 28.656 87.5914 28.544 87.9754 28.32C88.37 28.096 88.6527 27.7653 88.8234 27.328L89.1594 28.528C88.9674 29.0293 88.6207 29.4187 88.1194 29.696C87.6287 29.9733 87.0047 30.112 86.2474 30.112ZM93.3901 30V21.456H95.2941V23.808L95.0701 23.12C95.3261 22.544 95.7261 22.1067 96.2701 21.808C96.8248 21.5093 97.5128 21.36 98.3341 21.36V23.264C98.2488 23.2427 98.1688 23.232 98.0941 23.232C98.0195 23.2213 97.9448 23.216 97.8701 23.216C97.1128 23.216 96.5101 23.44 96.0621 23.888C95.6141 24.3253 95.3901 24.9813 95.3901 25.856V30H93.3901ZM103.559 30.112C102.621 30.112 101.895 29.872 101.383 29.392C100.871 28.9013 100.615 28.1813 100.615 27.232V19.568H102.615V27.184C102.615 27.5893 102.717 27.904 102.919 28.128C103.133 28.352 103.426 28.464 103.799 28.464C104.247 28.464 104.621 28.3467 104.919 28.112L105.479 29.536C105.245 29.728 104.957 29.872 104.615 29.968C104.274 30.064 103.922 30.112 103.559 30.112ZM99.2073 23.12V21.52H104.903V23.12H99.2073ZM110.859 30.112C109.91 30.112 109.078 29.9253 108.363 29.552C107.659 29.168 107.11 28.6453 106.715 27.984C106.331 27.3227 106.139 26.5707 106.139 25.728C106.139 24.8747 106.326 24.1227 106.699 23.472C107.083 22.8107 107.606 22.2933 108.267 21.92C108.939 21.5467 109.702 21.36 110.555 21.36C111.387 21.36 112.129 21.5413 112.779 21.904C113.43 22.2667 113.942 22.7787 114.315 23.44C114.689 24.1013 114.875 24.88 114.875 25.776C114.875 25.8613 114.87 25.9573 114.859 26.064C114.859 26.1707 114.854 26.272 114.843 26.368H107.723V25.04H113.787L113.003 25.456C113.014 24.9653 112.913 24.5333 112.699 24.16C112.486 23.7867 112.193 23.4933 111.819 23.28C111.457 23.0667 111.035 22.96 110.555 22.96C110.065 22.96 109.633 23.0667 109.259 23.28C108.897 23.4933 108.609 23.792 108.395 24.176C108.193 24.5493 108.091 24.992 108.091 25.504V25.824C108.091 26.336 108.209 26.7893 108.443 27.184C108.678 27.5787 109.009 27.8827 109.435 28.096C109.862 28.3093 110.353 28.416 110.907 28.416C111.387 28.416 111.819 28.3413 112.203 28.192C112.587 28.0427 112.929 27.808 113.227 27.488L114.299 28.72C113.915 29.168 113.43 29.5147 112.843 29.76C112.267 29.9947 111.606 30.112 110.859 30.112ZM120.412 30.112C119.591 30.112 118.85 29.9307 118.188 29.568C117.538 29.1947 117.026 28.6827 116.652 28.032C116.279 27.3813 116.092 26.6133 116.092 25.728C116.092 24.8427 116.279 24.0747 116.652 23.424C117.026 22.7733 117.538 22.2667 118.188 21.904C118.85 21.5413 119.591 21.36 120.412 21.36C121.127 21.36 121.767 21.52 122.332 21.84C122.898 22.1493 123.346 22.624 123.676 23.264C124.007 23.904 124.172 24.7253 124.172 25.728C124.172 26.72 124.012 27.5413 123.692 28.192C123.372 28.832 122.93 29.312 122.364 29.632C121.799 29.952 121.148 30.112 120.412 30.112ZM120.652 28.4C121.132 28.4 121.559 28.2933 121.932 28.08C122.316 27.8667 122.62 27.5573 122.844 27.152C123.079 26.7467 123.196 26.272 123.196 25.728C123.196 25.1733 123.079 24.6987 122.844 24.304C122.62 23.8987 122.316 23.5893 121.932 23.376C121.559 23.1627 121.132 23.056 120.652 23.056C120.172 23.056 119.74 23.1627 119.356 23.376C118.983 23.5893 118.679 23.8987 118.444 24.304C118.22 24.6987 118.108 25.1733 118.108 25.728C118.108 26.272 118.22 26.7467 118.444 27.152C118.679 27.5573 118.983 27.8667 119.356 28.08C119.74 28.2933 120.172 28.4 120.652 28.4ZM123.244 30V27.984L123.324 25.712L123.164 23.44V18.128H125.148V30H123.244ZM134.299 23.952H139.883V25.712H134.299V23.952ZM134.475 30H132.395V18.8H140.571V20.544H134.475V30ZM142.234 30V21.456H144.138V23.808L143.914 23.12C144.17 22.544 144.57 22.1067 145.114 21.808C145.669 21.5093 146.357 21.36 147.178 21.36V23.264C147.093 23.2427 147.013 23.232 146.938 23.232C146.863 23.2213 146.789 23.216 146.714 23.216C145.957 23.216 145.354 23.44 144.906 23.888C144.458 24.3253 144.234 24.9813 144.234 25.856V30H142.234ZM152.812 30.112C151.863 30.112 151.031 29.9253 150.316 29.552C149.612 29.168 149.063 28.6453 148.668 27.984C148.284 27.3227 148.092 26.5707 148.092 25.728C148.092 24.8747 148.279 24.1227 148.652 23.472C149.036 22.8107 149.559 22.2933 150.22 21.92C150.892 21.5467 151.655 21.36 152.508 21.36C153.34 21.36 154.082 21.5413 154.732 21.904C155.383 22.2667 155.895 22.7787 156.268 23.44C156.642 24.1013 156.828 24.88 156.828 25.776C156.828 25.8613 156.823 25.9573 156.812 26.064C156.812 26.1707 156.807 26.272 156.796 26.368H149.676V25.04H155.74L154.956 25.456C154.967 24.9653 154.866 24.5333 154.652 24.16C154.439 23.7867 154.146 23.4933 153.772 23.28C153.41 23.0667 152.988 22.96 152.508 22.96C152.018 22.96 151.586 23.0667 151.212 23.28C150.85 23.4933 150.562 23.792 150.348 24.176C150.146 24.5493 150.044 24.992 150.044 25.504V25.824C150.044 26.336 150.162 26.7893 150.396 27.184C150.631 27.5787 150.962 27.8827 151.388 28.096C151.815 28.3093 152.306 28.416 152.86 28.416C153.34 28.416 153.772 28.3413 154.156 28.192C154.54 28.0427 154.882 27.808 155.18 27.488L156.252 28.72C155.868 29.168 155.383 29.5147 154.796 29.76C154.22 29.9947 153.559 30.112 152.812 30.112ZM162.766 30.112C161.816 30.112 160.984 29.9253 160.27 29.552C159.566 29.168 159.016 28.6453 158.622 27.984C158.238 27.3227 158.046 26.5707 158.046 25.728C158.046 24.8747 158.232 24.1227 158.606 23.472C158.99 22.8107 159.512 22.2933 160.174 21.92C160.846 21.5467 161.608 21.36 162.462 21.36C163.294 21.36 164.035 21.5413 164.686 21.904C165.336 22.2667 165.848 22.7787 166.222 23.44C166.595 24.1013 166.782 24.88 166.782 25.776C166.782 25.8613 166.776 25.9573 166.766 26.064C166.766 26.1707 166.76 26.272 166.75 26.368H159.63V25.04H165.694L164.91 25.456C164.92 24.9653 164.819 24.5333 164.606 24.16C164.392 23.7867 164.099 23.4933 163.726 23.28C163.363 23.0667 162.942 22.96 162.462 22.96C161.971 22.96 161.539 23.0667 161.166 23.28C160.803 23.4933 160.515 23.792 160.302 24.176C160.099 24.5493 159.998 24.992 159.998 25.504V25.824C159.998 26.336 160.115 26.7893 160.35 27.184C160.584 27.5787 160.915 27.8827 161.342 28.096C161.768 28.3093 162.259 28.416 162.814 28.416C163.294 28.416 163.726 28.3413 164.11 28.192C164.494 28.0427 164.835 27.808 165.134 27.488L166.206 28.72C165.822 29.168 165.336 29.5147 164.75 29.76C164.174 29.9947 163.512 30.112 162.766 30.112Z" fill="#FCFCFC"/>
<rect x="212.5" y="0.5" width="224" height="47" rx="3.5" fill="#F0F0F0"/>
<rect x="212.5" y="0.5" width="224" height="47" rx="3.5" stroke="#B9B9B9"/>
<g clip-path="url(#clip0_5_139)">
<path d="M254.667 19.8334L248.833 24L254.667 28.1667V19.8334Z" stroke="#333333" stroke-width="2" stroke-linecap="round" stroke-linejoin="round"/>
<path d="M247.167 18.1667H238C237.08 18.1667 236.333 18.9129 236.333 19.8334V28.1667C236.333 29.0872 237.08 29.8334 238 29.8334H247.167C248.087 29.8334 248.833 29.0872 248.833 28.1667V19.8334C248.833 18.9129 248.087 18.1667 247.167 18.1667Z" stroke="#333333" stroke-width="2" stroke-linecap="round" stroke-linejoin="round"/>
</g>
<path d="M272.476 30.16C271.601 30.16 270.764 30.0373 269.964 29.792C269.164 29.536 268.529 29.2107 268.06 28.816L268.78 27.2C269.228 27.552 269.783 27.8453 270.444 28.08C271.105 28.3147 271.783 28.432 272.476 28.432C273.063 28.432 273.537 28.368 273.9 28.24C274.263 28.112 274.529 27.9413 274.7 27.728C274.871 27.504 274.956 27.2533 274.956 26.976C274.956 26.6347 274.833 26.3627 274.588 26.16C274.343 25.9467 274.023 25.7813 273.628 25.664C273.244 25.536 272.812 25.4187 272.332 25.312C271.863 25.2053 271.388 25.0827 270.908 24.944C270.439 24.7947 270.007 24.608 269.612 24.384C269.228 24.1493 268.913 23.84 268.668 23.456C268.423 23.072 268.3 22.5813 268.3 21.984C268.3 21.376 268.46 20.8213 268.78 20.32C269.111 19.808 269.607 19.4027 270.268 19.104C270.94 18.7947 271.788 18.64 272.812 18.64C273.484 18.64 274.151 18.7253 274.812 18.896C275.473 19.0667 276.049 19.312 276.54 19.632L275.884 21.248C275.383 20.9493 274.865 20.7307 274.332 20.592C273.799 20.4427 273.287 20.368 272.796 20.368C272.22 20.368 271.751 20.4373 271.388 20.576C271.036 20.7147 270.775 20.896 270.604 21.12C270.444 21.344 270.364 21.6 270.364 21.888C270.364 22.2293 270.481 22.5067 270.716 22.72C270.961 22.9227 271.276 23.0827 271.66 23.2C272.055 23.3173 272.492 23.4347 272.972 23.552C273.452 23.6587 273.927 23.7813 274.396 23.92C274.876 24.0587 275.308 24.24 275.692 24.464C276.087 24.688 276.401 24.992 276.636 25.376C276.881 25.76 277.004 26.2453 277.004 26.832C277.004 27.4293 276.839 27.984 276.508 28.496C276.188 28.9973 275.692 29.4027 275.02 29.712C274.348 30.0107 273.5 30.16 272.476 30.16ZM282.891 30.112C281.941 30.112 281.109 29.9253 280.395 29.552C279.691 29.168 279.141 28.6453 278.747 27.984C278.363 27.3227 278.171 26.5707 278.171 25.728C278.171 24.8747 278.357 24.1227 278.731 23.472C279.115 22.8107 279.637 22.2933 280.299 21.92C280.971 21.5467 281.733 21.36 282.587 21.36C283.419 21.36 284.16 21.5413 284.811 21.904C285.461 22.2667 285.973 22.7787 286.347 23.44C286.72 24.1013 286.907 24.88 286.907 25.776C286.907 25.8613 286.901 25.9573 286.891 26.064C286.891 26.1707 286.885 26.272 286.875 26.368H279.755V25.04H285.819L285.035 25.456C285.045 24.9653 284.944 24.5333 284.731 24.16C284.517 23.7867 284.224 23.4933 283.851 23.28C283.488 23.0667 283.067 22.96 282.587 22.96C282.096 22.96 281.664 23.0667 281.291 23.28C280.928 23.4933 280.64 23.792 280.427 24.176C280.224 24.5493 280.123 24.992 280.123 25.504V25.824C280.123 26.336 280.24 26.7893 280.475 27.184C280.709 27.5787 281.04 27.8827 281.467 28.096C281.893 28.3093 282.384 28.416 282.939 28.416C283.419 28.416 283.851 28.3413 284.235 28.192C284.619 28.0427 284.96 27.808 285.259 27.488L286.331 28.72C285.947 29.168 285.461 29.5147 284.875 29.76C284.299 29.9947 283.637 30.112 282.891 30.112ZM292.844 30.112C291.894 30.112 291.062 29.9253 290.348 29.552C289.644 29.168 289.094 28.6453 288.7 27.984C288.316 27.3227 288.124 26.5707 288.124 25.728C288.124 24.8747 288.31 24.1227 288.684 23.472C289.068 22.8107 289.59 22.2933 290.252 21.92C290.924 21.5467 291.686 21.36 292.54 21.36C293.372 21.36 294.113 21.5413 294.764 21.904C295.414 22.2667 295.926 22.7787 296.3 23.44C296.673 24.1013 296.86 24.88 296.86 25.776C296.86 25.8613 296.854 25.9573 296.844 26.064C296.844 26.1707 296.838 26.272 296.828 26.368H289.708V25.04H295.772L294.988 25.456C294.998 24.9653 294.897 24.5333 294.684 24.16C294.47 23.7867 294.177 23.4933 293.804 23.28C293.441 23.0667 293.02 22.96 292.54 22.96C292.049 22.96 291.617 23.0667 291.244 23.28C290.881 23.4933 290.593 23.792 290.38 24.176C290.177 24.5493 290.076 24.992 290.076 25.504V25.824C290.076 26.336 290.193 26.7893 290.428 27.184C290.662 27.5787 290.993 27.8827 291.42 28.096C291.846 28.3093 292.337 28.416 292.892 28.416C293.372 28.416 293.804 28.3413 294.188 28.192C294.572 28.0427 294.913 27.808 295.212 27.488L296.284 28.72C295.9 29.168 295.414 29.5147 294.828 29.76C294.252 29.9947 293.59 30.112 292.844 30.112ZM311.267 18.8H313.347V30H311.267V18.8ZM305.475 30H303.395V18.8H305.475V30ZM311.427 25.2H305.299V23.424H311.427V25.2ZM319.996 30.112C319.121 30.112 318.342 29.9253 317.66 29.552C316.977 29.168 316.438 28.6453 316.044 27.984C315.649 27.3227 315.452 26.5707 315.452 25.728C315.452 24.8747 315.649 24.1227 316.044 23.472C316.438 22.8107 316.977 22.2933 317.66 21.92C318.342 21.5467 319.121 21.36 319.996 21.36C320.881 21.36 321.665 21.5467 322.348 21.92C323.041 22.2933 323.58 22.8053 323.964 23.456C324.358 24.1067 324.556 24.864 324.556 25.728C324.556 26.5707 324.358 27.3227 323.964 27.984C323.58 28.6453 323.041 29.168 322.348 29.552C321.665 29.9253 320.881 30.112 319.996 30.112ZM319.996 28.4C320.486 28.4 320.924 28.2933 321.308 28.08C321.692 27.8667 321.99 27.5573 322.204 27.152C322.428 26.7467 322.54 26.272 322.54 25.728C322.54 25.1733 322.428 24.6987 322.204 24.304C321.99 23.8987 321.692 23.5893 321.308 23.376C320.924 23.1627 320.492 23.056 320.012 23.056C319.521 23.056 319.084 23.1627 318.7 23.376C318.326 23.5893 318.028 23.8987 317.804 24.304C317.58 24.6987 317.468 25.1733 317.468 25.728C317.468 26.272 317.58 26.7467 317.804 27.152C318.028 27.5573 318.326 27.8667 318.7 28.08C319.084 28.2933 319.516 28.4 319.996 28.4ZM328.122 30L324.986 21.456H326.874L329.562 28.992H328.666L331.482 21.456H333.162L335.898 28.992H335.018L337.786 21.456H339.562L336.41 30H334.49L331.994 23.328H332.586L330.042 30H328.122ZM345.551 30V18.8H347.631V30H345.551ZM353.684 30.112C352.746 30.112 352.02 29.872 351.508 29.392C350.996 28.9013 350.74 28.1813 350.74 27.232V19.568H352.74V27.184C352.74 27.5893 352.842 27.904 353.044 28.128C353.258 28.352 353.551 28.464 353.924 28.464C354.372 28.464 354.746 28.3467 355.044 28.112L355.604 29.536C355.37 29.728 355.082 29.872 354.74 29.968C354.399 30.064 354.047 30.112 353.684 30.112ZM349.332 23.12V21.52H355.028V23.12H349.332ZM364.503 30L360.791 18.8H362.951L366.263 28.928H365.191L368.631 18.8H370.551L373.895 28.928H372.855L376.247 18.8H378.231L374.519 30H372.311L369.255 20.864H369.831L366.727 30H364.503ZM382.933 30.112C382.059 30.112 381.28 29.9253 380.597 29.552C379.915 29.168 379.376 28.6453 378.981 27.984C378.587 27.3227 378.389 26.5707 378.389 25.728C378.389 24.8747 378.587 24.1227 378.981 23.472C379.376 22.8107 379.915 22.2933 380.597 21.92C381.28 21.5467 382.059 21.36 382.933 21.36C383.819 21.36 384.603 21.5467 385.285 21.92C385.979 22.2933 386.517 22.8053 386.901 23.456C387.296 24.1067 387.493 24.864 387.493 25.728C387.493 26.5707 387.296 27.3227 386.901 27.984C386.517 28.6453 385.979 29.168 385.285 29.552C384.603 29.9253 383.819 30.112 382.933 30.112ZM382.933 28.4C383.424 28.4 383.861 28.2933 384.245 28.08C384.629 27.8667 384.928 27.5573 385.141 27.152C385.365 26.7467 385.477 26.272 385.477 25.728C385.477 25.1733 385.365 24.6987 385.141 24.304C384.928 23.8987 384.629 23.5893 384.245 23.376C383.861 23.1627 383.429 23.056 382.949 23.056C382.459 23.056 382.021 23.1627 381.637 23.376C381.264 23.5893 380.965 23.8987 380.741 24.304C380.517 24.6987 380.405 25.1733 380.405 25.728C380.405 26.272 380.517 26.7467 380.741 27.152C380.965 27.5573 381.264 27.8667 381.637 28.08C382.021 28.2933 382.453 28.4 382.933 28.4ZM389.406 30V21.456H391.31V23.808L391.086 23.12C391.342 22.544 391.742 22.1067 392.286 21.808C392.84 21.5093 393.528 21.36 394.35 21.36V23.264C394.264 23.2427 394.184 23.232 394.11 23.232C394.035 23.2213 393.96 23.216 393.886 23.216C393.128 23.216 392.526 23.44 392.078 23.888C391.63 24.3253 391.406 24.9813 391.406 25.856V30H389.406ZM397.678 28.096L397.726 25.584L402.19 21.456H404.59L400.798 25.264L399.742 26.144L397.678 28.096ZM396.046 30V18.128H398.046V30H396.046ZM402.494 30L399.374 26.144L400.638 24.544L404.926 30H402.494ZM408.593 30.112C407.878 30.112 407.19 30.0213 406.529 29.84C405.878 29.648 405.361 29.4187 404.977 29.152L405.745 27.632C406.129 27.8773 406.587 28.08 407.121 28.24C407.654 28.4 408.187 28.48 408.721 28.48C409.35 28.48 409.803 28.3947 410.081 28.224C410.369 28.0533 410.513 27.824 410.513 27.536C410.513 27.3013 410.417 27.1253 410.225 27.008C410.033 26.88 409.782 26.784 409.473 26.72C409.163 26.656 408.817 26.5973 408.433 26.544C408.059 26.4907 407.681 26.4213 407.297 26.336C406.923 26.24 406.582 26.1067 406.273 25.936C405.963 25.7547 405.713 25.5147 405.521 25.216C405.329 24.9173 405.233 24.5227 405.233 24.032C405.233 23.488 405.387 23.0187 405.697 22.624C406.006 22.2187 406.438 21.9093 406.993 21.696C407.558 21.472 408.225 21.36 408.993 21.36C409.569 21.36 410.15 21.424 410.737 21.552C411.323 21.68 411.809 21.8613 412.193 22.096L411.425 23.616C411.019 23.3707 410.609 23.2053 410.193 23.12C409.787 23.024 409.382 22.976 408.977 22.976C408.369 22.976 407.915 23.0667 407.617 23.248C407.329 23.4293 407.185 23.6587 407.185 23.936C407.185 24.192 407.281 24.384 407.473 24.512C407.665 24.64 407.915 24.7413 408.225 24.816C408.534 24.8907 408.875 24.9547 409.249 25.008C409.633 25.0507 410.011 25.12 410.385 25.216C410.758 25.312 411.099 25.4453 411.409 25.616C411.729 25.776 411.985 26.0053 412.177 26.304C412.369 26.6027 412.465 26.992 412.465 27.472C412.465 28.0053 412.305 28.4693 411.985 28.864C411.675 29.2587 411.233 29.568 410.657 29.792C410.081 30.0053 409.393 30.112 408.593 30.112Z" fill="#333333"/>
<defs>
<clipPath id="clip0_5_139">
<rect width="20" height="20" fill="white" transform="translate(235.5 14)"/>
</clipPath>
</defs>
</svg>
