<svg width="1139" height="72" viewBox="0 0 1139 72" fill="none" xmlns="http://www.w3.org/2000/svg">
<path d="M7.42399 24.704V5.82401H-5.97537e-06V2.30401H19.008V5.82401H11.584V24.704H7.42399ZM31.442 7.42401C32.8073 7.42401 34.0233 7.69068 35.09 8.22401C36.178 8.75734 37.0313 9.57868 37.65 10.688C38.2687 11.776 38.578 13.184 38.578 14.912V24.704H34.578V15.424C34.578 13.9093 34.2153 12.7787 33.49 12.032C32.786 11.2853 31.794 10.912 30.514 10.912C29.5753 10.912 28.7433 11.104 28.018 11.488C27.2927 11.872 26.7273 12.448 26.322 13.216C25.938 13.9627 25.746 14.912 25.746 16.064V24.704H21.746V0.960009H25.746V12.224L24.882 10.816C25.4793 9.72801 26.3433 8.89601 27.474 8.32001C28.626 7.72268 29.9487 7.42401 31.442 7.42401ZM51.7155 24.928C49.8168 24.928 48.1528 24.5547 46.7235 23.808C45.3155 23.04 44.2168 21.9947 43.4275 20.672C42.6595 19.3493 42.2755 17.8453 42.2755 16.16C42.2755 14.4533 42.6488 12.9493 43.3955 11.648C44.1635 10.3253 45.2088 9.29068 46.5315 8.54401C47.8755 7.79734 49.4008 7.42401 51.1075 7.42401C52.7715 7.42401 54.2542 7.78668 55.5555 8.51201C56.8568 9.23734 57.8808 10.2613 58.6275 11.584C59.3742 12.9067 59.7475 14.464 59.7475 16.256C59.7475 16.4267 59.7368 16.6187 59.7155 16.832C59.7155 17.0453 59.7048 17.248 59.6835 17.44H45.4435V14.784H57.5715L56.0035 15.616C56.0248 14.6347 55.8222 13.7707 55.3955 13.024C54.9688 12.2773 54.3822 11.6907 53.6355 11.264C52.9102 10.8373 52.0675 10.624 51.1075 10.624C50.1262 10.624 49.2622 10.8373 48.5155 11.264C47.7902 11.6907 47.2142 12.288 46.7875 13.056C46.3822 13.8027 46.1795 14.688 46.1795 15.712V16.352C46.1795 17.376 46.4142 18.2827 46.8835 19.072C47.3528 19.8613 48.0142 20.4693 48.8675 20.896C49.7208 21.3227 50.7022 21.536 51.8115 21.536C52.7715 21.536 53.6355 21.3867 54.4035 21.088C55.1715 20.7893 55.8542 20.32 56.4515 19.68L58.5955 22.144C57.8275 23.04 56.8568 23.7333 55.6835 24.224C54.5315 24.6933 53.2088 24.928 51.7155 24.928ZM80.2735 24.928C78.4815 24.928 76.8815 24.5547 75.4735 23.808C74.0868 23.04 72.9988 21.9947 72.2095 20.672C71.4202 19.3493 71.0255 17.8453 71.0255 16.16C71.0255 14.4533 71.4202 12.9493 72.2095 11.648C72.9988 10.3253 74.0868 9.29068 75.4735 8.54401C76.8815 7.79734 78.4815 7.42401 80.2735 7.42401C81.9375 7.42401 83.3988 7.76534 84.6575 8.44801C85.9375 9.10934 86.9082 10.0907 87.5695 11.392L84.4975 13.184C83.9855 12.3733 83.3562 11.776 82.6095 11.392C81.8842 11.008 81.0948 10.816 80.2415 10.816C79.2602 10.816 78.3748 11.0293 77.5855 11.456C76.7962 11.8827 76.1775 12.5013 75.7295 13.312C75.2815 14.1013 75.0575 15.0507 75.0575 16.16C75.0575 17.2693 75.2815 18.2293 75.7295 19.04C76.1775 19.8293 76.7962 20.4373 77.5855 20.864C78.3748 21.2907 79.2602 21.504 80.2415 21.504C81.0948 21.504 81.8842 21.312 82.6095 20.928C83.3562 20.544 83.9855 19.9467 84.4975 19.136L87.5695 20.928C86.9082 22.208 85.9375 23.2 84.6575 23.904C83.3988 24.5867 81.9375 24.928 80.2735 24.928ZM98.4572 24.928C96.7079 24.928 95.1506 24.5547 93.7852 23.808C92.4199 23.04 91.3426 21.9947 90.5532 20.672C89.7639 19.3493 89.3692 17.8453 89.3692 16.16C89.3692 14.4533 89.7639 12.9493 90.5532 11.648C91.3426 10.3253 92.4199 9.29068 93.7852 8.54401C95.1506 7.79734 96.7079 7.42401 98.4572 7.42401C100.228 7.42401 101.796 7.79734 103.161 8.54401C104.548 9.29068 105.625 10.3147 106.393 11.616C107.183 12.9173 107.577 14.432 107.577 16.16C107.577 17.8453 107.183 19.3493 106.393 20.672C105.625 21.9947 104.548 23.04 103.161 23.808C101.796 24.5547 100.228 24.928 98.4572 24.928ZM98.4572 21.504C99.4386 21.504 100.313 21.2907 101.081 20.864C101.849 20.4373 102.447 19.8187 102.873 19.008C103.321 18.1973 103.545 17.248 103.545 16.16C103.545 15.0507 103.321 14.1013 102.873 13.312C102.447 12.5013 101.849 11.8827 101.081 11.456C100.313 11.0293 99.4492 10.816 98.4892 10.816C97.5079 10.816 96.6332 11.0293 95.8652 11.456C95.1186 11.8827 94.5212 12.5013 94.0732 13.312C93.6252 14.1013 93.4012 15.0507 93.4012 16.16C93.4012 17.248 93.6252 18.1973 94.0732 19.008C94.5212 19.8187 95.1186 20.4373 95.8652 20.864C96.6332 21.2907 97.4972 21.504 98.4572 21.504ZM132.97 7.42401C134.336 7.42401 135.541 7.69068 136.586 8.22401C137.653 8.75734 138.485 9.57868 139.082 10.688C139.68 11.776 139.978 13.184 139.978 14.912V24.704H135.978V15.424C135.978 13.9093 135.648 12.7787 134.986 12.032C134.325 11.2853 133.376 10.912 132.138 10.912C131.264 10.912 130.485 11.104 129.802 11.488C129.141 11.872 128.618 12.4373 128.234 13.184C127.872 13.9307 127.69 14.88 127.69 16.032V24.704H123.69V15.424C123.69 13.9093 123.36 12.7787 122.698 12.032C122.037 11.2853 121.088 10.912 119.85 10.912C118.976 10.912 118.197 11.104 117.514 11.488C116.853 11.872 116.33 12.4373 115.946 13.184C115.584 13.9307 115.402 14.88 115.402 16.032V24.704H111.402V7.61601H115.21V12.16L114.538 10.816C115.114 9.70668 115.946 8.86401 117.034 8.28801C118.144 7.71201 119.402 7.42401 120.81 7.42401C122.41 7.42401 123.797 7.81868 124.97 8.60801C126.165 9.39734 126.954 10.592 127.338 12.192L125.77 11.648C126.325 10.368 127.242 9.34401 128.522 8.57601C129.802 7.80801 131.285 7.42401 132.97 7.42401ZM154.562 24.928C153.175 24.928 151.906 24.608 150.754 23.968C149.623 23.328 148.716 22.368 148.034 21.088C147.372 19.7867 147.042 18.144 147.042 16.16C147.042 14.1547 147.362 12.512 148.002 11.232C148.663 9.95201 149.559 9.00268 150.69 8.38401C151.82 7.74401 153.111 7.42401 154.562 7.42401C156.247 7.42401 157.73 7.78668 159.01 8.51201C160.311 9.23734 161.335 10.2507 162.082 11.552C162.85 12.8533 163.234 14.3893 163.234 16.16C163.234 17.9307 162.85 19.4773 162.082 20.8C161.335 22.1013 160.311 23.1147 159.01 23.84C157.73 24.5653 156.247 24.928 154.562 24.928ZM145.09 30.912V7.61601H148.898V11.648L148.77 16.192L149.09 20.736V30.912H145.09ZM154.114 21.504C155.074 21.504 155.927 21.2907 156.674 20.864C157.442 20.4373 158.05 19.8187 158.498 19.008C158.946 18.1973 159.17 17.248 159.17 16.16C159.17 15.0507 158.946 14.1013 158.498 13.312C158.05 12.5013 157.442 11.8827 156.674 11.456C155.927 11.0293 155.074 10.816 154.114 10.816C153.154 10.816 152.29 11.0293 151.522 11.456C150.754 11.8827 150.146 12.5013 149.698 13.312C149.25 14.1013 149.026 15.0507 149.026 16.16C149.026 17.248 149.25 18.1973 149.698 19.008C150.146 19.8187 150.754 20.4373 151.522 20.864C152.29 21.2907 153.154 21.504 154.114 21.504ZM167.027 24.704V0.960009H171.027V24.704H167.027ZM184.309 24.928C182.411 24.928 180.747 24.5547 179.317 23.808C177.909 23.04 176.811 21.9947 176.021 20.672C175.253 19.3493 174.869 17.8453 174.869 16.16C174.869 14.4533 175.243 12.9493 175.989 11.648C176.757 10.3253 177.803 9.29068 179.125 8.54401C180.469 7.79734 181.995 7.42401 183.701 7.42401C185.365 7.42401 186.848 7.78668 188.149 8.51201C189.451 9.23734 190.475 10.2613 191.221 11.584C191.968 12.9067 192.341 14.464 192.341 16.256C192.341 16.4267 192.331 16.6187 192.309 16.832C192.309 17.0453 192.299 17.248 192.277 17.44H178.037V14.784H190.165L188.597 15.616C188.619 14.6347 188.416 13.7707 187.989 13.024C187.563 12.2773 186.976 11.6907 186.229 11.264C185.504 10.8373 184.661 10.624 183.701 10.624C182.72 10.624 181.856 10.8373 181.109 11.264C180.384 11.6907 179.808 12.288 179.381 13.056C178.976 13.8027 178.773 14.688 178.773 15.712V16.352C178.773 17.376 179.008 18.2827 179.477 19.072C179.947 19.8613 180.608 20.4693 181.461 20.896C182.315 21.3227 183.296 21.536 184.405 21.536C185.365 21.536 186.229 21.3867 186.997 21.088C187.765 20.7893 188.448 20.32 189.045 19.68L191.189 22.144C190.421 23.04 189.451 23.7333 188.277 24.224C187.125 24.6933 185.803 24.928 184.309 24.928ZM202.615 24.928C200.738 24.928 199.287 24.448 198.263 23.488C197.239 22.5067 196.727 21.0667 196.727 19.168V3.84001H200.727V19.072C200.727 19.8827 200.93 20.512 201.335 20.96C201.762 21.408 202.349 21.632 203.095 21.632C203.991 21.632 204.738 21.3973 205.335 20.928L206.455 23.776C205.986 24.16 205.41 24.448 204.727 24.64C204.045 24.832 203.341 24.928 202.615 24.928ZM193.911 10.944V7.74401H205.303V10.944H193.911ZM217.215 24.928C215.317 24.928 213.653 24.5547 212.223 23.808C210.815 23.04 209.717 21.9947 208.927 20.672C208.159 19.3493 207.775 17.8453 207.775 16.16C207.775 14.4533 208.149 12.9493 208.895 11.648C209.663 10.3253 210.709 9.29068 212.031 8.54401C213.375 7.79734 214.901 7.42401 216.607 7.42401C218.271 7.42401 219.754 7.78668 221.055 8.51201C222.357 9.23734 223.381 10.2613 224.127 11.584C224.874 12.9067 225.247 14.464 225.247 16.256C225.247 16.4267 225.237 16.6187 225.215 16.832C225.215 17.0453 225.205 17.248 225.183 17.44H210.943V14.784H223.071L221.503 15.616C221.525 14.6347 221.322 13.7707 220.895 13.024C220.469 12.2773 219.882 11.6907 219.135 11.264C218.41 10.8373 217.567 10.624 216.607 10.624C215.626 10.624 214.762 10.8373 214.015 11.264C213.29 11.6907 212.714 12.288 212.287 13.056C211.882 13.8027 211.679 14.688 211.679 15.712V16.352C211.679 17.376 211.914 18.2827 212.383 19.072C212.853 19.8613 213.514 20.4693 214.367 20.896C215.221 21.3227 216.202 21.536 217.311 21.536C218.271 21.536 219.135 21.3867 219.903 21.088C220.671 20.7893 221.354 20.32 221.951 19.68L224.095 22.144C223.327 23.04 222.357 23.7333 221.183 24.224C220.031 24.6933 218.709 24.928 217.215 24.928ZM243.213 24.928C241.784 24.928 240.408 24.7467 239.085 24.384C237.784 24 236.749 23.5413 235.981 23.008L237.517 19.968C238.285 20.4587 239.203 20.864 240.269 21.184C241.336 21.504 242.403 21.664 243.469 21.664C244.728 21.664 245.635 21.4933 246.189 21.152C246.765 20.8107 247.053 20.352 247.053 19.776C247.053 19.3067 246.861 18.9547 246.477 18.72C246.093 18.464 245.592 18.272 244.973 18.144C244.355 18.016 243.661 17.8987 242.893 17.792C242.147 17.6853 241.389 17.5467 240.621 17.376C239.875 17.184 239.192 16.9173 238.573 16.576C237.955 16.2133 237.453 15.7333 237.069 15.136C236.685 14.5387 236.493 13.7493 236.493 12.768C236.493 11.68 236.803 10.7413 237.421 9.95201C238.04 9.14134 238.904 8.52268 240.013 8.09601C241.144 7.64801 242.477 7.42401 244.013 7.42401C245.165 7.42401 246.328 7.55201 247.501 7.80801C248.675 8.06401 249.645 8.42668 250.413 8.89601L248.877 11.936C248.067 11.4453 247.245 11.1147 246.413 10.944C245.603 10.752 244.792 10.656 243.981 10.656C242.765 10.656 241.859 10.8373 241.261 11.2C240.685 11.5627 240.397 12.0213 240.397 12.576C240.397 13.088 240.589 13.472 240.973 13.728C241.357 13.984 241.859 14.1867 242.477 14.336C243.096 14.4853 243.779 14.6133 244.525 14.72C245.293 14.8053 246.051 14.944 246.797 15.136C247.544 15.328 248.227 15.5947 248.845 15.936C249.485 16.256 249.997 16.7147 250.381 17.312C250.765 17.9093 250.957 18.688 250.957 19.648C250.957 20.7147 250.637 21.6427 249.997 22.432C249.379 23.2213 248.493 23.84 247.341 24.288C246.189 24.7147 244.813 24.928 243.213 24.928ZM260.834 24.928C258.957 24.928 257.506 24.448 256.482 23.488C255.458 22.5067 254.946 21.0667 254.946 19.168V3.84001H258.946V19.072C258.946 19.8827 259.149 20.512 259.554 20.96C259.981 21.408 260.568 21.632 261.314 21.632C262.21 21.632 262.957 21.3973 263.554 20.928L264.674 23.776C264.205 24.16 263.629 24.448 262.946 24.64C262.264 24.832 261.56 24.928 260.834 24.928ZM252.13 10.944V7.74401H263.522V10.944H252.13ZM275.082 24.928C273.333 24.928 271.776 24.5547 270.41 23.808C269.045 23.04 267.968 21.9947 267.178 20.672C266.389 19.3493 265.994 17.8453 265.994 16.16C265.994 14.4533 266.389 12.9493 267.178 11.648C267.968 10.3253 269.045 9.29068 270.41 8.54401C271.776 7.79734 273.333 7.42401 275.082 7.42401C276.853 7.42401 278.421 7.79734 279.786 8.54401C281.173 9.29068 282.25 10.3147 283.018 11.616C283.808 12.9173 284.202 14.432 284.202 16.16C284.202 17.8453 283.808 19.3493 283.018 20.672C282.25 21.9947 281.173 23.04 279.786 23.808C278.421 24.5547 276.853 24.928 275.082 24.928ZM275.082 21.504C276.064 21.504 276.938 21.2907 277.706 20.864C278.474 20.4373 279.072 19.8187 279.498 19.008C279.946 18.1973 280.17 17.248 280.17 16.16C280.17 15.0507 279.946 14.1013 279.498 13.312C279.072 12.5013 278.474 11.8827 277.706 11.456C276.938 11.0293 276.074 10.816 275.114 10.816C274.133 10.816 273.258 11.0293 272.49 11.456C271.744 11.8827 271.146 12.5013 270.698 13.312C270.25 14.1013 270.026 15.0507 270.026 16.16C270.026 17.248 270.25 18.1973 270.698 19.008C271.146 19.8187 271.744 20.4373 272.49 20.864C273.258 21.2907 274.122 21.504 275.082 21.504ZM295.867 24.928C294.075 24.928 292.475 24.5547 291.067 23.808C289.681 23.04 288.593 21.9947 287.803 20.672C287.014 19.3493 286.619 17.8453 286.619 16.16C286.619 14.4533 287.014 12.9493 287.803 11.648C288.593 10.3253 289.681 9.29068 291.067 8.54401C292.475 7.79734 294.075 7.42401 295.867 7.42401C297.531 7.42401 298.993 7.76534 300.251 8.44801C301.531 9.10934 302.502 10.0907 303.163 11.392L300.091 13.184C299.579 12.3733 298.95 11.776 298.203 11.392C297.478 11.008 296.689 10.816 295.835 10.816C294.854 10.816 293.969 11.0293 293.179 11.456C292.39 11.8827 291.771 12.5013 291.323 13.312C290.875 14.1013 290.651 15.0507 290.651 16.16C290.651 17.2693 290.875 18.2293 291.323 19.04C291.771 19.8293 292.39 20.4373 293.179 20.864C293.969 21.2907 294.854 21.504 295.835 21.504C296.689 21.504 297.478 21.312 298.203 20.928C298.95 20.544 299.579 19.9467 300.091 19.136L303.163 20.928C302.502 22.208 301.531 23.2 300.251 23.904C298.993 24.5867 297.531 24.928 295.867 24.928ZM309.729 20.896L309.825 15.872L318.753 7.61601H323.553L315.969 15.232L313.857 16.992L309.729 20.896ZM306.465 24.704V0.960009H310.465V24.704H306.465ZM319.361 24.704L313.121 16.992L315.649 13.792L324.225 24.704H319.361ZM357.22 7.42401C358.586 7.42401 359.791 7.69068 360.836 8.22401C361.903 8.75734 362.735 9.57868 363.332 10.688C363.93 11.776 364.228 13.184 364.228 14.912V24.704H360.228V15.424C360.228 13.9093 359.898 12.7787 359.236 12.032C358.575 11.2853 357.626 10.912 356.388 10.912C355.514 10.912 354.735 11.104 354.052 11.488C353.391 11.872 352.868 12.4373 352.484 13.184C352.122 13.9307 351.94 14.88 351.94 16.032V24.704H347.94V15.424C347.94 13.9093 347.61 12.7787 346.948 12.032C346.287 11.2853 345.338 10.912 344.1 10.912C343.226 10.912 342.447 11.104 341.764 11.488C341.103 11.872 340.58 12.4373 340.196 13.184C339.834 13.9307 339.652 14.88 339.652 16.032V24.704H335.652V7.61601H339.46V12.16L338.788 10.816C339.364 9.70668 340.196 8.86401 341.284 8.28801C342.394 7.71201 343.652 7.42401 345.06 7.42401C346.66 7.42401 348.047 7.81868 349.22 8.60801C350.415 9.39734 351.204 10.592 351.588 12.192L350.02 11.648C350.575 10.368 351.492 9.34401 352.772 8.57601C354.052 7.80801 355.535 7.42401 357.22 7.42401ZM379.868 24.704V21.248L379.644 20.512V14.464C379.644 13.2907 379.292 12.384 378.588 11.744C377.884 11.0827 376.817 10.752 375.388 10.752C374.428 10.752 373.478 10.9013 372.54 11.2C371.622 11.4987 370.844 11.9147 370.204 12.448L368.636 9.53601C369.553 8.83201 370.641 8.30934 371.9 7.96801C373.18 7.60534 374.502 7.42401 375.868 7.42401C378.342 7.42401 380.252 8.02134 381.596 9.21601C382.961 10.3893 383.644 12.2133 383.644 14.688V24.704H379.868ZM374.492 24.928C373.212 24.928 372.092 24.7147 371.132 24.288C370.172 23.84 369.425 23.232 368.892 22.464C368.38 21.6747 368.124 20.7893 368.124 19.808C368.124 18.848 368.348 17.984 368.796 17.216C369.265 16.448 370.022 15.84 371.068 15.392C372.113 14.944 373.5 14.72 375.228 14.72H380.188V17.376H375.516C374.15 17.376 373.233 17.6 372.764 18.048C372.294 18.4747 372.06 19.008 372.06 19.648C372.06 20.3733 372.348 20.9493 372.924 21.376C373.5 21.8027 374.3 22.016 375.324 22.016C376.305 22.016 377.18 21.792 377.948 21.344C378.737 20.896 379.302 20.2347 379.644 19.36L380.316 21.76C379.932 22.7627 379.238 23.5413 378.236 24.096C377.254 24.6507 376.006 24.928 374.492 24.928ZM398.473 7.42401C399.839 7.42401 401.055 7.69068 402.121 8.22401C403.209 8.75734 404.063 9.57868 404.681 10.688C405.3 11.776 405.609 13.184 405.609 14.912V24.704H401.609V15.424C401.609 13.9093 401.247 12.7787 400.521 12.032C399.817 11.2853 398.825 10.912 397.545 10.912C396.607 10.912 395.775 11.104 395.049 11.488C394.324 11.872 393.759 12.448 393.353 13.216C392.969 13.9627 392.777 14.912 392.777 16.064V24.704H388.777V7.61601H392.585V12.224L391.913 10.816C392.511 9.72801 393.375 8.89601 394.505 8.32001C395.657 7.72268 396.98 7.42401 398.473 7.42401ZM421.211 24.704V21.248L420.987 20.512V14.464C420.987 13.2907 420.635 12.384 419.931 11.744C419.227 11.0827 418.161 10.752 416.731 10.752C415.771 10.752 414.822 10.9013 413.883 11.2C412.966 11.4987 412.187 11.9147 411.547 12.448L409.979 9.53601C410.897 8.83201 411.985 8.30934 413.243 7.96801C414.523 7.60534 415.846 7.42401 417.211 7.42401C419.686 7.42401 421.595 8.02134 422.939 9.21601C424.305 10.3893 424.987 12.2133 424.987 14.688V24.704H421.211ZM415.835 24.928C414.555 24.928 413.435 24.7147 412.475 24.288C411.515 23.84 410.769 23.232 410.235 22.464C409.723 21.6747 409.467 20.7893 409.467 19.808C409.467 18.848 409.691 17.984 410.139 17.216C410.609 16.448 411.366 15.84 412.411 15.392C413.457 14.944 414.843 14.72 416.571 14.72H421.531V17.376H416.859C415.494 17.376 414.577 17.6 414.107 18.048C413.638 18.4747 413.403 19.008 413.403 19.648C413.403 20.3733 413.691 20.9493 414.267 21.376C414.843 21.8027 415.643 22.016 416.667 22.016C417.649 22.016 418.523 21.792 419.291 21.344C420.081 20.896 420.646 20.2347 420.987 19.36L421.659 21.76C421.275 22.7627 420.582 23.5413 419.579 24.096C418.598 24.6507 417.35 24.928 415.835 24.928ZM437.896 31.136C436.318 31.136 434.771 30.9227 433.256 30.496C431.763 30.0907 430.536 29.4933 429.576 28.704L431.368 25.696C432.115 26.3147 433.054 26.8053 434.184 27.168C435.336 27.552 436.499 27.744 437.672 27.744C439.55 27.744 440.926 27.3067 441.8 26.432C442.675 25.5787 443.112 24.288 443.112 22.56V19.52L443.432 15.648L443.304 11.776V7.61601H447.112V22.112C447.112 25.2053 446.323 27.4773 444.744 28.928C443.166 30.4 440.883 31.136 437.896 31.136ZM437.384 23.936C435.763 23.936 434.291 23.5947 432.968 22.912C431.667 22.208 430.632 21.2373 429.864 20C429.118 18.7627 428.744 17.312 428.744 15.648C428.744 14.0053 429.118 12.5653 429.864 11.328C430.632 10.0907 431.667 9.13068 432.968 8.44801C434.291 7.76534 435.763 7.42401 437.384 7.42401C438.835 7.42401 440.136 7.71201 441.288 8.28801C442.44 8.86401 443.358 9.76001 444.04 10.976C444.744 12.192 445.096 13.7493 445.096 15.648C445.096 17.5467 444.744 19.1147 444.04 20.352C443.358 21.568 442.44 22.4747 441.288 23.072C440.136 23.648 438.835 23.936 437.384 23.936ZM437.992 20.544C438.995 20.544 439.891 20.3413 440.68 19.936C441.47 19.5093 442.078 18.9333 442.504 18.208C442.952 17.4613 443.176 16.608 443.176 15.648C443.176 14.688 442.952 13.8453 442.504 13.12C442.078 12.3733 441.47 11.808 440.68 11.424C439.891 11.0187 438.995 10.816 437.992 10.816C436.99 10.816 436.083 11.0187 435.272 11.424C434.483 11.808 433.864 12.3733 433.416 13.12C432.99 13.8453 432.776 14.688 432.776 15.648C432.776 16.608 432.99 17.4613 433.416 18.208C433.864 18.9333 434.483 19.5093 435.272 19.936C436.083 20.3413 436.99 20.544 437.992 20.544ZM460.403 24.928C458.504 24.928 456.84 24.5547 455.411 23.808C454.003 23.04 452.904 21.9947 452.115 20.672C451.347 19.3493 450.963 17.8453 450.963 16.16C450.963 14.4533 451.336 12.9493 452.083 11.648C452.851 10.3253 453.896 9.29068 455.219 8.54401C456.563 7.79734 458.088 7.42401 459.795 7.42401C461.459 7.42401 462.942 7.78668 464.243 8.51201C465.544 9.23734 466.568 10.2613 467.315 11.584C468.062 12.9067 468.435 14.464 468.435 16.256C468.435 16.4267 468.424 16.6187 468.403 16.832C468.403 17.0453 468.392 17.248 468.371 17.44H454.131V14.784H466.259L464.691 15.616C464.712 14.6347 464.51 13.7707 464.083 13.024C463.656 12.2773 463.07 11.6907 462.323 11.264C461.598 10.8373 460.755 10.624 459.795 10.624C458.814 10.624 457.95 10.8373 457.203 11.264C456.478 11.6907 455.902 12.288 455.475 13.056C455.07 13.8027 454.867 14.688 454.867 15.712V16.352C454.867 17.376 455.102 18.2827 455.571 19.072C456.04 19.8613 456.702 20.4693 457.555 20.896C458.408 21.3227 459.39 21.536 460.499 21.536C461.459 21.536 462.323 21.3867 463.091 21.088C463.859 20.7893 464.542 20.32 465.139 19.68L467.283 22.144C466.515 23.04 465.544 23.7333 464.371 24.224C463.219 24.6933 461.896 24.928 460.403 24.928ZM493.845 7.42401C495.211 7.42401 496.416 7.69068 497.461 8.22401C498.528 8.75734 499.36 9.57868 499.957 10.688C500.555 11.776 500.853 13.184 500.853 14.912V24.704H496.853V15.424C496.853 13.9093 496.523 12.7787 495.861 12.032C495.2 11.2853 494.251 10.912 493.013 10.912C492.139 10.912 491.36 11.104 490.677 11.488C490.016 11.872 489.493 12.4373 489.109 13.184C488.747 13.9307 488.565 14.88 488.565 16.032V24.704H484.565V15.424C484.565 13.9093 484.235 12.7787 483.573 12.032C482.912 11.2853 481.963 10.912 480.725 10.912C479.851 10.912 479.072 11.104 478.389 11.488C477.728 11.872 477.205 12.4373 476.821 13.184C476.459 13.9307 476.277 14.88 476.277 16.032V24.704H472.277V7.61601H476.085V12.16L475.413 10.816C475.989 9.70668 476.821 8.86401 477.909 8.28801C479.019 7.71201 480.277 7.42401 481.685 7.42401C483.285 7.42401 484.672 7.81868 485.845 8.60801C487.04 9.39734 487.829 10.592 488.213 12.192L486.645 11.648C487.2 10.368 488.117 9.34401 489.397 8.57601C490.677 7.80801 492.16 7.42401 493.845 7.42401ZM514.028 24.928C512.129 24.928 510.465 24.5547 509.036 23.808C507.628 23.04 506.529 21.9947 505.74 20.672C504.972 19.3493 504.588 17.8453 504.588 16.16C504.588 14.4533 504.961 12.9493 505.708 11.648C506.476 10.3253 507.521 9.29068 508.844 8.54401C510.188 7.79734 511.713 7.42401 513.42 7.42401C515.084 7.42401 516.567 7.78668 517.868 8.51201C519.169 9.23734 520.193 10.2613 520.94 11.584C521.687 12.9067 522.06 14.464 522.06 16.256C522.06 16.4267 522.049 16.6187 522.028 16.832C522.028 17.0453 522.017 17.248 521.996 17.44H507.756V14.784H519.884L518.316 15.616C518.337 14.6347 518.135 13.7707 517.708 13.024C517.281 12.2773 516.695 11.6907 515.948 11.264C515.223 10.8373 514.38 10.624 513.42 10.624C512.439 10.624 511.575 10.8373 510.828 11.264C510.103 11.6907 509.527 12.288 509.1 13.056C508.695 13.8027 508.492 14.688 508.492 15.712V16.352C508.492 17.376 508.727 18.2827 509.196 19.072C509.665 19.8613 510.327 20.4693 511.18 20.896C512.033 21.3227 513.015 21.536 514.124 21.536C515.084 21.536 515.948 21.3867 516.716 21.088C517.484 20.7893 518.167 20.32 518.764 19.68L520.908 22.144C520.14 23.04 519.169 23.7333 517.996 24.224C516.844 24.6933 515.521 24.928 514.028 24.928ZM535.598 7.42401C536.964 7.42401 538.18 7.69068 539.246 8.22401C540.334 8.75734 541.188 9.57868 541.806 10.688C542.425 11.776 542.734 13.184 542.734 14.912V24.704H538.734V15.424C538.734 13.9093 538.372 12.7787 537.646 12.032C536.942 11.2853 535.95 10.912 534.67 10.912C533.732 10.912 532.9 11.104 532.174 11.488C531.449 11.872 530.884 12.448 530.478 13.216C530.094 13.9627 529.902 14.912 529.902 16.064V24.704H525.902V7.61601H529.71V12.224L529.038 10.816C529.636 9.72801 530.5 8.89601 531.63 8.32001C532.782 7.72268 534.105 7.42401 535.598 7.42401ZM554.24 24.928C552.363 24.928 550.912 24.448 549.888 23.488C548.864 22.5067 548.352 21.0667 548.352 19.168V3.84001H552.352V19.072C552.352 19.8827 552.555 20.512 552.96 20.96C553.387 21.408 553.974 21.632 554.72 21.632C555.616 21.632 556.363 21.3973 556.96 20.928L558.08 23.776C557.611 24.16 557.035 24.448 556.352 24.64C555.67 24.832 554.966 24.928 554.24 24.928ZM545.536 10.944V7.74401H556.928V10.944H545.536ZM575.495 24.928C574.065 24.928 572.689 24.7467 571.367 24.384C570.065 24 569.031 23.5413 568.263 23.008L569.799 19.968C570.567 20.4587 571.484 20.864 572.551 21.184C573.617 21.504 574.684 21.664 575.751 21.664C577.009 21.664 577.916 21.4933 578.471 21.152C579.047 20.8107 579.335 20.352 579.335 19.776C579.335 19.3067 579.143 18.9547 578.759 18.72C578.375 18.464 577.873 18.272 577.255 18.144C576.636 18.016 575.943 17.8987 575.175 17.792C574.428 17.6853 573.671 17.5467 572.903 17.376C572.156 17.184 571.473 16.9173 570.855 16.576C570.236 16.2133 569.735 15.7333 569.351 15.136C568.967 14.5387 568.775 13.7493 568.775 12.768C568.775 11.68 569.084 10.7413 569.703 9.95201C570.321 9.14134 571.185 8.52268 572.295 8.09601C573.425 7.64801 574.759 7.42401 576.295 7.42401C577.447 7.42401 578.609 7.55201 579.783 7.80801C580.956 8.06401 581.927 8.42668 582.695 8.89601L581.159 11.936C580.348 11.4453 579.527 11.1147 578.695 10.944C577.884 10.752 577.073 10.656 576.263 10.656C575.047 10.656 574.14 10.8373 573.543 11.2C572.967 11.5627 572.679 12.0213 572.679 12.576C572.679 13.088 572.871 13.472 573.255 13.728C573.639 13.984 574.14 14.1867 574.759 14.336C575.377 14.4853 576.06 14.6133 576.807 14.72C577.575 14.8053 578.332 14.944 579.079 15.136C579.825 15.328 580.508 15.5947 581.127 15.936C581.767 16.256 582.279 16.7147 582.663 17.312C583.047 17.9093 583.239 18.688 583.239 19.648C583.239 20.7147 582.919 21.6427 582.279 22.432C581.66 23.2213 580.775 23.84 579.623 24.288C578.471 24.7147 577.095 24.928 575.495 24.928ZM594.363 24.928C592.614 24.928 591.057 24.5547 589.691 23.808C588.326 23.04 587.249 21.9947 586.459 20.672C585.67 19.3493 585.275 17.8453 585.275 16.16C585.275 14.4533 585.67 12.9493 586.459 11.648C587.249 10.3253 588.326 9.29068 589.691 8.54401C591.057 7.79734 592.614 7.42401 594.363 7.42401C596.134 7.42401 597.702 7.79734 599.067 8.54401C600.454 9.29068 601.531 10.3147 602.299 11.616C603.089 12.9173 603.483 14.432 603.483 16.16C603.483 17.8453 603.089 19.3493 602.299 20.672C601.531 21.9947 600.454 23.04 599.067 23.808C597.702 24.5547 596.134 24.928 594.363 24.928ZM594.363 21.504C595.345 21.504 596.219 21.2907 596.987 20.864C597.755 20.4373 598.353 19.8187 598.779 19.008C599.227 18.1973 599.451 17.248 599.451 16.16C599.451 15.0507 599.227 14.1013 598.779 13.312C598.353 12.5013 597.755 11.8827 596.987 11.456C596.219 11.0293 595.355 10.816 594.395 10.816C593.414 10.816 592.539 11.0293 591.771 11.456C591.025 11.8827 590.427 12.5013 589.979 13.312C589.531 14.1013 589.307 15.0507 589.307 16.16C589.307 17.248 589.531 18.1973 589.979 19.008C590.427 19.8187 591.025 20.4373 591.771 20.864C592.539 21.2907 593.403 21.504 594.363 21.504ZM607.308 24.704V0.960009H611.308V24.704H607.308ZM623.79 24.928C622.34 24.928 621.06 24.6613 619.95 24.128C618.841 23.5733 617.977 22.7413 617.358 21.632C616.74 20.5013 616.43 19.0827 616.43 17.376V7.61601H620.43V16.832C620.43 18.368 620.772 19.52 621.454 20.288C622.158 21.0347 623.15 21.408 624.43 21.408C625.369 21.408 626.18 21.216 626.862 20.832C627.566 20.448 628.11 19.872 628.494 19.104C628.9 18.336 629.102 17.3867 629.102 16.256V7.61601H633.102V24.704H629.294V20.096L629.966 21.504C629.39 22.6133 628.548 23.4667 627.438 24.064C626.329 24.64 625.113 24.928 623.79 24.928ZM644.772 24.928C642.894 24.928 641.444 24.448 640.42 23.488C639.396 22.5067 638.884 21.0667 638.884 19.168V3.84001H642.884V19.072C642.884 19.8827 643.086 20.512 643.492 20.96C643.918 21.408 644.505 21.632 645.252 21.632C646.148 21.632 646.894 21.3973 647.492 20.928L648.612 23.776C648.142 24.16 647.566 24.448 646.884 24.64C646.201 24.832 645.497 24.928 644.772 24.928ZM636.068 10.944V7.74401H647.46V10.944H636.068ZM651.902 24.704V7.61601H655.902V24.704H651.902ZM653.918 4.80001C653.172 4.80001 652.553 4.56534 652.062 4.09601C651.593 3.62668 651.358 3.06134 651.358 2.40001C651.358 1.71734 651.593 1.15201 652.062 0.704008C652.553 0.234676 653.172 9.53674e-06 653.918 9.53674e-06C654.665 9.53674e-06 655.273 0.224009 655.742 0.672009C656.233 1.09868 656.478 1.64268 656.478 2.30401C656.478 3.00801 656.244 3.60534 655.774 4.09601C655.305 4.56534 654.686 4.80001 653.918 4.80001ZM668.832 24.928C667.083 24.928 665.526 24.5547 664.16 23.808C662.795 23.04 661.718 21.9947 660.928 20.672C660.139 19.3493 659.744 17.8453 659.744 16.16C659.744 14.4533 660.139 12.9493 660.928 11.648C661.718 10.3253 662.795 9.29068 664.16 8.54401C665.526 7.79734 667.083 7.42401 668.832 7.42401C670.603 7.42401 672.171 7.79734 673.536 8.54401C674.923 9.29068 676 10.3147 676.768 11.616C677.558 12.9173 677.952 14.432 677.952 16.16C677.952 17.8453 677.558 19.3493 676.768 20.672C676 21.9947 674.923 23.04 673.536 23.808C672.171 24.5547 670.603 24.928 668.832 24.928ZM668.832 21.504C669.814 21.504 670.688 21.2907 671.456 20.864C672.224 20.4373 672.822 19.8187 673.248 19.008C673.696 18.1973 673.92 17.248 673.92 16.16C673.92 15.0507 673.696 14.1013 673.248 13.312C672.822 12.5013 672.224 11.8827 671.456 11.456C670.688 11.0293 669.824 10.816 668.864 10.816C667.883 10.816 667.008 11.0293 666.24 11.456C665.494 11.8827 664.896 12.5013 664.448 13.312C664 14.1013 663.776 15.0507 663.776 16.16C663.776 17.248 664 18.1973 664.448 19.008C664.896 19.8187 665.494 20.4373 666.24 20.864C667.008 21.2907 667.872 21.504 668.832 21.504ZM691.473 7.42401C692.839 7.42401 694.055 7.69068 695.121 8.22401C696.209 8.75734 697.063 9.57868 697.681 10.688C698.3 11.776 698.609 13.184 698.609 14.912V24.704H694.609V15.424C694.609 13.9093 694.247 12.7787 693.521 12.032C692.817 11.2853 691.825 10.912 690.545 10.912C689.607 10.912 688.775 11.104 688.049 11.488C687.324 11.872 686.759 12.448 686.353 13.216C685.969 13.9627 685.777 14.912 685.777 16.064V24.704H681.777V7.61601H685.585V12.224L684.913 10.816C685.511 9.72801 686.375 8.89601 687.505 8.32001C688.657 7.72268 689.98 7.42401 691.473 7.42401ZM713.071 24.704V6.65601C713.071 4.86401 713.594 3.43468 714.639 2.36801C715.706 1.28001 717.221 0.73601 719.183 0.73601C719.887 0.73601 720.549 0.810676 721.167 0.960009C721.807 1.10934 722.341 1.34401 722.767 1.66401L721.679 4.67201C721.381 4.43734 721.039 4.26668 720.655 4.16001C720.271 4.03201 719.877 3.96801 719.471 3.96801C718.639 3.96801 718.01 4.20268 717.583 4.67201C717.157 5.12001 716.943 5.80268 716.943 6.72001V8.64001L717.071 10.432V24.704H713.071ZM710.255 10.944V7.74401H721.647V10.944H710.255ZM731.77 24.928C730.02 24.928 728.463 24.5547 727.098 23.808C725.732 23.04 724.655 21.9947 723.866 20.672C723.076 19.3493 722.682 17.8453 722.682 16.16C722.682 14.4533 723.076 12.9493 723.866 11.648C724.655 10.3253 725.732 9.29068 727.098 8.54401C728.463 7.79734 730.02 7.42401 731.77 7.42401C733.54 7.42401 735.108 7.79734 736.474 8.54401C737.86 9.29068 738.938 10.3147 739.706 11.616C740.495 12.9173 740.89 14.432 740.89 16.16C740.89 17.8453 740.495 19.3493 739.706 20.672C738.938 21.9947 737.86 23.04 736.474 23.808C735.108 24.5547 733.54 24.928 731.77 24.928ZM731.77 21.504C732.751 21.504 733.626 21.2907 734.394 20.864C735.162 20.4373 735.759 19.8187 736.186 19.008C736.634 18.1973 736.858 17.248 736.858 16.16C736.858 15.0507 736.634 14.1013 736.186 13.312C735.759 12.5013 735.162 11.8827 734.394 11.456C733.626 11.0293 732.762 10.816 731.802 10.816C730.82 10.816 729.946 11.0293 729.178 11.456C728.431 11.8827 727.834 12.5013 727.386 13.312C726.938 14.1013 726.714 15.0507 726.714 16.16C726.714 17.248 726.938 18.1973 727.386 19.008C727.834 19.8187 728.431 20.4373 729.178 20.864C729.946 21.2907 730.81 21.504 731.77 21.504ZM744.715 24.704V7.61601H748.523V12.32L748.075 10.944C748.587 9.79201 749.387 8.91734 750.475 8.32001C751.584 7.72268 752.96 7.42401 754.603 7.42401V11.232C754.432 11.1893 754.272 11.168 754.123 11.168C753.973 11.1467 753.824 11.136 753.675 11.136C752.16 11.136 750.955 11.584 750.059 12.48C749.163 13.3547 748.715 14.6667 748.715 16.416V24.704H744.715ZM788.564 7.42401C789.929 7.42401 791.135 7.69068 792.18 8.22401C793.247 8.75734 794.079 9.57868 794.676 10.688C795.273 11.776 795.572 13.184 795.572 14.912V24.704H791.572V15.424C791.572 13.9093 791.241 12.7787 790.58 12.032C789.919 11.2853 788.969 10.912 787.732 10.912C786.857 10.912 786.079 11.104 785.396 11.488C784.735 11.872 784.212 12.4373 783.828 13.184C783.465 13.9307 783.284 14.88 783.284 16.032V24.704H779.284V15.424C779.284 13.9093 778.953 12.7787 778.292 12.032C777.631 11.2853 776.681 10.912 775.444 10.912C774.569 10.912 773.791 11.104 773.108 11.488C772.447 11.872 771.924 12.4373 771.54 13.184C771.177 13.9307 770.996 14.88 770.996 16.032V24.704H766.996V7.61601H770.804V12.16L770.132 10.816C770.708 9.70668 771.54 8.86401 772.628 8.28801C773.737 7.71201 774.996 7.42401 776.404 7.42401C778.004 7.42401 779.391 7.81868 780.564 8.60801C781.759 9.39734 782.548 10.592 782.932 12.192L781.364 11.648C781.919 10.368 782.836 9.34401 784.116 8.57601C785.396 7.80801 786.879 7.42401 788.564 7.42401ZM808.395 24.928C806.645 24.928 805.088 24.5547 803.723 23.808C802.357 23.04 801.28 21.9947 800.491 20.672C799.701 19.3493 799.307 17.8453 799.307 16.16C799.307 14.4533 799.701 12.9493 800.491 11.648C801.28 10.3253 802.357 9.29068 803.723 8.54401C805.088 7.79734 806.645 7.42401 808.395 7.42401C810.165 7.42401 811.733 7.79734 813.099 8.54401C814.485 9.29068 815.563 10.3147 816.331 11.616C817.12 12.9173 817.515 14.432 817.515 16.16C817.515 17.8453 817.12 19.3493 816.331 20.672C815.563 21.9947 814.485 23.04 813.099 23.808C811.733 24.5547 810.165 24.928 808.395 24.928ZM808.395 21.504C809.376 21.504 810.251 21.2907 811.019 20.864C811.787 20.4373 812.384 19.8187 812.811 19.008C813.259 18.1973 813.483 17.248 813.483 16.16C813.483 15.0507 813.259 14.1013 812.811 13.312C812.384 12.5013 811.787 11.8827 811.019 11.456C810.251 11.0293 809.387 10.816 808.427 10.816C807.445 10.816 806.571 11.0293 805.803 11.456C805.056 11.8827 804.459 12.5013 804.011 13.312C803.563 14.1013 803.339 15.0507 803.339 16.16C803.339 17.248 803.563 18.1973 804.011 19.008C804.459 19.8187 805.056 20.4373 805.803 20.864C806.571 21.2907 807.435 21.504 808.395 21.504ZM828.572 24.928C826.929 24.928 825.446 24.5653 824.124 23.84C822.822 23.0933 821.798 22.0693 821.052 20.768C820.305 19.4667 819.932 17.9307 819.932 16.16C819.932 14.3893 820.305 12.8533 821.052 11.552C821.798 10.2507 822.822 9.23734 824.124 8.51201C825.446 7.78668 826.929 7.42401 828.572 7.42401C830.001 7.42401 831.281 7.74401 832.412 8.38401C833.542 9.00268 834.438 9.95201 835.1 11.232C835.761 12.512 836.092 14.1547 836.092 16.16C836.092 18.144 835.772 19.7867 835.132 21.088C834.492 22.368 833.606 23.328 832.476 23.968C831.345 24.608 830.044 24.928 828.572 24.928ZM829.052 21.504C830.012 21.504 830.865 21.2907 831.612 20.864C832.38 20.4373 832.988 19.8187 833.436 19.008C833.905 18.1973 834.14 17.248 834.14 16.16C834.14 15.0507 833.905 14.1013 833.436 13.312C832.988 12.5013 832.38 11.8827 831.612 11.456C830.865 11.0293 830.012 10.816 829.052 10.816C828.092 10.816 827.228 11.0293 826.46 11.456C825.713 11.8827 825.105 12.5013 824.636 13.312C824.188 14.1013 823.964 15.0507 823.964 16.16C823.964 17.248 824.188 18.1973 824.636 19.008C825.105 19.8187 825.713 20.4373 826.46 20.864C827.228 21.2907 828.092 21.504 829.052 21.504ZM834.236 24.704V20.672L834.396 16.128L834.076 11.584V0.960009H838.044V24.704H834.236ZM851.34 24.928C849.442 24.928 847.778 24.5547 846.348 23.808C844.94 23.04 843.842 21.9947 843.052 20.672C842.284 19.3493 841.9 17.8453 841.9 16.16C841.9 14.4533 842.274 12.9493 843.02 11.648C843.788 10.3253 844.834 9.29068 846.156 8.54401C847.5 7.79734 849.026 7.42401 850.732 7.42401C852.396 7.42401 853.879 7.78668 855.18 8.51201C856.482 9.23734 857.506 10.2613 858.252 11.584C858.999 12.9067 859.372 14.464 859.372 16.256C859.372 16.4267 859.362 16.6187 859.34 16.832C859.34 17.0453 859.33 17.248 859.308 17.44H845.068V14.784H857.196L855.628 15.616C855.65 14.6347 855.447 13.7707 855.02 13.024C854.594 12.2773 854.007 11.6907 853.26 11.264C852.535 10.8373 851.692 10.624 850.732 10.624C849.751 10.624 848.887 10.8373 848.14 11.264C847.415 11.6907 846.839 12.288 846.412 13.056C846.007 13.8027 845.804 14.688 845.804 15.712V16.352C845.804 17.376 846.039 18.2827 846.508 19.072C846.978 19.8613 847.639 20.4693 848.492 20.896C849.346 21.3227 850.327 21.536 851.436 21.536C852.396 21.536 853.26 21.3867 854.028 21.088C854.796 20.7893 855.479 20.32 856.076 19.68L858.22 22.144C857.452 23.04 856.482 23.7333 855.308 24.224C854.156 24.6933 852.834 24.928 851.34 24.928ZM863.215 24.704V7.61601H867.023V12.32L866.575 10.944C867.087 9.79201 867.887 8.91734 868.975 8.32001C870.084 7.72268 871.46 7.42401 873.103 7.42401V11.232C872.932 11.1893 872.772 11.168 872.623 11.168C872.473 11.1467 872.324 11.136 872.175 11.136C870.66 11.136 869.455 11.584 868.559 12.48C867.663 13.3547 867.215 14.6667 867.215 16.416V24.704H863.215ZM886.192 7.42401C887.557 7.42401 888.773 7.69068 889.84 8.22401C890.928 8.75734 891.781 9.57868 892.4 10.688C893.019 11.776 893.328 13.184 893.328 14.912V24.704H889.328V15.424C889.328 13.9093 888.965 12.7787 888.24 12.032C887.536 11.2853 886.544 10.912 885.264 10.912C884.325 10.912 883.493 11.104 882.768 11.488C882.043 11.872 881.477 12.448 881.072 13.216C880.688 13.9627 880.496 14.912 880.496 16.064V24.704H876.496V7.61601H880.304V12.224L879.632 10.816C880.229 9.72801 881.093 8.89601 882.224 8.32001C883.376 7.72268 884.699 7.42401 886.192 7.42401ZM916.718 24.928C915.267 24.928 913.977 24.608 912.846 23.968C911.715 23.328 910.819 22.368 910.158 21.088C909.518 19.7867 909.198 18.144 909.198 16.16C909.198 14.1547 909.529 12.512 910.19 11.232C910.873 9.95201 911.779 9.00268 912.91 8.38401C914.062 7.74401 915.331 7.42401 916.718 7.42401C918.403 7.42401 919.886 7.78668 921.166 8.51201C922.467 9.23734 923.491 10.2507 924.238 11.552C925.006 12.8533 925.39 14.3893 925.39 16.16C925.39 17.9307 925.006 19.4667 924.238 20.768C923.491 22.0693 922.467 23.0933 921.166 23.84C919.886 24.5653 918.403 24.928 916.718 24.928ZM907.246 24.704V0.960009H911.246V11.584L910.926 16.128L911.054 20.672V24.704H907.246ZM916.27 21.504C917.23 21.504 918.083 21.2907 918.83 20.864C919.598 20.4373 920.206 19.8187 920.654 19.008C921.102 18.1973 921.326 17.248 921.326 16.16C921.326 15.0507 921.102 14.1013 920.654 13.312C920.206 12.5013 919.598 11.8827 918.83 11.456C918.083 11.0293 917.23 10.816 916.27 10.816C915.31 10.816 914.446 11.0293 913.678 11.456C912.91 11.8827 912.302 12.5013 911.854 13.312C911.406 14.1013 911.182 15.0507 911.182 16.16C911.182 17.248 911.406 18.1973 911.854 19.008C912.302 19.8187 912.91 20.4373 913.678 20.864C914.446 21.2907 915.31 21.504 916.27 21.504ZM936.415 24.928C934.965 24.928 933.685 24.6613 932.575 24.128C931.466 23.5733 930.602 22.7413 929.983 21.632C929.365 20.5013 929.055 19.0827 929.055 17.376V7.61601H933.055V16.832C933.055 18.368 933.397 19.52 934.079 20.288C934.783 21.0347 935.775 21.408 937.055 21.408C937.994 21.408 938.805 21.216 939.487 20.832C940.191 20.448 940.735 19.872 941.119 19.104C941.525 18.336 941.727 17.3867 941.727 16.256V7.61601H945.727V24.704H941.919V20.096L942.591 21.504C942.015 22.6133 941.173 23.4667 940.063 24.064C938.954 24.64 937.738 24.928 936.415 24.928ZM956.245 24.928C954.815 24.928 953.439 24.7467 952.117 24.384C950.815 24 949.781 23.5413 949.013 23.008L950.549 19.968C951.317 20.4587 952.234 20.864 953.301 21.184C954.367 21.504 955.434 21.664 956.501 21.664C957.759 21.664 958.666 21.4933 959.221 21.152C959.797 20.8107 960.085 20.352 960.085 19.776C960.085 19.3067 959.893 18.9547 959.509 18.72C959.125 18.464 958.623 18.272 958.005 18.144C957.386 18.016 956.693 17.8987 955.925 17.792C955.178 17.6853 954.421 17.5467 953.653 17.376C952.906 17.184 952.223 16.9173 951.605 16.576C950.986 16.2133 950.485 15.7333 950.101 15.136C949.717 14.5387 949.525 13.7493 949.525 12.768C949.525 11.68 949.834 10.7413 950.453 9.95201C951.071 9.14134 951.935 8.52268 953.045 8.09601C954.175 7.64801 955.509 7.42401 957.045 7.42401C958.197 7.42401 959.359 7.55201 960.533 7.80801C961.706 8.06401 962.677 8.42668 963.445 8.89601L961.909 11.936C961.098 11.4453 960.277 11.1147 959.445 10.944C958.634 10.752 957.823 10.656 957.013 10.656C955.797 10.656 954.89 10.8373 954.293 11.2C953.717 11.5627 953.429 12.0213 953.429 12.576C953.429 13.088 953.621 13.472 954.005 13.728C954.389 13.984 954.89 14.1867 955.509 14.336C956.127 14.4853 956.81 14.6133 957.557 14.72C958.325 14.8053 959.082 14.944 959.829 15.136C960.575 15.328 961.258 15.5947 961.877 15.936C962.517 16.256 963.029 16.7147 963.413 17.312C963.797 17.9093 963.989 18.688 963.989 19.648C963.989 20.7147 963.669 21.6427 963.029 22.432C962.41 23.2213 961.525 23.84 960.373 24.288C959.221 24.7147 957.845 24.928 956.245 24.928ZM967.433 24.704V7.61601H971.433V24.704H967.433ZM969.449 4.80001C968.703 4.80001 968.084 4.56534 967.593 4.09601C967.124 3.62668 966.889 3.06134 966.889 2.40001C966.889 1.71734 967.124 1.15201 967.593 0.704008C968.084 0.234676 968.703 9.53674e-06 969.449 9.53674e-06C970.196 9.53674e-06 970.804 0.224009 971.273 0.672009C971.764 1.09868 972.009 1.64268 972.009 2.30401C972.009 3.00801 971.775 3.60534 971.305 4.09601C970.836 4.56534 970.217 4.80001 969.449 4.80001ZM986.379 7.42401C987.745 7.42401 988.961 7.69068 990.027 8.22401C991.115 8.75734 991.969 9.57868 992.587 10.688C993.206 11.776 993.515 13.184 993.515 14.912V24.704H989.515V15.424C989.515 13.9093 989.153 12.7787 988.427 12.032C987.723 11.2853 986.731 10.912 985.451 10.912C984.513 10.912 983.681 11.104 982.955 11.488C982.23 11.872 981.665 12.448 981.259 13.216C980.875 13.9627 980.683 14.912 980.683 16.064V24.704H976.683V7.61601H980.491V12.224L979.819 10.816C980.417 9.72801 981.281 8.89601 982.411 8.32001C983.563 7.72268 984.886 7.42401 986.379 7.42401ZM1006.65 24.928C1004.75 24.928 1003.09 24.5547 1001.66 23.808C1000.25 23.04 999.154 21.9947 998.365 20.672C997.597 19.3493 997.213 17.8453 997.213 16.16C997.213 14.4533 997.586 12.9493 998.333 11.648C999.101 10.3253 1000.15 9.29068 1001.47 8.54401C1002.81 7.79734 1004.34 7.42401 1006.04 7.42401C1007.71 7.42401 1009.19 7.78668 1010.49 8.51201C1011.79 9.23734 1012.82 10.2613 1013.56 11.584C1014.31 12.9067 1014.68 14.464 1014.68 16.256C1014.68 16.4267 1014.67 16.6187 1014.65 16.832C1014.65 17.0453 1014.64 17.248 1014.62 17.44H1000.38V14.784H1012.51L1010.94 15.616C1010.96 14.6347 1010.76 13.7707 1010.33 13.024C1009.91 12.2773 1009.32 11.6907 1008.57 11.264C1007.85 10.8373 1007 10.624 1006.04 10.624C1005.06 10.624 1004.2 10.8373 1003.45 11.264C1002.73 11.6907 1002.15 12.288 1001.72 13.056C1001.32 13.8027 1001.12 14.688 1001.12 15.712V16.352C1001.12 17.376 1001.35 18.2827 1001.82 19.072C1002.29 19.8613 1002.95 20.4693 1003.8 20.896C1004.66 21.3227 1005.64 21.536 1006.75 21.536C1007.71 21.536 1008.57 21.3867 1009.34 21.088C1010.11 20.7893 1010.79 20.32 1011.39 19.68L1013.53 22.144C1012.76 23.04 1011.79 23.7333 1010.62 24.224C1009.47 24.6933 1008.15 24.928 1006.65 24.928ZM1023.81 24.928C1022.38 24.928 1021 24.7467 1019.68 24.384C1018.38 24 1017.34 23.5413 1016.58 23.008L1018.11 19.968C1018.88 20.4587 1019.8 20.864 1020.86 21.184C1021.93 21.504 1023 21.664 1024.06 21.664C1025.32 21.664 1026.23 21.4933 1026.78 21.152C1027.36 20.8107 1027.65 20.352 1027.65 19.776C1027.65 19.3067 1027.46 18.9547 1027.07 18.72C1026.69 18.464 1026.19 18.272 1025.57 18.144C1024.95 18.016 1024.26 17.8987 1023.49 17.792C1022.74 17.6853 1021.98 17.5467 1021.22 17.376C1020.47 17.184 1019.79 16.9173 1019.17 16.576C1018.55 16.2133 1018.05 15.7333 1017.66 15.136C1017.28 14.5387 1017.09 13.7493 1017.09 12.768C1017.09 11.68 1017.4 10.7413 1018.02 9.95201C1018.63 9.14134 1019.5 8.52268 1020.61 8.09601C1021.74 7.64801 1023.07 7.42401 1024.61 7.42401C1025.76 7.42401 1026.92 7.55201 1028.1 7.80801C1029.27 8.06401 1030.24 8.42668 1031.01 8.89601L1029.47 11.936C1028.66 11.4453 1027.84 11.1147 1027.01 10.944C1026.2 10.752 1025.39 10.656 1024.58 10.656C1023.36 10.656 1022.45 10.8373 1021.86 11.2C1021.28 11.5627 1020.99 12.0213 1020.99 12.576C1020.99 13.088 1021.18 13.472 1021.57 13.728C1021.95 13.984 1022.45 14.1867 1023.07 14.336C1023.69 14.4853 1024.37 14.6133 1025.12 14.72C1025.89 14.8053 1026.64 14.944 1027.39 15.136C1028.14 15.328 1028.82 15.5947 1029.44 15.936C1030.08 16.256 1030.59 16.7147 1030.98 17.312C1031.36 17.9093 1031.55 18.688 1031.55 19.648C1031.55 20.7147 1031.23 21.6427 1030.59 22.432C1029.97 23.2213 1029.09 23.84 1027.94 24.288C1026.78 24.7147 1025.41 24.928 1023.81 24.928ZM1040.28 24.928C1038.85 24.928 1037.47 24.7467 1036.15 24.384C1034.85 24 1033.81 23.5413 1033.04 23.008L1034.58 19.968C1035.35 20.4587 1036.27 20.864 1037.33 21.184C1038.4 21.504 1039.47 21.664 1040.53 21.664C1041.79 21.664 1042.7 21.4933 1043.25 21.152C1043.83 20.8107 1044.12 20.352 1044.12 19.776C1044.12 19.3067 1043.92 18.9547 1043.54 18.72C1043.16 18.464 1042.65 18.272 1042.04 18.144C1041.42 18.016 1040.72 17.8987 1039.96 17.792C1039.21 17.6853 1038.45 17.5467 1037.68 17.376C1036.94 17.184 1036.25 16.9173 1035.64 16.576C1035.02 16.2133 1034.52 15.7333 1034.13 15.136C1033.75 14.5387 1033.56 13.7493 1033.56 12.768C1033.56 11.68 1033.87 10.7413 1034.48 9.95201C1035.1 9.14134 1035.97 8.52268 1037.08 8.09601C1038.21 7.64801 1039.54 7.42401 1041.08 7.42401C1042.23 7.42401 1043.39 7.55201 1044.56 7.80801C1045.74 8.06401 1046.71 8.42668 1047.48 8.89601L1045.94 11.936C1045.13 11.4453 1044.31 11.1147 1043.48 10.944C1042.67 10.752 1041.85 10.656 1041.04 10.656C1039.83 10.656 1038.92 10.8373 1038.32 11.2C1037.75 11.5627 1037.46 12.0213 1037.46 12.576C1037.46 13.088 1037.65 13.472 1038.04 13.728C1038.42 13.984 1038.92 14.1867 1039.54 14.336C1040.16 14.4853 1040.84 14.6133 1041.59 14.72C1042.36 14.8053 1043.11 14.944 1043.86 15.136C1044.61 15.328 1045.29 15.5947 1045.91 15.936C1046.55 16.256 1047.06 16.7147 1047.44 17.312C1047.83 17.9093 1048.02 18.688 1048.02 19.648C1048.02 20.7147 1047.7 21.6427 1047.06 22.432C1046.44 23.2213 1045.56 23.84 1044.4 24.288C1043.25 24.7147 1041.88 24.928 1040.28 24.928ZM1059.5 24.928C1057.6 24.928 1055.93 24.5547 1054.5 23.808C1053.1 23.04 1052 21.9947 1051.21 20.672C1050.44 19.3493 1050.06 17.8453 1050.06 16.16C1050.06 14.4533 1050.43 12.9493 1051.18 11.648C1051.94 10.3253 1052.99 9.29068 1054.31 8.54401C1055.66 7.79734 1057.18 7.42401 1058.89 7.42401C1060.55 7.42401 1062.04 7.78668 1063.34 8.51201C1064.64 9.23734 1065.66 10.2613 1066.41 11.584C1067.16 12.9067 1067.53 14.464 1067.53 16.256C1067.53 16.4267 1067.52 16.6187 1067.5 16.832C1067.5 17.0453 1067.49 17.248 1067.46 17.44H1053.22V14.784H1065.35L1063.78 15.616C1063.81 14.6347 1063.6 13.7707 1063.18 13.024C1062.75 12.2773 1062.16 11.6907 1061.42 11.264C1060.69 10.8373 1059.85 10.624 1058.89 10.624C1057.91 10.624 1057.04 10.8373 1056.3 11.264C1055.57 11.6907 1055 12.288 1054.57 13.056C1054.16 13.8027 1053.96 14.688 1053.96 15.712V16.352C1053.96 17.376 1054.2 18.2827 1054.66 19.072C1055.13 19.8613 1055.8 20.4693 1056.65 20.896C1057.5 21.3227 1058.48 21.536 1059.59 21.536C1060.55 21.536 1061.42 21.3867 1062.18 21.088C1062.95 20.7893 1063.64 20.32 1064.23 19.68L1066.38 22.144C1065.61 23.04 1064.64 23.7333 1063.46 24.224C1062.31 24.6933 1060.99 24.928 1059.5 24.928ZM1076.65 24.928C1075.22 24.928 1073.85 24.7467 1072.52 24.384C1071.22 24 1070.19 23.5413 1069.42 23.008L1070.95 19.968C1071.72 20.4587 1072.64 20.864 1073.71 21.184C1074.77 21.504 1075.84 21.664 1076.91 21.664C1078.17 21.664 1079.07 21.4933 1079.63 21.152C1080.2 20.8107 1080.49 20.352 1080.49 19.776C1080.49 19.3067 1080.3 18.9547 1079.91 18.72C1079.53 18.464 1079.03 18.272 1078.41 18.144C1077.79 18.016 1077.1 17.8987 1076.33 17.792C1075.58 17.6853 1074.83 17.5467 1074.06 17.376C1073.31 17.184 1072.63 16.9173 1072.01 16.576C1071.39 16.2133 1070.89 15.7333 1070.51 15.136C1070.12 14.5387 1069.93 13.7493 1069.93 12.768C1069.93 11.68 1070.24 10.7413 1070.86 9.95201C1071.48 9.14134 1072.34 8.52268 1073.45 8.09601C1074.58 7.64801 1075.91 7.42401 1077.45 7.42401C1078.6 7.42401 1079.77 7.55201 1080.94 7.80801C1082.11 8.06401 1083.08 8.42668 1083.85 8.89601L1082.31 11.936C1081.5 11.4453 1080.68 11.1147 1079.85 10.944C1079.04 10.752 1078.23 10.656 1077.42 10.656C1076.2 10.656 1075.3 10.8373 1074.7 11.2C1074.12 11.5627 1073.83 12.0213 1073.83 12.576C1073.83 13.088 1074.03 13.472 1074.41 13.728C1074.79 13.984 1075.3 14.1867 1075.91 14.336C1076.53 14.4853 1077.22 14.6133 1077.96 14.72C1078.73 14.8053 1079.49 14.944 1080.23 15.136C1080.98 15.328 1081.66 15.5947 1082.28 15.936C1082.92 16.256 1083.43 16.7147 1083.82 17.312C1084.2 17.9093 1084.39 18.688 1084.39 19.648C1084.39 20.7147 1084.07 21.6427 1083.43 22.432C1082.82 23.2213 1081.93 23.84 1080.78 24.288C1079.63 24.7147 1078.25 24.928 1076.65 24.928ZM1089.12 24.928C1088.39 24.928 1087.78 24.6827 1087.26 24.192C1086.75 23.68 1086.5 23.04 1086.5 22.272C1086.5 21.4613 1086.75 20.8213 1087.26 20.352C1087.78 19.8613 1088.39 19.616 1089.12 19.616C1089.85 19.616 1090.46 19.8613 1090.98 20.352C1091.49 20.8213 1091.74 21.4613 1091.74 22.272C1091.74 23.04 1091.49 23.68 1090.98 24.192C1090.46 24.6827 1089.85 24.928 1089.12 24.928ZM7.42399 64.704V45.824H-5.97537e-06V42.304H19.008V45.824H11.584V64.704H7.42399ZM21.3397 64.704V47.616H25.1477V52.32L24.6997 50.944C25.2117 49.792 26.0117 48.9173 27.0997 48.32C28.2091 47.7227 29.5851 47.424 31.2277 47.424V51.232C31.0571 51.1893 30.8971 51.168 30.7477 51.168C30.5984 51.1467 30.4491 51.136 30.2997 51.136C28.7851 51.136 27.5797 51.584 26.6837 52.48C25.7877 53.3547 25.3397 54.6667 25.3397 56.416V64.704H21.3397ZM43.9302 64.704V61.248L43.7062 60.512V54.464C43.7062 53.2907 43.3542 52.384 42.6502 51.744C41.9462 51.0827 40.8796 50.752 39.4502 50.752C38.4902 50.752 37.5409 50.9013 36.6022 51.2C35.6849 51.4987 34.9062 51.9147 34.2662 52.448L32.6982 49.536C33.6156 48.832 34.7036 48.3093 35.9622 47.968C37.2422 47.6053 38.5649 47.424 39.9302 47.424C42.4049 47.424 44.3142 48.0213 45.6582 49.216C47.0236 50.3893 47.7062 52.2133 47.7062 54.688V64.704H43.9302ZM38.5542 64.928C37.2742 64.928 36.1542 64.7147 35.1942 64.288C34.2342 63.84 33.4876 63.232 32.9542 62.464C32.4422 61.6747 32.1862 60.7893 32.1862 59.808C32.1862 58.848 32.4102 57.984 32.8582 57.216C33.3276 56.448 34.0849 55.84 35.1302 55.392C36.1756 54.944 37.5622 54.72 39.2902 54.72H44.2502V57.376H39.5782C38.2129 57.376 37.2956 57.6 36.8262 58.048C36.3569 58.4747 36.1222 59.008 36.1222 59.648C36.1222 60.3733 36.4102 60.9493 36.9862 61.376C37.5622 61.8027 38.3622 62.016 39.3862 62.016C40.3676 62.016 41.2422 61.792 42.0102 61.344C42.7996 60.896 43.3649 60.2347 43.7062 59.36L44.3782 61.76C43.9942 62.7627 43.3009 63.5413 42.2982 64.096C41.3169 64.6507 40.0689 64.928 38.5542 64.928ZM60.711 64.928C58.919 64.928 57.319 64.5547 55.911 63.808C54.5243 63.04 53.4363 61.9947 52.647 60.672C51.8577 59.3493 51.463 57.8453 51.463 56.16C51.463 54.4533 51.8577 52.9493 52.647 51.648C53.4363 50.3253 54.5243 49.2907 55.911 48.544C57.319 47.7973 58.919 47.424 60.711 47.424C62.375 47.424 63.8363 47.7653 65.095 48.448C66.375 49.1093 67.3457 50.0907 68.007 51.392L64.935 53.184C64.423 52.3733 63.7937 51.776 63.047 51.392C62.3217 51.008 61.5323 50.816 60.679 50.816C59.6977 50.816 58.8123 51.0293 58.023 51.456C57.2337 51.8827 56.615 52.5013 56.167 53.312C55.719 54.1013 55.495 55.0507 55.495 56.16C55.495 57.2693 55.719 58.2293 56.167 59.04C56.615 59.8293 57.2337 60.4373 58.023 60.864C58.8123 61.2907 59.6977 61.504 60.679 61.504C61.5323 61.504 62.3217 61.312 63.047 60.928C63.7937 60.544 64.423 59.9467 64.935 59.136L68.007 60.928C67.3457 62.208 66.375 63.2 65.095 63.904C63.8363 64.5867 62.375 64.928 60.711 64.928ZM74.5725 60.896L74.6685 55.872L83.5965 47.616H88.3965L80.8125 55.232L78.7005 56.992L74.5725 60.896ZM71.3085 64.704V40.96H75.3085V64.704H71.3085ZM84.2045 64.704L77.9645 56.992L80.4925 53.792L89.0685 64.704H84.2045ZM90.9087 69.536L92.7647 62.464L93.3087 64.832C92.5621 64.832 91.9327 64.608 91.4207 64.16C90.9301 63.6907 90.6847 63.0613 90.6847 62.272C90.6847 61.4613 90.9301 60.8213 91.4207 60.352C91.9327 59.8613 92.5514 59.616 93.2767 59.616C94.0234 59.616 94.6421 59.8613 95.1327 60.352C95.6234 60.8427 95.8687 61.4827 95.8687 62.272C95.8687 62.4853 95.8474 62.72 95.8047 62.976C95.7621 63.2107 95.6874 63.488 95.5807 63.808C95.4954 64.128 95.3461 64.5333 95.1327 65.024L93.5007 69.536H90.9087ZM119.149 64.704V61.248L118.925 60.512V54.464C118.925 53.2907 118.573 52.384 117.869 51.744C117.165 51.0827 116.098 50.752 114.669 50.752C113.709 50.752 112.76 50.9013 111.821 51.2C110.904 51.4987 110.125 51.9147 109.485 52.448L107.917 49.536C108.834 48.832 109.922 48.3093 111.181 47.968C112.461 47.6053 113.784 47.424 115.149 47.424C117.624 47.424 119.533 48.0213 120.877 49.216C122.242 50.3893 122.925 52.2133 122.925 54.688V64.704H119.149ZM113.773 64.928C112.493 64.928 111.373 64.7147 110.413 64.288C109.453 63.84 108.706 63.232 108.173 62.464C107.661 61.6747 107.405 60.7893 107.405 59.808C107.405 58.848 107.629 57.984 108.077 57.216C108.546 56.448 109.304 55.84 110.349 55.392C111.394 54.944 112.781 54.72 114.509 54.72H119.469V57.376H114.797C113.432 57.376 112.514 57.6 112.045 58.048C111.576 58.4747 111.341 59.008 111.341 59.648C111.341 60.3733 111.629 60.9493 112.205 61.376C112.781 61.8027 113.581 62.016 114.605 62.016C115.586 62.016 116.461 61.792 117.229 61.344C118.018 60.896 118.584 60.2347 118.925 59.36L119.597 61.76C119.213 62.7627 118.52 63.5413 117.517 64.096C116.536 64.6507 115.288 64.928 113.773 64.928ZM137.754 47.424C139.12 47.424 140.336 47.6907 141.402 48.224C142.49 48.7573 143.344 49.5787 143.962 50.688C144.581 51.776 144.89 53.184 144.89 54.912V64.704H140.89V55.424C140.89 53.9093 140.528 52.7787 139.802 52.032C139.098 51.2853 138.106 50.912 136.826 50.912C135.888 50.912 135.056 51.104 134.33 51.488C133.605 51.872 133.04 52.448 132.634 53.216C132.25 53.9627 132.058 54.912 132.058 56.064V64.704H128.058V47.616H131.866V52.224L131.194 50.816C131.792 49.728 132.656 48.896 133.786 48.32C134.938 47.7227 136.261 47.424 137.754 47.424ZM160.493 64.704V61.248L160.269 60.512V54.464C160.269 53.2907 159.917 52.384 159.213 51.744C158.509 51.0827 157.442 50.752 156.013 50.752C155.053 50.752 154.103 50.9013 153.165 51.2C152.247 51.4987 151.469 51.9147 150.829 52.448L149.261 49.536C150.178 48.832 151.266 48.3093 152.525 47.968C153.805 47.6053 155.127 47.424 156.493 47.424C158.967 47.424 160.877 48.0213 162.221 49.216C163.586 50.3893 164.269 52.2133 164.269 54.688V64.704H160.493ZM155.117 64.928C153.837 64.928 152.717 64.7147 151.757 64.288C150.797 63.84 150.05 63.232 149.517 62.464C149.005 61.6747 148.749 60.7893 148.749 59.808C148.749 58.848 148.973 57.984 149.421 57.216C149.89 56.448 150.647 55.84 151.693 55.392C152.738 54.944 154.125 54.72 155.853 54.72H160.813V57.376H156.141C154.775 57.376 153.858 57.6 153.389 58.048C152.919 58.4747 152.685 59.008 152.685 59.648C152.685 60.3733 152.973 60.9493 153.549 61.376C154.125 61.8027 154.925 62.016 155.949 62.016C156.93 62.016 157.805 61.792 158.573 61.344C159.362 60.896 159.927 60.2347 160.269 59.36L160.941 61.76C160.557 62.7627 159.863 63.5413 158.861 64.096C157.879 64.6507 156.631 64.928 155.117 64.928ZM169.402 64.704V40.96H173.402V64.704H169.402ZM180.06 71.136C179.228 71.136 178.396 70.9973 177.564 70.72C176.732 70.4427 176.039 70.0587 175.484 69.568L177.084 66.624C177.49 66.9867 177.948 67.2747 178.46 67.488C178.972 67.7013 179.495 67.808 180.028 67.808C180.754 67.808 181.34 67.6267 181.788 67.264C182.236 66.9013 182.652 66.2933 183.036 65.44L184.028 63.2L184.348 62.72L190.812 47.616H194.652L186.652 66.08C186.119 67.36 185.522 68.3733 184.86 69.12C184.22 69.8667 183.495 70.3893 182.684 70.688C181.895 70.9867 181.02 71.136 180.06 71.136ZM183.58 65.312L175.868 47.616H180.028L186.3 62.368L183.58 65.312ZM195.432 64.704V62.176L205.96 49.44L206.696 50.816H195.624V47.616H209.896V50.144L199.368 62.88L198.568 61.504H210.184V64.704H195.432ZM221.653 64.928C219.754 64.928 218.09 64.5547 216.661 63.808C215.253 63.04 214.154 61.9947 213.365 60.672C212.597 59.3493 212.213 57.8453 212.213 56.16C212.213 54.4533 212.586 52.9493 213.333 51.648C214.101 50.3253 215.146 49.2907 216.469 48.544C217.813 47.7973 219.338 47.424 221.045 47.424C222.709 47.424 224.192 47.7867 225.493 48.512C226.794 49.2373 227.818 50.2613 228.565 51.584C229.312 52.9067 229.685 54.464 229.685 56.256C229.685 56.4267 229.674 56.6187 229.653 56.832C229.653 57.0453 229.642 57.248 229.621 57.44H215.381V54.784H227.509L225.941 55.616C225.962 54.6347 225.76 53.7707 225.333 53.024C224.906 52.2773 224.32 51.6907 223.573 51.264C222.848 50.8373 222.005 50.624 221.045 50.624C220.064 50.624 219.2 50.8373 218.453 51.264C217.728 51.6907 217.152 52.288 216.725 53.056C216.32 53.8027 216.117 54.688 216.117 55.712V56.352C216.117 57.376 216.352 58.2827 216.821 59.072C217.29 59.8613 217.952 60.4693 218.805 60.896C219.658 61.3227 220.64 61.536 221.749 61.536C222.709 61.536 223.573 61.3867 224.341 61.088C225.109 60.7893 225.792 60.32 226.389 59.68L228.533 62.144C227.765 63.04 226.794 63.7333 225.621 64.224C224.469 64.6933 223.146 64.928 221.653 64.928ZM232.471 69.536L234.327 62.464L234.871 64.832C234.125 64.832 233.495 64.608 232.983 64.16C232.493 63.6907 232.247 63.0613 232.247 62.272C232.247 61.4613 232.493 60.8213 232.983 60.352C233.495 59.8613 234.114 59.616 234.839 59.616C235.586 59.616 236.205 59.8613 236.695 60.352C237.186 60.8427 237.431 61.4827 237.431 62.272C237.431 62.4853 237.41 62.72 237.367 62.976C237.325 63.2107 237.25 63.488 237.143 63.808C237.058 64.128 236.909 64.5333 236.695 65.024L235.063 69.536H232.471ZM255.463 64.928C254.034 64.928 252.658 64.7467 251.335 64.384C250.034 64 248.999 63.5413 248.231 63.008L249.767 59.968C250.535 60.4587 251.453 60.864 252.519 61.184C253.586 61.504 254.653 61.664 255.719 61.664C256.978 61.664 257.885 61.4933 258.439 61.152C259.015 60.8107 259.303 60.352 259.303 59.776C259.303 59.3067 259.111 58.9547 258.727 58.72C258.343 58.464 257.842 58.272 257.223 58.144C256.605 58.016 255.911 57.8987 255.143 57.792C254.397 57.6853 253.639 57.5467 252.871 57.376C252.125 57.184 251.442 56.9173 250.823 56.576C250.205 56.2133 249.703 55.7333 249.319 55.136C248.935 54.5387 248.743 53.7493 248.743 52.768C248.743 51.68 249.053 50.7413 249.671 49.952C250.29 49.1413 251.154 48.5227 252.263 48.096C253.394 47.648 254.727 47.424 256.263 47.424C257.415 47.424 258.578 47.552 259.751 47.808C260.925 48.064 261.895 48.4267 262.663 48.896L261.127 51.936C260.317 51.4453 259.495 51.1147 258.663 50.944C257.853 50.752 257.042 50.656 256.231 50.656C255.015 50.656 254.109 50.8373 253.511 51.2C252.935 51.5627 252.647 52.0213 252.647 52.576C252.647 53.088 252.839 53.472 253.223 53.728C253.607 53.984 254.109 54.1867 254.727 54.336C255.346 54.4853 256.029 54.6133 256.775 54.72C257.543 54.8053 258.301 54.944 259.047 55.136C259.794 55.328 260.477 55.5947 261.095 55.936C261.735 56.256 262.247 56.7147 262.631 57.312C263.015 57.9093 263.207 58.688 263.207 59.648C263.207 60.7147 262.887 61.6427 262.247 62.432C261.629 63.2213 260.743 63.84 259.591 64.288C258.439 64.7147 257.063 64.928 255.463 64.928ZM274.684 64.928C272.786 64.928 271.122 64.5547 269.692 63.808C268.284 63.04 267.186 61.9947 266.396 60.672C265.628 59.3493 265.244 57.8453 265.244 56.16C265.244 54.4533 265.618 52.9493 266.364 51.648C267.132 50.3253 268.178 49.2907 269.5 48.544C270.844 47.7973 272.37 47.424 274.076 47.424C275.74 47.424 277.223 47.7867 278.524 48.512C279.826 49.2373 280.85 50.2613 281.596 51.584C282.343 52.9067 282.716 54.464 282.716 56.256C282.716 56.4267 282.706 56.6187 282.684 56.832C282.684 57.0453 282.674 57.248 282.652 57.44H268.412V54.784H280.54L278.972 55.616C278.994 54.6347 278.791 53.7707 278.364 53.024C277.938 52.2773 277.351 51.6907 276.604 51.264C275.879 50.8373 275.036 50.624 274.076 50.624C273.095 50.624 272.231 50.8373 271.484 51.264C270.759 51.6907 270.183 52.288 269.756 53.056C269.351 53.8027 269.148 54.688 269.148 55.712V56.352C269.148 57.376 269.383 58.2827 269.852 59.072C270.322 59.8613 270.983 60.4693 271.836 60.896C272.69 61.3227 273.671 61.536 274.78 61.536C275.74 61.536 276.604 61.3867 277.372 61.088C278.14 60.7893 278.823 60.32 279.42 59.68L281.564 62.144C280.796 63.04 279.826 63.7333 278.652 64.224C277.5 64.6933 276.178 64.928 274.684 64.928ZM286.558 64.704V40.96H290.558V64.704H286.558ZM295.808 64.704V40.96H299.808V64.704H295.808ZM304.002 69.536L305.858 62.464L306.402 64.832C305.656 64.832 305.026 64.608 304.514 64.16C304.024 63.6907 303.778 63.0613 303.778 62.272C303.778 61.4613 304.024 60.8213 304.514 60.352C305.026 59.8613 305.645 59.616 306.37 59.616C307.117 59.616 307.736 59.8613 308.226 60.352C308.717 60.8427 308.962 61.4827 308.962 62.272C308.962 62.4853 308.941 62.72 308.898 62.976C308.856 63.2107 308.781 63.488 308.674 63.808C308.589 64.128 308.44 64.5333 308.226 65.024L306.594 69.536H304.002ZM332.243 64.704V61.248L332.019 60.512V54.464C332.019 53.2907 331.667 52.384 330.963 51.744C330.259 51.0827 329.192 50.752 327.763 50.752C326.803 50.752 325.853 50.9013 324.915 51.2C323.997 51.4987 323.219 51.9147 322.579 52.448L321.011 49.536C321.928 48.832 323.016 48.3093 324.275 47.968C325.555 47.6053 326.877 47.424 328.243 47.424C330.717 47.424 332.627 48.0213 333.971 49.216C335.336 50.3893 336.019 52.2133 336.019 54.688V64.704H332.243ZM326.867 64.928C325.587 64.928 324.467 64.7147 323.507 64.288C322.547 63.84 321.8 63.232 321.267 62.464C320.755 61.6747 320.499 60.7893 320.499 59.808C320.499 58.848 320.723 57.984 321.171 57.216C321.64 56.448 322.397 55.84 323.443 55.392C324.488 54.944 325.875 54.72 327.603 54.72H332.563V57.376H327.891C326.525 57.376 325.608 57.6 325.139 58.048C324.669 58.4747 324.435 59.008 324.435 59.648C324.435 60.3733 324.723 60.9493 325.299 61.376C325.875 61.8027 326.675 62.016 327.699 62.016C328.68 62.016 329.555 61.792 330.323 61.344C331.112 60.896 331.677 60.2347 332.019 59.36L332.691 61.76C332.307 62.7627 331.613 63.5413 330.611 64.096C329.629 64.6507 328.381 64.928 326.867 64.928ZM350.848 47.424C352.214 47.424 353.43 47.6907 354.496 48.224C355.584 48.7573 356.438 49.5787 357.056 50.688C357.675 51.776 357.984 53.184 357.984 54.912V64.704H353.984V55.424C353.984 53.9093 353.622 52.7787 352.896 52.032C352.192 51.2853 351.2 50.912 349.92 50.912C348.982 50.912 348.15 51.104 347.424 51.488C346.699 51.872 346.134 52.448 345.728 53.216C345.344 53.9627 345.152 54.912 345.152 56.064V64.704H341.152V47.616H344.96V52.224L344.288 50.816C344.886 49.728 345.75 48.896 346.88 48.32C348.032 47.7227 349.355 47.424 350.848 47.424ZM370.322 64.928C368.679 64.928 367.196 64.5653 365.874 63.84C364.572 63.0933 363.548 62.0693 362.802 60.768C362.055 59.4667 361.682 57.9307 361.682 56.16C361.682 54.3893 362.055 52.8533 362.802 51.552C363.548 50.2507 364.572 49.2373 365.874 48.512C367.196 47.7867 368.679 47.424 370.322 47.424C371.751 47.424 373.031 47.744 374.162 48.384C375.292 49.0027 376.188 49.952 376.85 51.232C377.511 52.512 377.842 54.1547 377.842 56.16C377.842 58.144 377.522 59.7867 376.882 61.088C376.242 62.368 375.356 63.328 374.226 63.968C373.095 64.608 371.794 64.928 370.322 64.928ZM370.802 61.504C371.762 61.504 372.615 61.2907 373.362 60.864C374.13 60.4373 374.738 59.8187 375.186 59.008C375.655 58.1973 375.89 57.248 375.89 56.16C375.89 55.0507 375.655 54.1013 375.186 53.312C374.738 52.5013 374.13 51.8827 373.362 51.456C372.615 51.0293 371.762 50.816 370.802 50.816C369.842 50.816 368.978 51.0293 368.21 51.456C367.463 51.8827 366.855 52.5013 366.386 53.312C365.938 54.1013 365.714 55.0507 365.714 56.16C365.714 57.248 365.938 58.1973 366.386 59.008C366.855 59.8187 367.463 60.4373 368.21 60.864C368.978 61.2907 369.842 61.504 370.802 61.504ZM375.986 64.704V60.672L376.146 56.128L375.826 51.584V40.96H379.794V64.704H375.986ZM401.646 71.136C400.068 71.136 398.521 70.9227 397.006 70.496C395.513 70.0907 394.286 69.4933 393.326 68.704L395.118 65.696C395.865 66.3147 396.804 66.8053 397.934 67.168C399.086 67.552 400.249 67.744 401.422 67.744C403.3 67.744 404.676 67.3067 405.55 66.432C406.425 65.5787 406.862 64.288 406.862 62.56V59.52L407.182 55.648L407.054 51.776V47.616H410.862V62.112C410.862 65.2053 410.073 67.4773 408.494 68.928C406.916 70.4 404.633 71.136 401.646 71.136ZM401.134 63.936C399.513 63.936 398.041 63.5947 396.718 62.912C395.417 62.208 394.382 61.2373 393.614 60C392.868 58.7627 392.494 57.312 392.494 55.648C392.494 54.0053 392.868 52.5653 393.614 51.328C394.382 50.0907 395.417 49.1307 396.718 48.448C398.041 47.7653 399.513 47.424 401.134 47.424C402.585 47.424 403.886 47.712 405.038 48.288C406.19 48.864 407.108 49.76 407.79 50.976C408.494 52.192 408.846 53.7493 408.846 55.648C408.846 57.5467 408.494 59.1147 407.79 60.352C407.108 61.568 406.19 62.4747 405.038 63.072C403.886 63.648 402.585 63.936 401.134 63.936ZM401.742 60.544C402.745 60.544 403.641 60.3413 404.43 59.936C405.22 59.5093 405.828 58.9333 406.254 58.208C406.702 57.4613 406.926 56.608 406.926 55.648C406.926 54.688 406.702 53.8453 406.254 53.12C405.828 52.3733 405.22 51.808 404.43 51.424C403.641 51.0187 402.745 50.816 401.742 50.816C400.74 50.816 399.833 51.0187 399.022 51.424C398.233 51.808 397.614 52.3733 397.166 53.12C396.74 53.8453 396.526 54.688 396.526 55.648C396.526 56.608 396.74 57.4613 397.166 58.208C397.614 58.9333 398.233 59.5093 399.022 59.936C399.833 60.3413 400.74 60.544 401.742 60.544ZM416.121 64.704V47.616H419.929V52.32L419.481 50.944C419.993 49.792 420.793 48.9173 421.881 48.32C422.99 47.7227 424.366 47.424 426.009 47.424V51.232C425.838 51.1893 425.678 51.168 425.529 51.168C425.38 51.1467 425.23 51.136 425.081 51.136C423.566 51.136 422.361 51.584 421.465 52.48C420.569 53.3547 420.121 54.6667 420.121 56.416V64.704H416.121ZM436.926 64.928C435.177 64.928 433.619 64.5547 432.254 63.808C430.889 63.04 429.811 61.9947 429.022 60.672C428.233 59.3493 427.838 57.8453 427.838 56.16C427.838 54.4533 428.233 52.9493 429.022 51.648C429.811 50.3253 430.889 49.2907 432.254 48.544C433.619 47.7973 435.177 47.424 436.926 47.424C438.697 47.424 440.265 47.7973 441.63 48.544C443.017 49.2907 444.094 50.3147 444.862 51.616C445.651 52.9173 446.046 54.432 446.046 56.16C446.046 57.8453 445.651 59.3493 444.862 60.672C444.094 61.9947 443.017 63.04 441.63 63.808C440.265 64.5547 438.697 64.928 436.926 64.928ZM436.926 61.504C437.907 61.504 438.782 61.2907 439.55 60.864C440.318 60.4373 440.915 59.8187 441.342 59.008C441.79 58.1973 442.014 57.248 442.014 56.16C442.014 55.0507 441.79 54.1013 441.342 53.312C440.915 52.5013 440.318 51.8827 439.55 51.456C438.782 51.0293 437.918 50.816 436.958 50.816C435.977 50.816 435.102 51.0293 434.334 51.456C433.587 51.8827 432.99 52.5013 432.542 53.312C432.094 54.1013 431.87 55.0507 431.87 56.16C431.87 57.248 432.094 58.1973 432.542 59.008C432.99 59.8187 433.587 60.4373 434.334 60.864C435.102 61.2907 435.966 61.504 436.926 61.504ZM453.178 64.704L446.906 47.616H450.682L456.058 62.688H454.266L459.898 47.616H463.258L468.73 62.688H466.97L472.506 47.616H476.058L469.754 64.704H465.914L460.922 51.36H462.106L457.018 64.704H453.178ZM491.428 64.704L485.156 47.616H488.932L494.308 62.688H492.516L498.148 47.616H501.508L506.98 62.688H505.22L510.756 47.616H514.308L508.004 64.704H504.164L499.172 51.36H500.356L495.268 64.704H491.428ZM517.058 64.704V47.616H521.058V64.704H517.058ZM519.074 44.8C518.328 44.8 517.709 44.5653 517.218 44.096C516.749 43.6267 516.514 43.0613 516.514 42.4C516.514 41.7173 516.749 41.152 517.218 40.704C517.709 40.2347 518.328 40 519.074 40C519.821 40 520.429 40.224 520.898 40.672C521.389 41.0987 521.634 41.6427 521.634 42.304C521.634 43.008 521.4 43.6053 520.93 44.096C520.461 44.5653 519.842 44.8 519.074 44.8ZM532.74 64.928C530.863 64.928 529.412 64.448 528.388 63.488C527.364 62.5067 526.852 61.0667 526.852 59.168V43.84H530.852V59.072C530.852 59.8827 531.055 60.512 531.46 60.96C531.887 61.408 532.474 61.632 533.22 61.632C534.116 61.632 534.863 61.3973 535.46 60.928L536.58 63.776C536.111 64.16 535.535 64.448 534.852 64.64C534.17 64.832 533.466 64.928 532.74 64.928ZM524.036 50.944V47.744H535.428V50.944H524.036ZM549.567 47.424C550.932 47.424 552.148 47.6907 553.215 48.224C554.303 48.7573 555.156 49.5787 555.775 50.688C556.394 51.776 556.703 53.184 556.703 54.912V64.704H552.703V55.424C552.703 53.9093 552.34 52.7787 551.615 52.032C550.911 51.2853 549.919 50.912 548.639 50.912C547.7 50.912 546.868 51.104 546.143 51.488C545.418 51.872 544.852 52.448 544.447 53.216C544.063 53.9627 543.871 54.912 543.871 56.064V64.704H539.871V40.96H543.871V52.224L543.007 50.816C543.604 49.728 544.468 48.896 545.599 48.32C546.751 47.7227 548.074 47.424 549.567 47.424ZM580.093 64.928C578.706 64.928 577.437 64.608 576.285 63.968C575.154 63.328 574.248 62.368 573.565 61.088C572.904 59.7867 572.573 58.144 572.573 56.16C572.573 54.1547 572.893 52.512 573.533 51.232C574.194 49.952 575.09 49.0027 576.221 48.384C577.352 47.744 578.642 47.424 580.093 47.424C581.778 47.424 583.261 47.7867 584.541 48.512C585.842 49.2373 586.866 50.2507 587.613 51.552C588.381 52.8533 588.765 54.3893 588.765 56.16C588.765 57.9307 588.381 59.4773 587.613 60.8C586.866 62.1013 585.842 63.1147 584.541 63.84C583.261 64.5653 581.778 64.928 580.093 64.928ZM570.621 70.912V47.616H574.429V51.648L574.301 56.192L574.621 60.736V70.912H570.621ZM579.645 61.504C580.605 61.504 581.458 61.2907 582.205 60.864C582.973 60.4373 583.581 59.8187 584.029 59.008C584.477 58.1973 584.701 57.248 584.701 56.16C584.701 55.0507 584.477 54.1013 584.029 53.312C583.581 52.5013 582.973 51.8827 582.205 51.456C581.458 51.0293 580.605 50.816 579.645 50.816C578.685 50.816 577.821 51.0293 577.053 51.456C576.285 51.8827 575.677 52.5013 575.229 53.312C574.781 54.1013 574.557 55.0507 574.557 56.16C574.557 57.248 574.781 58.1973 575.229 59.008C575.677 59.8187 576.285 60.4373 577.053 60.864C577.821 61.2907 578.685 61.504 579.645 61.504ZM600.238 64.928C598.489 64.928 596.932 64.5547 595.566 63.808C594.201 63.04 593.124 61.9947 592.334 60.672C591.545 59.3493 591.15 57.8453 591.15 56.16C591.15 54.4533 591.545 52.9493 592.334 51.648C593.124 50.3253 594.201 49.2907 595.566 48.544C596.932 47.7973 598.489 47.424 600.238 47.424C602.009 47.424 603.577 47.7973 604.942 48.544C606.329 49.2907 607.406 50.3147 608.174 51.616C608.964 52.9173 609.358 54.432 609.358 56.16C609.358 57.8453 608.964 59.3493 608.174 60.672C607.406 61.9947 606.329 63.04 604.942 63.808C603.577 64.5547 602.009 64.928 600.238 64.928ZM600.238 61.504C601.22 61.504 602.094 61.2907 602.862 60.864C603.63 60.4373 604.228 59.8187 604.654 59.008C605.102 58.1973 605.326 57.248 605.326 56.16C605.326 55.0507 605.102 54.1013 604.654 53.312C604.228 52.5013 603.63 51.8827 602.862 51.456C602.094 51.0293 601.23 50.816 600.27 50.816C599.289 50.816 598.414 51.0293 597.646 51.456C596.9 51.8827 596.302 52.5013 595.854 53.312C595.406 54.1013 595.182 55.0507 595.182 56.16C595.182 57.248 595.406 58.1973 595.854 59.008C596.302 59.8187 596.9 60.4373 597.646 60.864C598.414 61.2907 599.278 61.504 600.238 61.504ZM616.491 64.704L610.219 47.616H613.995L619.371 62.688H617.579L623.211 47.616H626.571L632.043 62.688H630.283L635.819 47.616H639.371L633.067 64.704H629.227L624.235 51.36H625.419L620.331 64.704H616.491ZM649.684 64.928C647.786 64.928 646.122 64.5547 644.692 63.808C643.284 63.04 642.186 61.9947 641.396 60.672C640.628 59.3493 640.244 57.8453 640.244 56.16C640.244 54.4533 640.618 52.9493 641.364 51.648C642.132 50.3253 643.178 49.2907 644.5 48.544C645.844 47.7973 647.37 47.424 649.076 47.424C650.74 47.424 652.223 47.7867 653.524 48.512C654.826 49.2373 655.85 50.2613 656.596 51.584C657.343 52.9067 657.716 54.464 657.716 56.256C657.716 56.4267 657.706 56.6187 657.684 56.832C657.684 57.0453 657.674 57.248 657.652 57.44H643.412V54.784H655.54L653.972 55.616C653.994 54.6347 653.791 53.7707 653.364 53.024C652.938 52.2773 652.351 51.6907 651.604 51.264C650.879 50.8373 650.036 50.624 649.076 50.624C648.095 50.624 647.231 50.8373 646.484 51.264C645.759 51.6907 645.183 52.288 644.756 53.056C644.351 53.8027 644.148 54.688 644.148 55.712V56.352C644.148 57.376 644.383 58.2827 644.852 59.072C645.322 59.8613 645.983 60.4693 646.836 60.896C647.69 61.3227 648.671 61.536 649.78 61.536C650.74 61.536 651.604 61.3867 652.372 61.088C653.14 60.7893 653.823 60.32 654.42 59.68L656.564 62.144C655.796 63.04 654.826 63.7333 653.652 64.224C652.5 64.6933 651.178 64.928 649.684 64.928ZM661.558 64.704V47.616H665.366V52.32L664.918 50.944C665.43 49.792 666.23 48.9173 667.318 48.32C668.428 47.7227 669.804 47.424 671.446 47.424V51.232C671.276 51.1893 671.116 51.168 670.966 51.168C670.817 51.1467 670.668 51.136 670.518 51.136C669.004 51.136 667.798 51.584 666.902 52.48C666.006 53.3547 665.558 54.6667 665.558 56.416V64.704H661.558ZM675.54 64.704V46.656C675.54 44.864 676.063 43.4347 677.108 42.368C678.175 41.28 679.689 40.736 681.652 40.736C682.356 40.736 683.017 40.8107 683.636 40.96C684.276 41.1093 684.809 41.344 685.236 41.664L684.148 44.672C683.849 44.4373 683.508 44.2667 683.124 44.16C682.74 44.032 682.345 43.968 681.94 43.968C681.108 43.968 680.479 44.2027 680.052 44.672C679.625 45.12 679.412 45.8027 679.412 46.72V48.64L679.54 50.432V64.704H675.54ZM672.724 50.944V47.744H684.116V50.944H672.724ZM694.04 64.928C692.59 64.928 691.31 64.6613 690.2 64.128C689.091 63.5733 688.227 62.7413 687.608 61.632C686.99 60.5013 686.68 59.0827 686.68 57.376V47.616H690.68V56.832C690.68 58.368 691.022 59.52 691.704 60.288C692.408 61.0347 693.4 61.408 694.68 61.408C695.619 61.408 696.43 61.216 697.112 60.832C697.816 60.448 698.36 59.872 698.744 59.104C699.15 58.336 699.352 57.3867 699.352 56.256V47.616H703.352V64.704H699.544V60.096L700.216 61.504C699.64 62.6133 698.798 63.4667 697.688 64.064C696.579 64.64 695.363 64.928 694.04 64.928ZM708.59 64.704V40.96H712.59V64.704H708.59ZM733.115 64.928C731.238 64.928 729.787 64.448 728.763 63.488C727.739 62.5067 727.227 61.0667 727.227 59.168V43.84H731.227V59.072C731.227 59.8827 731.43 60.512 731.835 60.96C732.262 61.408 732.849 61.632 733.595 61.632C734.491 61.632 735.238 61.3973 735.835 60.928L736.955 63.776C736.486 64.16 735.91 64.448 735.227 64.64C734.545 64.832 733.841 64.928 733.115 64.928ZM724.411 50.944V47.744H735.803V50.944H724.411ZM747.363 64.928C745.614 64.928 744.057 64.5547 742.691 63.808C741.326 63.04 740.249 61.9947 739.459 60.672C738.67 59.3493 738.275 57.8453 738.275 56.16C738.275 54.4533 738.67 52.9493 739.459 51.648C740.249 50.3253 741.326 49.2907 742.691 48.544C744.057 47.7973 745.614 47.424 747.363 47.424C749.134 47.424 750.702 47.7973 752.067 48.544C753.454 49.2907 754.531 50.3147 755.299 51.616C756.089 52.9173 756.483 54.432 756.483 56.16C756.483 57.8453 756.089 59.3493 755.299 60.672C754.531 61.9947 753.454 63.04 752.067 63.808C750.702 64.5547 749.134 64.928 747.363 64.928ZM747.363 61.504C748.345 61.504 749.219 61.2907 749.987 60.864C750.755 60.4373 751.353 59.8187 751.779 59.008C752.227 58.1973 752.451 57.248 752.451 56.16C752.451 55.0507 752.227 54.1013 751.779 53.312C751.353 52.5013 750.755 51.8827 749.987 51.456C749.219 51.0293 748.355 50.816 747.395 50.816C746.414 50.816 745.539 51.0293 744.771 51.456C744.025 51.8827 743.427 52.5013 742.979 53.312C742.531 54.1013 742.307 55.0507 742.307 56.16C742.307 57.248 742.531 58.1973 742.979 59.008C743.427 59.8187 744.025 60.4373 744.771 60.864C745.539 61.2907 746.403 61.504 747.363 61.504ZM767.988 64.928C766.239 64.928 764.682 64.5547 763.316 63.808C761.951 63.04 760.874 61.9947 760.084 60.672C759.295 59.3493 758.9 57.8453 758.9 56.16C758.9 54.4533 759.295 52.9493 760.084 51.648C760.874 50.3253 761.951 49.2907 763.316 48.544C764.682 47.7973 766.239 47.424 767.988 47.424C769.759 47.424 771.327 47.7973 772.692 48.544C774.079 49.2907 775.156 50.3147 775.924 51.616C776.714 52.9173 777.108 54.432 777.108 56.16C777.108 57.8453 776.714 59.3493 775.924 60.672C775.156 61.9947 774.079 63.04 772.692 63.808C771.327 64.5547 769.759 64.928 767.988 64.928ZM767.988 61.504C768.97 61.504 769.844 61.2907 770.612 60.864C771.38 60.4373 771.978 59.8187 772.404 59.008C772.852 58.1973 773.076 57.248 773.076 56.16C773.076 55.0507 772.852 54.1013 772.404 53.312C771.978 52.5013 771.38 51.8827 770.612 51.456C769.844 51.0293 768.98 50.816 768.02 50.816C767.039 50.816 766.164 51.0293 765.396 51.456C764.65 51.8827 764.052 52.5013 763.604 53.312C763.156 54.1013 762.932 55.0507 762.932 56.16C762.932 57.248 763.156 58.1973 763.604 59.008C764.052 59.8187 764.65 60.4373 765.396 60.864C766.164 61.2907 767.028 61.504 767.988 61.504ZM780.933 64.704V40.96H784.933V64.704H780.933ZM795.463 64.928C794.034 64.928 792.658 64.7467 791.335 64.384C790.034 64 788.999 63.5413 788.231 63.008L789.767 59.968C790.535 60.4587 791.453 60.864 792.519 61.184C793.586 61.504 794.653 61.664 795.719 61.664C796.978 61.664 797.885 61.4933 798.439 61.152C799.015 60.8107 799.303 60.352 799.303 59.776C799.303 59.3067 799.111 58.9547 798.727 58.72C798.343 58.464 797.842 58.272 797.223 58.144C796.605 58.016 795.911 57.8987 795.143 57.792C794.397 57.6853 793.639 57.5467 792.871 57.376C792.125 57.184 791.442 56.9173 790.823 56.576C790.205 56.2133 789.703 55.7333 789.319 55.136C788.935 54.5387 788.743 53.7493 788.743 52.768C788.743 51.68 789.053 50.7413 789.671 49.952C790.29 49.1413 791.154 48.5227 792.263 48.096C793.394 47.648 794.727 47.424 796.263 47.424C797.415 47.424 798.578 47.552 799.751 47.808C800.925 48.064 801.895 48.4267 802.663 48.896L801.127 51.936C800.317 51.4453 799.495 51.1147 798.663 50.944C797.853 50.752 797.042 50.656 796.231 50.656C795.015 50.656 794.109 50.8373 793.511 51.2C792.935 51.5627 792.647 52.0213 792.647 52.576C792.647 53.088 792.839 53.472 793.223 53.728C793.607 53.984 794.109 54.1867 794.727 54.336C795.346 54.4853 796.029 54.6133 796.775 54.72C797.543 54.8053 798.301 54.944 799.047 55.136C799.794 55.328 800.477 55.5947 801.095 55.936C801.735 56.256 802.247 56.7147 802.631 57.312C803.015 57.9093 803.207 58.688 803.207 59.648C803.207 60.7147 802.887 61.6427 802.247 62.432C801.629 63.2213 800.743 63.84 799.591 64.288C798.439 64.7147 797.063 64.928 795.463 64.928ZM822.728 64.928C821.085 64.928 819.603 64.5653 818.28 63.84C816.979 63.0933 815.955 62.0693 815.208 60.768C814.461 59.4667 814.088 57.9307 814.088 56.16C814.088 54.3893 814.461 52.8533 815.208 51.552C815.955 50.2507 816.979 49.2373 818.28 48.512C819.603 47.7867 821.085 47.424 822.728 47.424C824.157 47.424 825.437 47.744 826.568 48.384C827.699 49.0027 828.595 49.952 829.256 51.232C829.917 52.512 830.248 54.1547 830.248 56.16C830.248 58.144 829.928 59.7867 829.288 61.088C828.648 62.368 827.763 63.328 826.632 63.968C825.501 64.608 824.2 64.928 822.728 64.928ZM823.208 61.504C824.168 61.504 825.021 61.2907 825.768 60.864C826.536 60.4373 827.144 59.8187 827.592 59.008C828.061 58.1973 828.296 57.248 828.296 56.16C828.296 55.0507 828.061 54.1013 827.592 53.312C827.144 52.5013 826.536 51.8827 825.768 51.456C825.021 51.0293 824.168 50.816 823.208 50.816C822.248 50.816 821.384 51.0293 820.616 51.456C819.869 51.8827 819.261 52.5013 818.792 53.312C818.344 54.1013 818.12 55.0507 818.12 56.16C818.12 57.248 818.344 58.1973 818.792 59.008C819.261 59.8187 819.869 60.4373 820.616 60.864C821.384 61.2907 822.248 61.504 823.208 61.504ZM828.392 64.704V60.672L828.552 56.128L828.232 51.584V40.96H832.2V64.704H828.392ZM845.497 64.928C843.598 64.928 841.934 64.5547 840.505 63.808C839.097 63.04 837.998 61.9947 837.209 60.672C836.441 59.3493 836.057 57.8453 836.057 56.16C836.057 54.4533 836.43 52.9493 837.177 51.648C837.945 50.3253 838.99 49.2907 840.313 48.544C841.657 47.7973 843.182 47.424 844.889 47.424C846.553 47.424 848.035 47.7867 849.337 48.512C850.638 49.2373 851.662 50.2613 852.409 51.584C853.155 52.9067 853.529 54.464 853.529 56.256C853.529 56.4267 853.518 56.6187 853.497 56.832C853.497 57.0453 853.486 57.248 853.465 57.44H839.225V54.784H851.353L849.785 55.616C849.806 54.6347 849.603 53.7707 849.177 53.024C848.75 52.2773 848.163 51.6907 847.417 51.264C846.691 50.8373 845.849 50.624 844.889 50.624C843.907 50.624 843.043 50.8373 842.297 51.264C841.571 51.6907 840.995 52.288 840.569 53.056C840.163 53.8027 839.961 54.688 839.961 55.712V56.352C839.961 57.376 840.195 58.2827 840.665 59.072C841.134 59.8613 841.795 60.4693 842.649 60.896C843.502 61.3227 844.483 61.536 845.593 61.536C846.553 61.536 847.417 61.3867 848.185 61.088C848.953 60.7893 849.635 60.32 850.233 59.68L852.377 62.144C851.609 63.04 850.638 63.7333 849.465 64.224C848.313 64.6933 846.99 64.928 845.497 64.928ZM862.651 64.928C861.222 64.928 859.846 64.7467 858.523 64.384C857.222 64 856.187 63.5413 855.419 63.008L856.955 59.968C857.723 60.4587 858.64 60.864 859.707 61.184C860.774 61.504 861.84 61.664 862.907 61.664C864.166 61.664 865.072 61.4933 865.627 61.152C866.203 60.8107 866.491 60.352 866.491 59.776C866.491 59.3067 866.299 58.9547 865.915 58.72C865.531 58.464 865.03 58.272 864.411 58.144C863.792 58.016 863.099 57.8987 862.331 57.792C861.584 57.6853 860.827 57.5467 860.059 57.376C859.312 57.184 858.63 56.9173 858.011 56.576C857.392 56.2133 856.891 55.7333 856.507 55.136C856.123 54.5387 855.931 53.7493 855.931 52.768C855.931 51.68 856.24 50.7413 856.859 49.952C857.478 49.1413 858.342 48.5227 859.451 48.096C860.582 47.648 861.915 47.424 863.451 47.424C864.603 47.424 865.766 47.552 866.939 47.808C868.112 48.064 869.083 48.4267 869.851 48.896L868.315 51.936C867.504 51.4453 866.683 51.1147 865.851 50.944C865.04 50.752 864.23 50.656 863.419 50.656C862.203 50.656 861.296 50.8373 860.699 51.2C860.123 51.5627 859.835 52.0213 859.835 52.576C859.835 53.088 860.027 53.472 860.411 53.728C860.795 53.984 861.296 54.1867 861.915 54.336C862.534 54.4853 863.216 54.6133 863.963 54.72C864.731 54.8053 865.488 54.944 866.235 55.136C866.982 55.328 867.664 55.5947 868.283 55.936C868.923 56.256 869.435 56.7147 869.819 57.312C870.203 57.9093 870.395 58.688 870.395 59.648C870.395 60.7147 870.075 61.6427 869.435 62.432C868.816 63.2213 867.931 63.84 866.779 64.288C865.627 64.7147 864.251 64.928 862.651 64.928ZM873.84 64.704V47.616H877.84V64.704H873.84ZM875.856 44.8C875.109 44.8 874.49 44.5653 874 44.096C873.53 43.6267 873.296 43.0613 873.296 42.4C873.296 41.7173 873.53 41.152 874 40.704C874.49 40.2347 875.109 40 875.856 40C876.602 40 877.21 40.224 877.68 40.672C878.17 41.0987 878.416 41.6427 878.416 42.304C878.416 43.008 878.181 43.6053 877.712 44.096C877.242 44.5653 876.624 44.8 875.856 44.8ZM890.834 71.136C889.255 71.136 887.708 70.9227 886.194 70.496C884.7 70.0907 883.474 69.4933 882.514 68.704L884.306 65.696C885.052 66.3147 885.991 66.8053 887.122 67.168C888.274 67.552 889.436 67.744 890.61 67.744C892.487 67.744 893.863 67.3067 894.738 66.432C895.612 65.5787 896.05 64.288 896.05 62.56V59.52L896.37 55.648L896.242 51.776V47.616H900.05V62.112C900.05 65.2053 899.26 67.4773 897.682 68.928C896.103 70.4 893.82 71.136 890.834 71.136ZM890.322 63.936C888.7 63.936 887.228 63.5947 885.906 62.912C884.604 62.208 883.57 61.2373 882.802 60C882.055 58.7627 881.682 57.312 881.682 55.648C881.682 54.0053 882.055 52.5653 882.802 51.328C883.57 50.0907 884.604 49.1307 885.906 48.448C887.228 47.7653 888.7 47.424 890.322 47.424C891.772 47.424 893.074 47.712 894.226 48.288C895.378 48.864 896.295 49.76 896.978 50.976C897.682 52.192 898.034 53.7493 898.034 55.648C898.034 57.5467 897.682 59.1147 896.978 60.352C896.295 61.568 895.378 62.4747 894.226 63.072C893.074 63.648 891.772 63.936 890.322 63.936ZM890.93 60.544C891.932 60.544 892.828 60.3413 893.618 59.936C894.407 59.5093 895.015 58.9333 895.442 58.208C895.89 57.4613 896.114 56.608 896.114 55.648C896.114 54.688 895.89 53.8453 895.442 53.12C895.015 52.3733 894.407 51.808 893.618 51.424C892.828 51.0187 891.932 50.816 890.93 50.816C889.927 50.816 889.02 51.0187 888.21 51.424C887.42 51.808 886.802 52.3733 886.354 53.12C885.927 53.8453 885.714 54.688 885.714 55.648C885.714 56.608 885.927 57.4613 886.354 58.208C886.802 58.9333 887.42 59.5093 888.21 59.936C889.02 60.3413 889.927 60.544 890.93 60.544ZM915.004 47.424C916.37 47.424 917.586 47.6907 918.652 48.224C919.74 48.7573 920.594 49.5787 921.212 50.688C921.831 51.776 922.14 53.184 922.14 54.912V64.704H918.14V55.424C918.14 53.9093 917.778 52.7787 917.052 52.032C916.348 51.2853 915.356 50.912 914.076 50.912C913.138 50.912 912.306 51.104 911.58 51.488C910.855 51.872 910.29 52.448 909.884 53.216C909.5 53.9627 909.308 54.912 909.308 56.064V64.704H905.308V47.616H909.116V52.224L908.444 50.816C909.042 49.728 909.906 48.896 911.036 48.32C912.188 47.7227 913.511 47.424 915.004 47.424ZM935.278 64.928C933.379 64.928 931.715 64.5547 930.286 63.808C928.878 63.04 927.779 61.9947 926.99 60.672C926.222 59.3493 925.838 57.8453 925.838 56.16C925.838 54.4533 926.211 52.9493 926.958 51.648C927.726 50.3253 928.771 49.2907 930.094 48.544C931.438 47.7973 932.963 47.424 934.67 47.424C936.334 47.424 937.817 47.7867 939.118 48.512C940.419 49.2373 941.443 50.2613 942.19 51.584C942.937 52.9067 943.31 54.464 943.31 56.256C943.31 56.4267 943.299 56.6187 943.278 56.832C943.278 57.0453 943.267 57.248 943.246 57.44H929.006V54.784H941.134L939.566 55.616C939.587 54.6347 939.385 53.7707 938.958 53.024C938.531 52.2773 937.945 51.6907 937.198 51.264C936.473 50.8373 935.63 50.624 934.67 50.624C933.689 50.624 932.825 50.8373 932.078 51.264C931.353 51.6907 930.777 52.288 930.35 53.056C929.945 53.8027 929.742 54.688 929.742 55.712V56.352C929.742 57.376 929.977 58.2827 930.446 59.072C930.915 59.8613 931.577 60.4693 932.43 60.896C933.283 61.3227 934.265 61.536 935.374 61.536C936.334 61.536 937.198 61.3867 937.966 61.088C938.734 60.7893 939.417 60.32 940.014 59.68L942.158 62.144C941.39 63.04 940.419 63.7333 939.246 64.224C938.094 64.6933 936.771 64.928 935.278 64.928ZM954.384 64.928C952.742 64.928 951.259 64.5653 949.936 63.84C948.635 63.0933 947.611 62.0693 946.864 60.768C946.118 59.4667 945.744 57.9307 945.744 56.16C945.744 54.3893 946.118 52.8533 946.864 51.552C947.611 50.2507 948.635 49.2373 949.936 48.512C951.259 47.7867 952.742 47.424 954.384 47.424C955.814 47.424 957.094 47.744 958.224 48.384C959.355 49.0027 960.251 49.952 960.912 51.232C961.574 52.512 961.904 54.1547 961.904 56.16C961.904 58.144 961.584 59.7867 960.944 61.088C960.304 62.368 959.419 63.328 958.288 63.968C957.158 64.608 955.856 64.928 954.384 64.928ZM954.864 61.504C955.824 61.504 956.678 61.2907 957.424 60.864C958.192 60.4373 958.8 59.8187 959.248 59.008C959.718 58.1973 959.952 57.248 959.952 56.16C959.952 55.0507 959.718 54.1013 959.248 53.312C958.8 52.5013 958.192 51.8827 957.424 51.456C956.678 51.0293 955.824 50.816 954.864 50.816C953.904 50.816 953.04 51.0293 952.272 51.456C951.526 51.8827 950.918 52.5013 950.448 53.312C950 54.1013 949.776 55.0507 949.776 56.16C949.776 57.248 950 58.1973 950.448 59.008C950.918 59.8187 951.526 60.4373 952.272 60.864C953.04 61.2907 953.904 61.504 954.864 61.504ZM960.048 64.704V60.672L960.208 56.128L959.888 51.584V40.96H963.856V64.704H960.048ZM978.509 64.704V46.656C978.509 44.864 979.031 43.4347 980.077 42.368C981.143 41.28 982.658 40.736 984.621 40.736C985.325 40.736 985.986 40.8107 986.605 40.96C987.245 41.1093 987.778 41.344 988.205 41.664L987.117 44.672C986.818 44.4373 986.477 44.2667 986.093 44.16C985.709 44.032 985.314 43.968 984.909 43.968C984.077 43.968 983.447 44.2027 983.021 44.672C982.594 45.12 982.381 45.8027 982.381 46.72V48.64L982.509 50.432V64.704H978.509ZM975.693 50.944V47.744H987.085V50.944H975.693ZM997.207 64.928C995.458 64.928 993.901 64.5547 992.535 63.808C991.17 63.04 990.093 61.9947 989.303 60.672C988.514 59.3493 988.119 57.8453 988.119 56.16C988.119 54.4533 988.514 52.9493 989.303 51.648C990.093 50.3253 991.17 49.2907 992.535 48.544C993.901 47.7973 995.458 47.424 997.207 47.424C998.978 47.424 1000.55 47.7973 1001.91 48.544C1003.3 49.2907 1004.38 50.3147 1005.14 51.616C1005.93 52.9173 1006.33 54.432 1006.33 56.16C1006.33 57.8453 1005.93 59.3493 1005.14 60.672C1004.38 61.9947 1003.3 63.04 1001.91 63.808C1000.55 64.5547 998.978 64.928 997.207 64.928ZM997.207 61.504C998.189 61.504 999.063 61.2907 999.831 60.864C1000.6 60.4373 1001.2 59.8187 1001.62 59.008C1002.07 58.1973 1002.3 57.248 1002.3 56.16C1002.3 55.0507 1002.07 54.1013 1001.62 53.312C1001.2 52.5013 1000.6 51.8827 999.831 51.456C999.063 51.0293 998.199 50.816 997.239 50.816C996.258 50.816 995.383 51.0293 994.615 51.456C993.869 51.8827 993.271 52.5013 992.823 53.312C992.375 54.1013 992.151 55.0507 992.151 56.16C992.151 57.248 992.375 58.1973 992.823 59.008C993.271 59.8187 993.869 60.4373 994.615 60.864C995.383 61.2907 996.247 61.504 997.207 61.504ZM1010.15 64.704V47.616H1013.96V52.32L1013.51 50.944C1014.02 49.792 1014.82 48.9173 1015.91 48.32C1017.02 47.7227 1018.4 47.424 1020.04 47.424V51.232C1019.87 51.1893 1019.71 51.168 1019.56 51.168C1019.41 51.1467 1019.26 51.136 1019.11 51.136C1017.6 51.136 1016.39 51.584 1015.5 52.48C1014.6 53.3547 1014.15 54.6667 1014.15 56.416V64.704H1010.15ZM1038.87 64.928C1036.99 64.928 1035.54 64.448 1034.51 63.488C1033.49 62.5067 1032.98 61.0667 1032.98 59.168V43.84H1036.98V59.072C1036.98 59.8827 1037.18 60.512 1037.59 60.96C1038.01 61.408 1038.6 61.632 1039.35 61.632C1040.24 61.632 1040.99 61.3973 1041.59 60.928L1042.71 63.776C1042.24 64.16 1041.66 64.448 1040.98 64.64C1040.29 64.832 1039.59 64.928 1038.87 64.928ZM1030.16 50.944V47.744H1041.55V50.944H1030.16ZM1053.47 64.928C1051.57 64.928 1049.9 64.5547 1048.47 63.808C1047.07 63.04 1045.97 61.9947 1045.18 60.672C1044.41 59.3493 1044.03 57.8453 1044.03 56.16C1044.03 54.4533 1044.4 52.9493 1045.15 51.648C1045.91 50.3253 1046.96 49.2907 1048.28 48.544C1049.63 47.7973 1051.15 47.424 1052.86 47.424C1054.52 47.424 1056 47.7867 1057.31 48.512C1058.61 49.2373 1059.63 50.2613 1060.38 51.584C1061.12 52.9067 1061.5 54.464 1061.5 56.256C1061.5 56.4267 1061.49 56.6187 1061.47 56.832C1061.47 57.0453 1061.45 57.248 1061.43 57.44H1047.19V54.784H1059.32L1057.75 55.616C1057.77 54.6347 1057.57 53.7707 1057.15 53.024C1056.72 52.2773 1056.13 51.6907 1055.39 51.264C1054.66 50.8373 1053.82 50.624 1052.86 50.624C1051.88 50.624 1051.01 50.8373 1050.27 51.264C1049.54 51.6907 1048.96 52.288 1048.54 53.056C1048.13 53.8027 1047.93 54.688 1047.93 55.712V56.352C1047.93 57.376 1048.16 58.2827 1048.63 59.072C1049.1 59.8613 1049.76 60.4693 1050.62 60.896C1051.47 61.3227 1052.45 61.536 1053.56 61.536C1054.52 61.536 1055.39 61.3867 1056.15 61.088C1056.92 60.7893 1057.6 60.32 1058.2 59.68L1060.35 62.144C1059.58 63.04 1058.61 63.7333 1057.43 64.224C1056.28 64.6933 1054.96 64.928 1053.47 64.928ZM1075.4 64.704V61.248L1075.17 60.512V54.464C1075.17 53.2907 1074.82 52.384 1074.12 51.744C1073.41 51.0827 1072.35 50.752 1070.92 50.752C1069.96 50.752 1069.01 50.9013 1068.07 51.2C1067.15 51.4987 1066.37 51.9147 1065.73 52.448L1064.17 49.536C1065.08 48.832 1066.17 48.3093 1067.43 47.968C1068.71 47.6053 1070.03 47.424 1071.4 47.424C1073.87 47.424 1075.78 48.0213 1077.13 49.216C1078.49 50.3893 1079.17 52.2133 1079.17 54.688V64.704H1075.4ZM1070.02 64.928C1068.74 64.928 1067.62 64.7147 1066.66 64.288C1065.7 63.84 1064.96 63.232 1064.42 62.464C1063.91 61.6747 1063.65 60.7893 1063.65 59.808C1063.65 58.848 1063.88 57.984 1064.33 57.216C1064.8 56.448 1065.55 55.84 1066.6 55.392C1067.64 54.944 1069.03 54.72 1070.76 54.72H1075.72V57.376H1071.05C1069.68 57.376 1068.76 57.6 1068.29 58.048C1067.83 58.4747 1067.59 59.008 1067.59 59.648C1067.59 60.3733 1067.88 60.9493 1068.45 61.376C1069.03 61.8027 1069.83 62.016 1070.85 62.016C1071.84 62.016 1072.71 61.792 1073.48 61.344C1074.27 60.896 1074.83 60.2347 1075.17 59.36L1075.85 61.76C1075.46 62.7627 1074.77 63.5413 1073.77 64.096C1072.79 64.6507 1071.54 64.928 1070.02 64.928ZM1105.88 47.424C1107.24 47.424 1108.45 47.6907 1109.49 48.224C1110.56 48.7573 1111.39 49.5787 1111.99 50.688C1112.59 51.776 1112.88 53.184 1112.88 54.912V64.704H1108.88V55.424C1108.88 53.9093 1108.55 52.7787 1107.89 52.032C1107.23 51.2853 1106.28 50.912 1105.04 50.912C1104.17 50.912 1103.39 51.104 1102.71 51.488C1102.05 51.872 1101.52 52.4373 1101.14 53.184C1100.78 53.9307 1100.6 54.88 1100.6 56.032V64.704H1096.6V55.424C1096.6 53.9093 1096.27 52.7787 1095.6 52.032C1094.94 51.2853 1093.99 50.912 1092.76 50.912C1091.88 50.912 1091.1 51.104 1090.42 51.488C1089.76 51.872 1089.24 52.4373 1088.85 53.184C1088.49 53.9307 1088.31 54.88 1088.31 56.032V64.704H1084.31V47.616H1088.12V52.16L1087.44 50.816C1088.02 49.7067 1088.85 48.864 1089.94 48.288C1091.05 47.712 1092.31 47.424 1093.72 47.424C1095.32 47.424 1096.7 47.8187 1097.88 48.608C1099.07 49.3973 1099.86 50.592 1100.24 52.192L1098.68 51.648C1099.23 50.368 1100.15 49.344 1101.43 48.576C1102.71 47.808 1104.19 47.424 1105.88 47.424ZM1123.28 64.928C1121.85 64.928 1120.47 64.7467 1119.15 64.384C1117.85 64 1116.81 63.5413 1116.04 63.008L1117.58 59.968C1118.35 60.4587 1119.27 60.864 1120.33 61.184C1121.4 61.504 1122.47 61.664 1123.53 61.664C1124.79 61.664 1125.7 61.4933 1126.25 61.152C1126.83 60.8107 1127.12 60.352 1127.12 59.776C1127.12 59.3067 1126.92 58.9547 1126.54 58.72C1126.16 58.464 1125.65 58.272 1125.04 58.144C1124.42 58.016 1123.72 57.8987 1122.96 57.792C1122.21 57.6853 1121.45 57.5467 1120.68 57.376C1119.94 57.184 1119.25 56.9173 1118.64 56.576C1118.02 56.2133 1117.52 55.7333 1117.13 55.136C1116.75 54.5387 1116.56 53.7493 1116.56 52.768C1116.56 51.68 1116.87 50.7413 1117.48 49.952C1118.1 49.1413 1118.97 48.5227 1120.08 48.096C1121.21 47.648 1122.54 47.424 1124.08 47.424C1125.23 47.424 1126.39 47.552 1127.56 47.808C1128.74 48.064 1129.71 48.4267 1130.48 48.896L1128.94 51.936C1128.13 51.4453 1127.31 51.1147 1126.48 50.944C1125.67 50.752 1124.85 50.656 1124.04 50.656C1122.83 50.656 1121.92 50.8373 1121.32 51.2C1120.75 51.5627 1120.46 52.0213 1120.46 52.576C1120.46 53.088 1120.65 53.472 1121.04 53.728C1121.42 53.984 1121.92 54.1867 1122.54 54.336C1123.16 54.4853 1123.84 54.6133 1124.59 54.72C1125.36 54.8053 1126.11 54.944 1126.86 55.136C1127.61 55.328 1128.29 55.5947 1128.91 55.936C1129.55 56.256 1130.06 56.7147 1130.44 57.312C1130.83 57.9093 1131.02 58.688 1131.02 59.648C1131.02 60.7147 1130.7 61.6427 1130.06 62.432C1129.44 63.2213 1128.56 63.84 1127.4 64.288C1126.25 64.7147 1124.88 64.928 1123.28 64.928ZM1135.74 64.928C1135.02 64.928 1134.4 64.6827 1133.89 64.192C1133.38 63.68 1133.12 63.04 1133.12 62.272C1133.12 61.4613 1133.38 60.8213 1133.89 60.352C1134.4 59.8613 1135.02 59.616 1135.74 59.616C1136.47 59.616 1137.09 59.8613 1137.6 60.352C1138.11 60.8213 1138.37 61.4613 1138.37 62.272C1138.37 63.04 1138.11 63.68 1137.6 64.192C1137.09 64.6827 1136.47 64.928 1135.74 64.928Z" fill="#FCFCFC"/>
</svg>
