<svg width="529" height="120" viewBox="0 0 529 120" fill="none" xmlns="http://www.w3.org/2000/svg">
<path d="M23.808 48.256C17.4507 48.256 12.48 46.4854 8.896 42.944C5.312 39.4027 3.52 34.3467 3.52 27.776V2.68803H13.888V27.392C13.888 31.6587 14.7627 34.7307 16.512 36.608C18.2613 38.4854 20.7147 39.424 23.872 39.424C27.0293 39.424 29.4827 38.4854 31.232 36.608C32.9813 34.7307 33.856 31.6587 33.856 27.392V2.68803H44.096V27.776C44.096 34.3467 42.304 39.4027 38.72 42.944C35.136 46.4854 30.1653 48.256 23.808 48.256ZM73.6055 12.544C76.3362 12.544 78.7682 13.0987 80.9015 14.208C83.0775 15.2747 84.7842 16.9387 86.0215 19.2C87.2588 21.4187 87.8775 24.2774 87.8775 27.776V47.488H77.8935V29.312C77.8935 26.5387 77.2748 24.4907 76.0375 23.168C74.8428 21.8454 73.1362 21.184 70.9175 21.184C69.3388 21.184 67.9095 21.5254 66.6295 22.208C65.3922 22.848 64.4108 23.8507 63.6855 25.216C63.0028 26.5814 62.6615 28.3307 62.6615 30.464V47.488H52.6775V13.056H62.2135V22.592L60.4215 19.712C61.6588 17.408 63.4295 15.6374 65.7335 14.4C68.0375 13.1627 70.6615 12.544 73.6055 12.544ZM116.319 48C113.29 48 110.687 47.36 108.511 46.08C106.335 44.8 104.671 42.8587 103.519 40.256C102.367 37.6107 101.791 34.2827 101.791 30.272C101.791 26.2187 102.389 22.8907 103.583 20.288C104.821 17.6854 106.527 15.744 108.703 14.464C110.879 13.184 113.418 12.544 116.319 12.544C119.562 12.544 122.463 13.2694 125.023 14.72C127.626 16.1707 129.674 18.2187 131.167 20.864C132.704 23.5094 133.472 26.6454 133.472 30.272C133.472 33.856 132.704 36.9707 131.167 39.616C129.674 42.2614 127.626 44.3307 125.023 45.824C122.463 47.2747 119.562 48 116.319 48ZM95.9675 47.488V3.43323e-05H105.951V20.032L105.311 30.208L105.503 40.448V47.488H95.9675ZM114.591 39.808C116.255 39.808 117.727 39.424 119.007 38.656C120.33 37.888 121.375 36.8 122.143 35.392C122.954 33.9414 123.359 32.2347 123.359 30.272C123.359 28.2667 122.954 26.56 122.143 25.152C121.375 23.744 120.33 22.656 119.007 21.888C117.727 21.12 116.255 20.736 114.591 20.736C112.927 20.736 111.434 21.12 110.111 21.888C108.789 22.656 107.743 23.744 106.975 25.152C106.207 26.56 105.823 28.2667 105.823 30.272C105.823 32.2347 106.207 33.9414 106.975 35.392C107.743 36.8 108.789 37.888 110.111 38.656C111.434 39.424 112.927 39.808 114.591 39.808ZM155.579 48C151.91 48 148.646 47.232 145.787 45.696C142.971 44.16 140.731 42.0694 139.067 39.424C137.446 36.736 136.635 33.6854 136.635 30.272C136.635 26.816 137.446 23.7654 139.067 21.12C140.731 18.432 142.971 16.3414 145.787 14.848C148.646 13.312 151.91 12.544 155.579 12.544C159.206 12.544 162.448 13.312 165.307 14.848C168.166 16.3414 170.406 18.4107 172.027 21.056C173.648 23.7014 174.459 26.7734 174.459 30.272C174.459 33.6854 173.648 36.736 172.027 39.424C170.406 42.0694 168.166 44.16 165.307 45.696C162.448 47.232 159.206 48 155.579 48ZM155.579 39.808C157.243 39.808 158.736 39.424 160.059 38.656C161.382 37.888 162.427 36.8 163.195 35.392C163.963 33.9414 164.347 32.2347 164.347 30.272C164.347 28.2667 163.963 26.56 163.195 25.152C162.427 23.744 161.382 22.656 160.059 21.888C158.736 21.12 157.243 20.736 155.579 20.736C153.915 20.736 152.422 21.12 151.099 21.888C149.776 22.656 148.71 23.744 147.899 25.152C147.131 26.56 146.747 28.2667 146.747 30.272C146.747 32.2347 147.131 33.9414 147.899 35.392C148.71 36.8 149.776 37.888 151.099 38.656C152.422 39.424 153.915 39.808 155.579 39.808ZM194.701 48C191.842 48 189.282 47.4454 187.02 46.336C184.802 45.2267 183.074 43.5414 181.836 41.28C180.599 38.976 179.98 36.0534 179.98 32.512V13.056H189.964V31.04C189.964 33.8987 190.562 36.0107 191.757 37.376C192.994 38.6987 194.722 39.36 196.941 39.36C198.476 39.36 199.842 39.04 201.037 38.4C202.231 37.7174 203.17 36.6934 203.853 35.328C204.535 33.92 204.877 32.1707 204.877 30.08V13.056H214.861V47.488H205.389V38.016L207.117 40.768C205.965 43.1574 204.258 44.9707 201.997 46.208C199.778 47.4027 197.346 48 194.701 48ZM244.078 12.544C246.809 12.544 249.241 13.0987 251.374 14.208C253.55 15.2747 255.257 16.9387 256.494 19.2C257.731 21.4187 258.35 24.2774 258.35 27.776V47.488H248.366V29.312C248.366 26.5387 247.747 24.4907 246.51 23.168C245.315 21.8454 243.609 21.184 241.39 21.184C239.811 21.184 238.382 21.5254 237.102 22.208C235.865 22.848 234.883 23.8507 234.158 25.216C233.475 26.5814 233.134 28.3307 233.134 30.464V47.488H223.15V13.056H232.686V22.592L230.894 19.712C232.131 17.408 233.902 15.6374 236.206 14.4C238.51 13.1627 241.134 12.544 244.078 12.544ZM281.474 48C278.231 48 275.309 47.2747 272.706 45.824C270.103 44.3307 268.034 42.2614 266.498 39.616C265.005 36.9707 264.258 33.856 264.258 30.272C264.258 26.6454 265.005 23.5094 266.498 20.864C268.034 18.2187 270.103 16.1707 272.706 14.72C275.309 13.2694 278.231 12.544 281.474 12.544C284.375 12.544 286.914 13.184 289.09 14.464C291.266 15.744 292.951 17.6854 294.146 20.288C295.341 22.8907 295.938 26.2187 295.938 30.272C295.938 34.2827 295.362 37.6107 294.21 40.256C293.058 42.8587 291.394 44.8 289.218 46.08C287.085 47.36 284.503 48 281.474 48ZM283.202 39.808C284.823 39.808 286.295 39.424 287.618 38.656C288.941 37.888 289.986 36.8 290.754 35.392C291.565 33.9414 291.97 32.2347 291.97 30.272C291.97 28.2667 291.565 26.56 290.754 25.152C289.986 23.744 288.941 22.656 287.618 21.888C286.295 21.12 284.823 20.736 283.202 20.736C281.538 20.736 280.045 21.12 278.722 21.888C277.399 22.656 276.333 23.744 275.522 25.152C274.754 26.56 274.37 28.2667 274.37 30.272C274.37 32.2347 274.754 33.9414 275.522 35.392C276.333 36.8 277.399 37.888 278.722 38.656C280.045 39.424 281.538 39.808 283.202 39.808ZM292.226 47.488V40.448L292.418 30.208L291.778 20.032V3.43323e-05H301.762V47.488H292.226Z" fill="#001EF4"/>
<path d="M347.56 48C344.53 48 341.928 47.36 339.752 46.08C337.576 44.8 335.912 42.8587 334.76 40.256C333.608 37.6107 333.032 34.2827 333.032 30.272C333.032 26.2187 333.629 22.8907 334.824 20.288C336.061 17.6854 337.768 15.744 339.944 14.464C342.12 13.184 344.658 12.544 347.56 12.544C350.802 12.544 353.704 13.2694 356.264 14.72C358.866 16.1707 360.914 18.2187 362.408 20.864C363.944 23.5094 364.712 26.6454 364.712 30.272C364.712 33.856 363.944 36.9707 362.408 39.616C360.914 42.2614 358.866 44.3307 356.264 45.824C353.704 47.2747 350.802 48 347.56 48ZM327.208 47.488V3.43323e-05H337.192V20.032L336.552 30.208L336.744 40.448V47.488H327.208ZM345.832 39.808C347.496 39.808 348.968 39.424 350.248 38.656C351.57 37.888 352.616 36.8 353.384 35.392C354.194 33.9414 354.6 32.2347 354.6 30.272C354.6 28.2667 354.194 26.56 353.384 25.152C352.616 23.744 351.57 22.656 350.248 21.888C348.968 21.12 347.496 20.736 345.832 20.736C344.168 20.736 342.674 21.12 341.352 21.888C340.029 22.656 338.984 23.744 338.216 25.152C337.448 26.56 337.064 28.2667 337.064 30.272C337.064 32.2347 337.448 33.9414 338.216 35.392C338.984 36.8 340.029 37.888 341.352 38.656C342.674 39.424 344.168 39.808 345.832 39.808ZM373.849 60.416C372.057 60.416 370.287 60.1387 368.537 59.584C366.788 59.0294 365.359 58.2614 364.249 57.28L367.897 50.176C368.665 50.8587 369.54 51.392 370.521 51.776C371.545 52.16 372.548 52.352 373.529 52.352C374.937 52.352 376.047 52.0107 376.857 51.328C377.711 50.688 378.479 49.6 379.161 48.064L380.953 43.84L381.721 42.752L394.073 13.056H403.673L388.121 49.6C387.012 52.3734 385.732 54.5494 384.281 56.128C382.873 57.7067 381.295 58.816 379.545 59.456C377.839 60.096 375.94 60.416 373.849 60.416ZM379.737 48.832L364.377 13.056H374.681L386.585 41.856L379.737 48.832ZM438.032 48C433.979 48 430.822 46.976 428.56 44.928C426.299 42.8374 425.168 39.744 425.168 35.648V5.44004H435.152V35.52C435.152 36.9707 435.536 38.1014 436.304 38.912C437.072 39.68 438.118 40.064 439.44 40.064C441.019 40.064 442.363 39.6374 443.472 38.784L446.16 45.824C445.136 46.5494 443.899 47.104 442.448 47.488C441.04 47.8294 439.568 48 438.032 48ZM419.856 21.504V13.824H443.728V21.504H419.856ZM471.733 12.544C474.464 12.544 476.896 13.0987 479.029 14.208C481.205 15.2747 482.912 16.9387 484.149 19.2C485.386 21.4187 486.005 24.2774 486.005 27.776V47.488H476.021V29.312C476.021 26.5387 475.402 24.4907 474.165 23.168C472.97 21.8454 471.264 21.184 469.045 21.184C467.466 21.184 466.037 21.5254 464.757 22.208C463.52 22.848 462.538 23.8507 461.813 25.216C461.13 26.5814 460.789 28.3307 460.789 30.464V47.488H450.805V3.43323e-05H460.789V22.592L458.549 19.712C459.786 17.408 461.557 15.6374 463.861 14.4C466.165 13.1627 468.789 12.544 471.733 12.544ZM511.433 48C507.508 48 504.052 47.232 501.065 45.696C498.121 44.16 495.838 42.0694 494.217 39.424C492.596 36.736 491.785 33.6854 491.785 30.272C491.785 26.816 492.574 23.7654 494.153 21.12C495.774 18.432 497.972 16.3414 500.745 14.848C503.518 13.312 506.654 12.544 510.153 12.544C513.524 12.544 516.553 13.2694 519.241 14.72C521.972 16.128 524.126 18.176 525.705 20.864C527.284 23.5094 528.073 26.688 528.073 30.4C528.073 30.784 528.052 31.232 528.009 31.744C527.966 32.2134 527.924 32.6614 527.881 33.088H499.913V27.264H522.633L518.793 28.992C518.793 27.2 518.43 25.6427 517.705 24.32C516.98 22.9974 515.977 21.9734 514.697 21.248C513.417 20.48 511.924 20.096 510.217 20.096C508.51 20.096 506.996 20.48 505.673 21.248C504.393 21.9734 503.39 23.0187 502.665 24.384C501.94 25.7067 501.577 27.2854 501.577 29.12V30.656C501.577 32.5334 501.982 34.1974 502.793 35.648C503.646 37.056 504.82 38.144 506.313 38.912C507.849 39.6374 509.641 40 511.689 40C513.524 40 515.124 39.7227 516.489 39.168C517.897 38.6134 519.177 37.7814 520.329 36.672L525.641 42.432C524.062 44.224 522.078 45.6107 519.689 46.592C517.3 47.5307 514.548 48 511.433 48ZM14.656 119.488L-4.64916e-06 74.688H10.752L23.488 114.368H18.112L31.424 74.688H41.024L53.824 114.368H48.64L61.696 74.688H71.616L56.96 119.488H45.824L34.496 84.672H37.44L25.792 119.488H14.656ZM94.2975 119.488V112.768L93.6575 111.296V99.264C93.6575 97.1307 92.9962 95.4667 91.6735 94.272C90.3935 93.0774 88.4095 92.48 85.7215 92.48C83.8868 92.48 82.0735 92.7787 80.2815 93.376C78.5322 93.9307 77.0388 94.6987 75.8015 95.68L72.2175 88.704C74.0948 87.3814 76.3562 86.3574 79.0015 85.632C81.6468 84.9067 84.3348 84.544 87.0655 84.544C92.3135 84.544 96.3882 85.7814 99.2895 88.256C102.191 90.7307 103.641 94.592 103.641 99.84V119.488H94.2975ZM83.8015 120C81.1135 120 78.8095 119.552 76.8895 118.656C74.9695 117.717 73.4975 116.459 72.4735 114.88C71.4495 113.301 70.9375 111.531 70.9375 109.568C70.9375 107.52 71.4282 105.728 72.4095 104.192C73.4335 102.656 75.0335 101.461 77.2095 100.608C79.3855 99.712 82.2228 99.264 85.7215 99.264H94.8735V105.088H86.8095C84.4628 105.088 82.8415 105.472 81.9455 106.24C81.0922 107.008 80.6655 107.968 80.6655 109.12C80.6655 110.4 81.1562 111.424 82.1375 112.192C83.1615 112.917 84.5482 113.28 86.2975 113.28C87.9615 113.28 89.4548 112.896 90.7775 112.128C92.1002 111.317 93.0602 110.144 93.6575 108.608L95.1935 113.216C94.4682 115.435 93.1455 117.12 91.2255 118.272C89.3055 119.424 86.8308 120 83.8015 120ZM111.717 119.488V85.056H121.253V94.784L119.909 91.968C120.933 89.536 122.576 87.7014 124.837 86.464C127.099 85.184 129.851 84.544 133.093 84.544V93.76C132.667 93.7174 132.283 93.696 131.941 93.696C131.6 93.6534 131.237 93.632 130.853 93.632C128.123 93.632 125.904 94.4214 124.197 96C122.533 97.536 121.701 99.9467 121.701 103.232V119.488H111.717ZM154.908 120C150.983 120 147.527 119.232 144.54 117.696C141.596 116.16 139.313 114.069 137.692 111.424C136.071 108.736 135.26 105.685 135.26 102.272C135.26 98.816 136.049 95.7654 137.628 93.12C139.249 90.432 141.447 88.3414 144.22 86.848C146.993 85.312 150.129 84.544 153.628 84.544C156.999 84.544 160.028 85.2694 162.716 86.72C165.447 88.128 167.601 90.176 169.18 92.864C170.759 95.5094 171.548 98.688 171.548 102.4C171.548 102.784 171.527 103.232 171.484 103.744C171.441 104.213 171.399 104.661 171.356 105.088H143.388V99.264H166.108L162.268 100.992C162.268 99.2 161.905 97.6427 161.18 96.32C160.455 94.9974 159.452 93.9734 158.172 93.248C156.892 92.48 155.399 92.096 153.692 92.096C151.985 92.096 150.471 92.48 149.148 93.248C147.868 93.9734 146.865 95.0187 146.14 96.384C145.415 97.7067 145.052 99.2854 145.052 101.12V102.656C145.052 104.533 145.457 106.197 146.268 107.648C147.121 109.056 148.295 110.144 149.788 110.912C151.324 111.637 153.116 112 155.164 112C156.999 112 158.599 111.723 159.964 111.168C161.372 110.613 162.652 109.781 163.804 108.672L169.116 114.432C167.537 116.224 165.553 117.611 163.164 118.592C160.775 119.531 158.023 120 154.908 120ZM198.163 84.544C200.894 84.544 203.326 85.0987 205.459 86.208C207.635 87.2747 209.342 88.9387 210.579 91.2C211.816 93.4187 212.435 96.2774 212.435 99.776V119.488H202.451V101.312C202.451 98.5387 201.832 96.4907 200.595 95.168C199.4 93.8454 197.694 93.184 195.475 93.184C193.896 93.184 192.467 93.5254 191.187 94.208C189.95 94.848 188.968 95.8507 188.243 97.216C187.56 98.5814 187.219 100.331 187.219 102.464V119.488H177.235V72H187.219V94.592L184.979 91.712C186.216 89.408 187.987 87.6374 190.291 86.4C192.595 85.1627 195.219 84.544 198.163 84.544ZM237.159 120C233.49 120 230.226 119.232 227.367 117.696C224.551 116.16 222.311 114.069 220.647 111.424C219.026 108.736 218.215 105.685 218.215 102.272C218.215 98.816 219.026 95.7654 220.647 93.12C222.311 90.432 224.551 88.3414 227.367 86.848C230.226 85.312 233.49 84.544 237.159 84.544C240.786 84.544 244.028 85.312 246.887 86.848C249.746 88.3414 251.986 90.4107 253.607 93.056C255.228 95.7014 256.039 98.7734 256.039 102.272C256.039 105.685 255.228 108.736 253.607 111.424C251.986 114.069 249.746 116.16 246.887 117.696C244.028 119.232 240.786 120 237.159 120ZM237.159 111.808C238.823 111.808 240.316 111.424 241.639 110.656C242.962 109.888 244.007 108.8 244.775 107.392C245.543 105.941 245.927 104.235 245.927 102.272C245.927 100.267 245.543 98.56 244.775 97.152C244.007 95.744 242.962 94.656 241.639 93.888C240.316 93.12 238.823 92.736 237.159 92.736C235.495 92.736 234.002 93.12 232.679 93.888C231.356 94.656 230.29 95.744 229.479 97.152C228.711 98.56 228.327 100.267 228.327 102.272C228.327 104.235 228.711 105.941 229.479 107.392C230.29 108.8 231.356 109.888 232.679 110.656C234.002 111.424 235.495 111.808 237.159 111.808ZM276.28 120C273.422 120 270.862 119.445 268.6 118.336C266.382 117.227 264.654 115.541 263.416 113.28C262.179 110.976 261.56 108.053 261.56 104.512V85.056H271.544V103.04C271.544 105.899 272.142 108.011 273.336 109.376C274.574 110.699 276.302 111.36 278.52 111.36C280.056 111.36 281.422 111.04 282.616 110.4C283.811 109.717 284.75 108.693 285.432 107.328C286.115 105.92 286.456 104.171 286.456 102.08V85.056H296.44V119.488H286.968V110.016L288.696 112.768C287.544 115.157 285.838 116.971 283.576 118.208C281.358 119.403 278.926 120 276.28 120ZM316.314 120C313.37 120 310.533 119.659 307.802 118.976C305.114 118.251 302.981 117.355 301.402 116.288L304.73 109.12C306.309 110.101 308.165 110.912 310.298 111.552C312.474 112.149 314.607 112.448 316.698 112.448C319.002 112.448 320.623 112.171 321.562 111.616C322.543 111.061 323.034 110.293 323.034 109.312C323.034 108.501 322.65 107.904 321.882 107.52C321.157 107.093 320.175 106.773 318.938 106.56C317.701 106.347 316.335 106.133 314.842 105.92C313.391 105.707 311.919 105.429 310.426 105.088C308.933 104.704 307.567 104.149 306.33 103.424C305.093 102.699 304.09 101.717 303.322 100.48C302.597 99.2427 302.234 97.6427 302.234 95.68C302.234 93.504 302.853 91.584 304.09 89.92C305.37 88.256 307.205 86.9547 309.594 86.016C311.983 85.0347 314.842 84.544 318.17 84.544C320.517 84.544 322.906 84.8 325.338 85.312C327.77 85.824 329.797 86.5707 331.418 87.552L328.09 94.656C326.426 93.6747 324.741 93.0134 323.034 92.672C321.37 92.288 319.749 92.096 318.17 92.096C315.951 92.096 314.33 92.3947 313.306 92.992C312.282 93.5894 311.77 94.3574 311.77 95.296C311.77 96.1494 312.133 96.7894 312.858 97.216C313.626 97.6427 314.629 97.984 315.866 98.24C317.103 98.496 318.447 98.7307 319.898 98.944C321.391 99.1147 322.885 99.392 324.378 99.776C325.871 100.16 327.215 100.715 328.41 101.44C329.647 102.123 330.65 103.083 331.418 104.32C332.186 105.515 332.57 107.093 332.57 109.056C332.57 111.189 331.93 113.088 330.65 114.752C329.37 116.373 327.514 117.653 325.082 118.592C322.693 119.531 319.77 120 316.314 120ZM354.858 120C350.933 120 347.477 119.232 344.49 117.696C341.546 116.16 339.263 114.069 337.642 111.424C336.021 108.736 335.21 105.685 335.21 102.272C335.21 98.816 335.999 95.7654 337.578 93.12C339.199 90.432 341.397 88.3414 344.17 86.848C346.943 85.312 350.079 84.544 353.578 84.544C356.949 84.544 359.978 85.2694 362.666 86.72C365.397 88.128 367.551 90.176 369.13 92.864C370.709 95.5094 371.498 98.688 371.498 102.4C371.498 102.784 371.477 103.232 371.434 103.744C371.391 104.213 371.349 104.661 371.306 105.088H343.338V99.264H366.058L362.218 100.992C362.218 99.2 361.855 97.6427 361.13 96.32C360.405 94.9974 359.402 93.9734 358.122 93.248C356.842 92.48 355.349 92.096 353.642 92.096C351.935 92.096 350.421 92.48 349.098 93.248C347.818 93.9734 346.815 95.0187 346.09 96.384C345.365 97.7067 345.002 99.2854 345.002 101.12V102.656C345.002 104.533 345.407 106.197 346.218 107.648C347.071 109.056 348.245 110.144 349.738 110.912C351.274 111.637 353.066 112 355.114 112C356.949 112 358.549 111.723 359.914 111.168C361.322 110.613 362.602 109.781 363.754 108.672L369.066 114.432C367.487 116.224 365.503 117.611 363.114 118.592C360.725 119.531 357.973 120 354.858 120ZM380.961 120C379.254 120 377.782 119.424 376.545 118.272C375.35 117.077 374.753 115.563 374.753 113.728C374.753 111.893 375.35 110.421 376.545 109.312C377.782 108.16 379.254 107.584 380.961 107.584C382.71 107.584 384.182 108.16 385.377 109.312C386.572 110.421 387.169 111.893 387.169 113.728C387.169 115.563 386.572 117.077 385.377 118.272C384.182 119.424 382.71 120 380.961 120Z" fill="#333333"/>
</svg>
