<svg width="887" height="119" viewBox="0 0 887 119" fill="none" xmlns="http://www.w3.org/2000/svg">
<path d="M9.536 18.816H31.104V26.88H9.536V18.816ZM10.304 37.248H34.688V45.568H3.8147e-06V0.76799H33.856V9.08799H10.304V37.248ZM62.206 45.568V38.848L61.566 37.376V25.344C61.566 23.2107 60.9047 21.5467 59.582 20.352C58.302 19.1573 56.318 18.56 53.63 18.56C51.7953 18.56 49.982 18.8587 48.19 19.456C46.4407 20.0107 44.9473 20.7787 43.71 21.76L40.126 14.784C42.0033 13.4613 44.2647 12.4373 46.91 11.712C49.5553 10.9867 52.2433 10.624 54.974 10.624C60.222 10.624 64.2967 11.8613 67.198 14.336C70.0993 16.8107 71.55 20.672 71.55 25.92V45.568H62.206ZM51.71 46.08C49.022 46.08 46.718 45.632 44.798 44.736C42.878 43.7973 41.406 42.5387 40.382 40.96C39.358 39.3813 38.846 37.6107 38.846 35.648C38.846 33.6 39.3367 31.808 40.318 30.272C41.342 28.736 42.942 27.5413 45.118 26.688C47.294 25.792 50.1313 25.344 53.63 25.344H62.782V31.168H54.718C52.3713 31.168 50.75 31.552 49.854 32.32C49.0007 33.088 48.574 34.048 48.574 35.2C48.574 36.48 49.0647 37.504 50.046 38.272C51.07 38.9973 52.4567 39.36 54.206 39.36C55.87 39.36 57.3633 38.976 58.686 38.208C60.0087 37.3973 60.9687 36.224 61.566 34.688L63.102 39.296C62.3767 41.5147 61.054 43.2 59.134 44.352C57.214 45.504 54.7393 46.08 51.71 46.08ZM91.21 46.08C88.266 46.08 85.4287 45.7387 82.698 45.056C80.01 44.3307 77.8767 43.4347 76.298 42.368L79.626 35.2C81.2047 36.1813 83.0607 36.992 85.194 37.632C87.37 38.2293 89.5033 38.528 91.594 38.528C93.898 38.528 95.5193 38.2507 96.458 37.696C97.4393 37.1413 97.93 36.3733 97.93 35.392C97.93 34.5813 97.546 33.984 96.778 33.6C96.0527 33.1733 95.0713 32.8533 93.834 32.64C92.5967 32.4267 91.2313 32.2133 89.738 32C88.2873 31.7867 86.8153 31.5093 85.322 31.168C83.8287 30.784 82.4633 30.2293 81.226 29.504C79.9887 28.7787 78.986 27.7973 78.218 26.56C77.4927 25.3227 77.13 23.7227 77.13 21.76C77.13 19.584 77.7487 17.664 78.986 16C80.266 14.336 82.1007 13.0347 84.49 12.096C86.8793 11.1147 89.738 10.624 93.066 10.624C95.4127 10.624 97.802 10.88 100.234 11.392C102.666 11.904 104.693 12.6507 106.314 13.632L102.986 20.736C101.322 19.7547 99.6367 19.0933 97.93 18.752C96.266 18.368 94.6447 18.176 93.066 18.176C90.8473 18.176 89.226 18.4747 88.202 19.072C87.178 19.6693 86.666 20.4373 86.666 21.376C86.666 22.2293 87.0287 22.8693 87.754 23.296C88.522 23.7227 89.5247 24.064 90.762 24.32C91.9993 24.576 93.3433 24.8107 94.794 25.024C96.2873 25.1947 97.7807 25.472 99.274 25.856C100.767 26.24 102.111 26.7947 103.306 27.52C104.543 28.2027 105.546 29.1627 106.314 30.4C107.082 31.5947 107.466 33.1733 107.466 35.136C107.466 37.2693 106.826 39.168 105.546 40.832C104.266 42.4533 102.41 43.7333 99.978 44.672C97.5887 45.6107 94.666 46.08 91.21 46.08ZM116.393 58.496C114.601 58.496 112.83 58.2187 111.081 57.664C109.332 57.1093 107.902 56.3413 106.793 55.36L110.441 48.256C111.209 48.9387 112.084 49.472 113.065 49.856C114.089 50.24 115.092 50.432 116.073 50.432C117.481 50.432 118.59 50.0907 119.401 49.408C120.254 48.768 121.022 47.68 121.705 46.144L123.497 41.92L124.265 40.832L136.617 11.136H146.217L130.665 47.68C129.556 50.4533 128.276 52.6293 126.825 54.208C125.417 55.7867 123.838 56.896 122.089 57.536C120.382 58.176 118.484 58.496 116.393 58.496ZM122.281 46.912L106.921 11.136H117.225L129.129 39.936L122.281 46.912ZM181.28 46.336C177.995 46.336 175.072 45.8027 172.512 44.736C169.952 43.6693 167.925 42.2187 166.432 40.384C164.939 38.5493 164.192 36.4373 164.192 34.048C164.192 31.8293 164.683 29.8453 165.664 28.096C166.645 26.304 168.203 24.64 170.336 23.104C172.469 21.5253 175.179 19.9893 178.464 18.496C180.853 17.3867 182.731 16.4053 184.096 15.552C185.461 14.6987 186.421 13.888 186.976 13.12C187.531 12.3093 187.808 11.4987 187.808 10.688C187.808 9.57866 187.424 8.68266 186.656 7.99999C185.931 7.31732 184.843 6.97599 183.392 6.97599C181.856 6.97599 180.661 7.35999 179.808 8.12799C178.955 8.89599 178.528 9.87732 178.528 11.072C178.528 11.712 178.656 12.352 178.912 12.992C179.168 13.5893 179.659 14.2933 180.384 15.104C181.109 15.872 182.133 16.8747 183.456 18.112L207.072 40L201.632 46.336L175.584 22.144C174.091 20.7787 172.896 19.4987 172 18.304C171.104 17.1093 170.443 15.936 170.016 14.784C169.632 13.632 169.44 12.4373 169.44 11.2C169.44 9.02399 170.016 7.10399 171.168 5.43999C172.32 3.77599 173.941 2.49599 176.032 1.59999C178.123 0.661324 180.576 0.19199 183.392 0.19199C185.995 0.19199 188.235 0.618657 190.112 1.47199C192.032 2.28266 193.525 3.45599 194.592 4.99199C195.701 6.52799 196.256 8.36266 196.256 10.496C196.256 12.3733 195.787 14.1013 194.848 15.68C193.909 17.216 192.437 18.6667 190.432 20.032C188.469 21.3973 185.888 22.784 182.688 24.192C180.512 25.1733 178.784 26.1333 177.504 27.072C176.267 27.968 175.371 28.8853 174.816 29.824C174.261 30.7627 173.984 31.808 173.984 32.96C173.984 34.0267 174.304 34.9867 174.944 35.84C175.627 36.6933 176.565 37.3547 177.76 37.824C178.955 38.2933 180.363 38.528 181.984 38.528C184.587 38.528 186.976 37.9307 189.152 36.736C191.328 35.4987 193.163 33.6853 194.656 31.296C196.192 28.864 197.28 25.92 197.92 22.464L205.92 24.96C205.024 29.312 203.424 33.088 201.12 36.288C198.816 39.488 195.979 41.9627 192.608 43.712C189.237 45.4613 185.461 46.336 181.28 46.336ZM244.688 46.336C241.104 46.336 237.669 45.8667 234.384 44.928C231.098 43.9467 228.453 42.688 226.448 41.152L229.968 33.344C231.888 34.7093 234.149 35.84 236.752 36.736C239.397 37.5893 242.064 38.016 244.752 38.016C246.8 38.016 248.442 37.824 249.68 37.44C250.96 37.0133 251.898 36.4373 252.496 35.712C253.093 34.9867 253.392 34.1547 253.392 33.216C253.392 32.0213 252.922 31.0827 251.984 30.4C251.045 29.6747 249.808 29.0987 248.272 28.672C246.736 28.2027 245.029 27.776 243.152 27.392C241.317 26.9653 239.461 26.4533 237.584 25.856C235.749 25.2587 234.064 24.4907 232.528 23.552C230.992 22.6133 229.733 21.376 228.752 19.84C227.813 18.304 227.344 16.3413 227.344 13.952C227.344 11.392 228.026 9.06666 229.392 6.97599C230.8 4.84266 232.89 3.15732 235.664 1.91999C238.48 0.639992 242 -7.62939e-06 246.224 -7.62939e-06C249.04 -7.62939e-06 251.813 0.341325 254.544 1.02399C257.274 1.66399 259.685 2.64532 261.776 3.96799L258.576 11.84C256.485 10.6453 254.394 9.77066 252.304 9.21599C250.213 8.61866 248.165 8.31999 246.16 8.31999C244.154 8.31999 242.512 8.55466 241.232 9.02399C239.952 9.49333 239.034 10.112 238.48 10.88C237.925 11.6053 237.648 12.4587 237.648 13.44C237.648 14.592 238.117 15.5307 239.056 16.256C239.994 16.9387 241.232 17.4933 242.768 17.92C244.304 18.3467 245.989 18.7733 247.824 19.2C249.701 19.6267 251.557 20.1173 253.392 20.672C255.269 21.2267 256.976 21.9733 258.512 22.912C260.048 23.8507 261.285 25.088 262.224 26.624C263.205 28.16 263.696 30.1013 263.696 32.448C263.696 34.9653 262.992 37.2693 261.584 39.36C260.176 41.4507 258.064 43.136 255.248 44.416C252.474 45.696 248.954 46.336 244.688 46.336ZM313.212 10.624C315.943 10.624 318.353 11.1787 320.444 12.288C322.577 13.3547 324.241 15.0187 325.436 17.28C326.673 19.4987 327.292 22.3573 327.292 25.856V45.568H317.308V27.392C317.308 24.6187 316.732 22.5707 315.58 21.248C314.428 19.9253 312.807 19.264 310.716 19.264C309.265 19.264 307.964 19.6053 306.812 20.288C305.66 20.928 304.764 21.9093 304.124 23.232C303.484 24.5547 303.164 26.24 303.164 28.288V45.568H293.18V27.392C293.18 24.6187 292.604 22.5707 291.452 21.248C290.343 19.9253 288.743 19.264 286.652 19.264C285.201 19.264 283.9 19.6053 282.748 20.288C281.596 20.928 280.7 21.9093 280.06 23.232C279.42 24.5547 279.1 26.24 279.1 28.288V45.568H269.116V11.136H278.652V20.544L276.86 17.792C278.055 15.4453 279.74 13.6747 281.916 12.48C284.135 11.2427 286.652 10.624 289.468 10.624C292.625 10.624 295.377 11.4347 297.724 13.056C300.113 14.6347 301.692 17.0667 302.46 20.352L298.94 19.392C300.092 16.704 301.927 14.5707 304.444 12.992C307.004 11.4133 309.927 10.624 313.212 10.624ZM356.401 45.568V38.848L355.761 37.376V25.344C355.761 23.2107 355.1 21.5467 353.777 20.352C352.497 19.1573 350.513 18.56 347.825 18.56C345.99 18.56 344.177 18.8587 342.385 19.456C340.636 20.0107 339.142 20.7787 337.905 21.76L334.321 14.784C336.198 13.4613 338.46 12.4373 341.105 11.712C343.75 10.9867 346.438 10.624 349.169 10.624C354.417 10.624 358.492 11.8613 361.393 14.336C364.294 16.8107 365.745 20.672 365.745 25.92V45.568H356.401ZM345.905 46.08C343.217 46.08 340.913 45.632 338.993 44.736C337.073 43.7973 335.601 42.5387 334.577 40.96C333.553 39.3813 333.041 37.6107 333.041 35.648C333.041 33.6 333.532 31.808 334.513 30.272C335.537 28.736 337.137 27.5413 339.313 26.688C341.489 25.792 344.326 25.344 347.825 25.344H356.977V31.168H348.913C346.566 31.168 344.945 31.552 344.049 32.32C343.196 33.088 342.769 34.048 342.769 35.2C342.769 36.48 343.26 37.504 344.241 38.272C345.265 38.9973 346.652 39.36 348.401 39.36C350.065 39.36 351.558 38.976 352.881 38.208C354.204 37.3973 355.164 36.224 355.761 34.688L357.297 39.296C356.572 41.5147 355.249 43.2 353.329 44.352C351.409 45.504 348.934 46.08 345.905 46.08ZM373.821 45.568V11.136H383.357V20.864L382.013 18.048C383.037 15.616 384.68 13.7813 386.941 12.544C389.202 11.264 391.954 10.624 395.197 10.624V19.84C394.77 19.7973 394.386 19.776 394.045 19.776C393.704 19.7333 393.341 19.712 392.957 19.712C390.226 19.712 388.008 20.5013 386.301 22.08C384.637 23.616 383.805 26.0267 383.805 29.312V45.568H373.821ZM415.441 46.08C411.388 46.08 408.23 45.056 405.969 43.008C403.708 40.9173 402.577 37.824 402.577 33.728V3.51999H412.561V33.6C412.561 35.0507 412.945 36.1813 413.713 36.992C414.481 37.76 415.526 38.144 416.849 38.144C418.428 38.144 419.772 37.7173 420.881 36.864L423.569 43.904C422.545 44.6293 421.308 45.184 419.857 45.568C418.449 45.9093 416.977 46.08 415.441 46.08ZM397.265 19.584V11.904H421.137V19.584H397.265Z" fill="#001EF4"/>
<path d="M489.474 10.624C492.205 10.624 494.616 11.1787 496.706 12.288C498.84 13.3547 500.504 15.0187 501.698 17.28C502.936 19.4987 503.554 22.3573 503.554 25.856V45.568H493.57V27.392C493.57 24.6187 492.994 22.5707 491.842 21.248C490.69 19.9253 489.069 19.264 486.978 19.264C485.528 19.264 484.226 19.6053 483.074 20.288C481.922 20.928 481.026 21.9093 480.386 23.232C479.746 24.5547 479.426 26.24 479.426 28.288V45.568H469.442V27.392C469.442 24.6187 468.866 22.5707 467.714 21.248C466.605 19.9253 465.005 19.264 462.914 19.264C461.464 19.264 460.162 19.6053 459.01 20.288C457.858 20.928 456.962 21.9093 456.322 23.232C455.682 24.5547 455.362 26.24 455.362 28.288V45.568H445.378V11.136H454.914V20.544L453.122 17.792C454.317 15.4453 456.002 13.6747 458.178 12.48C460.397 11.2427 462.914 10.624 465.73 10.624C468.888 10.624 471.64 11.4347 473.986 13.056C476.376 14.6347 477.954 17.0667 478.722 20.352L475.202 19.392C476.354 16.704 478.189 14.5707 480.706 12.992C483.266 11.4133 486.189 10.624 489.474 10.624ZM532.664 45.568V38.848L532.024 37.376V25.344C532.024 23.2107 531.362 21.5467 530.04 20.352C528.76 19.1573 526.776 18.56 524.088 18.56C522.253 18.56 520.44 18.8587 518.648 19.456C516.898 20.0107 515.405 20.7787 514.168 21.76L510.584 14.784C512.461 13.4613 514.722 12.4373 517.368 11.712C520.013 10.9867 522.701 10.624 525.432 10.624C530.68 10.624 534.754 11.8613 537.656 14.336C540.557 16.8107 542.008 20.672 542.008 25.92V45.568H532.664ZM522.168 46.08C519.48 46.08 517.176 45.632 515.256 44.736C513.336 43.7973 511.864 42.5387 510.84 40.96C509.816 39.3813 509.304 37.6107 509.304 35.648C509.304 33.6 509.794 31.808 510.776 30.272C511.8 28.736 513.4 27.5413 515.576 26.688C517.752 25.792 520.589 25.344 524.088 25.344H533.24V31.168H525.176C522.829 31.168 521.208 31.552 520.312 32.32C519.458 33.088 519.032 34.048 519.032 35.2C519.032 36.48 519.522 37.504 520.504 38.272C521.528 38.9973 522.914 39.36 524.664 39.36C526.328 39.36 527.821 38.976 529.144 38.208C530.466 37.3973 531.426 36.224 532.024 34.688L533.56 39.296C532.834 41.5147 531.512 43.2 529.592 44.352C527.672 45.504 525.197 46.08 522.168 46.08ZM571.011 10.624C573.742 10.624 576.174 11.1787 578.307 12.288C580.483 13.3547 582.19 15.0187 583.427 17.28C584.665 19.4987 585.283 22.3573 585.283 25.856V45.568H575.299V27.392C575.299 24.6187 574.681 22.5707 573.443 21.248C572.249 19.9253 570.542 19.264 568.323 19.264C566.745 19.264 565.315 19.6053 564.035 20.288C562.798 20.928 561.817 21.9307 561.091 23.296C560.409 24.6613 560.067 26.4107 560.067 28.544V45.568H550.083V11.136H559.619V20.672L557.827 17.792C559.065 15.488 560.835 13.7173 563.139 12.48C565.443 11.2427 568.067 10.624 571.011 10.624ZM614.494 45.568V38.848L613.854 37.376V25.344C613.854 23.2107 613.192 21.5467 611.87 20.352C610.59 19.1573 608.606 18.56 605.918 18.56C604.083 18.56 602.27 18.8587 600.478 19.456C598.728 20.0107 597.235 20.7787 595.998 21.76L592.414 14.784C594.291 13.4613 596.552 12.4373 599.198 11.712C601.843 10.9867 604.531 10.624 607.262 10.624C612.51 10.624 616.584 11.8613 619.486 14.336C622.387 16.8107 623.838 20.672 623.838 25.92V45.568H614.494ZM603.998 46.08C601.31 46.08 599.006 45.632 597.086 44.736C595.166 43.7973 593.694 42.5387 592.67 40.96C591.646 39.3813 591.134 37.6107 591.134 35.648C591.134 33.6 591.624 31.808 592.606 30.272C593.63 28.736 595.23 27.5413 597.406 26.688C599.582 25.792 602.419 25.344 605.918 25.344H615.07V31.168H607.006C604.659 31.168 603.038 31.552 602.142 32.32C601.288 33.088 600.862 34.048 600.862 35.2C600.862 36.48 601.352 37.504 602.334 38.272C603.358 38.9973 604.744 39.36 606.494 39.36C608.158 39.36 609.651 38.976 610.974 38.208C612.296 37.3973 613.256 36.224 613.854 34.688L615.39 39.296C614.664 41.5147 613.342 43.2 611.422 44.352C609.502 45.504 607.027 46.08 603.998 46.08ZM648.355 58.496C645.113 58.496 641.977 58.0907 638.947 57.28C635.961 56.512 633.465 55.3387 631.459 53.76L635.427 46.592C636.878 47.7867 638.713 48.7253 640.931 49.408C643.193 50.1333 645.411 50.496 647.587 50.496C651.129 50.496 653.689 49.7067 655.267 48.128C656.889 46.5493 657.699 44.2027 657.699 41.088V35.904L658.339 27.264L658.211 18.56V11.136H667.683V39.808C667.683 46.208 666.019 50.9227 662.691 53.952C659.363 56.9813 654.585 58.496 648.355 58.496ZM646.819 43.904C643.619 43.904 640.718 43.2213 638.115 41.856C635.555 40.448 633.486 38.5067 631.907 36.032C630.371 33.5147 629.603 30.592 629.603 27.264C629.603 23.8933 630.371 20.9707 631.907 18.496C633.486 15.9787 635.555 14.0373 638.115 12.672C640.718 11.3067 643.619 10.624 646.819 10.624C649.721 10.624 652.281 11.2213 654.499 12.416C656.718 13.568 658.446 15.3813 659.683 17.856C660.921 20.288 661.539 23.424 661.539 27.264C661.539 31.0613 660.921 34.1973 659.683 36.672C658.446 39.104 656.718 40.9173 654.499 42.112C652.281 43.3067 649.721 43.904 646.819 43.904ZM648.803 35.712C650.553 35.712 652.11 35.3707 653.475 34.688C654.841 33.9627 655.907 32.96 656.675 31.68C657.443 30.4 657.827 28.928 657.827 27.264C657.827 25.5573 657.443 24.0853 656.675 22.848C655.907 21.568 654.841 20.5867 653.475 19.904C652.11 19.1787 650.553 18.816 648.803 18.816C647.054 18.816 645.497 19.1787 644.131 19.904C642.766 20.5867 641.678 21.568 640.867 22.848C640.099 24.0853 639.715 25.5573 639.715 27.264C639.715 28.928 640.099 30.4 640.867 31.68C641.678 32.96 642.766 33.9627 644.131 34.688C645.497 35.3707 647.054 35.712 648.803 35.712ZM693.104 46.08C689.179 46.08 685.723 45.312 682.736 43.776C679.792 42.24 677.509 40.1493 675.888 37.504C674.267 34.816 673.456 31.7653 673.456 28.352C673.456 24.896 674.245 21.8453 675.824 19.2C677.445 16.512 679.643 14.4213 682.416 12.928C685.189 11.392 688.325 10.624 691.824 10.624C695.195 10.624 698.224 11.3493 700.912 12.8C703.643 14.208 705.797 16.256 707.376 18.944C708.955 21.5893 709.744 24.768 709.744 28.48C709.744 28.864 709.723 29.312 709.68 29.824C709.637 30.2933 709.595 30.7413 709.552 31.168H681.584V25.344H704.304L700.464 27.072C700.464 25.28 700.101 23.7227 699.376 22.4C698.651 21.0773 697.648 20.0533 696.368 19.328C695.088 18.56 693.595 18.176 691.888 18.176C690.181 18.176 688.667 18.56 687.344 19.328C686.064 20.0533 685.061 21.0987 684.336 22.464C683.611 23.7867 683.248 25.3653 683.248 27.2V28.736C683.248 30.6133 683.653 32.2773 684.464 33.728C685.317 35.136 686.491 36.224 687.984 36.992C689.52 37.7173 691.312 38.08 693.36 38.08C695.195 38.08 696.795 37.8027 698.16 37.248C699.568 36.6933 700.848 35.8613 702 34.752L707.312 40.512C705.733 42.304 703.749 43.6907 701.36 44.672C698.971 45.6107 696.219 46.08 693.104 46.08ZM759.527 10.624C762.258 10.624 764.668 11.1787 766.759 12.288C768.892 13.3547 770.556 15.0187 771.751 17.28C772.988 19.4987 773.607 22.3573 773.607 25.856V45.568H763.623V27.392C763.623 24.6187 763.047 22.5707 761.895 21.248C760.743 19.9253 759.122 19.264 757.031 19.264C755.58 19.264 754.279 19.6053 753.127 20.288C751.975 20.928 751.079 21.9093 750.439 23.232C749.799 24.5547 749.479 26.24 749.479 28.288V45.568H739.495V27.392C739.495 24.6187 738.919 22.5707 737.767 21.248C736.658 19.9253 735.058 19.264 732.967 19.264C731.516 19.264 730.215 19.6053 729.063 20.288C727.911 20.928 727.015 21.9093 726.375 23.232C725.735 24.5547 725.415 26.24 725.415 28.288V45.568H715.431V11.136H724.967V20.544L723.175 17.792C724.37 15.4453 726.055 13.6747 728.231 12.48C730.45 11.2427 732.967 10.624 735.783 10.624C738.94 10.624 741.692 11.4347 744.039 13.056C746.428 14.6347 748.007 17.0667 748.775 20.352L745.255 19.392C746.407 16.704 748.242 14.5707 750.759 12.992C753.319 11.4133 756.242 10.624 759.527 10.624ZM798.934 46.08C795.009 46.08 791.553 45.312 788.566 43.776C785.622 42.24 783.339 40.1493 781.718 37.504C780.097 34.816 779.286 31.7653 779.286 28.352C779.286 24.896 780.075 21.8453 781.654 19.2C783.275 16.512 785.473 14.4213 788.246 12.928C791.019 11.392 794.155 10.624 797.654 10.624C801.025 10.624 804.054 11.3493 806.742 12.8C809.473 14.208 811.627 16.256 813.206 18.944C814.785 21.5893 815.574 24.768 815.574 28.48C815.574 28.864 815.553 29.312 815.51 29.824C815.467 30.2933 815.425 30.7413 815.382 31.168H787.414V25.344H810.134L806.294 27.072C806.294 25.28 805.931 23.7227 805.206 22.4C804.481 21.0773 803.478 20.0533 802.198 19.328C800.918 18.56 799.425 18.176 797.718 18.176C796.011 18.176 794.497 18.56 793.174 19.328C791.894 20.0533 790.891 21.0987 790.166 22.464C789.441 23.7867 789.078 25.3653 789.078 27.2V28.736C789.078 30.6133 789.483 32.2773 790.294 33.728C791.147 35.136 792.321 36.224 793.814 36.992C795.35 37.7173 797.142 38.08 799.19 38.08C801.025 38.08 802.625 37.8027 803.99 37.248C805.398 36.6933 806.678 35.8613 807.83 34.752L813.142 40.512C811.563 42.304 809.579 43.6907 807.19 44.672C804.801 45.6107 802.049 46.08 798.934 46.08ZM842.189 10.624C844.92 10.624 847.352 11.1787 849.485 12.288C851.661 13.3547 853.368 15.0187 854.605 17.28C855.842 19.4987 856.461 22.3573 856.461 25.856V45.568H846.477V27.392C846.477 24.6187 845.858 22.5707 844.621 21.248C843.426 19.9253 841.72 19.264 839.501 19.264C837.922 19.264 836.493 19.6053 835.213 20.288C833.976 20.928 832.994 21.9307 832.269 23.296C831.586 24.6613 831.245 26.4107 831.245 28.544V45.568H821.261V11.136H830.797V20.672L829.005 17.792C830.242 15.488 832.013 13.7173 834.317 12.48C836.621 11.2427 839.245 10.624 842.189 10.624ZM878.631 46.08C874.578 46.08 871.42 45.056 869.159 43.008C866.898 40.9173 865.767 37.824 865.767 33.728V3.51999H875.751V33.6C875.751 35.0507 876.135 36.1813 876.903 36.992C877.671 37.76 878.716 38.144 880.039 38.144C881.618 38.144 882.962 37.7173 884.071 36.864L886.759 43.904C885.735 44.6293 884.498 45.184 883.047 45.568C881.639 45.9093 880.167 46.08 878.631 46.08ZM860.455 19.584V11.904H884.327V19.584H860.455ZM3.8147e-06 117.568V72.768H21.888C27.52 72.768 31.744 73.8347 34.56 75.968C37.4187 78.1013 38.848 80.9173 38.848 84.416C38.848 86.7627 38.272 88.8107 37.12 90.56C35.968 92.2667 34.3893 93.5893 32.384 94.528C30.3787 95.4667 28.0747 95.936 25.472 95.936L26.688 93.312C29.504 93.312 32 93.7813 34.176 94.72C36.352 95.616 38.0373 96.96 39.232 98.752C40.4693 100.544 41.088 102.741 41.088 105.344C41.088 109.184 39.5733 112.192 36.544 114.368C33.5147 116.501 29.056 117.568 23.168 117.568H3.8147e-06ZM10.304 109.76H22.4C25.088 109.76 27.1147 109.333 28.48 108.48C29.888 107.584 30.592 106.176 30.592 104.256C30.592 102.379 29.888 100.992 28.48 100.096C27.1147 99.1573 25.088 98.688 22.4 98.688H9.536V91.136H20.608C23.1253 91.136 25.0453 90.7093 26.368 89.856C27.7333 88.96 28.416 87.616 28.416 85.824C28.416 84.0747 27.7333 82.7733 26.368 81.92C25.0453 81.024 23.1253 80.576 20.608 80.576H10.304V109.76ZM64.3615 118.08C60.4362 118.08 56.9802 117.312 53.9935 115.776C51.0495 114.24 48.7668 112.149 47.1455 109.504C45.5242 106.816 44.7135 103.765 44.7135 100.352C44.7135 96.896 45.5028 93.8453 47.0815 91.2C48.7028 88.512 50.9002 86.4213 53.6735 84.928C56.4468 83.392 59.5828 82.624 63.0815 82.624C66.4522 82.624 69.4815 83.3493 72.1695 84.8C74.9002 86.208 77.0548 88.256 78.6335 90.944C80.2122 93.5893 81.0015 96.768 81.0015 100.48C81.0015 100.864 80.9802 101.312 80.9375 101.824C80.8948 102.293 80.8522 102.741 80.8095 103.168H52.8415V97.344H75.5615L71.7215 99.072C71.7215 97.28 71.3588 95.7227 70.6335 94.4C69.9082 93.0773 68.9055 92.0533 67.6255 91.328C66.3455 90.56 64.8522 90.176 63.1455 90.176C61.4388 90.176 59.9242 90.56 58.6015 91.328C57.3215 92.0533 56.3188 93.0987 55.5935 94.464C54.8682 95.7867 54.5055 97.3653 54.5055 99.2V100.736C54.5055 102.613 54.9108 104.277 55.7215 105.728C56.5748 107.136 57.7482 108.224 59.2415 108.992C60.7775 109.717 62.5695 110.08 64.6175 110.08C66.4522 110.08 68.0522 109.803 69.4175 109.248C70.8255 108.693 72.1055 107.861 73.2575 106.752L78.5695 112.512C76.9908 114.304 75.0068 115.691 72.6175 116.672C70.2282 117.611 67.4762 118.08 64.3615 118.08ZM100.769 118.08C96.7152 118.08 93.5578 117.056 91.2965 115.008C89.0352 112.917 87.9045 109.824 87.9045 105.728V75.52H97.8885V105.6C97.8885 107.051 98.2725 108.181 99.0405 108.992C99.8085 109.76 100.854 110.144 102.177 110.144C103.755 110.144 105.099 109.717 106.209 108.864L108.897 115.904C107.873 116.629 106.635 117.184 105.185 117.568C103.777 117.909 102.305 118.08 100.769 118.08ZM82.5925 91.584V83.904H106.465V91.584H82.5925ZM126.871 118.08C122.818 118.08 119.66 117.056 117.399 115.008C115.138 112.917 114.007 109.824 114.007 105.728V75.52H123.991V105.6C123.991 107.051 124.375 108.181 125.143 108.992C125.911 109.76 126.956 110.144 128.279 110.144C129.858 110.144 131.202 109.717 132.311 108.864L134.999 115.904C133.975 116.629 132.738 117.184 131.287 117.568C129.879 117.909 128.407 118.08 126.871 118.08ZM108.695 91.584V83.904H132.567V91.584H108.695ZM155.669 118.08C151.744 118.08 148.288 117.312 145.301 115.776C142.357 114.24 140.074 112.149 138.453 109.504C136.832 106.816 136.021 103.765 136.021 100.352C136.021 96.896 136.81 93.8453 138.389 91.2C140.01 88.512 142.208 86.4213 144.981 84.928C147.754 83.392 150.89 82.624 154.389 82.624C157.76 82.624 160.789 83.3493 163.477 84.8C166.208 86.208 168.362 88.256 169.941 90.944C171.52 93.5893 172.309 96.768 172.309 100.48C172.309 100.864 172.288 101.312 172.245 101.824C172.202 102.293 172.16 102.741 172.117 103.168H144.149V97.344H166.869L163.029 99.072C163.029 97.28 162.666 95.7227 161.941 94.4C161.216 93.0773 160.213 92.0533 158.933 91.328C157.653 90.56 156.16 90.176 154.453 90.176C152.746 90.176 151.232 90.56 149.909 91.328C148.629 92.0533 147.626 93.0987 146.901 94.464C146.176 95.7867 145.813 97.3653 145.813 99.2V100.736C145.813 102.613 146.218 104.277 147.029 105.728C147.882 107.136 149.056 108.224 150.549 108.992C152.085 109.717 153.877 110.08 155.925 110.08C157.76 110.08 159.36 109.803 160.725 109.248C162.133 108.693 163.413 107.861 164.565 106.752L169.877 112.512C168.298 114.304 166.314 115.691 163.925 116.672C161.536 117.611 158.784 118.08 155.669 118.08ZM177.996 117.568V83.136H187.532V92.864L186.188 90.048C187.212 87.616 188.855 85.7813 191.116 84.544C193.377 83.264 196.129 82.624 199.372 82.624V91.84C198.945 91.7973 198.561 91.776 198.22 91.776C197.879 91.7333 197.516 91.712 197.132 91.712C194.401 91.712 192.183 92.5013 190.476 94.08C188.812 95.616 187.98 98.0267 187.98 101.312V117.568H177.996ZM244.1 118.336C240.558 118.336 237.294 117.781 234.308 116.672C231.364 115.52 228.782 113.899 226.564 111.808C224.388 109.717 222.681 107.264 221.444 104.448C220.249 101.632 219.652 98.5387 219.652 95.168C219.652 91.7973 220.249 88.704 221.444 85.888C222.681 83.072 224.409 80.6187 226.628 78.528C228.846 76.4373 231.449 74.8373 234.436 73.728C237.422 72.576 240.708 72 244.292 72C248.26 72 251.822 72.6613 254.98 73.984C258.18 75.3067 260.868 77.2267 263.044 79.744L256.388 85.888C254.766 84.1813 252.996 82.9227 251.076 82.112C249.156 81.2587 247.065 80.832 244.804 80.832C242.628 80.832 240.644 81.1733 238.852 81.856C237.06 82.5387 235.502 83.52 234.18 84.8C232.9 86.08 231.897 87.5947 231.172 89.344C230.489 91.0933 230.148 93.0347 230.148 95.168C230.148 97.2587 230.489 99.1787 231.172 100.928C231.897 102.677 232.9 104.213 234.18 105.536C235.502 106.816 237.038 107.797 238.788 108.48C240.58 109.163 242.542 109.504 244.676 109.504C246.724 109.504 248.708 109.184 250.628 108.544C252.59 107.861 254.489 106.731 256.324 105.152L262.212 112.64C259.78 114.475 256.942 115.883 253.7 116.864C250.5 117.845 247.3 118.336 244.1 118.336ZM252.74 111.296V94.464H262.212V112.64L252.74 111.296ZM270.179 117.568V83.136H279.715V92.864L278.371 90.048C279.395 87.616 281.037 85.7813 283.299 84.544C285.56 83.264 288.312 82.624 291.555 82.624V91.84C291.128 91.7973 290.744 91.776 290.403 91.776C290.061 91.7333 289.699 91.712 289.315 91.712C286.584 91.712 284.365 92.5013 282.659 94.08C280.995 95.616 280.163 98.0267 280.163 101.312V117.568H270.179ZM312.665 118.08C308.996 118.08 305.732 117.312 302.873 115.776C300.057 114.24 297.817 112.149 296.153 109.504C294.532 106.816 293.721 103.765 293.721 100.352C293.721 96.896 294.532 93.8453 296.153 91.2C297.817 88.512 300.057 86.4213 302.873 84.928C305.732 83.392 308.996 82.624 312.665 82.624C316.292 82.624 319.534 83.392 322.393 84.928C325.252 86.4213 327.492 88.4907 329.113 91.136C330.734 93.7813 331.545 96.8533 331.545 100.352C331.545 103.765 330.734 106.816 329.113 109.504C327.492 112.149 325.252 114.24 322.393 115.776C319.534 117.312 316.292 118.08 312.665 118.08ZM312.665 109.888C314.329 109.888 315.822 109.504 317.145 108.736C318.468 107.968 319.513 106.88 320.281 105.472C321.049 104.021 321.433 102.315 321.433 100.352C321.433 98.3467 321.049 96.64 320.281 95.232C319.513 93.824 318.468 92.736 317.145 91.968C315.822 91.2 314.329 90.816 312.665 90.816C311.001 90.816 309.508 91.2 308.185 91.968C306.862 92.736 305.796 93.824 304.985 95.232C304.217 96.64 303.833 98.3467 303.833 100.352C303.833 102.315 304.217 104.021 304.985 105.472C305.796 106.88 306.862 107.968 308.185 108.736C309.508 109.504 311.001 109.888 312.665 109.888ZM344.193 117.568L331.777 83.136H341.185L351.489 112.768H347.009L357.761 83.136H366.209L376.641 112.768H372.161L382.785 83.136H391.617L379.137 117.568H369.473L360.321 92.16H363.265L353.793 117.568H344.193ZM410.316 118.08C406.263 118.08 403.105 117.056 400.844 115.008C398.583 112.917 397.452 109.824 397.452 105.728V75.52H407.436V105.6C407.436 107.051 407.82 108.181 408.588 108.992C409.356 109.76 410.401 110.144 411.724 110.144C413.303 110.144 414.647 109.717 415.756 108.864L418.444 115.904C417.42 116.629 416.183 117.184 414.732 117.568C413.324 117.909 411.852 118.08 410.316 118.08ZM392.14 91.584V83.904H416.012V91.584H392.14ZM444.017 82.624C446.747 82.624 449.179 83.1787 451.313 84.288C453.489 85.3547 455.195 87.0187 456.433 89.28C457.67 91.4987 458.289 94.3573 458.289 97.856V117.568H448.305V99.392C448.305 96.6187 447.686 94.5707 446.449 93.248C445.254 91.9253 443.547 91.264 441.329 91.264C439.75 91.264 438.321 91.6053 437.041 92.288C435.803 92.928 434.822 93.9307 434.097 95.296C433.414 96.6613 433.073 98.4107 433.073 100.544V117.568H423.089V70.08H433.073V92.672L430.833 89.792C432.07 87.488 433.841 85.7173 436.145 84.48C438.449 83.2427 441.073 82.624 444.017 82.624Z" fill="#FCFCFC"/>
</svg>
