<svg width="156" height="17" viewBox="0 0 156 17" fill="none" xmlns="http://www.w3.org/2000/svg">
<path d="M2.88 6.98405H11.232V9.55205H2.88V6.98405ZM3.12 14.184H12.6V16.8H3.39746e-06V4.76837e-05H12.264V2.61605H3.12V14.184ZM14.6734 11.376V8.88005H21.2734V11.376H14.6734ZM30.6701 16.968C29.3261 16.968 28.1261 16.688 27.0701 16.128C26.0301 15.552 25.2141 14.768 24.6221 13.776C24.0301 12.784 23.7341 11.656 23.7341 10.392C23.7341 9.11205 24.0301 7.98405 24.6221 7.00805C25.2141 6.01605 26.0301 5.24005 27.0701 4.68005C28.1261 4.12005 29.3261 3.84005 30.6701 3.84005C31.9181 3.84005 33.0141 4.09605 33.9581 4.60805C34.9181 5.10405 35.6461 5.84005 36.1421 6.81605L33.8381 8.16005C33.4541 7.55205 32.9821 7.10405 32.4221 6.81605C31.8781 6.52805 31.2861 6.38405 30.6461 6.38405C29.9101 6.38405 29.2461 6.54405 28.6541 6.86405C28.0621 7.18405 27.5981 7.64805 27.2621 8.25605C26.9261 8.84805 26.7581 9.56005 26.7581 10.392C26.7581 11.224 26.9261 11.944 27.2621 12.552C27.5981 13.144 28.0621 13.6 28.6541 13.92C29.2461 14.24 29.9101 14.4 30.6461 14.4C31.2861 14.4 31.8781 14.256 32.4221 13.968C32.9821 13.68 33.4541 13.232 33.8381 12.624L36.1421 13.968C35.6461 14.928 34.9181 15.672 33.9581 16.2C33.0141 16.712 31.9181 16.968 30.6701 16.968ZM44.3079 16.968C42.9959 16.968 41.8279 16.688 40.8039 16.128C39.7799 15.552 38.9719 14.768 38.3799 13.776C37.7879 12.784 37.4919 11.656 37.4919 10.392C37.4919 9.11205 37.7879 7.98405 38.3799 7.00805C38.9719 6.01605 39.7799 5.24005 40.8039 4.68005C41.8279 4.12005 42.9959 3.84005 44.3079 3.84005C45.6359 3.84005 46.8119 4.12005 47.8359 4.68005C48.8759 5.24005 49.6839 6.00805 50.2599 6.98405C50.8519 7.96005 51.1479 9.09605 51.1479 10.392C51.1479 11.656 50.8519 12.784 50.2599 13.776C49.6839 14.768 48.8759 15.552 47.8359 16.128C46.8119 16.688 45.6359 16.968 44.3079 16.968ZM44.3079 14.4C45.0439 14.4 45.6999 14.24 46.2759 13.92C46.8519 13.6 47.2999 13.136 47.6199 12.528C47.9559 11.92 48.1239 11.208 48.1239 10.392C48.1239 9.56005 47.9559 8.84805 47.6199 8.25605C47.2999 7.64805 46.8519 7.18405 46.2759 6.86405C45.6999 6.54405 45.0519 6.38405 44.3319 6.38405C43.5959 6.38405 42.9399 6.54405 42.3639 6.86405C41.8039 7.18405 41.3559 7.64805 41.0199 8.25605C40.6839 8.84805 40.5159 9.56005 40.5159 10.392C40.5159 11.208 40.6839 11.92 41.0199 12.528C41.3559 13.136 41.8039 13.6 42.3639 13.92C42.9399 14.24 43.5879 14.4 44.3079 14.4ZM70.1927 3.84005C71.2167 3.84005 72.1207 4.04005 72.9047 4.44005C73.7047 4.84005 74.3287 5.45605 74.7767 6.28805C75.2247 7.10405 75.4487 8.16005 75.4487 9.45605V16.8H72.4487V9.84005C72.4487 8.70405 72.2007 7.85605 71.7047 7.29605C71.2087 6.73605 70.4967 6.45605 69.5687 6.45605C68.9127 6.45605 68.3287 6.60005 67.8167 6.88805C67.3207 7.17605 66.9287 7.60005 66.6407 8.16005C66.3687 8.72005 66.2327 9.43205 66.2327 10.296V16.8H63.2327V9.84005C63.2327 8.70405 62.9847 7.85605 62.4887 7.29605C61.9927 6.73605 61.2807 6.45605 60.3527 6.45605C59.6967 6.45605 59.1127 6.60005 58.6007 6.88805C58.1047 7.17605 57.7127 7.60005 57.4247 8.16005C57.1527 8.72005 57.0167 9.43205 57.0167 10.296V16.8H54.0167V3.98405H56.8727V7.39205L56.3687 6.38405C56.8007 5.55205 57.4247 4.92005 58.2407 4.48805C59.0727 4.05605 60.0167 3.84005 61.0727 3.84005C62.2727 3.84005 63.3127 4.13605 64.1927 4.72805C65.0887 5.32005 65.6807 6.21605 65.9687 7.41605L64.7927 7.00805C65.2087 6.04805 65.8967 5.28005 66.8567 4.70405C67.8167 4.12805 68.9287 3.84005 70.1927 3.84005ZM95.4583 3.84005C96.4823 3.84005 97.3863 4.04005 98.1703 4.44005C98.9703 4.84005 99.5943 5.45605 100.042 6.28805C100.49 7.10405 100.714 8.16005 100.714 9.45605V16.8H97.7143V9.84005C97.7143 8.70405 97.4663 7.85605 96.9703 7.29605C96.4743 6.73605 95.7623 6.45605 94.8343 6.45605C94.1783 6.45605 93.5943 6.60005 93.0823 6.88805C92.5863 7.17605 92.1943 7.60005 91.9063 8.16005C91.6343 8.72005 91.4983 9.43205 91.4983 10.296V16.8H88.4983V9.84005C88.4983 8.70405 88.2503 7.85605 87.7543 7.29605C87.2583 6.73605 86.5463 6.45605 85.6183 6.45605C84.9623 6.45605 84.3783 6.60005 83.8663 6.88805C83.3703 7.17605 82.9783 7.60005 82.6903 8.16005C82.4183 8.72005 82.2823 9.43205 82.2823 10.296V16.8H79.2823V3.98405H82.1383V7.39205L81.6343 6.38405C82.0663 5.55205 82.6903 4.92005 83.5063 4.48805C84.3383 4.05605 85.2823 3.84005 86.3383 3.84005C87.5383 3.84005 88.5783 4.13605 89.4583 4.72805C90.3543 5.32005 90.9463 6.21605 91.2343 7.41605L90.0583 7.00805C90.4743 6.04805 91.1623 5.28005 92.1223 4.70405C93.0823 4.12805 94.1943 3.84005 95.4583 3.84005ZM110.595 16.968C109.171 16.968 107.923 16.688 106.851 16.128C105.795 15.552 104.971 14.768 104.379 13.776C103.803 12.784 103.515 11.656 103.515 10.392C103.515 9.11205 103.795 7.98405 104.355 7.00805C104.931 6.01605 105.715 5.24005 106.707 4.68005C107.715 4.12005 108.859 3.84005 110.139 3.84005C111.387 3.84005 112.499 4.11205 113.475 4.65605C114.451 5.20005 115.219 5.96805 115.779 6.96005C116.339 7.95205 116.619 9.12005 116.619 10.464C116.619 10.592 116.611 10.736 116.595 10.896C116.595 11.056 116.587 11.208 116.571 11.352H105.891V9.36005H114.987L113.811 9.98405C113.827 9.24805 113.675 8.60005 113.355 8.04005C113.035 7.48005 112.595 7.04005 112.035 6.72005C111.491 6.40005 110.859 6.24005 110.139 6.24005C109.403 6.24005 108.755 6.40005 108.195 6.72005C107.651 7.04005 107.219 7.48805 106.899 8.06405C106.595 8.62405 106.443 9.28805 106.443 10.056V10.536C106.443 11.304 106.619 11.984 106.971 12.576C107.323 13.168 107.819 13.624 108.459 13.944C109.099 14.264 109.835 14.424 110.667 14.424C111.387 14.424 112.035 14.312 112.611 14.088C113.187 13.864 113.699 13.512 114.147 13.032L115.755 14.88C115.179 15.552 114.451 16.072 113.571 16.44C112.707 16.792 111.715 16.968 110.595 16.968ZM119.501 16.8V3.98405H122.357V7.51205L122.021 6.48005C122.405 5.61605 123.005 4.96005 123.821 4.51205C124.653 4.06405 125.685 3.84005 126.917 3.84005V6.69605C126.789 6.66405 126.669 6.64805 126.557 6.64805C126.445 6.63205 126.333 6.62405 126.221 6.62405C125.085 6.62405 124.181 6.96005 123.509 7.63205C122.837 8.28805 122.501 9.27205 122.501 10.584V16.8H119.501ZM135.225 16.968C133.881 16.968 132.681 16.688 131.625 16.128C130.585 15.552 129.769 14.768 129.177 13.776C128.585 12.784 128.289 11.656 128.289 10.392C128.289 9.11205 128.585 7.98405 129.177 7.00805C129.769 6.01605 130.585 5.24005 131.625 4.68005C132.681 4.12005 133.881 3.84005 135.225 3.84005C136.473 3.84005 137.569 4.09605 138.513 4.60805C139.473 5.10405 140.201 5.84005 140.697 6.81605L138.393 8.16005C138.009 7.55205 137.537 7.10405 136.977 6.81605C136.433 6.52805 135.841 6.38405 135.201 6.38405C134.465 6.38405 133.801 6.54405 133.209 6.86405C132.617 7.18405 132.153 7.64805 131.817 8.25605C131.481 8.84805 131.313 9.56005 131.313 10.392C131.313 11.224 131.481 11.944 131.817 12.552C132.153 13.144 132.617 13.6 133.209 13.92C133.801 14.24 134.465 14.4 135.201 14.4C135.841 14.4 136.433 14.256 136.977 13.968C137.537 13.68 138.009 13.232 138.393 12.624L140.697 13.968C140.201 14.928 139.473 15.672 138.513 16.2C137.569 16.712 136.473 16.968 135.225 16.968ZM149.127 16.968C147.703 16.968 146.455 16.688 145.383 16.128C144.327 15.552 143.503 14.768 142.911 13.776C142.335 12.784 142.047 11.656 142.047 10.392C142.047 9.11205 142.327 7.98405 142.887 7.00805C143.463 6.01605 144.247 5.24005 145.239 4.68005C146.247 4.12005 147.391 3.84005 148.671 3.84005C149.919 3.84005 151.031 4.11205 152.007 4.65605C152.983 5.20005 153.751 5.96805 154.311 6.96005C154.871 7.95205 155.151 9.12005 155.151 10.464C155.151 10.592 155.143 10.736 155.127 10.896C155.127 11.056 155.119 11.208 155.103 11.352H144.423V9.36005H153.519L152.343 9.98405C152.359 9.24805 152.207 8.60005 151.887 8.04005C151.567 7.48005 151.127 7.04005 150.567 6.72005C150.023 6.40005 149.391 6.24005 148.671 6.24005C147.935 6.24005 147.287 6.40005 146.727 6.72005C146.183 7.04005 145.751 7.48805 145.431 8.06405C145.127 8.62405 144.975 9.28805 144.975 10.056V10.536C144.975 11.304 145.151 11.984 145.503 12.576C145.855 13.168 146.351 13.624 146.991 13.944C147.631 14.264 148.367 14.424 149.199 14.424C149.919 14.424 150.567 14.312 151.143 14.088C151.719 13.864 152.231 13.512 152.679 13.032L154.287 14.88C153.711 15.552 152.983 16.072 152.103 16.44C151.239 16.792 150.247 16.968 149.127 16.968Z" fill="#FCFCFC"/>
</svg>
