<svg width="129" height="18" viewBox="0 0 129 18" fill="none" xmlns="http://www.w3.org/2000/svg">
<path d="M5.56799 17.8081L-1.02371e-05 1.0081H3.23999L8.20799 16.2001H6.59999L11.76 1.0081H14.64L19.656 16.2001H18.096L23.184 1.0081H26.16L20.592 17.8081H17.28L12.696 4.1041H13.56L8.90399 17.8081H5.56799ZM36.0373 4.8481C37.0613 4.8481 37.9733 5.0481 38.7733 5.4481C39.5893 5.8481 40.2293 6.46411 40.6933 7.2961C41.1573 8.1121 41.3893 9.1681 41.3893 10.4641V17.8081H38.3893V10.8481C38.3893 9.7121 38.1173 8.8641 37.5733 8.3041C37.0453 7.7441 36.3013 7.4641 35.3413 7.4641C34.6373 7.4641 34.0133 7.6081 33.4693 7.89611C32.9253 8.18411 32.5013 8.61611 32.1973 9.1921C31.9093 9.75211 31.7653 10.4641 31.7653 11.3281V17.8081H28.7653V0.000104427H31.7653V8.44811L31.1173 7.39211C31.5653 6.57611 32.2133 5.95211 33.0613 5.5201C33.9253 5.0721 34.9173 4.8481 36.0373 4.8481ZM50.9784 17.9761C49.6664 17.9761 48.4984 17.6961 47.4744 17.1361C46.4504 16.5601 45.6424 15.7761 45.0504 14.7841C44.4584 13.7921 44.1624 12.6641 44.1624 11.4001C44.1624 10.1201 44.4584 8.99211 45.0504 8.0161C45.6424 7.0241 46.4504 6.24811 47.4744 5.68811C48.4984 5.12811 49.6664 4.8481 50.9784 4.8481C52.3064 4.8481 53.4824 5.12811 54.5064 5.68811C55.5464 6.24811 56.3544 7.0161 56.9304 7.99211C57.5224 8.96811 57.8184 10.1041 57.8184 11.4001C57.8184 12.6641 57.5224 13.7921 56.9304 14.7841C56.3544 15.7761 55.5464 16.5601 54.5064 17.1361C53.4824 17.6961 52.3064 17.9761 50.9784 17.9761ZM50.9784 15.4081C51.7144 15.4081 52.3704 15.2481 52.9464 14.9281C53.5224 14.6081 53.9704 14.1441 54.2904 13.5361C54.6264 12.9281 54.7944 12.2161 54.7944 11.4001C54.7944 10.5681 54.6264 9.85611 54.2904 9.26411C53.9704 8.65611 53.5224 8.1921 52.9464 7.8721C52.3704 7.5521 51.7224 7.39211 51.0024 7.39211C50.2664 7.39211 49.6104 7.5521 49.0344 7.8721C48.4744 8.1921 48.0264 8.65611 47.6904 9.26411C47.3544 9.85611 47.1864 10.5681 47.1864 11.4001C47.1864 12.2161 47.3544 12.9281 47.6904 13.5361C48.0264 14.1441 48.4744 14.6081 49.0344 14.9281C49.6104 15.2481 50.2584 15.4081 50.9784 15.4081ZM60.6872 17.8081V0.000104427H63.6872V17.8081H60.6872ZM73.6487 17.9761C72.2247 17.9761 70.9767 17.6961 69.9047 17.1361C68.8487 16.5601 68.0247 15.7761 67.4327 14.7841C66.8567 13.7921 66.5687 12.6641 66.5687 11.4001C66.5687 10.1201 66.8487 8.99211 67.4087 8.0161C67.9847 7.0241 68.7687 6.24811 69.7607 5.68811C70.7687 5.12811 71.9127 4.8481 73.1927 4.8481C74.4407 4.8481 75.5527 5.1201 76.5287 5.6641C77.5047 6.2081 78.2727 6.9761 78.8327 7.9681C79.3927 8.9601 79.6727 10.1281 79.6727 11.4721C79.6727 11.6001 79.6647 11.7441 79.6487 11.9041C79.6487 12.0641 79.6407 12.2161 79.6247 12.3601H68.9447V10.3681H78.0407L76.8647 10.9921C76.8807 10.2561 76.7287 9.60811 76.4087 9.04811C76.0887 8.48811 75.6487 8.04811 75.0887 7.72811C74.5447 7.4081 73.9127 7.2481 73.1927 7.2481C72.4567 7.2481 71.8087 7.4081 71.2487 7.72811C70.7047 8.04811 70.2727 8.49611 69.9527 9.0721C69.6487 9.6321 69.4967 10.2961 69.4967 11.0641V11.5441C69.4967 12.3121 69.6727 12.9921 70.0247 13.5841C70.3767 14.1761 70.8727 14.6321 71.5127 14.9521C72.1527 15.2721 72.8887 15.4321 73.7207 15.4321C74.4407 15.4321 75.0887 15.3201 75.6647 15.0961C76.2407 14.8721 76.7527 14.5201 77.2007 14.0401L78.8087 15.8881C78.2327 16.5601 77.5047 17.0801 76.6247 17.4481C75.7607 17.8001 74.7687 17.9761 73.6487 17.9761ZM86.5144 17.9761C85.4424 17.9761 84.4104 17.8401 83.4184 17.5681C82.4424 17.2801 81.6664 16.9361 81.0904 16.5361L82.2424 14.2561C82.8184 14.6241 83.5064 14.9281 84.3064 15.1681C85.1064 15.4081 85.9064 15.5281 86.7064 15.5281C87.6504 15.5281 88.3304 15.4001 88.7464 15.1441C89.1784 14.8881 89.3944 14.5441 89.3944 14.1121C89.3944 13.7601 89.2504 13.4961 88.9624 13.3201C88.6744 13.1281 88.2984 12.9841 87.8344 12.8881C87.3704 12.7921 86.8504 12.7041 86.2744 12.6241C85.7144 12.5441 85.1464 12.4401 84.5704 12.3121C84.0104 12.1681 83.4984 11.9681 83.0344 11.7121C82.5704 11.4401 82.1944 11.0801 81.9064 10.6321C81.6184 10.1841 81.4744 9.5921 81.4744 8.8561C81.4744 8.0401 81.7064 7.3361 82.1704 6.7441C82.6344 6.13611 83.2824 5.6721 84.1144 5.3521C84.9624 5.0161 85.9624 4.8481 87.1144 4.8481C87.9784 4.8481 88.8504 4.94411 89.7304 5.13611C90.6104 5.3281 91.3384 5.6001 91.9144 5.95211L90.7624 8.23211C90.1544 7.8641 89.5384 7.61611 88.9144 7.48811C88.3064 7.34411 87.6984 7.27211 87.0904 7.27211C86.1784 7.27211 85.4984 7.40811 85.0504 7.6801C84.6184 7.9521 84.4024 8.2961 84.4024 8.71211C84.4024 9.09611 84.5464 9.3841 84.8344 9.5761C85.1224 9.7681 85.4984 9.9201 85.9624 10.0321C86.4264 10.1441 86.9384 10.2401 87.4984 10.3201C88.0744 10.3841 88.6424 10.4881 89.2024 10.6321C89.7624 10.7761 90.2744 10.9761 90.7384 11.2321C91.2184 11.4721 91.6024 11.8161 91.8904 12.2641C92.1784 12.7121 92.3224 13.2961 92.3224 14.0161C92.3224 14.8161 92.0824 15.5121 91.6024 16.1041C91.1384 16.6961 90.4744 17.1601 89.6104 17.4961C88.7464 17.8161 87.7144 17.9761 86.5144 17.9761ZM102.802 17.8081V15.2161L102.634 14.6641V10.1281C102.634 9.2481 102.37 8.5681 101.842 8.0881C101.314 7.5921 100.514 7.34411 99.4419 7.34411C98.7219 7.34411 98.0099 7.4561 97.3059 7.6801C96.6179 7.9041 96.0339 8.2161 95.5539 8.61611L94.3779 6.4321C95.0659 5.9041 95.8819 5.5121 96.8259 5.25611C97.7859 4.98411 98.7779 4.8481 99.8019 4.8481C101.658 4.8481 103.09 5.2961 104.098 6.1921C105.122 7.0721 105.634 8.4401 105.634 10.2961V17.8081H102.802ZM98.7699 17.9761C97.8099 17.9761 96.9699 17.8161 96.2499 17.4961C95.5299 17.1601 94.9699 16.7041 94.5699 16.1281C94.1859 15.5361 93.9939 14.8721 93.9939 14.1361C93.9939 13.4161 94.1619 12.7681 94.4979 12.1921C94.8499 11.6161 95.4179 11.1601 96.2019 10.8241C96.9859 10.4881 98.0259 10.3201 99.3219 10.3201H103.042V12.3121H99.5379C98.5139 12.3121 97.8259 12.4801 97.4739 12.8161C97.1219 13.1361 96.9459 13.5361 96.9459 14.0161C96.9459 14.5601 97.1619 14.9921 97.5939 15.3121C98.0259 15.6321 98.6259 15.7921 99.3939 15.7921C100.13 15.7921 100.786 15.6241 101.362 15.2881C101.954 14.9521 102.378 14.4561 102.634 13.8001L103.138 15.6001C102.85 16.3521 102.33 16.9361 101.578 17.3521C100.842 17.7681 99.9059 17.9761 98.7699 17.9761ZM109.484 17.8081V0.000104427H112.484V17.8081H109.484ZM122.446 17.9761C121.022 17.9761 119.774 17.6961 118.702 17.1361C117.646 16.5601 116.822 15.7761 116.23 14.7841C115.654 13.7921 115.366 12.6641 115.366 11.4001C115.366 10.1201 115.646 8.99211 116.206 8.0161C116.782 7.0241 117.566 6.24811 118.558 5.68811C119.566 5.12811 120.71 4.8481 121.99 4.8481C123.238 4.8481 124.35 5.1201 125.326 5.6641C126.302 6.2081 127.07 6.9761 127.63 7.9681C128.19 8.9601 128.47 10.1281 128.47 11.4721C128.47 11.6001 128.462 11.7441 128.446 11.9041C128.446 12.0641 128.438 12.2161 128.422 12.3601H117.742V10.3681H126.838L125.662 10.9921C125.678 10.2561 125.526 9.60811 125.206 9.04811C124.886 8.48811 124.446 8.04811 123.886 7.72811C123.342 7.4081 122.71 7.2481 121.99 7.2481C121.254 7.2481 120.606 7.4081 120.046 7.72811C119.502 8.04811 119.07 8.49611 118.75 9.0721C118.446 9.6321 118.294 10.2961 118.294 11.0641V11.5441C118.294 12.3121 118.47 12.9921 118.822 13.5841C119.174 14.1761 119.67 14.6321 120.31 14.9521C120.95 15.2721 121.686 15.4321 122.518 15.4321C123.238 15.4321 123.886 15.3201 124.462 15.0961C125.038 14.8721 125.55 14.5201 125.998 14.0401L127.606 15.8881C127.03 16.5601 126.302 17.0801 125.422 17.4481C124.558 17.8001 123.566 17.9761 122.446 17.9761Z" fill="#FCFCFC"/>
</svg>
