<svg width="620" height="32" viewBox="0 0 620 32" fill="none" xmlns="http://www.w3.org/2000/svg">
<path d="M7.42401 24.7041V5.8241H9.28342e-06V2.3041H19.008V5.8241H11.584V24.7041H7.42401ZM31.3678 24.7041V21.2481L31.1438 20.5121V14.4641C31.1438 13.2908 30.7918 12.3841 30.0878 11.7441C29.3838 11.0828 28.3171 10.7521 26.8878 10.7521C25.9278 10.7521 24.9784 10.9014 24.0398 11.2001C23.1224 11.4988 22.3438 11.9148 21.7038 12.4481L20.1358 9.5361C21.0531 8.8321 22.1411 8.30943 23.3998 7.9681C24.6798 7.60543 26.0024 7.4241 27.3678 7.4241C29.8424 7.4241 31.7518 8.02143 33.0958 9.2161C34.4611 10.3894 35.1438 12.2134 35.1438 14.6881V24.7041H31.3678ZM25.9918 24.9281C24.7118 24.9281 23.5918 24.7148 22.6318 24.2881C21.6718 23.8401 20.9251 23.2321 20.3918 22.4641C19.8798 21.6748 19.6238 20.7894 19.6238 19.8081C19.6238 18.8481 19.8478 17.9841 20.2958 17.2161C20.7651 16.4481 21.5224 15.8401 22.5678 15.3921C23.6131 14.9441 24.9998 14.7201 26.7278 14.7201H31.6878V17.3761H27.0158C25.6504 17.3761 24.7331 17.6001 24.2638 18.0481C23.7944 18.4748 23.5598 19.0081 23.5598 19.6481C23.5598 20.3734 23.8478 20.9494 24.4238 21.3761C24.9998 21.8028 25.7998 22.0161 26.8238 22.0161C27.8051 22.0161 28.6798 21.7921 29.4478 21.3441C30.2371 20.8961 30.8024 20.2348 31.1438 19.3601L31.8158 21.7601C31.4318 22.7628 30.7384 23.5414 29.7358 24.0961C28.7544 24.6508 27.5064 24.9281 25.9918 24.9281ZM40.2773 24.7041V7.6161H44.2773V24.7041H40.2773ZM42.2933 4.8001C41.5466 4.8001 40.9279 4.56543 40.4373 4.0961C39.9679 3.62677 39.7333 3.06143 39.7333 2.4001C39.7333 1.71743 39.9679 1.1521 40.4373 0.7041C40.9279 0.234767 41.5466 0.000101089 42.2933 0.000101089C43.0399 0.000101089 43.6479 0.224101 44.1173 0.6721C44.6079 1.09877 44.8533 1.64277 44.8533 2.3041C44.8533 3.0081 44.6186 3.60543 44.1493 4.0961C43.6799 4.56543 43.0613 4.8001 42.2933 4.8001ZM49.5273 24.7041V0.9601H53.5273V24.7041H49.5273ZM66.4573 24.9281C64.7079 24.9281 63.1506 24.5548 61.7853 23.8081C60.4199 23.0401 59.3426 21.9948 58.5533 20.6721C57.7639 19.3494 57.3693 17.8454 57.3693 16.1601C57.3693 14.4534 57.7639 12.9494 58.5533 11.6481C59.3426 10.3254 60.4199 9.29077 61.7853 8.5441C63.1506 7.79743 64.7079 7.4241 66.4573 7.4241C68.2279 7.4241 69.7959 7.79743 71.1613 8.5441C72.5479 9.29077 73.6253 10.3148 74.3933 11.6161C75.1826 12.9174 75.5773 14.4321 75.5773 16.1601C75.5773 17.8454 75.1826 19.3494 74.3933 20.6721C73.6253 21.9948 72.5479 23.0401 71.1613 23.8081C69.7959 24.5548 68.2279 24.9281 66.4573 24.9281ZM66.4573 21.5041C67.4386 21.5041 68.3133 21.2908 69.0813 20.8641C69.8493 20.4374 70.4466 19.8188 70.8733 19.0081C71.3213 18.1974 71.5453 17.2481 71.5453 16.1601C71.5453 15.0508 71.3213 14.1014 70.8733 13.3121C70.4466 12.5014 69.8493 11.8828 69.0813 11.4561C68.3133 11.0294 67.4493 10.8161 66.4893 10.8161C65.5079 10.8161 64.6333 11.0294 63.8653 11.4561C63.1186 11.8828 62.5213 12.5014 62.0733 13.3121C61.6253 14.1014 61.4013 15.0508 61.4013 16.1601C61.4013 17.2481 61.6253 18.1974 62.0733 19.0081C62.5213 19.8188 63.1186 20.4374 63.8653 20.8641C64.6333 21.2908 65.4973 21.5041 66.4573 21.5041ZM79.4023 24.7041V7.6161H83.2103V12.3201L82.7623 10.9441C83.2743 9.7921 84.0743 8.91743 85.1623 8.3201C86.2716 7.72277 87.6476 7.4241 89.2903 7.4241V11.2321C89.1196 11.1894 88.9596 11.1681 88.8103 11.1681C88.6609 11.1468 88.5116 11.1361 88.3623 11.1361C86.8476 11.1361 85.6423 11.5841 84.7463 12.4801C83.8503 13.3548 83.4023 14.6668 83.4023 16.4161V24.7041H79.4023ZM100.559 24.9281C98.6606 24.9281 96.9966 24.5548 95.5673 23.8081C94.1593 23.0401 93.0606 21.9948 92.2713 20.6721C91.5033 19.3494 91.1193 17.8454 91.1193 16.1601C91.1193 14.4534 91.4926 12.9494 92.2393 11.6481C93.0073 10.3254 94.0526 9.29077 95.3753 8.5441C96.7193 7.79743 98.2446 7.4241 99.9513 7.4241C101.615 7.4241 103.098 7.78677 104.399 8.5121C105.701 9.23743 106.725 10.2614 107.471 11.5841C108.218 12.9068 108.591 14.4641 108.591 16.2561C108.591 16.4268 108.581 16.6188 108.559 16.8321C108.559 17.0454 108.549 17.2481 108.527 17.4401H94.2873V14.7841H106.415L104.847 15.6161C104.869 14.6348 104.666 13.7708 104.239 13.0241C103.813 12.2774 103.226 11.6908 102.479 11.2641C101.754 10.8374 100.911 10.6241 99.9513 10.6241C98.9699 10.6241 98.1059 10.8374 97.3593 11.2641C96.6339 11.6908 96.0579 12.2881 95.6313 13.0561C95.2259 13.8028 95.0233 14.6881 95.0233 15.7121V16.3521C95.0233 17.3761 95.2579 18.2828 95.7273 19.0721C96.1966 19.8614 96.8579 20.4694 97.7113 20.8961C98.5646 21.3228 99.5459 21.5361 100.655 21.5361C101.615 21.5361 102.479 21.3868 103.247 21.0881C104.015 20.7894 104.698 20.3201 105.295 19.6801L107.439 22.1441C106.671 23.0401 105.701 23.7334 104.527 24.2241C103.375 24.6934 102.053 24.9281 100.559 24.9281ZM119.666 24.9281C118.023 24.9281 116.54 24.5654 115.218 23.8401C113.916 23.0934 112.892 22.0694 112.146 20.7681C111.399 19.4668 111.026 17.9308 111.026 16.1601C111.026 14.3894 111.399 12.8534 112.146 11.5521C112.892 10.2508 113.916 9.23743 115.218 8.5121C116.54 7.78677 118.023 7.4241 119.666 7.4241C121.095 7.4241 122.375 7.7441 123.506 8.3841C124.636 9.00277 125.532 9.9521 126.194 11.2321C126.855 12.5121 127.186 14.1548 127.186 16.1601C127.186 18.1441 126.866 19.7868 126.226 21.0881C125.586 22.3681 124.7 23.3281 123.57 23.9681C122.439 24.6081 121.138 24.9281 119.666 24.9281ZM120.146 21.5041C121.106 21.5041 121.959 21.2908 122.706 20.8641C123.474 20.4374 124.082 19.8188 124.53 19.0081C124.999 18.1974 125.234 17.2481 125.234 16.1601C125.234 15.0508 124.999 14.1014 124.53 13.3121C124.082 12.5014 123.474 11.8828 122.706 11.4561C121.959 11.0294 121.106 10.8161 120.146 10.8161C119.186 10.8161 118.322 11.0294 117.554 11.4561C116.807 11.8828 116.199 12.5014 115.73 13.3121C115.282 14.1014 115.058 15.0508 115.058 16.1601C115.058 17.2481 115.282 18.1974 115.73 19.0081C116.199 19.8188 116.807 20.4374 117.554 20.8641C118.322 21.2908 119.186 21.5041 120.146 21.5041ZM125.33 24.7041V20.6721L125.49 16.1281L125.17 11.5841V0.9601H129.138V24.7041H125.33ZM143.79 24.7041V6.6561C143.79 4.8641 144.313 3.43477 145.358 2.3681C146.425 1.2801 147.939 0.736101 149.902 0.736101C150.606 0.736101 151.267 0.810767 151.886 0.9601C152.526 1.10943 153.059 1.3441 153.486 1.6641L152.398 4.6721C152.099 4.43743 151.758 4.26677 151.374 4.1601C150.99 4.0321 150.595 3.9681 150.19 3.9681C149.358 3.9681 148.729 4.20277 148.302 4.6721C147.875 5.1201 147.662 5.80277 147.662 6.7201V8.6401L147.79 10.4321V24.7041H143.79ZM140.974 10.9441V7.7441H152.366V10.9441H140.974ZM162.489 24.9281C160.739 24.9281 159.182 24.5548 157.817 23.8081C156.451 23.0401 155.374 21.9948 154.585 20.6721C153.795 19.3494 153.401 17.8454 153.401 16.1601C153.401 14.4534 153.795 12.9494 154.585 11.6481C155.374 10.3254 156.451 9.29077 157.817 8.5441C159.182 7.79743 160.739 7.4241 162.489 7.4241C164.259 7.4241 165.827 7.79743 167.193 8.5441C168.579 9.29077 169.657 10.3148 170.425 11.6161C171.214 12.9174 171.609 14.4321 171.609 16.1601C171.609 17.8454 171.214 19.3494 170.425 20.6721C169.657 21.9948 168.579 23.0401 167.193 23.8081C165.827 24.5548 164.259 24.9281 162.489 24.9281ZM162.489 21.5041C163.47 21.5041 164.345 21.2908 165.113 20.8641C165.881 20.4374 166.478 19.8188 166.905 19.0081C167.353 18.1974 167.577 17.2481 167.577 16.1601C167.577 15.0508 167.353 14.1014 166.905 13.3121C166.478 12.5014 165.881 11.8828 165.113 11.4561C164.345 11.0294 163.481 10.8161 162.521 10.8161C161.539 10.8161 160.665 11.0294 159.897 11.4561C159.15 11.8828 158.553 12.5014 158.105 13.3121C157.657 14.1014 157.433 15.0508 157.433 16.1601C157.433 17.2481 157.657 18.1974 158.105 19.0081C158.553 19.8188 159.15 20.4374 159.897 20.8641C160.665 21.2908 161.529 21.5041 162.489 21.5041ZM175.434 24.7041V7.6161H179.242V12.3201L178.794 10.9441C179.306 9.7921 180.106 8.91743 181.194 8.3201C182.303 7.72277 183.679 7.4241 185.322 7.4241V11.2321C185.151 11.1894 184.991 11.1681 184.842 11.1681C184.692 11.1468 184.543 11.1361 184.394 11.1361C182.879 11.1361 181.674 11.5841 180.778 12.4801C179.882 13.3548 179.434 14.6668 179.434 16.4161V24.7041H175.434ZM204.147 24.9281C202.269 24.9281 200.819 24.4481 199.795 23.4881C198.771 22.5068 198.259 21.0668 198.259 19.1681V3.8401H202.259V19.0721C202.259 19.8828 202.461 20.5121 202.867 20.9601C203.293 21.4081 203.88 21.6321 204.627 21.6321C205.523 21.6321 206.269 21.3974 206.867 20.9281L207.987 23.7761C207.517 24.1601 206.941 24.4481 206.259 24.6401C205.576 24.8321 204.872 24.9281 204.147 24.9281ZM195.443 10.9441V7.7441H206.835V10.9441H195.443ZM220.973 7.4241C222.339 7.4241 223.555 7.69077 224.621 8.2241C225.709 8.75743 226.563 9.57877 227.181 10.6881C227.8 11.7761 228.109 13.1841 228.109 14.9121V24.7041H224.109V15.4241C224.109 13.9094 223.747 12.7788 223.021 12.0321C222.317 11.2854 221.325 10.9121 220.045 10.9121C219.107 10.9121 218.275 11.1041 217.549 11.4881C216.824 11.8721 216.259 12.4481 215.853 13.2161C215.469 13.9628 215.277 14.9121 215.277 16.0641V24.7041H211.277V0.9601H215.277V12.2241L214.413 10.8161C215.011 9.7281 215.875 8.8961 217.005 8.3201C218.157 7.72277 219.48 7.4241 220.973 7.4241ZM241.247 24.9281C239.348 24.9281 237.684 24.5548 236.255 23.8081C234.847 23.0401 233.748 21.9948 232.959 20.6721C232.191 19.3494 231.807 17.8454 231.807 16.1601C231.807 14.4534 232.18 12.9494 232.927 11.6481C233.695 10.3254 234.74 9.29077 236.063 8.5441C237.407 7.79743 238.932 7.4241 240.639 7.4241C242.303 7.4241 243.785 7.78677 245.087 8.5121C246.388 9.23743 247.412 10.2614 248.159 11.5841C248.905 12.9068 249.279 14.4641 249.279 16.2561C249.279 16.4268 249.268 16.6188 249.247 16.8321C249.247 17.0454 249.236 17.2481 249.215 17.4401H234.975V14.7841H247.103L245.535 15.6161C245.556 14.6348 245.353 13.7708 244.927 13.0241C244.5 12.2774 243.913 11.6908 243.167 11.2641C242.441 10.8374 241.599 10.6241 240.639 10.6241C239.657 10.6241 238.793 10.8374 238.047 11.2641C237.321 11.6908 236.745 12.2881 236.319 13.0561C235.913 13.8028 235.711 14.6881 235.711 15.7121V16.3521C235.711 17.3761 235.945 18.2828 236.415 19.0721C236.884 19.8614 237.545 20.4694 238.399 20.8961C239.252 21.3228 240.233 21.5361 241.343 21.5361C242.303 21.5361 243.167 21.3868 243.935 21.0881C244.703 20.7894 245.385 20.3201 245.983 19.6801L248.127 22.1441C247.359 23.0401 246.388 23.7334 245.215 24.2241C244.063 24.6934 242.74 24.9281 241.247 24.9281ZM269.293 25.0241C267.543 25.0241 265.869 24.7788 264.269 24.2881C262.669 23.7761 261.399 23.1254 260.461 22.3361L261.901 19.1041C262.797 19.8081 263.906 20.3948 265.229 20.8641C266.551 21.3334 267.906 21.5681 269.293 21.5681C270.466 21.5681 271.415 21.4401 272.141 21.1841C272.866 20.9281 273.399 20.5868 273.741 20.1601C274.082 19.7121 274.253 19.2108 274.253 18.6561C274.253 17.9734 274.007 17.4294 273.517 17.0241C273.026 16.5974 272.386 16.2668 271.597 16.0321C270.829 15.7761 269.965 15.5414 269.005 15.3281C268.066 15.1148 267.117 14.8694 266.157 14.5921C265.218 14.2934 264.354 13.9201 263.565 13.4721C262.797 13.0028 262.167 12.3841 261.677 11.6161C261.186 10.8481 260.941 9.86677 260.941 8.6721C260.941 7.4561 261.261 6.34677 261.901 5.3441C262.562 4.3201 263.554 3.50943 264.877 2.9121C266.221 2.29343 267.917 1.9841 269.965 1.9841C271.309 1.9841 272.642 2.15477 273.965 2.4961C275.287 2.83743 276.439 3.3281 277.421 3.9681L276.109 7.2001C275.106 6.60277 274.071 6.16543 273.005 5.8881C271.938 5.58943 270.914 5.4401 269.933 5.4401C268.781 5.4401 267.842 5.57877 267.117 5.8561C266.413 6.13343 265.89 6.4961 265.549 6.9441C265.229 7.3921 265.069 7.9041 265.069 8.4801C265.069 9.16277 265.303 9.71743 265.773 10.1441C266.263 10.5494 266.893 10.8694 267.661 11.1041C268.45 11.3388 269.325 11.5734 270.285 11.8081C271.245 12.0214 272.194 12.2668 273.133 12.5441C274.093 12.8214 274.957 13.1841 275.725 13.6321C276.514 14.0801 277.143 14.6881 277.613 15.4561C278.103 16.2241 278.349 17.1948 278.349 18.3681C278.349 19.5628 278.018 20.6721 277.357 21.6961C276.717 22.6988 275.725 23.5094 274.381 24.1281C273.037 24.7254 271.341 25.0241 269.293 25.0241ZM289.93 24.9281C288.138 24.9281 286.538 24.5548 285.13 23.8081C283.743 23.0401 282.655 21.9948 281.866 20.6721C281.076 19.3494 280.682 17.8454 280.682 16.1601C280.682 14.4534 281.076 12.9494 281.866 11.6481C282.655 10.3254 283.743 9.29077 285.13 8.5441C286.538 7.79743 288.138 7.4241 289.93 7.4241C291.594 7.4241 293.055 7.76543 294.314 8.4481C295.594 9.10943 296.564 10.0908 297.226 11.3921L294.154 13.1841C293.642 12.3734 293.012 11.7761 292.266 11.3921C291.54 11.0081 290.751 10.8161 289.898 10.8161C288.916 10.8161 288.031 11.0294 287.242 11.4561C286.452 11.8828 285.834 12.5014 285.386 13.3121C284.938 14.1014 284.714 15.0508 284.714 16.1601C284.714 17.2694 284.938 18.2294 285.386 19.0401C285.834 19.8294 286.452 20.4374 287.242 20.8641C288.031 21.2908 288.916 21.5041 289.898 21.5041C290.751 21.5041 291.54 21.3121 292.266 20.9281C293.012 20.5441 293.642 19.9468 294.154 19.1361L297.226 20.9281C296.564 22.2081 295.594 23.2001 294.314 23.9041C293.055 24.5868 291.594 24.9281 289.93 24.9281ZM311.212 24.7041V21.2481L310.988 20.5121V14.4641C310.988 13.2908 310.636 12.3841 309.932 11.7441C309.228 11.0828 308.161 10.7521 306.732 10.7521C305.772 10.7521 304.822 10.9014 303.884 11.2001C302.966 11.4988 302.188 11.9148 301.548 12.4481L299.98 9.5361C300.897 8.8321 301.985 8.30943 303.244 7.9681C304.524 7.60543 305.846 7.4241 307.212 7.4241C309.686 7.4241 311.596 8.02143 312.94 9.2161C314.305 10.3894 314.988 12.2134 314.988 14.6881V24.7041H311.212ZM305.836 24.9281C304.556 24.9281 303.436 24.7148 302.476 24.2881C301.516 23.8401 300.769 23.2321 300.236 22.4641C299.724 21.6748 299.468 20.7894 299.468 19.8081C299.468 18.8481 299.692 17.9841 300.14 17.2161C300.609 16.4481 301.366 15.8401 302.412 15.3921C303.457 14.9441 304.844 14.7201 306.572 14.7201H311.532V17.3761H306.86C305.494 17.3761 304.577 17.6001 304.108 18.0481C303.638 18.4748 303.404 19.0081 303.404 19.6481C303.404 20.3734 303.692 20.9494 304.268 21.3761C304.844 21.8028 305.644 22.0161 306.668 22.0161C307.649 22.0161 308.524 21.7921 309.292 21.3441C310.081 20.8961 310.646 20.2348 310.988 19.3601L311.66 21.7601C311.276 22.7628 310.582 23.5414 309.58 24.0961C308.598 24.6508 307.35 24.9281 305.836 24.9281ZM320.121 24.7041V0.9601H324.121V24.7041H320.121ZM337.403 24.9281C335.504 24.9281 333.84 24.5548 332.411 23.8081C331.003 23.0401 329.904 21.9948 329.115 20.6721C328.347 19.3494 327.963 17.8454 327.963 16.1601C327.963 14.4534 328.336 12.9494 329.083 11.6481C329.851 10.3254 330.896 9.29077 332.219 8.5441C333.563 7.79743 335.088 7.4241 336.795 7.4241C338.459 7.4241 339.942 7.78677 341.243 8.5121C342.544 9.23743 343.568 10.2614 344.315 11.5841C345.062 12.9068 345.435 14.4641 345.435 16.2561C345.435 16.4268 345.424 16.6188 345.403 16.8321C345.403 17.0454 345.392 17.2481 345.371 17.4401H331.131V14.7841H343.259L341.691 15.6161C341.712 14.6348 341.51 13.7708 341.083 13.0241C340.656 12.2774 340.07 11.6908 339.323 11.2641C338.598 10.8374 337.755 10.6241 336.795 10.6241C335.814 10.6241 334.95 10.8374 334.203 11.2641C333.478 11.6908 332.902 12.2881 332.475 13.0561C332.07 13.8028 331.867 14.6881 331.867 15.7121V16.3521C331.867 17.3761 332.102 18.2828 332.571 19.0721C333.04 19.8614 333.702 20.4694 334.555 20.8961C335.408 21.3228 336.39 21.5361 337.499 21.5361C338.459 21.5361 339.323 21.3868 340.091 21.0881C340.859 20.7894 341.542 20.3201 342.139 19.6801L344.283 22.1441C343.515 23.0401 342.544 23.7334 341.371 24.2241C340.219 24.6934 338.896 24.9281 337.403 24.9281ZM365.801 24.9281C364.052 24.9281 362.494 24.5548 361.129 23.8081C359.764 23.0401 358.686 21.9948 357.897 20.6721C357.108 19.3494 356.713 17.8454 356.713 16.1601C356.713 14.4534 357.108 12.9494 357.897 11.6481C358.686 10.3254 359.764 9.29077 361.129 8.5441C362.494 7.79743 364.052 7.4241 365.801 7.4241C367.572 7.4241 369.14 7.79743 370.505 8.5441C371.892 9.29077 372.969 10.3148 373.737 11.6161C374.526 12.9174 374.921 14.4321 374.921 16.1601C374.921 17.8454 374.526 19.3494 373.737 20.6721C372.969 21.9948 371.892 23.0401 370.505 23.8081C369.14 24.5548 367.572 24.9281 365.801 24.9281ZM365.801 21.5041C366.782 21.5041 367.657 21.2908 368.425 20.8641C369.193 20.4374 369.79 19.8188 370.217 19.0081C370.665 18.1974 370.889 17.2481 370.889 16.1601C370.889 15.0508 370.665 14.1014 370.217 13.3121C369.79 12.5014 369.193 11.8828 368.425 11.4561C367.657 11.0294 366.793 10.8161 365.833 10.8161C364.852 10.8161 363.977 11.0294 363.209 11.4561C362.462 11.8828 361.865 12.5014 361.417 13.3121C360.969 14.1014 360.745 15.0508 360.745 16.1601C360.745 17.2481 360.969 18.1974 361.417 19.0081C361.865 19.8188 362.462 20.4374 363.209 20.8641C363.977 21.2908 364.841 21.5041 365.801 21.5041ZM379.29 24.7041V6.6561C379.29 4.8641 379.813 3.43477 380.858 2.3681C381.925 1.2801 383.439 0.736101 385.402 0.736101C386.106 0.736101 386.767 0.810767 387.386 0.9601C388.026 1.10943 388.559 1.3441 388.986 1.6641L387.898 4.6721C387.599 4.43743 387.258 4.26677 386.874 4.1601C386.49 4.0321 386.095 3.9681 385.69 3.9681C384.858 3.9681 384.229 4.20277 383.802 4.6721C383.375 5.1201 383.162 5.80277 383.162 6.7201V8.6401L383.29 10.4321V24.7041H379.29ZM376.474 10.9441V7.7441H387.866V10.9441H376.474ZM405.29 24.7041V15.8401L406.218 18.4001L396.49 2.3041H400.938L408.746 15.2641H406.25L414.122 2.3041H418.218L408.49 18.4001L409.45 15.8401V24.7041H405.29ZM426.332 24.9281C424.583 24.9281 423.026 24.5548 421.66 23.8081C420.295 23.0401 419.218 21.9948 418.428 20.6721C417.639 19.3494 417.244 17.8454 417.244 16.1601C417.244 14.4534 417.639 12.9494 418.428 11.6481C419.218 10.3254 420.295 9.29077 421.66 8.5441C423.026 7.79743 424.583 7.4241 426.332 7.4241C428.103 7.4241 429.671 7.79743 431.036 8.5441C432.423 9.29077 433.5 10.3148 434.268 11.6161C435.058 12.9174 435.452 14.4321 435.452 16.1601C435.452 17.8454 435.058 19.3494 434.268 20.6721C433.5 21.9948 432.423 23.0401 431.036 23.8081C429.671 24.5548 428.103 24.9281 426.332 24.9281ZM426.332 21.5041C427.314 21.5041 428.188 21.2908 428.956 20.8641C429.724 20.4374 430.322 19.8188 430.748 19.0081C431.196 18.1974 431.42 17.2481 431.42 16.1601C431.42 15.0508 431.196 14.1014 430.748 13.3121C430.322 12.5014 429.724 11.8828 428.956 11.4561C428.188 11.0294 427.324 10.8161 426.364 10.8161C425.383 10.8161 424.508 11.0294 423.74 11.4561C422.994 11.8828 422.396 12.5014 421.948 13.3121C421.5 14.1014 421.276 15.0508 421.276 16.1601C421.276 17.2481 421.5 18.1974 421.948 19.0081C422.396 19.8188 422.994 20.4374 423.74 20.8641C424.508 21.2908 425.372 21.5041 426.332 21.5041ZM446.509 24.9281C445.059 24.9281 443.779 24.6614 442.669 24.1281C441.56 23.5734 440.696 22.7414 440.077 21.6321C439.459 20.5014 439.149 19.0828 439.149 17.3761V7.6161H443.149V16.8321C443.149 18.3681 443.491 19.5201 444.173 20.2881C444.877 21.0348 445.869 21.4081 447.149 21.4081C448.088 21.4081 448.899 21.2161 449.581 20.8321C450.285 20.4481 450.829 19.8721 451.213 19.1041C451.619 18.3361 451.821 17.3868 451.821 16.2561V7.6161H455.821V24.7041H452.013V20.0961L452.685 21.5041C452.109 22.6134 451.267 23.4668 450.157 24.0641C449.048 24.6401 447.832 24.9281 446.509 24.9281ZM461.059 24.7041V7.6161H464.867V12.3201L464.419 10.9441C464.931 9.7921 465.731 8.91743 466.819 8.3201C467.928 7.72277 469.304 7.4241 470.947 7.4241V11.2321C470.776 11.1894 470.616 11.1681 470.467 11.1681C470.317 11.1468 470.168 11.1361 470.019 11.1361C468.504 11.1361 467.299 11.5841 466.403 12.4801C465.507 13.3548 465.059 14.6668 465.059 16.4161V24.7041H461.059ZM483.724 24.7041V2.3041H487.884V24.7041H483.724ZM503.255 7.4241C504.62 7.4241 505.836 7.69077 506.903 8.2241C507.991 8.75743 508.844 9.57877 509.463 10.6881C510.081 11.7761 510.391 13.1841 510.391 14.9121V24.7041H506.391V15.4241C506.391 13.9094 506.028 12.7788 505.303 12.0321C504.599 11.2854 503.607 10.9121 502.327 10.9121C501.388 10.9121 500.556 11.1041 499.831 11.4881C499.105 11.8721 498.54 12.4481 498.135 13.2161C497.751 13.9628 497.559 14.9121 497.559 16.0641V24.7041H493.559V7.6161H497.367V12.2241L496.695 10.8161C497.292 9.7281 498.156 8.8961 499.287 8.3201C500.439 7.72277 501.761 7.4241 503.255 7.4241ZM522.728 24.9281C521.085 24.9281 519.603 24.5654 518.28 23.8401C516.979 23.0934 515.955 22.0694 515.208 20.7681C514.461 19.4668 514.088 17.9308 514.088 16.1601C514.088 14.3894 514.461 12.8534 515.208 11.5521C515.955 10.2508 516.979 9.23743 518.28 8.5121C519.603 7.78677 521.085 7.4241 522.728 7.4241C524.157 7.4241 525.437 7.7441 526.568 8.3841C527.699 9.00277 528.595 9.9521 529.256 11.2321C529.917 12.5121 530.248 14.1548 530.248 16.1601C530.248 18.1441 529.928 19.7868 529.288 21.0881C528.648 22.3681 527.763 23.3281 526.632 23.9681C525.501 24.6081 524.2 24.9281 522.728 24.9281ZM523.208 21.5041C524.168 21.5041 525.021 21.2908 525.768 20.8641C526.536 20.4374 527.144 19.8188 527.592 19.0081C528.061 18.1974 528.296 17.2481 528.296 16.1601C528.296 15.0508 528.061 14.1014 527.592 13.3121C527.144 12.5014 526.536 11.8828 525.768 11.4561C525.021 11.0294 524.168 10.8161 523.208 10.8161C522.248 10.8161 521.384 11.0294 520.616 11.4561C519.869 11.8828 519.261 12.5014 518.792 13.3121C518.344 14.1014 518.12 15.0508 518.12 16.1601C518.12 17.2481 518.344 18.1974 518.792 19.0081C519.261 19.8188 519.869 20.4374 520.616 20.8641C521.384 21.2908 522.248 21.5041 523.208 21.5041ZM528.392 24.7041V20.6721L528.552 16.1281L528.232 11.5841V0.9601H532.2V24.7041H528.392ZM544.697 24.9281C543.246 24.9281 541.966 24.6614 540.857 24.1281C539.747 23.5734 538.883 22.7414 538.265 21.6321C537.646 20.5014 537.337 19.0828 537.337 17.3761V7.6161H541.337V16.8321C541.337 18.3681 541.678 19.5201 542.361 20.2881C543.065 21.0348 544.057 21.4081 545.337 21.4081C546.275 21.4081 547.086 21.2161 547.769 20.8321C548.473 20.4481 549.017 19.8721 549.401 19.1041C549.806 18.3361 550.009 17.3868 550.009 16.2561V7.6161H554.009V24.7041H550.201V20.0961L550.873 21.5041C550.297 22.6134 549.454 23.4668 548.345 24.0641C547.235 24.6401 546.019 24.9281 544.697 24.9281ZM564.526 24.9281C563.097 24.9281 561.721 24.7468 560.398 24.3841C559.097 24.0001 558.062 23.5414 557.294 23.0081L558.83 19.9681C559.598 20.4588 560.515 20.8641 561.582 21.1841C562.649 21.5041 563.715 21.6641 564.782 21.6641C566.041 21.6641 566.947 21.4934 567.502 21.1521C568.078 20.8108 568.366 20.3521 568.366 19.7761C568.366 19.3068 568.174 18.9548 567.79 18.7201C567.406 18.4641 566.905 18.2721 566.286 18.1441C565.667 18.0161 564.974 17.8988 564.206 17.7921C563.459 17.6854 562.702 17.5468 561.934 17.3761C561.187 17.1841 560.505 16.9174 559.886 16.5761C559.267 16.2134 558.766 15.7334 558.382 15.1361C557.998 14.5388 557.806 13.7494 557.806 12.7681C557.806 11.6801 558.115 10.7414 558.734 9.9521C559.353 9.14143 560.217 8.52277 561.326 8.0961C562.457 7.6481 563.79 7.4241 565.326 7.4241C566.478 7.4241 567.641 7.5521 568.814 7.8081C569.987 8.0641 570.958 8.42677 571.726 8.8961L570.19 11.9361C569.379 11.4454 568.558 11.1148 567.726 10.9441C566.915 10.7521 566.105 10.6561 565.294 10.6561C564.078 10.6561 563.171 10.8374 562.574 11.2001C561.998 11.5628 561.71 12.0214 561.71 12.5761C561.71 13.0881 561.902 13.4721 562.286 13.7281C562.67 13.9841 563.171 14.1868 563.79 14.3361C564.409 14.4854 565.091 14.6134 565.838 14.7201C566.606 14.8054 567.363 14.9441 568.11 15.1361C568.857 15.3281 569.539 15.5948 570.158 15.9361C570.798 16.2561 571.31 16.7148 571.694 17.3121C572.078 17.9094 572.27 18.6881 572.27 19.6481C572.27 20.7148 571.95 21.6428 571.31 22.4321C570.691 23.2214 569.806 23.8401 568.654 24.2881C567.502 24.7148 566.126 24.9281 564.526 24.9281ZM582.147 24.9281C580.269 24.9281 578.819 24.4481 577.795 23.4881C576.771 22.5068 576.259 21.0668 576.259 19.1681V3.8401H580.259V19.0721C580.259 19.8828 580.461 20.5121 580.867 20.9601C581.293 21.4081 581.88 21.6321 582.627 21.6321C583.523 21.6321 584.269 21.3974 584.867 20.9281L585.987 23.7761C585.517 24.1601 584.941 24.4481 584.259 24.6401C583.576 24.8321 582.872 24.9281 582.147 24.9281ZM573.443 10.9441V7.7441H584.835V10.9441H573.443ZM589.277 24.7041V7.6161H593.085V12.3201L592.637 10.9441C593.149 9.7921 593.949 8.91743 595.037 8.3201C596.147 7.72277 597.523 7.4241 599.165 7.4241V11.2321C598.995 11.1894 598.835 11.1681 598.685 11.1681C598.536 11.1468 598.387 11.1361 598.237 11.1361C596.723 11.1361 595.517 11.5841 594.621 12.4801C593.725 13.3548 593.277 14.6668 593.277 16.4161V24.7041H589.277ZM604.592 31.1361C603.76 31.1361 602.928 30.9974 602.096 30.7201C601.264 30.4428 600.57 30.0588 600.016 29.5681L601.616 26.6241C602.021 26.9868 602.48 27.2748 602.992 27.4881C603.504 27.7014 604.026 27.8081 604.56 27.8081C605.285 27.8081 605.872 27.6268 606.32 27.2641C606.768 26.9014 607.184 26.2934 607.568 25.4401L608.56 23.2001L608.88 22.7201L615.344 7.6161H619.184L611.184 26.0801C610.65 27.3601 610.053 28.3734 609.392 29.1201C608.752 29.8668 608.026 30.3894 607.216 30.6881C606.426 30.9868 605.552 31.1361 604.592 31.1361ZM608.112 25.3121L600.4 7.6161H604.56L610.832 22.3681L608.112 25.3121Z" fill="#333333"/>
</svg>
