<svg width="174" height="23" viewBox="0 0 174 23" fill="none" xmlns="http://www.w3.org/2000/svg">
<path d="M6.62403 18.0481C5.31203 18.0481 4.05603 17.8641 2.85603 17.4961C1.65603 17.1121 0.704034 16.6241 3.41833e-05 16.0321L1.08003 13.6081C1.75203 14.1361 2.58403 14.5761 3.57603 14.9281C4.56803 15.2801 5.58403 15.4561 6.62403 15.4561C7.50403 15.4561 8.21603 15.3601 8.76003 15.1681C9.30403 14.9761 9.70403 14.7201 9.96003 14.4001C10.216 14.0641 10.344 13.6881 10.344 13.2721C10.344 12.7601 10.16 12.3521 9.79203 12.0481C9.42403 11.7281 8.94403 11.4801 8.35203 11.3041C7.77603 11.1121 7.12803 10.9361 6.40803 10.7761C5.70403 10.6161 4.99203 10.4321 4.27203 10.2241C3.56803 10.0001 2.92003 9.72011 2.32803 9.38411C1.75203 9.0321 1.28003 8.5681 0.912034 7.99211C0.544034 7.41611 0.360034 6.6801 0.360034 5.7841C0.360034 4.8721 0.600034 4.0401 1.08003 3.28811C1.57603 2.5201 2.32003 1.9121 3.31203 1.4641C4.32003 1.0001 5.59203 0.768105 7.12803 0.768105C8.13603 0.768105 9.13603 0.896105 10.128 1.15211C11.12 1.4081 11.984 1.7761 12.72 2.25611L11.736 4.6801C10.984 4.2321 10.208 3.9041 9.40803 3.69611C8.60803 3.4721 7.84003 3.3601 7.10403 3.3601C6.24003 3.3601 5.53603 3.4641 4.99203 3.6721C4.46403 3.8801 4.07203 4.1521 3.81603 4.48811C3.57603 4.8241 3.45603 5.2081 3.45603 5.6401C3.45603 6.1521 3.63203 6.5681 3.98403 6.88811C4.35203 7.19211 4.82403 7.43211 5.40003 7.60811C5.99203 7.7841 6.64803 7.9601 7.36803 8.1361C8.08803 8.29611 8.80003 8.48011 9.50403 8.6881C10.224 8.89611 10.872 9.16811 11.448 9.50411C12.04 9.84011 12.512 10.2961 12.864 10.8721C13.232 11.4481 13.416 12.1761 13.416 13.0561C13.416 13.9521 13.168 14.7841 12.672 15.5521C12.192 16.3041 11.448 16.9121 10.44 17.3761C9.43203 17.8241 8.16003 18.0481 6.62403 18.0481ZM21.6458 17.9761C20.5578 17.9761 19.5978 17.7761 18.7658 17.3761C17.9338 16.9601 17.2858 16.3361 16.8218 15.5041C16.3578 14.6561 16.1258 13.5921 16.1258 12.3121V4.9921H19.1258V11.9041C19.1258 13.0561 19.3818 13.9201 19.8938 14.4961C20.4218 15.0561 21.1658 15.3361 22.1258 15.3361C22.8298 15.3361 23.4378 15.1921 23.9498 14.9041C24.4778 14.6161 24.8858 14.1841 25.1738 13.6081C25.4778 13.0321 25.6298 12.3201 25.6298 11.4721V4.9921H28.6298V17.8081H25.7738V14.3521L26.2778 15.4081C25.8458 16.2401 25.2138 16.8801 24.3818 17.3281C23.5498 17.7601 22.6378 17.9761 21.6458 17.9761ZM39.6617 17.9761C38.6217 17.9761 37.6697 17.7361 36.8057 17.2561C35.9577 16.7761 35.2777 16.0561 34.7657 15.0961C34.2697 14.1201 34.0217 12.8881 34.0217 11.4001C34.0217 9.8961 34.2617 8.6641 34.7417 7.7041C35.2377 6.7441 35.9097 6.0321 36.7577 5.5681C37.6057 5.0881 38.5737 4.8481 39.6617 4.8481C40.9257 4.8481 42.0377 5.1201 42.9977 5.6641C43.9737 6.2081 44.7417 6.9681 45.3017 7.94411C45.8777 8.9201 46.1657 10.0721 46.1657 11.4001C46.1657 12.7281 45.8777 13.8881 45.3017 14.8801C44.7417 15.8561 43.9737 16.6161 42.9977 17.1601C42.0377 17.7041 40.9257 17.9761 39.6617 17.9761ZM32.5577 22.4641V4.9921H35.4137V8.0161L35.3177 11.4241L35.5577 14.8321V22.4641H32.5577ZM39.3257 15.4081C40.0457 15.4081 40.6857 15.2481 41.2457 14.9281C41.8217 14.6081 42.2777 14.1441 42.6137 13.5361C42.9497 12.9281 43.1177 12.2161 43.1177 11.4001C43.1177 10.5681 42.9497 9.85611 42.6137 9.26411C42.2777 8.65611 41.8217 8.1921 41.2457 7.8721C40.6857 7.5521 40.0457 7.39211 39.3257 7.39211C38.6057 7.39211 37.9577 7.5521 37.3817 7.8721C36.8057 8.1921 36.3497 8.65611 36.0137 9.26411C35.6777 9.85611 35.5097 10.5681 35.5097 11.4001C35.5097 12.2161 35.6777 12.9281 36.0137 13.5361C36.3497 14.1441 36.8057 14.6081 37.3817 14.9281C37.9577 15.2481 38.6057 15.4081 39.3257 15.4081ZM55.0348 17.9761C53.6108 17.9761 52.3628 17.6961 51.2908 17.1361C50.2348 16.5601 49.4108 15.7761 48.8188 14.7841C48.2428 13.7921 47.9548 12.6641 47.9548 11.4001C47.9548 10.1201 48.2348 8.99211 48.7948 8.0161C49.3708 7.0241 50.1548 6.24811 51.1468 5.68811C52.1548 5.12811 53.2988 4.8481 54.5788 4.8481C55.8268 4.8481 56.9388 5.1201 57.9148 5.6641C58.8908 6.2081 59.6588 6.9761 60.2188 7.9681C60.7788 8.9601 61.0588 10.1281 61.0588 11.4721C61.0588 11.6001 61.0508 11.7441 61.0348 11.9041C61.0348 12.0641 61.0268 12.2161 61.0108 12.3601H50.3308V10.3681H59.4268L58.2508 10.9921C58.2668 10.2561 58.1148 9.60811 57.7948 9.04811C57.4748 8.48811 57.0348 8.04811 56.4748 7.72811C55.9308 7.4081 55.2988 7.2481 54.5788 7.2481C53.8428 7.2481 53.1948 7.4081 52.6348 7.72811C52.0908 8.04811 51.6588 8.49611 51.3388 9.0721C51.0348 9.6321 50.8828 10.2961 50.8828 11.0641V11.5441C50.8828 12.3121 51.0588 12.9921 51.4108 13.5841C51.7628 14.1761 52.2588 14.6321 52.8988 14.9521C53.5388 15.2721 54.2748 15.4321 55.1068 15.4321C55.8268 15.4321 56.4748 15.3201 57.0508 15.0961C57.6268 14.8721 58.1388 14.5201 58.5868 14.0401L60.1948 15.8881C59.6188 16.5601 58.8908 17.0801 58.0108 17.4481C57.1468 17.8001 56.1548 17.9761 55.0348 17.9761ZM63.9405 17.8081V4.9921H66.7965V8.5201L66.4605 7.48811C66.8445 6.6241 67.4445 5.9681 68.2605 5.5201C69.0925 5.0721 70.1245 4.8481 71.3565 4.8481V7.7041C71.2285 7.67211 71.1085 7.65611 70.9965 7.65611C70.8845 7.64011 70.7725 7.6321 70.6605 7.6321C69.5245 7.6321 68.6205 7.9681 67.9485 8.6401C67.2765 9.2961 66.9405 10.2801 66.9405 11.5921V17.8081H63.9405ZM90.0775 4.8481C91.1015 4.8481 92.0055 5.0481 92.7895 5.4481C93.5895 5.8481 94.2135 6.46411 94.6615 7.2961C95.1095 8.1121 95.3335 9.1681 95.3335 10.4641V17.8081H92.3335V10.8481C92.3335 9.7121 92.0855 8.8641 91.5895 8.3041C91.0935 7.7441 90.3815 7.4641 89.4535 7.4641C88.7975 7.4641 88.2135 7.6081 87.7015 7.89611C87.2055 8.18411 86.8135 8.60811 86.5255 9.16811C86.2535 9.72811 86.1175 10.4401 86.1175 11.3041V17.8081H83.1175V10.8481C83.1175 9.7121 82.8695 8.8641 82.3735 8.3041C81.8775 7.7441 81.1655 7.4641 80.2375 7.4641C79.5815 7.4641 78.9975 7.6081 78.4855 7.89611C77.9895 8.18411 77.5975 8.60811 77.3095 9.16811C77.0375 9.72811 76.9015 10.4401 76.9015 11.3041V17.8081H73.9015V4.9921H76.7575V8.4001L76.2535 7.39211C76.6855 6.5601 77.3095 5.9281 78.1255 5.49611C78.9575 5.06411 79.9015 4.8481 80.9575 4.8481C82.1575 4.8481 83.1975 5.1441 84.0775 5.7361C84.9735 6.3281 85.5655 7.2241 85.8535 8.4241L84.6775 8.0161C85.0935 7.0561 85.7815 6.28811 86.7415 5.71211C87.7015 5.13611 88.8135 4.8481 90.0775 4.8481ZM107.063 17.8081V15.2161L106.895 14.6641V10.1281C106.895 9.2481 106.631 8.5681 106.103 8.0881C105.575 7.5921 104.775 7.34411 103.703 7.34411C102.983 7.34411 102.271 7.4561 101.567 7.6801C100.879 7.9041 100.295 8.2161 99.8151 8.61611L98.6391 6.4321C99.3271 5.9041 100.143 5.5121 101.087 5.25611C102.047 4.98411 103.039 4.8481 104.063 4.8481C105.919 4.8481 107.351 5.2961 108.359 6.1921C109.383 7.0721 109.895 8.4401 109.895 10.2961V17.8081H107.063ZM103.031 17.9761C102.071 17.9761 101.231 17.8161 100.511 17.4961C99.7911 17.1601 99.2311 16.7041 98.8311 16.1281C98.4471 15.5361 98.2551 14.8721 98.2551 14.1361C98.2551 13.4161 98.4231 12.7681 98.7591 12.1921C99.1111 11.6161 99.6791 11.1601 100.463 10.8241C101.247 10.4881 102.287 10.3201 103.583 10.3201H107.303V12.3121H103.799C102.775 12.3121 102.087 12.4801 101.735 12.8161C101.383 13.1361 101.207 13.5361 101.207 14.0161C101.207 14.5601 101.423 14.9921 101.855 15.3121C102.287 15.6321 102.887 15.7921 103.655 15.7921C104.391 15.7921 105.047 15.6241 105.623 15.2881C106.215 14.9521 106.639 14.4561 106.895 13.8001L107.399 15.6001C107.111 16.3521 106.591 16.9361 105.839 17.3521C105.103 17.7681 104.167 17.9761 103.031 17.9761ZM113.745 17.8081V4.9921H116.601V8.5201L116.265 7.48811C116.649 6.6241 117.249 5.9681 118.065 5.5201C118.897 5.0721 119.929 4.8481 121.161 4.8481V7.7041C121.033 7.67211 120.913 7.65611 120.801 7.65611C120.689 7.64011 120.577 7.6321 120.465 7.6321C119.329 7.6321 118.425 7.9681 117.753 8.6401C117.081 9.2961 116.745 10.2801 116.745 11.5921V17.8081H113.745ZM126.154 14.9521L126.226 11.1841L132.922 4.9921H136.522L130.834 10.7041L129.25 12.0241L126.154 14.9521ZM123.706 17.8081V0.000104427H126.706V17.8081H123.706ZM133.378 17.8081L128.698 12.0241L130.594 9.6241L137.026 17.8081H133.378ZM144.472 17.9761C143.048 17.9761 141.8 17.6961 140.728 17.1361C139.672 16.5601 138.848 15.7761 138.256 14.7841C137.68 13.7921 137.392 12.6641 137.392 11.4001C137.392 10.1201 137.672 8.99211 138.232 8.0161C138.808 7.0241 139.592 6.24811 140.584 5.68811C141.592 5.12811 142.736 4.8481 144.016 4.8481C145.264 4.8481 146.376 5.1201 147.352 5.6641C148.328 6.2081 149.096 6.9761 149.656 7.9681C150.216 8.9601 150.496 10.1281 150.496 11.4721C150.496 11.6001 150.488 11.7441 150.472 11.9041C150.472 12.0641 150.464 12.2161 150.448 12.3601H139.768V10.3681H148.864L147.688 10.9921C147.704 10.2561 147.552 9.60811 147.232 9.04811C146.912 8.48811 146.472 8.04811 145.912 7.72811C145.368 7.4081 144.736 7.2481 144.016 7.2481C143.28 7.2481 142.632 7.4081 142.072 7.72811C141.528 8.04811 141.096 8.49611 140.776 9.0721C140.472 9.6321 140.32 10.2961 140.32 11.0641V11.5441C140.32 12.3121 140.496 12.9921 140.848 13.5841C141.2 14.1761 141.696 14.6321 142.336 14.9521C142.976 15.2721 143.712 15.4321 144.544 15.4321C145.264 15.4321 145.912 15.3201 146.488 15.0961C147.064 14.8721 147.576 14.5201 148.024 14.0401L149.632 15.8881C149.056 16.5601 148.328 17.0801 147.448 17.4481C146.584 17.8001 145.592 17.9761 144.472 17.9761ZM158.202 17.9761C156.794 17.9761 155.706 17.6161 154.938 16.8961C154.17 16.1601 153.786 15.0801 153.786 13.6561V2.16011H156.786V13.5841C156.786 14.1921 156.938 14.6641 157.242 15.0001C157.562 15.3361 158.002 15.5041 158.562 15.5041C159.234 15.5041 159.794 15.3281 160.242 14.9761L161.082 17.1121C160.73 17.4001 160.298 17.6161 159.786 17.7601C159.274 17.9041 158.746 17.9761 158.202 17.9761ZM151.674 7.48811V5.0881H160.218V7.48811H151.674ZM167.51 17.9761C166.438 17.9761 165.406 17.8401 164.414 17.5681C163.438 17.2801 162.662 16.9361 162.086 16.5361L163.238 14.2561C163.814 14.6241 164.502 14.9281 165.302 15.1681C166.102 15.4081 166.902 15.5281 167.702 15.5281C168.646 15.5281 169.326 15.4001 169.742 15.1441C170.174 14.8881 170.39 14.5441 170.39 14.1121C170.39 13.7601 170.246 13.4961 169.958 13.3201C169.67 13.1281 169.294 12.9841 168.83 12.8881C168.366 12.7921 167.846 12.7041 167.27 12.6241C166.71 12.5441 166.142 12.4401 165.566 12.3121C165.006 12.1681 164.494 11.9681 164.03 11.7121C163.566 11.4401 163.19 11.0801 162.902 10.6321C162.614 10.1841 162.47 9.5921 162.47 8.8561C162.47 8.0401 162.702 7.3361 163.166 6.7441C163.63 6.13611 164.278 5.6721 165.11 5.3521C165.958 5.0161 166.958 4.8481 168.11 4.8481C168.974 4.8481 169.846 4.94411 170.726 5.13611C171.606 5.3281 172.334 5.6001 172.91 5.95211L171.758 8.23211C171.15 7.8641 170.534 7.61611 169.91 7.48811C169.302 7.34411 168.694 7.27211 168.086 7.27211C167.174 7.27211 166.494 7.40811 166.046 7.6801C165.614 7.9521 165.398 8.2961 165.398 8.71211C165.398 9.09611 165.542 9.3841 165.83 9.5761C166.118 9.7681 166.494 9.9201 166.958 10.0321C167.422 10.1441 167.934 10.2401 168.494 10.3201C169.07 10.3841 169.638 10.4881 170.198 10.6321C170.758 10.7761 171.27 10.9761 171.734 11.2321C172.214 11.4721 172.598 11.8161 172.886 12.2641C173.174 12.7121 173.318 13.2961 173.318 14.0161C173.318 14.8161 173.078 15.5121 172.598 16.1041C172.134 16.6961 171.47 17.1601 170.606 17.4961C169.742 17.8161 168.71 17.9761 167.51 17.9761Z" fill="#FCFCFC"/>
</svg>
