<svg width="341" height="48" viewBox="0 0 341 48" fill="none" xmlns="http://www.w3.org/2000/svg">
<rect width="341" height="48" rx="4" fill="#495FFA"/>
<path d="M95.688 30.16C94.8347 30.16 94.04 30.0213 93.304 29.744C92.5787 29.456 91.944 29.056 91.4 28.544C90.8667 28.0213 90.4507 27.408 90.152 26.704C89.8533 26 89.704 25.232 89.704 24.4C89.704 23.568 89.8533 22.8 90.152 22.096C90.4507 21.392 90.872 20.784 91.416 20.272C91.96 19.7493 92.5947 19.3493 93.32 19.072C94.0453 18.784 94.84 18.64 95.704 18.64C96.6213 18.64 97.4587 18.8 98.216 19.12C98.9733 19.4293 99.6133 19.8933 100.136 20.512L98.792 21.776C98.3867 21.3387 97.9333 21.0133 97.432 20.8C96.9307 20.576 96.3867 20.464 95.8 20.464C95.2133 20.464 94.6747 20.56 94.184 20.752C93.704 20.944 93.2827 21.216 92.92 21.568C92.568 21.92 92.2907 22.336 92.088 22.816C91.896 23.296 91.8 23.824 91.8 24.4C91.8 24.976 91.896 25.504 92.088 25.984C92.2907 26.464 92.568 26.88 92.92 27.232C93.2827 27.584 93.704 27.856 94.184 28.048C94.6747 28.24 95.2133 28.336 95.8 28.336C96.3867 28.336 96.9307 28.2293 97.432 28.016C97.9333 27.792 98.3867 27.456 98.792 27.008L100.136 28.288C99.6133 28.896 98.9733 29.36 98.216 29.68C97.4587 30 96.616 30.16 95.688 30.16ZM101.937 30V18.128H103.937V30H101.937ZM111.826 30V28.272L111.714 27.904V24.88C111.714 24.2933 111.538 23.84 111.186 23.52C110.834 23.1893 110.301 23.024 109.586 23.024C109.106 23.024 108.631 23.0987 108.162 23.248C107.703 23.3973 107.314 23.6053 106.994 23.872L106.21 22.416C106.669 22.064 107.213 21.8027 107.842 21.632C108.482 21.4507 109.143 21.36 109.826 21.36C111.063 21.36 112.018 21.6587 112.69 22.256C113.373 22.8427 113.714 23.7547 113.714 24.992V30H111.826ZM109.138 30.112C108.498 30.112 107.938 30.0053 107.458 29.792C106.978 29.568 106.605 29.264 106.338 28.88C106.082 28.4853 105.954 28.0427 105.954 27.552C105.954 27.072 106.066 26.64 106.29 26.256C106.525 25.872 106.903 25.568 107.426 25.344C107.949 25.12 108.642 25.008 109.506 25.008H111.986V26.336H109.65C108.967 26.336 108.509 26.448 108.274 26.672C108.039 26.8853 107.922 27.152 107.922 27.472C107.922 27.8347 108.066 28.1227 108.354 28.336C108.642 28.5493 109.042 28.656 109.554 28.656C110.045 28.656 110.482 28.544 110.866 28.32C111.261 28.096 111.543 27.7653 111.714 27.328L112.05 28.528C111.858 29.0293 111.511 29.4187 111.01 29.696C110.519 29.9733 109.895 30.112 109.138 30.112ZM116.281 30V21.456H118.281V30H116.281ZM117.289 20.048C116.915 20.048 116.606 19.9307 116.361 19.696C116.126 19.4613 116.009 19.1787 116.009 18.848C116.009 18.5067 116.126 18.224 116.361 18C116.606 17.7653 116.915 17.648 117.289 17.648C117.662 17.648 117.966 17.76 118.201 17.984C118.446 18.1973 118.569 18.4693 118.569 18.8C118.569 19.152 118.451 19.4507 118.217 19.696C117.982 19.9307 117.673 20.048 117.289 20.048ZM131.69 21.36C132.372 21.36 132.975 21.4933 133.498 21.76C134.031 22.0267 134.447 22.4373 134.746 22.992C135.044 23.536 135.194 24.24 135.194 25.104V30H133.194V25.36C133.194 24.6027 133.028 24.0373 132.698 23.664C132.367 23.2907 131.892 23.104 131.274 23.104C130.836 23.104 130.447 23.2 130.106 23.392C129.775 23.584 129.514 23.8667 129.322 24.24C129.14 24.6133 129.05 25.088 129.05 25.664V30H127.05V25.36C127.05 24.6027 126.884 24.0373 126.554 23.664C126.223 23.2907 125.748 23.104 125.13 23.104C124.692 23.104 124.303 23.2 123.962 23.392C123.631 23.584 123.37 23.8667 123.178 24.24C122.996 24.6133 122.906 25.088 122.906 25.664V30H120.906V21.456H122.81V23.728L122.474 23.056C122.762 22.5013 123.178 22.08 123.722 21.792C124.276 21.504 124.906 21.36 125.61 21.36C126.41 21.36 127.103 21.5573 127.69 21.952C128.287 22.3467 128.682 22.944 128.874 23.744L128.09 23.472C128.367 22.832 128.826 22.32 129.466 21.936C130.106 21.552 130.847 21.36 131.69 21.36ZM145.115 30V25.568L145.579 26.848L140.715 18.8H142.939L146.843 25.28H145.595L149.531 18.8H151.579L146.715 26.848L147.195 25.568V30H145.115ZM155.636 30.112C154.762 30.112 153.983 29.9253 153.3 29.552C152.618 29.168 152.079 28.6453 151.684 27.984C151.29 27.3227 151.092 26.5707 151.092 25.728C151.092 24.8747 151.29 24.1227 151.684 23.472C152.079 22.8107 152.618 22.2933 153.3 21.92C153.983 21.5467 154.762 21.36 155.636 21.36C156.522 21.36 157.306 21.5467 157.988 21.92C158.682 22.2933 159.22 22.8053 159.604 23.456C159.999 24.1067 160.196 24.864 160.196 25.728C160.196 26.5707 159.999 27.3227 159.604 27.984C159.22 28.6453 158.682 29.168 157.988 29.552C157.306 29.9253 156.522 30.112 155.636 30.112ZM155.636 28.4C156.127 28.4 156.564 28.2933 156.948 28.08C157.332 27.8667 157.631 27.5573 157.844 27.152C158.068 26.7467 158.18 26.272 158.18 25.728C158.18 25.1733 158.068 24.6987 157.844 24.304C157.631 23.8987 157.332 23.5893 156.948 23.376C156.564 23.1627 156.132 23.056 155.652 23.056C155.162 23.056 154.724 23.1627 154.34 23.376C153.967 23.5893 153.668 23.8987 153.444 24.304C153.22 24.6987 153.108 25.1733 153.108 25.728C153.108 26.272 153.22 26.7467 153.444 27.152C153.668 27.5573 153.967 27.8667 154.34 28.08C154.724 28.2933 155.156 28.4 155.636 28.4ZM165.725 30.112C165 30.112 164.36 29.9787 163.805 29.712C163.25 29.4347 162.818 29.0187 162.509 28.464C162.2 27.8987 162.045 27.1893 162.045 26.336V21.456H164.045V26.064C164.045 26.832 164.216 27.408 164.557 27.792C164.909 28.1653 165.405 28.352 166.045 28.352C166.514 28.352 166.92 28.256 167.261 28.064C167.613 27.872 167.885 27.584 168.077 27.2C168.28 26.816 168.381 26.3413 168.381 25.776V21.456H170.381V30H168.477V27.696L168.813 28.4C168.525 28.9547 168.104 29.3813 167.549 29.68C166.994 29.968 166.386 30.112 165.725 30.112ZM173 30V21.456H174.904V23.808L174.68 23.12C174.936 22.544 175.336 22.1067 175.88 21.808C176.434 21.5093 177.122 21.36 177.944 21.36V23.264C177.858 23.2427 177.778 23.232 177.704 23.232C177.629 23.2213 177.554 23.216 177.48 23.216C176.722 23.216 176.12 23.44 175.672 23.888C175.224 24.3253 175 24.9813 175 25.856V30H173ZM187.804 30.16C186.929 30.16 186.092 30.0373 185.292 29.792C184.492 29.536 183.857 29.2107 183.388 28.816L184.108 27.2C184.556 27.552 185.111 27.8453 185.772 28.08C186.433 28.3147 187.111 28.432 187.804 28.432C188.391 28.432 188.865 28.368 189.228 28.24C189.591 28.112 189.857 27.9413 190.028 27.728C190.199 27.504 190.284 27.2533 190.284 26.976C190.284 26.6347 190.161 26.3627 189.916 26.16C189.671 25.9467 189.351 25.7813 188.956 25.664C188.572 25.536 188.14 25.4187 187.66 25.312C187.191 25.2053 186.716 25.0827 186.236 24.944C185.767 24.7947 185.335 24.608 184.94 24.384C184.556 24.1493 184.241 23.84 183.996 23.456C183.751 23.072 183.628 22.5813 183.628 21.984C183.628 21.376 183.788 20.8213 184.108 20.32C184.439 19.808 184.935 19.4027 185.596 19.104C186.268 18.7947 187.116 18.64 188.14 18.64C188.812 18.64 189.479 18.7253 190.14 18.896C190.801 19.0667 191.377 19.312 191.868 19.632L191.212 21.248C190.711 20.9493 190.193 20.7307 189.66 20.592C189.127 20.4427 188.615 20.368 188.124 20.368C187.548 20.368 187.079 20.4373 186.716 20.576C186.364 20.7147 186.103 20.896 185.932 21.12C185.772 21.344 185.692 21.6 185.692 21.888C185.692 22.2293 185.809 22.5067 186.044 22.72C186.289 22.9227 186.604 23.0827 186.988 23.2C187.383 23.3173 187.82 23.4347 188.3 23.552C188.78 23.6587 189.255 23.7813 189.724 23.92C190.204 24.0587 190.636 24.24 191.02 24.464C191.415 24.688 191.729 24.992 191.964 25.376C192.209 25.76 192.332 26.2453 192.332 26.832C192.332 27.4293 192.167 27.984 191.836 28.496C191.516 28.9973 191.02 29.4027 190.348 29.712C189.676 30.0107 188.828 30.16 187.804 30.16ZM198.043 30.112C197.168 30.112 196.389 29.9253 195.707 29.552C195.024 29.168 194.485 28.6453 194.091 27.984C193.696 27.3227 193.499 26.5707 193.499 25.728C193.499 24.8747 193.696 24.1227 194.091 23.472C194.485 22.8107 195.024 22.2933 195.707 21.92C196.389 21.5467 197.168 21.36 198.043 21.36C198.928 21.36 199.712 21.5467 200.395 21.92C201.088 22.2933 201.627 22.8053 202.011 23.456C202.405 24.1067 202.603 24.864 202.603 25.728C202.603 26.5707 202.405 27.3227 202.011 27.984C201.627 28.6453 201.088 29.168 200.395 29.552C199.712 29.9253 198.928 30.112 198.043 30.112ZM198.043 28.4C198.533 28.4 198.971 28.2933 199.355 28.08C199.739 27.8667 200.037 27.5573 200.251 27.152C200.475 26.7467 200.587 26.272 200.587 25.728C200.587 25.1733 200.475 24.6987 200.251 24.304C200.037 23.8987 199.739 23.5893 199.355 23.376C198.971 23.1627 198.539 23.056 198.059 23.056C197.568 23.056 197.131 23.1627 196.747 23.376C196.373 23.5893 196.075 23.8987 195.851 24.304C195.627 24.6987 195.515 25.1733 195.515 25.728C195.515 26.272 195.627 26.7467 195.851 27.152C196.075 27.5573 196.373 27.8667 196.747 28.08C197.131 28.2933 197.563 28.4 198.043 28.4ZM204.515 30V18.128H206.515V30H204.515ZM212.756 30.112C212.031 30.112 211.391 29.9787 210.836 29.712C210.281 29.4347 209.849 29.0187 209.54 28.464C209.231 27.8987 209.076 27.1893 209.076 26.336V21.456H211.076V26.064C211.076 26.832 211.247 27.408 211.588 27.792C211.94 28.1653 212.436 28.352 213.076 28.352C213.545 28.352 213.951 28.256 214.292 28.064C214.644 27.872 214.916 27.584 215.108 27.2C215.311 26.816 215.412 26.3413 215.412 25.776V21.456H217.412V30H215.508V27.696L215.844 28.4C215.556 28.9547 215.135 29.3813 214.58 29.68C214.025 29.968 213.417 30.112 212.756 30.112ZM223.247 30.112C222.308 30.112 221.583 29.872 221.071 29.392C220.559 28.9013 220.303 28.1813 220.303 27.232V19.568H222.303V27.184C222.303 27.5893 222.404 27.904 222.607 28.128C222.82 28.352 223.113 28.464 223.487 28.464C223.935 28.464 224.308 28.3467 224.607 28.112L225.167 29.536C224.932 29.728 224.644 29.872 224.303 29.968C223.961 30.064 223.609 30.112 223.247 30.112ZM218.895 23.12V21.52H224.591V23.12H218.895ZM226.812 30V21.456H228.812V30H226.812ZM227.82 20.048C227.447 20.048 227.137 19.9307 226.892 19.696C226.657 19.4613 226.54 19.1787 226.54 18.848C226.54 18.5067 226.657 18.224 226.892 18C227.137 17.7653 227.447 17.648 227.82 17.648C228.193 17.648 228.497 17.76 228.732 17.984C228.977 18.1973 229.1 18.4693 229.1 18.8C229.1 19.152 228.983 19.4507 228.748 19.696C228.513 19.9307 228.204 20.048 227.82 20.048ZM235.277 30.112C234.402 30.112 233.624 29.9253 232.941 29.552C232.258 29.168 231.72 28.6453 231.325 27.984C230.93 27.3227 230.733 26.5707 230.733 25.728C230.733 24.8747 230.93 24.1227 231.325 23.472C231.72 22.8107 232.258 22.2933 232.941 21.92C233.624 21.5467 234.402 21.36 235.277 21.36C236.162 21.36 236.946 21.5467 237.629 21.92C238.322 22.2933 238.861 22.8053 239.245 23.456C239.64 24.1067 239.837 24.864 239.837 25.728C239.837 26.5707 239.64 27.3227 239.245 27.984C238.861 28.6453 238.322 29.168 237.629 29.552C236.946 29.9253 236.162 30.112 235.277 30.112ZM235.277 28.4C235.768 28.4 236.205 28.2933 236.589 28.08C236.973 27.8667 237.272 27.5573 237.485 27.152C237.709 26.7467 237.821 26.272 237.821 25.728C237.821 25.1733 237.709 24.6987 237.485 24.304C237.272 23.8987 236.973 23.5893 236.589 23.376C236.205 23.1627 235.773 23.056 235.293 23.056C234.802 23.056 234.365 23.1627 233.981 23.376C233.608 23.5893 233.309 23.8987 233.085 24.304C232.861 24.6987 232.749 25.1733 232.749 25.728C232.749 26.272 232.861 26.7467 233.085 27.152C233.309 27.5573 233.608 27.8667 233.981 28.08C234.365 28.2933 234.797 28.4 235.277 28.4ZM246.598 21.36C247.28 21.36 247.888 21.4933 248.422 21.76C248.966 22.0267 249.392 22.4373 249.702 22.992C250.011 23.536 250.166 24.24 250.166 25.104V30H248.166V25.36C248.166 24.6027 247.984 24.0373 247.622 23.664C247.27 23.2907 246.774 23.104 246.134 23.104C245.664 23.104 245.248 23.2 244.886 23.392C244.523 23.584 244.24 23.872 244.038 24.256C243.846 24.6293 243.75 25.104 243.75 25.68V30H241.75V21.456H243.654V23.76L243.318 23.056C243.616 22.512 244.048 22.096 244.614 21.808C245.19 21.5093 245.851 21.36 246.598 21.36Z" fill="#FCFCFC"/>
</svg>
